M48
;DRILL file {KiCad 5.0.2+dfsg1-1} date Tue 13 Aug 2019 10:38:32 AM KST
;FORMAT={-:-/ absolute / inch / decimal}
FMAT,2
INCH,TZ
T1C0.0157
T2C0.0394
T3C0.0400
T4C0.1200
T5C0.1260
%
G90
G05
T1
X4.1339Y-2.7559
X4.1339Y-2.8346
X4.1339Y-2.9134
X4.1339Y-2.9165
X4.1339Y-2.9953
X4.1339Y-3.074
X4.1339Y-3.1528
X4.1339Y-3.2315
X4.1339Y-3.3102
X4.1339Y-3.389
X4.1339Y-3.4677
X4.1339Y-3.5465
X4.1339Y-3.6252
X4.1339Y-3.7039
X4.1339Y-3.7827
X4.1339Y-3.8614
X4.1339Y-3.9402
X4.1339Y-4.0189
X4.1339Y-4.0976
X4.1339Y-4.1732
X4.1339Y-4.252
X4.1339Y-4.3307
X4.1339Y-4.4094
X4.1339Y-4.4882
X4.1339Y-4.5669
X4.1339Y-4.6457
X4.1339Y-4.7244
X4.2126Y-2.7559
X4.2126Y-2.8346
X4.2126Y-2.9134
X4.2126Y-2.9921
X4.2126Y-3.0709
X4.2126Y-3.1496
X4.2126Y-3.2283
X4.2126Y-3.3071
X4.2126Y-3.3858
X4.2126Y-3.4646
X4.2126Y-3.5433
X4.2126Y-3.622
X4.2126Y-3.7008
X4.2126Y-3.7795
X4.2126Y-3.8583
X4.2126Y-3.937
X4.2126Y-4.0157
X4.2126Y-4.0945
X4.2126Y-4.1732
X4.2126Y-4.252
X4.2126Y-4.3307
X4.2126Y-4.4094
X4.2126Y-4.4882
X4.2126Y-4.5669
X4.2126Y-4.7244
X4.2913Y-2.7559
X4.2913Y-2.8346
X4.2913Y-2.9134
X4.2913Y-2.9921
X4.2913Y-3.0709
X4.2913Y-3.1496
X4.2913Y-3.2283
X4.2913Y-3.3071
X4.2913Y-3.3858
X4.2913Y-3.4646
X4.2913Y-3.5433
X4.2913Y-3.622
X4.2913Y-3.7008
X4.2913Y-3.7795
X4.2913Y-3.8583
X4.2913Y-3.937
X4.2913Y-4.0157
X4.2913Y-4.0945
X4.2913Y-4.1732
X4.2913Y-4.252
X4.2913Y-4.3307
X4.2913Y-4.4094
X4.2913Y-4.4882
X4.2913Y-4.5669
X4.2913Y-4.7244
X4.3701Y-2.7559
X4.3701Y-2.8346
X4.3701Y-2.9134
X4.3701Y-2.9921
X4.3701Y-3.7795
X4.3701Y-4.5669
X4.3701Y-4.7244
X4.4488Y-2.7559
X4.4488Y-2.8346
X4.4488Y-2.9134
X4.4488Y-2.9921
X4.4488Y-3.1528
X4.4488Y-3.3071
X4.4488Y-3.3858
X4.4488Y-3.5433
X4.4488Y-3.7008
X4.4488Y-3.7795
X4.4488Y-3.8583
X4.4488Y-4.0945
X4.4488Y-4.1732
X4.4488Y-4.4094
X4.4488Y-4.4882
X4.4488Y-4.5669
X4.4488Y-4.7244
X4.5276Y-2.7559
X4.5276Y-2.8346
X4.5276Y-2.9134
X4.5276Y-2.9921
X4.5276Y-3.1528
X4.5276Y-3.3071
X4.5276Y-3.389
X4.5276Y-3.7008
X4.5276Y-3.7795
X4.5276Y-3.8583
X4.5276Y-3.937
X4.5276Y-4.0945
X4.5276Y-4.252
X4.5276Y-4.4094
X4.5276Y-4.4882
X4.6063Y-2.9134
X4.6063Y-2.9921
X4.6063Y-3.1528
X4.6063Y-3.389
X4.6063Y-3.5433
X4.6063Y-3.7795
X4.6063Y-3.8583
X4.6063Y-3.937
X4.6063Y-4.1732
X4.6063Y-4.252
X4.6063Y-4.4094
X4.6063Y-4.4882
X4.6457Y-3.2283
X4.685Y-2.9134
X4.685Y-3.4252
X4.685Y-3.5433
X4.685Y-3.7008
X4.685Y-3.8583
X4.685Y-3.937
X4.685Y-4.1732
X4.685Y-4.252
X4.685Y-4.4094
X4.685Y-4.4882
X4.7244Y-3.189
X4.7315Y-3.274
X4.7638Y-2.9134
X4.7638Y-3.4252
X4.7638Y-3.5433
X4.7638Y-3.7795
X4.7638Y-3.937
X4.7638Y-4.1732
X4.7638Y-4.252
X4.7638Y-4.4094
X4.7638Y-4.5276
X4.7638Y-4.6457
X4.7638Y-4.7244
X4.8031Y-3.2677
X4.8387Y-4.6048
X4.8425Y-3.4252
X4.8425Y-3.5433
X4.8425Y-3.937
X4.8425Y-4.252
X4.8425Y-4.6457
X4.8425Y-4.7244
X4.8819Y-2.874
X4.8976Y-4.1929
X4.9213Y-3.4252
X4.9213Y-4.7244
X4.9942Y-4.2442
X5.Y-3.4252
X5.Y-4.7244
X5.0366Y-3.9118
X5.0394Y-2.874
X5.0787Y-4.6457
X5.0787Y-4.7244
X5.0918Y-4.6048
X5.1181Y-2.874
X5.1312Y-4.4095
X5.1312Y-4.4473
X5.1312Y-4.4867
X5.1312Y-4.526
X5.1312Y-4.5654
X5.1312Y-4.6048
X5.1706Y-4.3686
X5.1706Y-4.4079
X5.1706Y-4.4867
X5.1706Y-4.526
X5.1706Y-4.5654
X5.1706Y-4.6048
X5.1722Y-4.4473
X5.1752Y-3.3071
X5.1756Y-3.25
X5.1772Y-3.7795
X5.1772Y-3.8386
X5.1772Y-3.9173
X5.1776Y-3.624
X5.1776Y-3.6748
X5.1854Y-3.5016
X5.1866Y-3.1441
X5.1886Y-3.0949
X5.1969Y-3.4252
X5.2096Y-4.4867
X5.2099Y-4.3292
X5.2099Y-4.3686
X5.2099Y-4.4075
X5.2099Y-4.4473
X5.2099Y-4.526
X5.2099Y-4.5654
X5.2099Y-4.6048
X5.2493Y-4.6048
X5.2756Y-3.4252
X5.2887Y-4.6048
X5.3543Y-2.874
X5.3543Y-3.0315
X5.3543Y-3.4252
X5.3543Y-3.937
X5.4331Y-2.874
X5.4331Y-2.9528
X5.4331Y-3.4252
X5.4331Y-3.937
X5.4331Y-4.6063
X5.443Y-4.4457
X5.5118Y-2.874
X5.5118Y-2.9528
X5.5118Y-3.2283
X5.5118Y-3.4252
X5.5118Y-3.937
X5.5118Y-4.2126
X5.5118Y-4.2913
X5.5118Y-4.5276
X5.5118Y-4.6063
X5.5315Y-3.622
X5.5512Y-3.1102
X5.5906Y-2.874
X5.5906Y-2.9528
X5.5906Y-3.4252
X5.5906Y-4.1339
X5.5906Y-4.2913
X5.5906Y-4.3701
X5.5906Y-4.5276
X5.5906Y-4.6063
X5.6102Y-3.622
X5.6693Y-2.874
X5.6693Y-4.1339
X5.6693Y-4.2126
X5.6693Y-4.3701
X5.6693Y-4.5276
X5.6693Y-4.6063
X5.7087Y-2.9555
X5.7087Y-3.1803
X5.7087Y-3.5161
X5.7087Y-3.7417
X5.748Y-2.874
X5.748Y-4.1339
X5.748Y-4.2126
X5.748Y-4.2913
X5.748Y-4.6063
X5.7677Y-3.2992
X5.8079Y-3.3858
X5.8091Y-3.472
X5.8169Y-4.4433
X5.8268Y-2.874
X5.8268Y-4.1339
X5.8268Y-4.2126
X5.8268Y-4.2913
X5.8441Y-3.937
X5.9047Y-3.9843
X5.9055Y-2.874
X5.9055Y-3.6614
X5.9055Y-3.7402
X5.9055Y-4.1339
X5.9055Y-4.2126
X5.9055Y-4.2913
X5.9213Y-3.4016
X5.9213Y-3.4961
X5.9252Y-3.248
X5.9689Y-3.6071
X5.9843Y-2.874
X5.9843Y-3.1102
X5.9843Y-3.6614
X5.9843Y-3.7402
X5.9843Y-4.1339
X5.9843Y-4.2126
X5.9843Y-4.2913
X5.9843Y-4.3701
X5.9843Y-4.4488
X6.0016Y-4.0382
X6.0358Y-3.5421
X6.063Y-2.874
X6.063Y-3.1102
X6.063Y-3.7402
X6.063Y-3.9764
X6.063Y-4.0551
X6.063Y-4.1339
X6.063Y-4.2126
X6.063Y-4.2913
X6.063Y-4.3701
X6.063Y-4.6063
X6.1417Y-2.874
X6.1417Y-3.6614
X6.1417Y-3.7402
X6.1417Y-3.8189
X6.1417Y-3.9764
X6.1417Y-4.0551
X6.1417Y-4.1339
X6.1417Y-4.2126
X6.1417Y-4.2913
X6.1417Y-4.5276
X6.1417Y-4.6063
X6.2205Y-2.874
X6.2205Y-3.6614
X6.2205Y-3.7402
X6.2205Y-3.9764
X6.2205Y-4.0551
X6.2205Y-4.1339
X6.2205Y-4.2126
X6.2205Y-4.2913
X6.2205Y-4.5276
X6.2205Y-4.6063
X6.2992Y-2.874
X6.2992Y-3.0315
X6.2992Y-3.6614
X6.2992Y-3.7402
X6.2992Y-4.5276
X6.2992Y-4.6063
X6.378Y-2.874
X6.378Y-3.0315
X6.378Y-3.1102
X6.378Y-3.6614
X6.378Y-3.7402
X6.378Y-3.9764
X6.378Y-4.0551
X6.378Y-4.1339
X6.378Y-4.2126
X6.378Y-4.2913
X6.378Y-4.5276
X6.378Y-4.6063
X6.4563Y-3.248
X6.4567Y-2.874
X6.4567Y-3.0315
X6.4567Y-3.1102
X6.4567Y-3.6614
X6.4567Y-3.9764
X6.4567Y-4.0551
X6.4567Y-4.1339
X6.4567Y-4.2126
X6.4567Y-4.2913
X6.4567Y-4.3701
X6.4567Y-4.5276
X6.4567Y-4.6063
X6.5354Y-2.874
X6.5354Y-3.0315
X6.5354Y-3.1102
X6.5354Y-3.248
X6.5354Y-3.3858
X6.5354Y-3.7402
X6.5354Y-3.8189
X6.5354Y-3.9764
X6.5354Y-4.0551
X6.5354Y-4.1339
X6.5354Y-4.2126
X6.5354Y-4.2913
X6.5354Y-4.3701
X6.5354Y-4.5276
X6.5354Y-4.6063
X6.5866Y-3.75
X6.6142Y-2.874
X6.6142Y-3.0315
X6.6142Y-3.1102
X6.6142Y-3.4252
X6.6142Y-3.5039
X6.6142Y-3.9764
X6.6142Y-4.0551
X6.6142Y-4.1339
X6.6142Y-4.2126
X6.6142Y-4.2913
X6.6142Y-4.3701
X6.6142Y-4.5276
X6.6142Y-4.6063
X6.6929Y-2.7953
X6.6929Y-2.874
X6.6929Y-3.0315
X6.6929Y-3.3858
X6.6929Y-3.5827
X6.6929Y-4.2913
X6.6929Y-4.6063
X6.7717Y-2.874
X6.7717Y-4.6063
X6.8504Y-4.2913
X6.8504Y-4.3701
X6.8504Y-4.6063
X6.8504Y-4.685
X6.8858Y-3.3189
X6.8898Y-3.3858
X6.8898Y-3.4646
X6.9291Y-3.7402
X6.9291Y-3.8189
X6.9291Y-3.8976
X6.9291Y-3.9764
X6.9291Y-4.0551
X6.9291Y-4.2126
X6.9291Y-4.2913
X6.9291Y-4.3701
X6.9291Y-4.4488
X6.9291Y-4.5276
X6.9291Y-4.6063
X6.9567Y-3.315
X6.9685Y-3.3858
X6.9925Y-3.7437
X7.0079Y-4.1339
X7.0079Y-4.2126
X7.0079Y-4.2913
X7.0079Y-4.3701
X7.0079Y-4.4488
X7.0079Y-4.5276
X7.0079Y-4.6063
X7.0472Y-3.1811
X7.0472Y-3.3071
X7.0866Y-3.7402
X7.0866Y-3.8189
X7.0866Y-3.8976
X7.0866Y-3.9764
X7.0866Y-4.0551
X7.0866Y-4.1339
X7.0866Y-4.2126
X7.0866Y-4.2913
X7.0866Y-4.3701
X7.0866Y-4.4488
X7.0866Y-4.5276
X7.0866Y-4.6063
X7.1575Y-3.0394
X7.1654Y-3.5827
X7.1654Y-3.8189
X7.1654Y-3.8976
X7.1654Y-3.9764
X7.1654Y-4.0551
X7.1654Y-4.1339
X7.1654Y-4.2126
X7.1654Y-4.2913
X7.1654Y-4.3701
X7.1654Y-4.4488
X7.1654Y-4.5276
X7.1654Y-4.6063
X7.1969Y-3.1732
X7.2441Y-3.5039
X7.2441Y-3.5827
X7.2441Y-3.6614
X7.2441Y-3.8976
X7.2441Y-3.9764
X7.2441Y-4.0551
X7.2441Y-4.1339
X7.2441Y-4.2126
X7.2441Y-4.2913
X7.2441Y-4.3701
X7.2441Y-4.4488
X7.2441Y-4.5276
X7.2441Y-4.6063
X7.3228Y-3.4252
X7.3228Y-3.5039
X7.3228Y-3.5827
X7.3228Y-3.6614
X7.3228Y-3.7402
X7.3228Y-3.9764
X7.3228Y-4.0551
X7.3228Y-4.1339
X7.3228Y-4.2126
X7.3228Y-4.2913
X7.3228Y-4.3701
X7.3228Y-4.4488
X7.3228Y-4.5276
X7.3228Y-4.6063
X7.3307Y-2.8661
X7.3587Y-2.9961
X7.4016Y-3.6614
X7.4016Y-4.2913
X7.4016Y-4.6063
X7.4252Y-2.8661
X7.4803Y-4.2126
X7.4803Y-4.2913
X7.4803Y-4.6063
X7.5197Y-2.8661
X7.5197Y-3.5827
X7.5197Y-3.6614
X7.5197Y-3.7402
X7.5433Y-3.1732
X7.5591Y-3.9764
X7.5591Y-4.0551
X7.5591Y-4.1339
X7.5591Y-4.2126
X7.5591Y-4.2913
X7.5591Y-4.3701
X7.5591Y-4.4488
X7.5591Y-4.5276
X7.5591Y-4.6063
X7.5984Y-3.3465
X7.5984Y-3.4252
X7.5984Y-3.5039
X7.5984Y-3.5827
X7.5984Y-3.6614
X7.5984Y-3.7402
X7.5984Y-3.8189
X7.5984Y-3.8976
X7.6378Y-3.9764
X7.6378Y-4.0551
X7.6378Y-4.1339
X7.6378Y-4.2126
X7.6378Y-4.2913
X7.6378Y-4.3701
X7.6378Y-4.4488
X7.6378Y-4.5276
X7.6378Y-4.6063
X7.6772Y-3.1181
X7.6772Y-3.2047
X7.6772Y-3.3465
X7.6772Y-3.4252
X7.6772Y-3.5039
X7.6772Y-3.5827
X7.6772Y-3.6614
X7.6772Y-3.7402
X7.6772Y-3.8189
X7.6772Y-3.8976
X7.7165Y-4.0551
X7.7165Y-4.1339
X7.7165Y-4.4488
X7.7165Y-4.5276
X7.7165Y-4.6063
X7.7559Y-4.7047
X7.7953Y-4.5669
X7.9134Y-4.5669
X7.9921Y-3.3465
X7.9921Y-3.4252
X7.9921Y-3.5039
X7.9921Y-3.5827
X7.9921Y-3.6614
X7.9921Y-3.7402
X7.9921Y-3.8189
X7.9921Y-3.8976
X7.9921Y-3.9764
X7.9921Y-4.0551
X7.9921Y-4.1339
X7.9921Y-4.2126
X7.9921Y-4.2913
X7.9921Y-4.3701
X7.9921Y-4.4488
X7.9921Y-4.5276
X7.9921Y-4.6063
T2
X4.378Y-3.0736
X4.378Y-3.2114
X4.378Y-3.3492
X4.378Y-3.487
X4.378Y-3.6248
X4.378Y-3.7626
X4.378Y-3.9004
X4.378Y-4.0382
X4.378Y-4.176
X4.378Y-4.3138
X4.378Y-4.4516
X4.9Y-3.5992
X4.9Y-3.6992
X4.9Y-3.7992
X5.Y-3.5992
X5.Y-3.6992
X5.Y-3.7992
X6.7165Y-3.7565
X6.7165Y-3.8656
X6.7165Y-3.9746
X6.7165Y-4.0837
X6.7165Y-4.1927
X6.8283Y-3.811
X6.8283Y-3.9201
X6.8283Y-4.0291
X6.8283Y-4.1382
X7.3866Y-3.7565
X7.3866Y-3.8656
X7.3866Y-3.9746
X7.3866Y-4.0837
X7.3866Y-4.1927
X7.4984Y-3.811
X7.4984Y-3.9201
X7.4984Y-4.0291
X7.4984Y-4.1382
X4.9Y-3.05
X4.9Y-3.15
X4.9Y-3.25
X5.Y-3.05
X5.Y-3.15
X5.Y-3.25
T3
X6.07Y-4.69
X6.17Y-4.69
X6.27Y-4.69
X6.37Y-4.69
X6.47Y-4.69
X6.57Y-4.69
X6.67Y-4.69
X6.77Y-4.69
X4.81Y-2.79
X4.91Y-2.79
X5.01Y-2.79
X5.11Y-2.79
X5.21Y-2.79
X5.31Y-2.79
X5.41Y-2.79
X5.51Y-2.79
X5.61Y-2.79
X5.71Y-2.79
X5.17Y-4.69
X5.27Y-4.69
X5.37Y-4.69
X5.47Y-4.69
X5.57Y-4.69
X5.67Y-4.69
X5.77Y-4.69
X5.87Y-4.69
X7.77Y-2.79
X7.77Y-2.89
X7.77Y-2.99
X7.77Y-3.09
X7.77Y-3.19
X7.77Y-3.29
X7.77Y-3.39
X7.77Y-3.49
X7.77Y-3.59
X7.77Y-3.69
X7.77Y-3.79
X7.77Y-3.89
X7.77Y-3.99
X7.77Y-4.09
X7.77Y-4.19
X7.77Y-4.29
X7.77Y-4.39
X7.77Y-4.49
X7.87Y-2.79
X7.87Y-2.89
X7.87Y-2.99
X7.87Y-3.09
X7.87Y-3.19
X7.87Y-3.29
X7.87Y-3.39
X7.87Y-3.49
X7.87Y-3.59
X7.87Y-3.69
X7.87Y-3.79
X7.87Y-3.89
X7.87Y-3.99
X7.87Y-4.09
X7.87Y-4.19
X7.87Y-4.29
X7.87Y-4.39
X7.87Y-4.49
X6.77Y-2.79
X6.87Y-2.79
X6.97Y-2.79
X7.07Y-2.79
X7.17Y-2.79
X7.27Y-2.79
X7.37Y-2.79
X7.47Y-2.79
X5.87Y-2.79
X5.97Y-2.79
X6.07Y-2.79
X6.17Y-2.79
X6.27Y-2.79
X6.37Y-2.79
X6.47Y-2.79
X6.57Y-2.79
X6.97Y-4.69
X7.07Y-4.69
X7.17Y-4.69
X7.27Y-4.69
X7.37Y-4.69
X7.47Y-4.69
X7.57Y-4.69
X7.67Y-4.69
T4
X4.62Y-4.69
X7.87Y-4.69
X4.67Y-2.79
X7.62Y-2.79
T5
X6.7724Y-3.4825
X6.7724Y-4.4667
X7.4425Y-3.4825
X7.4425Y-4.4667
T0
M30
