G04 #@! TF.GenerationSoftware,KiCad,Pcbnew,5.0.2+dfsg1-1*
G04 #@! TF.CreationDate,2019-06-09T15:01:45+09:00*
G04 #@! TF.ProjectId,portal_schematic,706f7274-616c-45f7-9363-68656d617469,rev?*
G04 #@! TF.SameCoordinates,Original*
G04 #@! TF.FileFunction,Paste,Top*
G04 #@! TF.FilePolarity,Positive*
%FSLAX46Y46*%
G04 Gerber Fmt 4.6, Leading zero omitted, Abs format (unit mm)*
G04 Created by KiCad (PCBNEW 5.0.2+dfsg1-1) date Sun 09 Jun 2019 03:01:45 PM KST*
%MOMM*%
%LPD*%
G01*
G04 APERTURE LIST*
%ADD10R,0.450000X1.500000*%
%ADD11R,0.900000X0.800000*%
%ADD12C,0.100000*%
%ADD13C,0.975000*%
%ADD14R,1.000000X1.150000*%
%ADD15R,1.600000X0.610000*%
%ADD16R,2.620000X3.510000*%
%ADD17R,1.550000X0.600000*%
%ADD18C,1.250000*%
%ADD19R,3.400000X2.350000*%
%ADD20R,0.800000X0.900000*%
%ADD21R,1.100000X1.100000*%
%ADD22R,2.000000X1.780000*%
G04 APERTURE END LIST*
D10*
G04 #@! TO.C,U7*
X159030909Y-86401215D03*
X159680909Y-86401215D03*
X160330909Y-86401215D03*
X160980909Y-86401215D03*
X161630909Y-86401215D03*
X162280909Y-86401215D03*
X162930909Y-86401215D03*
X163580909Y-86401215D03*
X163580909Y-80501215D03*
X162930909Y-80501215D03*
X162280909Y-80501215D03*
X161630909Y-80501215D03*
X160980909Y-80501215D03*
X160330909Y-80501215D03*
X159680909Y-80501215D03*
X159030909Y-80501215D03*
G04 #@! TD*
D11*
G04 #@! TO.C,Q1*
X135020000Y-96610000D03*
X135020000Y-98510000D03*
X137020000Y-97560000D03*
G04 #@! TD*
D12*
G04 #@! TO.C,C9*
G36*
X158521051Y-88442389D02*
X158544712Y-88445899D01*
X158567916Y-88451711D01*
X158590438Y-88459769D01*
X158612062Y-88469997D01*
X158632579Y-88482294D01*
X158651792Y-88496544D01*
X158669516Y-88512608D01*
X158685580Y-88530332D01*
X158699830Y-88549545D01*
X158712127Y-88570062D01*
X158722355Y-88591686D01*
X158730413Y-88614208D01*
X158736225Y-88637412D01*
X158739735Y-88661073D01*
X158740909Y-88684965D01*
X158740909Y-89597465D01*
X158739735Y-89621357D01*
X158736225Y-89645018D01*
X158730413Y-89668222D01*
X158722355Y-89690744D01*
X158712127Y-89712368D01*
X158699830Y-89732885D01*
X158685580Y-89752098D01*
X158669516Y-89769822D01*
X158651792Y-89785886D01*
X158632579Y-89800136D01*
X158612062Y-89812433D01*
X158590438Y-89822661D01*
X158567916Y-89830719D01*
X158544712Y-89836531D01*
X158521051Y-89840041D01*
X158497159Y-89841215D01*
X158009659Y-89841215D01*
X157985767Y-89840041D01*
X157962106Y-89836531D01*
X157938902Y-89830719D01*
X157916380Y-89822661D01*
X157894756Y-89812433D01*
X157874239Y-89800136D01*
X157855026Y-89785886D01*
X157837302Y-89769822D01*
X157821238Y-89752098D01*
X157806988Y-89732885D01*
X157794691Y-89712368D01*
X157784463Y-89690744D01*
X157776405Y-89668222D01*
X157770593Y-89645018D01*
X157767083Y-89621357D01*
X157765909Y-89597465D01*
X157765909Y-88684965D01*
X157767083Y-88661073D01*
X157770593Y-88637412D01*
X157776405Y-88614208D01*
X157784463Y-88591686D01*
X157794691Y-88570062D01*
X157806988Y-88549545D01*
X157821238Y-88530332D01*
X157837302Y-88512608D01*
X157855026Y-88496544D01*
X157874239Y-88482294D01*
X157894756Y-88469997D01*
X157916380Y-88459769D01*
X157938902Y-88451711D01*
X157962106Y-88445899D01*
X157985767Y-88442389D01*
X158009659Y-88441215D01*
X158497159Y-88441215D01*
X158521051Y-88442389D01*
X158521051Y-88442389D01*
G37*
D13*
X158253409Y-89141215D03*
D12*
G36*
X156646051Y-88442389D02*
X156669712Y-88445899D01*
X156692916Y-88451711D01*
X156715438Y-88459769D01*
X156737062Y-88469997D01*
X156757579Y-88482294D01*
X156776792Y-88496544D01*
X156794516Y-88512608D01*
X156810580Y-88530332D01*
X156824830Y-88549545D01*
X156837127Y-88570062D01*
X156847355Y-88591686D01*
X156855413Y-88614208D01*
X156861225Y-88637412D01*
X156864735Y-88661073D01*
X156865909Y-88684965D01*
X156865909Y-89597465D01*
X156864735Y-89621357D01*
X156861225Y-89645018D01*
X156855413Y-89668222D01*
X156847355Y-89690744D01*
X156837127Y-89712368D01*
X156824830Y-89732885D01*
X156810580Y-89752098D01*
X156794516Y-89769822D01*
X156776792Y-89785886D01*
X156757579Y-89800136D01*
X156737062Y-89812433D01*
X156715438Y-89822661D01*
X156692916Y-89830719D01*
X156669712Y-89836531D01*
X156646051Y-89840041D01*
X156622159Y-89841215D01*
X156134659Y-89841215D01*
X156110767Y-89840041D01*
X156087106Y-89836531D01*
X156063902Y-89830719D01*
X156041380Y-89822661D01*
X156019756Y-89812433D01*
X155999239Y-89800136D01*
X155980026Y-89785886D01*
X155962302Y-89769822D01*
X155946238Y-89752098D01*
X155931988Y-89732885D01*
X155919691Y-89712368D01*
X155909463Y-89690744D01*
X155901405Y-89668222D01*
X155895593Y-89645018D01*
X155892083Y-89621357D01*
X155890909Y-89597465D01*
X155890909Y-88684965D01*
X155892083Y-88661073D01*
X155895593Y-88637412D01*
X155901405Y-88614208D01*
X155909463Y-88591686D01*
X155919691Y-88570062D01*
X155931988Y-88549545D01*
X155946238Y-88530332D01*
X155962302Y-88512608D01*
X155980026Y-88496544D01*
X155999239Y-88482294D01*
X156019756Y-88469997D01*
X156041380Y-88459769D01*
X156063902Y-88451711D01*
X156087106Y-88445899D01*
X156110767Y-88442389D01*
X156134659Y-88441215D01*
X156622159Y-88441215D01*
X156646051Y-88442389D01*
X156646051Y-88442389D01*
G37*
D13*
X156378409Y-89141215D03*
G04 #@! TD*
D14*
G04 #@! TO.C,SW1*
X149000000Y-96315000D03*
X146500000Y-96315000D03*
X144000000Y-96315000D03*
X149000000Y-90665000D03*
X146500000Y-90665000D03*
X144000000Y-90665000D03*
G04 #@! TD*
D15*
G04 #@! TO.C,U4*
X134122642Y-111386413D03*
X128722642Y-111386413D03*
X134122642Y-112656413D03*
X128722642Y-112656413D03*
X134122642Y-113926413D03*
X128722642Y-113926413D03*
X134122642Y-115196413D03*
X128722642Y-115196413D03*
D16*
X131422642Y-113291413D03*
G04 #@! TD*
D12*
G04 #@! TO.C,C6*
G36*
X137292784Y-112262587D02*
X137316445Y-112266097D01*
X137339649Y-112271909D01*
X137362171Y-112279967D01*
X137383795Y-112290195D01*
X137404312Y-112302492D01*
X137423525Y-112316742D01*
X137441249Y-112332806D01*
X137457313Y-112350530D01*
X137471563Y-112369743D01*
X137483860Y-112390260D01*
X137494088Y-112411884D01*
X137502146Y-112434406D01*
X137507958Y-112457610D01*
X137511468Y-112481271D01*
X137512642Y-112505163D01*
X137512642Y-112992663D01*
X137511468Y-113016555D01*
X137507958Y-113040216D01*
X137502146Y-113063420D01*
X137494088Y-113085942D01*
X137483860Y-113107566D01*
X137471563Y-113128083D01*
X137457313Y-113147296D01*
X137441249Y-113165020D01*
X137423525Y-113181084D01*
X137404312Y-113195334D01*
X137383795Y-113207631D01*
X137362171Y-113217859D01*
X137339649Y-113225917D01*
X137316445Y-113231729D01*
X137292784Y-113235239D01*
X137268892Y-113236413D01*
X136356392Y-113236413D01*
X136332500Y-113235239D01*
X136308839Y-113231729D01*
X136285635Y-113225917D01*
X136263113Y-113217859D01*
X136241489Y-113207631D01*
X136220972Y-113195334D01*
X136201759Y-113181084D01*
X136184035Y-113165020D01*
X136167971Y-113147296D01*
X136153721Y-113128083D01*
X136141424Y-113107566D01*
X136131196Y-113085942D01*
X136123138Y-113063420D01*
X136117326Y-113040216D01*
X136113816Y-113016555D01*
X136112642Y-112992663D01*
X136112642Y-112505163D01*
X136113816Y-112481271D01*
X136117326Y-112457610D01*
X136123138Y-112434406D01*
X136131196Y-112411884D01*
X136141424Y-112390260D01*
X136153721Y-112369743D01*
X136167971Y-112350530D01*
X136184035Y-112332806D01*
X136201759Y-112316742D01*
X136220972Y-112302492D01*
X136241489Y-112290195D01*
X136263113Y-112279967D01*
X136285635Y-112271909D01*
X136308839Y-112266097D01*
X136332500Y-112262587D01*
X136356392Y-112261413D01*
X137268892Y-112261413D01*
X137292784Y-112262587D01*
X137292784Y-112262587D01*
G37*
D13*
X136812642Y-112748913D03*
D12*
G36*
X137292784Y-110387587D02*
X137316445Y-110391097D01*
X137339649Y-110396909D01*
X137362171Y-110404967D01*
X137383795Y-110415195D01*
X137404312Y-110427492D01*
X137423525Y-110441742D01*
X137441249Y-110457806D01*
X137457313Y-110475530D01*
X137471563Y-110494743D01*
X137483860Y-110515260D01*
X137494088Y-110536884D01*
X137502146Y-110559406D01*
X137507958Y-110582610D01*
X137511468Y-110606271D01*
X137512642Y-110630163D01*
X137512642Y-111117663D01*
X137511468Y-111141555D01*
X137507958Y-111165216D01*
X137502146Y-111188420D01*
X137494088Y-111210942D01*
X137483860Y-111232566D01*
X137471563Y-111253083D01*
X137457313Y-111272296D01*
X137441249Y-111290020D01*
X137423525Y-111306084D01*
X137404312Y-111320334D01*
X137383795Y-111332631D01*
X137362171Y-111342859D01*
X137339649Y-111350917D01*
X137316445Y-111356729D01*
X137292784Y-111360239D01*
X137268892Y-111361413D01*
X136356392Y-111361413D01*
X136332500Y-111360239D01*
X136308839Y-111356729D01*
X136285635Y-111350917D01*
X136263113Y-111342859D01*
X136241489Y-111332631D01*
X136220972Y-111320334D01*
X136201759Y-111306084D01*
X136184035Y-111290020D01*
X136167971Y-111272296D01*
X136153721Y-111253083D01*
X136141424Y-111232566D01*
X136131196Y-111210942D01*
X136123138Y-111188420D01*
X136117326Y-111165216D01*
X136113816Y-111141555D01*
X136112642Y-111117663D01*
X136112642Y-110630163D01*
X136113816Y-110606271D01*
X136117326Y-110582610D01*
X136123138Y-110559406D01*
X136131196Y-110536884D01*
X136141424Y-110515260D01*
X136153721Y-110494743D01*
X136167971Y-110475530D01*
X136184035Y-110457806D01*
X136201759Y-110441742D01*
X136220972Y-110427492D01*
X136241489Y-110415195D01*
X136263113Y-110404967D01*
X136285635Y-110396909D01*
X136308839Y-110391097D01*
X136332500Y-110387587D01*
X136356392Y-110386413D01*
X137268892Y-110386413D01*
X137292784Y-110387587D01*
X137292784Y-110387587D01*
G37*
D13*
X136812642Y-110873913D03*
G04 #@! TD*
D17*
G04 #@! TO.C,U3*
X138600000Y-94595000D03*
X138600000Y-93325000D03*
X138600000Y-92055000D03*
X138600000Y-90785000D03*
X133200000Y-90785000D03*
X133200000Y-92055000D03*
X133200000Y-93325000D03*
X133200000Y-94595000D03*
G04 #@! TD*
D12*
G04 #@! TO.C,C1*
G36*
X122999504Y-103626204D02*
X123023773Y-103629804D01*
X123047571Y-103635765D01*
X123070671Y-103644030D01*
X123092849Y-103654520D01*
X123113893Y-103667133D01*
X123133598Y-103681747D01*
X123151777Y-103698223D01*
X123168253Y-103716402D01*
X123182867Y-103736107D01*
X123195480Y-103757151D01*
X123205970Y-103779329D01*
X123214235Y-103802429D01*
X123220196Y-103826227D01*
X123223796Y-103850496D01*
X123225000Y-103875000D01*
X123225000Y-105125000D01*
X123223796Y-105149504D01*
X123220196Y-105173773D01*
X123214235Y-105197571D01*
X123205970Y-105220671D01*
X123195480Y-105242849D01*
X123182867Y-105263893D01*
X123168253Y-105283598D01*
X123151777Y-105301777D01*
X123133598Y-105318253D01*
X123113893Y-105332867D01*
X123092849Y-105345480D01*
X123070671Y-105355970D01*
X123047571Y-105364235D01*
X123023773Y-105370196D01*
X122999504Y-105373796D01*
X122975000Y-105375000D01*
X122225000Y-105375000D01*
X122200496Y-105373796D01*
X122176227Y-105370196D01*
X122152429Y-105364235D01*
X122129329Y-105355970D01*
X122107151Y-105345480D01*
X122086107Y-105332867D01*
X122066402Y-105318253D01*
X122048223Y-105301777D01*
X122031747Y-105283598D01*
X122017133Y-105263893D01*
X122004520Y-105242849D01*
X121994030Y-105220671D01*
X121985765Y-105197571D01*
X121979804Y-105173773D01*
X121976204Y-105149504D01*
X121975000Y-105125000D01*
X121975000Y-103875000D01*
X121976204Y-103850496D01*
X121979804Y-103826227D01*
X121985765Y-103802429D01*
X121994030Y-103779329D01*
X122004520Y-103757151D01*
X122017133Y-103736107D01*
X122031747Y-103716402D01*
X122048223Y-103698223D01*
X122066402Y-103681747D01*
X122086107Y-103667133D01*
X122107151Y-103654520D01*
X122129329Y-103644030D01*
X122152429Y-103635765D01*
X122176227Y-103629804D01*
X122200496Y-103626204D01*
X122225000Y-103625000D01*
X122975000Y-103625000D01*
X122999504Y-103626204D01*
X122999504Y-103626204D01*
G37*
D18*
X122600000Y-104500000D03*
D12*
G36*
X125799504Y-103626204D02*
X125823773Y-103629804D01*
X125847571Y-103635765D01*
X125870671Y-103644030D01*
X125892849Y-103654520D01*
X125913893Y-103667133D01*
X125933598Y-103681747D01*
X125951777Y-103698223D01*
X125968253Y-103716402D01*
X125982867Y-103736107D01*
X125995480Y-103757151D01*
X126005970Y-103779329D01*
X126014235Y-103802429D01*
X126020196Y-103826227D01*
X126023796Y-103850496D01*
X126025000Y-103875000D01*
X126025000Y-105125000D01*
X126023796Y-105149504D01*
X126020196Y-105173773D01*
X126014235Y-105197571D01*
X126005970Y-105220671D01*
X125995480Y-105242849D01*
X125982867Y-105263893D01*
X125968253Y-105283598D01*
X125951777Y-105301777D01*
X125933598Y-105318253D01*
X125913893Y-105332867D01*
X125892849Y-105345480D01*
X125870671Y-105355970D01*
X125847571Y-105364235D01*
X125823773Y-105370196D01*
X125799504Y-105373796D01*
X125775000Y-105375000D01*
X125025000Y-105375000D01*
X125000496Y-105373796D01*
X124976227Y-105370196D01*
X124952429Y-105364235D01*
X124929329Y-105355970D01*
X124907151Y-105345480D01*
X124886107Y-105332867D01*
X124866402Y-105318253D01*
X124848223Y-105301777D01*
X124831747Y-105283598D01*
X124817133Y-105263893D01*
X124804520Y-105242849D01*
X124794030Y-105220671D01*
X124785765Y-105197571D01*
X124779804Y-105173773D01*
X124776204Y-105149504D01*
X124775000Y-105125000D01*
X124775000Y-103875000D01*
X124776204Y-103850496D01*
X124779804Y-103826227D01*
X124785765Y-103802429D01*
X124794030Y-103779329D01*
X124804520Y-103757151D01*
X124817133Y-103736107D01*
X124831747Y-103716402D01*
X124848223Y-103698223D01*
X124866402Y-103681747D01*
X124886107Y-103667133D01*
X124907151Y-103654520D01*
X124929329Y-103644030D01*
X124952429Y-103635765D01*
X124976227Y-103629804D01*
X125000496Y-103626204D01*
X125025000Y-103625000D01*
X125775000Y-103625000D01*
X125799504Y-103626204D01*
X125799504Y-103626204D01*
G37*
D18*
X125400000Y-104500000D03*
G04 #@! TD*
D12*
G04 #@! TO.C,C2*
G36*
X124955142Y-101801174D02*
X124978803Y-101804684D01*
X125002007Y-101810496D01*
X125024529Y-101818554D01*
X125046153Y-101828782D01*
X125066670Y-101841079D01*
X125085883Y-101855329D01*
X125103607Y-101871393D01*
X125119671Y-101889117D01*
X125133921Y-101908330D01*
X125146218Y-101928847D01*
X125156446Y-101950471D01*
X125164504Y-101972993D01*
X125170316Y-101996197D01*
X125173826Y-102019858D01*
X125175000Y-102043750D01*
X125175000Y-102956250D01*
X125173826Y-102980142D01*
X125170316Y-103003803D01*
X125164504Y-103027007D01*
X125156446Y-103049529D01*
X125146218Y-103071153D01*
X125133921Y-103091670D01*
X125119671Y-103110883D01*
X125103607Y-103128607D01*
X125085883Y-103144671D01*
X125066670Y-103158921D01*
X125046153Y-103171218D01*
X125024529Y-103181446D01*
X125002007Y-103189504D01*
X124978803Y-103195316D01*
X124955142Y-103198826D01*
X124931250Y-103200000D01*
X124443750Y-103200000D01*
X124419858Y-103198826D01*
X124396197Y-103195316D01*
X124372993Y-103189504D01*
X124350471Y-103181446D01*
X124328847Y-103171218D01*
X124308330Y-103158921D01*
X124289117Y-103144671D01*
X124271393Y-103128607D01*
X124255329Y-103110883D01*
X124241079Y-103091670D01*
X124228782Y-103071153D01*
X124218554Y-103049529D01*
X124210496Y-103027007D01*
X124204684Y-103003803D01*
X124201174Y-102980142D01*
X124200000Y-102956250D01*
X124200000Y-102043750D01*
X124201174Y-102019858D01*
X124204684Y-101996197D01*
X124210496Y-101972993D01*
X124218554Y-101950471D01*
X124228782Y-101928847D01*
X124241079Y-101908330D01*
X124255329Y-101889117D01*
X124271393Y-101871393D01*
X124289117Y-101855329D01*
X124308330Y-101841079D01*
X124328847Y-101828782D01*
X124350471Y-101818554D01*
X124372993Y-101810496D01*
X124396197Y-101804684D01*
X124419858Y-101801174D01*
X124443750Y-101800000D01*
X124931250Y-101800000D01*
X124955142Y-101801174D01*
X124955142Y-101801174D01*
G37*
D13*
X124687500Y-102500000D03*
D12*
G36*
X123080142Y-101801174D02*
X123103803Y-101804684D01*
X123127007Y-101810496D01*
X123149529Y-101818554D01*
X123171153Y-101828782D01*
X123191670Y-101841079D01*
X123210883Y-101855329D01*
X123228607Y-101871393D01*
X123244671Y-101889117D01*
X123258921Y-101908330D01*
X123271218Y-101928847D01*
X123281446Y-101950471D01*
X123289504Y-101972993D01*
X123295316Y-101996197D01*
X123298826Y-102019858D01*
X123300000Y-102043750D01*
X123300000Y-102956250D01*
X123298826Y-102980142D01*
X123295316Y-103003803D01*
X123289504Y-103027007D01*
X123281446Y-103049529D01*
X123271218Y-103071153D01*
X123258921Y-103091670D01*
X123244671Y-103110883D01*
X123228607Y-103128607D01*
X123210883Y-103144671D01*
X123191670Y-103158921D01*
X123171153Y-103171218D01*
X123149529Y-103181446D01*
X123127007Y-103189504D01*
X123103803Y-103195316D01*
X123080142Y-103198826D01*
X123056250Y-103200000D01*
X122568750Y-103200000D01*
X122544858Y-103198826D01*
X122521197Y-103195316D01*
X122497993Y-103189504D01*
X122475471Y-103181446D01*
X122453847Y-103171218D01*
X122433330Y-103158921D01*
X122414117Y-103144671D01*
X122396393Y-103128607D01*
X122380329Y-103110883D01*
X122366079Y-103091670D01*
X122353782Y-103071153D01*
X122343554Y-103049529D01*
X122335496Y-103027007D01*
X122329684Y-103003803D01*
X122326174Y-102980142D01*
X122325000Y-102956250D01*
X122325000Y-102043750D01*
X122326174Y-102019858D01*
X122329684Y-101996197D01*
X122335496Y-101972993D01*
X122343554Y-101950471D01*
X122353782Y-101928847D01*
X122366079Y-101908330D01*
X122380329Y-101889117D01*
X122396393Y-101871393D01*
X122414117Y-101855329D01*
X122433330Y-101841079D01*
X122453847Y-101828782D01*
X122475471Y-101818554D01*
X122497993Y-101810496D01*
X122521197Y-101804684D01*
X122544858Y-101801174D01*
X122568750Y-101800000D01*
X123056250Y-101800000D01*
X123080142Y-101801174D01*
X123080142Y-101801174D01*
G37*
D13*
X122812500Y-102500000D03*
G04 #@! TD*
D12*
G04 #@! TO.C,C3*
G36*
X133407642Y-88231174D02*
X133431303Y-88234684D01*
X133454507Y-88240496D01*
X133477029Y-88248554D01*
X133498653Y-88258782D01*
X133519170Y-88271079D01*
X133538383Y-88285329D01*
X133556107Y-88301393D01*
X133572171Y-88319117D01*
X133586421Y-88338330D01*
X133598718Y-88358847D01*
X133608946Y-88380471D01*
X133617004Y-88402993D01*
X133622816Y-88426197D01*
X133626326Y-88449858D01*
X133627500Y-88473750D01*
X133627500Y-89386250D01*
X133626326Y-89410142D01*
X133622816Y-89433803D01*
X133617004Y-89457007D01*
X133608946Y-89479529D01*
X133598718Y-89501153D01*
X133586421Y-89521670D01*
X133572171Y-89540883D01*
X133556107Y-89558607D01*
X133538383Y-89574671D01*
X133519170Y-89588921D01*
X133498653Y-89601218D01*
X133477029Y-89611446D01*
X133454507Y-89619504D01*
X133431303Y-89625316D01*
X133407642Y-89628826D01*
X133383750Y-89630000D01*
X132896250Y-89630000D01*
X132872358Y-89628826D01*
X132848697Y-89625316D01*
X132825493Y-89619504D01*
X132802971Y-89611446D01*
X132781347Y-89601218D01*
X132760830Y-89588921D01*
X132741617Y-89574671D01*
X132723893Y-89558607D01*
X132707829Y-89540883D01*
X132693579Y-89521670D01*
X132681282Y-89501153D01*
X132671054Y-89479529D01*
X132662996Y-89457007D01*
X132657184Y-89433803D01*
X132653674Y-89410142D01*
X132652500Y-89386250D01*
X132652500Y-88473750D01*
X132653674Y-88449858D01*
X132657184Y-88426197D01*
X132662996Y-88402993D01*
X132671054Y-88380471D01*
X132681282Y-88358847D01*
X132693579Y-88338330D01*
X132707829Y-88319117D01*
X132723893Y-88301393D01*
X132741617Y-88285329D01*
X132760830Y-88271079D01*
X132781347Y-88258782D01*
X132802971Y-88248554D01*
X132825493Y-88240496D01*
X132848697Y-88234684D01*
X132872358Y-88231174D01*
X132896250Y-88230000D01*
X133383750Y-88230000D01*
X133407642Y-88231174D01*
X133407642Y-88231174D01*
G37*
D13*
X133140000Y-88930000D03*
D12*
G36*
X135282642Y-88231174D02*
X135306303Y-88234684D01*
X135329507Y-88240496D01*
X135352029Y-88248554D01*
X135373653Y-88258782D01*
X135394170Y-88271079D01*
X135413383Y-88285329D01*
X135431107Y-88301393D01*
X135447171Y-88319117D01*
X135461421Y-88338330D01*
X135473718Y-88358847D01*
X135483946Y-88380471D01*
X135492004Y-88402993D01*
X135497816Y-88426197D01*
X135501326Y-88449858D01*
X135502500Y-88473750D01*
X135502500Y-89386250D01*
X135501326Y-89410142D01*
X135497816Y-89433803D01*
X135492004Y-89457007D01*
X135483946Y-89479529D01*
X135473718Y-89501153D01*
X135461421Y-89521670D01*
X135447171Y-89540883D01*
X135431107Y-89558607D01*
X135413383Y-89574671D01*
X135394170Y-89588921D01*
X135373653Y-89601218D01*
X135352029Y-89611446D01*
X135329507Y-89619504D01*
X135306303Y-89625316D01*
X135282642Y-89628826D01*
X135258750Y-89630000D01*
X134771250Y-89630000D01*
X134747358Y-89628826D01*
X134723697Y-89625316D01*
X134700493Y-89619504D01*
X134677971Y-89611446D01*
X134656347Y-89601218D01*
X134635830Y-89588921D01*
X134616617Y-89574671D01*
X134598893Y-89558607D01*
X134582829Y-89540883D01*
X134568579Y-89521670D01*
X134556282Y-89501153D01*
X134546054Y-89479529D01*
X134537996Y-89457007D01*
X134532184Y-89433803D01*
X134528674Y-89410142D01*
X134527500Y-89386250D01*
X134527500Y-88473750D01*
X134528674Y-88449858D01*
X134532184Y-88426197D01*
X134537996Y-88402993D01*
X134546054Y-88380471D01*
X134556282Y-88358847D01*
X134568579Y-88338330D01*
X134582829Y-88319117D01*
X134598893Y-88301393D01*
X134616617Y-88285329D01*
X134635830Y-88271079D01*
X134656347Y-88258782D01*
X134677971Y-88248554D01*
X134700493Y-88240496D01*
X134723697Y-88234684D01*
X134747358Y-88231174D01*
X134771250Y-88230000D01*
X135258750Y-88230000D01*
X135282642Y-88231174D01*
X135282642Y-88231174D01*
G37*
D13*
X135015000Y-88930000D03*
G04 #@! TD*
D12*
G04 #@! TO.C,C4*
G36*
X124442784Y-112652587D02*
X124466445Y-112656097D01*
X124489649Y-112661909D01*
X124512171Y-112669967D01*
X124533795Y-112680195D01*
X124554312Y-112692492D01*
X124573525Y-112706742D01*
X124591249Y-112722806D01*
X124607313Y-112740530D01*
X124621563Y-112759743D01*
X124633860Y-112780260D01*
X124644088Y-112801884D01*
X124652146Y-112824406D01*
X124657958Y-112847610D01*
X124661468Y-112871271D01*
X124662642Y-112895163D01*
X124662642Y-113807663D01*
X124661468Y-113831555D01*
X124657958Y-113855216D01*
X124652146Y-113878420D01*
X124644088Y-113900942D01*
X124633860Y-113922566D01*
X124621563Y-113943083D01*
X124607313Y-113962296D01*
X124591249Y-113980020D01*
X124573525Y-113996084D01*
X124554312Y-114010334D01*
X124533795Y-114022631D01*
X124512171Y-114032859D01*
X124489649Y-114040917D01*
X124466445Y-114046729D01*
X124442784Y-114050239D01*
X124418892Y-114051413D01*
X123931392Y-114051413D01*
X123907500Y-114050239D01*
X123883839Y-114046729D01*
X123860635Y-114040917D01*
X123838113Y-114032859D01*
X123816489Y-114022631D01*
X123795972Y-114010334D01*
X123776759Y-113996084D01*
X123759035Y-113980020D01*
X123742971Y-113962296D01*
X123728721Y-113943083D01*
X123716424Y-113922566D01*
X123706196Y-113900942D01*
X123698138Y-113878420D01*
X123692326Y-113855216D01*
X123688816Y-113831555D01*
X123687642Y-113807663D01*
X123687642Y-112895163D01*
X123688816Y-112871271D01*
X123692326Y-112847610D01*
X123698138Y-112824406D01*
X123706196Y-112801884D01*
X123716424Y-112780260D01*
X123728721Y-112759743D01*
X123742971Y-112740530D01*
X123759035Y-112722806D01*
X123776759Y-112706742D01*
X123795972Y-112692492D01*
X123816489Y-112680195D01*
X123838113Y-112669967D01*
X123860635Y-112661909D01*
X123883839Y-112656097D01*
X123907500Y-112652587D01*
X123931392Y-112651413D01*
X124418892Y-112651413D01*
X124442784Y-112652587D01*
X124442784Y-112652587D01*
G37*
D13*
X124175142Y-113351413D03*
D12*
G36*
X126317784Y-112652587D02*
X126341445Y-112656097D01*
X126364649Y-112661909D01*
X126387171Y-112669967D01*
X126408795Y-112680195D01*
X126429312Y-112692492D01*
X126448525Y-112706742D01*
X126466249Y-112722806D01*
X126482313Y-112740530D01*
X126496563Y-112759743D01*
X126508860Y-112780260D01*
X126519088Y-112801884D01*
X126527146Y-112824406D01*
X126532958Y-112847610D01*
X126536468Y-112871271D01*
X126537642Y-112895163D01*
X126537642Y-113807663D01*
X126536468Y-113831555D01*
X126532958Y-113855216D01*
X126527146Y-113878420D01*
X126519088Y-113900942D01*
X126508860Y-113922566D01*
X126496563Y-113943083D01*
X126482313Y-113962296D01*
X126466249Y-113980020D01*
X126448525Y-113996084D01*
X126429312Y-114010334D01*
X126408795Y-114022631D01*
X126387171Y-114032859D01*
X126364649Y-114040917D01*
X126341445Y-114046729D01*
X126317784Y-114050239D01*
X126293892Y-114051413D01*
X125806392Y-114051413D01*
X125782500Y-114050239D01*
X125758839Y-114046729D01*
X125735635Y-114040917D01*
X125713113Y-114032859D01*
X125691489Y-114022631D01*
X125670972Y-114010334D01*
X125651759Y-113996084D01*
X125634035Y-113980020D01*
X125617971Y-113962296D01*
X125603721Y-113943083D01*
X125591424Y-113922566D01*
X125581196Y-113900942D01*
X125573138Y-113878420D01*
X125567326Y-113855216D01*
X125563816Y-113831555D01*
X125562642Y-113807663D01*
X125562642Y-112895163D01*
X125563816Y-112871271D01*
X125567326Y-112847610D01*
X125573138Y-112824406D01*
X125581196Y-112801884D01*
X125591424Y-112780260D01*
X125603721Y-112759743D01*
X125617971Y-112740530D01*
X125634035Y-112722806D01*
X125651759Y-112706742D01*
X125670972Y-112692492D01*
X125691489Y-112680195D01*
X125713113Y-112669967D01*
X125735635Y-112661909D01*
X125758839Y-112656097D01*
X125782500Y-112652587D01*
X125806392Y-112651413D01*
X126293892Y-112651413D01*
X126317784Y-112652587D01*
X126317784Y-112652587D01*
G37*
D13*
X126050142Y-113351413D03*
G04 #@! TD*
D12*
G04 #@! TO.C,C5*
G36*
X134592784Y-109432587D02*
X134616445Y-109436097D01*
X134639649Y-109441909D01*
X134662171Y-109449967D01*
X134683795Y-109460195D01*
X134704312Y-109472492D01*
X134723525Y-109486742D01*
X134741249Y-109502806D01*
X134757313Y-109520530D01*
X134771563Y-109539743D01*
X134783860Y-109560260D01*
X134794088Y-109581884D01*
X134802146Y-109604406D01*
X134807958Y-109627610D01*
X134811468Y-109651271D01*
X134812642Y-109675163D01*
X134812642Y-110162663D01*
X134811468Y-110186555D01*
X134807958Y-110210216D01*
X134802146Y-110233420D01*
X134794088Y-110255942D01*
X134783860Y-110277566D01*
X134771563Y-110298083D01*
X134757313Y-110317296D01*
X134741249Y-110335020D01*
X134723525Y-110351084D01*
X134704312Y-110365334D01*
X134683795Y-110377631D01*
X134662171Y-110387859D01*
X134639649Y-110395917D01*
X134616445Y-110401729D01*
X134592784Y-110405239D01*
X134568892Y-110406413D01*
X133656392Y-110406413D01*
X133632500Y-110405239D01*
X133608839Y-110401729D01*
X133585635Y-110395917D01*
X133563113Y-110387859D01*
X133541489Y-110377631D01*
X133520972Y-110365334D01*
X133501759Y-110351084D01*
X133484035Y-110335020D01*
X133467971Y-110317296D01*
X133453721Y-110298083D01*
X133441424Y-110277566D01*
X133431196Y-110255942D01*
X133423138Y-110233420D01*
X133417326Y-110210216D01*
X133413816Y-110186555D01*
X133412642Y-110162663D01*
X133412642Y-109675163D01*
X133413816Y-109651271D01*
X133417326Y-109627610D01*
X133423138Y-109604406D01*
X133431196Y-109581884D01*
X133441424Y-109560260D01*
X133453721Y-109539743D01*
X133467971Y-109520530D01*
X133484035Y-109502806D01*
X133501759Y-109486742D01*
X133520972Y-109472492D01*
X133541489Y-109460195D01*
X133563113Y-109449967D01*
X133585635Y-109441909D01*
X133608839Y-109436097D01*
X133632500Y-109432587D01*
X133656392Y-109431413D01*
X134568892Y-109431413D01*
X134592784Y-109432587D01*
X134592784Y-109432587D01*
G37*
D13*
X134112642Y-109918913D03*
D12*
G36*
X134592784Y-107557587D02*
X134616445Y-107561097D01*
X134639649Y-107566909D01*
X134662171Y-107574967D01*
X134683795Y-107585195D01*
X134704312Y-107597492D01*
X134723525Y-107611742D01*
X134741249Y-107627806D01*
X134757313Y-107645530D01*
X134771563Y-107664743D01*
X134783860Y-107685260D01*
X134794088Y-107706884D01*
X134802146Y-107729406D01*
X134807958Y-107752610D01*
X134811468Y-107776271D01*
X134812642Y-107800163D01*
X134812642Y-108287663D01*
X134811468Y-108311555D01*
X134807958Y-108335216D01*
X134802146Y-108358420D01*
X134794088Y-108380942D01*
X134783860Y-108402566D01*
X134771563Y-108423083D01*
X134757313Y-108442296D01*
X134741249Y-108460020D01*
X134723525Y-108476084D01*
X134704312Y-108490334D01*
X134683795Y-108502631D01*
X134662171Y-108512859D01*
X134639649Y-108520917D01*
X134616445Y-108526729D01*
X134592784Y-108530239D01*
X134568892Y-108531413D01*
X133656392Y-108531413D01*
X133632500Y-108530239D01*
X133608839Y-108526729D01*
X133585635Y-108520917D01*
X133563113Y-108512859D01*
X133541489Y-108502631D01*
X133520972Y-108490334D01*
X133501759Y-108476084D01*
X133484035Y-108460020D01*
X133467971Y-108442296D01*
X133453721Y-108423083D01*
X133441424Y-108402566D01*
X133431196Y-108380942D01*
X133423138Y-108358420D01*
X133417326Y-108335216D01*
X133413816Y-108311555D01*
X133412642Y-108287663D01*
X133412642Y-107800163D01*
X133413816Y-107776271D01*
X133417326Y-107752610D01*
X133423138Y-107729406D01*
X133431196Y-107706884D01*
X133441424Y-107685260D01*
X133453721Y-107664743D01*
X133467971Y-107645530D01*
X133484035Y-107627806D01*
X133501759Y-107611742D01*
X133520972Y-107597492D01*
X133541489Y-107585195D01*
X133563113Y-107574967D01*
X133585635Y-107566909D01*
X133608839Y-107561097D01*
X133632500Y-107557587D01*
X133656392Y-107556413D01*
X134568892Y-107556413D01*
X134592784Y-107557587D01*
X134592784Y-107557587D01*
G37*
D13*
X134112642Y-108043913D03*
G04 #@! TD*
D12*
G04 #@! TO.C,C10*
G36*
X165746051Y-84327389D02*
X165769712Y-84330899D01*
X165792916Y-84336711D01*
X165815438Y-84344769D01*
X165837062Y-84354997D01*
X165857579Y-84367294D01*
X165876792Y-84381544D01*
X165894516Y-84397608D01*
X165910580Y-84415332D01*
X165924830Y-84434545D01*
X165937127Y-84455062D01*
X165947355Y-84476686D01*
X165955413Y-84499208D01*
X165961225Y-84522412D01*
X165964735Y-84546073D01*
X165965909Y-84569965D01*
X165965909Y-85057465D01*
X165964735Y-85081357D01*
X165961225Y-85105018D01*
X165955413Y-85128222D01*
X165947355Y-85150744D01*
X165937127Y-85172368D01*
X165924830Y-85192885D01*
X165910580Y-85212098D01*
X165894516Y-85229822D01*
X165876792Y-85245886D01*
X165857579Y-85260136D01*
X165837062Y-85272433D01*
X165815438Y-85282661D01*
X165792916Y-85290719D01*
X165769712Y-85296531D01*
X165746051Y-85300041D01*
X165722159Y-85301215D01*
X164809659Y-85301215D01*
X164785767Y-85300041D01*
X164762106Y-85296531D01*
X164738902Y-85290719D01*
X164716380Y-85282661D01*
X164694756Y-85272433D01*
X164674239Y-85260136D01*
X164655026Y-85245886D01*
X164637302Y-85229822D01*
X164621238Y-85212098D01*
X164606988Y-85192885D01*
X164594691Y-85172368D01*
X164584463Y-85150744D01*
X164576405Y-85128222D01*
X164570593Y-85105018D01*
X164567083Y-85081357D01*
X164565909Y-85057465D01*
X164565909Y-84569965D01*
X164567083Y-84546073D01*
X164570593Y-84522412D01*
X164576405Y-84499208D01*
X164584463Y-84476686D01*
X164594691Y-84455062D01*
X164606988Y-84434545D01*
X164621238Y-84415332D01*
X164637302Y-84397608D01*
X164655026Y-84381544D01*
X164674239Y-84367294D01*
X164694756Y-84354997D01*
X164716380Y-84344769D01*
X164738902Y-84336711D01*
X164762106Y-84330899D01*
X164785767Y-84327389D01*
X164809659Y-84326215D01*
X165722159Y-84326215D01*
X165746051Y-84327389D01*
X165746051Y-84327389D01*
G37*
D13*
X165265909Y-84813715D03*
D12*
G36*
X165746051Y-86202389D02*
X165769712Y-86205899D01*
X165792916Y-86211711D01*
X165815438Y-86219769D01*
X165837062Y-86229997D01*
X165857579Y-86242294D01*
X165876792Y-86256544D01*
X165894516Y-86272608D01*
X165910580Y-86290332D01*
X165924830Y-86309545D01*
X165937127Y-86330062D01*
X165947355Y-86351686D01*
X165955413Y-86374208D01*
X165961225Y-86397412D01*
X165964735Y-86421073D01*
X165965909Y-86444965D01*
X165965909Y-86932465D01*
X165964735Y-86956357D01*
X165961225Y-86980018D01*
X165955413Y-87003222D01*
X165947355Y-87025744D01*
X165937127Y-87047368D01*
X165924830Y-87067885D01*
X165910580Y-87087098D01*
X165894516Y-87104822D01*
X165876792Y-87120886D01*
X165857579Y-87135136D01*
X165837062Y-87147433D01*
X165815438Y-87157661D01*
X165792916Y-87165719D01*
X165769712Y-87171531D01*
X165746051Y-87175041D01*
X165722159Y-87176215D01*
X164809659Y-87176215D01*
X164785767Y-87175041D01*
X164762106Y-87171531D01*
X164738902Y-87165719D01*
X164716380Y-87157661D01*
X164694756Y-87147433D01*
X164674239Y-87135136D01*
X164655026Y-87120886D01*
X164637302Y-87104822D01*
X164621238Y-87087098D01*
X164606988Y-87067885D01*
X164594691Y-87047368D01*
X164584463Y-87025744D01*
X164576405Y-87003222D01*
X164570593Y-86980018D01*
X164567083Y-86956357D01*
X164565909Y-86932465D01*
X164565909Y-86444965D01*
X164567083Y-86421073D01*
X164570593Y-86397412D01*
X164576405Y-86374208D01*
X164584463Y-86351686D01*
X164594691Y-86330062D01*
X164606988Y-86309545D01*
X164621238Y-86290332D01*
X164637302Y-86272608D01*
X164655026Y-86256544D01*
X164674239Y-86242294D01*
X164694756Y-86229997D01*
X164716380Y-86219769D01*
X164738902Y-86211711D01*
X164762106Y-86205899D01*
X164785767Y-86202389D01*
X164809659Y-86201215D01*
X165722159Y-86201215D01*
X165746051Y-86202389D01*
X165746051Y-86202389D01*
G37*
D13*
X165265909Y-86688715D03*
G04 #@! TD*
D12*
G04 #@! TO.C,C11*
G36*
X157756051Y-84267389D02*
X157779712Y-84270899D01*
X157802916Y-84276711D01*
X157825438Y-84284769D01*
X157847062Y-84294997D01*
X157867579Y-84307294D01*
X157886792Y-84321544D01*
X157904516Y-84337608D01*
X157920580Y-84355332D01*
X157934830Y-84374545D01*
X157947127Y-84395062D01*
X157957355Y-84416686D01*
X157965413Y-84439208D01*
X157971225Y-84462412D01*
X157974735Y-84486073D01*
X157975909Y-84509965D01*
X157975909Y-84997465D01*
X157974735Y-85021357D01*
X157971225Y-85045018D01*
X157965413Y-85068222D01*
X157957355Y-85090744D01*
X157947127Y-85112368D01*
X157934830Y-85132885D01*
X157920580Y-85152098D01*
X157904516Y-85169822D01*
X157886792Y-85185886D01*
X157867579Y-85200136D01*
X157847062Y-85212433D01*
X157825438Y-85222661D01*
X157802916Y-85230719D01*
X157779712Y-85236531D01*
X157756051Y-85240041D01*
X157732159Y-85241215D01*
X156819659Y-85241215D01*
X156795767Y-85240041D01*
X156772106Y-85236531D01*
X156748902Y-85230719D01*
X156726380Y-85222661D01*
X156704756Y-85212433D01*
X156684239Y-85200136D01*
X156665026Y-85185886D01*
X156647302Y-85169822D01*
X156631238Y-85152098D01*
X156616988Y-85132885D01*
X156604691Y-85112368D01*
X156594463Y-85090744D01*
X156586405Y-85068222D01*
X156580593Y-85045018D01*
X156577083Y-85021357D01*
X156575909Y-84997465D01*
X156575909Y-84509965D01*
X156577083Y-84486073D01*
X156580593Y-84462412D01*
X156586405Y-84439208D01*
X156594463Y-84416686D01*
X156604691Y-84395062D01*
X156616988Y-84374545D01*
X156631238Y-84355332D01*
X156647302Y-84337608D01*
X156665026Y-84321544D01*
X156684239Y-84307294D01*
X156704756Y-84294997D01*
X156726380Y-84284769D01*
X156748902Y-84276711D01*
X156772106Y-84270899D01*
X156795767Y-84267389D01*
X156819659Y-84266215D01*
X157732159Y-84266215D01*
X157756051Y-84267389D01*
X157756051Y-84267389D01*
G37*
D13*
X157275909Y-84753715D03*
D12*
G36*
X157756051Y-86142389D02*
X157779712Y-86145899D01*
X157802916Y-86151711D01*
X157825438Y-86159769D01*
X157847062Y-86169997D01*
X157867579Y-86182294D01*
X157886792Y-86196544D01*
X157904516Y-86212608D01*
X157920580Y-86230332D01*
X157934830Y-86249545D01*
X157947127Y-86270062D01*
X157957355Y-86291686D01*
X157965413Y-86314208D01*
X157971225Y-86337412D01*
X157974735Y-86361073D01*
X157975909Y-86384965D01*
X157975909Y-86872465D01*
X157974735Y-86896357D01*
X157971225Y-86920018D01*
X157965413Y-86943222D01*
X157957355Y-86965744D01*
X157947127Y-86987368D01*
X157934830Y-87007885D01*
X157920580Y-87027098D01*
X157904516Y-87044822D01*
X157886792Y-87060886D01*
X157867579Y-87075136D01*
X157847062Y-87087433D01*
X157825438Y-87097661D01*
X157802916Y-87105719D01*
X157779712Y-87111531D01*
X157756051Y-87115041D01*
X157732159Y-87116215D01*
X156819659Y-87116215D01*
X156795767Y-87115041D01*
X156772106Y-87111531D01*
X156748902Y-87105719D01*
X156726380Y-87097661D01*
X156704756Y-87087433D01*
X156684239Y-87075136D01*
X156665026Y-87060886D01*
X156647302Y-87044822D01*
X156631238Y-87027098D01*
X156616988Y-87007885D01*
X156604691Y-86987368D01*
X156594463Y-86965744D01*
X156586405Y-86943222D01*
X156580593Y-86920018D01*
X156577083Y-86896357D01*
X156575909Y-86872465D01*
X156575909Y-86384965D01*
X156577083Y-86361073D01*
X156580593Y-86337412D01*
X156586405Y-86314208D01*
X156594463Y-86291686D01*
X156604691Y-86270062D01*
X156616988Y-86249545D01*
X156631238Y-86230332D01*
X156647302Y-86212608D01*
X156665026Y-86196544D01*
X156684239Y-86182294D01*
X156704756Y-86169997D01*
X156726380Y-86159769D01*
X156748902Y-86151711D01*
X156772106Y-86145899D01*
X156795767Y-86142389D01*
X156819659Y-86141215D01*
X157732159Y-86141215D01*
X157756051Y-86142389D01*
X157756051Y-86142389D01*
G37*
D13*
X157275909Y-86628715D03*
G04 #@! TD*
D12*
G04 #@! TO.C,D4*
G36*
X188330142Y-81801174D02*
X188353803Y-81804684D01*
X188377007Y-81810496D01*
X188399529Y-81818554D01*
X188421153Y-81828782D01*
X188441670Y-81841079D01*
X188460883Y-81855329D01*
X188478607Y-81871393D01*
X188494671Y-81889117D01*
X188508921Y-81908330D01*
X188521218Y-81928847D01*
X188531446Y-81950471D01*
X188539504Y-81972993D01*
X188545316Y-81996197D01*
X188548826Y-82019858D01*
X188550000Y-82043750D01*
X188550000Y-82956250D01*
X188548826Y-82980142D01*
X188545316Y-83003803D01*
X188539504Y-83027007D01*
X188531446Y-83049529D01*
X188521218Y-83071153D01*
X188508921Y-83091670D01*
X188494671Y-83110883D01*
X188478607Y-83128607D01*
X188460883Y-83144671D01*
X188441670Y-83158921D01*
X188421153Y-83171218D01*
X188399529Y-83181446D01*
X188377007Y-83189504D01*
X188353803Y-83195316D01*
X188330142Y-83198826D01*
X188306250Y-83200000D01*
X187818750Y-83200000D01*
X187794858Y-83198826D01*
X187771197Y-83195316D01*
X187747993Y-83189504D01*
X187725471Y-83181446D01*
X187703847Y-83171218D01*
X187683330Y-83158921D01*
X187664117Y-83144671D01*
X187646393Y-83128607D01*
X187630329Y-83110883D01*
X187616079Y-83091670D01*
X187603782Y-83071153D01*
X187593554Y-83049529D01*
X187585496Y-83027007D01*
X187579684Y-83003803D01*
X187576174Y-82980142D01*
X187575000Y-82956250D01*
X187575000Y-82043750D01*
X187576174Y-82019858D01*
X187579684Y-81996197D01*
X187585496Y-81972993D01*
X187593554Y-81950471D01*
X187603782Y-81928847D01*
X187616079Y-81908330D01*
X187630329Y-81889117D01*
X187646393Y-81871393D01*
X187664117Y-81855329D01*
X187683330Y-81841079D01*
X187703847Y-81828782D01*
X187725471Y-81818554D01*
X187747993Y-81810496D01*
X187771197Y-81804684D01*
X187794858Y-81801174D01*
X187818750Y-81800000D01*
X188306250Y-81800000D01*
X188330142Y-81801174D01*
X188330142Y-81801174D01*
G37*
D13*
X188062500Y-82500000D03*
D12*
G36*
X190205142Y-81801174D02*
X190228803Y-81804684D01*
X190252007Y-81810496D01*
X190274529Y-81818554D01*
X190296153Y-81828782D01*
X190316670Y-81841079D01*
X190335883Y-81855329D01*
X190353607Y-81871393D01*
X190369671Y-81889117D01*
X190383921Y-81908330D01*
X190396218Y-81928847D01*
X190406446Y-81950471D01*
X190414504Y-81972993D01*
X190420316Y-81996197D01*
X190423826Y-82019858D01*
X190425000Y-82043750D01*
X190425000Y-82956250D01*
X190423826Y-82980142D01*
X190420316Y-83003803D01*
X190414504Y-83027007D01*
X190406446Y-83049529D01*
X190396218Y-83071153D01*
X190383921Y-83091670D01*
X190369671Y-83110883D01*
X190353607Y-83128607D01*
X190335883Y-83144671D01*
X190316670Y-83158921D01*
X190296153Y-83171218D01*
X190274529Y-83181446D01*
X190252007Y-83189504D01*
X190228803Y-83195316D01*
X190205142Y-83198826D01*
X190181250Y-83200000D01*
X189693750Y-83200000D01*
X189669858Y-83198826D01*
X189646197Y-83195316D01*
X189622993Y-83189504D01*
X189600471Y-83181446D01*
X189578847Y-83171218D01*
X189558330Y-83158921D01*
X189539117Y-83144671D01*
X189521393Y-83128607D01*
X189505329Y-83110883D01*
X189491079Y-83091670D01*
X189478782Y-83071153D01*
X189468554Y-83049529D01*
X189460496Y-83027007D01*
X189454684Y-83003803D01*
X189451174Y-82980142D01*
X189450000Y-82956250D01*
X189450000Y-82043750D01*
X189451174Y-82019858D01*
X189454684Y-81996197D01*
X189460496Y-81972993D01*
X189468554Y-81950471D01*
X189478782Y-81928847D01*
X189491079Y-81908330D01*
X189505329Y-81889117D01*
X189521393Y-81871393D01*
X189539117Y-81855329D01*
X189558330Y-81841079D01*
X189578847Y-81828782D01*
X189600471Y-81818554D01*
X189622993Y-81810496D01*
X189646197Y-81804684D01*
X189669858Y-81801174D01*
X189693750Y-81800000D01*
X190181250Y-81800000D01*
X190205142Y-81801174D01*
X190205142Y-81801174D01*
G37*
D13*
X189937500Y-82500000D03*
G04 #@! TD*
D12*
G04 #@! TO.C,D7*
G36*
X182205142Y-81801174D02*
X182228803Y-81804684D01*
X182252007Y-81810496D01*
X182274529Y-81818554D01*
X182296153Y-81828782D01*
X182316670Y-81841079D01*
X182335883Y-81855329D01*
X182353607Y-81871393D01*
X182369671Y-81889117D01*
X182383921Y-81908330D01*
X182396218Y-81928847D01*
X182406446Y-81950471D01*
X182414504Y-81972993D01*
X182420316Y-81996197D01*
X182423826Y-82019858D01*
X182425000Y-82043750D01*
X182425000Y-82956250D01*
X182423826Y-82980142D01*
X182420316Y-83003803D01*
X182414504Y-83027007D01*
X182406446Y-83049529D01*
X182396218Y-83071153D01*
X182383921Y-83091670D01*
X182369671Y-83110883D01*
X182353607Y-83128607D01*
X182335883Y-83144671D01*
X182316670Y-83158921D01*
X182296153Y-83171218D01*
X182274529Y-83181446D01*
X182252007Y-83189504D01*
X182228803Y-83195316D01*
X182205142Y-83198826D01*
X182181250Y-83200000D01*
X181693750Y-83200000D01*
X181669858Y-83198826D01*
X181646197Y-83195316D01*
X181622993Y-83189504D01*
X181600471Y-83181446D01*
X181578847Y-83171218D01*
X181558330Y-83158921D01*
X181539117Y-83144671D01*
X181521393Y-83128607D01*
X181505329Y-83110883D01*
X181491079Y-83091670D01*
X181478782Y-83071153D01*
X181468554Y-83049529D01*
X181460496Y-83027007D01*
X181454684Y-83003803D01*
X181451174Y-82980142D01*
X181450000Y-82956250D01*
X181450000Y-82043750D01*
X181451174Y-82019858D01*
X181454684Y-81996197D01*
X181460496Y-81972993D01*
X181468554Y-81950471D01*
X181478782Y-81928847D01*
X181491079Y-81908330D01*
X181505329Y-81889117D01*
X181521393Y-81871393D01*
X181539117Y-81855329D01*
X181558330Y-81841079D01*
X181578847Y-81828782D01*
X181600471Y-81818554D01*
X181622993Y-81810496D01*
X181646197Y-81804684D01*
X181669858Y-81801174D01*
X181693750Y-81800000D01*
X182181250Y-81800000D01*
X182205142Y-81801174D01*
X182205142Y-81801174D01*
G37*
D13*
X181937500Y-82500000D03*
D12*
G36*
X180330142Y-81801174D02*
X180353803Y-81804684D01*
X180377007Y-81810496D01*
X180399529Y-81818554D01*
X180421153Y-81828782D01*
X180441670Y-81841079D01*
X180460883Y-81855329D01*
X180478607Y-81871393D01*
X180494671Y-81889117D01*
X180508921Y-81908330D01*
X180521218Y-81928847D01*
X180531446Y-81950471D01*
X180539504Y-81972993D01*
X180545316Y-81996197D01*
X180548826Y-82019858D01*
X180550000Y-82043750D01*
X180550000Y-82956250D01*
X180548826Y-82980142D01*
X180545316Y-83003803D01*
X180539504Y-83027007D01*
X180531446Y-83049529D01*
X180521218Y-83071153D01*
X180508921Y-83091670D01*
X180494671Y-83110883D01*
X180478607Y-83128607D01*
X180460883Y-83144671D01*
X180441670Y-83158921D01*
X180421153Y-83171218D01*
X180399529Y-83181446D01*
X180377007Y-83189504D01*
X180353803Y-83195316D01*
X180330142Y-83198826D01*
X180306250Y-83200000D01*
X179818750Y-83200000D01*
X179794858Y-83198826D01*
X179771197Y-83195316D01*
X179747993Y-83189504D01*
X179725471Y-83181446D01*
X179703847Y-83171218D01*
X179683330Y-83158921D01*
X179664117Y-83144671D01*
X179646393Y-83128607D01*
X179630329Y-83110883D01*
X179616079Y-83091670D01*
X179603782Y-83071153D01*
X179593554Y-83049529D01*
X179585496Y-83027007D01*
X179579684Y-83003803D01*
X179576174Y-82980142D01*
X179575000Y-82956250D01*
X179575000Y-82043750D01*
X179576174Y-82019858D01*
X179579684Y-81996197D01*
X179585496Y-81972993D01*
X179593554Y-81950471D01*
X179603782Y-81928847D01*
X179616079Y-81908330D01*
X179630329Y-81889117D01*
X179646393Y-81871393D01*
X179664117Y-81855329D01*
X179683330Y-81841079D01*
X179703847Y-81828782D01*
X179725471Y-81818554D01*
X179747993Y-81810496D01*
X179771197Y-81804684D01*
X179794858Y-81801174D01*
X179818750Y-81800000D01*
X180306250Y-81800000D01*
X180330142Y-81801174D01*
X180330142Y-81801174D01*
G37*
D13*
X180062500Y-82500000D03*
G04 #@! TD*
D12*
G04 #@! TO.C,D8*
G36*
X184330142Y-81801174D02*
X184353803Y-81804684D01*
X184377007Y-81810496D01*
X184399529Y-81818554D01*
X184421153Y-81828782D01*
X184441670Y-81841079D01*
X184460883Y-81855329D01*
X184478607Y-81871393D01*
X184494671Y-81889117D01*
X184508921Y-81908330D01*
X184521218Y-81928847D01*
X184531446Y-81950471D01*
X184539504Y-81972993D01*
X184545316Y-81996197D01*
X184548826Y-82019858D01*
X184550000Y-82043750D01*
X184550000Y-82956250D01*
X184548826Y-82980142D01*
X184545316Y-83003803D01*
X184539504Y-83027007D01*
X184531446Y-83049529D01*
X184521218Y-83071153D01*
X184508921Y-83091670D01*
X184494671Y-83110883D01*
X184478607Y-83128607D01*
X184460883Y-83144671D01*
X184441670Y-83158921D01*
X184421153Y-83171218D01*
X184399529Y-83181446D01*
X184377007Y-83189504D01*
X184353803Y-83195316D01*
X184330142Y-83198826D01*
X184306250Y-83200000D01*
X183818750Y-83200000D01*
X183794858Y-83198826D01*
X183771197Y-83195316D01*
X183747993Y-83189504D01*
X183725471Y-83181446D01*
X183703847Y-83171218D01*
X183683330Y-83158921D01*
X183664117Y-83144671D01*
X183646393Y-83128607D01*
X183630329Y-83110883D01*
X183616079Y-83091670D01*
X183603782Y-83071153D01*
X183593554Y-83049529D01*
X183585496Y-83027007D01*
X183579684Y-83003803D01*
X183576174Y-82980142D01*
X183575000Y-82956250D01*
X183575000Y-82043750D01*
X183576174Y-82019858D01*
X183579684Y-81996197D01*
X183585496Y-81972993D01*
X183593554Y-81950471D01*
X183603782Y-81928847D01*
X183616079Y-81908330D01*
X183630329Y-81889117D01*
X183646393Y-81871393D01*
X183664117Y-81855329D01*
X183683330Y-81841079D01*
X183703847Y-81828782D01*
X183725471Y-81818554D01*
X183747993Y-81810496D01*
X183771197Y-81804684D01*
X183794858Y-81801174D01*
X183818750Y-81800000D01*
X184306250Y-81800000D01*
X184330142Y-81801174D01*
X184330142Y-81801174D01*
G37*
D13*
X184062500Y-82500000D03*
D12*
G36*
X186205142Y-81801174D02*
X186228803Y-81804684D01*
X186252007Y-81810496D01*
X186274529Y-81818554D01*
X186296153Y-81828782D01*
X186316670Y-81841079D01*
X186335883Y-81855329D01*
X186353607Y-81871393D01*
X186369671Y-81889117D01*
X186383921Y-81908330D01*
X186396218Y-81928847D01*
X186406446Y-81950471D01*
X186414504Y-81972993D01*
X186420316Y-81996197D01*
X186423826Y-82019858D01*
X186425000Y-82043750D01*
X186425000Y-82956250D01*
X186423826Y-82980142D01*
X186420316Y-83003803D01*
X186414504Y-83027007D01*
X186406446Y-83049529D01*
X186396218Y-83071153D01*
X186383921Y-83091670D01*
X186369671Y-83110883D01*
X186353607Y-83128607D01*
X186335883Y-83144671D01*
X186316670Y-83158921D01*
X186296153Y-83171218D01*
X186274529Y-83181446D01*
X186252007Y-83189504D01*
X186228803Y-83195316D01*
X186205142Y-83198826D01*
X186181250Y-83200000D01*
X185693750Y-83200000D01*
X185669858Y-83198826D01*
X185646197Y-83195316D01*
X185622993Y-83189504D01*
X185600471Y-83181446D01*
X185578847Y-83171218D01*
X185558330Y-83158921D01*
X185539117Y-83144671D01*
X185521393Y-83128607D01*
X185505329Y-83110883D01*
X185491079Y-83091670D01*
X185478782Y-83071153D01*
X185468554Y-83049529D01*
X185460496Y-83027007D01*
X185454684Y-83003803D01*
X185451174Y-82980142D01*
X185450000Y-82956250D01*
X185450000Y-82043750D01*
X185451174Y-82019858D01*
X185454684Y-81996197D01*
X185460496Y-81972993D01*
X185468554Y-81950471D01*
X185478782Y-81928847D01*
X185491079Y-81908330D01*
X185505329Y-81889117D01*
X185521393Y-81871393D01*
X185539117Y-81855329D01*
X185558330Y-81841079D01*
X185578847Y-81828782D01*
X185600471Y-81818554D01*
X185622993Y-81810496D01*
X185646197Y-81804684D01*
X185669858Y-81801174D01*
X185693750Y-81800000D01*
X186181250Y-81800000D01*
X186205142Y-81801174D01*
X186205142Y-81801174D01*
G37*
D13*
X185937500Y-82500000D03*
G04 #@! TD*
D12*
G04 #@! TO.C,D9*
G36*
X172330142Y-81801174D02*
X172353803Y-81804684D01*
X172377007Y-81810496D01*
X172399529Y-81818554D01*
X172421153Y-81828782D01*
X172441670Y-81841079D01*
X172460883Y-81855329D01*
X172478607Y-81871393D01*
X172494671Y-81889117D01*
X172508921Y-81908330D01*
X172521218Y-81928847D01*
X172531446Y-81950471D01*
X172539504Y-81972993D01*
X172545316Y-81996197D01*
X172548826Y-82019858D01*
X172550000Y-82043750D01*
X172550000Y-82956250D01*
X172548826Y-82980142D01*
X172545316Y-83003803D01*
X172539504Y-83027007D01*
X172531446Y-83049529D01*
X172521218Y-83071153D01*
X172508921Y-83091670D01*
X172494671Y-83110883D01*
X172478607Y-83128607D01*
X172460883Y-83144671D01*
X172441670Y-83158921D01*
X172421153Y-83171218D01*
X172399529Y-83181446D01*
X172377007Y-83189504D01*
X172353803Y-83195316D01*
X172330142Y-83198826D01*
X172306250Y-83200000D01*
X171818750Y-83200000D01*
X171794858Y-83198826D01*
X171771197Y-83195316D01*
X171747993Y-83189504D01*
X171725471Y-83181446D01*
X171703847Y-83171218D01*
X171683330Y-83158921D01*
X171664117Y-83144671D01*
X171646393Y-83128607D01*
X171630329Y-83110883D01*
X171616079Y-83091670D01*
X171603782Y-83071153D01*
X171593554Y-83049529D01*
X171585496Y-83027007D01*
X171579684Y-83003803D01*
X171576174Y-82980142D01*
X171575000Y-82956250D01*
X171575000Y-82043750D01*
X171576174Y-82019858D01*
X171579684Y-81996197D01*
X171585496Y-81972993D01*
X171593554Y-81950471D01*
X171603782Y-81928847D01*
X171616079Y-81908330D01*
X171630329Y-81889117D01*
X171646393Y-81871393D01*
X171664117Y-81855329D01*
X171683330Y-81841079D01*
X171703847Y-81828782D01*
X171725471Y-81818554D01*
X171747993Y-81810496D01*
X171771197Y-81804684D01*
X171794858Y-81801174D01*
X171818750Y-81800000D01*
X172306250Y-81800000D01*
X172330142Y-81801174D01*
X172330142Y-81801174D01*
G37*
D13*
X172062500Y-82500000D03*
D12*
G36*
X174205142Y-81801174D02*
X174228803Y-81804684D01*
X174252007Y-81810496D01*
X174274529Y-81818554D01*
X174296153Y-81828782D01*
X174316670Y-81841079D01*
X174335883Y-81855329D01*
X174353607Y-81871393D01*
X174369671Y-81889117D01*
X174383921Y-81908330D01*
X174396218Y-81928847D01*
X174406446Y-81950471D01*
X174414504Y-81972993D01*
X174420316Y-81996197D01*
X174423826Y-82019858D01*
X174425000Y-82043750D01*
X174425000Y-82956250D01*
X174423826Y-82980142D01*
X174420316Y-83003803D01*
X174414504Y-83027007D01*
X174406446Y-83049529D01*
X174396218Y-83071153D01*
X174383921Y-83091670D01*
X174369671Y-83110883D01*
X174353607Y-83128607D01*
X174335883Y-83144671D01*
X174316670Y-83158921D01*
X174296153Y-83171218D01*
X174274529Y-83181446D01*
X174252007Y-83189504D01*
X174228803Y-83195316D01*
X174205142Y-83198826D01*
X174181250Y-83200000D01*
X173693750Y-83200000D01*
X173669858Y-83198826D01*
X173646197Y-83195316D01*
X173622993Y-83189504D01*
X173600471Y-83181446D01*
X173578847Y-83171218D01*
X173558330Y-83158921D01*
X173539117Y-83144671D01*
X173521393Y-83128607D01*
X173505329Y-83110883D01*
X173491079Y-83091670D01*
X173478782Y-83071153D01*
X173468554Y-83049529D01*
X173460496Y-83027007D01*
X173454684Y-83003803D01*
X173451174Y-82980142D01*
X173450000Y-82956250D01*
X173450000Y-82043750D01*
X173451174Y-82019858D01*
X173454684Y-81996197D01*
X173460496Y-81972993D01*
X173468554Y-81950471D01*
X173478782Y-81928847D01*
X173491079Y-81908330D01*
X173505329Y-81889117D01*
X173521393Y-81871393D01*
X173539117Y-81855329D01*
X173558330Y-81841079D01*
X173578847Y-81828782D01*
X173600471Y-81818554D01*
X173622993Y-81810496D01*
X173646197Y-81804684D01*
X173669858Y-81801174D01*
X173693750Y-81800000D01*
X174181250Y-81800000D01*
X174205142Y-81801174D01*
X174205142Y-81801174D01*
G37*
D13*
X173937500Y-82500000D03*
G04 #@! TD*
D19*
G04 #@! TO.C,L1*
X129572642Y-102086413D03*
X129572642Y-108136413D03*
G04 #@! TD*
D20*
G04 #@! TO.C,Q5*
X189000000Y-77000000D03*
X188050000Y-75000000D03*
X189950000Y-75000000D03*
G04 #@! TD*
G04 #@! TO.C,Q8*
X181950000Y-75000000D03*
X180050000Y-75000000D03*
X181000000Y-77000000D03*
G04 #@! TD*
D12*
G04 #@! TO.C,R2*
G36*
X151830142Y-100801174D02*
X151853803Y-100804684D01*
X151877007Y-100810496D01*
X151899529Y-100818554D01*
X151921153Y-100828782D01*
X151941670Y-100841079D01*
X151960883Y-100855329D01*
X151978607Y-100871393D01*
X151994671Y-100889117D01*
X152008921Y-100908330D01*
X152021218Y-100928847D01*
X152031446Y-100950471D01*
X152039504Y-100972993D01*
X152045316Y-100996197D01*
X152048826Y-101019858D01*
X152050000Y-101043750D01*
X152050000Y-101956250D01*
X152048826Y-101980142D01*
X152045316Y-102003803D01*
X152039504Y-102027007D01*
X152031446Y-102049529D01*
X152021218Y-102071153D01*
X152008921Y-102091670D01*
X151994671Y-102110883D01*
X151978607Y-102128607D01*
X151960883Y-102144671D01*
X151941670Y-102158921D01*
X151921153Y-102171218D01*
X151899529Y-102181446D01*
X151877007Y-102189504D01*
X151853803Y-102195316D01*
X151830142Y-102198826D01*
X151806250Y-102200000D01*
X151318750Y-102200000D01*
X151294858Y-102198826D01*
X151271197Y-102195316D01*
X151247993Y-102189504D01*
X151225471Y-102181446D01*
X151203847Y-102171218D01*
X151183330Y-102158921D01*
X151164117Y-102144671D01*
X151146393Y-102128607D01*
X151130329Y-102110883D01*
X151116079Y-102091670D01*
X151103782Y-102071153D01*
X151093554Y-102049529D01*
X151085496Y-102027007D01*
X151079684Y-102003803D01*
X151076174Y-101980142D01*
X151075000Y-101956250D01*
X151075000Y-101043750D01*
X151076174Y-101019858D01*
X151079684Y-100996197D01*
X151085496Y-100972993D01*
X151093554Y-100950471D01*
X151103782Y-100928847D01*
X151116079Y-100908330D01*
X151130329Y-100889117D01*
X151146393Y-100871393D01*
X151164117Y-100855329D01*
X151183330Y-100841079D01*
X151203847Y-100828782D01*
X151225471Y-100818554D01*
X151247993Y-100810496D01*
X151271197Y-100804684D01*
X151294858Y-100801174D01*
X151318750Y-100800000D01*
X151806250Y-100800000D01*
X151830142Y-100801174D01*
X151830142Y-100801174D01*
G37*
D13*
X151562500Y-101500000D03*
D12*
G36*
X153705142Y-100801174D02*
X153728803Y-100804684D01*
X153752007Y-100810496D01*
X153774529Y-100818554D01*
X153796153Y-100828782D01*
X153816670Y-100841079D01*
X153835883Y-100855329D01*
X153853607Y-100871393D01*
X153869671Y-100889117D01*
X153883921Y-100908330D01*
X153896218Y-100928847D01*
X153906446Y-100950471D01*
X153914504Y-100972993D01*
X153920316Y-100996197D01*
X153923826Y-101019858D01*
X153925000Y-101043750D01*
X153925000Y-101956250D01*
X153923826Y-101980142D01*
X153920316Y-102003803D01*
X153914504Y-102027007D01*
X153906446Y-102049529D01*
X153896218Y-102071153D01*
X153883921Y-102091670D01*
X153869671Y-102110883D01*
X153853607Y-102128607D01*
X153835883Y-102144671D01*
X153816670Y-102158921D01*
X153796153Y-102171218D01*
X153774529Y-102181446D01*
X153752007Y-102189504D01*
X153728803Y-102195316D01*
X153705142Y-102198826D01*
X153681250Y-102200000D01*
X153193750Y-102200000D01*
X153169858Y-102198826D01*
X153146197Y-102195316D01*
X153122993Y-102189504D01*
X153100471Y-102181446D01*
X153078847Y-102171218D01*
X153058330Y-102158921D01*
X153039117Y-102144671D01*
X153021393Y-102128607D01*
X153005329Y-102110883D01*
X152991079Y-102091670D01*
X152978782Y-102071153D01*
X152968554Y-102049529D01*
X152960496Y-102027007D01*
X152954684Y-102003803D01*
X152951174Y-101980142D01*
X152950000Y-101956250D01*
X152950000Y-101043750D01*
X152951174Y-101019858D01*
X152954684Y-100996197D01*
X152960496Y-100972993D01*
X152968554Y-100950471D01*
X152978782Y-100928847D01*
X152991079Y-100908330D01*
X153005329Y-100889117D01*
X153021393Y-100871393D01*
X153039117Y-100855329D01*
X153058330Y-100841079D01*
X153078847Y-100828782D01*
X153100471Y-100818554D01*
X153122993Y-100810496D01*
X153146197Y-100804684D01*
X153169858Y-100801174D01*
X153193750Y-100800000D01*
X153681250Y-100800000D01*
X153705142Y-100801174D01*
X153705142Y-100801174D01*
G37*
D13*
X153437500Y-101500000D03*
G04 #@! TD*
D12*
G04 #@! TO.C,R3*
G36*
X125355142Y-88051174D02*
X125378803Y-88054684D01*
X125402007Y-88060496D01*
X125424529Y-88068554D01*
X125446153Y-88078782D01*
X125466670Y-88091079D01*
X125485883Y-88105329D01*
X125503607Y-88121393D01*
X125519671Y-88139117D01*
X125533921Y-88158330D01*
X125546218Y-88178847D01*
X125556446Y-88200471D01*
X125564504Y-88222993D01*
X125570316Y-88246197D01*
X125573826Y-88269858D01*
X125575000Y-88293750D01*
X125575000Y-89206250D01*
X125573826Y-89230142D01*
X125570316Y-89253803D01*
X125564504Y-89277007D01*
X125556446Y-89299529D01*
X125546218Y-89321153D01*
X125533921Y-89341670D01*
X125519671Y-89360883D01*
X125503607Y-89378607D01*
X125485883Y-89394671D01*
X125466670Y-89408921D01*
X125446153Y-89421218D01*
X125424529Y-89431446D01*
X125402007Y-89439504D01*
X125378803Y-89445316D01*
X125355142Y-89448826D01*
X125331250Y-89450000D01*
X124843750Y-89450000D01*
X124819858Y-89448826D01*
X124796197Y-89445316D01*
X124772993Y-89439504D01*
X124750471Y-89431446D01*
X124728847Y-89421218D01*
X124708330Y-89408921D01*
X124689117Y-89394671D01*
X124671393Y-89378607D01*
X124655329Y-89360883D01*
X124641079Y-89341670D01*
X124628782Y-89321153D01*
X124618554Y-89299529D01*
X124610496Y-89277007D01*
X124604684Y-89253803D01*
X124601174Y-89230142D01*
X124600000Y-89206250D01*
X124600000Y-88293750D01*
X124601174Y-88269858D01*
X124604684Y-88246197D01*
X124610496Y-88222993D01*
X124618554Y-88200471D01*
X124628782Y-88178847D01*
X124641079Y-88158330D01*
X124655329Y-88139117D01*
X124671393Y-88121393D01*
X124689117Y-88105329D01*
X124708330Y-88091079D01*
X124728847Y-88078782D01*
X124750471Y-88068554D01*
X124772993Y-88060496D01*
X124796197Y-88054684D01*
X124819858Y-88051174D01*
X124843750Y-88050000D01*
X125331250Y-88050000D01*
X125355142Y-88051174D01*
X125355142Y-88051174D01*
G37*
D13*
X125087500Y-88750000D03*
D12*
G36*
X123480142Y-88051174D02*
X123503803Y-88054684D01*
X123527007Y-88060496D01*
X123549529Y-88068554D01*
X123571153Y-88078782D01*
X123591670Y-88091079D01*
X123610883Y-88105329D01*
X123628607Y-88121393D01*
X123644671Y-88139117D01*
X123658921Y-88158330D01*
X123671218Y-88178847D01*
X123681446Y-88200471D01*
X123689504Y-88222993D01*
X123695316Y-88246197D01*
X123698826Y-88269858D01*
X123700000Y-88293750D01*
X123700000Y-89206250D01*
X123698826Y-89230142D01*
X123695316Y-89253803D01*
X123689504Y-89277007D01*
X123681446Y-89299529D01*
X123671218Y-89321153D01*
X123658921Y-89341670D01*
X123644671Y-89360883D01*
X123628607Y-89378607D01*
X123610883Y-89394671D01*
X123591670Y-89408921D01*
X123571153Y-89421218D01*
X123549529Y-89431446D01*
X123527007Y-89439504D01*
X123503803Y-89445316D01*
X123480142Y-89448826D01*
X123456250Y-89450000D01*
X122968750Y-89450000D01*
X122944858Y-89448826D01*
X122921197Y-89445316D01*
X122897993Y-89439504D01*
X122875471Y-89431446D01*
X122853847Y-89421218D01*
X122833330Y-89408921D01*
X122814117Y-89394671D01*
X122796393Y-89378607D01*
X122780329Y-89360883D01*
X122766079Y-89341670D01*
X122753782Y-89321153D01*
X122743554Y-89299529D01*
X122735496Y-89277007D01*
X122729684Y-89253803D01*
X122726174Y-89230142D01*
X122725000Y-89206250D01*
X122725000Y-88293750D01*
X122726174Y-88269858D01*
X122729684Y-88246197D01*
X122735496Y-88222993D01*
X122743554Y-88200471D01*
X122753782Y-88178847D01*
X122766079Y-88158330D01*
X122780329Y-88139117D01*
X122796393Y-88121393D01*
X122814117Y-88105329D01*
X122833330Y-88091079D01*
X122853847Y-88078782D01*
X122875471Y-88068554D01*
X122897993Y-88060496D01*
X122921197Y-88054684D01*
X122944858Y-88051174D01*
X122968750Y-88050000D01*
X123456250Y-88050000D01*
X123480142Y-88051174D01*
X123480142Y-88051174D01*
G37*
D13*
X123212500Y-88750000D03*
G04 #@! TD*
D12*
G04 #@! TO.C,R4*
G36*
X123270142Y-98301174D02*
X123293803Y-98304684D01*
X123317007Y-98310496D01*
X123339529Y-98318554D01*
X123361153Y-98328782D01*
X123381670Y-98341079D01*
X123400883Y-98355329D01*
X123418607Y-98371393D01*
X123434671Y-98389117D01*
X123448921Y-98408330D01*
X123461218Y-98428847D01*
X123471446Y-98450471D01*
X123479504Y-98472993D01*
X123485316Y-98496197D01*
X123488826Y-98519858D01*
X123490000Y-98543750D01*
X123490000Y-99456250D01*
X123488826Y-99480142D01*
X123485316Y-99503803D01*
X123479504Y-99527007D01*
X123471446Y-99549529D01*
X123461218Y-99571153D01*
X123448921Y-99591670D01*
X123434671Y-99610883D01*
X123418607Y-99628607D01*
X123400883Y-99644671D01*
X123381670Y-99658921D01*
X123361153Y-99671218D01*
X123339529Y-99681446D01*
X123317007Y-99689504D01*
X123293803Y-99695316D01*
X123270142Y-99698826D01*
X123246250Y-99700000D01*
X122758750Y-99700000D01*
X122734858Y-99698826D01*
X122711197Y-99695316D01*
X122687993Y-99689504D01*
X122665471Y-99681446D01*
X122643847Y-99671218D01*
X122623330Y-99658921D01*
X122604117Y-99644671D01*
X122586393Y-99628607D01*
X122570329Y-99610883D01*
X122556079Y-99591670D01*
X122543782Y-99571153D01*
X122533554Y-99549529D01*
X122525496Y-99527007D01*
X122519684Y-99503803D01*
X122516174Y-99480142D01*
X122515000Y-99456250D01*
X122515000Y-98543750D01*
X122516174Y-98519858D01*
X122519684Y-98496197D01*
X122525496Y-98472993D01*
X122533554Y-98450471D01*
X122543782Y-98428847D01*
X122556079Y-98408330D01*
X122570329Y-98389117D01*
X122586393Y-98371393D01*
X122604117Y-98355329D01*
X122623330Y-98341079D01*
X122643847Y-98328782D01*
X122665471Y-98318554D01*
X122687993Y-98310496D01*
X122711197Y-98304684D01*
X122734858Y-98301174D01*
X122758750Y-98300000D01*
X123246250Y-98300000D01*
X123270142Y-98301174D01*
X123270142Y-98301174D01*
G37*
D13*
X123002500Y-99000000D03*
D12*
G36*
X125145142Y-98301174D02*
X125168803Y-98304684D01*
X125192007Y-98310496D01*
X125214529Y-98318554D01*
X125236153Y-98328782D01*
X125256670Y-98341079D01*
X125275883Y-98355329D01*
X125293607Y-98371393D01*
X125309671Y-98389117D01*
X125323921Y-98408330D01*
X125336218Y-98428847D01*
X125346446Y-98450471D01*
X125354504Y-98472993D01*
X125360316Y-98496197D01*
X125363826Y-98519858D01*
X125365000Y-98543750D01*
X125365000Y-99456250D01*
X125363826Y-99480142D01*
X125360316Y-99503803D01*
X125354504Y-99527007D01*
X125346446Y-99549529D01*
X125336218Y-99571153D01*
X125323921Y-99591670D01*
X125309671Y-99610883D01*
X125293607Y-99628607D01*
X125275883Y-99644671D01*
X125256670Y-99658921D01*
X125236153Y-99671218D01*
X125214529Y-99681446D01*
X125192007Y-99689504D01*
X125168803Y-99695316D01*
X125145142Y-99698826D01*
X125121250Y-99700000D01*
X124633750Y-99700000D01*
X124609858Y-99698826D01*
X124586197Y-99695316D01*
X124562993Y-99689504D01*
X124540471Y-99681446D01*
X124518847Y-99671218D01*
X124498330Y-99658921D01*
X124479117Y-99644671D01*
X124461393Y-99628607D01*
X124445329Y-99610883D01*
X124431079Y-99591670D01*
X124418782Y-99571153D01*
X124408554Y-99549529D01*
X124400496Y-99527007D01*
X124394684Y-99503803D01*
X124391174Y-99480142D01*
X124390000Y-99456250D01*
X124390000Y-98543750D01*
X124391174Y-98519858D01*
X124394684Y-98496197D01*
X124400496Y-98472993D01*
X124408554Y-98450471D01*
X124418782Y-98428847D01*
X124431079Y-98408330D01*
X124445329Y-98389117D01*
X124461393Y-98371393D01*
X124479117Y-98355329D01*
X124498330Y-98341079D01*
X124518847Y-98328782D01*
X124540471Y-98318554D01*
X124562993Y-98310496D01*
X124586197Y-98304684D01*
X124609858Y-98301174D01*
X124633750Y-98300000D01*
X125121250Y-98300000D01*
X125145142Y-98301174D01*
X125145142Y-98301174D01*
G37*
D13*
X124877500Y-99000000D03*
G04 #@! TD*
D12*
G04 #@! TO.C,R5*
G36*
X124462784Y-116262587D02*
X124486445Y-116266097D01*
X124509649Y-116271909D01*
X124532171Y-116279967D01*
X124553795Y-116290195D01*
X124574312Y-116302492D01*
X124593525Y-116316742D01*
X124611249Y-116332806D01*
X124627313Y-116350530D01*
X124641563Y-116369743D01*
X124653860Y-116390260D01*
X124664088Y-116411884D01*
X124672146Y-116434406D01*
X124677958Y-116457610D01*
X124681468Y-116481271D01*
X124682642Y-116505163D01*
X124682642Y-117417663D01*
X124681468Y-117441555D01*
X124677958Y-117465216D01*
X124672146Y-117488420D01*
X124664088Y-117510942D01*
X124653860Y-117532566D01*
X124641563Y-117553083D01*
X124627313Y-117572296D01*
X124611249Y-117590020D01*
X124593525Y-117606084D01*
X124574312Y-117620334D01*
X124553795Y-117632631D01*
X124532171Y-117642859D01*
X124509649Y-117650917D01*
X124486445Y-117656729D01*
X124462784Y-117660239D01*
X124438892Y-117661413D01*
X123951392Y-117661413D01*
X123927500Y-117660239D01*
X123903839Y-117656729D01*
X123880635Y-117650917D01*
X123858113Y-117642859D01*
X123836489Y-117632631D01*
X123815972Y-117620334D01*
X123796759Y-117606084D01*
X123779035Y-117590020D01*
X123762971Y-117572296D01*
X123748721Y-117553083D01*
X123736424Y-117532566D01*
X123726196Y-117510942D01*
X123718138Y-117488420D01*
X123712326Y-117465216D01*
X123708816Y-117441555D01*
X123707642Y-117417663D01*
X123707642Y-116505163D01*
X123708816Y-116481271D01*
X123712326Y-116457610D01*
X123718138Y-116434406D01*
X123726196Y-116411884D01*
X123736424Y-116390260D01*
X123748721Y-116369743D01*
X123762971Y-116350530D01*
X123779035Y-116332806D01*
X123796759Y-116316742D01*
X123815972Y-116302492D01*
X123836489Y-116290195D01*
X123858113Y-116279967D01*
X123880635Y-116271909D01*
X123903839Y-116266097D01*
X123927500Y-116262587D01*
X123951392Y-116261413D01*
X124438892Y-116261413D01*
X124462784Y-116262587D01*
X124462784Y-116262587D01*
G37*
D13*
X124195142Y-116961413D03*
D12*
G36*
X126337784Y-116262587D02*
X126361445Y-116266097D01*
X126384649Y-116271909D01*
X126407171Y-116279967D01*
X126428795Y-116290195D01*
X126449312Y-116302492D01*
X126468525Y-116316742D01*
X126486249Y-116332806D01*
X126502313Y-116350530D01*
X126516563Y-116369743D01*
X126528860Y-116390260D01*
X126539088Y-116411884D01*
X126547146Y-116434406D01*
X126552958Y-116457610D01*
X126556468Y-116481271D01*
X126557642Y-116505163D01*
X126557642Y-117417663D01*
X126556468Y-117441555D01*
X126552958Y-117465216D01*
X126547146Y-117488420D01*
X126539088Y-117510942D01*
X126528860Y-117532566D01*
X126516563Y-117553083D01*
X126502313Y-117572296D01*
X126486249Y-117590020D01*
X126468525Y-117606084D01*
X126449312Y-117620334D01*
X126428795Y-117632631D01*
X126407171Y-117642859D01*
X126384649Y-117650917D01*
X126361445Y-117656729D01*
X126337784Y-117660239D01*
X126313892Y-117661413D01*
X125826392Y-117661413D01*
X125802500Y-117660239D01*
X125778839Y-117656729D01*
X125755635Y-117650917D01*
X125733113Y-117642859D01*
X125711489Y-117632631D01*
X125690972Y-117620334D01*
X125671759Y-117606084D01*
X125654035Y-117590020D01*
X125637971Y-117572296D01*
X125623721Y-117553083D01*
X125611424Y-117532566D01*
X125601196Y-117510942D01*
X125593138Y-117488420D01*
X125587326Y-117465216D01*
X125583816Y-117441555D01*
X125582642Y-117417663D01*
X125582642Y-116505163D01*
X125583816Y-116481271D01*
X125587326Y-116457610D01*
X125593138Y-116434406D01*
X125601196Y-116411884D01*
X125611424Y-116390260D01*
X125623721Y-116369743D01*
X125637971Y-116350530D01*
X125654035Y-116332806D01*
X125671759Y-116316742D01*
X125690972Y-116302492D01*
X125711489Y-116290195D01*
X125733113Y-116279967D01*
X125755635Y-116271909D01*
X125778839Y-116266097D01*
X125802500Y-116262587D01*
X125826392Y-116261413D01*
X126313892Y-116261413D01*
X126337784Y-116262587D01*
X126337784Y-116262587D01*
G37*
D13*
X126070142Y-116961413D03*
G04 #@! TD*
D12*
G04 #@! TO.C,R6*
G36*
X120630142Y-93201174D02*
X120653803Y-93204684D01*
X120677007Y-93210496D01*
X120699529Y-93218554D01*
X120721153Y-93228782D01*
X120741670Y-93241079D01*
X120760883Y-93255329D01*
X120778607Y-93271393D01*
X120794671Y-93289117D01*
X120808921Y-93308330D01*
X120821218Y-93328847D01*
X120831446Y-93350471D01*
X120839504Y-93372993D01*
X120845316Y-93396197D01*
X120848826Y-93419858D01*
X120850000Y-93443750D01*
X120850000Y-93931250D01*
X120848826Y-93955142D01*
X120845316Y-93978803D01*
X120839504Y-94002007D01*
X120831446Y-94024529D01*
X120821218Y-94046153D01*
X120808921Y-94066670D01*
X120794671Y-94085883D01*
X120778607Y-94103607D01*
X120760883Y-94119671D01*
X120741670Y-94133921D01*
X120721153Y-94146218D01*
X120699529Y-94156446D01*
X120677007Y-94164504D01*
X120653803Y-94170316D01*
X120630142Y-94173826D01*
X120606250Y-94175000D01*
X119693750Y-94175000D01*
X119669858Y-94173826D01*
X119646197Y-94170316D01*
X119622993Y-94164504D01*
X119600471Y-94156446D01*
X119578847Y-94146218D01*
X119558330Y-94133921D01*
X119539117Y-94119671D01*
X119521393Y-94103607D01*
X119505329Y-94085883D01*
X119491079Y-94066670D01*
X119478782Y-94046153D01*
X119468554Y-94024529D01*
X119460496Y-94002007D01*
X119454684Y-93978803D01*
X119451174Y-93955142D01*
X119450000Y-93931250D01*
X119450000Y-93443750D01*
X119451174Y-93419858D01*
X119454684Y-93396197D01*
X119460496Y-93372993D01*
X119468554Y-93350471D01*
X119478782Y-93328847D01*
X119491079Y-93308330D01*
X119505329Y-93289117D01*
X119521393Y-93271393D01*
X119539117Y-93255329D01*
X119558330Y-93241079D01*
X119578847Y-93228782D01*
X119600471Y-93218554D01*
X119622993Y-93210496D01*
X119646197Y-93204684D01*
X119669858Y-93201174D01*
X119693750Y-93200000D01*
X120606250Y-93200000D01*
X120630142Y-93201174D01*
X120630142Y-93201174D01*
G37*
D13*
X120150000Y-93687500D03*
D12*
G36*
X120630142Y-91326174D02*
X120653803Y-91329684D01*
X120677007Y-91335496D01*
X120699529Y-91343554D01*
X120721153Y-91353782D01*
X120741670Y-91366079D01*
X120760883Y-91380329D01*
X120778607Y-91396393D01*
X120794671Y-91414117D01*
X120808921Y-91433330D01*
X120821218Y-91453847D01*
X120831446Y-91475471D01*
X120839504Y-91497993D01*
X120845316Y-91521197D01*
X120848826Y-91544858D01*
X120850000Y-91568750D01*
X120850000Y-92056250D01*
X120848826Y-92080142D01*
X120845316Y-92103803D01*
X120839504Y-92127007D01*
X120831446Y-92149529D01*
X120821218Y-92171153D01*
X120808921Y-92191670D01*
X120794671Y-92210883D01*
X120778607Y-92228607D01*
X120760883Y-92244671D01*
X120741670Y-92258921D01*
X120721153Y-92271218D01*
X120699529Y-92281446D01*
X120677007Y-92289504D01*
X120653803Y-92295316D01*
X120630142Y-92298826D01*
X120606250Y-92300000D01*
X119693750Y-92300000D01*
X119669858Y-92298826D01*
X119646197Y-92295316D01*
X119622993Y-92289504D01*
X119600471Y-92281446D01*
X119578847Y-92271218D01*
X119558330Y-92258921D01*
X119539117Y-92244671D01*
X119521393Y-92228607D01*
X119505329Y-92210883D01*
X119491079Y-92191670D01*
X119478782Y-92171153D01*
X119468554Y-92149529D01*
X119460496Y-92127007D01*
X119454684Y-92103803D01*
X119451174Y-92080142D01*
X119450000Y-92056250D01*
X119450000Y-91568750D01*
X119451174Y-91544858D01*
X119454684Y-91521197D01*
X119460496Y-91497993D01*
X119468554Y-91475471D01*
X119478782Y-91453847D01*
X119491079Y-91433330D01*
X119505329Y-91414117D01*
X119521393Y-91396393D01*
X119539117Y-91380329D01*
X119558330Y-91366079D01*
X119578847Y-91353782D01*
X119600471Y-91343554D01*
X119622993Y-91335496D01*
X119646197Y-91329684D01*
X119669858Y-91326174D01*
X119693750Y-91325000D01*
X120606250Y-91325000D01*
X120630142Y-91326174D01*
X120630142Y-91326174D01*
G37*
D13*
X120150000Y-91812500D03*
G04 #@! TD*
D12*
G04 #@! TO.C,R8*
G36*
X168480142Y-103076174D02*
X168503803Y-103079684D01*
X168527007Y-103085496D01*
X168549529Y-103093554D01*
X168571153Y-103103782D01*
X168591670Y-103116079D01*
X168610883Y-103130329D01*
X168628607Y-103146393D01*
X168644671Y-103164117D01*
X168658921Y-103183330D01*
X168671218Y-103203847D01*
X168681446Y-103225471D01*
X168689504Y-103247993D01*
X168695316Y-103271197D01*
X168698826Y-103294858D01*
X168700000Y-103318750D01*
X168700000Y-103806250D01*
X168698826Y-103830142D01*
X168695316Y-103853803D01*
X168689504Y-103877007D01*
X168681446Y-103899529D01*
X168671218Y-103921153D01*
X168658921Y-103941670D01*
X168644671Y-103960883D01*
X168628607Y-103978607D01*
X168610883Y-103994671D01*
X168591670Y-104008921D01*
X168571153Y-104021218D01*
X168549529Y-104031446D01*
X168527007Y-104039504D01*
X168503803Y-104045316D01*
X168480142Y-104048826D01*
X168456250Y-104050000D01*
X167543750Y-104050000D01*
X167519858Y-104048826D01*
X167496197Y-104045316D01*
X167472993Y-104039504D01*
X167450471Y-104031446D01*
X167428847Y-104021218D01*
X167408330Y-104008921D01*
X167389117Y-103994671D01*
X167371393Y-103978607D01*
X167355329Y-103960883D01*
X167341079Y-103941670D01*
X167328782Y-103921153D01*
X167318554Y-103899529D01*
X167310496Y-103877007D01*
X167304684Y-103853803D01*
X167301174Y-103830142D01*
X167300000Y-103806250D01*
X167300000Y-103318750D01*
X167301174Y-103294858D01*
X167304684Y-103271197D01*
X167310496Y-103247993D01*
X167318554Y-103225471D01*
X167328782Y-103203847D01*
X167341079Y-103183330D01*
X167355329Y-103164117D01*
X167371393Y-103146393D01*
X167389117Y-103130329D01*
X167408330Y-103116079D01*
X167428847Y-103103782D01*
X167450471Y-103093554D01*
X167472993Y-103085496D01*
X167496197Y-103079684D01*
X167519858Y-103076174D01*
X167543750Y-103075000D01*
X168456250Y-103075000D01*
X168480142Y-103076174D01*
X168480142Y-103076174D01*
G37*
D13*
X168000000Y-103562500D03*
D12*
G36*
X168480142Y-104951174D02*
X168503803Y-104954684D01*
X168527007Y-104960496D01*
X168549529Y-104968554D01*
X168571153Y-104978782D01*
X168591670Y-104991079D01*
X168610883Y-105005329D01*
X168628607Y-105021393D01*
X168644671Y-105039117D01*
X168658921Y-105058330D01*
X168671218Y-105078847D01*
X168681446Y-105100471D01*
X168689504Y-105122993D01*
X168695316Y-105146197D01*
X168698826Y-105169858D01*
X168700000Y-105193750D01*
X168700000Y-105681250D01*
X168698826Y-105705142D01*
X168695316Y-105728803D01*
X168689504Y-105752007D01*
X168681446Y-105774529D01*
X168671218Y-105796153D01*
X168658921Y-105816670D01*
X168644671Y-105835883D01*
X168628607Y-105853607D01*
X168610883Y-105869671D01*
X168591670Y-105883921D01*
X168571153Y-105896218D01*
X168549529Y-105906446D01*
X168527007Y-105914504D01*
X168503803Y-105920316D01*
X168480142Y-105923826D01*
X168456250Y-105925000D01*
X167543750Y-105925000D01*
X167519858Y-105923826D01*
X167496197Y-105920316D01*
X167472993Y-105914504D01*
X167450471Y-105906446D01*
X167428847Y-105896218D01*
X167408330Y-105883921D01*
X167389117Y-105869671D01*
X167371393Y-105853607D01*
X167355329Y-105835883D01*
X167341079Y-105816670D01*
X167328782Y-105796153D01*
X167318554Y-105774529D01*
X167310496Y-105752007D01*
X167304684Y-105728803D01*
X167301174Y-105705142D01*
X167300000Y-105681250D01*
X167300000Y-105193750D01*
X167301174Y-105169858D01*
X167304684Y-105146197D01*
X167310496Y-105122993D01*
X167318554Y-105100471D01*
X167328782Y-105078847D01*
X167341079Y-105058330D01*
X167355329Y-105039117D01*
X167371393Y-105021393D01*
X167389117Y-105005329D01*
X167408330Y-104991079D01*
X167428847Y-104978782D01*
X167450471Y-104968554D01*
X167472993Y-104960496D01*
X167496197Y-104954684D01*
X167519858Y-104951174D01*
X167543750Y-104950000D01*
X168456250Y-104950000D01*
X168480142Y-104951174D01*
X168480142Y-104951174D01*
G37*
D13*
X168000000Y-105437500D03*
G04 #@! TD*
D12*
G04 #@! TO.C,R9*
G36*
X121132784Y-112672587D02*
X121156445Y-112676097D01*
X121179649Y-112681909D01*
X121202171Y-112689967D01*
X121223795Y-112700195D01*
X121244312Y-112712492D01*
X121263525Y-112726742D01*
X121281249Y-112742806D01*
X121297313Y-112760530D01*
X121311563Y-112779743D01*
X121323860Y-112800260D01*
X121334088Y-112821884D01*
X121342146Y-112844406D01*
X121347958Y-112867610D01*
X121351468Y-112891271D01*
X121352642Y-112915163D01*
X121352642Y-113827663D01*
X121351468Y-113851555D01*
X121347958Y-113875216D01*
X121342146Y-113898420D01*
X121334088Y-113920942D01*
X121323860Y-113942566D01*
X121311563Y-113963083D01*
X121297313Y-113982296D01*
X121281249Y-114000020D01*
X121263525Y-114016084D01*
X121244312Y-114030334D01*
X121223795Y-114042631D01*
X121202171Y-114052859D01*
X121179649Y-114060917D01*
X121156445Y-114066729D01*
X121132784Y-114070239D01*
X121108892Y-114071413D01*
X120621392Y-114071413D01*
X120597500Y-114070239D01*
X120573839Y-114066729D01*
X120550635Y-114060917D01*
X120528113Y-114052859D01*
X120506489Y-114042631D01*
X120485972Y-114030334D01*
X120466759Y-114016084D01*
X120449035Y-114000020D01*
X120432971Y-113982296D01*
X120418721Y-113963083D01*
X120406424Y-113942566D01*
X120396196Y-113920942D01*
X120388138Y-113898420D01*
X120382326Y-113875216D01*
X120378816Y-113851555D01*
X120377642Y-113827663D01*
X120377642Y-112915163D01*
X120378816Y-112891271D01*
X120382326Y-112867610D01*
X120388138Y-112844406D01*
X120396196Y-112821884D01*
X120406424Y-112800260D01*
X120418721Y-112779743D01*
X120432971Y-112760530D01*
X120449035Y-112742806D01*
X120466759Y-112726742D01*
X120485972Y-112712492D01*
X120506489Y-112700195D01*
X120528113Y-112689967D01*
X120550635Y-112681909D01*
X120573839Y-112676097D01*
X120597500Y-112672587D01*
X120621392Y-112671413D01*
X121108892Y-112671413D01*
X121132784Y-112672587D01*
X121132784Y-112672587D01*
G37*
D13*
X120865142Y-113371413D03*
D12*
G36*
X123007784Y-112672587D02*
X123031445Y-112676097D01*
X123054649Y-112681909D01*
X123077171Y-112689967D01*
X123098795Y-112700195D01*
X123119312Y-112712492D01*
X123138525Y-112726742D01*
X123156249Y-112742806D01*
X123172313Y-112760530D01*
X123186563Y-112779743D01*
X123198860Y-112800260D01*
X123209088Y-112821884D01*
X123217146Y-112844406D01*
X123222958Y-112867610D01*
X123226468Y-112891271D01*
X123227642Y-112915163D01*
X123227642Y-113827663D01*
X123226468Y-113851555D01*
X123222958Y-113875216D01*
X123217146Y-113898420D01*
X123209088Y-113920942D01*
X123198860Y-113942566D01*
X123186563Y-113963083D01*
X123172313Y-113982296D01*
X123156249Y-114000020D01*
X123138525Y-114016084D01*
X123119312Y-114030334D01*
X123098795Y-114042631D01*
X123077171Y-114052859D01*
X123054649Y-114060917D01*
X123031445Y-114066729D01*
X123007784Y-114070239D01*
X122983892Y-114071413D01*
X122496392Y-114071413D01*
X122472500Y-114070239D01*
X122448839Y-114066729D01*
X122425635Y-114060917D01*
X122403113Y-114052859D01*
X122381489Y-114042631D01*
X122360972Y-114030334D01*
X122341759Y-114016084D01*
X122324035Y-114000020D01*
X122307971Y-113982296D01*
X122293721Y-113963083D01*
X122281424Y-113942566D01*
X122271196Y-113920942D01*
X122263138Y-113898420D01*
X122257326Y-113875216D01*
X122253816Y-113851555D01*
X122252642Y-113827663D01*
X122252642Y-112915163D01*
X122253816Y-112891271D01*
X122257326Y-112867610D01*
X122263138Y-112844406D01*
X122271196Y-112821884D01*
X122281424Y-112800260D01*
X122293721Y-112779743D01*
X122307971Y-112760530D01*
X122324035Y-112742806D01*
X122341759Y-112726742D01*
X122360972Y-112712492D01*
X122381489Y-112700195D01*
X122403113Y-112689967D01*
X122425635Y-112681909D01*
X122448839Y-112676097D01*
X122472500Y-112672587D01*
X122496392Y-112671413D01*
X122983892Y-112671413D01*
X123007784Y-112672587D01*
X123007784Y-112672587D01*
G37*
D13*
X122740142Y-113371413D03*
G04 #@! TD*
D12*
G04 #@! TO.C,R10*
G36*
X126317784Y-110852587D02*
X126341445Y-110856097D01*
X126364649Y-110861909D01*
X126387171Y-110869967D01*
X126408795Y-110880195D01*
X126429312Y-110892492D01*
X126448525Y-110906742D01*
X126466249Y-110922806D01*
X126482313Y-110940530D01*
X126496563Y-110959743D01*
X126508860Y-110980260D01*
X126519088Y-111001884D01*
X126527146Y-111024406D01*
X126532958Y-111047610D01*
X126536468Y-111071271D01*
X126537642Y-111095163D01*
X126537642Y-112007663D01*
X126536468Y-112031555D01*
X126532958Y-112055216D01*
X126527146Y-112078420D01*
X126519088Y-112100942D01*
X126508860Y-112122566D01*
X126496563Y-112143083D01*
X126482313Y-112162296D01*
X126466249Y-112180020D01*
X126448525Y-112196084D01*
X126429312Y-112210334D01*
X126408795Y-112222631D01*
X126387171Y-112232859D01*
X126364649Y-112240917D01*
X126341445Y-112246729D01*
X126317784Y-112250239D01*
X126293892Y-112251413D01*
X125806392Y-112251413D01*
X125782500Y-112250239D01*
X125758839Y-112246729D01*
X125735635Y-112240917D01*
X125713113Y-112232859D01*
X125691489Y-112222631D01*
X125670972Y-112210334D01*
X125651759Y-112196084D01*
X125634035Y-112180020D01*
X125617971Y-112162296D01*
X125603721Y-112143083D01*
X125591424Y-112122566D01*
X125581196Y-112100942D01*
X125573138Y-112078420D01*
X125567326Y-112055216D01*
X125563816Y-112031555D01*
X125562642Y-112007663D01*
X125562642Y-111095163D01*
X125563816Y-111071271D01*
X125567326Y-111047610D01*
X125573138Y-111024406D01*
X125581196Y-111001884D01*
X125591424Y-110980260D01*
X125603721Y-110959743D01*
X125617971Y-110940530D01*
X125634035Y-110922806D01*
X125651759Y-110906742D01*
X125670972Y-110892492D01*
X125691489Y-110880195D01*
X125713113Y-110869967D01*
X125735635Y-110861909D01*
X125758839Y-110856097D01*
X125782500Y-110852587D01*
X125806392Y-110851413D01*
X126293892Y-110851413D01*
X126317784Y-110852587D01*
X126317784Y-110852587D01*
G37*
D13*
X126050142Y-111551413D03*
D12*
G36*
X124442784Y-110852587D02*
X124466445Y-110856097D01*
X124489649Y-110861909D01*
X124512171Y-110869967D01*
X124533795Y-110880195D01*
X124554312Y-110892492D01*
X124573525Y-110906742D01*
X124591249Y-110922806D01*
X124607313Y-110940530D01*
X124621563Y-110959743D01*
X124633860Y-110980260D01*
X124644088Y-111001884D01*
X124652146Y-111024406D01*
X124657958Y-111047610D01*
X124661468Y-111071271D01*
X124662642Y-111095163D01*
X124662642Y-112007663D01*
X124661468Y-112031555D01*
X124657958Y-112055216D01*
X124652146Y-112078420D01*
X124644088Y-112100942D01*
X124633860Y-112122566D01*
X124621563Y-112143083D01*
X124607313Y-112162296D01*
X124591249Y-112180020D01*
X124573525Y-112196084D01*
X124554312Y-112210334D01*
X124533795Y-112222631D01*
X124512171Y-112232859D01*
X124489649Y-112240917D01*
X124466445Y-112246729D01*
X124442784Y-112250239D01*
X124418892Y-112251413D01*
X123931392Y-112251413D01*
X123907500Y-112250239D01*
X123883839Y-112246729D01*
X123860635Y-112240917D01*
X123838113Y-112232859D01*
X123816489Y-112222631D01*
X123795972Y-112210334D01*
X123776759Y-112196084D01*
X123759035Y-112180020D01*
X123742971Y-112162296D01*
X123728721Y-112143083D01*
X123716424Y-112122566D01*
X123706196Y-112100942D01*
X123698138Y-112078420D01*
X123692326Y-112055216D01*
X123688816Y-112031555D01*
X123687642Y-112007663D01*
X123687642Y-111095163D01*
X123688816Y-111071271D01*
X123692326Y-111047610D01*
X123698138Y-111024406D01*
X123706196Y-111001884D01*
X123716424Y-110980260D01*
X123728721Y-110959743D01*
X123742971Y-110940530D01*
X123759035Y-110922806D01*
X123776759Y-110906742D01*
X123795972Y-110892492D01*
X123816489Y-110880195D01*
X123838113Y-110869967D01*
X123860635Y-110861909D01*
X123883839Y-110856097D01*
X123907500Y-110852587D01*
X123931392Y-110851413D01*
X124418892Y-110851413D01*
X124442784Y-110852587D01*
X124442784Y-110852587D01*
G37*
D13*
X124175142Y-111551413D03*
G04 #@! TD*
D12*
G04 #@! TO.C,R13*
G36*
X124452784Y-114452587D02*
X124476445Y-114456097D01*
X124499649Y-114461909D01*
X124522171Y-114469967D01*
X124543795Y-114480195D01*
X124564312Y-114492492D01*
X124583525Y-114506742D01*
X124601249Y-114522806D01*
X124617313Y-114540530D01*
X124631563Y-114559743D01*
X124643860Y-114580260D01*
X124654088Y-114601884D01*
X124662146Y-114624406D01*
X124667958Y-114647610D01*
X124671468Y-114671271D01*
X124672642Y-114695163D01*
X124672642Y-115607663D01*
X124671468Y-115631555D01*
X124667958Y-115655216D01*
X124662146Y-115678420D01*
X124654088Y-115700942D01*
X124643860Y-115722566D01*
X124631563Y-115743083D01*
X124617313Y-115762296D01*
X124601249Y-115780020D01*
X124583525Y-115796084D01*
X124564312Y-115810334D01*
X124543795Y-115822631D01*
X124522171Y-115832859D01*
X124499649Y-115840917D01*
X124476445Y-115846729D01*
X124452784Y-115850239D01*
X124428892Y-115851413D01*
X123941392Y-115851413D01*
X123917500Y-115850239D01*
X123893839Y-115846729D01*
X123870635Y-115840917D01*
X123848113Y-115832859D01*
X123826489Y-115822631D01*
X123805972Y-115810334D01*
X123786759Y-115796084D01*
X123769035Y-115780020D01*
X123752971Y-115762296D01*
X123738721Y-115743083D01*
X123726424Y-115722566D01*
X123716196Y-115700942D01*
X123708138Y-115678420D01*
X123702326Y-115655216D01*
X123698816Y-115631555D01*
X123697642Y-115607663D01*
X123697642Y-114695163D01*
X123698816Y-114671271D01*
X123702326Y-114647610D01*
X123708138Y-114624406D01*
X123716196Y-114601884D01*
X123726424Y-114580260D01*
X123738721Y-114559743D01*
X123752971Y-114540530D01*
X123769035Y-114522806D01*
X123786759Y-114506742D01*
X123805972Y-114492492D01*
X123826489Y-114480195D01*
X123848113Y-114469967D01*
X123870635Y-114461909D01*
X123893839Y-114456097D01*
X123917500Y-114452587D01*
X123941392Y-114451413D01*
X124428892Y-114451413D01*
X124452784Y-114452587D01*
X124452784Y-114452587D01*
G37*
D13*
X124185142Y-115151413D03*
D12*
G36*
X126327784Y-114452587D02*
X126351445Y-114456097D01*
X126374649Y-114461909D01*
X126397171Y-114469967D01*
X126418795Y-114480195D01*
X126439312Y-114492492D01*
X126458525Y-114506742D01*
X126476249Y-114522806D01*
X126492313Y-114540530D01*
X126506563Y-114559743D01*
X126518860Y-114580260D01*
X126529088Y-114601884D01*
X126537146Y-114624406D01*
X126542958Y-114647610D01*
X126546468Y-114671271D01*
X126547642Y-114695163D01*
X126547642Y-115607663D01*
X126546468Y-115631555D01*
X126542958Y-115655216D01*
X126537146Y-115678420D01*
X126529088Y-115700942D01*
X126518860Y-115722566D01*
X126506563Y-115743083D01*
X126492313Y-115762296D01*
X126476249Y-115780020D01*
X126458525Y-115796084D01*
X126439312Y-115810334D01*
X126418795Y-115822631D01*
X126397171Y-115832859D01*
X126374649Y-115840917D01*
X126351445Y-115846729D01*
X126327784Y-115850239D01*
X126303892Y-115851413D01*
X125816392Y-115851413D01*
X125792500Y-115850239D01*
X125768839Y-115846729D01*
X125745635Y-115840917D01*
X125723113Y-115832859D01*
X125701489Y-115822631D01*
X125680972Y-115810334D01*
X125661759Y-115796084D01*
X125644035Y-115780020D01*
X125627971Y-115762296D01*
X125613721Y-115743083D01*
X125601424Y-115722566D01*
X125591196Y-115700942D01*
X125583138Y-115678420D01*
X125577326Y-115655216D01*
X125573816Y-115631555D01*
X125572642Y-115607663D01*
X125572642Y-114695163D01*
X125573816Y-114671271D01*
X125577326Y-114647610D01*
X125583138Y-114624406D01*
X125591196Y-114601884D01*
X125601424Y-114580260D01*
X125613721Y-114559743D01*
X125627971Y-114540530D01*
X125644035Y-114522806D01*
X125661759Y-114506742D01*
X125680972Y-114492492D01*
X125701489Y-114480195D01*
X125723113Y-114469967D01*
X125745635Y-114461909D01*
X125768839Y-114456097D01*
X125792500Y-114452587D01*
X125816392Y-114451413D01*
X126303892Y-114451413D01*
X126327784Y-114452587D01*
X126327784Y-114452587D01*
G37*
D13*
X126060142Y-115151413D03*
G04 #@! TD*
D12*
G04 #@! TO.C,R16*
G36*
X137342784Y-113667587D02*
X137366445Y-113671097D01*
X137389649Y-113676909D01*
X137412171Y-113684967D01*
X137433795Y-113695195D01*
X137454312Y-113707492D01*
X137473525Y-113721742D01*
X137491249Y-113737806D01*
X137507313Y-113755530D01*
X137521563Y-113774743D01*
X137533860Y-113795260D01*
X137544088Y-113816884D01*
X137552146Y-113839406D01*
X137557958Y-113862610D01*
X137561468Y-113886271D01*
X137562642Y-113910163D01*
X137562642Y-114397663D01*
X137561468Y-114421555D01*
X137557958Y-114445216D01*
X137552146Y-114468420D01*
X137544088Y-114490942D01*
X137533860Y-114512566D01*
X137521563Y-114533083D01*
X137507313Y-114552296D01*
X137491249Y-114570020D01*
X137473525Y-114586084D01*
X137454312Y-114600334D01*
X137433795Y-114612631D01*
X137412171Y-114622859D01*
X137389649Y-114630917D01*
X137366445Y-114636729D01*
X137342784Y-114640239D01*
X137318892Y-114641413D01*
X136406392Y-114641413D01*
X136382500Y-114640239D01*
X136358839Y-114636729D01*
X136335635Y-114630917D01*
X136313113Y-114622859D01*
X136291489Y-114612631D01*
X136270972Y-114600334D01*
X136251759Y-114586084D01*
X136234035Y-114570020D01*
X136217971Y-114552296D01*
X136203721Y-114533083D01*
X136191424Y-114512566D01*
X136181196Y-114490942D01*
X136173138Y-114468420D01*
X136167326Y-114445216D01*
X136163816Y-114421555D01*
X136162642Y-114397663D01*
X136162642Y-113910163D01*
X136163816Y-113886271D01*
X136167326Y-113862610D01*
X136173138Y-113839406D01*
X136181196Y-113816884D01*
X136191424Y-113795260D01*
X136203721Y-113774743D01*
X136217971Y-113755530D01*
X136234035Y-113737806D01*
X136251759Y-113721742D01*
X136270972Y-113707492D01*
X136291489Y-113695195D01*
X136313113Y-113684967D01*
X136335635Y-113676909D01*
X136358839Y-113671097D01*
X136382500Y-113667587D01*
X136406392Y-113666413D01*
X137318892Y-113666413D01*
X137342784Y-113667587D01*
X137342784Y-113667587D01*
G37*
D13*
X136862642Y-114153913D03*
D12*
G36*
X137342784Y-115542587D02*
X137366445Y-115546097D01*
X137389649Y-115551909D01*
X137412171Y-115559967D01*
X137433795Y-115570195D01*
X137454312Y-115582492D01*
X137473525Y-115596742D01*
X137491249Y-115612806D01*
X137507313Y-115630530D01*
X137521563Y-115649743D01*
X137533860Y-115670260D01*
X137544088Y-115691884D01*
X137552146Y-115714406D01*
X137557958Y-115737610D01*
X137561468Y-115761271D01*
X137562642Y-115785163D01*
X137562642Y-116272663D01*
X137561468Y-116296555D01*
X137557958Y-116320216D01*
X137552146Y-116343420D01*
X137544088Y-116365942D01*
X137533860Y-116387566D01*
X137521563Y-116408083D01*
X137507313Y-116427296D01*
X137491249Y-116445020D01*
X137473525Y-116461084D01*
X137454312Y-116475334D01*
X137433795Y-116487631D01*
X137412171Y-116497859D01*
X137389649Y-116505917D01*
X137366445Y-116511729D01*
X137342784Y-116515239D01*
X137318892Y-116516413D01*
X136406392Y-116516413D01*
X136382500Y-116515239D01*
X136358839Y-116511729D01*
X136335635Y-116505917D01*
X136313113Y-116497859D01*
X136291489Y-116487631D01*
X136270972Y-116475334D01*
X136251759Y-116461084D01*
X136234035Y-116445020D01*
X136217971Y-116427296D01*
X136203721Y-116408083D01*
X136191424Y-116387566D01*
X136181196Y-116365942D01*
X136173138Y-116343420D01*
X136167326Y-116320216D01*
X136163816Y-116296555D01*
X136162642Y-116272663D01*
X136162642Y-115785163D01*
X136163816Y-115761271D01*
X136167326Y-115737610D01*
X136173138Y-115714406D01*
X136181196Y-115691884D01*
X136191424Y-115670260D01*
X136203721Y-115649743D01*
X136217971Y-115630530D01*
X136234035Y-115612806D01*
X136251759Y-115596742D01*
X136270972Y-115582492D01*
X136291489Y-115570195D01*
X136313113Y-115559967D01*
X136335635Y-115551909D01*
X136358839Y-115546097D01*
X136382500Y-115542587D01*
X136406392Y-115541413D01*
X137318892Y-115541413D01*
X137342784Y-115542587D01*
X137342784Y-115542587D01*
G37*
D13*
X136862642Y-116028913D03*
G04 #@! TD*
D12*
G04 #@! TO.C,R17*
G36*
X139320142Y-96206174D02*
X139343803Y-96209684D01*
X139367007Y-96215496D01*
X139389529Y-96223554D01*
X139411153Y-96233782D01*
X139431670Y-96246079D01*
X139450883Y-96260329D01*
X139468607Y-96276393D01*
X139484671Y-96294117D01*
X139498921Y-96313330D01*
X139511218Y-96333847D01*
X139521446Y-96355471D01*
X139529504Y-96377993D01*
X139535316Y-96401197D01*
X139538826Y-96424858D01*
X139540000Y-96448750D01*
X139540000Y-96936250D01*
X139538826Y-96960142D01*
X139535316Y-96983803D01*
X139529504Y-97007007D01*
X139521446Y-97029529D01*
X139511218Y-97051153D01*
X139498921Y-97071670D01*
X139484671Y-97090883D01*
X139468607Y-97108607D01*
X139450883Y-97124671D01*
X139431670Y-97138921D01*
X139411153Y-97151218D01*
X139389529Y-97161446D01*
X139367007Y-97169504D01*
X139343803Y-97175316D01*
X139320142Y-97178826D01*
X139296250Y-97180000D01*
X138383750Y-97180000D01*
X138359858Y-97178826D01*
X138336197Y-97175316D01*
X138312993Y-97169504D01*
X138290471Y-97161446D01*
X138268847Y-97151218D01*
X138248330Y-97138921D01*
X138229117Y-97124671D01*
X138211393Y-97108607D01*
X138195329Y-97090883D01*
X138181079Y-97071670D01*
X138168782Y-97051153D01*
X138158554Y-97029529D01*
X138150496Y-97007007D01*
X138144684Y-96983803D01*
X138141174Y-96960142D01*
X138140000Y-96936250D01*
X138140000Y-96448750D01*
X138141174Y-96424858D01*
X138144684Y-96401197D01*
X138150496Y-96377993D01*
X138158554Y-96355471D01*
X138168782Y-96333847D01*
X138181079Y-96313330D01*
X138195329Y-96294117D01*
X138211393Y-96276393D01*
X138229117Y-96260329D01*
X138248330Y-96246079D01*
X138268847Y-96233782D01*
X138290471Y-96223554D01*
X138312993Y-96215496D01*
X138336197Y-96209684D01*
X138359858Y-96206174D01*
X138383750Y-96205000D01*
X139296250Y-96205000D01*
X139320142Y-96206174D01*
X139320142Y-96206174D01*
G37*
D13*
X138840000Y-96692500D03*
D12*
G36*
X139320142Y-98081174D02*
X139343803Y-98084684D01*
X139367007Y-98090496D01*
X139389529Y-98098554D01*
X139411153Y-98108782D01*
X139431670Y-98121079D01*
X139450883Y-98135329D01*
X139468607Y-98151393D01*
X139484671Y-98169117D01*
X139498921Y-98188330D01*
X139511218Y-98208847D01*
X139521446Y-98230471D01*
X139529504Y-98252993D01*
X139535316Y-98276197D01*
X139538826Y-98299858D01*
X139540000Y-98323750D01*
X139540000Y-98811250D01*
X139538826Y-98835142D01*
X139535316Y-98858803D01*
X139529504Y-98882007D01*
X139521446Y-98904529D01*
X139511218Y-98926153D01*
X139498921Y-98946670D01*
X139484671Y-98965883D01*
X139468607Y-98983607D01*
X139450883Y-98999671D01*
X139431670Y-99013921D01*
X139411153Y-99026218D01*
X139389529Y-99036446D01*
X139367007Y-99044504D01*
X139343803Y-99050316D01*
X139320142Y-99053826D01*
X139296250Y-99055000D01*
X138383750Y-99055000D01*
X138359858Y-99053826D01*
X138336197Y-99050316D01*
X138312993Y-99044504D01*
X138290471Y-99036446D01*
X138268847Y-99026218D01*
X138248330Y-99013921D01*
X138229117Y-98999671D01*
X138211393Y-98983607D01*
X138195329Y-98965883D01*
X138181079Y-98946670D01*
X138168782Y-98926153D01*
X138158554Y-98904529D01*
X138150496Y-98882007D01*
X138144684Y-98858803D01*
X138141174Y-98835142D01*
X138140000Y-98811250D01*
X138140000Y-98323750D01*
X138141174Y-98299858D01*
X138144684Y-98276197D01*
X138150496Y-98252993D01*
X138158554Y-98230471D01*
X138168782Y-98208847D01*
X138181079Y-98188330D01*
X138195329Y-98169117D01*
X138211393Y-98151393D01*
X138229117Y-98135329D01*
X138248330Y-98121079D01*
X138268847Y-98108782D01*
X138290471Y-98098554D01*
X138312993Y-98090496D01*
X138336197Y-98084684D01*
X138359858Y-98081174D01*
X138383750Y-98080000D01*
X139296250Y-98080000D01*
X139320142Y-98081174D01*
X139320142Y-98081174D01*
G37*
D13*
X138840000Y-98567500D03*
G04 #@! TD*
D12*
G04 #@! TO.C,R18*
G36*
X124442784Y-109052587D02*
X124466445Y-109056097D01*
X124489649Y-109061909D01*
X124512171Y-109069967D01*
X124533795Y-109080195D01*
X124554312Y-109092492D01*
X124573525Y-109106742D01*
X124591249Y-109122806D01*
X124607313Y-109140530D01*
X124621563Y-109159743D01*
X124633860Y-109180260D01*
X124644088Y-109201884D01*
X124652146Y-109224406D01*
X124657958Y-109247610D01*
X124661468Y-109271271D01*
X124662642Y-109295163D01*
X124662642Y-110207663D01*
X124661468Y-110231555D01*
X124657958Y-110255216D01*
X124652146Y-110278420D01*
X124644088Y-110300942D01*
X124633860Y-110322566D01*
X124621563Y-110343083D01*
X124607313Y-110362296D01*
X124591249Y-110380020D01*
X124573525Y-110396084D01*
X124554312Y-110410334D01*
X124533795Y-110422631D01*
X124512171Y-110432859D01*
X124489649Y-110440917D01*
X124466445Y-110446729D01*
X124442784Y-110450239D01*
X124418892Y-110451413D01*
X123931392Y-110451413D01*
X123907500Y-110450239D01*
X123883839Y-110446729D01*
X123860635Y-110440917D01*
X123838113Y-110432859D01*
X123816489Y-110422631D01*
X123795972Y-110410334D01*
X123776759Y-110396084D01*
X123759035Y-110380020D01*
X123742971Y-110362296D01*
X123728721Y-110343083D01*
X123716424Y-110322566D01*
X123706196Y-110300942D01*
X123698138Y-110278420D01*
X123692326Y-110255216D01*
X123688816Y-110231555D01*
X123687642Y-110207663D01*
X123687642Y-109295163D01*
X123688816Y-109271271D01*
X123692326Y-109247610D01*
X123698138Y-109224406D01*
X123706196Y-109201884D01*
X123716424Y-109180260D01*
X123728721Y-109159743D01*
X123742971Y-109140530D01*
X123759035Y-109122806D01*
X123776759Y-109106742D01*
X123795972Y-109092492D01*
X123816489Y-109080195D01*
X123838113Y-109069967D01*
X123860635Y-109061909D01*
X123883839Y-109056097D01*
X123907500Y-109052587D01*
X123931392Y-109051413D01*
X124418892Y-109051413D01*
X124442784Y-109052587D01*
X124442784Y-109052587D01*
G37*
D13*
X124175142Y-109751413D03*
D12*
G36*
X126317784Y-109052587D02*
X126341445Y-109056097D01*
X126364649Y-109061909D01*
X126387171Y-109069967D01*
X126408795Y-109080195D01*
X126429312Y-109092492D01*
X126448525Y-109106742D01*
X126466249Y-109122806D01*
X126482313Y-109140530D01*
X126496563Y-109159743D01*
X126508860Y-109180260D01*
X126519088Y-109201884D01*
X126527146Y-109224406D01*
X126532958Y-109247610D01*
X126536468Y-109271271D01*
X126537642Y-109295163D01*
X126537642Y-110207663D01*
X126536468Y-110231555D01*
X126532958Y-110255216D01*
X126527146Y-110278420D01*
X126519088Y-110300942D01*
X126508860Y-110322566D01*
X126496563Y-110343083D01*
X126482313Y-110362296D01*
X126466249Y-110380020D01*
X126448525Y-110396084D01*
X126429312Y-110410334D01*
X126408795Y-110422631D01*
X126387171Y-110432859D01*
X126364649Y-110440917D01*
X126341445Y-110446729D01*
X126317784Y-110450239D01*
X126293892Y-110451413D01*
X125806392Y-110451413D01*
X125782500Y-110450239D01*
X125758839Y-110446729D01*
X125735635Y-110440917D01*
X125713113Y-110432859D01*
X125691489Y-110422631D01*
X125670972Y-110410334D01*
X125651759Y-110396084D01*
X125634035Y-110380020D01*
X125617971Y-110362296D01*
X125603721Y-110343083D01*
X125591424Y-110322566D01*
X125581196Y-110300942D01*
X125573138Y-110278420D01*
X125567326Y-110255216D01*
X125563816Y-110231555D01*
X125562642Y-110207663D01*
X125562642Y-109295163D01*
X125563816Y-109271271D01*
X125567326Y-109247610D01*
X125573138Y-109224406D01*
X125581196Y-109201884D01*
X125591424Y-109180260D01*
X125603721Y-109159743D01*
X125617971Y-109140530D01*
X125634035Y-109122806D01*
X125651759Y-109106742D01*
X125670972Y-109092492D01*
X125691489Y-109080195D01*
X125713113Y-109069967D01*
X125735635Y-109061909D01*
X125758839Y-109056097D01*
X125782500Y-109052587D01*
X125806392Y-109051413D01*
X126293892Y-109051413D01*
X126317784Y-109052587D01*
X126317784Y-109052587D01*
G37*
D13*
X126050142Y-109751413D03*
G04 #@! TD*
D12*
G04 #@! TO.C,R19*
G36*
X133600142Y-98001174D02*
X133623803Y-98004684D01*
X133647007Y-98010496D01*
X133669529Y-98018554D01*
X133691153Y-98028782D01*
X133711670Y-98041079D01*
X133730883Y-98055329D01*
X133748607Y-98071393D01*
X133764671Y-98089117D01*
X133778921Y-98108330D01*
X133791218Y-98128847D01*
X133801446Y-98150471D01*
X133809504Y-98172993D01*
X133815316Y-98196197D01*
X133818826Y-98219858D01*
X133820000Y-98243750D01*
X133820000Y-98731250D01*
X133818826Y-98755142D01*
X133815316Y-98778803D01*
X133809504Y-98802007D01*
X133801446Y-98824529D01*
X133791218Y-98846153D01*
X133778921Y-98866670D01*
X133764671Y-98885883D01*
X133748607Y-98903607D01*
X133730883Y-98919671D01*
X133711670Y-98933921D01*
X133691153Y-98946218D01*
X133669529Y-98956446D01*
X133647007Y-98964504D01*
X133623803Y-98970316D01*
X133600142Y-98973826D01*
X133576250Y-98975000D01*
X132663750Y-98975000D01*
X132639858Y-98973826D01*
X132616197Y-98970316D01*
X132592993Y-98964504D01*
X132570471Y-98956446D01*
X132548847Y-98946218D01*
X132528330Y-98933921D01*
X132509117Y-98919671D01*
X132491393Y-98903607D01*
X132475329Y-98885883D01*
X132461079Y-98866670D01*
X132448782Y-98846153D01*
X132438554Y-98824529D01*
X132430496Y-98802007D01*
X132424684Y-98778803D01*
X132421174Y-98755142D01*
X132420000Y-98731250D01*
X132420000Y-98243750D01*
X132421174Y-98219858D01*
X132424684Y-98196197D01*
X132430496Y-98172993D01*
X132438554Y-98150471D01*
X132448782Y-98128847D01*
X132461079Y-98108330D01*
X132475329Y-98089117D01*
X132491393Y-98071393D01*
X132509117Y-98055329D01*
X132528330Y-98041079D01*
X132548847Y-98028782D01*
X132570471Y-98018554D01*
X132592993Y-98010496D01*
X132616197Y-98004684D01*
X132639858Y-98001174D01*
X132663750Y-98000000D01*
X133576250Y-98000000D01*
X133600142Y-98001174D01*
X133600142Y-98001174D01*
G37*
D13*
X133120000Y-98487500D03*
D12*
G36*
X133600142Y-96126174D02*
X133623803Y-96129684D01*
X133647007Y-96135496D01*
X133669529Y-96143554D01*
X133691153Y-96153782D01*
X133711670Y-96166079D01*
X133730883Y-96180329D01*
X133748607Y-96196393D01*
X133764671Y-96214117D01*
X133778921Y-96233330D01*
X133791218Y-96253847D01*
X133801446Y-96275471D01*
X133809504Y-96297993D01*
X133815316Y-96321197D01*
X133818826Y-96344858D01*
X133820000Y-96368750D01*
X133820000Y-96856250D01*
X133818826Y-96880142D01*
X133815316Y-96903803D01*
X133809504Y-96927007D01*
X133801446Y-96949529D01*
X133791218Y-96971153D01*
X133778921Y-96991670D01*
X133764671Y-97010883D01*
X133748607Y-97028607D01*
X133730883Y-97044671D01*
X133711670Y-97058921D01*
X133691153Y-97071218D01*
X133669529Y-97081446D01*
X133647007Y-97089504D01*
X133623803Y-97095316D01*
X133600142Y-97098826D01*
X133576250Y-97100000D01*
X132663750Y-97100000D01*
X132639858Y-97098826D01*
X132616197Y-97095316D01*
X132592993Y-97089504D01*
X132570471Y-97081446D01*
X132548847Y-97071218D01*
X132528330Y-97058921D01*
X132509117Y-97044671D01*
X132491393Y-97028607D01*
X132475329Y-97010883D01*
X132461079Y-96991670D01*
X132448782Y-96971153D01*
X132438554Y-96949529D01*
X132430496Y-96927007D01*
X132424684Y-96903803D01*
X132421174Y-96880142D01*
X132420000Y-96856250D01*
X132420000Y-96368750D01*
X132421174Y-96344858D01*
X132424684Y-96321197D01*
X132430496Y-96297993D01*
X132438554Y-96275471D01*
X132448782Y-96253847D01*
X132461079Y-96233330D01*
X132475329Y-96214117D01*
X132491393Y-96196393D01*
X132509117Y-96180329D01*
X132528330Y-96166079D01*
X132548847Y-96153782D01*
X132570471Y-96143554D01*
X132592993Y-96135496D01*
X132616197Y-96129684D01*
X132639858Y-96126174D01*
X132663750Y-96125000D01*
X133576250Y-96125000D01*
X133600142Y-96126174D01*
X133600142Y-96126174D01*
G37*
D13*
X133120000Y-96612500D03*
G04 #@! TD*
D12*
G04 #@! TO.C,R21*
G36*
X190205142Y-78051174D02*
X190228803Y-78054684D01*
X190252007Y-78060496D01*
X190274529Y-78068554D01*
X190296153Y-78078782D01*
X190316670Y-78091079D01*
X190335883Y-78105329D01*
X190353607Y-78121393D01*
X190369671Y-78139117D01*
X190383921Y-78158330D01*
X190396218Y-78178847D01*
X190406446Y-78200471D01*
X190414504Y-78222993D01*
X190420316Y-78246197D01*
X190423826Y-78269858D01*
X190425000Y-78293750D01*
X190425000Y-79206250D01*
X190423826Y-79230142D01*
X190420316Y-79253803D01*
X190414504Y-79277007D01*
X190406446Y-79299529D01*
X190396218Y-79321153D01*
X190383921Y-79341670D01*
X190369671Y-79360883D01*
X190353607Y-79378607D01*
X190335883Y-79394671D01*
X190316670Y-79408921D01*
X190296153Y-79421218D01*
X190274529Y-79431446D01*
X190252007Y-79439504D01*
X190228803Y-79445316D01*
X190205142Y-79448826D01*
X190181250Y-79450000D01*
X189693750Y-79450000D01*
X189669858Y-79448826D01*
X189646197Y-79445316D01*
X189622993Y-79439504D01*
X189600471Y-79431446D01*
X189578847Y-79421218D01*
X189558330Y-79408921D01*
X189539117Y-79394671D01*
X189521393Y-79378607D01*
X189505329Y-79360883D01*
X189491079Y-79341670D01*
X189478782Y-79321153D01*
X189468554Y-79299529D01*
X189460496Y-79277007D01*
X189454684Y-79253803D01*
X189451174Y-79230142D01*
X189450000Y-79206250D01*
X189450000Y-78293750D01*
X189451174Y-78269858D01*
X189454684Y-78246197D01*
X189460496Y-78222993D01*
X189468554Y-78200471D01*
X189478782Y-78178847D01*
X189491079Y-78158330D01*
X189505329Y-78139117D01*
X189521393Y-78121393D01*
X189539117Y-78105329D01*
X189558330Y-78091079D01*
X189578847Y-78078782D01*
X189600471Y-78068554D01*
X189622993Y-78060496D01*
X189646197Y-78054684D01*
X189669858Y-78051174D01*
X189693750Y-78050000D01*
X190181250Y-78050000D01*
X190205142Y-78051174D01*
X190205142Y-78051174D01*
G37*
D13*
X189937500Y-78750000D03*
D12*
G36*
X188330142Y-78051174D02*
X188353803Y-78054684D01*
X188377007Y-78060496D01*
X188399529Y-78068554D01*
X188421153Y-78078782D01*
X188441670Y-78091079D01*
X188460883Y-78105329D01*
X188478607Y-78121393D01*
X188494671Y-78139117D01*
X188508921Y-78158330D01*
X188521218Y-78178847D01*
X188531446Y-78200471D01*
X188539504Y-78222993D01*
X188545316Y-78246197D01*
X188548826Y-78269858D01*
X188550000Y-78293750D01*
X188550000Y-79206250D01*
X188548826Y-79230142D01*
X188545316Y-79253803D01*
X188539504Y-79277007D01*
X188531446Y-79299529D01*
X188521218Y-79321153D01*
X188508921Y-79341670D01*
X188494671Y-79360883D01*
X188478607Y-79378607D01*
X188460883Y-79394671D01*
X188441670Y-79408921D01*
X188421153Y-79421218D01*
X188399529Y-79431446D01*
X188377007Y-79439504D01*
X188353803Y-79445316D01*
X188330142Y-79448826D01*
X188306250Y-79450000D01*
X187818750Y-79450000D01*
X187794858Y-79448826D01*
X187771197Y-79445316D01*
X187747993Y-79439504D01*
X187725471Y-79431446D01*
X187703847Y-79421218D01*
X187683330Y-79408921D01*
X187664117Y-79394671D01*
X187646393Y-79378607D01*
X187630329Y-79360883D01*
X187616079Y-79341670D01*
X187603782Y-79321153D01*
X187593554Y-79299529D01*
X187585496Y-79277007D01*
X187579684Y-79253803D01*
X187576174Y-79230142D01*
X187575000Y-79206250D01*
X187575000Y-78293750D01*
X187576174Y-78269858D01*
X187579684Y-78246197D01*
X187585496Y-78222993D01*
X187593554Y-78200471D01*
X187603782Y-78178847D01*
X187616079Y-78158330D01*
X187630329Y-78139117D01*
X187646393Y-78121393D01*
X187664117Y-78105329D01*
X187683330Y-78091079D01*
X187703847Y-78078782D01*
X187725471Y-78068554D01*
X187747993Y-78060496D01*
X187771197Y-78054684D01*
X187794858Y-78051174D01*
X187818750Y-78050000D01*
X188306250Y-78050000D01*
X188330142Y-78051174D01*
X188330142Y-78051174D01*
G37*
D13*
X188062500Y-78750000D03*
G04 #@! TD*
D12*
G04 #@! TO.C,R24*
G36*
X182205142Y-78051174D02*
X182228803Y-78054684D01*
X182252007Y-78060496D01*
X182274529Y-78068554D01*
X182296153Y-78078782D01*
X182316670Y-78091079D01*
X182335883Y-78105329D01*
X182353607Y-78121393D01*
X182369671Y-78139117D01*
X182383921Y-78158330D01*
X182396218Y-78178847D01*
X182406446Y-78200471D01*
X182414504Y-78222993D01*
X182420316Y-78246197D01*
X182423826Y-78269858D01*
X182425000Y-78293750D01*
X182425000Y-79206250D01*
X182423826Y-79230142D01*
X182420316Y-79253803D01*
X182414504Y-79277007D01*
X182406446Y-79299529D01*
X182396218Y-79321153D01*
X182383921Y-79341670D01*
X182369671Y-79360883D01*
X182353607Y-79378607D01*
X182335883Y-79394671D01*
X182316670Y-79408921D01*
X182296153Y-79421218D01*
X182274529Y-79431446D01*
X182252007Y-79439504D01*
X182228803Y-79445316D01*
X182205142Y-79448826D01*
X182181250Y-79450000D01*
X181693750Y-79450000D01*
X181669858Y-79448826D01*
X181646197Y-79445316D01*
X181622993Y-79439504D01*
X181600471Y-79431446D01*
X181578847Y-79421218D01*
X181558330Y-79408921D01*
X181539117Y-79394671D01*
X181521393Y-79378607D01*
X181505329Y-79360883D01*
X181491079Y-79341670D01*
X181478782Y-79321153D01*
X181468554Y-79299529D01*
X181460496Y-79277007D01*
X181454684Y-79253803D01*
X181451174Y-79230142D01*
X181450000Y-79206250D01*
X181450000Y-78293750D01*
X181451174Y-78269858D01*
X181454684Y-78246197D01*
X181460496Y-78222993D01*
X181468554Y-78200471D01*
X181478782Y-78178847D01*
X181491079Y-78158330D01*
X181505329Y-78139117D01*
X181521393Y-78121393D01*
X181539117Y-78105329D01*
X181558330Y-78091079D01*
X181578847Y-78078782D01*
X181600471Y-78068554D01*
X181622993Y-78060496D01*
X181646197Y-78054684D01*
X181669858Y-78051174D01*
X181693750Y-78050000D01*
X182181250Y-78050000D01*
X182205142Y-78051174D01*
X182205142Y-78051174D01*
G37*
D13*
X181937500Y-78750000D03*
D12*
G36*
X180330142Y-78051174D02*
X180353803Y-78054684D01*
X180377007Y-78060496D01*
X180399529Y-78068554D01*
X180421153Y-78078782D01*
X180441670Y-78091079D01*
X180460883Y-78105329D01*
X180478607Y-78121393D01*
X180494671Y-78139117D01*
X180508921Y-78158330D01*
X180521218Y-78178847D01*
X180531446Y-78200471D01*
X180539504Y-78222993D01*
X180545316Y-78246197D01*
X180548826Y-78269858D01*
X180550000Y-78293750D01*
X180550000Y-79206250D01*
X180548826Y-79230142D01*
X180545316Y-79253803D01*
X180539504Y-79277007D01*
X180531446Y-79299529D01*
X180521218Y-79321153D01*
X180508921Y-79341670D01*
X180494671Y-79360883D01*
X180478607Y-79378607D01*
X180460883Y-79394671D01*
X180441670Y-79408921D01*
X180421153Y-79421218D01*
X180399529Y-79431446D01*
X180377007Y-79439504D01*
X180353803Y-79445316D01*
X180330142Y-79448826D01*
X180306250Y-79450000D01*
X179818750Y-79450000D01*
X179794858Y-79448826D01*
X179771197Y-79445316D01*
X179747993Y-79439504D01*
X179725471Y-79431446D01*
X179703847Y-79421218D01*
X179683330Y-79408921D01*
X179664117Y-79394671D01*
X179646393Y-79378607D01*
X179630329Y-79360883D01*
X179616079Y-79341670D01*
X179603782Y-79321153D01*
X179593554Y-79299529D01*
X179585496Y-79277007D01*
X179579684Y-79253803D01*
X179576174Y-79230142D01*
X179575000Y-79206250D01*
X179575000Y-78293750D01*
X179576174Y-78269858D01*
X179579684Y-78246197D01*
X179585496Y-78222993D01*
X179593554Y-78200471D01*
X179603782Y-78178847D01*
X179616079Y-78158330D01*
X179630329Y-78139117D01*
X179646393Y-78121393D01*
X179664117Y-78105329D01*
X179683330Y-78091079D01*
X179703847Y-78078782D01*
X179725471Y-78068554D01*
X179747993Y-78060496D01*
X179771197Y-78054684D01*
X179794858Y-78051174D01*
X179818750Y-78050000D01*
X180306250Y-78050000D01*
X180330142Y-78051174D01*
X180330142Y-78051174D01*
G37*
D13*
X180062500Y-78750000D03*
G04 #@! TD*
D12*
G04 #@! TO.C,R25*
G36*
X186205142Y-78051174D02*
X186228803Y-78054684D01*
X186252007Y-78060496D01*
X186274529Y-78068554D01*
X186296153Y-78078782D01*
X186316670Y-78091079D01*
X186335883Y-78105329D01*
X186353607Y-78121393D01*
X186369671Y-78139117D01*
X186383921Y-78158330D01*
X186396218Y-78178847D01*
X186406446Y-78200471D01*
X186414504Y-78222993D01*
X186420316Y-78246197D01*
X186423826Y-78269858D01*
X186425000Y-78293750D01*
X186425000Y-79206250D01*
X186423826Y-79230142D01*
X186420316Y-79253803D01*
X186414504Y-79277007D01*
X186406446Y-79299529D01*
X186396218Y-79321153D01*
X186383921Y-79341670D01*
X186369671Y-79360883D01*
X186353607Y-79378607D01*
X186335883Y-79394671D01*
X186316670Y-79408921D01*
X186296153Y-79421218D01*
X186274529Y-79431446D01*
X186252007Y-79439504D01*
X186228803Y-79445316D01*
X186205142Y-79448826D01*
X186181250Y-79450000D01*
X185693750Y-79450000D01*
X185669858Y-79448826D01*
X185646197Y-79445316D01*
X185622993Y-79439504D01*
X185600471Y-79431446D01*
X185578847Y-79421218D01*
X185558330Y-79408921D01*
X185539117Y-79394671D01*
X185521393Y-79378607D01*
X185505329Y-79360883D01*
X185491079Y-79341670D01*
X185478782Y-79321153D01*
X185468554Y-79299529D01*
X185460496Y-79277007D01*
X185454684Y-79253803D01*
X185451174Y-79230142D01*
X185450000Y-79206250D01*
X185450000Y-78293750D01*
X185451174Y-78269858D01*
X185454684Y-78246197D01*
X185460496Y-78222993D01*
X185468554Y-78200471D01*
X185478782Y-78178847D01*
X185491079Y-78158330D01*
X185505329Y-78139117D01*
X185521393Y-78121393D01*
X185539117Y-78105329D01*
X185558330Y-78091079D01*
X185578847Y-78078782D01*
X185600471Y-78068554D01*
X185622993Y-78060496D01*
X185646197Y-78054684D01*
X185669858Y-78051174D01*
X185693750Y-78050000D01*
X186181250Y-78050000D01*
X186205142Y-78051174D01*
X186205142Y-78051174D01*
G37*
D13*
X185937500Y-78750000D03*
D12*
G36*
X184330142Y-78051174D02*
X184353803Y-78054684D01*
X184377007Y-78060496D01*
X184399529Y-78068554D01*
X184421153Y-78078782D01*
X184441670Y-78091079D01*
X184460883Y-78105329D01*
X184478607Y-78121393D01*
X184494671Y-78139117D01*
X184508921Y-78158330D01*
X184521218Y-78178847D01*
X184531446Y-78200471D01*
X184539504Y-78222993D01*
X184545316Y-78246197D01*
X184548826Y-78269858D01*
X184550000Y-78293750D01*
X184550000Y-79206250D01*
X184548826Y-79230142D01*
X184545316Y-79253803D01*
X184539504Y-79277007D01*
X184531446Y-79299529D01*
X184521218Y-79321153D01*
X184508921Y-79341670D01*
X184494671Y-79360883D01*
X184478607Y-79378607D01*
X184460883Y-79394671D01*
X184441670Y-79408921D01*
X184421153Y-79421218D01*
X184399529Y-79431446D01*
X184377007Y-79439504D01*
X184353803Y-79445316D01*
X184330142Y-79448826D01*
X184306250Y-79450000D01*
X183818750Y-79450000D01*
X183794858Y-79448826D01*
X183771197Y-79445316D01*
X183747993Y-79439504D01*
X183725471Y-79431446D01*
X183703847Y-79421218D01*
X183683330Y-79408921D01*
X183664117Y-79394671D01*
X183646393Y-79378607D01*
X183630329Y-79360883D01*
X183616079Y-79341670D01*
X183603782Y-79321153D01*
X183593554Y-79299529D01*
X183585496Y-79277007D01*
X183579684Y-79253803D01*
X183576174Y-79230142D01*
X183575000Y-79206250D01*
X183575000Y-78293750D01*
X183576174Y-78269858D01*
X183579684Y-78246197D01*
X183585496Y-78222993D01*
X183593554Y-78200471D01*
X183603782Y-78178847D01*
X183616079Y-78158330D01*
X183630329Y-78139117D01*
X183646393Y-78121393D01*
X183664117Y-78105329D01*
X183683330Y-78091079D01*
X183703847Y-78078782D01*
X183725471Y-78068554D01*
X183747993Y-78060496D01*
X183771197Y-78054684D01*
X183794858Y-78051174D01*
X183818750Y-78050000D01*
X184306250Y-78050000D01*
X184330142Y-78051174D01*
X184330142Y-78051174D01*
G37*
D13*
X184062500Y-78750000D03*
G04 #@! TD*
D12*
G04 #@! TO.C,R26*
G36*
X172330142Y-78051174D02*
X172353803Y-78054684D01*
X172377007Y-78060496D01*
X172399529Y-78068554D01*
X172421153Y-78078782D01*
X172441670Y-78091079D01*
X172460883Y-78105329D01*
X172478607Y-78121393D01*
X172494671Y-78139117D01*
X172508921Y-78158330D01*
X172521218Y-78178847D01*
X172531446Y-78200471D01*
X172539504Y-78222993D01*
X172545316Y-78246197D01*
X172548826Y-78269858D01*
X172550000Y-78293750D01*
X172550000Y-79206250D01*
X172548826Y-79230142D01*
X172545316Y-79253803D01*
X172539504Y-79277007D01*
X172531446Y-79299529D01*
X172521218Y-79321153D01*
X172508921Y-79341670D01*
X172494671Y-79360883D01*
X172478607Y-79378607D01*
X172460883Y-79394671D01*
X172441670Y-79408921D01*
X172421153Y-79421218D01*
X172399529Y-79431446D01*
X172377007Y-79439504D01*
X172353803Y-79445316D01*
X172330142Y-79448826D01*
X172306250Y-79450000D01*
X171818750Y-79450000D01*
X171794858Y-79448826D01*
X171771197Y-79445316D01*
X171747993Y-79439504D01*
X171725471Y-79431446D01*
X171703847Y-79421218D01*
X171683330Y-79408921D01*
X171664117Y-79394671D01*
X171646393Y-79378607D01*
X171630329Y-79360883D01*
X171616079Y-79341670D01*
X171603782Y-79321153D01*
X171593554Y-79299529D01*
X171585496Y-79277007D01*
X171579684Y-79253803D01*
X171576174Y-79230142D01*
X171575000Y-79206250D01*
X171575000Y-78293750D01*
X171576174Y-78269858D01*
X171579684Y-78246197D01*
X171585496Y-78222993D01*
X171593554Y-78200471D01*
X171603782Y-78178847D01*
X171616079Y-78158330D01*
X171630329Y-78139117D01*
X171646393Y-78121393D01*
X171664117Y-78105329D01*
X171683330Y-78091079D01*
X171703847Y-78078782D01*
X171725471Y-78068554D01*
X171747993Y-78060496D01*
X171771197Y-78054684D01*
X171794858Y-78051174D01*
X171818750Y-78050000D01*
X172306250Y-78050000D01*
X172330142Y-78051174D01*
X172330142Y-78051174D01*
G37*
D13*
X172062500Y-78750000D03*
D12*
G36*
X174205142Y-78051174D02*
X174228803Y-78054684D01*
X174252007Y-78060496D01*
X174274529Y-78068554D01*
X174296153Y-78078782D01*
X174316670Y-78091079D01*
X174335883Y-78105329D01*
X174353607Y-78121393D01*
X174369671Y-78139117D01*
X174383921Y-78158330D01*
X174396218Y-78178847D01*
X174406446Y-78200471D01*
X174414504Y-78222993D01*
X174420316Y-78246197D01*
X174423826Y-78269858D01*
X174425000Y-78293750D01*
X174425000Y-79206250D01*
X174423826Y-79230142D01*
X174420316Y-79253803D01*
X174414504Y-79277007D01*
X174406446Y-79299529D01*
X174396218Y-79321153D01*
X174383921Y-79341670D01*
X174369671Y-79360883D01*
X174353607Y-79378607D01*
X174335883Y-79394671D01*
X174316670Y-79408921D01*
X174296153Y-79421218D01*
X174274529Y-79431446D01*
X174252007Y-79439504D01*
X174228803Y-79445316D01*
X174205142Y-79448826D01*
X174181250Y-79450000D01*
X173693750Y-79450000D01*
X173669858Y-79448826D01*
X173646197Y-79445316D01*
X173622993Y-79439504D01*
X173600471Y-79431446D01*
X173578847Y-79421218D01*
X173558330Y-79408921D01*
X173539117Y-79394671D01*
X173521393Y-79378607D01*
X173505329Y-79360883D01*
X173491079Y-79341670D01*
X173478782Y-79321153D01*
X173468554Y-79299529D01*
X173460496Y-79277007D01*
X173454684Y-79253803D01*
X173451174Y-79230142D01*
X173450000Y-79206250D01*
X173450000Y-78293750D01*
X173451174Y-78269858D01*
X173454684Y-78246197D01*
X173460496Y-78222993D01*
X173468554Y-78200471D01*
X173478782Y-78178847D01*
X173491079Y-78158330D01*
X173505329Y-78139117D01*
X173521393Y-78121393D01*
X173539117Y-78105329D01*
X173558330Y-78091079D01*
X173578847Y-78078782D01*
X173600471Y-78068554D01*
X173622993Y-78060496D01*
X173646197Y-78054684D01*
X173669858Y-78051174D01*
X173693750Y-78050000D01*
X174181250Y-78050000D01*
X174205142Y-78051174D01*
X174205142Y-78051174D01*
G37*
D13*
X173937500Y-78750000D03*
G04 #@! TD*
D12*
G04 #@! TO.C,R27*
G36*
X176330142Y-78051174D02*
X176353803Y-78054684D01*
X176377007Y-78060496D01*
X176399529Y-78068554D01*
X176421153Y-78078782D01*
X176441670Y-78091079D01*
X176460883Y-78105329D01*
X176478607Y-78121393D01*
X176494671Y-78139117D01*
X176508921Y-78158330D01*
X176521218Y-78178847D01*
X176531446Y-78200471D01*
X176539504Y-78222993D01*
X176545316Y-78246197D01*
X176548826Y-78269858D01*
X176550000Y-78293750D01*
X176550000Y-79206250D01*
X176548826Y-79230142D01*
X176545316Y-79253803D01*
X176539504Y-79277007D01*
X176531446Y-79299529D01*
X176521218Y-79321153D01*
X176508921Y-79341670D01*
X176494671Y-79360883D01*
X176478607Y-79378607D01*
X176460883Y-79394671D01*
X176441670Y-79408921D01*
X176421153Y-79421218D01*
X176399529Y-79431446D01*
X176377007Y-79439504D01*
X176353803Y-79445316D01*
X176330142Y-79448826D01*
X176306250Y-79450000D01*
X175818750Y-79450000D01*
X175794858Y-79448826D01*
X175771197Y-79445316D01*
X175747993Y-79439504D01*
X175725471Y-79431446D01*
X175703847Y-79421218D01*
X175683330Y-79408921D01*
X175664117Y-79394671D01*
X175646393Y-79378607D01*
X175630329Y-79360883D01*
X175616079Y-79341670D01*
X175603782Y-79321153D01*
X175593554Y-79299529D01*
X175585496Y-79277007D01*
X175579684Y-79253803D01*
X175576174Y-79230142D01*
X175575000Y-79206250D01*
X175575000Y-78293750D01*
X175576174Y-78269858D01*
X175579684Y-78246197D01*
X175585496Y-78222993D01*
X175593554Y-78200471D01*
X175603782Y-78178847D01*
X175616079Y-78158330D01*
X175630329Y-78139117D01*
X175646393Y-78121393D01*
X175664117Y-78105329D01*
X175683330Y-78091079D01*
X175703847Y-78078782D01*
X175725471Y-78068554D01*
X175747993Y-78060496D01*
X175771197Y-78054684D01*
X175794858Y-78051174D01*
X175818750Y-78050000D01*
X176306250Y-78050000D01*
X176330142Y-78051174D01*
X176330142Y-78051174D01*
G37*
D13*
X176062500Y-78750000D03*
D12*
G36*
X178205142Y-78051174D02*
X178228803Y-78054684D01*
X178252007Y-78060496D01*
X178274529Y-78068554D01*
X178296153Y-78078782D01*
X178316670Y-78091079D01*
X178335883Y-78105329D01*
X178353607Y-78121393D01*
X178369671Y-78139117D01*
X178383921Y-78158330D01*
X178396218Y-78178847D01*
X178406446Y-78200471D01*
X178414504Y-78222993D01*
X178420316Y-78246197D01*
X178423826Y-78269858D01*
X178425000Y-78293750D01*
X178425000Y-79206250D01*
X178423826Y-79230142D01*
X178420316Y-79253803D01*
X178414504Y-79277007D01*
X178406446Y-79299529D01*
X178396218Y-79321153D01*
X178383921Y-79341670D01*
X178369671Y-79360883D01*
X178353607Y-79378607D01*
X178335883Y-79394671D01*
X178316670Y-79408921D01*
X178296153Y-79421218D01*
X178274529Y-79431446D01*
X178252007Y-79439504D01*
X178228803Y-79445316D01*
X178205142Y-79448826D01*
X178181250Y-79450000D01*
X177693750Y-79450000D01*
X177669858Y-79448826D01*
X177646197Y-79445316D01*
X177622993Y-79439504D01*
X177600471Y-79431446D01*
X177578847Y-79421218D01*
X177558330Y-79408921D01*
X177539117Y-79394671D01*
X177521393Y-79378607D01*
X177505329Y-79360883D01*
X177491079Y-79341670D01*
X177478782Y-79321153D01*
X177468554Y-79299529D01*
X177460496Y-79277007D01*
X177454684Y-79253803D01*
X177451174Y-79230142D01*
X177450000Y-79206250D01*
X177450000Y-78293750D01*
X177451174Y-78269858D01*
X177454684Y-78246197D01*
X177460496Y-78222993D01*
X177468554Y-78200471D01*
X177478782Y-78178847D01*
X177491079Y-78158330D01*
X177505329Y-78139117D01*
X177521393Y-78121393D01*
X177539117Y-78105329D01*
X177558330Y-78091079D01*
X177578847Y-78078782D01*
X177600471Y-78068554D01*
X177622993Y-78060496D01*
X177646197Y-78054684D01*
X177669858Y-78051174D01*
X177693750Y-78050000D01*
X178181250Y-78050000D01*
X178205142Y-78051174D01*
X178205142Y-78051174D01*
G37*
D13*
X177937500Y-78750000D03*
G04 #@! TD*
D21*
G04 #@! TO.C,D1*
X136902642Y-106351413D03*
X136902642Y-109151413D03*
G04 #@! TD*
D12*
G04 #@! TO.C,C7*
G36*
X140332146Y-112477617D02*
X140356415Y-112481217D01*
X140380213Y-112487178D01*
X140403313Y-112495443D01*
X140425491Y-112505933D01*
X140446535Y-112518546D01*
X140466240Y-112533160D01*
X140484419Y-112549636D01*
X140500895Y-112567815D01*
X140515509Y-112587520D01*
X140528122Y-112608564D01*
X140538612Y-112630742D01*
X140546877Y-112653842D01*
X140552838Y-112677640D01*
X140556438Y-112701909D01*
X140557642Y-112726413D01*
X140557642Y-113476413D01*
X140556438Y-113500917D01*
X140552838Y-113525186D01*
X140546877Y-113548984D01*
X140538612Y-113572084D01*
X140528122Y-113594262D01*
X140515509Y-113615306D01*
X140500895Y-113635011D01*
X140484419Y-113653190D01*
X140466240Y-113669666D01*
X140446535Y-113684280D01*
X140425491Y-113696893D01*
X140403313Y-113707383D01*
X140380213Y-113715648D01*
X140356415Y-113721609D01*
X140332146Y-113725209D01*
X140307642Y-113726413D01*
X139057642Y-113726413D01*
X139033138Y-113725209D01*
X139008869Y-113721609D01*
X138985071Y-113715648D01*
X138961971Y-113707383D01*
X138939793Y-113696893D01*
X138918749Y-113684280D01*
X138899044Y-113669666D01*
X138880865Y-113653190D01*
X138864389Y-113635011D01*
X138849775Y-113615306D01*
X138837162Y-113594262D01*
X138826672Y-113572084D01*
X138818407Y-113548984D01*
X138812446Y-113525186D01*
X138808846Y-113500917D01*
X138807642Y-113476413D01*
X138807642Y-112726413D01*
X138808846Y-112701909D01*
X138812446Y-112677640D01*
X138818407Y-112653842D01*
X138826672Y-112630742D01*
X138837162Y-112608564D01*
X138849775Y-112587520D01*
X138864389Y-112567815D01*
X138880865Y-112549636D01*
X138899044Y-112533160D01*
X138918749Y-112518546D01*
X138939793Y-112505933D01*
X138961971Y-112495443D01*
X138985071Y-112487178D01*
X139008869Y-112481217D01*
X139033138Y-112477617D01*
X139057642Y-112476413D01*
X140307642Y-112476413D01*
X140332146Y-112477617D01*
X140332146Y-112477617D01*
G37*
D18*
X139682642Y-113101413D03*
D12*
G36*
X140332146Y-109677617D02*
X140356415Y-109681217D01*
X140380213Y-109687178D01*
X140403313Y-109695443D01*
X140425491Y-109705933D01*
X140446535Y-109718546D01*
X140466240Y-109733160D01*
X140484419Y-109749636D01*
X140500895Y-109767815D01*
X140515509Y-109787520D01*
X140528122Y-109808564D01*
X140538612Y-109830742D01*
X140546877Y-109853842D01*
X140552838Y-109877640D01*
X140556438Y-109901909D01*
X140557642Y-109926413D01*
X140557642Y-110676413D01*
X140556438Y-110700917D01*
X140552838Y-110725186D01*
X140546877Y-110748984D01*
X140538612Y-110772084D01*
X140528122Y-110794262D01*
X140515509Y-110815306D01*
X140500895Y-110835011D01*
X140484419Y-110853190D01*
X140466240Y-110869666D01*
X140446535Y-110884280D01*
X140425491Y-110896893D01*
X140403313Y-110907383D01*
X140380213Y-110915648D01*
X140356415Y-110921609D01*
X140332146Y-110925209D01*
X140307642Y-110926413D01*
X139057642Y-110926413D01*
X139033138Y-110925209D01*
X139008869Y-110921609D01*
X138985071Y-110915648D01*
X138961971Y-110907383D01*
X138939793Y-110896893D01*
X138918749Y-110884280D01*
X138899044Y-110869666D01*
X138880865Y-110853190D01*
X138864389Y-110835011D01*
X138849775Y-110815306D01*
X138837162Y-110794262D01*
X138826672Y-110772084D01*
X138818407Y-110748984D01*
X138812446Y-110725186D01*
X138808846Y-110700917D01*
X138807642Y-110676413D01*
X138807642Y-109926413D01*
X138808846Y-109901909D01*
X138812446Y-109877640D01*
X138818407Y-109853842D01*
X138826672Y-109830742D01*
X138837162Y-109808564D01*
X138849775Y-109787520D01*
X138864389Y-109767815D01*
X138880865Y-109749636D01*
X138899044Y-109733160D01*
X138918749Y-109718546D01*
X138939793Y-109705933D01*
X138961971Y-109695443D01*
X138985071Y-109687178D01*
X139008869Y-109681217D01*
X139033138Y-109677617D01*
X139057642Y-109676413D01*
X140307642Y-109676413D01*
X140332146Y-109677617D01*
X140332146Y-109677617D01*
G37*
D18*
X139682642Y-110301413D03*
G04 #@! TD*
D12*
G04 #@! TO.C,C8*
G36*
X160276051Y-88422389D02*
X160299712Y-88425899D01*
X160322916Y-88431711D01*
X160345438Y-88439769D01*
X160367062Y-88449997D01*
X160387579Y-88462294D01*
X160406792Y-88476544D01*
X160424516Y-88492608D01*
X160440580Y-88510332D01*
X160454830Y-88529545D01*
X160467127Y-88550062D01*
X160477355Y-88571686D01*
X160485413Y-88594208D01*
X160491225Y-88617412D01*
X160494735Y-88641073D01*
X160495909Y-88664965D01*
X160495909Y-89577465D01*
X160494735Y-89601357D01*
X160491225Y-89625018D01*
X160485413Y-89648222D01*
X160477355Y-89670744D01*
X160467127Y-89692368D01*
X160454830Y-89712885D01*
X160440580Y-89732098D01*
X160424516Y-89749822D01*
X160406792Y-89765886D01*
X160387579Y-89780136D01*
X160367062Y-89792433D01*
X160345438Y-89802661D01*
X160322916Y-89810719D01*
X160299712Y-89816531D01*
X160276051Y-89820041D01*
X160252159Y-89821215D01*
X159764659Y-89821215D01*
X159740767Y-89820041D01*
X159717106Y-89816531D01*
X159693902Y-89810719D01*
X159671380Y-89802661D01*
X159649756Y-89792433D01*
X159629239Y-89780136D01*
X159610026Y-89765886D01*
X159592302Y-89749822D01*
X159576238Y-89732098D01*
X159561988Y-89712885D01*
X159549691Y-89692368D01*
X159539463Y-89670744D01*
X159531405Y-89648222D01*
X159525593Y-89625018D01*
X159522083Y-89601357D01*
X159520909Y-89577465D01*
X159520909Y-88664965D01*
X159522083Y-88641073D01*
X159525593Y-88617412D01*
X159531405Y-88594208D01*
X159539463Y-88571686D01*
X159549691Y-88550062D01*
X159561988Y-88529545D01*
X159576238Y-88510332D01*
X159592302Y-88492608D01*
X159610026Y-88476544D01*
X159629239Y-88462294D01*
X159649756Y-88449997D01*
X159671380Y-88439769D01*
X159693902Y-88431711D01*
X159717106Y-88425899D01*
X159740767Y-88422389D01*
X159764659Y-88421215D01*
X160252159Y-88421215D01*
X160276051Y-88422389D01*
X160276051Y-88422389D01*
G37*
D13*
X160008409Y-89121215D03*
D12*
G36*
X162151051Y-88422389D02*
X162174712Y-88425899D01*
X162197916Y-88431711D01*
X162220438Y-88439769D01*
X162242062Y-88449997D01*
X162262579Y-88462294D01*
X162281792Y-88476544D01*
X162299516Y-88492608D01*
X162315580Y-88510332D01*
X162329830Y-88529545D01*
X162342127Y-88550062D01*
X162352355Y-88571686D01*
X162360413Y-88594208D01*
X162366225Y-88617412D01*
X162369735Y-88641073D01*
X162370909Y-88664965D01*
X162370909Y-89577465D01*
X162369735Y-89601357D01*
X162366225Y-89625018D01*
X162360413Y-89648222D01*
X162352355Y-89670744D01*
X162342127Y-89692368D01*
X162329830Y-89712885D01*
X162315580Y-89732098D01*
X162299516Y-89749822D01*
X162281792Y-89765886D01*
X162262579Y-89780136D01*
X162242062Y-89792433D01*
X162220438Y-89802661D01*
X162197916Y-89810719D01*
X162174712Y-89816531D01*
X162151051Y-89820041D01*
X162127159Y-89821215D01*
X161639659Y-89821215D01*
X161615767Y-89820041D01*
X161592106Y-89816531D01*
X161568902Y-89810719D01*
X161546380Y-89802661D01*
X161524756Y-89792433D01*
X161504239Y-89780136D01*
X161485026Y-89765886D01*
X161467302Y-89749822D01*
X161451238Y-89732098D01*
X161436988Y-89712885D01*
X161424691Y-89692368D01*
X161414463Y-89670744D01*
X161406405Y-89648222D01*
X161400593Y-89625018D01*
X161397083Y-89601357D01*
X161395909Y-89577465D01*
X161395909Y-88664965D01*
X161397083Y-88641073D01*
X161400593Y-88617412D01*
X161406405Y-88594208D01*
X161414463Y-88571686D01*
X161424691Y-88550062D01*
X161436988Y-88529545D01*
X161451238Y-88510332D01*
X161467302Y-88492608D01*
X161485026Y-88476544D01*
X161504239Y-88462294D01*
X161524756Y-88449997D01*
X161546380Y-88439769D01*
X161568902Y-88431711D01*
X161592106Y-88425899D01*
X161615767Y-88422389D01*
X161639659Y-88421215D01*
X162127159Y-88421215D01*
X162151051Y-88422389D01*
X162151051Y-88422389D01*
G37*
D13*
X161883409Y-89121215D03*
G04 #@! TD*
D12*
G04 #@! TO.C,D10*
G36*
X176330142Y-81801174D02*
X176353803Y-81804684D01*
X176377007Y-81810496D01*
X176399529Y-81818554D01*
X176421153Y-81828782D01*
X176441670Y-81841079D01*
X176460883Y-81855329D01*
X176478607Y-81871393D01*
X176494671Y-81889117D01*
X176508921Y-81908330D01*
X176521218Y-81928847D01*
X176531446Y-81950471D01*
X176539504Y-81972993D01*
X176545316Y-81996197D01*
X176548826Y-82019858D01*
X176550000Y-82043750D01*
X176550000Y-82956250D01*
X176548826Y-82980142D01*
X176545316Y-83003803D01*
X176539504Y-83027007D01*
X176531446Y-83049529D01*
X176521218Y-83071153D01*
X176508921Y-83091670D01*
X176494671Y-83110883D01*
X176478607Y-83128607D01*
X176460883Y-83144671D01*
X176441670Y-83158921D01*
X176421153Y-83171218D01*
X176399529Y-83181446D01*
X176377007Y-83189504D01*
X176353803Y-83195316D01*
X176330142Y-83198826D01*
X176306250Y-83200000D01*
X175818750Y-83200000D01*
X175794858Y-83198826D01*
X175771197Y-83195316D01*
X175747993Y-83189504D01*
X175725471Y-83181446D01*
X175703847Y-83171218D01*
X175683330Y-83158921D01*
X175664117Y-83144671D01*
X175646393Y-83128607D01*
X175630329Y-83110883D01*
X175616079Y-83091670D01*
X175603782Y-83071153D01*
X175593554Y-83049529D01*
X175585496Y-83027007D01*
X175579684Y-83003803D01*
X175576174Y-82980142D01*
X175575000Y-82956250D01*
X175575000Y-82043750D01*
X175576174Y-82019858D01*
X175579684Y-81996197D01*
X175585496Y-81972993D01*
X175593554Y-81950471D01*
X175603782Y-81928847D01*
X175616079Y-81908330D01*
X175630329Y-81889117D01*
X175646393Y-81871393D01*
X175664117Y-81855329D01*
X175683330Y-81841079D01*
X175703847Y-81828782D01*
X175725471Y-81818554D01*
X175747993Y-81810496D01*
X175771197Y-81804684D01*
X175794858Y-81801174D01*
X175818750Y-81800000D01*
X176306250Y-81800000D01*
X176330142Y-81801174D01*
X176330142Y-81801174D01*
G37*
D13*
X176062500Y-82500000D03*
D12*
G36*
X178205142Y-81801174D02*
X178228803Y-81804684D01*
X178252007Y-81810496D01*
X178274529Y-81818554D01*
X178296153Y-81828782D01*
X178316670Y-81841079D01*
X178335883Y-81855329D01*
X178353607Y-81871393D01*
X178369671Y-81889117D01*
X178383921Y-81908330D01*
X178396218Y-81928847D01*
X178406446Y-81950471D01*
X178414504Y-81972993D01*
X178420316Y-81996197D01*
X178423826Y-82019858D01*
X178425000Y-82043750D01*
X178425000Y-82956250D01*
X178423826Y-82980142D01*
X178420316Y-83003803D01*
X178414504Y-83027007D01*
X178406446Y-83049529D01*
X178396218Y-83071153D01*
X178383921Y-83091670D01*
X178369671Y-83110883D01*
X178353607Y-83128607D01*
X178335883Y-83144671D01*
X178316670Y-83158921D01*
X178296153Y-83171218D01*
X178274529Y-83181446D01*
X178252007Y-83189504D01*
X178228803Y-83195316D01*
X178205142Y-83198826D01*
X178181250Y-83200000D01*
X177693750Y-83200000D01*
X177669858Y-83198826D01*
X177646197Y-83195316D01*
X177622993Y-83189504D01*
X177600471Y-83181446D01*
X177578847Y-83171218D01*
X177558330Y-83158921D01*
X177539117Y-83144671D01*
X177521393Y-83128607D01*
X177505329Y-83110883D01*
X177491079Y-83091670D01*
X177478782Y-83071153D01*
X177468554Y-83049529D01*
X177460496Y-83027007D01*
X177454684Y-83003803D01*
X177451174Y-82980142D01*
X177450000Y-82956250D01*
X177450000Y-82043750D01*
X177451174Y-82019858D01*
X177454684Y-81996197D01*
X177460496Y-81972993D01*
X177468554Y-81950471D01*
X177478782Y-81928847D01*
X177491079Y-81908330D01*
X177505329Y-81889117D01*
X177521393Y-81871393D01*
X177539117Y-81855329D01*
X177558330Y-81841079D01*
X177578847Y-81828782D01*
X177600471Y-81818554D01*
X177622993Y-81810496D01*
X177646197Y-81804684D01*
X177669858Y-81801174D01*
X177693750Y-81800000D01*
X178181250Y-81800000D01*
X178205142Y-81801174D01*
X178205142Y-81801174D01*
G37*
D13*
X177937500Y-82500000D03*
G04 #@! TD*
D12*
G04 #@! TO.C,D11*
G36*
X108385142Y-117921174D02*
X108408803Y-117924684D01*
X108432007Y-117930496D01*
X108454529Y-117938554D01*
X108476153Y-117948782D01*
X108496670Y-117961079D01*
X108515883Y-117975329D01*
X108533607Y-117991393D01*
X108549671Y-118009117D01*
X108563921Y-118028330D01*
X108576218Y-118048847D01*
X108586446Y-118070471D01*
X108594504Y-118092993D01*
X108600316Y-118116197D01*
X108603826Y-118139858D01*
X108605000Y-118163750D01*
X108605000Y-119076250D01*
X108603826Y-119100142D01*
X108600316Y-119123803D01*
X108594504Y-119147007D01*
X108586446Y-119169529D01*
X108576218Y-119191153D01*
X108563921Y-119211670D01*
X108549671Y-119230883D01*
X108533607Y-119248607D01*
X108515883Y-119264671D01*
X108496670Y-119278921D01*
X108476153Y-119291218D01*
X108454529Y-119301446D01*
X108432007Y-119309504D01*
X108408803Y-119315316D01*
X108385142Y-119318826D01*
X108361250Y-119320000D01*
X107873750Y-119320000D01*
X107849858Y-119318826D01*
X107826197Y-119315316D01*
X107802993Y-119309504D01*
X107780471Y-119301446D01*
X107758847Y-119291218D01*
X107738330Y-119278921D01*
X107719117Y-119264671D01*
X107701393Y-119248607D01*
X107685329Y-119230883D01*
X107671079Y-119211670D01*
X107658782Y-119191153D01*
X107648554Y-119169529D01*
X107640496Y-119147007D01*
X107634684Y-119123803D01*
X107631174Y-119100142D01*
X107630000Y-119076250D01*
X107630000Y-118163750D01*
X107631174Y-118139858D01*
X107634684Y-118116197D01*
X107640496Y-118092993D01*
X107648554Y-118070471D01*
X107658782Y-118048847D01*
X107671079Y-118028330D01*
X107685329Y-118009117D01*
X107701393Y-117991393D01*
X107719117Y-117975329D01*
X107738330Y-117961079D01*
X107758847Y-117948782D01*
X107780471Y-117938554D01*
X107802993Y-117930496D01*
X107826197Y-117924684D01*
X107849858Y-117921174D01*
X107873750Y-117920000D01*
X108361250Y-117920000D01*
X108385142Y-117921174D01*
X108385142Y-117921174D01*
G37*
D13*
X108117500Y-118620000D03*
D12*
G36*
X106510142Y-117921174D02*
X106533803Y-117924684D01*
X106557007Y-117930496D01*
X106579529Y-117938554D01*
X106601153Y-117948782D01*
X106621670Y-117961079D01*
X106640883Y-117975329D01*
X106658607Y-117991393D01*
X106674671Y-118009117D01*
X106688921Y-118028330D01*
X106701218Y-118048847D01*
X106711446Y-118070471D01*
X106719504Y-118092993D01*
X106725316Y-118116197D01*
X106728826Y-118139858D01*
X106730000Y-118163750D01*
X106730000Y-119076250D01*
X106728826Y-119100142D01*
X106725316Y-119123803D01*
X106719504Y-119147007D01*
X106711446Y-119169529D01*
X106701218Y-119191153D01*
X106688921Y-119211670D01*
X106674671Y-119230883D01*
X106658607Y-119248607D01*
X106640883Y-119264671D01*
X106621670Y-119278921D01*
X106601153Y-119291218D01*
X106579529Y-119301446D01*
X106557007Y-119309504D01*
X106533803Y-119315316D01*
X106510142Y-119318826D01*
X106486250Y-119320000D01*
X105998750Y-119320000D01*
X105974858Y-119318826D01*
X105951197Y-119315316D01*
X105927993Y-119309504D01*
X105905471Y-119301446D01*
X105883847Y-119291218D01*
X105863330Y-119278921D01*
X105844117Y-119264671D01*
X105826393Y-119248607D01*
X105810329Y-119230883D01*
X105796079Y-119211670D01*
X105783782Y-119191153D01*
X105773554Y-119169529D01*
X105765496Y-119147007D01*
X105759684Y-119123803D01*
X105756174Y-119100142D01*
X105755000Y-119076250D01*
X105755000Y-118163750D01*
X105756174Y-118139858D01*
X105759684Y-118116197D01*
X105765496Y-118092993D01*
X105773554Y-118070471D01*
X105783782Y-118048847D01*
X105796079Y-118028330D01*
X105810329Y-118009117D01*
X105826393Y-117991393D01*
X105844117Y-117975329D01*
X105863330Y-117961079D01*
X105883847Y-117948782D01*
X105905471Y-117938554D01*
X105927993Y-117930496D01*
X105951197Y-117924684D01*
X105974858Y-117921174D01*
X105998750Y-117920000D01*
X106486250Y-117920000D01*
X106510142Y-117921174D01*
X106510142Y-117921174D01*
G37*
D13*
X106242500Y-118620000D03*
G04 #@! TD*
D20*
G04 #@! TO.C,Q9*
X185000000Y-77000000D03*
X184050000Y-75000000D03*
X185950000Y-75000000D03*
G04 #@! TD*
G04 #@! TO.C,Q10*
X173950000Y-75000000D03*
X172050000Y-75000000D03*
X173000000Y-77000000D03*
G04 #@! TD*
G04 #@! TO.C,Q11*
X177950000Y-75000000D03*
X176050000Y-75000000D03*
X177000000Y-77000000D03*
G04 #@! TD*
D12*
G04 #@! TO.C,R28*
G36*
X109910142Y-117911174D02*
X109933803Y-117914684D01*
X109957007Y-117920496D01*
X109979529Y-117928554D01*
X110001153Y-117938782D01*
X110021670Y-117951079D01*
X110040883Y-117965329D01*
X110058607Y-117981393D01*
X110074671Y-117999117D01*
X110088921Y-118018330D01*
X110101218Y-118038847D01*
X110111446Y-118060471D01*
X110119504Y-118082993D01*
X110125316Y-118106197D01*
X110128826Y-118129858D01*
X110130000Y-118153750D01*
X110130000Y-119066250D01*
X110128826Y-119090142D01*
X110125316Y-119113803D01*
X110119504Y-119137007D01*
X110111446Y-119159529D01*
X110101218Y-119181153D01*
X110088921Y-119201670D01*
X110074671Y-119220883D01*
X110058607Y-119238607D01*
X110040883Y-119254671D01*
X110021670Y-119268921D01*
X110001153Y-119281218D01*
X109979529Y-119291446D01*
X109957007Y-119299504D01*
X109933803Y-119305316D01*
X109910142Y-119308826D01*
X109886250Y-119310000D01*
X109398750Y-119310000D01*
X109374858Y-119308826D01*
X109351197Y-119305316D01*
X109327993Y-119299504D01*
X109305471Y-119291446D01*
X109283847Y-119281218D01*
X109263330Y-119268921D01*
X109244117Y-119254671D01*
X109226393Y-119238607D01*
X109210329Y-119220883D01*
X109196079Y-119201670D01*
X109183782Y-119181153D01*
X109173554Y-119159529D01*
X109165496Y-119137007D01*
X109159684Y-119113803D01*
X109156174Y-119090142D01*
X109155000Y-119066250D01*
X109155000Y-118153750D01*
X109156174Y-118129858D01*
X109159684Y-118106197D01*
X109165496Y-118082993D01*
X109173554Y-118060471D01*
X109183782Y-118038847D01*
X109196079Y-118018330D01*
X109210329Y-117999117D01*
X109226393Y-117981393D01*
X109244117Y-117965329D01*
X109263330Y-117951079D01*
X109283847Y-117938782D01*
X109305471Y-117928554D01*
X109327993Y-117920496D01*
X109351197Y-117914684D01*
X109374858Y-117911174D01*
X109398750Y-117910000D01*
X109886250Y-117910000D01*
X109910142Y-117911174D01*
X109910142Y-117911174D01*
G37*
D13*
X109642500Y-118610000D03*
D12*
G36*
X111785142Y-117911174D02*
X111808803Y-117914684D01*
X111832007Y-117920496D01*
X111854529Y-117928554D01*
X111876153Y-117938782D01*
X111896670Y-117951079D01*
X111915883Y-117965329D01*
X111933607Y-117981393D01*
X111949671Y-117999117D01*
X111963921Y-118018330D01*
X111976218Y-118038847D01*
X111986446Y-118060471D01*
X111994504Y-118082993D01*
X112000316Y-118106197D01*
X112003826Y-118129858D01*
X112005000Y-118153750D01*
X112005000Y-119066250D01*
X112003826Y-119090142D01*
X112000316Y-119113803D01*
X111994504Y-119137007D01*
X111986446Y-119159529D01*
X111976218Y-119181153D01*
X111963921Y-119201670D01*
X111949671Y-119220883D01*
X111933607Y-119238607D01*
X111915883Y-119254671D01*
X111896670Y-119268921D01*
X111876153Y-119281218D01*
X111854529Y-119291446D01*
X111832007Y-119299504D01*
X111808803Y-119305316D01*
X111785142Y-119308826D01*
X111761250Y-119310000D01*
X111273750Y-119310000D01*
X111249858Y-119308826D01*
X111226197Y-119305316D01*
X111202993Y-119299504D01*
X111180471Y-119291446D01*
X111158847Y-119281218D01*
X111138330Y-119268921D01*
X111119117Y-119254671D01*
X111101393Y-119238607D01*
X111085329Y-119220883D01*
X111071079Y-119201670D01*
X111058782Y-119181153D01*
X111048554Y-119159529D01*
X111040496Y-119137007D01*
X111034684Y-119113803D01*
X111031174Y-119090142D01*
X111030000Y-119066250D01*
X111030000Y-118153750D01*
X111031174Y-118129858D01*
X111034684Y-118106197D01*
X111040496Y-118082993D01*
X111048554Y-118060471D01*
X111058782Y-118038847D01*
X111071079Y-118018330D01*
X111085329Y-117999117D01*
X111101393Y-117981393D01*
X111119117Y-117965329D01*
X111138330Y-117951079D01*
X111158847Y-117938782D01*
X111180471Y-117928554D01*
X111202993Y-117920496D01*
X111226197Y-117914684D01*
X111249858Y-117911174D01*
X111273750Y-117910000D01*
X111761250Y-117910000D01*
X111785142Y-117911174D01*
X111785142Y-117911174D01*
G37*
D13*
X111517500Y-118610000D03*
G04 #@! TD*
D22*
G04 #@! TO.C,U2*
X165265000Y-101230000D03*
X155735000Y-103770000D03*
X165265000Y-103770000D03*
X155735000Y-101230000D03*
G04 #@! TD*
D12*
G04 #@! TO.C,C12*
G36*
X133280142Y-74301174D02*
X133303803Y-74304684D01*
X133327007Y-74310496D01*
X133349529Y-74318554D01*
X133371153Y-74328782D01*
X133391670Y-74341079D01*
X133410883Y-74355329D01*
X133428607Y-74371393D01*
X133444671Y-74389117D01*
X133458921Y-74408330D01*
X133471218Y-74428847D01*
X133481446Y-74450471D01*
X133489504Y-74472993D01*
X133495316Y-74496197D01*
X133498826Y-74519858D01*
X133500000Y-74543750D01*
X133500000Y-75456250D01*
X133498826Y-75480142D01*
X133495316Y-75503803D01*
X133489504Y-75527007D01*
X133481446Y-75549529D01*
X133471218Y-75571153D01*
X133458921Y-75591670D01*
X133444671Y-75610883D01*
X133428607Y-75628607D01*
X133410883Y-75644671D01*
X133391670Y-75658921D01*
X133371153Y-75671218D01*
X133349529Y-75681446D01*
X133327007Y-75689504D01*
X133303803Y-75695316D01*
X133280142Y-75698826D01*
X133256250Y-75700000D01*
X132768750Y-75700000D01*
X132744858Y-75698826D01*
X132721197Y-75695316D01*
X132697993Y-75689504D01*
X132675471Y-75681446D01*
X132653847Y-75671218D01*
X132633330Y-75658921D01*
X132614117Y-75644671D01*
X132596393Y-75628607D01*
X132580329Y-75610883D01*
X132566079Y-75591670D01*
X132553782Y-75571153D01*
X132543554Y-75549529D01*
X132535496Y-75527007D01*
X132529684Y-75503803D01*
X132526174Y-75480142D01*
X132525000Y-75456250D01*
X132525000Y-74543750D01*
X132526174Y-74519858D01*
X132529684Y-74496197D01*
X132535496Y-74472993D01*
X132543554Y-74450471D01*
X132553782Y-74428847D01*
X132566079Y-74408330D01*
X132580329Y-74389117D01*
X132596393Y-74371393D01*
X132614117Y-74355329D01*
X132633330Y-74341079D01*
X132653847Y-74328782D01*
X132675471Y-74318554D01*
X132697993Y-74310496D01*
X132721197Y-74304684D01*
X132744858Y-74301174D01*
X132768750Y-74300000D01*
X133256250Y-74300000D01*
X133280142Y-74301174D01*
X133280142Y-74301174D01*
G37*
D13*
X133012500Y-75000000D03*
D12*
G36*
X135155142Y-74301174D02*
X135178803Y-74304684D01*
X135202007Y-74310496D01*
X135224529Y-74318554D01*
X135246153Y-74328782D01*
X135266670Y-74341079D01*
X135285883Y-74355329D01*
X135303607Y-74371393D01*
X135319671Y-74389117D01*
X135333921Y-74408330D01*
X135346218Y-74428847D01*
X135356446Y-74450471D01*
X135364504Y-74472993D01*
X135370316Y-74496197D01*
X135373826Y-74519858D01*
X135375000Y-74543750D01*
X135375000Y-75456250D01*
X135373826Y-75480142D01*
X135370316Y-75503803D01*
X135364504Y-75527007D01*
X135356446Y-75549529D01*
X135346218Y-75571153D01*
X135333921Y-75591670D01*
X135319671Y-75610883D01*
X135303607Y-75628607D01*
X135285883Y-75644671D01*
X135266670Y-75658921D01*
X135246153Y-75671218D01*
X135224529Y-75681446D01*
X135202007Y-75689504D01*
X135178803Y-75695316D01*
X135155142Y-75698826D01*
X135131250Y-75700000D01*
X134643750Y-75700000D01*
X134619858Y-75698826D01*
X134596197Y-75695316D01*
X134572993Y-75689504D01*
X134550471Y-75681446D01*
X134528847Y-75671218D01*
X134508330Y-75658921D01*
X134489117Y-75644671D01*
X134471393Y-75628607D01*
X134455329Y-75610883D01*
X134441079Y-75591670D01*
X134428782Y-75571153D01*
X134418554Y-75549529D01*
X134410496Y-75527007D01*
X134404684Y-75503803D01*
X134401174Y-75480142D01*
X134400000Y-75456250D01*
X134400000Y-74543750D01*
X134401174Y-74519858D01*
X134404684Y-74496197D01*
X134410496Y-74472993D01*
X134418554Y-74450471D01*
X134428782Y-74428847D01*
X134441079Y-74408330D01*
X134455329Y-74389117D01*
X134471393Y-74371393D01*
X134489117Y-74355329D01*
X134508330Y-74341079D01*
X134528847Y-74328782D01*
X134550471Y-74318554D01*
X134572993Y-74310496D01*
X134596197Y-74304684D01*
X134619858Y-74301174D01*
X134643750Y-74300000D01*
X135131250Y-74300000D01*
X135155142Y-74301174D01*
X135155142Y-74301174D01*
G37*
D13*
X134887500Y-75000000D03*
G04 #@! TD*
D11*
G04 #@! TO.C,Q2*
X134950000Y-83300000D03*
X134950000Y-85200000D03*
X136950000Y-84250000D03*
G04 #@! TD*
D12*
G04 #@! TO.C,R1*
G36*
X123480142Y-74101174D02*
X123503803Y-74104684D01*
X123527007Y-74110496D01*
X123549529Y-74118554D01*
X123571153Y-74128782D01*
X123591670Y-74141079D01*
X123610883Y-74155329D01*
X123628607Y-74171393D01*
X123644671Y-74189117D01*
X123658921Y-74208330D01*
X123671218Y-74228847D01*
X123681446Y-74250471D01*
X123689504Y-74272993D01*
X123695316Y-74296197D01*
X123698826Y-74319858D01*
X123700000Y-74343750D01*
X123700000Y-75256250D01*
X123698826Y-75280142D01*
X123695316Y-75303803D01*
X123689504Y-75327007D01*
X123681446Y-75349529D01*
X123671218Y-75371153D01*
X123658921Y-75391670D01*
X123644671Y-75410883D01*
X123628607Y-75428607D01*
X123610883Y-75444671D01*
X123591670Y-75458921D01*
X123571153Y-75471218D01*
X123549529Y-75481446D01*
X123527007Y-75489504D01*
X123503803Y-75495316D01*
X123480142Y-75498826D01*
X123456250Y-75500000D01*
X122968750Y-75500000D01*
X122944858Y-75498826D01*
X122921197Y-75495316D01*
X122897993Y-75489504D01*
X122875471Y-75481446D01*
X122853847Y-75471218D01*
X122833330Y-75458921D01*
X122814117Y-75444671D01*
X122796393Y-75428607D01*
X122780329Y-75410883D01*
X122766079Y-75391670D01*
X122753782Y-75371153D01*
X122743554Y-75349529D01*
X122735496Y-75327007D01*
X122729684Y-75303803D01*
X122726174Y-75280142D01*
X122725000Y-75256250D01*
X122725000Y-74343750D01*
X122726174Y-74319858D01*
X122729684Y-74296197D01*
X122735496Y-74272993D01*
X122743554Y-74250471D01*
X122753782Y-74228847D01*
X122766079Y-74208330D01*
X122780329Y-74189117D01*
X122796393Y-74171393D01*
X122814117Y-74155329D01*
X122833330Y-74141079D01*
X122853847Y-74128782D01*
X122875471Y-74118554D01*
X122897993Y-74110496D01*
X122921197Y-74104684D01*
X122944858Y-74101174D01*
X122968750Y-74100000D01*
X123456250Y-74100000D01*
X123480142Y-74101174D01*
X123480142Y-74101174D01*
G37*
D13*
X123212500Y-74800000D03*
D12*
G36*
X125355142Y-74101174D02*
X125378803Y-74104684D01*
X125402007Y-74110496D01*
X125424529Y-74118554D01*
X125446153Y-74128782D01*
X125466670Y-74141079D01*
X125485883Y-74155329D01*
X125503607Y-74171393D01*
X125519671Y-74189117D01*
X125533921Y-74208330D01*
X125546218Y-74228847D01*
X125556446Y-74250471D01*
X125564504Y-74272993D01*
X125570316Y-74296197D01*
X125573826Y-74319858D01*
X125575000Y-74343750D01*
X125575000Y-75256250D01*
X125573826Y-75280142D01*
X125570316Y-75303803D01*
X125564504Y-75327007D01*
X125556446Y-75349529D01*
X125546218Y-75371153D01*
X125533921Y-75391670D01*
X125519671Y-75410883D01*
X125503607Y-75428607D01*
X125485883Y-75444671D01*
X125466670Y-75458921D01*
X125446153Y-75471218D01*
X125424529Y-75481446D01*
X125402007Y-75489504D01*
X125378803Y-75495316D01*
X125355142Y-75498826D01*
X125331250Y-75500000D01*
X124843750Y-75500000D01*
X124819858Y-75498826D01*
X124796197Y-75495316D01*
X124772993Y-75489504D01*
X124750471Y-75481446D01*
X124728847Y-75471218D01*
X124708330Y-75458921D01*
X124689117Y-75444671D01*
X124671393Y-75428607D01*
X124655329Y-75410883D01*
X124641079Y-75391670D01*
X124628782Y-75371153D01*
X124618554Y-75349529D01*
X124610496Y-75327007D01*
X124604684Y-75303803D01*
X124601174Y-75280142D01*
X124600000Y-75256250D01*
X124600000Y-74343750D01*
X124601174Y-74319858D01*
X124604684Y-74296197D01*
X124610496Y-74272993D01*
X124618554Y-74250471D01*
X124628782Y-74228847D01*
X124641079Y-74208330D01*
X124655329Y-74189117D01*
X124671393Y-74171393D01*
X124689117Y-74155329D01*
X124708330Y-74141079D01*
X124728847Y-74128782D01*
X124750471Y-74118554D01*
X124772993Y-74110496D01*
X124796197Y-74104684D01*
X124819858Y-74101174D01*
X124843750Y-74100000D01*
X125331250Y-74100000D01*
X125355142Y-74101174D01*
X125355142Y-74101174D01*
G37*
D13*
X125087500Y-74800000D03*
G04 #@! TD*
D12*
G04 #@! TO.C,R7*
G36*
X123480142Y-84601174D02*
X123503803Y-84604684D01*
X123527007Y-84610496D01*
X123549529Y-84618554D01*
X123571153Y-84628782D01*
X123591670Y-84641079D01*
X123610883Y-84655329D01*
X123628607Y-84671393D01*
X123644671Y-84689117D01*
X123658921Y-84708330D01*
X123671218Y-84728847D01*
X123681446Y-84750471D01*
X123689504Y-84772993D01*
X123695316Y-84796197D01*
X123698826Y-84819858D01*
X123700000Y-84843750D01*
X123700000Y-85756250D01*
X123698826Y-85780142D01*
X123695316Y-85803803D01*
X123689504Y-85827007D01*
X123681446Y-85849529D01*
X123671218Y-85871153D01*
X123658921Y-85891670D01*
X123644671Y-85910883D01*
X123628607Y-85928607D01*
X123610883Y-85944671D01*
X123591670Y-85958921D01*
X123571153Y-85971218D01*
X123549529Y-85981446D01*
X123527007Y-85989504D01*
X123503803Y-85995316D01*
X123480142Y-85998826D01*
X123456250Y-86000000D01*
X122968750Y-86000000D01*
X122944858Y-85998826D01*
X122921197Y-85995316D01*
X122897993Y-85989504D01*
X122875471Y-85981446D01*
X122853847Y-85971218D01*
X122833330Y-85958921D01*
X122814117Y-85944671D01*
X122796393Y-85928607D01*
X122780329Y-85910883D01*
X122766079Y-85891670D01*
X122753782Y-85871153D01*
X122743554Y-85849529D01*
X122735496Y-85827007D01*
X122729684Y-85803803D01*
X122726174Y-85780142D01*
X122725000Y-85756250D01*
X122725000Y-84843750D01*
X122726174Y-84819858D01*
X122729684Y-84796197D01*
X122735496Y-84772993D01*
X122743554Y-84750471D01*
X122753782Y-84728847D01*
X122766079Y-84708330D01*
X122780329Y-84689117D01*
X122796393Y-84671393D01*
X122814117Y-84655329D01*
X122833330Y-84641079D01*
X122853847Y-84628782D01*
X122875471Y-84618554D01*
X122897993Y-84610496D01*
X122921197Y-84604684D01*
X122944858Y-84601174D01*
X122968750Y-84600000D01*
X123456250Y-84600000D01*
X123480142Y-84601174D01*
X123480142Y-84601174D01*
G37*
D13*
X123212500Y-85300000D03*
D12*
G36*
X125355142Y-84601174D02*
X125378803Y-84604684D01*
X125402007Y-84610496D01*
X125424529Y-84618554D01*
X125446153Y-84628782D01*
X125466670Y-84641079D01*
X125485883Y-84655329D01*
X125503607Y-84671393D01*
X125519671Y-84689117D01*
X125533921Y-84708330D01*
X125546218Y-84728847D01*
X125556446Y-84750471D01*
X125564504Y-84772993D01*
X125570316Y-84796197D01*
X125573826Y-84819858D01*
X125575000Y-84843750D01*
X125575000Y-85756250D01*
X125573826Y-85780142D01*
X125570316Y-85803803D01*
X125564504Y-85827007D01*
X125556446Y-85849529D01*
X125546218Y-85871153D01*
X125533921Y-85891670D01*
X125519671Y-85910883D01*
X125503607Y-85928607D01*
X125485883Y-85944671D01*
X125466670Y-85958921D01*
X125446153Y-85971218D01*
X125424529Y-85981446D01*
X125402007Y-85989504D01*
X125378803Y-85995316D01*
X125355142Y-85998826D01*
X125331250Y-86000000D01*
X124843750Y-86000000D01*
X124819858Y-85998826D01*
X124796197Y-85995316D01*
X124772993Y-85989504D01*
X124750471Y-85981446D01*
X124728847Y-85971218D01*
X124708330Y-85958921D01*
X124689117Y-85944671D01*
X124671393Y-85928607D01*
X124655329Y-85910883D01*
X124641079Y-85891670D01*
X124628782Y-85871153D01*
X124618554Y-85849529D01*
X124610496Y-85827007D01*
X124604684Y-85803803D01*
X124601174Y-85780142D01*
X124600000Y-85756250D01*
X124600000Y-84843750D01*
X124601174Y-84819858D01*
X124604684Y-84796197D01*
X124610496Y-84772993D01*
X124618554Y-84750471D01*
X124628782Y-84728847D01*
X124641079Y-84708330D01*
X124655329Y-84689117D01*
X124671393Y-84671393D01*
X124689117Y-84655329D01*
X124708330Y-84641079D01*
X124728847Y-84628782D01*
X124750471Y-84618554D01*
X124772993Y-84610496D01*
X124796197Y-84604684D01*
X124819858Y-84601174D01*
X124843750Y-84600000D01*
X125331250Y-84600000D01*
X125355142Y-84601174D01*
X125355142Y-84601174D01*
G37*
D13*
X125087500Y-85300000D03*
G04 #@! TD*
D12*
G04 #@! TO.C,R11*
G36*
X120630142Y-77376174D02*
X120653803Y-77379684D01*
X120677007Y-77385496D01*
X120699529Y-77393554D01*
X120721153Y-77403782D01*
X120741670Y-77416079D01*
X120760883Y-77430329D01*
X120778607Y-77446393D01*
X120794671Y-77464117D01*
X120808921Y-77483330D01*
X120821218Y-77503847D01*
X120831446Y-77525471D01*
X120839504Y-77547993D01*
X120845316Y-77571197D01*
X120848826Y-77594858D01*
X120850000Y-77618750D01*
X120850000Y-78106250D01*
X120848826Y-78130142D01*
X120845316Y-78153803D01*
X120839504Y-78177007D01*
X120831446Y-78199529D01*
X120821218Y-78221153D01*
X120808921Y-78241670D01*
X120794671Y-78260883D01*
X120778607Y-78278607D01*
X120760883Y-78294671D01*
X120741670Y-78308921D01*
X120721153Y-78321218D01*
X120699529Y-78331446D01*
X120677007Y-78339504D01*
X120653803Y-78345316D01*
X120630142Y-78348826D01*
X120606250Y-78350000D01*
X119693750Y-78350000D01*
X119669858Y-78348826D01*
X119646197Y-78345316D01*
X119622993Y-78339504D01*
X119600471Y-78331446D01*
X119578847Y-78321218D01*
X119558330Y-78308921D01*
X119539117Y-78294671D01*
X119521393Y-78278607D01*
X119505329Y-78260883D01*
X119491079Y-78241670D01*
X119478782Y-78221153D01*
X119468554Y-78199529D01*
X119460496Y-78177007D01*
X119454684Y-78153803D01*
X119451174Y-78130142D01*
X119450000Y-78106250D01*
X119450000Y-77618750D01*
X119451174Y-77594858D01*
X119454684Y-77571197D01*
X119460496Y-77547993D01*
X119468554Y-77525471D01*
X119478782Y-77503847D01*
X119491079Y-77483330D01*
X119505329Y-77464117D01*
X119521393Y-77446393D01*
X119539117Y-77430329D01*
X119558330Y-77416079D01*
X119578847Y-77403782D01*
X119600471Y-77393554D01*
X119622993Y-77385496D01*
X119646197Y-77379684D01*
X119669858Y-77376174D01*
X119693750Y-77375000D01*
X120606250Y-77375000D01*
X120630142Y-77376174D01*
X120630142Y-77376174D01*
G37*
D13*
X120150000Y-77862500D03*
D12*
G36*
X120630142Y-79251174D02*
X120653803Y-79254684D01*
X120677007Y-79260496D01*
X120699529Y-79268554D01*
X120721153Y-79278782D01*
X120741670Y-79291079D01*
X120760883Y-79305329D01*
X120778607Y-79321393D01*
X120794671Y-79339117D01*
X120808921Y-79358330D01*
X120821218Y-79378847D01*
X120831446Y-79400471D01*
X120839504Y-79422993D01*
X120845316Y-79446197D01*
X120848826Y-79469858D01*
X120850000Y-79493750D01*
X120850000Y-79981250D01*
X120848826Y-80005142D01*
X120845316Y-80028803D01*
X120839504Y-80052007D01*
X120831446Y-80074529D01*
X120821218Y-80096153D01*
X120808921Y-80116670D01*
X120794671Y-80135883D01*
X120778607Y-80153607D01*
X120760883Y-80169671D01*
X120741670Y-80183921D01*
X120721153Y-80196218D01*
X120699529Y-80206446D01*
X120677007Y-80214504D01*
X120653803Y-80220316D01*
X120630142Y-80223826D01*
X120606250Y-80225000D01*
X119693750Y-80225000D01*
X119669858Y-80223826D01*
X119646197Y-80220316D01*
X119622993Y-80214504D01*
X119600471Y-80206446D01*
X119578847Y-80196218D01*
X119558330Y-80183921D01*
X119539117Y-80169671D01*
X119521393Y-80153607D01*
X119505329Y-80135883D01*
X119491079Y-80116670D01*
X119478782Y-80096153D01*
X119468554Y-80074529D01*
X119460496Y-80052007D01*
X119454684Y-80028803D01*
X119451174Y-80005142D01*
X119450000Y-79981250D01*
X119450000Y-79493750D01*
X119451174Y-79469858D01*
X119454684Y-79446197D01*
X119460496Y-79422993D01*
X119468554Y-79400471D01*
X119478782Y-79378847D01*
X119491079Y-79358330D01*
X119505329Y-79339117D01*
X119521393Y-79321393D01*
X119539117Y-79305329D01*
X119558330Y-79291079D01*
X119578847Y-79278782D01*
X119600471Y-79268554D01*
X119622993Y-79260496D01*
X119646197Y-79254684D01*
X119669858Y-79251174D01*
X119693750Y-79250000D01*
X120606250Y-79250000D01*
X120630142Y-79251174D01*
X120630142Y-79251174D01*
G37*
D13*
X120150000Y-79737500D03*
G04 #@! TD*
D12*
G04 #@! TO.C,R12*
G36*
X153705142Y-93801174D02*
X153728803Y-93804684D01*
X153752007Y-93810496D01*
X153774529Y-93818554D01*
X153796153Y-93828782D01*
X153816670Y-93841079D01*
X153835883Y-93855329D01*
X153853607Y-93871393D01*
X153869671Y-93889117D01*
X153883921Y-93908330D01*
X153896218Y-93928847D01*
X153906446Y-93950471D01*
X153914504Y-93972993D01*
X153920316Y-93996197D01*
X153923826Y-94019858D01*
X153925000Y-94043750D01*
X153925000Y-94956250D01*
X153923826Y-94980142D01*
X153920316Y-95003803D01*
X153914504Y-95027007D01*
X153906446Y-95049529D01*
X153896218Y-95071153D01*
X153883921Y-95091670D01*
X153869671Y-95110883D01*
X153853607Y-95128607D01*
X153835883Y-95144671D01*
X153816670Y-95158921D01*
X153796153Y-95171218D01*
X153774529Y-95181446D01*
X153752007Y-95189504D01*
X153728803Y-95195316D01*
X153705142Y-95198826D01*
X153681250Y-95200000D01*
X153193750Y-95200000D01*
X153169858Y-95198826D01*
X153146197Y-95195316D01*
X153122993Y-95189504D01*
X153100471Y-95181446D01*
X153078847Y-95171218D01*
X153058330Y-95158921D01*
X153039117Y-95144671D01*
X153021393Y-95128607D01*
X153005329Y-95110883D01*
X152991079Y-95091670D01*
X152978782Y-95071153D01*
X152968554Y-95049529D01*
X152960496Y-95027007D01*
X152954684Y-95003803D01*
X152951174Y-94980142D01*
X152950000Y-94956250D01*
X152950000Y-94043750D01*
X152951174Y-94019858D01*
X152954684Y-93996197D01*
X152960496Y-93972993D01*
X152968554Y-93950471D01*
X152978782Y-93928847D01*
X152991079Y-93908330D01*
X153005329Y-93889117D01*
X153021393Y-93871393D01*
X153039117Y-93855329D01*
X153058330Y-93841079D01*
X153078847Y-93828782D01*
X153100471Y-93818554D01*
X153122993Y-93810496D01*
X153146197Y-93804684D01*
X153169858Y-93801174D01*
X153193750Y-93800000D01*
X153681250Y-93800000D01*
X153705142Y-93801174D01*
X153705142Y-93801174D01*
G37*
D13*
X153437500Y-94500000D03*
D12*
G36*
X151830142Y-93801174D02*
X151853803Y-93804684D01*
X151877007Y-93810496D01*
X151899529Y-93818554D01*
X151921153Y-93828782D01*
X151941670Y-93841079D01*
X151960883Y-93855329D01*
X151978607Y-93871393D01*
X151994671Y-93889117D01*
X152008921Y-93908330D01*
X152021218Y-93928847D01*
X152031446Y-93950471D01*
X152039504Y-93972993D01*
X152045316Y-93996197D01*
X152048826Y-94019858D01*
X152050000Y-94043750D01*
X152050000Y-94956250D01*
X152048826Y-94980142D01*
X152045316Y-95003803D01*
X152039504Y-95027007D01*
X152031446Y-95049529D01*
X152021218Y-95071153D01*
X152008921Y-95091670D01*
X151994671Y-95110883D01*
X151978607Y-95128607D01*
X151960883Y-95144671D01*
X151941670Y-95158921D01*
X151921153Y-95171218D01*
X151899529Y-95181446D01*
X151877007Y-95189504D01*
X151853803Y-95195316D01*
X151830142Y-95198826D01*
X151806250Y-95200000D01*
X151318750Y-95200000D01*
X151294858Y-95198826D01*
X151271197Y-95195316D01*
X151247993Y-95189504D01*
X151225471Y-95181446D01*
X151203847Y-95171218D01*
X151183330Y-95158921D01*
X151164117Y-95144671D01*
X151146393Y-95128607D01*
X151130329Y-95110883D01*
X151116079Y-95091670D01*
X151103782Y-95071153D01*
X151093554Y-95049529D01*
X151085496Y-95027007D01*
X151079684Y-95003803D01*
X151076174Y-94980142D01*
X151075000Y-94956250D01*
X151075000Y-94043750D01*
X151076174Y-94019858D01*
X151079684Y-93996197D01*
X151085496Y-93972993D01*
X151093554Y-93950471D01*
X151103782Y-93928847D01*
X151116079Y-93908330D01*
X151130329Y-93889117D01*
X151146393Y-93871393D01*
X151164117Y-93855329D01*
X151183330Y-93841079D01*
X151203847Y-93828782D01*
X151225471Y-93818554D01*
X151247993Y-93810496D01*
X151271197Y-93804684D01*
X151294858Y-93801174D01*
X151318750Y-93800000D01*
X151806250Y-93800000D01*
X151830142Y-93801174D01*
X151830142Y-93801174D01*
G37*
D13*
X151562500Y-94500000D03*
G04 #@! TD*
D12*
G04 #@! TO.C,R14*
G36*
X139180142Y-84701174D02*
X139203803Y-84704684D01*
X139227007Y-84710496D01*
X139249529Y-84718554D01*
X139271153Y-84728782D01*
X139291670Y-84741079D01*
X139310883Y-84755329D01*
X139328607Y-84771393D01*
X139344671Y-84789117D01*
X139358921Y-84808330D01*
X139371218Y-84828847D01*
X139381446Y-84850471D01*
X139389504Y-84872993D01*
X139395316Y-84896197D01*
X139398826Y-84919858D01*
X139400000Y-84943750D01*
X139400000Y-85431250D01*
X139398826Y-85455142D01*
X139395316Y-85478803D01*
X139389504Y-85502007D01*
X139381446Y-85524529D01*
X139371218Y-85546153D01*
X139358921Y-85566670D01*
X139344671Y-85585883D01*
X139328607Y-85603607D01*
X139310883Y-85619671D01*
X139291670Y-85633921D01*
X139271153Y-85646218D01*
X139249529Y-85656446D01*
X139227007Y-85664504D01*
X139203803Y-85670316D01*
X139180142Y-85673826D01*
X139156250Y-85675000D01*
X138243750Y-85675000D01*
X138219858Y-85673826D01*
X138196197Y-85670316D01*
X138172993Y-85664504D01*
X138150471Y-85656446D01*
X138128847Y-85646218D01*
X138108330Y-85633921D01*
X138089117Y-85619671D01*
X138071393Y-85603607D01*
X138055329Y-85585883D01*
X138041079Y-85566670D01*
X138028782Y-85546153D01*
X138018554Y-85524529D01*
X138010496Y-85502007D01*
X138004684Y-85478803D01*
X138001174Y-85455142D01*
X138000000Y-85431250D01*
X138000000Y-84943750D01*
X138001174Y-84919858D01*
X138004684Y-84896197D01*
X138010496Y-84872993D01*
X138018554Y-84850471D01*
X138028782Y-84828847D01*
X138041079Y-84808330D01*
X138055329Y-84789117D01*
X138071393Y-84771393D01*
X138089117Y-84755329D01*
X138108330Y-84741079D01*
X138128847Y-84728782D01*
X138150471Y-84718554D01*
X138172993Y-84710496D01*
X138196197Y-84704684D01*
X138219858Y-84701174D01*
X138243750Y-84700000D01*
X139156250Y-84700000D01*
X139180142Y-84701174D01*
X139180142Y-84701174D01*
G37*
D13*
X138700000Y-85187500D03*
D12*
G36*
X139180142Y-82826174D02*
X139203803Y-82829684D01*
X139227007Y-82835496D01*
X139249529Y-82843554D01*
X139271153Y-82853782D01*
X139291670Y-82866079D01*
X139310883Y-82880329D01*
X139328607Y-82896393D01*
X139344671Y-82914117D01*
X139358921Y-82933330D01*
X139371218Y-82953847D01*
X139381446Y-82975471D01*
X139389504Y-82997993D01*
X139395316Y-83021197D01*
X139398826Y-83044858D01*
X139400000Y-83068750D01*
X139400000Y-83556250D01*
X139398826Y-83580142D01*
X139395316Y-83603803D01*
X139389504Y-83627007D01*
X139381446Y-83649529D01*
X139371218Y-83671153D01*
X139358921Y-83691670D01*
X139344671Y-83710883D01*
X139328607Y-83728607D01*
X139310883Y-83744671D01*
X139291670Y-83758921D01*
X139271153Y-83771218D01*
X139249529Y-83781446D01*
X139227007Y-83789504D01*
X139203803Y-83795316D01*
X139180142Y-83798826D01*
X139156250Y-83800000D01*
X138243750Y-83800000D01*
X138219858Y-83798826D01*
X138196197Y-83795316D01*
X138172993Y-83789504D01*
X138150471Y-83781446D01*
X138128847Y-83771218D01*
X138108330Y-83758921D01*
X138089117Y-83744671D01*
X138071393Y-83728607D01*
X138055329Y-83710883D01*
X138041079Y-83691670D01*
X138028782Y-83671153D01*
X138018554Y-83649529D01*
X138010496Y-83627007D01*
X138004684Y-83603803D01*
X138001174Y-83580142D01*
X138000000Y-83556250D01*
X138000000Y-83068750D01*
X138001174Y-83044858D01*
X138004684Y-83021197D01*
X138010496Y-82997993D01*
X138018554Y-82975471D01*
X138028782Y-82953847D01*
X138041079Y-82933330D01*
X138055329Y-82914117D01*
X138071393Y-82896393D01*
X138089117Y-82880329D01*
X138108330Y-82866079D01*
X138128847Y-82853782D01*
X138150471Y-82843554D01*
X138172993Y-82835496D01*
X138196197Y-82829684D01*
X138219858Y-82826174D01*
X138243750Y-82825000D01*
X139156250Y-82825000D01*
X139180142Y-82826174D01*
X139180142Y-82826174D01*
G37*
D13*
X138700000Y-83312500D03*
G04 #@! TD*
D12*
G04 #@! TO.C,R15*
G36*
X168480142Y-96076174D02*
X168503803Y-96079684D01*
X168527007Y-96085496D01*
X168549529Y-96093554D01*
X168571153Y-96103782D01*
X168591670Y-96116079D01*
X168610883Y-96130329D01*
X168628607Y-96146393D01*
X168644671Y-96164117D01*
X168658921Y-96183330D01*
X168671218Y-96203847D01*
X168681446Y-96225471D01*
X168689504Y-96247993D01*
X168695316Y-96271197D01*
X168698826Y-96294858D01*
X168700000Y-96318750D01*
X168700000Y-96806250D01*
X168698826Y-96830142D01*
X168695316Y-96853803D01*
X168689504Y-96877007D01*
X168681446Y-96899529D01*
X168671218Y-96921153D01*
X168658921Y-96941670D01*
X168644671Y-96960883D01*
X168628607Y-96978607D01*
X168610883Y-96994671D01*
X168591670Y-97008921D01*
X168571153Y-97021218D01*
X168549529Y-97031446D01*
X168527007Y-97039504D01*
X168503803Y-97045316D01*
X168480142Y-97048826D01*
X168456250Y-97050000D01*
X167543750Y-97050000D01*
X167519858Y-97048826D01*
X167496197Y-97045316D01*
X167472993Y-97039504D01*
X167450471Y-97031446D01*
X167428847Y-97021218D01*
X167408330Y-97008921D01*
X167389117Y-96994671D01*
X167371393Y-96978607D01*
X167355329Y-96960883D01*
X167341079Y-96941670D01*
X167328782Y-96921153D01*
X167318554Y-96899529D01*
X167310496Y-96877007D01*
X167304684Y-96853803D01*
X167301174Y-96830142D01*
X167300000Y-96806250D01*
X167300000Y-96318750D01*
X167301174Y-96294858D01*
X167304684Y-96271197D01*
X167310496Y-96247993D01*
X167318554Y-96225471D01*
X167328782Y-96203847D01*
X167341079Y-96183330D01*
X167355329Y-96164117D01*
X167371393Y-96146393D01*
X167389117Y-96130329D01*
X167408330Y-96116079D01*
X167428847Y-96103782D01*
X167450471Y-96093554D01*
X167472993Y-96085496D01*
X167496197Y-96079684D01*
X167519858Y-96076174D01*
X167543750Y-96075000D01*
X168456250Y-96075000D01*
X168480142Y-96076174D01*
X168480142Y-96076174D01*
G37*
D13*
X168000000Y-96562500D03*
D12*
G36*
X168480142Y-97951174D02*
X168503803Y-97954684D01*
X168527007Y-97960496D01*
X168549529Y-97968554D01*
X168571153Y-97978782D01*
X168591670Y-97991079D01*
X168610883Y-98005329D01*
X168628607Y-98021393D01*
X168644671Y-98039117D01*
X168658921Y-98058330D01*
X168671218Y-98078847D01*
X168681446Y-98100471D01*
X168689504Y-98122993D01*
X168695316Y-98146197D01*
X168698826Y-98169858D01*
X168700000Y-98193750D01*
X168700000Y-98681250D01*
X168698826Y-98705142D01*
X168695316Y-98728803D01*
X168689504Y-98752007D01*
X168681446Y-98774529D01*
X168671218Y-98796153D01*
X168658921Y-98816670D01*
X168644671Y-98835883D01*
X168628607Y-98853607D01*
X168610883Y-98869671D01*
X168591670Y-98883921D01*
X168571153Y-98896218D01*
X168549529Y-98906446D01*
X168527007Y-98914504D01*
X168503803Y-98920316D01*
X168480142Y-98923826D01*
X168456250Y-98925000D01*
X167543750Y-98925000D01*
X167519858Y-98923826D01*
X167496197Y-98920316D01*
X167472993Y-98914504D01*
X167450471Y-98906446D01*
X167428847Y-98896218D01*
X167408330Y-98883921D01*
X167389117Y-98869671D01*
X167371393Y-98853607D01*
X167355329Y-98835883D01*
X167341079Y-98816670D01*
X167328782Y-98796153D01*
X167318554Y-98774529D01*
X167310496Y-98752007D01*
X167304684Y-98728803D01*
X167301174Y-98705142D01*
X167300000Y-98681250D01*
X167300000Y-98193750D01*
X167301174Y-98169858D01*
X167304684Y-98146197D01*
X167310496Y-98122993D01*
X167318554Y-98100471D01*
X167328782Y-98078847D01*
X167341079Y-98058330D01*
X167355329Y-98039117D01*
X167371393Y-98021393D01*
X167389117Y-98005329D01*
X167408330Y-97991079D01*
X167428847Y-97978782D01*
X167450471Y-97968554D01*
X167472993Y-97960496D01*
X167496197Y-97954684D01*
X167519858Y-97951174D01*
X167543750Y-97950000D01*
X168456250Y-97950000D01*
X168480142Y-97951174D01*
X168480142Y-97951174D01*
G37*
D13*
X168000000Y-98437500D03*
G04 #@! TD*
D12*
G04 #@! TO.C,R20*
G36*
X133680142Y-82826174D02*
X133703803Y-82829684D01*
X133727007Y-82835496D01*
X133749529Y-82843554D01*
X133771153Y-82853782D01*
X133791670Y-82866079D01*
X133810883Y-82880329D01*
X133828607Y-82896393D01*
X133844671Y-82914117D01*
X133858921Y-82933330D01*
X133871218Y-82953847D01*
X133881446Y-82975471D01*
X133889504Y-82997993D01*
X133895316Y-83021197D01*
X133898826Y-83044858D01*
X133900000Y-83068750D01*
X133900000Y-83556250D01*
X133898826Y-83580142D01*
X133895316Y-83603803D01*
X133889504Y-83627007D01*
X133881446Y-83649529D01*
X133871218Y-83671153D01*
X133858921Y-83691670D01*
X133844671Y-83710883D01*
X133828607Y-83728607D01*
X133810883Y-83744671D01*
X133791670Y-83758921D01*
X133771153Y-83771218D01*
X133749529Y-83781446D01*
X133727007Y-83789504D01*
X133703803Y-83795316D01*
X133680142Y-83798826D01*
X133656250Y-83800000D01*
X132743750Y-83800000D01*
X132719858Y-83798826D01*
X132696197Y-83795316D01*
X132672993Y-83789504D01*
X132650471Y-83781446D01*
X132628847Y-83771218D01*
X132608330Y-83758921D01*
X132589117Y-83744671D01*
X132571393Y-83728607D01*
X132555329Y-83710883D01*
X132541079Y-83691670D01*
X132528782Y-83671153D01*
X132518554Y-83649529D01*
X132510496Y-83627007D01*
X132504684Y-83603803D01*
X132501174Y-83580142D01*
X132500000Y-83556250D01*
X132500000Y-83068750D01*
X132501174Y-83044858D01*
X132504684Y-83021197D01*
X132510496Y-82997993D01*
X132518554Y-82975471D01*
X132528782Y-82953847D01*
X132541079Y-82933330D01*
X132555329Y-82914117D01*
X132571393Y-82896393D01*
X132589117Y-82880329D01*
X132608330Y-82866079D01*
X132628847Y-82853782D01*
X132650471Y-82843554D01*
X132672993Y-82835496D01*
X132696197Y-82829684D01*
X132719858Y-82826174D01*
X132743750Y-82825000D01*
X133656250Y-82825000D01*
X133680142Y-82826174D01*
X133680142Y-82826174D01*
G37*
D13*
X133200000Y-83312500D03*
D12*
G36*
X133680142Y-84701174D02*
X133703803Y-84704684D01*
X133727007Y-84710496D01*
X133749529Y-84718554D01*
X133771153Y-84728782D01*
X133791670Y-84741079D01*
X133810883Y-84755329D01*
X133828607Y-84771393D01*
X133844671Y-84789117D01*
X133858921Y-84808330D01*
X133871218Y-84828847D01*
X133881446Y-84850471D01*
X133889504Y-84872993D01*
X133895316Y-84896197D01*
X133898826Y-84919858D01*
X133900000Y-84943750D01*
X133900000Y-85431250D01*
X133898826Y-85455142D01*
X133895316Y-85478803D01*
X133889504Y-85502007D01*
X133881446Y-85524529D01*
X133871218Y-85546153D01*
X133858921Y-85566670D01*
X133844671Y-85585883D01*
X133828607Y-85603607D01*
X133810883Y-85619671D01*
X133791670Y-85633921D01*
X133771153Y-85646218D01*
X133749529Y-85656446D01*
X133727007Y-85664504D01*
X133703803Y-85670316D01*
X133680142Y-85673826D01*
X133656250Y-85675000D01*
X132743750Y-85675000D01*
X132719858Y-85673826D01*
X132696197Y-85670316D01*
X132672993Y-85664504D01*
X132650471Y-85656446D01*
X132628847Y-85646218D01*
X132608330Y-85633921D01*
X132589117Y-85619671D01*
X132571393Y-85603607D01*
X132555329Y-85585883D01*
X132541079Y-85566670D01*
X132528782Y-85546153D01*
X132518554Y-85524529D01*
X132510496Y-85502007D01*
X132504684Y-85478803D01*
X132501174Y-85455142D01*
X132500000Y-85431250D01*
X132500000Y-84943750D01*
X132501174Y-84919858D01*
X132504684Y-84896197D01*
X132510496Y-84872993D01*
X132518554Y-84850471D01*
X132528782Y-84828847D01*
X132541079Y-84808330D01*
X132555329Y-84789117D01*
X132571393Y-84771393D01*
X132589117Y-84755329D01*
X132608330Y-84741079D01*
X132628847Y-84728782D01*
X132650471Y-84718554D01*
X132672993Y-84710496D01*
X132696197Y-84704684D01*
X132719858Y-84701174D01*
X132743750Y-84700000D01*
X133656250Y-84700000D01*
X133680142Y-84701174D01*
X133680142Y-84701174D01*
G37*
D13*
X133200000Y-85187500D03*
G04 #@! TD*
D14*
G04 #@! TO.C,SW2*
X144000000Y-76425000D03*
X146500000Y-76425000D03*
X149000000Y-76425000D03*
X144000000Y-82075000D03*
X146500000Y-82075000D03*
X149000000Y-82075000D03*
G04 #@! TD*
D17*
G04 #@! TO.C,U1*
X138650000Y-81155000D03*
X138650000Y-79885000D03*
X138650000Y-78615000D03*
X138650000Y-77345000D03*
X133250000Y-77345000D03*
X133250000Y-78615000D03*
X133250000Y-79885000D03*
X133250000Y-81155000D03*
G04 #@! TD*
D22*
G04 #@! TO.C,U5*
X155735000Y-94230000D03*
X165265000Y-96770000D03*
X155735000Y-96770000D03*
X165265000Y-94230000D03*
G04 #@! TD*
D12*
G04 #@! TO.C,D2*
G36*
X192330142Y-81801174D02*
X192353803Y-81804684D01*
X192377007Y-81810496D01*
X192399529Y-81818554D01*
X192421153Y-81828782D01*
X192441670Y-81841079D01*
X192460883Y-81855329D01*
X192478607Y-81871393D01*
X192494671Y-81889117D01*
X192508921Y-81908330D01*
X192521218Y-81928847D01*
X192531446Y-81950471D01*
X192539504Y-81972993D01*
X192545316Y-81996197D01*
X192548826Y-82019858D01*
X192550000Y-82043750D01*
X192550000Y-82956250D01*
X192548826Y-82980142D01*
X192545316Y-83003803D01*
X192539504Y-83027007D01*
X192531446Y-83049529D01*
X192521218Y-83071153D01*
X192508921Y-83091670D01*
X192494671Y-83110883D01*
X192478607Y-83128607D01*
X192460883Y-83144671D01*
X192441670Y-83158921D01*
X192421153Y-83171218D01*
X192399529Y-83181446D01*
X192377007Y-83189504D01*
X192353803Y-83195316D01*
X192330142Y-83198826D01*
X192306250Y-83200000D01*
X191818750Y-83200000D01*
X191794858Y-83198826D01*
X191771197Y-83195316D01*
X191747993Y-83189504D01*
X191725471Y-83181446D01*
X191703847Y-83171218D01*
X191683330Y-83158921D01*
X191664117Y-83144671D01*
X191646393Y-83128607D01*
X191630329Y-83110883D01*
X191616079Y-83091670D01*
X191603782Y-83071153D01*
X191593554Y-83049529D01*
X191585496Y-83027007D01*
X191579684Y-83003803D01*
X191576174Y-82980142D01*
X191575000Y-82956250D01*
X191575000Y-82043750D01*
X191576174Y-82019858D01*
X191579684Y-81996197D01*
X191585496Y-81972993D01*
X191593554Y-81950471D01*
X191603782Y-81928847D01*
X191616079Y-81908330D01*
X191630329Y-81889117D01*
X191646393Y-81871393D01*
X191664117Y-81855329D01*
X191683330Y-81841079D01*
X191703847Y-81828782D01*
X191725471Y-81818554D01*
X191747993Y-81810496D01*
X191771197Y-81804684D01*
X191794858Y-81801174D01*
X191818750Y-81800000D01*
X192306250Y-81800000D01*
X192330142Y-81801174D01*
X192330142Y-81801174D01*
G37*
D13*
X192062500Y-82500000D03*
D12*
G36*
X194205142Y-81801174D02*
X194228803Y-81804684D01*
X194252007Y-81810496D01*
X194274529Y-81818554D01*
X194296153Y-81828782D01*
X194316670Y-81841079D01*
X194335883Y-81855329D01*
X194353607Y-81871393D01*
X194369671Y-81889117D01*
X194383921Y-81908330D01*
X194396218Y-81928847D01*
X194406446Y-81950471D01*
X194414504Y-81972993D01*
X194420316Y-81996197D01*
X194423826Y-82019858D01*
X194425000Y-82043750D01*
X194425000Y-82956250D01*
X194423826Y-82980142D01*
X194420316Y-83003803D01*
X194414504Y-83027007D01*
X194406446Y-83049529D01*
X194396218Y-83071153D01*
X194383921Y-83091670D01*
X194369671Y-83110883D01*
X194353607Y-83128607D01*
X194335883Y-83144671D01*
X194316670Y-83158921D01*
X194296153Y-83171218D01*
X194274529Y-83181446D01*
X194252007Y-83189504D01*
X194228803Y-83195316D01*
X194205142Y-83198826D01*
X194181250Y-83200000D01*
X193693750Y-83200000D01*
X193669858Y-83198826D01*
X193646197Y-83195316D01*
X193622993Y-83189504D01*
X193600471Y-83181446D01*
X193578847Y-83171218D01*
X193558330Y-83158921D01*
X193539117Y-83144671D01*
X193521393Y-83128607D01*
X193505329Y-83110883D01*
X193491079Y-83091670D01*
X193478782Y-83071153D01*
X193468554Y-83049529D01*
X193460496Y-83027007D01*
X193454684Y-83003803D01*
X193451174Y-82980142D01*
X193450000Y-82956250D01*
X193450000Y-82043750D01*
X193451174Y-82019858D01*
X193454684Y-81996197D01*
X193460496Y-81972993D01*
X193468554Y-81950471D01*
X193478782Y-81928847D01*
X193491079Y-81908330D01*
X193505329Y-81889117D01*
X193521393Y-81871393D01*
X193539117Y-81855329D01*
X193558330Y-81841079D01*
X193578847Y-81828782D01*
X193600471Y-81818554D01*
X193622993Y-81810496D01*
X193646197Y-81804684D01*
X193669858Y-81801174D01*
X193693750Y-81800000D01*
X194181250Y-81800000D01*
X194205142Y-81801174D01*
X194205142Y-81801174D01*
G37*
D13*
X193937500Y-82500000D03*
G04 #@! TD*
D20*
G04 #@! TO.C,Q3*
X193950000Y-75000000D03*
X192050000Y-75000000D03*
X193000000Y-77000000D03*
G04 #@! TD*
D12*
G04 #@! TO.C,R22*
G36*
X194205142Y-78301174D02*
X194228803Y-78304684D01*
X194252007Y-78310496D01*
X194274529Y-78318554D01*
X194296153Y-78328782D01*
X194316670Y-78341079D01*
X194335883Y-78355329D01*
X194353607Y-78371393D01*
X194369671Y-78389117D01*
X194383921Y-78408330D01*
X194396218Y-78428847D01*
X194406446Y-78450471D01*
X194414504Y-78472993D01*
X194420316Y-78496197D01*
X194423826Y-78519858D01*
X194425000Y-78543750D01*
X194425000Y-79456250D01*
X194423826Y-79480142D01*
X194420316Y-79503803D01*
X194414504Y-79527007D01*
X194406446Y-79549529D01*
X194396218Y-79571153D01*
X194383921Y-79591670D01*
X194369671Y-79610883D01*
X194353607Y-79628607D01*
X194335883Y-79644671D01*
X194316670Y-79658921D01*
X194296153Y-79671218D01*
X194274529Y-79681446D01*
X194252007Y-79689504D01*
X194228803Y-79695316D01*
X194205142Y-79698826D01*
X194181250Y-79700000D01*
X193693750Y-79700000D01*
X193669858Y-79698826D01*
X193646197Y-79695316D01*
X193622993Y-79689504D01*
X193600471Y-79681446D01*
X193578847Y-79671218D01*
X193558330Y-79658921D01*
X193539117Y-79644671D01*
X193521393Y-79628607D01*
X193505329Y-79610883D01*
X193491079Y-79591670D01*
X193478782Y-79571153D01*
X193468554Y-79549529D01*
X193460496Y-79527007D01*
X193454684Y-79503803D01*
X193451174Y-79480142D01*
X193450000Y-79456250D01*
X193450000Y-78543750D01*
X193451174Y-78519858D01*
X193454684Y-78496197D01*
X193460496Y-78472993D01*
X193468554Y-78450471D01*
X193478782Y-78428847D01*
X193491079Y-78408330D01*
X193505329Y-78389117D01*
X193521393Y-78371393D01*
X193539117Y-78355329D01*
X193558330Y-78341079D01*
X193578847Y-78328782D01*
X193600471Y-78318554D01*
X193622993Y-78310496D01*
X193646197Y-78304684D01*
X193669858Y-78301174D01*
X193693750Y-78300000D01*
X194181250Y-78300000D01*
X194205142Y-78301174D01*
X194205142Y-78301174D01*
G37*
D13*
X193937500Y-79000000D03*
D12*
G36*
X192330142Y-78301174D02*
X192353803Y-78304684D01*
X192377007Y-78310496D01*
X192399529Y-78318554D01*
X192421153Y-78328782D01*
X192441670Y-78341079D01*
X192460883Y-78355329D01*
X192478607Y-78371393D01*
X192494671Y-78389117D01*
X192508921Y-78408330D01*
X192521218Y-78428847D01*
X192531446Y-78450471D01*
X192539504Y-78472993D01*
X192545316Y-78496197D01*
X192548826Y-78519858D01*
X192550000Y-78543750D01*
X192550000Y-79456250D01*
X192548826Y-79480142D01*
X192545316Y-79503803D01*
X192539504Y-79527007D01*
X192531446Y-79549529D01*
X192521218Y-79571153D01*
X192508921Y-79591670D01*
X192494671Y-79610883D01*
X192478607Y-79628607D01*
X192460883Y-79644671D01*
X192441670Y-79658921D01*
X192421153Y-79671218D01*
X192399529Y-79681446D01*
X192377007Y-79689504D01*
X192353803Y-79695316D01*
X192330142Y-79698826D01*
X192306250Y-79700000D01*
X191818750Y-79700000D01*
X191794858Y-79698826D01*
X191771197Y-79695316D01*
X191747993Y-79689504D01*
X191725471Y-79681446D01*
X191703847Y-79671218D01*
X191683330Y-79658921D01*
X191664117Y-79644671D01*
X191646393Y-79628607D01*
X191630329Y-79610883D01*
X191616079Y-79591670D01*
X191603782Y-79571153D01*
X191593554Y-79549529D01*
X191585496Y-79527007D01*
X191579684Y-79503803D01*
X191576174Y-79480142D01*
X191575000Y-79456250D01*
X191575000Y-78543750D01*
X191576174Y-78519858D01*
X191579684Y-78496197D01*
X191585496Y-78472993D01*
X191593554Y-78450471D01*
X191603782Y-78428847D01*
X191616079Y-78408330D01*
X191630329Y-78389117D01*
X191646393Y-78371393D01*
X191664117Y-78355329D01*
X191683330Y-78341079D01*
X191703847Y-78328782D01*
X191725471Y-78318554D01*
X191747993Y-78310496D01*
X191771197Y-78304684D01*
X191794858Y-78301174D01*
X191818750Y-78300000D01*
X192306250Y-78300000D01*
X192330142Y-78301174D01*
X192330142Y-78301174D01*
G37*
D13*
X192062500Y-79000000D03*
G04 #@! TD*
M02*
