G04 #@! TF.GenerationSoftware,KiCad,Pcbnew,5.0.2+dfsg1-1*
G04 #@! TF.CreationDate,2019-06-09T15:01:45+09:00*
G04 #@! TF.ProjectId,portal_schematic,706f7274-616c-45f7-9363-68656d617469,rev?*
G04 #@! TF.SameCoordinates,Original*
G04 #@! TF.FileFunction,Legend,Top*
G04 #@! TF.FilePolarity,Positive*
%FSLAX46Y46*%
G04 Gerber Fmt 4.6, Leading zero omitted, Abs format (unit mm)*
G04 Created by KiCad (PCBNEW 5.0.2+dfsg1-1) date Sun 09 Jun 2019 03:01:45 PM KST*
%MOMM*%
%LPD*%
G01*
G04 APERTURE LIST*
%ADD10C,0.200000*%
%ADD11C,0.150000*%
%ADD12C,0.120000*%
G04 APERTURE END LIST*
D10*
X139400000Y-108292857D02*
X139400000Y-107092857D01*
X139857142Y-107092857D01*
X139971428Y-107150000D01*
X140028571Y-107207142D01*
X140085714Y-107321428D01*
X140085714Y-107492857D01*
X140028571Y-107607142D01*
X139971428Y-107664285D01*
X139857142Y-107721428D01*
X139400000Y-107721428D01*
X140771428Y-108292857D02*
X140657142Y-108235714D01*
X140600000Y-108178571D01*
X140542857Y-108064285D01*
X140542857Y-107721428D01*
X140600000Y-107607142D01*
X140657142Y-107550000D01*
X140771428Y-107492857D01*
X140942857Y-107492857D01*
X141057142Y-107550000D01*
X141114285Y-107607142D01*
X141171428Y-107721428D01*
X141171428Y-108064285D01*
X141114285Y-108178571D01*
X141057142Y-108235714D01*
X140942857Y-108292857D01*
X140771428Y-108292857D01*
X141685714Y-108292857D02*
X141685714Y-107492857D01*
X141685714Y-107721428D02*
X141742857Y-107607142D01*
X141800000Y-107550000D01*
X141914285Y-107492857D01*
X142028571Y-107492857D01*
X142257142Y-107492857D02*
X142714285Y-107492857D01*
X142428571Y-107092857D02*
X142428571Y-108121428D01*
X142485714Y-108235714D01*
X142600000Y-108292857D01*
X142714285Y-108292857D01*
X143628571Y-108292857D02*
X143628571Y-107664285D01*
X143571428Y-107550000D01*
X143457142Y-107492857D01*
X143228571Y-107492857D01*
X143114285Y-107550000D01*
X143628571Y-108235714D02*
X143514285Y-108292857D01*
X143228571Y-108292857D01*
X143114285Y-108235714D01*
X143057142Y-108121428D01*
X143057142Y-108007142D01*
X143114285Y-107892857D01*
X143228571Y-107835714D01*
X143514285Y-107835714D01*
X143628571Y-107778571D01*
X144371428Y-108292857D02*
X144257142Y-108235714D01*
X144200000Y-108121428D01*
X144200000Y-107092857D01*
X145685714Y-108235714D02*
X145857142Y-108292857D01*
X146142857Y-108292857D01*
X146257142Y-108235714D01*
X146314285Y-108178571D01*
X146371428Y-108064285D01*
X146371428Y-107950000D01*
X146314285Y-107835714D01*
X146257142Y-107778571D01*
X146142857Y-107721428D01*
X145914285Y-107664285D01*
X145800000Y-107607142D01*
X145742857Y-107550000D01*
X145685714Y-107435714D01*
X145685714Y-107321428D01*
X145742857Y-107207142D01*
X145800000Y-107150000D01*
X145914285Y-107092857D01*
X146200000Y-107092857D01*
X146371428Y-107150000D01*
X146885714Y-108292857D02*
X146885714Y-107092857D01*
X147400000Y-108292857D02*
X147400000Y-107664285D01*
X147342857Y-107550000D01*
X147228571Y-107492857D01*
X147057142Y-107492857D01*
X146942857Y-107550000D01*
X146885714Y-107607142D01*
X147971428Y-108292857D02*
X147971428Y-107492857D01*
X147971428Y-107092857D02*
X147914285Y-107150000D01*
X147971428Y-107207142D01*
X148028571Y-107150000D01*
X147971428Y-107092857D01*
X147971428Y-107207142D01*
X149000000Y-108235714D02*
X148885714Y-108292857D01*
X148657142Y-108292857D01*
X148542857Y-108235714D01*
X148485714Y-108121428D01*
X148485714Y-107664285D01*
X148542857Y-107550000D01*
X148657142Y-107492857D01*
X148885714Y-107492857D01*
X149000000Y-107550000D01*
X149057142Y-107664285D01*
X149057142Y-107778571D01*
X148485714Y-107892857D01*
X149742857Y-108292857D02*
X149628571Y-108235714D01*
X149571428Y-108121428D01*
X149571428Y-107092857D01*
X150714285Y-108292857D02*
X150714285Y-107092857D01*
X150714285Y-108235714D02*
X150600000Y-108292857D01*
X150371428Y-108292857D01*
X150257142Y-108235714D01*
X150200000Y-108178571D01*
X150142857Y-108064285D01*
X150142857Y-107721428D01*
X150200000Y-107607142D01*
X150257142Y-107550000D01*
X150371428Y-107492857D01*
X150600000Y-107492857D01*
X150714285Y-107550000D01*
X151628571Y-108750000D02*
X151571428Y-108692857D01*
X151457142Y-108521428D01*
X151400000Y-108407142D01*
X151342857Y-108235714D01*
X151285714Y-107950000D01*
X151285714Y-107721428D01*
X151342857Y-107435714D01*
X151400000Y-107264285D01*
X151457142Y-107150000D01*
X151571428Y-106978571D01*
X151628571Y-106921428D01*
X152028571Y-107950000D02*
X152600000Y-107950000D01*
X151914285Y-108292857D02*
X152314285Y-107092857D01*
X152714285Y-108292857D01*
X153114285Y-108292857D02*
X153114285Y-107492857D01*
X153114285Y-107721428D02*
X153171428Y-107607142D01*
X153228571Y-107550000D01*
X153342857Y-107492857D01*
X153457142Y-107492857D01*
X154371428Y-108292857D02*
X154371428Y-107092857D01*
X154371428Y-108235714D02*
X154257142Y-108292857D01*
X154028571Y-108292857D01*
X153914285Y-108235714D01*
X153857142Y-108178571D01*
X153800000Y-108064285D01*
X153800000Y-107721428D01*
X153857142Y-107607142D01*
X153914285Y-107550000D01*
X154028571Y-107492857D01*
X154257142Y-107492857D01*
X154371428Y-107550000D01*
X155457142Y-107492857D02*
X155457142Y-108292857D01*
X154942857Y-107492857D02*
X154942857Y-108121428D01*
X155000000Y-108235714D01*
X155114285Y-108292857D01*
X155285714Y-108292857D01*
X155400000Y-108235714D01*
X155457142Y-108178571D01*
X156028571Y-108292857D02*
X156028571Y-107492857D01*
X156028571Y-107092857D02*
X155971428Y-107150000D01*
X156028571Y-107207142D01*
X156085714Y-107150000D01*
X156028571Y-107092857D01*
X156028571Y-107207142D01*
X156600000Y-107492857D02*
X156600000Y-108292857D01*
X156600000Y-107607142D02*
X156657142Y-107550000D01*
X156771428Y-107492857D01*
X156942857Y-107492857D01*
X157057142Y-107550000D01*
X157114285Y-107664285D01*
X157114285Y-108292857D01*
X157857142Y-108292857D02*
X157742857Y-108235714D01*
X157685714Y-108178571D01*
X157628571Y-108064285D01*
X157628571Y-107721428D01*
X157685714Y-107607142D01*
X157742857Y-107550000D01*
X157857142Y-107492857D01*
X158028571Y-107492857D01*
X158142857Y-107550000D01*
X158200000Y-107607142D01*
X158257142Y-107721428D01*
X158257142Y-108064285D01*
X158200000Y-108178571D01*
X158142857Y-108235714D01*
X158028571Y-108292857D01*
X157857142Y-108292857D01*
X159685714Y-108292857D02*
X159685714Y-107092857D01*
X159971428Y-107092857D01*
X160142857Y-107150000D01*
X160257142Y-107264285D01*
X160314285Y-107378571D01*
X160371428Y-107607142D01*
X160371428Y-107778571D01*
X160314285Y-108007142D01*
X160257142Y-108121428D01*
X160142857Y-108235714D01*
X159971428Y-108292857D01*
X159685714Y-108292857D01*
X161400000Y-107492857D02*
X161400000Y-108292857D01*
X160885714Y-107492857D02*
X160885714Y-108121428D01*
X160942857Y-108235714D01*
X161057142Y-108292857D01*
X161228571Y-108292857D01*
X161342857Y-108235714D01*
X161400000Y-108178571D01*
X162428571Y-108235714D02*
X162314285Y-108292857D01*
X162085714Y-108292857D01*
X161971428Y-108235714D01*
X161914285Y-108121428D01*
X161914285Y-107664285D01*
X161971428Y-107550000D01*
X162085714Y-107492857D01*
X162314285Y-107492857D01*
X162428571Y-107550000D01*
X162485714Y-107664285D01*
X162485714Y-107778571D01*
X161914285Y-107892857D01*
X162885714Y-108750000D02*
X162942857Y-108692857D01*
X163057142Y-108521428D01*
X163114285Y-108407142D01*
X163171428Y-108235714D01*
X163228571Y-107950000D01*
X163228571Y-107721428D01*
X163171428Y-107435714D01*
X163114285Y-107264285D01*
X163057142Y-107150000D01*
X162942857Y-106978571D01*
X162885714Y-106921428D01*
X164942857Y-107092857D02*
X165057142Y-107092857D01*
X165171428Y-107150000D01*
X165228571Y-107207142D01*
X165285714Y-107321428D01*
X165342857Y-107550000D01*
X165342857Y-107835714D01*
X165285714Y-108064285D01*
X165228571Y-108178571D01*
X165171428Y-108235714D01*
X165057142Y-108292857D01*
X164942857Y-108292857D01*
X164828571Y-108235714D01*
X164771428Y-108178571D01*
X164714285Y-108064285D01*
X164657142Y-107835714D01*
X164657142Y-107550000D01*
X164714285Y-107321428D01*
X164771428Y-107207142D01*
X164828571Y-107150000D01*
X164942857Y-107092857D01*
X165857142Y-108178571D02*
X165914285Y-108235714D01*
X165857142Y-108292857D01*
X165800000Y-108235714D01*
X165857142Y-108178571D01*
X165857142Y-108292857D01*
X167057142Y-108292857D02*
X166371428Y-108292857D01*
X166714285Y-108292857D02*
X166714285Y-107092857D01*
X166600000Y-107264285D01*
X166485714Y-107378571D01*
X166371428Y-107435714D01*
X167571428Y-108178571D02*
X167628571Y-108235714D01*
X167571428Y-108292857D01*
X167514285Y-108235714D01*
X167571428Y-108178571D01*
X167571428Y-108292857D01*
X168371428Y-107092857D02*
X168485714Y-107092857D01*
X168600000Y-107150000D01*
X168657142Y-107207142D01*
X168714285Y-107321428D01*
X168771428Y-107550000D01*
X168771428Y-107835714D01*
X168714285Y-108064285D01*
X168657142Y-108178571D01*
X168600000Y-108235714D01*
X168485714Y-108292857D01*
X168371428Y-108292857D01*
X168257142Y-108235714D01*
X168200000Y-108178571D01*
X168142857Y-108064285D01*
X168085714Y-107835714D01*
X168085714Y-107550000D01*
X168142857Y-107321428D01*
X168200000Y-107207142D01*
X168257142Y-107150000D01*
X168371428Y-107092857D01*
X145228571Y-109207142D02*
X145285714Y-109150000D01*
X145400000Y-109092857D01*
X145685714Y-109092857D01*
X145800000Y-109150000D01*
X145857142Y-109207142D01*
X145914285Y-109321428D01*
X145914285Y-109435714D01*
X145857142Y-109607142D01*
X145171428Y-110292857D01*
X145914285Y-110292857D01*
X146314285Y-110292857D02*
X146942857Y-109492857D01*
X146314285Y-109492857D02*
X146942857Y-110292857D01*
X148085714Y-110292857D02*
X147685714Y-109721428D01*
X147400000Y-110292857D02*
X147400000Y-109092857D01*
X147857142Y-109092857D01*
X147971428Y-109150000D01*
X148028571Y-109207142D01*
X148085714Y-109321428D01*
X148085714Y-109492857D01*
X148028571Y-109607142D01*
X147971428Y-109664285D01*
X147857142Y-109721428D01*
X147400000Y-109721428D01*
X148542857Y-110235714D02*
X148714285Y-110292857D01*
X149000000Y-110292857D01*
X149114285Y-110235714D01*
X149171428Y-110178571D01*
X149228571Y-110064285D01*
X149228571Y-109950000D01*
X149171428Y-109835714D01*
X149114285Y-109778571D01*
X149000000Y-109721428D01*
X148771428Y-109664285D01*
X148657142Y-109607142D01*
X148600000Y-109550000D01*
X148542857Y-109435714D01*
X148542857Y-109321428D01*
X148600000Y-109207142D01*
X148657142Y-109150000D01*
X148771428Y-109092857D01*
X149057142Y-109092857D01*
X149228571Y-109150000D01*
X149685714Y-109207142D02*
X149742857Y-109150000D01*
X149857142Y-109092857D01*
X150142857Y-109092857D01*
X150257142Y-109150000D01*
X150314285Y-109207142D01*
X150371428Y-109321428D01*
X150371428Y-109435714D01*
X150314285Y-109607142D01*
X149628571Y-110292857D01*
X150371428Y-110292857D01*
X150771428Y-109092857D02*
X151514285Y-109092857D01*
X151114285Y-109550000D01*
X151285714Y-109550000D01*
X151400000Y-109607142D01*
X151457142Y-109664285D01*
X151514285Y-109778571D01*
X151514285Y-110064285D01*
X151457142Y-110178571D01*
X151400000Y-110235714D01*
X151285714Y-110292857D01*
X150942857Y-110292857D01*
X150828571Y-110235714D01*
X150771428Y-110178571D01*
X151971428Y-109207142D02*
X152028571Y-109150000D01*
X152142857Y-109092857D01*
X152428571Y-109092857D01*
X152542857Y-109150000D01*
X152600000Y-109207142D01*
X152657142Y-109321428D01*
X152657142Y-109435714D01*
X152600000Y-109607142D01*
X151914285Y-110292857D01*
X152657142Y-110292857D01*
X154028571Y-109035714D02*
X153000000Y-110578571D01*
X155114285Y-110292857D02*
X154714285Y-109721428D01*
X154428571Y-110292857D02*
X154428571Y-109092857D01*
X154885714Y-109092857D01*
X155000000Y-109150000D01*
X155057142Y-109207142D01*
X155114285Y-109321428D01*
X155114285Y-109492857D01*
X155057142Y-109607142D01*
X155000000Y-109664285D01*
X154885714Y-109721428D01*
X154428571Y-109721428D01*
X155571428Y-110235714D02*
X155742857Y-110292857D01*
X156028571Y-110292857D01*
X156142857Y-110235714D01*
X156200000Y-110178571D01*
X156257142Y-110064285D01*
X156257142Y-109950000D01*
X156200000Y-109835714D01*
X156142857Y-109778571D01*
X156028571Y-109721428D01*
X155800000Y-109664285D01*
X155685714Y-109607142D01*
X155628571Y-109550000D01*
X155571428Y-109435714D01*
X155571428Y-109321428D01*
X155628571Y-109207142D01*
X155685714Y-109150000D01*
X155800000Y-109092857D01*
X156085714Y-109092857D01*
X156257142Y-109150000D01*
X157285714Y-109492857D02*
X157285714Y-110292857D01*
X157000000Y-109035714D02*
X156714285Y-109892857D01*
X157457142Y-109892857D01*
X158085714Y-109607142D02*
X157971428Y-109550000D01*
X157914285Y-109492857D01*
X157857142Y-109378571D01*
X157857142Y-109321428D01*
X157914285Y-109207142D01*
X157971428Y-109150000D01*
X158085714Y-109092857D01*
X158314285Y-109092857D01*
X158428571Y-109150000D01*
X158485714Y-109207142D01*
X158542857Y-109321428D01*
X158542857Y-109378571D01*
X158485714Y-109492857D01*
X158428571Y-109550000D01*
X158314285Y-109607142D01*
X158085714Y-109607142D01*
X157971428Y-109664285D01*
X157914285Y-109721428D01*
X157857142Y-109835714D01*
X157857142Y-110064285D01*
X157914285Y-110178571D01*
X157971428Y-110235714D01*
X158085714Y-110292857D01*
X158314285Y-110292857D01*
X158428571Y-110235714D01*
X158485714Y-110178571D01*
X158542857Y-110064285D01*
X158542857Y-109835714D01*
X158485714Y-109721428D01*
X158428571Y-109664285D01*
X158314285Y-109607142D01*
X159628571Y-109092857D02*
X159057142Y-109092857D01*
X159000000Y-109664285D01*
X159057142Y-109607142D01*
X159171428Y-109550000D01*
X159457142Y-109550000D01*
X159571428Y-109607142D01*
X159628571Y-109664285D01*
X159685714Y-109778571D01*
X159685714Y-110064285D01*
X159628571Y-110178571D01*
X159571428Y-110235714D01*
X159457142Y-110292857D01*
X159171428Y-110292857D01*
X159057142Y-110235714D01*
X159000000Y-110178571D01*
X160257142Y-110235714D02*
X160257142Y-110292857D01*
X160200000Y-110407142D01*
X160142857Y-110464285D01*
X161628571Y-109207142D02*
X161685714Y-109150000D01*
X161800000Y-109092857D01*
X162085714Y-109092857D01*
X162200000Y-109150000D01*
X162257142Y-109207142D01*
X162314285Y-109321428D01*
X162314285Y-109435714D01*
X162257142Y-109607142D01*
X161571428Y-110292857D01*
X162314285Y-110292857D01*
X162714285Y-110292857D02*
X163342857Y-109492857D01*
X162714285Y-109492857D02*
X163342857Y-110292857D01*
X163800000Y-110292857D02*
X163800000Y-109092857D01*
X164371428Y-109492857D02*
X164371428Y-110292857D01*
X164371428Y-109607142D02*
X164428571Y-109550000D01*
X164542857Y-109492857D01*
X164714285Y-109492857D01*
X164828571Y-109550000D01*
X164885714Y-109664285D01*
X164885714Y-110292857D01*
X165457142Y-109492857D02*
X165457142Y-110692857D01*
X165457142Y-109550000D02*
X165571428Y-109492857D01*
X165800000Y-109492857D01*
X165914285Y-109550000D01*
X165971428Y-109607142D01*
X166028571Y-109721428D01*
X166028571Y-110064285D01*
X165971428Y-110178571D01*
X165914285Y-110235714D01*
X165800000Y-110292857D01*
X165571428Y-110292857D01*
X165457142Y-110235714D01*
X167057142Y-109492857D02*
X167057142Y-110292857D01*
X166542857Y-109492857D02*
X166542857Y-110121428D01*
X166600000Y-110235714D01*
X166714285Y-110292857D01*
X166885714Y-110292857D01*
X167000000Y-110235714D01*
X167057142Y-110178571D01*
X167457142Y-109492857D02*
X167914285Y-109492857D01*
X167628571Y-109092857D02*
X167628571Y-110121428D01*
X167685714Y-110235714D01*
X167800000Y-110292857D01*
X167914285Y-110292857D01*
X168257142Y-110235714D02*
X168371428Y-110292857D01*
X168600000Y-110292857D01*
X168714285Y-110235714D01*
X168771428Y-110121428D01*
X168771428Y-110064285D01*
X168714285Y-109950000D01*
X168600000Y-109892857D01*
X168428571Y-109892857D01*
X168314285Y-109835714D01*
X168257142Y-109721428D01*
X168257142Y-109664285D01*
X168314285Y-109550000D01*
X168428571Y-109492857D01*
X168600000Y-109492857D01*
X168714285Y-109550000D01*
X145285714Y-112292857D02*
X145285714Y-111092857D01*
X145571428Y-111092857D01*
X145742857Y-111150000D01*
X145857142Y-111264285D01*
X145914285Y-111378571D01*
X145971428Y-111607142D01*
X145971428Y-111778571D01*
X145914285Y-112007142D01*
X145857142Y-112121428D01*
X145742857Y-112235714D01*
X145571428Y-112292857D01*
X145285714Y-112292857D01*
X146942857Y-112235714D02*
X146828571Y-112292857D01*
X146600000Y-112292857D01*
X146485714Y-112235714D01*
X146428571Y-112121428D01*
X146428571Y-111664285D01*
X146485714Y-111550000D01*
X146600000Y-111492857D01*
X146828571Y-111492857D01*
X146942857Y-111550000D01*
X147000000Y-111664285D01*
X147000000Y-111778571D01*
X146428571Y-111892857D01*
X147457142Y-112235714D02*
X147571428Y-112292857D01*
X147800000Y-112292857D01*
X147914285Y-112235714D01*
X147971428Y-112121428D01*
X147971428Y-112064285D01*
X147914285Y-111950000D01*
X147800000Y-111892857D01*
X147628571Y-111892857D01*
X147514285Y-111835714D01*
X147457142Y-111721428D01*
X147457142Y-111664285D01*
X147514285Y-111550000D01*
X147628571Y-111492857D01*
X147800000Y-111492857D01*
X147914285Y-111550000D01*
X148485714Y-112292857D02*
X148485714Y-111492857D01*
X148485714Y-111092857D02*
X148428571Y-111150000D01*
X148485714Y-111207142D01*
X148542857Y-111150000D01*
X148485714Y-111092857D01*
X148485714Y-111207142D01*
X149571428Y-111492857D02*
X149571428Y-112464285D01*
X149514285Y-112578571D01*
X149457142Y-112635714D01*
X149342857Y-112692857D01*
X149171428Y-112692857D01*
X149057142Y-112635714D01*
X149571428Y-112235714D02*
X149457142Y-112292857D01*
X149228571Y-112292857D01*
X149114285Y-112235714D01*
X149057142Y-112178571D01*
X149000000Y-112064285D01*
X149000000Y-111721428D01*
X149057142Y-111607142D01*
X149114285Y-111550000D01*
X149228571Y-111492857D01*
X149457142Y-111492857D01*
X149571428Y-111550000D01*
X150142857Y-111492857D02*
X150142857Y-112292857D01*
X150142857Y-111607142D02*
X150200000Y-111550000D01*
X150314285Y-111492857D01*
X150485714Y-111492857D01*
X150600000Y-111550000D01*
X150657142Y-111664285D01*
X150657142Y-112292857D01*
X151685714Y-112235714D02*
X151571428Y-112292857D01*
X151342857Y-112292857D01*
X151228571Y-112235714D01*
X151171428Y-112121428D01*
X151171428Y-111664285D01*
X151228571Y-111550000D01*
X151342857Y-111492857D01*
X151571428Y-111492857D01*
X151685714Y-111550000D01*
X151742857Y-111664285D01*
X151742857Y-111778571D01*
X151171428Y-111892857D01*
X152771428Y-112292857D02*
X152771428Y-111092857D01*
X152771428Y-112235714D02*
X152657142Y-112292857D01*
X152428571Y-112292857D01*
X152314285Y-112235714D01*
X152257142Y-112178571D01*
X152200000Y-112064285D01*
X152200000Y-111721428D01*
X152257142Y-111607142D01*
X152314285Y-111550000D01*
X152428571Y-111492857D01*
X152657142Y-111492857D01*
X152771428Y-111550000D01*
X154257142Y-112292857D02*
X154257142Y-111092857D01*
X154257142Y-111550000D02*
X154371428Y-111492857D01*
X154600000Y-111492857D01*
X154714285Y-111550000D01*
X154771428Y-111607142D01*
X154828571Y-111721428D01*
X154828571Y-112064285D01*
X154771428Y-112178571D01*
X154714285Y-112235714D01*
X154600000Y-112292857D01*
X154371428Y-112292857D01*
X154257142Y-112235714D01*
X155228571Y-111492857D02*
X155514285Y-112292857D01*
X155800000Y-111492857D02*
X155514285Y-112292857D01*
X155400000Y-112578571D01*
X155342857Y-112635714D01*
X155228571Y-112692857D01*
X157171428Y-112292857D02*
X157171428Y-111092857D01*
X157171428Y-111664285D02*
X157857142Y-111664285D01*
X157857142Y-112292857D02*
X157857142Y-111092857D01*
X158600000Y-112292857D02*
X158485714Y-112235714D01*
X158428571Y-112178571D01*
X158371428Y-112064285D01*
X158371428Y-111721428D01*
X158428571Y-111607142D01*
X158485714Y-111550000D01*
X158600000Y-111492857D01*
X158771428Y-111492857D01*
X158885714Y-111550000D01*
X158942857Y-111607142D01*
X159000000Y-111721428D01*
X159000000Y-112064285D01*
X158942857Y-112178571D01*
X158885714Y-112235714D01*
X158771428Y-112292857D01*
X158600000Y-112292857D01*
X159400000Y-111492857D02*
X159685714Y-112292857D01*
X159971428Y-111492857D02*
X159685714Y-112292857D01*
X159571428Y-112578571D01*
X159514285Y-112635714D01*
X159400000Y-112692857D01*
X160600000Y-112292857D02*
X160485714Y-112235714D01*
X160428571Y-112178571D01*
X160371428Y-112064285D01*
X160371428Y-111721428D01*
X160428571Y-111607142D01*
X160485714Y-111550000D01*
X160600000Y-111492857D01*
X160771428Y-111492857D01*
X160885714Y-111550000D01*
X160942857Y-111607142D01*
X161000000Y-111721428D01*
X161000000Y-112064285D01*
X160942857Y-112178571D01*
X160885714Y-112235714D01*
X160771428Y-112292857D01*
X160600000Y-112292857D01*
X162028571Y-111492857D02*
X162028571Y-112292857D01*
X161514285Y-111492857D02*
X161514285Y-112121428D01*
X161571428Y-112235714D01*
X161685714Y-112292857D01*
X161857142Y-112292857D01*
X161971428Y-112235714D01*
X162028571Y-112178571D01*
X162600000Y-111492857D02*
X162600000Y-112292857D01*
X162600000Y-111607142D02*
X162657142Y-111550000D01*
X162771428Y-111492857D01*
X162942857Y-111492857D01*
X163057142Y-111550000D01*
X163114285Y-111664285D01*
X163114285Y-112292857D01*
X164200000Y-111492857D02*
X164200000Y-112464285D01*
X164142857Y-112578571D01*
X164085714Y-112635714D01*
X163971428Y-112692857D01*
X163800000Y-112692857D01*
X163685714Y-112635714D01*
X164200000Y-112235714D02*
X164085714Y-112292857D01*
X163857142Y-112292857D01*
X163742857Y-112235714D01*
X163685714Y-112178571D01*
X163628571Y-112064285D01*
X163628571Y-111721428D01*
X163685714Y-111607142D01*
X163742857Y-111550000D01*
X163857142Y-111492857D01*
X164085714Y-111492857D01*
X164200000Y-111550000D01*
X166257142Y-112292857D02*
X165685714Y-112292857D01*
X165685714Y-111092857D01*
X167114285Y-112235714D02*
X167000000Y-112292857D01*
X166771428Y-112292857D01*
X166657142Y-112235714D01*
X166600000Y-112121428D01*
X166600000Y-111664285D01*
X166657142Y-111550000D01*
X166771428Y-111492857D01*
X167000000Y-111492857D01*
X167114285Y-111550000D01*
X167171428Y-111664285D01*
X167171428Y-111778571D01*
X166600000Y-111892857D01*
X168142857Y-112235714D02*
X168028571Y-112292857D01*
X167800000Y-112292857D01*
X167685714Y-112235714D01*
X167628571Y-112121428D01*
X167628571Y-111664285D01*
X167685714Y-111550000D01*
X167800000Y-111492857D01*
X168028571Y-111492857D01*
X168142857Y-111550000D01*
X168200000Y-111664285D01*
X168200000Y-111778571D01*
X167628571Y-111892857D01*
X168714285Y-112178571D02*
X168771428Y-112235714D01*
X168714285Y-112292857D01*
X168657142Y-112235714D01*
X168714285Y-112178571D01*
X168714285Y-112292857D01*
X157114285Y-113207142D02*
X157171428Y-113150000D01*
X157285714Y-113092857D01*
X157571428Y-113092857D01*
X157685714Y-113150000D01*
X157742857Y-113207142D01*
X157800000Y-113321428D01*
X157800000Y-113435714D01*
X157742857Y-113607142D01*
X157057142Y-114292857D01*
X157800000Y-114292857D01*
X158542857Y-113092857D02*
X158657142Y-113092857D01*
X158771428Y-113150000D01*
X158828571Y-113207142D01*
X158885714Y-113321428D01*
X158942857Y-113550000D01*
X158942857Y-113835714D01*
X158885714Y-114064285D01*
X158828571Y-114178571D01*
X158771428Y-114235714D01*
X158657142Y-114292857D01*
X158542857Y-114292857D01*
X158428571Y-114235714D01*
X158371428Y-114178571D01*
X158314285Y-114064285D01*
X158257142Y-113835714D01*
X158257142Y-113550000D01*
X158314285Y-113321428D01*
X158371428Y-113207142D01*
X158428571Y-113150000D01*
X158542857Y-113092857D01*
X160085714Y-114292857D02*
X159400000Y-114292857D01*
X159742857Y-114292857D02*
X159742857Y-113092857D01*
X159628571Y-113264285D01*
X159514285Y-113378571D01*
X159400000Y-113435714D01*
X160657142Y-114292857D02*
X160885714Y-114292857D01*
X161000000Y-114235714D01*
X161057142Y-114178571D01*
X161171428Y-114007142D01*
X161228571Y-113778571D01*
X161228571Y-113321428D01*
X161171428Y-113207142D01*
X161114285Y-113150000D01*
X161000000Y-113092857D01*
X160771428Y-113092857D01*
X160657142Y-113150000D01*
X160600000Y-113207142D01*
X160542857Y-113321428D01*
X160542857Y-113607142D01*
X160600000Y-113721428D01*
X160657142Y-113778571D01*
X160771428Y-113835714D01*
X161000000Y-113835714D01*
X161114285Y-113778571D01*
X161171428Y-113721428D01*
X161228571Y-113607142D01*
X161742857Y-113835714D02*
X162657142Y-113835714D01*
X163457142Y-113092857D02*
X163571428Y-113092857D01*
X163685714Y-113150000D01*
X163742857Y-113207142D01*
X163800000Y-113321428D01*
X163857142Y-113550000D01*
X163857142Y-113835714D01*
X163800000Y-114064285D01*
X163742857Y-114178571D01*
X163685714Y-114235714D01*
X163571428Y-114292857D01*
X163457142Y-114292857D01*
X163342857Y-114235714D01*
X163285714Y-114178571D01*
X163228571Y-114064285D01*
X163171428Y-113835714D01*
X163171428Y-113550000D01*
X163228571Y-113321428D01*
X163285714Y-113207142D01*
X163342857Y-113150000D01*
X163457142Y-113092857D01*
X164885714Y-113092857D02*
X164657142Y-113092857D01*
X164542857Y-113150000D01*
X164485714Y-113207142D01*
X164371428Y-113378571D01*
X164314285Y-113607142D01*
X164314285Y-114064285D01*
X164371428Y-114178571D01*
X164428571Y-114235714D01*
X164542857Y-114292857D01*
X164771428Y-114292857D01*
X164885714Y-114235714D01*
X164942857Y-114178571D01*
X165000000Y-114064285D01*
X165000000Y-113778571D01*
X164942857Y-113664285D01*
X164885714Y-113607142D01*
X164771428Y-113550000D01*
X164542857Y-113550000D01*
X164428571Y-113607142D01*
X164371428Y-113664285D01*
X164314285Y-113778571D01*
X165514285Y-113835714D02*
X166428571Y-113835714D01*
X167228571Y-113092857D02*
X167342857Y-113092857D01*
X167457142Y-113150000D01*
X167514285Y-113207142D01*
X167571428Y-113321428D01*
X167628571Y-113550000D01*
X167628571Y-113835714D01*
X167571428Y-114064285D01*
X167514285Y-114178571D01*
X167457142Y-114235714D01*
X167342857Y-114292857D01*
X167228571Y-114292857D01*
X167114285Y-114235714D01*
X167057142Y-114178571D01*
X167000000Y-114064285D01*
X166942857Y-113835714D01*
X166942857Y-113550000D01*
X167000000Y-113321428D01*
X167057142Y-113207142D01*
X167114285Y-113150000D01*
X167228571Y-113092857D01*
X168028571Y-113092857D02*
X168828571Y-113092857D01*
X168314285Y-114292857D01*
D11*
X116147619Y-105385714D02*
X116147619Y-104814285D01*
X116147619Y-105100000D02*
X117147619Y-105100000D01*
X117004761Y-105004761D01*
X116909523Y-104909523D01*
X116861904Y-104814285D01*
X117052380Y-105766666D02*
X117100000Y-105814285D01*
X117147619Y-105909523D01*
X117147619Y-106147619D01*
X117100000Y-106242857D01*
X117052380Y-106290476D01*
X116957142Y-106338095D01*
X116861904Y-106338095D01*
X116719047Y-106290476D01*
X116147619Y-105719047D01*
X116147619Y-106338095D01*
X116814285Y-106671428D02*
X116147619Y-106909523D01*
X116814285Y-107147619D01*
X117195238Y-108242857D02*
X115909523Y-107385714D01*
X116195238Y-108528571D02*
X116147619Y-108671428D01*
X116147619Y-108909523D01*
X116195238Y-109004761D01*
X116242857Y-109052380D01*
X116338095Y-109100000D01*
X116433333Y-109100000D01*
X116528571Y-109052380D01*
X116576190Y-109004761D01*
X116623809Y-108909523D01*
X116671428Y-108719047D01*
X116719047Y-108623809D01*
X116766666Y-108576190D01*
X116861904Y-108528571D01*
X116957142Y-108528571D01*
X117052380Y-108576190D01*
X117100000Y-108623809D01*
X117147619Y-108719047D01*
X117147619Y-108957142D01*
X117100000Y-109100000D01*
X116814285Y-109433333D02*
X116147619Y-109671428D01*
X116814285Y-109909523D02*
X116147619Y-109671428D01*
X115909523Y-109576190D01*
X115861904Y-109528571D01*
X115814285Y-109433333D01*
X116814285Y-110290476D02*
X116147619Y-110290476D01*
X116719047Y-110290476D02*
X116766666Y-110338095D01*
X116814285Y-110433333D01*
X116814285Y-110576190D01*
X116766666Y-110671428D01*
X116671428Y-110719047D01*
X116147619Y-110719047D01*
X116195238Y-111623809D02*
X116147619Y-111528571D01*
X116147619Y-111338095D01*
X116195238Y-111242857D01*
X116242857Y-111195238D01*
X116338095Y-111147619D01*
X116623809Y-111147619D01*
X116719047Y-111195238D01*
X116766666Y-111242857D01*
X116814285Y-111338095D01*
X116814285Y-111528571D01*
X116766666Y-111623809D01*
X117195238Y-112766666D02*
X115909523Y-111909523D01*
X117147619Y-113290476D02*
X117147619Y-113385714D01*
X117100000Y-113480952D01*
X117052380Y-113528571D01*
X116957142Y-113576190D01*
X116766666Y-113623809D01*
X116528571Y-113623809D01*
X116338095Y-113576190D01*
X116242857Y-113528571D01*
X116195238Y-113480952D01*
X116147619Y-113385714D01*
X116147619Y-113290476D01*
X116195238Y-113195238D01*
X116242857Y-113147619D01*
X116338095Y-113100000D01*
X116528571Y-113052380D01*
X116766666Y-113052380D01*
X116957142Y-113100000D01*
X117052380Y-113147619D01*
X117100000Y-113195238D01*
X117147619Y-113290476D01*
X116814285Y-113957142D02*
X116147619Y-114195238D01*
X116814285Y-114433333D01*
X116528571Y-97990476D02*
X116528571Y-98752380D01*
X116147619Y-98371428D02*
X116909523Y-98371428D01*
X117195238Y-99942857D02*
X115909523Y-99085714D01*
X116528571Y-100276190D02*
X116528571Y-101038095D01*
X116433333Y-101466666D02*
X116433333Y-101942857D01*
X116147619Y-101371428D02*
X117147619Y-101704761D01*
X116147619Y-102038095D01*
X117147619Y-102228571D02*
X117147619Y-102800000D01*
X116147619Y-102514285D02*
X117147619Y-102514285D01*
X117147619Y-103038095D02*
X116147619Y-103704761D01*
X117147619Y-103704761D02*
X116147619Y-103038095D01*
X116533333Y-78004761D02*
X116533333Y-78480952D01*
X116247619Y-77909523D02*
X117247619Y-78242857D01*
X116247619Y-78576190D01*
X117152380Y-78861904D02*
X117200000Y-78909523D01*
X117247619Y-79004761D01*
X117247619Y-79242857D01*
X117200000Y-79338095D01*
X117152380Y-79385714D01*
X117057142Y-79433333D01*
X116961904Y-79433333D01*
X116819047Y-79385714D01*
X116247619Y-78814285D01*
X116247619Y-79433333D01*
X117295238Y-80576190D02*
X116009523Y-79719047D01*
X116771428Y-81242857D02*
X116723809Y-81385714D01*
X116676190Y-81433333D01*
X116580952Y-81480952D01*
X116438095Y-81480952D01*
X116342857Y-81433333D01*
X116295238Y-81385714D01*
X116247619Y-81290476D01*
X116247619Y-80909523D01*
X117247619Y-80909523D01*
X117247619Y-81242857D01*
X117200000Y-81338095D01*
X117152380Y-81385714D01*
X117057142Y-81433333D01*
X116961904Y-81433333D01*
X116866666Y-81385714D01*
X116819047Y-81338095D01*
X116771428Y-81242857D01*
X116771428Y-80909523D01*
X117152380Y-81861904D02*
X117200000Y-81909523D01*
X117247619Y-82004761D01*
X117247619Y-82242857D01*
X117200000Y-82338095D01*
X117152380Y-82385714D01*
X117057142Y-82433333D01*
X116961904Y-82433333D01*
X116819047Y-82385714D01*
X116247619Y-81814285D01*
X116247619Y-82433333D01*
X117295238Y-83576190D02*
X116009523Y-82719047D01*
X117247619Y-84100000D02*
X117247619Y-84195238D01*
X117200000Y-84290476D01*
X117152380Y-84338095D01*
X117057142Y-84385714D01*
X116866666Y-84433333D01*
X116628571Y-84433333D01*
X116438095Y-84385714D01*
X116342857Y-84338095D01*
X116295238Y-84290476D01*
X116247619Y-84195238D01*
X116247619Y-84100000D01*
X116295238Y-84004761D01*
X116342857Y-83957142D01*
X116438095Y-83909523D01*
X116628571Y-83861904D01*
X116866666Y-83861904D01*
X117057142Y-83909523D01*
X117152380Y-83957142D01*
X117200000Y-84004761D01*
X117247619Y-84100000D01*
X116914285Y-84766666D02*
X116247619Y-85004761D01*
X116914285Y-85242857D01*
X127697619Y-74228571D02*
X128697619Y-74228571D01*
X128697619Y-74609523D01*
X128650000Y-74704761D01*
X128602380Y-74752380D01*
X128507142Y-74800000D01*
X128364285Y-74800000D01*
X128269047Y-74752380D01*
X128221428Y-74704761D01*
X128173809Y-74609523D01*
X128173809Y-74228571D01*
X127792857Y-75228571D02*
X127745238Y-75276190D01*
X127697619Y-75228571D01*
X127745238Y-75180952D01*
X127792857Y-75228571D01*
X127697619Y-75228571D01*
X128697619Y-75704761D02*
X127888095Y-75704761D01*
X127792857Y-75752380D01*
X127745238Y-75800000D01*
X127697619Y-75895238D01*
X127697619Y-76085714D01*
X127745238Y-76180952D01*
X127792857Y-76228571D01*
X127888095Y-76276190D01*
X128697619Y-76276190D01*
X128364285Y-76752380D02*
X127364285Y-76752380D01*
X128316666Y-76752380D02*
X128364285Y-76847619D01*
X128364285Y-77038095D01*
X128316666Y-77133333D01*
X128269047Y-77180952D01*
X128173809Y-77228571D01*
X127888095Y-77228571D01*
X127792857Y-77180952D01*
X127745238Y-77133333D01*
X127697619Y-77038095D01*
X127697619Y-76847619D01*
X127745238Y-76752380D01*
X128745238Y-78371428D02*
X127459523Y-77514285D01*
X128697619Y-78561904D02*
X128697619Y-79133333D01*
X127697619Y-78847619D02*
X128697619Y-78847619D01*
X127745238Y-79847619D02*
X127697619Y-79752380D01*
X127697619Y-79561904D01*
X127745238Y-79466666D01*
X127840476Y-79419047D01*
X128221428Y-79419047D01*
X128316666Y-79466666D01*
X128364285Y-79561904D01*
X128364285Y-79752380D01*
X128316666Y-79847619D01*
X128221428Y-79895238D01*
X128126190Y-79895238D01*
X128030952Y-79419047D01*
X127697619Y-80323809D02*
X128364285Y-80323809D01*
X128173809Y-80323809D02*
X128269047Y-80371428D01*
X128316666Y-80419047D01*
X128364285Y-80514285D01*
X128364285Y-80609523D01*
X127792857Y-80942857D02*
X127745238Y-80990476D01*
X127697619Y-80942857D01*
X127745238Y-80895238D01*
X127792857Y-80942857D01*
X127697619Y-80942857D01*
X128745238Y-82133333D02*
X127459523Y-81276190D01*
X127697619Y-82466666D02*
X128697619Y-82466666D01*
X128697619Y-82847619D01*
X128650000Y-82942857D01*
X128602380Y-82990476D01*
X128507142Y-83038095D01*
X128364285Y-83038095D01*
X128269047Y-82990476D01*
X128221428Y-82942857D01*
X128173809Y-82847619D01*
X128173809Y-82466666D01*
X127792857Y-83466666D02*
X127745238Y-83514285D01*
X127697619Y-83466666D01*
X127745238Y-83419047D01*
X127792857Y-83466666D01*
X127697619Y-83466666D01*
X127697619Y-83942857D02*
X128697619Y-83942857D01*
X128697619Y-84180952D01*
X128650000Y-84323809D01*
X128554761Y-84419047D01*
X128459523Y-84466666D01*
X128269047Y-84514285D01*
X128126190Y-84514285D01*
X127935714Y-84466666D01*
X127840476Y-84419047D01*
X127745238Y-84323809D01*
X127697619Y-84180952D01*
X127697619Y-83942857D01*
X128364285Y-84942857D02*
X127697619Y-84942857D01*
X128269047Y-84942857D02*
X128316666Y-84990476D01*
X128364285Y-85085714D01*
X128364285Y-85228571D01*
X128316666Y-85323809D01*
X128221428Y-85371428D01*
X127697619Y-85371428D01*
X141595238Y-83535714D02*
X141595238Y-84202380D01*
X141357142Y-83154761D02*
X141119047Y-83869047D01*
X141738095Y-83869047D01*
X142261904Y-83630952D02*
X142166666Y-83583333D01*
X142119047Y-83535714D01*
X142071428Y-83440476D01*
X142071428Y-83392857D01*
X142119047Y-83297619D01*
X142166666Y-83250000D01*
X142261904Y-83202380D01*
X142452380Y-83202380D01*
X142547619Y-83250000D01*
X142595238Y-83297619D01*
X142642857Y-83392857D01*
X142642857Y-83440476D01*
X142595238Y-83535714D01*
X142547619Y-83583333D01*
X142452380Y-83630952D01*
X142261904Y-83630952D01*
X142166666Y-83678571D01*
X142119047Y-83726190D01*
X142071428Y-83821428D01*
X142071428Y-84011904D01*
X142119047Y-84107142D01*
X142166666Y-84154761D01*
X142261904Y-84202380D01*
X142452380Y-84202380D01*
X142547619Y-84154761D01*
X142595238Y-84107142D01*
X142642857Y-84011904D01*
X142642857Y-83821428D01*
X142595238Y-83726190D01*
X142547619Y-83678571D01*
X142452380Y-83630952D01*
X143547619Y-83202380D02*
X143071428Y-83202380D01*
X143023809Y-83678571D01*
X143071428Y-83630952D01*
X143166666Y-83583333D01*
X143404761Y-83583333D01*
X143500000Y-83630952D01*
X143547619Y-83678571D01*
X143595238Y-83773809D01*
X143595238Y-84011904D01*
X143547619Y-84107142D01*
X143500000Y-84154761D01*
X143404761Y-84202380D01*
X143166666Y-84202380D01*
X143071428Y-84154761D01*
X143023809Y-84107142D01*
X144023809Y-83821428D02*
X144785714Y-83821428D01*
X145214285Y-83297619D02*
X145261904Y-83250000D01*
X145357142Y-83202380D01*
X145595238Y-83202380D01*
X145690476Y-83250000D01*
X145738095Y-83297619D01*
X145785714Y-83392857D01*
X145785714Y-83488095D01*
X145738095Y-83630952D01*
X145166666Y-84202380D01*
X145785714Y-84202380D01*
X146928571Y-83154761D02*
X146071428Y-84440476D01*
X147214285Y-83297619D02*
X147261904Y-83250000D01*
X147357142Y-83202380D01*
X147595238Y-83202380D01*
X147690476Y-83250000D01*
X147738095Y-83297619D01*
X147785714Y-83392857D01*
X147785714Y-83488095D01*
X147738095Y-83630952D01*
X147166666Y-84202380D01*
X147785714Y-84202380D01*
X148119047Y-83202380D02*
X148738095Y-83202380D01*
X148404761Y-83583333D01*
X148547619Y-83583333D01*
X148642857Y-83630952D01*
X148690476Y-83678571D01*
X148738095Y-83773809D01*
X148738095Y-84011904D01*
X148690476Y-84107142D01*
X148642857Y-84154761D01*
X148547619Y-84202380D01*
X148261904Y-84202380D01*
X148166666Y-84154761D01*
X148119047Y-84107142D01*
X149119047Y-83297619D02*
X149166666Y-83250000D01*
X149261904Y-83202380D01*
X149500000Y-83202380D01*
X149595238Y-83250000D01*
X149642857Y-83297619D01*
X149690476Y-83392857D01*
X149690476Y-83488095D01*
X149642857Y-83630952D01*
X149071428Y-84202380D01*
X149690476Y-84202380D01*
X150119047Y-83821428D02*
X150880952Y-83821428D01*
X151309523Y-83297619D02*
X151357142Y-83250000D01*
X151452380Y-83202380D01*
X151690476Y-83202380D01*
X151785714Y-83250000D01*
X151833333Y-83297619D01*
X151880952Y-83392857D01*
X151880952Y-83488095D01*
X151833333Y-83630952D01*
X151261904Y-84202380D01*
X151880952Y-84202380D01*
X142654761Y-88666666D02*
X143130952Y-88666666D01*
X142559523Y-88952380D02*
X142892857Y-87952380D01*
X143226190Y-88952380D01*
X143988095Y-88285714D02*
X143988095Y-88952380D01*
X143559523Y-88285714D02*
X143559523Y-88809523D01*
X143607142Y-88904761D01*
X143702380Y-88952380D01*
X143845238Y-88952380D01*
X143940476Y-88904761D01*
X143988095Y-88857142D01*
X144321428Y-88285714D02*
X144702380Y-88285714D01*
X144464285Y-87952380D02*
X144464285Y-88809523D01*
X144511904Y-88904761D01*
X144607142Y-88952380D01*
X144702380Y-88952380D01*
X145178571Y-88952380D02*
X145083333Y-88904761D01*
X145035714Y-88857142D01*
X144988095Y-88761904D01*
X144988095Y-88476190D01*
X145035714Y-88380952D01*
X145083333Y-88333333D01*
X145178571Y-88285714D01*
X145321428Y-88285714D01*
X145416666Y-88333333D01*
X145464285Y-88380952D01*
X145511904Y-88476190D01*
X145511904Y-88761904D01*
X145464285Y-88857142D01*
X145416666Y-88904761D01*
X145321428Y-88952380D01*
X145178571Y-88952380D01*
X146654761Y-87904761D02*
X145797619Y-89190476D01*
X146988095Y-88952380D02*
X146988095Y-87952380D01*
X147321428Y-88666666D01*
X147654761Y-87952380D01*
X147654761Y-88952380D01*
X148559523Y-88952380D02*
X148559523Y-88428571D01*
X148511904Y-88333333D01*
X148416666Y-88285714D01*
X148226190Y-88285714D01*
X148130952Y-88333333D01*
X148559523Y-88904761D02*
X148464285Y-88952380D01*
X148226190Y-88952380D01*
X148130952Y-88904761D01*
X148083333Y-88809523D01*
X148083333Y-88714285D01*
X148130952Y-88619047D01*
X148226190Y-88571428D01*
X148464285Y-88571428D01*
X148559523Y-88523809D01*
X149035714Y-88285714D02*
X149035714Y-88952380D01*
X149035714Y-88380952D02*
X149083333Y-88333333D01*
X149178571Y-88285714D01*
X149321428Y-88285714D01*
X149416666Y-88333333D01*
X149464285Y-88428571D01*
X149464285Y-88952380D01*
X150369047Y-88285714D02*
X150369047Y-88952380D01*
X149940476Y-88285714D02*
X149940476Y-88809523D01*
X149988095Y-88904761D01*
X150083333Y-88952380D01*
X150226190Y-88952380D01*
X150321428Y-88904761D01*
X150369047Y-88857142D01*
X151273809Y-88952380D02*
X151273809Y-88428571D01*
X151226190Y-88333333D01*
X151130952Y-88285714D01*
X150940476Y-88285714D01*
X150845238Y-88333333D01*
X151273809Y-88904761D02*
X151178571Y-88952380D01*
X150940476Y-88952380D01*
X150845238Y-88904761D01*
X150797619Y-88809523D01*
X150797619Y-88714285D01*
X150845238Y-88619047D01*
X150940476Y-88571428D01*
X151178571Y-88571428D01*
X151273809Y-88523809D01*
X151892857Y-88952380D02*
X151797619Y-88904761D01*
X151750000Y-88809523D01*
X151750000Y-87952380D01*
X171761904Y-80202380D02*
X172333333Y-80202380D01*
X172047619Y-81202380D02*
X172047619Y-80202380D01*
X172571428Y-80202380D02*
X173238095Y-81202380D01*
X173238095Y-80202380D02*
X172571428Y-81202380D01*
X173571428Y-80297619D02*
X173619047Y-80250000D01*
X173714285Y-80202380D01*
X173952380Y-80202380D01*
X174047619Y-80250000D01*
X174095238Y-80297619D01*
X174142857Y-80392857D01*
X174142857Y-80488095D01*
X174095238Y-80630952D01*
X173523809Y-81202380D01*
X174142857Y-81202380D01*
X173309523Y-85952380D02*
X172976190Y-85476190D01*
X172738095Y-85952380D02*
X172738095Y-84952380D01*
X173119047Y-84952380D01*
X173214285Y-85000000D01*
X173261904Y-85047619D01*
X173309523Y-85142857D01*
X173309523Y-85285714D01*
X173261904Y-85380952D01*
X173214285Y-85428571D01*
X173119047Y-85476190D01*
X172738095Y-85476190D01*
X173690476Y-85904761D02*
X173833333Y-85952380D01*
X174071428Y-85952380D01*
X174166666Y-85904761D01*
X174214285Y-85857142D01*
X174261904Y-85761904D01*
X174261904Y-85666666D01*
X174214285Y-85571428D01*
X174166666Y-85523809D01*
X174071428Y-85476190D01*
X173880952Y-85428571D01*
X173785714Y-85380952D01*
X173738095Y-85333333D01*
X173690476Y-85238095D01*
X173690476Y-85142857D01*
X173738095Y-85047619D01*
X173785714Y-85000000D01*
X173880952Y-84952380D01*
X174119047Y-84952380D01*
X174261904Y-85000000D01*
X174642857Y-85047619D02*
X174690476Y-85000000D01*
X174785714Y-84952380D01*
X175023809Y-84952380D01*
X175119047Y-85000000D01*
X175166666Y-85047619D01*
X175214285Y-85142857D01*
X175214285Y-85238095D01*
X175166666Y-85380952D01*
X174595238Y-85952380D01*
X175214285Y-85952380D01*
X175547619Y-84952380D02*
X176166666Y-84952380D01*
X175833333Y-85333333D01*
X175976190Y-85333333D01*
X176071428Y-85380952D01*
X176119047Y-85428571D01*
X176166666Y-85523809D01*
X176166666Y-85761904D01*
X176119047Y-85857142D01*
X176071428Y-85904761D01*
X175976190Y-85952380D01*
X175690476Y-85952380D01*
X175595238Y-85904761D01*
X175547619Y-85857142D01*
X176547619Y-85047619D02*
X176595238Y-85000000D01*
X176690476Y-84952380D01*
X176928571Y-84952380D01*
X177023809Y-85000000D01*
X177071428Y-85047619D01*
X177119047Y-85142857D01*
X177119047Y-85238095D01*
X177071428Y-85380952D01*
X176500000Y-85952380D01*
X177119047Y-85952380D01*
X177547619Y-85571428D02*
X178309523Y-85571428D01*
X178738095Y-85047619D02*
X178785714Y-85000000D01*
X178880952Y-84952380D01*
X179119047Y-84952380D01*
X179214285Y-85000000D01*
X179261904Y-85047619D01*
X179309523Y-85142857D01*
X179309523Y-85238095D01*
X179261904Y-85380952D01*
X178690476Y-85952380D01*
X179309523Y-85952380D01*
X176357142Y-81202380D02*
X176023809Y-80726190D01*
X175785714Y-81202380D02*
X175785714Y-80202380D01*
X176166666Y-80202380D01*
X176261904Y-80250000D01*
X176309523Y-80297619D01*
X176357142Y-80392857D01*
X176357142Y-80535714D01*
X176309523Y-80630952D01*
X176261904Y-80678571D01*
X176166666Y-80726190D01*
X175785714Y-80726190D01*
X176690476Y-80202380D02*
X177357142Y-81202380D01*
X177357142Y-80202380D02*
X176690476Y-81202380D01*
X177690476Y-80297619D02*
X177738095Y-80250000D01*
X177833333Y-80202380D01*
X178071428Y-80202380D01*
X178166666Y-80250000D01*
X178214285Y-80297619D01*
X178261904Y-80392857D01*
X178261904Y-80488095D01*
X178214285Y-80630952D01*
X177642857Y-81202380D01*
X178261904Y-81202380D01*
X191904761Y-80916666D02*
X192380952Y-80916666D01*
X191809523Y-81202380D02*
X192142857Y-80202380D01*
X192476190Y-81202380D01*
X192666666Y-80202380D02*
X193238095Y-80202380D01*
X192952380Y-81202380D02*
X192952380Y-80202380D01*
X193476190Y-80202380D02*
X194142857Y-81202380D01*
X194142857Y-80202380D02*
X193476190Y-81202380D01*
X187261904Y-81154761D02*
X187404761Y-81202380D01*
X187642857Y-81202380D01*
X187738095Y-81154761D01*
X187785714Y-81107142D01*
X187833333Y-81011904D01*
X187833333Y-80916666D01*
X187785714Y-80821428D01*
X187738095Y-80773809D01*
X187642857Y-80726190D01*
X187452380Y-80678571D01*
X187357142Y-80630952D01*
X187309523Y-80583333D01*
X187261904Y-80488095D01*
X187261904Y-80392857D01*
X187309523Y-80297619D01*
X187357142Y-80250000D01*
X187452380Y-80202380D01*
X187690476Y-80202380D01*
X187833333Y-80250000D01*
X188452380Y-80726190D02*
X188452380Y-81202380D01*
X188119047Y-80202380D02*
X188452380Y-80726190D01*
X188785714Y-80202380D01*
X189119047Y-81202380D02*
X189119047Y-80202380D01*
X189690476Y-81202380D01*
X189690476Y-80202380D01*
X190738095Y-81107142D02*
X190690476Y-81154761D01*
X190547619Y-81202380D01*
X190452380Y-81202380D01*
X190309523Y-81154761D01*
X190214285Y-81059523D01*
X190166666Y-80964285D01*
X190119047Y-80773809D01*
X190119047Y-80630952D01*
X190166666Y-80440476D01*
X190214285Y-80345238D01*
X190309523Y-80250000D01*
X190452380Y-80202380D01*
X190547619Y-80202380D01*
X190690476Y-80250000D01*
X190738095Y-80297619D01*
X142404761Y-103416666D02*
X142880952Y-103416666D01*
X142309523Y-103702380D02*
X142642857Y-102702380D01*
X142976190Y-103702380D01*
X143738095Y-103035714D02*
X143738095Y-103702380D01*
X143309523Y-103035714D02*
X143309523Y-103559523D01*
X143357142Y-103654761D01*
X143452380Y-103702380D01*
X143595238Y-103702380D01*
X143690476Y-103654761D01*
X143738095Y-103607142D01*
X144071428Y-103035714D02*
X144452380Y-103035714D01*
X144214285Y-102702380D02*
X144214285Y-103559523D01*
X144261904Y-103654761D01*
X144357142Y-103702380D01*
X144452380Y-103702380D01*
X144928571Y-103702380D02*
X144833333Y-103654761D01*
X144785714Y-103607142D01*
X144738095Y-103511904D01*
X144738095Y-103226190D01*
X144785714Y-103130952D01*
X144833333Y-103083333D01*
X144928571Y-103035714D01*
X145071428Y-103035714D01*
X145166666Y-103083333D01*
X145214285Y-103130952D01*
X145261904Y-103226190D01*
X145261904Y-103511904D01*
X145214285Y-103607142D01*
X145166666Y-103654761D01*
X145071428Y-103702380D01*
X144928571Y-103702380D01*
X146404761Y-102654761D02*
X145547619Y-103940476D01*
X146738095Y-103702380D02*
X146738095Y-102702380D01*
X147071428Y-103416666D01*
X147404761Y-102702380D01*
X147404761Y-103702380D01*
X148309523Y-103702380D02*
X148309523Y-103178571D01*
X148261904Y-103083333D01*
X148166666Y-103035714D01*
X147976190Y-103035714D01*
X147880952Y-103083333D01*
X148309523Y-103654761D02*
X148214285Y-103702380D01*
X147976190Y-103702380D01*
X147880952Y-103654761D01*
X147833333Y-103559523D01*
X147833333Y-103464285D01*
X147880952Y-103369047D01*
X147976190Y-103321428D01*
X148214285Y-103321428D01*
X148309523Y-103273809D01*
X148785714Y-103035714D02*
X148785714Y-103702380D01*
X148785714Y-103130952D02*
X148833333Y-103083333D01*
X148928571Y-103035714D01*
X149071428Y-103035714D01*
X149166666Y-103083333D01*
X149214285Y-103178571D01*
X149214285Y-103702380D01*
X150119047Y-103035714D02*
X150119047Y-103702380D01*
X149690476Y-103035714D02*
X149690476Y-103559523D01*
X149738095Y-103654761D01*
X149833333Y-103702380D01*
X149976190Y-103702380D01*
X150071428Y-103654761D01*
X150119047Y-103607142D01*
X151023809Y-103702380D02*
X151023809Y-103178571D01*
X150976190Y-103083333D01*
X150880952Y-103035714D01*
X150690476Y-103035714D01*
X150595238Y-103083333D01*
X151023809Y-103654761D02*
X150928571Y-103702380D01*
X150690476Y-103702380D01*
X150595238Y-103654761D01*
X150547619Y-103559523D01*
X150547619Y-103464285D01*
X150595238Y-103369047D01*
X150690476Y-103321428D01*
X150928571Y-103321428D01*
X151023809Y-103273809D01*
X151642857Y-103702380D02*
X151547619Y-103654761D01*
X151500000Y-103559523D01*
X151500000Y-102702380D01*
X184357142Y-81202380D02*
X184023809Y-80726190D01*
X183785714Y-81202380D02*
X183785714Y-80202380D01*
X184166666Y-80202380D01*
X184261904Y-80250000D01*
X184309523Y-80297619D01*
X184357142Y-80392857D01*
X184357142Y-80535714D01*
X184309523Y-80630952D01*
X184261904Y-80678571D01*
X184166666Y-80726190D01*
X183785714Y-80726190D01*
X184690476Y-80202380D02*
X185357142Y-81202380D01*
X185357142Y-80202380D02*
X184690476Y-81202380D01*
X186261904Y-81202380D02*
X185690476Y-81202380D01*
X185976190Y-81202380D02*
X185976190Y-80202380D01*
X185880952Y-80345238D01*
X185785714Y-80440476D01*
X185690476Y-80488095D01*
X179761904Y-80202380D02*
X180333333Y-80202380D01*
X180047619Y-81202380D02*
X180047619Y-80202380D01*
X180571428Y-80202380D02*
X181238095Y-81202380D01*
X181238095Y-80202380D02*
X180571428Y-81202380D01*
X182142857Y-81202380D02*
X181571428Y-81202380D01*
X181857142Y-81202380D02*
X181857142Y-80202380D01*
X181761904Y-80345238D01*
X181666666Y-80440476D01*
X181571428Y-80488095D01*
X105214285Y-116571428D02*
X105976190Y-116571428D01*
X105595238Y-116952380D02*
X105595238Y-116190476D01*
X106928571Y-115952380D02*
X106452380Y-115952380D01*
X106404761Y-116428571D01*
X106452380Y-116380952D01*
X106547619Y-116333333D01*
X106785714Y-116333333D01*
X106880952Y-116380952D01*
X106928571Y-116428571D01*
X106976190Y-116523809D01*
X106976190Y-116761904D01*
X106928571Y-116857142D01*
X106880952Y-116904761D01*
X106785714Y-116952380D01*
X106547619Y-116952380D01*
X106452380Y-116904761D01*
X106404761Y-116857142D01*
X107261904Y-115952380D02*
X107595238Y-116952380D01*
X107928571Y-115952380D01*
X186309523Y-85952380D02*
X185976190Y-85476190D01*
X185738095Y-85952380D02*
X185738095Y-84952380D01*
X186119047Y-84952380D01*
X186214285Y-85000000D01*
X186261904Y-85047619D01*
X186309523Y-85142857D01*
X186309523Y-85285714D01*
X186261904Y-85380952D01*
X186214285Y-85428571D01*
X186119047Y-85476190D01*
X185738095Y-85476190D01*
X186690476Y-85904761D02*
X186833333Y-85952380D01*
X187071428Y-85952380D01*
X187166666Y-85904761D01*
X187214285Y-85857142D01*
X187261904Y-85761904D01*
X187261904Y-85666666D01*
X187214285Y-85571428D01*
X187166666Y-85523809D01*
X187071428Y-85476190D01*
X186880952Y-85428571D01*
X186785714Y-85380952D01*
X186738095Y-85333333D01*
X186690476Y-85238095D01*
X186690476Y-85142857D01*
X186738095Y-85047619D01*
X186785714Y-85000000D01*
X186880952Y-84952380D01*
X187119047Y-84952380D01*
X187261904Y-85000000D01*
X187642857Y-85047619D02*
X187690476Y-85000000D01*
X187785714Y-84952380D01*
X188023809Y-84952380D01*
X188119047Y-85000000D01*
X188166666Y-85047619D01*
X188214285Y-85142857D01*
X188214285Y-85238095D01*
X188166666Y-85380952D01*
X187595238Y-85952380D01*
X188214285Y-85952380D01*
X188547619Y-84952380D02*
X189166666Y-84952380D01*
X188833333Y-85333333D01*
X188976190Y-85333333D01*
X189071428Y-85380952D01*
X189119047Y-85428571D01*
X189166666Y-85523809D01*
X189166666Y-85761904D01*
X189119047Y-85857142D01*
X189071428Y-85904761D01*
X188976190Y-85952380D01*
X188690476Y-85952380D01*
X188595238Y-85904761D01*
X188547619Y-85857142D01*
X189547619Y-85047619D02*
X189595238Y-85000000D01*
X189690476Y-84952380D01*
X189928571Y-84952380D01*
X190023809Y-85000000D01*
X190071428Y-85047619D01*
X190119047Y-85142857D01*
X190119047Y-85238095D01*
X190071428Y-85380952D01*
X189500000Y-85952380D01*
X190119047Y-85952380D01*
X190547619Y-85571428D02*
X191309523Y-85571428D01*
X192309523Y-85952380D02*
X191738095Y-85952380D01*
X192023809Y-85952380D02*
X192023809Y-84952380D01*
X191928571Y-85095238D01*
X191833333Y-85190476D01*
X191738095Y-85238095D01*
X127697619Y-88178571D02*
X128697619Y-88178571D01*
X128697619Y-88559523D01*
X128650000Y-88654761D01*
X128602380Y-88702380D01*
X128507142Y-88750000D01*
X128364285Y-88750000D01*
X128269047Y-88702380D01*
X128221428Y-88654761D01*
X128173809Y-88559523D01*
X128173809Y-88178571D01*
X127792857Y-89178571D02*
X127745238Y-89226190D01*
X127697619Y-89178571D01*
X127745238Y-89130952D01*
X127792857Y-89178571D01*
X127697619Y-89178571D01*
X128697619Y-89654761D02*
X127888095Y-89654761D01*
X127792857Y-89702380D01*
X127745238Y-89750000D01*
X127697619Y-89845238D01*
X127697619Y-90035714D01*
X127745238Y-90130952D01*
X127792857Y-90178571D01*
X127888095Y-90226190D01*
X128697619Y-90226190D01*
X128364285Y-90702380D02*
X127364285Y-90702380D01*
X128316666Y-90702380D02*
X128364285Y-90797619D01*
X128364285Y-90988095D01*
X128316666Y-91083333D01*
X128269047Y-91130952D01*
X128173809Y-91178571D01*
X127888095Y-91178571D01*
X127792857Y-91130952D01*
X127745238Y-91083333D01*
X127697619Y-90988095D01*
X127697619Y-90797619D01*
X127745238Y-90702380D01*
X128745238Y-92321428D02*
X127459523Y-91464285D01*
X128697619Y-92511904D02*
X128697619Y-93083333D01*
X127697619Y-92797619D02*
X128697619Y-92797619D01*
X127745238Y-93797619D02*
X127697619Y-93702380D01*
X127697619Y-93511904D01*
X127745238Y-93416666D01*
X127840476Y-93369047D01*
X128221428Y-93369047D01*
X128316666Y-93416666D01*
X128364285Y-93511904D01*
X128364285Y-93702380D01*
X128316666Y-93797619D01*
X128221428Y-93845238D01*
X128126190Y-93845238D01*
X128030952Y-93369047D01*
X127697619Y-94273809D02*
X128364285Y-94273809D01*
X128173809Y-94273809D02*
X128269047Y-94321428D01*
X128316666Y-94369047D01*
X128364285Y-94464285D01*
X128364285Y-94559523D01*
X127792857Y-94892857D02*
X127745238Y-94940476D01*
X127697619Y-94892857D01*
X127745238Y-94845238D01*
X127792857Y-94892857D01*
X127697619Y-94892857D01*
X128745238Y-96083333D02*
X127459523Y-95226190D01*
X127697619Y-96416666D02*
X128697619Y-96416666D01*
X128697619Y-96797619D01*
X128650000Y-96892857D01*
X128602380Y-96940476D01*
X128507142Y-96988095D01*
X128364285Y-96988095D01*
X128269047Y-96940476D01*
X128221428Y-96892857D01*
X128173809Y-96797619D01*
X128173809Y-96416666D01*
X127792857Y-97416666D02*
X127745238Y-97464285D01*
X127697619Y-97416666D01*
X127745238Y-97369047D01*
X127792857Y-97416666D01*
X127697619Y-97416666D01*
X127697619Y-97892857D02*
X128697619Y-97892857D01*
X128697619Y-98130952D01*
X128650000Y-98273809D01*
X128554761Y-98369047D01*
X128459523Y-98416666D01*
X128269047Y-98464285D01*
X128126190Y-98464285D01*
X127935714Y-98416666D01*
X127840476Y-98369047D01*
X127745238Y-98273809D01*
X127697619Y-98130952D01*
X127697619Y-97892857D01*
X128364285Y-98892857D02*
X127697619Y-98892857D01*
X128269047Y-98892857D02*
X128316666Y-98940476D01*
X128364285Y-99035714D01*
X128364285Y-99178571D01*
X128316666Y-99273809D01*
X128221428Y-99321428D01*
X127697619Y-99321428D01*
X116433333Y-88904761D02*
X116433333Y-89380952D01*
X116147619Y-88809523D02*
X117147619Y-89142857D01*
X116147619Y-89476190D01*
X116147619Y-90333333D02*
X116147619Y-89761904D01*
X116147619Y-90047619D02*
X117147619Y-90047619D01*
X117004761Y-89952380D01*
X116909523Y-89857142D01*
X116861904Y-89761904D01*
X117195238Y-91476190D02*
X115909523Y-90619047D01*
X116671428Y-92142857D02*
X116623809Y-92285714D01*
X116576190Y-92333333D01*
X116480952Y-92380952D01*
X116338095Y-92380952D01*
X116242857Y-92333333D01*
X116195238Y-92285714D01*
X116147619Y-92190476D01*
X116147619Y-91809523D01*
X117147619Y-91809523D01*
X117147619Y-92142857D01*
X117100000Y-92238095D01*
X117052380Y-92285714D01*
X116957142Y-92333333D01*
X116861904Y-92333333D01*
X116766666Y-92285714D01*
X116719047Y-92238095D01*
X116671428Y-92142857D01*
X116671428Y-91809523D01*
X116147619Y-93333333D02*
X116147619Y-92761904D01*
X116147619Y-93047619D02*
X117147619Y-93047619D01*
X117004761Y-92952380D01*
X116909523Y-92857142D01*
X116861904Y-92761904D01*
X117195238Y-94476190D02*
X115909523Y-93619047D01*
X117147619Y-95000000D02*
X117147619Y-95095238D01*
X117100000Y-95190476D01*
X117052380Y-95238095D01*
X116957142Y-95285714D01*
X116766666Y-95333333D01*
X116528571Y-95333333D01*
X116338095Y-95285714D01*
X116242857Y-95238095D01*
X116195238Y-95190476D01*
X116147619Y-95095238D01*
X116147619Y-95000000D01*
X116195238Y-94904761D01*
X116242857Y-94857142D01*
X116338095Y-94809523D01*
X116528571Y-94761904D01*
X116766666Y-94761904D01*
X116957142Y-94809523D01*
X117052380Y-94857142D01*
X117100000Y-94904761D01*
X117147619Y-95000000D01*
X116814285Y-95666666D02*
X116147619Y-95904761D01*
X116814285Y-96142857D01*
X141595238Y-97785714D02*
X141595238Y-98452380D01*
X141357142Y-97404761D02*
X141119047Y-98119047D01*
X141738095Y-98119047D01*
X142261904Y-97880952D02*
X142166666Y-97833333D01*
X142119047Y-97785714D01*
X142071428Y-97690476D01*
X142071428Y-97642857D01*
X142119047Y-97547619D01*
X142166666Y-97500000D01*
X142261904Y-97452380D01*
X142452380Y-97452380D01*
X142547619Y-97500000D01*
X142595238Y-97547619D01*
X142642857Y-97642857D01*
X142642857Y-97690476D01*
X142595238Y-97785714D01*
X142547619Y-97833333D01*
X142452380Y-97880952D01*
X142261904Y-97880952D01*
X142166666Y-97928571D01*
X142119047Y-97976190D01*
X142071428Y-98071428D01*
X142071428Y-98261904D01*
X142119047Y-98357142D01*
X142166666Y-98404761D01*
X142261904Y-98452380D01*
X142452380Y-98452380D01*
X142547619Y-98404761D01*
X142595238Y-98357142D01*
X142642857Y-98261904D01*
X142642857Y-98071428D01*
X142595238Y-97976190D01*
X142547619Y-97928571D01*
X142452380Y-97880952D01*
X143547619Y-97452380D02*
X143071428Y-97452380D01*
X143023809Y-97928571D01*
X143071428Y-97880952D01*
X143166666Y-97833333D01*
X143404761Y-97833333D01*
X143500000Y-97880952D01*
X143547619Y-97928571D01*
X143595238Y-98023809D01*
X143595238Y-98261904D01*
X143547619Y-98357142D01*
X143500000Y-98404761D01*
X143404761Y-98452380D01*
X143166666Y-98452380D01*
X143071428Y-98404761D01*
X143023809Y-98357142D01*
X144023809Y-98071428D02*
X144785714Y-98071428D01*
X145785714Y-98452380D02*
X145214285Y-98452380D01*
X145500000Y-98452380D02*
X145500000Y-97452380D01*
X145404761Y-97595238D01*
X145309523Y-97690476D01*
X145214285Y-97738095D01*
X146928571Y-97404761D02*
X146071428Y-98690476D01*
X147214285Y-97547619D02*
X147261904Y-97500000D01*
X147357142Y-97452380D01*
X147595238Y-97452380D01*
X147690476Y-97500000D01*
X147738095Y-97547619D01*
X147785714Y-97642857D01*
X147785714Y-97738095D01*
X147738095Y-97880952D01*
X147166666Y-98452380D01*
X147785714Y-98452380D01*
X148119047Y-97452380D02*
X148738095Y-97452380D01*
X148404761Y-97833333D01*
X148547619Y-97833333D01*
X148642857Y-97880952D01*
X148690476Y-97928571D01*
X148738095Y-98023809D01*
X148738095Y-98261904D01*
X148690476Y-98357142D01*
X148642857Y-98404761D01*
X148547619Y-98452380D01*
X148261904Y-98452380D01*
X148166666Y-98404761D01*
X148119047Y-98357142D01*
X149119047Y-97547619D02*
X149166666Y-97500000D01*
X149261904Y-97452380D01*
X149500000Y-97452380D01*
X149595238Y-97500000D01*
X149642857Y-97547619D01*
X149690476Y-97642857D01*
X149690476Y-97738095D01*
X149642857Y-97880952D01*
X149071428Y-98452380D01*
X149690476Y-98452380D01*
X150119047Y-98071428D02*
X150880952Y-98071428D01*
X151880952Y-98452380D02*
X151309523Y-98452380D01*
X151595238Y-98452380D02*
X151595238Y-97452380D01*
X151500000Y-97595238D01*
X151404761Y-97690476D01*
X151309523Y-97738095D01*
G04 #@! TO.C,U7*
X164030909Y-85651215D02*
X164030909Y-81251215D01*
X158505909Y-87226215D02*
X158505909Y-81251215D01*
D12*
G04 #@! TO.C,Q1*
X136780000Y-99140000D02*
X136780000Y-98210000D01*
X136780000Y-95980000D02*
X136780000Y-96910000D01*
X136780000Y-95980000D02*
X134620000Y-95980000D01*
X136780000Y-99140000D02*
X135320000Y-99140000D01*
G04 #@! TO.C,C9*
X157057331Y-89851215D02*
X157574487Y-89851215D01*
X157057331Y-88431215D02*
X157574487Y-88431215D01*
D11*
G04 #@! TO.C,SW1*
X142900000Y-95240000D02*
X142900000Y-91740000D01*
X150100000Y-95240000D02*
X142900000Y-95240000D01*
X150100000Y-91740000D02*
X150100000Y-95240000D01*
X142900000Y-91740000D02*
X150100000Y-91740000D01*
G04 #@! TO.C,U4*
X130022642Y-111381413D02*
X130822642Y-110581413D01*
X130822642Y-110581413D02*
X132822642Y-110581413D01*
X132822642Y-110581413D02*
X132822642Y-116001413D01*
X132822642Y-116001413D02*
X130022642Y-116001413D01*
X130022642Y-116001413D02*
X130022642Y-111381413D01*
D12*
G04 #@! TO.C,C6*
X136102642Y-111552835D02*
X136102642Y-112069991D01*
X137522642Y-111552835D02*
X137522642Y-112069991D01*
D11*
G04 #@! TO.C,U3*
X137975000Y-95265000D02*
X137975000Y-95215000D01*
X133825000Y-95265000D02*
X133825000Y-95120000D01*
X133825000Y-90115000D02*
X133825000Y-90260000D01*
X137975000Y-90115000D02*
X137975000Y-90260000D01*
X137975000Y-95265000D02*
X133825000Y-95265000D01*
X137975000Y-90115000D02*
X133825000Y-90115000D01*
X137975000Y-95215000D02*
X139375000Y-95215000D01*
G04 #@! TO.C,P4*
X201168000Y-115316000D02*
X201168000Y-69596000D01*
X196088000Y-69596000D02*
X196088000Y-112776000D01*
X201168000Y-69596000D02*
X196088000Y-69596000D01*
X201168000Y-115316000D02*
X198628000Y-115316000D01*
X195808000Y-114046000D02*
X195808000Y-115596000D01*
X198628000Y-115316000D02*
X198628000Y-112776000D01*
X198628000Y-112776000D02*
X196088000Y-112776000D01*
X195808000Y-115596000D02*
X197358000Y-115596000D01*
G04 #@! TO.C,P1*
X132588000Y-120396000D02*
X150368000Y-120396000D01*
X150368000Y-120396000D02*
X150368000Y-117856000D01*
X150368000Y-117856000D02*
X132588000Y-117856000D01*
X129768000Y-120676000D02*
X131318000Y-120676000D01*
X132588000Y-120396000D02*
X132588000Y-117856000D01*
X131318000Y-117576000D02*
X129768000Y-117576000D01*
X129768000Y-117576000D02*
X129768000Y-120676000D01*
G04 #@! TO.C,P2*
X155448000Y-120396000D02*
X173228000Y-120396000D01*
X173228000Y-120396000D02*
X173228000Y-117856000D01*
X173228000Y-117856000D02*
X155448000Y-117856000D01*
X152628000Y-120676000D02*
X154178000Y-120676000D01*
X155448000Y-120396000D02*
X155448000Y-117856000D01*
X154178000Y-117576000D02*
X152628000Y-117576000D01*
X152628000Y-117576000D02*
X152628000Y-120676000D01*
G04 #@! TO.C,P3*
X178308000Y-120396000D02*
X196088000Y-120396000D01*
X196088000Y-120396000D02*
X196088000Y-117856000D01*
X196088000Y-117856000D02*
X178308000Y-117856000D01*
X175488000Y-120676000D02*
X177038000Y-120676000D01*
X178308000Y-120396000D02*
X178308000Y-117856000D01*
X177038000Y-117576000D02*
X175488000Y-117576000D01*
X175488000Y-117576000D02*
X175488000Y-120676000D01*
G04 #@! TO.C,P5*
X123444000Y-72136000D02*
X146304000Y-72136000D01*
X146304000Y-72136000D02*
X146304000Y-69596000D01*
X146304000Y-69596000D02*
X123444000Y-69596000D01*
X120624000Y-72416000D02*
X122174000Y-72416000D01*
X123444000Y-72136000D02*
X123444000Y-69596000D01*
X122174000Y-69316000D02*
X120624000Y-69316000D01*
X120624000Y-69316000D02*
X120624000Y-72416000D01*
G04 #@! TO.C,P6*
X150368000Y-72136000D02*
X168148000Y-72136000D01*
X168148000Y-72136000D02*
X168148000Y-69596000D01*
X168148000Y-69596000D02*
X150368000Y-69596000D01*
X147548000Y-72416000D02*
X149098000Y-72416000D01*
X150368000Y-72136000D02*
X150368000Y-69596000D01*
X149098000Y-69316000D02*
X147548000Y-69316000D01*
X147548000Y-69316000D02*
X147548000Y-72416000D01*
G04 #@! TO.C,P7*
X173228000Y-72136000D02*
X191008000Y-72136000D01*
X191008000Y-72136000D02*
X191008000Y-69596000D01*
X191008000Y-69596000D02*
X173228000Y-69596000D01*
X170408000Y-72416000D02*
X171958000Y-72416000D01*
X173228000Y-72136000D02*
X173228000Y-69596000D01*
X171958000Y-69316000D02*
X170408000Y-69316000D01*
X170408000Y-69316000D02*
X170408000Y-72416000D01*
G04 #@! TO.C,P8*
X119634000Y-119126000D02*
G75*
G03X119634000Y-119126000I-2286000J0D01*
G01*
G04 #@! TO.C,P10*
X202184000Y-119126000D02*
G75*
G03X202184000Y-119126000I-2286000J0D01*
G01*
G04 #@! TO.C,P11*
X120904000Y-70866000D02*
G75*
G03X120904000Y-70866000I-2286000J0D01*
G01*
G04 #@! TO.C,P13*
X195834000Y-70866000D02*
G75*
G03X195834000Y-70866000I-2286000J0D01*
G01*
D12*
G04 #@! TO.C,C1*
X124602064Y-103590000D02*
X123397936Y-103590000D01*
X124602064Y-105410000D02*
X123397936Y-105410000D01*
G04 #@! TO.C,C2*
X123491422Y-103210000D02*
X124008578Y-103210000D01*
X123491422Y-101790000D02*
X124008578Y-101790000D01*
G04 #@! TO.C,C3*
X133818922Y-88220000D02*
X134336078Y-88220000D01*
X133818922Y-89640000D02*
X134336078Y-89640000D01*
G04 #@! TO.C,C4*
X124854064Y-112641413D02*
X125371220Y-112641413D01*
X124854064Y-114061413D02*
X125371220Y-114061413D01*
G04 #@! TO.C,C5*
X133402642Y-109239991D02*
X133402642Y-108722835D01*
X134822642Y-109239991D02*
X134822642Y-108722835D01*
G04 #@! TO.C,C10*
X165975909Y-86009793D02*
X165975909Y-85492637D01*
X164555909Y-86009793D02*
X164555909Y-85492637D01*
G04 #@! TO.C,C11*
X157985909Y-85949793D02*
X157985909Y-85432637D01*
X156565909Y-85949793D02*
X156565909Y-85432637D01*
G04 #@! TO.C,D4*
X190000000Y-81540000D02*
X187315000Y-81540000D01*
X187315000Y-81540000D02*
X187315000Y-83460000D01*
X187315000Y-83460000D02*
X190000000Y-83460000D01*
G04 #@! TO.C,D7*
X179315000Y-83460000D02*
X182000000Y-83460000D01*
X179315000Y-81540000D02*
X179315000Y-83460000D01*
X182000000Y-81540000D02*
X179315000Y-81540000D01*
G04 #@! TO.C,D8*
X186000000Y-81540000D02*
X183315000Y-81540000D01*
X183315000Y-81540000D02*
X183315000Y-83460000D01*
X183315000Y-83460000D02*
X186000000Y-83460000D01*
G04 #@! TO.C,D9*
X174000000Y-81540000D02*
X171315000Y-81540000D01*
X171315000Y-81540000D02*
X171315000Y-83460000D01*
X171315000Y-83460000D02*
X174000000Y-83460000D01*
G04 #@! TO.C,J4*
X126730000Y-90090000D02*
X121530000Y-90090000D01*
X126730000Y-95230000D02*
X126730000Y-90090000D01*
X121530000Y-97830000D02*
X121530000Y-90090000D01*
X126730000Y-95230000D02*
X124130000Y-95230000D01*
X124130000Y-95230000D02*
X124130000Y-97830000D01*
X124130000Y-97830000D02*
X121530000Y-97830000D01*
X126730000Y-96500000D02*
X126730000Y-97830000D01*
X126730000Y-97830000D02*
X125400000Y-97830000D01*
G04 #@! TO.C,J7*
X195350000Y-87325000D02*
G75*
G03X194290000Y-86265000I-1060000J0D01*
G01*
X194290000Y-117235000D02*
G75*
G03X195350000Y-116175000I0J1060000D01*
G01*
X182730000Y-87325000D02*
G75*
G02X183790000Y-86265000I1060000J0D01*
G01*
X182730000Y-116175000D02*
G75*
G03X183790000Y-117235000I1060000J0D01*
G01*
X191101744Y-93883530D02*
G75*
G02X193050000Y-95518311I288256J-1634781D01*
G01*
X191101744Y-109616470D02*
G75*
G03X193050000Y-107981689I288256J1634781D01*
G01*
X186401744Y-94712267D02*
G75*
G03X185030000Y-96347048I288256J-1634781D01*
G01*
X186401744Y-108787733D02*
G75*
G02X185030000Y-107152952I288256J1634781D01*
G01*
X195350000Y-87325000D02*
X195350000Y-116175000D01*
X194290000Y-117235000D02*
X183790000Y-117235000D01*
X182730000Y-116175000D02*
X182730000Y-87325000D01*
X183790000Y-86265000D02*
X194290000Y-86265000D01*
X196244338Y-107040000D02*
X196244338Y-107540000D01*
X196244338Y-107540000D02*
X195811325Y-107290000D01*
X195811325Y-107290000D02*
X196244338Y-107040000D01*
X193050000Y-95518311D02*
X193050000Y-107981689D01*
X185030000Y-96347048D02*
X185030000Y-107152952D01*
X191101744Y-109616470D02*
X186401744Y-108787733D01*
X191101744Y-93883530D02*
X186401744Y-94712267D01*
G04 #@! TO.C,J8*
X177951744Y-93933530D02*
X173251744Y-94762267D01*
X177951744Y-109666470D02*
X173251744Y-108837733D01*
X171880000Y-96397048D02*
X171880000Y-107202952D01*
X179900000Y-95568311D02*
X179900000Y-108031689D01*
X182661325Y-107340000D02*
X183094338Y-107090000D01*
X183094338Y-107590000D02*
X182661325Y-107340000D01*
X183094338Y-107090000D02*
X183094338Y-107590000D01*
X170640000Y-86315000D02*
X181140000Y-86315000D01*
X169580000Y-116225000D02*
X169580000Y-87375000D01*
X181140000Y-117285000D02*
X170640000Y-117285000D01*
X182200000Y-87375000D02*
X182200000Y-116225000D01*
X173251744Y-108837733D02*
G75*
G02X171880000Y-107202952I288256J1634781D01*
G01*
X173251744Y-94762267D02*
G75*
G03X171880000Y-96397048I288256J-1634781D01*
G01*
X177951744Y-109666470D02*
G75*
G03X179900000Y-108031689I288256J1634781D01*
G01*
X177951744Y-93933530D02*
G75*
G02X179900000Y-95568311I288256J-1634781D01*
G01*
X169580000Y-116225000D02*
G75*
G03X170640000Y-117285000I1060000J0D01*
G01*
X169580000Y-87375000D02*
G75*
G02X170640000Y-86315000I1060000J0D01*
G01*
X181140000Y-117285000D02*
G75*
G03X182200000Y-116225000I0J1060000D01*
G01*
X182200000Y-87375000D02*
G75*
G03X181140000Y-86315000I-1060000J0D01*
G01*
G04 #@! TO.C,JP1*
X144450000Y-99000000D02*
X148550000Y-99000000D01*
X148550000Y-99000000D02*
X148550000Y-101000000D01*
X148550000Y-101000000D02*
X144450000Y-101000000D01*
X144450000Y-101000000D02*
X144450000Y-99000000D01*
X145200000Y-101200000D02*
X144900000Y-101500000D01*
X144900000Y-101500000D02*
X145500000Y-101500000D01*
X145200000Y-101200000D02*
X145500000Y-101500000D01*
G04 #@! TO.C,L1*
X127772642Y-108436413D02*
X126247642Y-108436413D01*
X126247642Y-101786413D02*
X126247642Y-108436413D01*
X127772642Y-101786413D02*
X126247642Y-101786413D01*
X132897642Y-101786413D02*
X131372642Y-101786413D01*
X132897642Y-101786413D02*
X132897642Y-108436413D01*
X132897642Y-108436413D02*
X131372642Y-108436413D01*
G04 #@! TO.C,Q5*
X187420000Y-76760000D02*
X187420000Y-75300000D01*
X190580000Y-76760000D02*
X190580000Y-74600000D01*
X190580000Y-76760000D02*
X189650000Y-76760000D01*
X187420000Y-76760000D02*
X188350000Y-76760000D01*
G04 #@! TO.C,Q8*
X179420000Y-76760000D02*
X180350000Y-76760000D01*
X182580000Y-76760000D02*
X181650000Y-76760000D01*
X182580000Y-76760000D02*
X182580000Y-74600000D01*
X179420000Y-76760000D02*
X179420000Y-75300000D01*
G04 #@! TO.C,R2*
X152758578Y-100790000D02*
X152241422Y-100790000D01*
X152758578Y-102210000D02*
X152241422Y-102210000D01*
G04 #@! TO.C,R3*
X124408578Y-89460000D02*
X123891422Y-89460000D01*
X124408578Y-88040000D02*
X123891422Y-88040000D01*
G04 #@! TO.C,R4*
X123681422Y-98290000D02*
X124198578Y-98290000D01*
X123681422Y-99710000D02*
X124198578Y-99710000D01*
G04 #@! TO.C,R5*
X125391220Y-116251413D02*
X124874064Y-116251413D01*
X125391220Y-117671413D02*
X124874064Y-117671413D01*
G04 #@! TO.C,R6*
X119440000Y-92491422D02*
X119440000Y-93008578D01*
X120860000Y-92491422D02*
X120860000Y-93008578D01*
G04 #@! TO.C,R8*
X168710000Y-104758578D02*
X168710000Y-104241422D01*
X167290000Y-104758578D02*
X167290000Y-104241422D01*
G04 #@! TO.C,R9*
X122061220Y-112661413D02*
X121544064Y-112661413D01*
X122061220Y-114081413D02*
X121544064Y-114081413D01*
G04 #@! TO.C,R10*
X125371220Y-112261413D02*
X124854064Y-112261413D01*
X125371220Y-110841413D02*
X124854064Y-110841413D01*
G04 #@! TO.C,R13*
X124864064Y-114441413D02*
X125381220Y-114441413D01*
X124864064Y-115861413D02*
X125381220Y-115861413D01*
G04 #@! TO.C,R16*
X137572642Y-114832835D02*
X137572642Y-115349991D01*
X136152642Y-114832835D02*
X136152642Y-115349991D01*
G04 #@! TO.C,R17*
X139550000Y-97888578D02*
X139550000Y-97371422D01*
X138130000Y-97888578D02*
X138130000Y-97371422D01*
G04 #@! TO.C,R18*
X125371220Y-109041413D02*
X124854064Y-109041413D01*
X125371220Y-110461413D02*
X124854064Y-110461413D01*
G04 #@! TO.C,R19*
X132410000Y-97808578D02*
X132410000Y-97291422D01*
X133830000Y-97808578D02*
X133830000Y-97291422D01*
G04 #@! TO.C,R21*
X189258578Y-79460000D02*
X188741422Y-79460000D01*
X189258578Y-78040000D02*
X188741422Y-78040000D01*
G04 #@! TO.C,R24*
X181258578Y-79460000D02*
X180741422Y-79460000D01*
X181258578Y-78040000D02*
X180741422Y-78040000D01*
G04 #@! TO.C,R25*
X185258578Y-79460000D02*
X184741422Y-79460000D01*
X185258578Y-78040000D02*
X184741422Y-78040000D01*
G04 #@! TO.C,R26*
X173258578Y-78040000D02*
X172741422Y-78040000D01*
X173258578Y-79460000D02*
X172741422Y-79460000D01*
G04 #@! TO.C,R27*
X177258578Y-78040000D02*
X176741422Y-78040000D01*
X177258578Y-79460000D02*
X176741422Y-79460000D01*
G04 #@! TO.C,D1*
X137902642Y-105551413D02*
X135902642Y-105551413D01*
X135902642Y-105551413D02*
X135902642Y-109401413D01*
X137902642Y-105551413D02*
X137902642Y-109401413D01*
G04 #@! TO.C,C7*
X138772642Y-112303477D02*
X138772642Y-111099349D01*
X140592642Y-112303477D02*
X140592642Y-111099349D01*
G04 #@! TO.C,C8*
X160687331Y-88411215D02*
X161204487Y-88411215D01*
X160687331Y-89831215D02*
X161204487Y-89831215D01*
G04 #@! TO.C,D10*
X178000000Y-81540000D02*
X175315000Y-81540000D01*
X175315000Y-81540000D02*
X175315000Y-83460000D01*
X175315000Y-83460000D02*
X178000000Y-83460000D01*
G04 #@! TO.C,D11*
X105495000Y-119580000D02*
X108180000Y-119580000D01*
X105495000Y-117660000D02*
X105495000Y-119580000D01*
X108180000Y-117660000D02*
X105495000Y-117660000D01*
D11*
G04 #@! TO.C,J3*
X115400000Y-107820000D02*
X103400000Y-107820000D01*
X103400000Y-107820000D02*
X103400000Y-111320000D01*
X103400000Y-111320000D02*
X115400000Y-111320000D01*
X115400000Y-111320000D02*
X115400000Y-107820000D01*
X115400000Y-107820000D02*
X115400000Y-104320000D01*
X115400000Y-104320000D02*
X103400000Y-104320000D01*
X103400000Y-104320000D02*
X103400000Y-107820000D01*
X115400000Y-111320000D02*
X115400000Y-114820000D01*
X115400000Y-114820000D02*
X103400000Y-114820000D01*
X103400000Y-114820000D02*
X103400000Y-111320000D01*
X115400000Y-104320000D02*
X115400000Y-102820000D01*
X115400000Y-102820000D02*
X103400000Y-102820000D01*
X103400000Y-102820000D02*
X103400000Y-104320000D01*
X113650000Y-104320000D02*
X113650000Y-106820000D01*
X113650000Y-106820000D02*
X110650000Y-106820000D01*
X110650000Y-106820000D02*
X110650000Y-104320000D01*
X113650000Y-107820000D02*
X113650000Y-110320000D01*
X113650000Y-110320000D02*
X110650000Y-110320000D01*
X110650000Y-110320000D02*
X110650000Y-107820000D01*
X113650000Y-111320000D02*
X113650000Y-113820000D01*
X113650000Y-113820000D02*
X110650000Y-113820000D01*
X110650000Y-113820000D02*
X110650000Y-111320000D01*
D12*
G04 #@! TO.C,Q9*
X183420000Y-76760000D02*
X183420000Y-75300000D01*
X186580000Y-76760000D02*
X186580000Y-74600000D01*
X186580000Y-76760000D02*
X185650000Y-76760000D01*
X183420000Y-76760000D02*
X184350000Y-76760000D01*
G04 #@! TO.C,Q10*
X171420000Y-76760000D02*
X172350000Y-76760000D01*
X174580000Y-76760000D02*
X173650000Y-76760000D01*
X174580000Y-76760000D02*
X174580000Y-74600000D01*
X171420000Y-76760000D02*
X171420000Y-75300000D01*
G04 #@! TO.C,Q11*
X175420000Y-76760000D02*
X176350000Y-76760000D01*
X178580000Y-76760000D02*
X177650000Y-76760000D01*
X178580000Y-76760000D02*
X178580000Y-74600000D01*
X175420000Y-76760000D02*
X175420000Y-75300000D01*
G04 #@! TO.C,R28*
X110321422Y-117900000D02*
X110838578Y-117900000D01*
X110321422Y-119320000D02*
X110838578Y-119320000D01*
G04 #@! TO.C,U2*
X163735000Y-99900000D02*
X161500000Y-99900000D01*
X163735000Y-105100000D02*
X163735000Y-99900000D01*
X157265000Y-105100000D02*
X163735000Y-105100000D01*
X157265000Y-99900000D02*
X157265000Y-105100000D01*
X159500000Y-99900000D02*
X157265000Y-99900000D01*
X161500000Y-99900000D02*
G75*
G02X159500000Y-99900000I-1000000J0D01*
G01*
G04 #@! TO.C,C12*
X133691422Y-74290000D02*
X134208578Y-74290000D01*
X133691422Y-75710000D02*
X134208578Y-75710000D01*
D11*
G04 #@! TO.C,J1*
X110650000Y-96320000D02*
X110650000Y-93820000D01*
X113650000Y-96320000D02*
X110650000Y-96320000D01*
X113650000Y-93820000D02*
X113650000Y-96320000D01*
X110650000Y-92820000D02*
X110650000Y-90320000D01*
X113650000Y-92820000D02*
X110650000Y-92820000D01*
X113650000Y-90320000D02*
X113650000Y-92820000D01*
X110650000Y-89320000D02*
X110650000Y-86820000D01*
X113650000Y-89320000D02*
X110650000Y-89320000D01*
X113650000Y-86820000D02*
X113650000Y-89320000D01*
X103400000Y-85320000D02*
X103400000Y-86820000D01*
X115400000Y-85320000D02*
X103400000Y-85320000D01*
X115400000Y-86820000D02*
X115400000Y-85320000D01*
X103400000Y-97320000D02*
X103400000Y-93820000D01*
X115400000Y-97320000D02*
X103400000Y-97320000D01*
X115400000Y-93820000D02*
X115400000Y-97320000D01*
X103400000Y-86820000D02*
X103400000Y-90320000D01*
X115400000Y-86820000D02*
X103400000Y-86820000D01*
X115400000Y-90320000D02*
X115400000Y-86820000D01*
X115400000Y-93820000D02*
X115400000Y-90320000D01*
X103400000Y-93820000D02*
X115400000Y-93820000D01*
X103400000Y-90320000D02*
X103400000Y-93820000D01*
X115400000Y-90320000D02*
X103400000Y-90320000D01*
G04 #@! TO.C,J2*
X115400000Y-79820000D02*
X103400000Y-79820000D01*
X103400000Y-79820000D02*
X103400000Y-83320000D01*
X103400000Y-83320000D02*
X115400000Y-83320000D01*
X115400000Y-83320000D02*
X115400000Y-79820000D01*
X115400000Y-79820000D02*
X115400000Y-76320000D01*
X115400000Y-76320000D02*
X103400000Y-76320000D01*
X103400000Y-76320000D02*
X103400000Y-79820000D01*
X115400000Y-83320000D02*
X115400000Y-86820000D01*
X115400000Y-86820000D02*
X103400000Y-86820000D01*
X103400000Y-86820000D02*
X103400000Y-83320000D01*
X115400000Y-76320000D02*
X115400000Y-74820000D01*
X115400000Y-74820000D02*
X103400000Y-74820000D01*
X103400000Y-74820000D02*
X103400000Y-76320000D01*
X113650000Y-76320000D02*
X113650000Y-78820000D01*
X113650000Y-78820000D02*
X110650000Y-78820000D01*
X110650000Y-78820000D02*
X110650000Y-76320000D01*
X113650000Y-79820000D02*
X113650000Y-82320000D01*
X113650000Y-82320000D02*
X110650000Y-82320000D01*
X110650000Y-82320000D02*
X110650000Y-79820000D01*
X113650000Y-83320000D02*
X113650000Y-85820000D01*
X113650000Y-85820000D02*
X110650000Y-85820000D01*
X110650000Y-85820000D02*
X110650000Y-83320000D01*
D12*
G04 #@! TO.C,J5*
X126730000Y-76140000D02*
X121530000Y-76140000D01*
X126730000Y-81280000D02*
X126730000Y-76140000D01*
X121530000Y-83880000D02*
X121530000Y-76140000D01*
X126730000Y-81280000D02*
X124130000Y-81280000D01*
X124130000Y-81280000D02*
X124130000Y-83880000D01*
X124130000Y-83880000D02*
X121530000Y-83880000D01*
X126730000Y-82550000D02*
X126730000Y-83880000D01*
X126730000Y-83880000D02*
X125400000Y-83880000D01*
D11*
G04 #@! TO.C,J6*
X115400000Y-100820000D02*
X103400000Y-100820000D01*
X103400000Y-100820000D02*
X103400000Y-104320000D01*
X103400000Y-104320000D02*
X115400000Y-104320000D01*
X115400000Y-104320000D02*
X115400000Y-100820000D01*
X115400000Y-100820000D02*
X115400000Y-97320000D01*
X115400000Y-97320000D02*
X103400000Y-97320000D01*
X103400000Y-97320000D02*
X103400000Y-100820000D01*
X115400000Y-97320000D02*
X115400000Y-95820000D01*
X115400000Y-95820000D02*
X103400000Y-95820000D01*
X103400000Y-95820000D02*
X103400000Y-97320000D01*
X113650000Y-97320000D02*
X113650000Y-99820000D01*
X113650000Y-99820000D02*
X110650000Y-99820000D01*
X110650000Y-99820000D02*
X110650000Y-97320000D01*
X113650000Y-100820000D02*
X113650000Y-103320000D01*
X113650000Y-103320000D02*
X110650000Y-103320000D01*
X110650000Y-103320000D02*
X110650000Y-100820000D01*
D12*
G04 #@! TO.C,JP2*
X145200000Y-87200000D02*
X145500000Y-87500000D01*
X144900000Y-87500000D02*
X145500000Y-87500000D01*
X145200000Y-87200000D02*
X144900000Y-87500000D01*
X144450000Y-87000000D02*
X144450000Y-85000000D01*
X148550000Y-87000000D02*
X144450000Y-87000000D01*
X148550000Y-85000000D02*
X148550000Y-87000000D01*
X144450000Y-85000000D02*
X148550000Y-85000000D01*
G04 #@! TO.C,Q2*
X136710000Y-85830000D02*
X136710000Y-84900000D01*
X136710000Y-82670000D02*
X136710000Y-83600000D01*
X136710000Y-82670000D02*
X134550000Y-82670000D01*
X136710000Y-85830000D02*
X135250000Y-85830000D01*
G04 #@! TO.C,R1*
X124408578Y-74090000D02*
X123891422Y-74090000D01*
X124408578Y-75510000D02*
X123891422Y-75510000D01*
G04 #@! TO.C,R7*
X123891422Y-84590000D02*
X124408578Y-84590000D01*
X123891422Y-86010000D02*
X124408578Y-86010000D01*
G04 #@! TO.C,R11*
X120860000Y-78541422D02*
X120860000Y-79058578D01*
X119440000Y-78541422D02*
X119440000Y-79058578D01*
G04 #@! TO.C,R12*
X152758578Y-95210000D02*
X152241422Y-95210000D01*
X152758578Y-93790000D02*
X152241422Y-93790000D01*
G04 #@! TO.C,R14*
X137990000Y-84508578D02*
X137990000Y-83991422D01*
X139410000Y-84508578D02*
X139410000Y-83991422D01*
G04 #@! TO.C,R15*
X168710000Y-97758578D02*
X168710000Y-97241422D01*
X167290000Y-97758578D02*
X167290000Y-97241422D01*
G04 #@! TO.C,R20*
X133910000Y-84508578D02*
X133910000Y-83991422D01*
X132490000Y-84508578D02*
X132490000Y-83991422D01*
D11*
G04 #@! TO.C,SW2*
X142900000Y-77500000D02*
X150100000Y-77500000D01*
X150100000Y-77500000D02*
X150100000Y-81000000D01*
X150100000Y-81000000D02*
X142900000Y-81000000D01*
X142900000Y-81000000D02*
X142900000Y-77500000D01*
G04 #@! TO.C,U1*
X138025000Y-81825000D02*
X138025000Y-81775000D01*
X133875000Y-81825000D02*
X133875000Y-81680000D01*
X133875000Y-76675000D02*
X133875000Y-76820000D01*
X138025000Y-76675000D02*
X138025000Y-76820000D01*
X138025000Y-81825000D02*
X133875000Y-81825000D01*
X138025000Y-76675000D02*
X133875000Y-76675000D01*
X138025000Y-81775000D02*
X139425000Y-81775000D01*
D12*
G04 #@! TO.C,U5*
X161500000Y-92900000D02*
G75*
G02X159500000Y-92900000I-1000000J0D01*
G01*
X159500000Y-92900000D02*
X157265000Y-92900000D01*
X157265000Y-92900000D02*
X157265000Y-98100000D01*
X157265000Y-98100000D02*
X163735000Y-98100000D01*
X163735000Y-98100000D02*
X163735000Y-92900000D01*
X163735000Y-92900000D02*
X161500000Y-92900000D01*
G04 #@! TO.C,D2*
X194000000Y-81540000D02*
X191315000Y-81540000D01*
X191315000Y-81540000D02*
X191315000Y-83460000D01*
X191315000Y-83460000D02*
X194000000Y-83460000D01*
G04 #@! TO.C,Q3*
X191420000Y-76760000D02*
X192350000Y-76760000D01*
X194580000Y-76760000D02*
X193650000Y-76760000D01*
X194580000Y-76760000D02*
X194580000Y-74600000D01*
X191420000Y-76760000D02*
X191420000Y-75300000D01*
G04 #@! TO.C,R22*
X193258578Y-79710000D02*
X192741422Y-79710000D01*
X193258578Y-78290000D02*
X192741422Y-78290000D01*
G04 #@! TO.C,U7*
D11*
X164488095Y-79952380D02*
X164488095Y-80761904D01*
X164535714Y-80857142D01*
X164583333Y-80904761D01*
X164678571Y-80952380D01*
X164869047Y-80952380D01*
X164964285Y-80904761D01*
X165011904Y-80857142D01*
X165059523Y-80761904D01*
X165059523Y-79952380D01*
X165440476Y-79952380D02*
X166107142Y-79952380D01*
X165678571Y-80952380D01*
G04 #@! TO.C,Q1*
X135994761Y-100827619D02*
X135899523Y-100780000D01*
X135804285Y-100684761D01*
X135661428Y-100541904D01*
X135566190Y-100494285D01*
X135470952Y-100494285D01*
X135518571Y-100732380D02*
X135423333Y-100684761D01*
X135328095Y-100589523D01*
X135280476Y-100399047D01*
X135280476Y-100065714D01*
X135328095Y-99875238D01*
X135423333Y-99780000D01*
X135518571Y-99732380D01*
X135709047Y-99732380D01*
X135804285Y-99780000D01*
X135899523Y-99875238D01*
X135947142Y-100065714D01*
X135947142Y-100399047D01*
X135899523Y-100589523D01*
X135804285Y-100684761D01*
X135709047Y-100732380D01*
X135518571Y-100732380D01*
X136899523Y-100732380D02*
X136328095Y-100732380D01*
X136613809Y-100732380D02*
X136613809Y-99732380D01*
X136518571Y-99875238D01*
X136423333Y-99970476D01*
X136328095Y-100018095D01*
G04 #@! TO.C,C9*
X163583333Y-89607142D02*
X163535714Y-89654761D01*
X163392857Y-89702380D01*
X163297619Y-89702380D01*
X163154761Y-89654761D01*
X163059523Y-89559523D01*
X163011904Y-89464285D01*
X162964285Y-89273809D01*
X162964285Y-89130952D01*
X163011904Y-88940476D01*
X163059523Y-88845238D01*
X163154761Y-88750000D01*
X163297619Y-88702380D01*
X163392857Y-88702380D01*
X163535714Y-88750000D01*
X163583333Y-88797619D01*
X164059523Y-89702380D02*
X164250000Y-89702380D01*
X164345238Y-89654761D01*
X164392857Y-89607142D01*
X164488095Y-89464285D01*
X164535714Y-89273809D01*
X164535714Y-88892857D01*
X164488095Y-88797619D01*
X164440476Y-88750000D01*
X164345238Y-88702380D01*
X164154761Y-88702380D01*
X164059523Y-88750000D01*
X164011904Y-88797619D01*
X163964285Y-88892857D01*
X163964285Y-89130952D01*
X164011904Y-89226190D01*
X164059523Y-89273809D01*
X164154761Y-89321428D01*
X164345238Y-89321428D01*
X164440476Y-89273809D01*
X164488095Y-89226190D01*
X164535714Y-89130952D01*
G04 #@! TO.C,U4*
X128098095Y-116132380D02*
X128098095Y-116941904D01*
X128145714Y-117037142D01*
X128193333Y-117084761D01*
X128288571Y-117132380D01*
X128479047Y-117132380D01*
X128574285Y-117084761D01*
X128621904Y-117037142D01*
X128669523Y-116941904D01*
X128669523Y-116132380D01*
X129574285Y-116465714D02*
X129574285Y-117132380D01*
X129336190Y-116084761D02*
X129098095Y-116799047D01*
X129717142Y-116799047D01*
G04 #@! TO.C,C6*
X138833333Y-115068555D02*
X138785714Y-115116174D01*
X138642857Y-115163793D01*
X138547619Y-115163793D01*
X138404761Y-115116174D01*
X138309523Y-115020936D01*
X138261904Y-114925698D01*
X138214285Y-114735222D01*
X138214285Y-114592365D01*
X138261904Y-114401889D01*
X138309523Y-114306651D01*
X138404761Y-114211413D01*
X138547619Y-114163793D01*
X138642857Y-114163793D01*
X138785714Y-114211413D01*
X138833333Y-114259032D01*
X139690476Y-114163793D02*
X139500000Y-114163793D01*
X139404761Y-114211413D01*
X139357142Y-114259032D01*
X139261904Y-114401889D01*
X139214285Y-114592365D01*
X139214285Y-114973317D01*
X139261904Y-115068555D01*
X139309523Y-115116174D01*
X139404761Y-115163793D01*
X139595238Y-115163793D01*
X139690476Y-115116174D01*
X139738095Y-115068555D01*
X139785714Y-114973317D01*
X139785714Y-114735222D01*
X139738095Y-114639984D01*
X139690476Y-114592365D01*
X139595238Y-114544746D01*
X139404761Y-114544746D01*
X139309523Y-114592365D01*
X139261904Y-114639984D01*
X139214285Y-114735222D01*
G04 #@! TO.C,U3*
X136078095Y-88662380D02*
X136078095Y-89471904D01*
X136125714Y-89567142D01*
X136173333Y-89614761D01*
X136268571Y-89662380D01*
X136459047Y-89662380D01*
X136554285Y-89614761D01*
X136601904Y-89567142D01*
X136649523Y-89471904D01*
X136649523Y-88662380D01*
X137030476Y-88662380D02*
X137649523Y-88662380D01*
X137316190Y-89043333D01*
X137459047Y-89043333D01*
X137554285Y-89090952D01*
X137601904Y-89138571D01*
X137649523Y-89233809D01*
X137649523Y-89471904D01*
X137601904Y-89567142D01*
X137554285Y-89614761D01*
X137459047Y-89662380D01*
X137173333Y-89662380D01*
X137078095Y-89614761D01*
X137030476Y-89567142D01*
G04 #@! TO.C,P4*
X195016380Y-93194095D02*
X194016380Y-93194095D01*
X194016380Y-92813142D01*
X194064000Y-92717904D01*
X194111619Y-92670285D01*
X194206857Y-92622666D01*
X194349714Y-92622666D01*
X194444952Y-92670285D01*
X194492571Y-92717904D01*
X194540190Y-92813142D01*
X194540190Y-93194095D01*
X194349714Y-91765523D02*
X195016380Y-91765523D01*
X193968761Y-92003619D02*
X194683047Y-92241714D01*
X194683047Y-91622666D01*
G04 #@! TO.C,P1*
X145211904Y-117202380D02*
X145211904Y-116202380D01*
X145592857Y-116202380D01*
X145688095Y-116250000D01*
X145735714Y-116297619D01*
X145783333Y-116392857D01*
X145783333Y-116535714D01*
X145735714Y-116630952D01*
X145688095Y-116678571D01*
X145592857Y-116726190D01*
X145211904Y-116726190D01*
X146735714Y-117202380D02*
X146164285Y-117202380D01*
X146450000Y-117202380D02*
X146450000Y-116202380D01*
X146354761Y-116345238D01*
X146259523Y-116440476D01*
X146164285Y-116488095D01*
G04 #@! TO.C,P2*
X162329904Y-117038380D02*
X162329904Y-116038380D01*
X162710857Y-116038380D01*
X162806095Y-116086000D01*
X162853714Y-116133619D01*
X162901333Y-116228857D01*
X162901333Y-116371714D01*
X162853714Y-116466952D01*
X162806095Y-116514571D01*
X162710857Y-116562190D01*
X162329904Y-116562190D01*
X163282285Y-116133619D02*
X163329904Y-116086000D01*
X163425142Y-116038380D01*
X163663238Y-116038380D01*
X163758476Y-116086000D01*
X163806095Y-116133619D01*
X163853714Y-116228857D01*
X163853714Y-116324095D01*
X163806095Y-116466952D01*
X163234666Y-117038380D01*
X163853714Y-117038380D01*
G04 #@! TO.C,P3*
X185189904Y-116784380D02*
X185189904Y-115784380D01*
X185570857Y-115784380D01*
X185666095Y-115832000D01*
X185713714Y-115879619D01*
X185761333Y-115974857D01*
X185761333Y-116117714D01*
X185713714Y-116212952D01*
X185666095Y-116260571D01*
X185570857Y-116308190D01*
X185189904Y-116308190D01*
X186094666Y-115784380D02*
X186713714Y-115784380D01*
X186380380Y-116165333D01*
X186523238Y-116165333D01*
X186618476Y-116212952D01*
X186666095Y-116260571D01*
X186713714Y-116355809D01*
X186713714Y-116593904D01*
X186666095Y-116689142D01*
X186618476Y-116736761D01*
X186523238Y-116784380D01*
X186237523Y-116784380D01*
X186142285Y-116736761D01*
X186094666Y-116689142D01*
G04 #@! TO.C,P5*
X144841904Y-73542380D02*
X144841904Y-72542380D01*
X145222857Y-72542380D01*
X145318095Y-72590000D01*
X145365714Y-72637619D01*
X145413333Y-72732857D01*
X145413333Y-72875714D01*
X145365714Y-72970952D01*
X145318095Y-73018571D01*
X145222857Y-73066190D01*
X144841904Y-73066190D01*
X146318095Y-72542380D02*
X145841904Y-72542380D01*
X145794285Y-73018571D01*
X145841904Y-72970952D01*
X145937142Y-72923333D01*
X146175238Y-72923333D01*
X146270476Y-72970952D01*
X146318095Y-73018571D01*
X146365714Y-73113809D01*
X146365714Y-73351904D01*
X146318095Y-73447142D01*
X146270476Y-73494761D01*
X146175238Y-73542380D01*
X145937142Y-73542380D01*
X145841904Y-73494761D01*
X145794285Y-73447142D01*
G04 #@! TO.C,P6*
X157249904Y-74112380D02*
X157249904Y-73112380D01*
X157630857Y-73112380D01*
X157726095Y-73160000D01*
X157773714Y-73207619D01*
X157821333Y-73302857D01*
X157821333Y-73445714D01*
X157773714Y-73540952D01*
X157726095Y-73588571D01*
X157630857Y-73636190D01*
X157249904Y-73636190D01*
X158678476Y-73112380D02*
X158488000Y-73112380D01*
X158392761Y-73160000D01*
X158345142Y-73207619D01*
X158249904Y-73350476D01*
X158202285Y-73540952D01*
X158202285Y-73921904D01*
X158249904Y-74017142D01*
X158297523Y-74064761D01*
X158392761Y-74112380D01*
X158583238Y-74112380D01*
X158678476Y-74064761D01*
X158726095Y-74017142D01*
X158773714Y-73921904D01*
X158773714Y-73683809D01*
X158726095Y-73588571D01*
X158678476Y-73540952D01*
X158583238Y-73493333D01*
X158392761Y-73493333D01*
X158297523Y-73540952D01*
X158249904Y-73588571D01*
X158202285Y-73683809D01*
G04 #@! TO.C,P7*
X180109904Y-74112380D02*
X180109904Y-73112380D01*
X180490857Y-73112380D01*
X180586095Y-73160000D01*
X180633714Y-73207619D01*
X180681333Y-73302857D01*
X180681333Y-73445714D01*
X180633714Y-73540952D01*
X180586095Y-73588571D01*
X180490857Y-73636190D01*
X180109904Y-73636190D01*
X181014666Y-73112380D02*
X181681333Y-73112380D01*
X181252761Y-74112380D01*
G04 #@! TO.C,C1*
X120583333Y-104607142D02*
X120535714Y-104654761D01*
X120392857Y-104702380D01*
X120297619Y-104702380D01*
X120154761Y-104654761D01*
X120059523Y-104559523D01*
X120011904Y-104464285D01*
X119964285Y-104273809D01*
X119964285Y-104130952D01*
X120011904Y-103940476D01*
X120059523Y-103845238D01*
X120154761Y-103750000D01*
X120297619Y-103702380D01*
X120392857Y-103702380D01*
X120535714Y-103750000D01*
X120583333Y-103797619D01*
X121535714Y-104702380D02*
X120964285Y-104702380D01*
X121250000Y-104702380D02*
X121250000Y-103702380D01*
X121154761Y-103845238D01*
X121059523Y-103940476D01*
X120964285Y-103988095D01*
G04 #@! TO.C,C2*
X120083333Y-103107142D02*
X120035714Y-103154761D01*
X119892857Y-103202380D01*
X119797619Y-103202380D01*
X119654761Y-103154761D01*
X119559523Y-103059523D01*
X119511904Y-102964285D01*
X119464285Y-102773809D01*
X119464285Y-102630952D01*
X119511904Y-102440476D01*
X119559523Y-102345238D01*
X119654761Y-102250000D01*
X119797619Y-102202380D01*
X119892857Y-102202380D01*
X120035714Y-102250000D01*
X120083333Y-102297619D01*
X120464285Y-102297619D02*
X120511904Y-102250000D01*
X120607142Y-102202380D01*
X120845238Y-102202380D01*
X120940476Y-102250000D01*
X120988095Y-102297619D01*
X121035714Y-102392857D01*
X121035714Y-102488095D01*
X120988095Y-102630952D01*
X120416666Y-103202380D01*
X121035714Y-103202380D01*
G04 #@! TO.C,C3*
X130483333Y-89347142D02*
X130435714Y-89394761D01*
X130292857Y-89442380D01*
X130197619Y-89442380D01*
X130054761Y-89394761D01*
X129959523Y-89299523D01*
X129911904Y-89204285D01*
X129864285Y-89013809D01*
X129864285Y-88870952D01*
X129911904Y-88680476D01*
X129959523Y-88585238D01*
X130054761Y-88490000D01*
X130197619Y-88442380D01*
X130292857Y-88442380D01*
X130435714Y-88490000D01*
X130483333Y-88537619D01*
X130816666Y-88442380D02*
X131435714Y-88442380D01*
X131102380Y-88823333D01*
X131245238Y-88823333D01*
X131340476Y-88870952D01*
X131388095Y-88918571D01*
X131435714Y-89013809D01*
X131435714Y-89251904D01*
X131388095Y-89347142D01*
X131340476Y-89394761D01*
X131245238Y-89442380D01*
X130959523Y-89442380D01*
X130864285Y-89394761D01*
X130816666Y-89347142D01*
G04 #@! TO.C,C4*
X121333333Y-115607142D02*
X121285714Y-115654761D01*
X121142857Y-115702380D01*
X121047619Y-115702380D01*
X120904761Y-115654761D01*
X120809523Y-115559523D01*
X120761904Y-115464285D01*
X120714285Y-115273809D01*
X120714285Y-115130952D01*
X120761904Y-114940476D01*
X120809523Y-114845238D01*
X120904761Y-114750000D01*
X121047619Y-114702380D01*
X121142857Y-114702380D01*
X121285714Y-114750000D01*
X121333333Y-114797619D01*
X122190476Y-115035714D02*
X122190476Y-115702380D01*
X121952380Y-114654761D02*
X121714285Y-115369047D01*
X122333333Y-115369047D01*
G04 #@! TO.C,C5*
X134083333Y-107107142D02*
X134035714Y-107154761D01*
X133892857Y-107202380D01*
X133797619Y-107202380D01*
X133654761Y-107154761D01*
X133559523Y-107059523D01*
X133511904Y-106964285D01*
X133464285Y-106773809D01*
X133464285Y-106630952D01*
X133511904Y-106440476D01*
X133559523Y-106345238D01*
X133654761Y-106250000D01*
X133797619Y-106202380D01*
X133892857Y-106202380D01*
X134035714Y-106250000D01*
X134083333Y-106297619D01*
X134988095Y-106202380D02*
X134511904Y-106202380D01*
X134464285Y-106678571D01*
X134511904Y-106630952D01*
X134607142Y-106583333D01*
X134845238Y-106583333D01*
X134940476Y-106630952D01*
X134988095Y-106678571D01*
X135035714Y-106773809D01*
X135035714Y-107011904D01*
X134988095Y-107107142D01*
X134940476Y-107154761D01*
X134845238Y-107202380D01*
X134607142Y-107202380D01*
X134511904Y-107154761D01*
X134464285Y-107107142D01*
G04 #@! TO.C,C10*
X165107142Y-83607142D02*
X165059523Y-83654761D01*
X164916666Y-83702380D01*
X164821428Y-83702380D01*
X164678571Y-83654761D01*
X164583333Y-83559523D01*
X164535714Y-83464285D01*
X164488095Y-83273809D01*
X164488095Y-83130952D01*
X164535714Y-82940476D01*
X164583333Y-82845238D01*
X164678571Y-82750000D01*
X164821428Y-82702380D01*
X164916666Y-82702380D01*
X165059523Y-82750000D01*
X165107142Y-82797619D01*
X166059523Y-83702380D02*
X165488095Y-83702380D01*
X165773809Y-83702380D02*
X165773809Y-82702380D01*
X165678571Y-82845238D01*
X165583333Y-82940476D01*
X165488095Y-82988095D01*
X166678571Y-82702380D02*
X166773809Y-82702380D01*
X166869047Y-82750000D01*
X166916666Y-82797619D01*
X166964285Y-82892857D01*
X167011904Y-83083333D01*
X167011904Y-83321428D01*
X166964285Y-83511904D01*
X166916666Y-83607142D01*
X166869047Y-83654761D01*
X166773809Y-83702380D01*
X166678571Y-83702380D01*
X166583333Y-83654761D01*
X166535714Y-83607142D01*
X166488095Y-83511904D01*
X166440476Y-83321428D01*
X166440476Y-83083333D01*
X166488095Y-82892857D01*
X166535714Y-82797619D01*
X166583333Y-82750000D01*
X166678571Y-82702380D01*
G04 #@! TO.C,C11*
X156107142Y-83607142D02*
X156059523Y-83654761D01*
X155916666Y-83702380D01*
X155821428Y-83702380D01*
X155678571Y-83654761D01*
X155583333Y-83559523D01*
X155535714Y-83464285D01*
X155488095Y-83273809D01*
X155488095Y-83130952D01*
X155535714Y-82940476D01*
X155583333Y-82845238D01*
X155678571Y-82750000D01*
X155821428Y-82702380D01*
X155916666Y-82702380D01*
X156059523Y-82750000D01*
X156107142Y-82797619D01*
X157059523Y-83702380D02*
X156488095Y-83702380D01*
X156773809Y-83702380D02*
X156773809Y-82702380D01*
X156678571Y-82845238D01*
X156583333Y-82940476D01*
X156488095Y-82988095D01*
X158011904Y-83702380D02*
X157440476Y-83702380D01*
X157726190Y-83702380D02*
X157726190Y-82702380D01*
X157630952Y-82845238D01*
X157535714Y-82940476D01*
X157440476Y-82988095D01*
G04 #@! TO.C,D4*
X165011904Y-78702380D02*
X165011904Y-77702380D01*
X165250000Y-77702380D01*
X165392857Y-77750000D01*
X165488095Y-77845238D01*
X165535714Y-77940476D01*
X165583333Y-78130952D01*
X165583333Y-78273809D01*
X165535714Y-78464285D01*
X165488095Y-78559523D01*
X165392857Y-78654761D01*
X165250000Y-78702380D01*
X165011904Y-78702380D01*
X166440476Y-78035714D02*
X166440476Y-78702380D01*
X166202380Y-77654761D02*
X165964285Y-78369047D01*
X166583333Y-78369047D01*
G04 #@! TO.C,D7*
X159011904Y-78702380D02*
X159011904Y-77702380D01*
X159250000Y-77702380D01*
X159392857Y-77750000D01*
X159488095Y-77845238D01*
X159535714Y-77940476D01*
X159583333Y-78130952D01*
X159583333Y-78273809D01*
X159535714Y-78464285D01*
X159488095Y-78559523D01*
X159392857Y-78654761D01*
X159250000Y-78702380D01*
X159011904Y-78702380D01*
X159916666Y-77702380D02*
X160583333Y-77702380D01*
X160154761Y-78702380D01*
G04 #@! TO.C,D8*
X162011904Y-78702380D02*
X162011904Y-77702380D01*
X162250000Y-77702380D01*
X162392857Y-77750000D01*
X162488095Y-77845238D01*
X162535714Y-77940476D01*
X162583333Y-78130952D01*
X162583333Y-78273809D01*
X162535714Y-78464285D01*
X162488095Y-78559523D01*
X162392857Y-78654761D01*
X162250000Y-78702380D01*
X162011904Y-78702380D01*
X163154761Y-78130952D02*
X163059523Y-78083333D01*
X163011904Y-78035714D01*
X162964285Y-77940476D01*
X162964285Y-77892857D01*
X163011904Y-77797619D01*
X163059523Y-77750000D01*
X163154761Y-77702380D01*
X163345238Y-77702380D01*
X163440476Y-77750000D01*
X163488095Y-77797619D01*
X163535714Y-77892857D01*
X163535714Y-77940476D01*
X163488095Y-78035714D01*
X163440476Y-78083333D01*
X163345238Y-78130952D01*
X163154761Y-78130952D01*
X163059523Y-78178571D01*
X163011904Y-78226190D01*
X162964285Y-78321428D01*
X162964285Y-78511904D01*
X163011904Y-78607142D01*
X163059523Y-78654761D01*
X163154761Y-78702380D01*
X163345238Y-78702380D01*
X163440476Y-78654761D01*
X163488095Y-78607142D01*
X163535714Y-78511904D01*
X163535714Y-78321428D01*
X163488095Y-78226190D01*
X163440476Y-78178571D01*
X163345238Y-78130952D01*
G04 #@! TO.C,D9*
X153011904Y-78702380D02*
X153011904Y-77702380D01*
X153250000Y-77702380D01*
X153392857Y-77750000D01*
X153488095Y-77845238D01*
X153535714Y-77940476D01*
X153583333Y-78130952D01*
X153583333Y-78273809D01*
X153535714Y-78464285D01*
X153488095Y-78559523D01*
X153392857Y-78654761D01*
X153250000Y-78702380D01*
X153011904Y-78702380D01*
X154059523Y-78702380D02*
X154250000Y-78702380D01*
X154345238Y-78654761D01*
X154392857Y-78607142D01*
X154488095Y-78464285D01*
X154535714Y-78273809D01*
X154535714Y-77892857D01*
X154488095Y-77797619D01*
X154440476Y-77750000D01*
X154345238Y-77702380D01*
X154154761Y-77702380D01*
X154059523Y-77750000D01*
X154011904Y-77797619D01*
X153964285Y-77892857D01*
X153964285Y-78130952D01*
X154011904Y-78226190D01*
X154059523Y-78273809D01*
X154154761Y-78321428D01*
X154345238Y-78321428D01*
X154440476Y-78273809D01*
X154488095Y-78226190D01*
X154535714Y-78130952D01*
G04 #@! TO.C,L1*
X133733333Y-102852380D02*
X133257142Y-102852380D01*
X133257142Y-101852380D01*
X134590476Y-102852380D02*
X134019047Y-102852380D01*
X134304761Y-102852380D02*
X134304761Y-101852380D01*
X134209523Y-101995238D01*
X134114285Y-102090476D01*
X134019047Y-102138095D01*
G04 #@! TO.C,Q5*
X165654761Y-75797619D02*
X165559523Y-75750000D01*
X165464285Y-75654761D01*
X165321428Y-75511904D01*
X165226190Y-75464285D01*
X165130952Y-75464285D01*
X165178571Y-75702380D02*
X165083333Y-75654761D01*
X164988095Y-75559523D01*
X164940476Y-75369047D01*
X164940476Y-75035714D01*
X164988095Y-74845238D01*
X165083333Y-74750000D01*
X165178571Y-74702380D01*
X165369047Y-74702380D01*
X165464285Y-74750000D01*
X165559523Y-74845238D01*
X165607142Y-75035714D01*
X165607142Y-75369047D01*
X165559523Y-75559523D01*
X165464285Y-75654761D01*
X165369047Y-75702380D01*
X165178571Y-75702380D01*
X166511904Y-74702380D02*
X166035714Y-74702380D01*
X165988095Y-75178571D01*
X166035714Y-75130952D01*
X166130952Y-75083333D01*
X166369047Y-75083333D01*
X166464285Y-75130952D01*
X166511904Y-75178571D01*
X166559523Y-75273809D01*
X166559523Y-75511904D01*
X166511904Y-75607142D01*
X166464285Y-75654761D01*
X166369047Y-75702380D01*
X166130952Y-75702380D01*
X166035714Y-75654761D01*
X165988095Y-75607142D01*
G04 #@! TO.C,Q8*
X159654761Y-75797619D02*
X159559523Y-75750000D01*
X159464285Y-75654761D01*
X159321428Y-75511904D01*
X159226190Y-75464285D01*
X159130952Y-75464285D01*
X159178571Y-75702380D02*
X159083333Y-75654761D01*
X158988095Y-75559523D01*
X158940476Y-75369047D01*
X158940476Y-75035714D01*
X158988095Y-74845238D01*
X159083333Y-74750000D01*
X159178571Y-74702380D01*
X159369047Y-74702380D01*
X159464285Y-74750000D01*
X159559523Y-74845238D01*
X159607142Y-75035714D01*
X159607142Y-75369047D01*
X159559523Y-75559523D01*
X159464285Y-75654761D01*
X159369047Y-75702380D01*
X159178571Y-75702380D01*
X160178571Y-75130952D02*
X160083333Y-75083333D01*
X160035714Y-75035714D01*
X159988095Y-74940476D01*
X159988095Y-74892857D01*
X160035714Y-74797619D01*
X160083333Y-74750000D01*
X160178571Y-74702380D01*
X160369047Y-74702380D01*
X160464285Y-74750000D01*
X160511904Y-74797619D01*
X160559523Y-74892857D01*
X160559523Y-74940476D01*
X160511904Y-75035714D01*
X160464285Y-75083333D01*
X160369047Y-75130952D01*
X160178571Y-75130952D01*
X160083333Y-75178571D01*
X160035714Y-75226190D01*
X159988095Y-75321428D01*
X159988095Y-75511904D01*
X160035714Y-75607142D01*
X160083333Y-75654761D01*
X160178571Y-75702380D01*
X160369047Y-75702380D01*
X160464285Y-75654761D01*
X160511904Y-75607142D01*
X160559523Y-75511904D01*
X160559523Y-75321428D01*
X160511904Y-75226190D01*
X160464285Y-75178571D01*
X160369047Y-75130952D01*
G04 #@! TO.C,R2*
X152333333Y-100452380D02*
X152000000Y-99976190D01*
X151761904Y-100452380D02*
X151761904Y-99452380D01*
X152142857Y-99452380D01*
X152238095Y-99500000D01*
X152285714Y-99547619D01*
X152333333Y-99642857D01*
X152333333Y-99785714D01*
X152285714Y-99880952D01*
X152238095Y-99928571D01*
X152142857Y-99976190D01*
X151761904Y-99976190D01*
X152714285Y-99547619D02*
X152761904Y-99500000D01*
X152857142Y-99452380D01*
X153095238Y-99452380D01*
X153190476Y-99500000D01*
X153238095Y-99547619D01*
X153285714Y-99642857D01*
X153285714Y-99738095D01*
X153238095Y-99880952D01*
X152666666Y-100452380D01*
X153285714Y-100452380D01*
G04 #@! TO.C,R3*
X121333333Y-89252380D02*
X121000000Y-88776190D01*
X120761904Y-89252380D02*
X120761904Y-88252380D01*
X121142857Y-88252380D01*
X121238095Y-88300000D01*
X121285714Y-88347619D01*
X121333333Y-88442857D01*
X121333333Y-88585714D01*
X121285714Y-88680952D01*
X121238095Y-88728571D01*
X121142857Y-88776190D01*
X120761904Y-88776190D01*
X121666666Y-88252380D02*
X122285714Y-88252380D01*
X121952380Y-88633333D01*
X122095238Y-88633333D01*
X122190476Y-88680952D01*
X122238095Y-88728571D01*
X122285714Y-88823809D01*
X122285714Y-89061904D01*
X122238095Y-89157142D01*
X122190476Y-89204761D01*
X122095238Y-89252380D01*
X121809523Y-89252380D01*
X121714285Y-89204761D01*
X121666666Y-89157142D01*
G04 #@! TO.C,R4*
X120933333Y-99452380D02*
X120600000Y-98976190D01*
X120361904Y-99452380D02*
X120361904Y-98452380D01*
X120742857Y-98452380D01*
X120838095Y-98500000D01*
X120885714Y-98547619D01*
X120933333Y-98642857D01*
X120933333Y-98785714D01*
X120885714Y-98880952D01*
X120838095Y-98928571D01*
X120742857Y-98976190D01*
X120361904Y-98976190D01*
X121790476Y-98785714D02*
X121790476Y-99452380D01*
X121552380Y-98404761D02*
X121314285Y-99119047D01*
X121933333Y-99119047D01*
G04 #@! TO.C,R5*
X121333333Y-118702380D02*
X121000000Y-118226190D01*
X120761904Y-118702380D02*
X120761904Y-117702380D01*
X121142857Y-117702380D01*
X121238095Y-117750000D01*
X121285714Y-117797619D01*
X121333333Y-117892857D01*
X121333333Y-118035714D01*
X121285714Y-118130952D01*
X121238095Y-118178571D01*
X121142857Y-118226190D01*
X120761904Y-118226190D01*
X122238095Y-117702380D02*
X121761904Y-117702380D01*
X121714285Y-118178571D01*
X121761904Y-118130952D01*
X121857142Y-118083333D01*
X122095238Y-118083333D01*
X122190476Y-118130952D01*
X122238095Y-118178571D01*
X122285714Y-118273809D01*
X122285714Y-118511904D01*
X122238095Y-118607142D01*
X122190476Y-118654761D01*
X122095238Y-118702380D01*
X121857142Y-118702380D01*
X121761904Y-118654761D01*
X121714285Y-118607142D01*
G04 #@! TO.C,R6*
X119853333Y-95672380D02*
X119520000Y-95196190D01*
X119281904Y-95672380D02*
X119281904Y-94672380D01*
X119662857Y-94672380D01*
X119758095Y-94720000D01*
X119805714Y-94767619D01*
X119853333Y-94862857D01*
X119853333Y-95005714D01*
X119805714Y-95100952D01*
X119758095Y-95148571D01*
X119662857Y-95196190D01*
X119281904Y-95196190D01*
X120710476Y-94672380D02*
X120520000Y-94672380D01*
X120424761Y-94720000D01*
X120377142Y-94767619D01*
X120281904Y-94910476D01*
X120234285Y-95100952D01*
X120234285Y-95481904D01*
X120281904Y-95577142D01*
X120329523Y-95624761D01*
X120424761Y-95672380D01*
X120615238Y-95672380D01*
X120710476Y-95624761D01*
X120758095Y-95577142D01*
X120805714Y-95481904D01*
X120805714Y-95243809D01*
X120758095Y-95148571D01*
X120710476Y-95100952D01*
X120615238Y-95053333D01*
X120424761Y-95053333D01*
X120329523Y-95100952D01*
X120281904Y-95148571D01*
X120234285Y-95243809D01*
G04 #@! TO.C,R8*
X167833333Y-102702380D02*
X167500000Y-102226190D01*
X167261904Y-102702380D02*
X167261904Y-101702380D01*
X167642857Y-101702380D01*
X167738095Y-101750000D01*
X167785714Y-101797619D01*
X167833333Y-101892857D01*
X167833333Y-102035714D01*
X167785714Y-102130952D01*
X167738095Y-102178571D01*
X167642857Y-102226190D01*
X167261904Y-102226190D01*
X168404761Y-102130952D02*
X168309523Y-102083333D01*
X168261904Y-102035714D01*
X168214285Y-101940476D01*
X168214285Y-101892857D01*
X168261904Y-101797619D01*
X168309523Y-101750000D01*
X168404761Y-101702380D01*
X168595238Y-101702380D01*
X168690476Y-101750000D01*
X168738095Y-101797619D01*
X168785714Y-101892857D01*
X168785714Y-101940476D01*
X168738095Y-102035714D01*
X168690476Y-102083333D01*
X168595238Y-102130952D01*
X168404761Y-102130952D01*
X168309523Y-102178571D01*
X168261904Y-102226190D01*
X168214285Y-102321428D01*
X168214285Y-102511904D01*
X168261904Y-102607142D01*
X168309523Y-102654761D01*
X168404761Y-102702380D01*
X168595238Y-102702380D01*
X168690476Y-102654761D01*
X168738095Y-102607142D01*
X168785714Y-102511904D01*
X168785714Y-102321428D01*
X168738095Y-102226190D01*
X168690476Y-102178571D01*
X168595238Y-102130952D01*
G04 #@! TO.C,R9*
X119073333Y-113813017D02*
X118740000Y-113336827D01*
X118501904Y-113813017D02*
X118501904Y-112813017D01*
X118882857Y-112813017D01*
X118978095Y-112860637D01*
X119025714Y-112908256D01*
X119073333Y-113003494D01*
X119073333Y-113146351D01*
X119025714Y-113241589D01*
X118978095Y-113289208D01*
X118882857Y-113336827D01*
X118501904Y-113336827D01*
X119549523Y-113813017D02*
X119740000Y-113813017D01*
X119835238Y-113765398D01*
X119882857Y-113717779D01*
X119978095Y-113574922D01*
X120025714Y-113384446D01*
X120025714Y-113003494D01*
X119978095Y-112908256D01*
X119930476Y-112860637D01*
X119835238Y-112813017D01*
X119644761Y-112813017D01*
X119549523Y-112860637D01*
X119501904Y-112908256D01*
X119454285Y-113003494D01*
X119454285Y-113241589D01*
X119501904Y-113336827D01*
X119549523Y-113384446D01*
X119644761Y-113432065D01*
X119835238Y-113432065D01*
X119930476Y-113384446D01*
X119978095Y-113336827D01*
X120025714Y-113241589D01*
G04 #@! TO.C,R10*
X121399784Y-112063017D02*
X121066451Y-111586827D01*
X120828356Y-112063017D02*
X120828356Y-111063017D01*
X121209308Y-111063017D01*
X121304546Y-111110637D01*
X121352165Y-111158256D01*
X121399784Y-111253494D01*
X121399784Y-111396351D01*
X121352165Y-111491589D01*
X121304546Y-111539208D01*
X121209308Y-111586827D01*
X120828356Y-111586827D01*
X122352165Y-112063017D02*
X121780737Y-112063017D01*
X122066451Y-112063017D02*
X122066451Y-111063017D01*
X121971213Y-111205875D01*
X121875975Y-111301113D01*
X121780737Y-111348732D01*
X122971213Y-111063017D02*
X123066451Y-111063017D01*
X123161689Y-111110637D01*
X123209308Y-111158256D01*
X123256927Y-111253494D01*
X123304546Y-111443970D01*
X123304546Y-111682065D01*
X123256927Y-111872541D01*
X123209308Y-111967779D01*
X123161689Y-112015398D01*
X123066451Y-112063017D01*
X122971213Y-112063017D01*
X122875975Y-112015398D01*
X122828356Y-111967779D01*
X122780737Y-111872541D01*
X122733118Y-111682065D01*
X122733118Y-111443970D01*
X122780737Y-111253494D01*
X122828356Y-111158256D01*
X122875975Y-111110637D01*
X122971213Y-111063017D01*
G04 #@! TO.C,R13*
X121357142Y-117202380D02*
X121023809Y-116726190D01*
X120785714Y-117202380D02*
X120785714Y-116202380D01*
X121166666Y-116202380D01*
X121261904Y-116250000D01*
X121309523Y-116297619D01*
X121357142Y-116392857D01*
X121357142Y-116535714D01*
X121309523Y-116630952D01*
X121261904Y-116678571D01*
X121166666Y-116726190D01*
X120785714Y-116726190D01*
X122309523Y-117202380D02*
X121738095Y-117202380D01*
X122023809Y-117202380D02*
X122023809Y-116202380D01*
X121928571Y-116345238D01*
X121833333Y-116440476D01*
X121738095Y-116488095D01*
X122642857Y-116202380D02*
X123261904Y-116202380D01*
X122928571Y-116583333D01*
X123071428Y-116583333D01*
X123166666Y-116630952D01*
X123214285Y-116678571D01*
X123261904Y-116773809D01*
X123261904Y-117011904D01*
X123214285Y-117107142D01*
X123166666Y-117154761D01*
X123071428Y-117202380D01*
X122785714Y-117202380D01*
X122690476Y-117154761D01*
X122642857Y-117107142D01*
G04 #@! TO.C,R16*
X138857142Y-116702380D02*
X138523809Y-116226190D01*
X138285714Y-116702380D02*
X138285714Y-115702380D01*
X138666666Y-115702380D01*
X138761904Y-115750000D01*
X138809523Y-115797619D01*
X138857142Y-115892857D01*
X138857142Y-116035714D01*
X138809523Y-116130952D01*
X138761904Y-116178571D01*
X138666666Y-116226190D01*
X138285714Y-116226190D01*
X139809523Y-116702380D02*
X139238095Y-116702380D01*
X139523809Y-116702380D02*
X139523809Y-115702380D01*
X139428571Y-115845238D01*
X139333333Y-115940476D01*
X139238095Y-115988095D01*
X140666666Y-115702380D02*
X140476190Y-115702380D01*
X140380952Y-115750000D01*
X140333333Y-115797619D01*
X140238095Y-115940476D01*
X140190476Y-116130952D01*
X140190476Y-116511904D01*
X140238095Y-116607142D01*
X140285714Y-116654761D01*
X140380952Y-116702380D01*
X140571428Y-116702380D01*
X140666666Y-116654761D01*
X140714285Y-116607142D01*
X140761904Y-116511904D01*
X140761904Y-116273809D01*
X140714285Y-116178571D01*
X140666666Y-116130952D01*
X140571428Y-116083333D01*
X140380952Y-116083333D01*
X140285714Y-116130952D01*
X140238095Y-116178571D01*
X140190476Y-116273809D01*
G04 #@! TO.C,R17*
X138277142Y-100502380D02*
X137943809Y-100026190D01*
X137705714Y-100502380D02*
X137705714Y-99502380D01*
X138086666Y-99502380D01*
X138181904Y-99550000D01*
X138229523Y-99597619D01*
X138277142Y-99692857D01*
X138277142Y-99835714D01*
X138229523Y-99930952D01*
X138181904Y-99978571D01*
X138086666Y-100026190D01*
X137705714Y-100026190D01*
X139229523Y-100502380D02*
X138658095Y-100502380D01*
X138943809Y-100502380D02*
X138943809Y-99502380D01*
X138848571Y-99645238D01*
X138753333Y-99740476D01*
X138658095Y-99788095D01*
X139562857Y-99502380D02*
X140229523Y-99502380D01*
X139800952Y-100502380D01*
G04 #@! TO.C,R18*
X121379784Y-110063017D02*
X121046451Y-109586827D01*
X120808356Y-110063017D02*
X120808356Y-109063017D01*
X121189308Y-109063017D01*
X121284546Y-109110637D01*
X121332165Y-109158256D01*
X121379784Y-109253494D01*
X121379784Y-109396351D01*
X121332165Y-109491589D01*
X121284546Y-109539208D01*
X121189308Y-109586827D01*
X120808356Y-109586827D01*
X122332165Y-110063017D02*
X121760737Y-110063017D01*
X122046451Y-110063017D02*
X122046451Y-109063017D01*
X121951213Y-109205875D01*
X121855975Y-109301113D01*
X121760737Y-109348732D01*
X122903594Y-109491589D02*
X122808356Y-109443970D01*
X122760737Y-109396351D01*
X122713118Y-109301113D01*
X122713118Y-109253494D01*
X122760737Y-109158256D01*
X122808356Y-109110637D01*
X122903594Y-109063017D01*
X123094070Y-109063017D01*
X123189308Y-109110637D01*
X123236927Y-109158256D01*
X123284546Y-109253494D01*
X123284546Y-109301113D01*
X123236927Y-109396351D01*
X123189308Y-109443970D01*
X123094070Y-109491589D01*
X122903594Y-109491589D01*
X122808356Y-109539208D01*
X122760737Y-109586827D01*
X122713118Y-109682065D01*
X122713118Y-109872541D01*
X122760737Y-109967779D01*
X122808356Y-110015398D01*
X122903594Y-110063017D01*
X123094070Y-110063017D01*
X123189308Y-110015398D01*
X123236927Y-109967779D01*
X123284546Y-109872541D01*
X123284546Y-109682065D01*
X123236927Y-109586827D01*
X123189308Y-109539208D01*
X123094070Y-109491589D01*
G04 #@! TO.C,R19*
X132207142Y-100452380D02*
X131873809Y-99976190D01*
X131635714Y-100452380D02*
X131635714Y-99452380D01*
X132016666Y-99452380D01*
X132111904Y-99500000D01*
X132159523Y-99547619D01*
X132207142Y-99642857D01*
X132207142Y-99785714D01*
X132159523Y-99880952D01*
X132111904Y-99928571D01*
X132016666Y-99976190D01*
X131635714Y-99976190D01*
X133159523Y-100452380D02*
X132588095Y-100452380D01*
X132873809Y-100452380D02*
X132873809Y-99452380D01*
X132778571Y-99595238D01*
X132683333Y-99690476D01*
X132588095Y-99738095D01*
X133635714Y-100452380D02*
X133826190Y-100452380D01*
X133921428Y-100404761D01*
X133969047Y-100357142D01*
X134064285Y-100214285D01*
X134111904Y-100023809D01*
X134111904Y-99642857D01*
X134064285Y-99547619D01*
X134016666Y-99500000D01*
X133921428Y-99452380D01*
X133730952Y-99452380D01*
X133635714Y-99500000D01*
X133588095Y-99547619D01*
X133540476Y-99642857D01*
X133540476Y-99880952D01*
X133588095Y-99976190D01*
X133635714Y-100023809D01*
X133730952Y-100071428D01*
X133921428Y-100071428D01*
X134016666Y-100023809D01*
X134064285Y-99976190D01*
X134111904Y-99880952D01*
G04 #@! TO.C,R21*
X165607142Y-77202380D02*
X165273809Y-76726190D01*
X165035714Y-77202380D02*
X165035714Y-76202380D01*
X165416666Y-76202380D01*
X165511904Y-76250000D01*
X165559523Y-76297619D01*
X165607142Y-76392857D01*
X165607142Y-76535714D01*
X165559523Y-76630952D01*
X165511904Y-76678571D01*
X165416666Y-76726190D01*
X165035714Y-76726190D01*
X165988095Y-76297619D02*
X166035714Y-76250000D01*
X166130952Y-76202380D01*
X166369047Y-76202380D01*
X166464285Y-76250000D01*
X166511904Y-76297619D01*
X166559523Y-76392857D01*
X166559523Y-76488095D01*
X166511904Y-76630952D01*
X165940476Y-77202380D01*
X166559523Y-77202380D01*
X167511904Y-77202380D02*
X166940476Y-77202380D01*
X167226190Y-77202380D02*
X167226190Y-76202380D01*
X167130952Y-76345238D01*
X167035714Y-76440476D01*
X166940476Y-76488095D01*
G04 #@! TO.C,R24*
X159607142Y-77202380D02*
X159273809Y-76726190D01*
X159035714Y-77202380D02*
X159035714Y-76202380D01*
X159416666Y-76202380D01*
X159511904Y-76250000D01*
X159559523Y-76297619D01*
X159607142Y-76392857D01*
X159607142Y-76535714D01*
X159559523Y-76630952D01*
X159511904Y-76678571D01*
X159416666Y-76726190D01*
X159035714Y-76726190D01*
X159988095Y-76297619D02*
X160035714Y-76250000D01*
X160130952Y-76202380D01*
X160369047Y-76202380D01*
X160464285Y-76250000D01*
X160511904Y-76297619D01*
X160559523Y-76392857D01*
X160559523Y-76488095D01*
X160511904Y-76630952D01*
X159940476Y-77202380D01*
X160559523Y-77202380D01*
X161416666Y-76535714D02*
X161416666Y-77202380D01*
X161178571Y-76154761D02*
X160940476Y-76869047D01*
X161559523Y-76869047D01*
G04 #@! TO.C,R25*
X162607142Y-77202380D02*
X162273809Y-76726190D01*
X162035714Y-77202380D02*
X162035714Y-76202380D01*
X162416666Y-76202380D01*
X162511904Y-76250000D01*
X162559523Y-76297619D01*
X162607142Y-76392857D01*
X162607142Y-76535714D01*
X162559523Y-76630952D01*
X162511904Y-76678571D01*
X162416666Y-76726190D01*
X162035714Y-76726190D01*
X162988095Y-76297619D02*
X163035714Y-76250000D01*
X163130952Y-76202380D01*
X163369047Y-76202380D01*
X163464285Y-76250000D01*
X163511904Y-76297619D01*
X163559523Y-76392857D01*
X163559523Y-76488095D01*
X163511904Y-76630952D01*
X162940476Y-77202380D01*
X163559523Y-77202380D01*
X164464285Y-76202380D02*
X163988095Y-76202380D01*
X163940476Y-76678571D01*
X163988095Y-76630952D01*
X164083333Y-76583333D01*
X164321428Y-76583333D01*
X164416666Y-76630952D01*
X164464285Y-76678571D01*
X164511904Y-76773809D01*
X164511904Y-77011904D01*
X164464285Y-77107142D01*
X164416666Y-77154761D01*
X164321428Y-77202380D01*
X164083333Y-77202380D01*
X163988095Y-77154761D01*
X163940476Y-77107142D01*
G04 #@! TO.C,R26*
X153607142Y-77202380D02*
X153273809Y-76726190D01*
X153035714Y-77202380D02*
X153035714Y-76202380D01*
X153416666Y-76202380D01*
X153511904Y-76250000D01*
X153559523Y-76297619D01*
X153607142Y-76392857D01*
X153607142Y-76535714D01*
X153559523Y-76630952D01*
X153511904Y-76678571D01*
X153416666Y-76726190D01*
X153035714Y-76726190D01*
X153988095Y-76297619D02*
X154035714Y-76250000D01*
X154130952Y-76202380D01*
X154369047Y-76202380D01*
X154464285Y-76250000D01*
X154511904Y-76297619D01*
X154559523Y-76392857D01*
X154559523Y-76488095D01*
X154511904Y-76630952D01*
X153940476Y-77202380D01*
X154559523Y-77202380D01*
X155416666Y-76202380D02*
X155226190Y-76202380D01*
X155130952Y-76250000D01*
X155083333Y-76297619D01*
X154988095Y-76440476D01*
X154940476Y-76630952D01*
X154940476Y-77011904D01*
X154988095Y-77107142D01*
X155035714Y-77154761D01*
X155130952Y-77202380D01*
X155321428Y-77202380D01*
X155416666Y-77154761D01*
X155464285Y-77107142D01*
X155511904Y-77011904D01*
X155511904Y-76773809D01*
X155464285Y-76678571D01*
X155416666Y-76630952D01*
X155321428Y-76583333D01*
X155130952Y-76583333D01*
X155035714Y-76630952D01*
X154988095Y-76678571D01*
X154940476Y-76773809D01*
G04 #@! TO.C,R27*
X156607142Y-77202380D02*
X156273809Y-76726190D01*
X156035714Y-77202380D02*
X156035714Y-76202380D01*
X156416666Y-76202380D01*
X156511904Y-76250000D01*
X156559523Y-76297619D01*
X156607142Y-76392857D01*
X156607142Y-76535714D01*
X156559523Y-76630952D01*
X156511904Y-76678571D01*
X156416666Y-76726190D01*
X156035714Y-76726190D01*
X156988095Y-76297619D02*
X157035714Y-76250000D01*
X157130952Y-76202380D01*
X157369047Y-76202380D01*
X157464285Y-76250000D01*
X157511904Y-76297619D01*
X157559523Y-76392857D01*
X157559523Y-76488095D01*
X157511904Y-76630952D01*
X156940476Y-77202380D01*
X157559523Y-77202380D01*
X157892857Y-76202380D02*
X158559523Y-76202380D01*
X158130952Y-77202380D01*
G04 #@! TO.C,D1*
X136261904Y-104702380D02*
X136261904Y-103702380D01*
X136500000Y-103702380D01*
X136642857Y-103750000D01*
X136738095Y-103845238D01*
X136785714Y-103940476D01*
X136833333Y-104130952D01*
X136833333Y-104273809D01*
X136785714Y-104464285D01*
X136738095Y-104559523D01*
X136642857Y-104654761D01*
X136500000Y-104702380D01*
X136261904Y-104702380D01*
X137785714Y-104702380D02*
X137214285Y-104702380D01*
X137500000Y-104702380D02*
X137500000Y-103702380D01*
X137404761Y-103845238D01*
X137309523Y-103940476D01*
X137214285Y-103988095D01*
G04 #@! TO.C,C7*
X141663333Y-113417142D02*
X141615714Y-113464761D01*
X141472857Y-113512380D01*
X141377619Y-113512380D01*
X141234761Y-113464761D01*
X141139523Y-113369523D01*
X141091904Y-113274285D01*
X141044285Y-113083809D01*
X141044285Y-112940952D01*
X141091904Y-112750476D01*
X141139523Y-112655238D01*
X141234761Y-112560000D01*
X141377619Y-112512380D01*
X141472857Y-112512380D01*
X141615714Y-112560000D01*
X141663333Y-112607619D01*
X141996666Y-112512380D02*
X142663333Y-112512380D01*
X142234761Y-113512380D01*
G04 #@! TO.C,C8*
X165833333Y-89607142D02*
X165785714Y-89654761D01*
X165642857Y-89702380D01*
X165547619Y-89702380D01*
X165404761Y-89654761D01*
X165309523Y-89559523D01*
X165261904Y-89464285D01*
X165214285Y-89273809D01*
X165214285Y-89130952D01*
X165261904Y-88940476D01*
X165309523Y-88845238D01*
X165404761Y-88750000D01*
X165547619Y-88702380D01*
X165642857Y-88702380D01*
X165785714Y-88750000D01*
X165833333Y-88797619D01*
X166404761Y-89130952D02*
X166309523Y-89083333D01*
X166261904Y-89035714D01*
X166214285Y-88940476D01*
X166214285Y-88892857D01*
X166261904Y-88797619D01*
X166309523Y-88750000D01*
X166404761Y-88702380D01*
X166595238Y-88702380D01*
X166690476Y-88750000D01*
X166738095Y-88797619D01*
X166785714Y-88892857D01*
X166785714Y-88940476D01*
X166738095Y-89035714D01*
X166690476Y-89083333D01*
X166595238Y-89130952D01*
X166404761Y-89130952D01*
X166309523Y-89178571D01*
X166261904Y-89226190D01*
X166214285Y-89321428D01*
X166214285Y-89511904D01*
X166261904Y-89607142D01*
X166309523Y-89654761D01*
X166404761Y-89702380D01*
X166595238Y-89702380D01*
X166690476Y-89654761D01*
X166738095Y-89607142D01*
X166785714Y-89511904D01*
X166785714Y-89321428D01*
X166738095Y-89226190D01*
X166690476Y-89178571D01*
X166595238Y-89130952D01*
G04 #@! TO.C,D10*
X156035714Y-78702380D02*
X156035714Y-77702380D01*
X156273809Y-77702380D01*
X156416666Y-77750000D01*
X156511904Y-77845238D01*
X156559523Y-77940476D01*
X156607142Y-78130952D01*
X156607142Y-78273809D01*
X156559523Y-78464285D01*
X156511904Y-78559523D01*
X156416666Y-78654761D01*
X156273809Y-78702380D01*
X156035714Y-78702380D01*
X157559523Y-78702380D02*
X156988095Y-78702380D01*
X157273809Y-78702380D02*
X157273809Y-77702380D01*
X157178571Y-77845238D01*
X157083333Y-77940476D01*
X156988095Y-77988095D01*
X158178571Y-77702380D02*
X158273809Y-77702380D01*
X158369047Y-77750000D01*
X158416666Y-77797619D01*
X158464285Y-77892857D01*
X158511904Y-78083333D01*
X158511904Y-78321428D01*
X158464285Y-78511904D01*
X158416666Y-78607142D01*
X158369047Y-78654761D01*
X158273809Y-78702380D01*
X158178571Y-78702380D01*
X158083333Y-78654761D01*
X158035714Y-78607142D01*
X157988095Y-78511904D01*
X157940476Y-78321428D01*
X157940476Y-78083333D01*
X157988095Y-77892857D01*
X158035714Y-77797619D01*
X158083333Y-77750000D01*
X158178571Y-77702380D01*
G04 #@! TO.C,D11*
X105835714Y-120752380D02*
X105835714Y-119752380D01*
X106073809Y-119752380D01*
X106216666Y-119800000D01*
X106311904Y-119895238D01*
X106359523Y-119990476D01*
X106407142Y-120180952D01*
X106407142Y-120323809D01*
X106359523Y-120514285D01*
X106311904Y-120609523D01*
X106216666Y-120704761D01*
X106073809Y-120752380D01*
X105835714Y-120752380D01*
X107359523Y-120752380D02*
X106788095Y-120752380D01*
X107073809Y-120752380D02*
X107073809Y-119752380D01*
X106978571Y-119895238D01*
X106883333Y-119990476D01*
X106788095Y-120038095D01*
X108311904Y-120752380D02*
X107740476Y-120752380D01*
X108026190Y-120752380D02*
X108026190Y-119752380D01*
X107930952Y-119895238D01*
X107835714Y-119990476D01*
X107740476Y-120038095D01*
G04 #@! TO.C,J3*
X104152380Y-110133333D02*
X104866666Y-110133333D01*
X105009523Y-110180952D01*
X105104761Y-110276190D01*
X105152380Y-110419047D01*
X105152380Y-110514285D01*
X104152380Y-109752380D02*
X104152380Y-109133333D01*
X104533333Y-109466666D01*
X104533333Y-109323809D01*
X104580952Y-109228571D01*
X104628571Y-109180952D01*
X104723809Y-109133333D01*
X104961904Y-109133333D01*
X105057142Y-109180952D01*
X105104761Y-109228571D01*
X105152380Y-109323809D01*
X105152380Y-109609523D01*
X105104761Y-109704761D01*
X105057142Y-109752380D01*
G04 #@! TO.C,Q9*
X162654761Y-75797619D02*
X162559523Y-75750000D01*
X162464285Y-75654761D01*
X162321428Y-75511904D01*
X162226190Y-75464285D01*
X162130952Y-75464285D01*
X162178571Y-75702380D02*
X162083333Y-75654761D01*
X161988095Y-75559523D01*
X161940476Y-75369047D01*
X161940476Y-75035714D01*
X161988095Y-74845238D01*
X162083333Y-74750000D01*
X162178571Y-74702380D01*
X162369047Y-74702380D01*
X162464285Y-74750000D01*
X162559523Y-74845238D01*
X162607142Y-75035714D01*
X162607142Y-75369047D01*
X162559523Y-75559523D01*
X162464285Y-75654761D01*
X162369047Y-75702380D01*
X162178571Y-75702380D01*
X163083333Y-75702380D02*
X163273809Y-75702380D01*
X163369047Y-75654761D01*
X163416666Y-75607142D01*
X163511904Y-75464285D01*
X163559523Y-75273809D01*
X163559523Y-74892857D01*
X163511904Y-74797619D01*
X163464285Y-74750000D01*
X163369047Y-74702380D01*
X163178571Y-74702380D01*
X163083333Y-74750000D01*
X163035714Y-74797619D01*
X162988095Y-74892857D01*
X162988095Y-75130952D01*
X163035714Y-75226190D01*
X163083333Y-75273809D01*
X163178571Y-75321428D01*
X163369047Y-75321428D01*
X163464285Y-75273809D01*
X163511904Y-75226190D01*
X163559523Y-75130952D01*
G04 #@! TO.C,Q10*
X153678571Y-75797619D02*
X153583333Y-75750000D01*
X153488095Y-75654761D01*
X153345238Y-75511904D01*
X153250000Y-75464285D01*
X153154761Y-75464285D01*
X153202380Y-75702380D02*
X153107142Y-75654761D01*
X153011904Y-75559523D01*
X152964285Y-75369047D01*
X152964285Y-75035714D01*
X153011904Y-74845238D01*
X153107142Y-74750000D01*
X153202380Y-74702380D01*
X153392857Y-74702380D01*
X153488095Y-74750000D01*
X153583333Y-74845238D01*
X153630952Y-75035714D01*
X153630952Y-75369047D01*
X153583333Y-75559523D01*
X153488095Y-75654761D01*
X153392857Y-75702380D01*
X153202380Y-75702380D01*
X154583333Y-75702380D02*
X154011904Y-75702380D01*
X154297619Y-75702380D02*
X154297619Y-74702380D01*
X154202380Y-74845238D01*
X154107142Y-74940476D01*
X154011904Y-74988095D01*
X155202380Y-74702380D02*
X155297619Y-74702380D01*
X155392857Y-74750000D01*
X155440476Y-74797619D01*
X155488095Y-74892857D01*
X155535714Y-75083333D01*
X155535714Y-75321428D01*
X155488095Y-75511904D01*
X155440476Y-75607142D01*
X155392857Y-75654761D01*
X155297619Y-75702380D01*
X155202380Y-75702380D01*
X155107142Y-75654761D01*
X155059523Y-75607142D01*
X155011904Y-75511904D01*
X154964285Y-75321428D01*
X154964285Y-75083333D01*
X155011904Y-74892857D01*
X155059523Y-74797619D01*
X155107142Y-74750000D01*
X155202380Y-74702380D01*
G04 #@! TO.C,Q11*
X156678571Y-75797619D02*
X156583333Y-75750000D01*
X156488095Y-75654761D01*
X156345238Y-75511904D01*
X156250000Y-75464285D01*
X156154761Y-75464285D01*
X156202380Y-75702380D02*
X156107142Y-75654761D01*
X156011904Y-75559523D01*
X155964285Y-75369047D01*
X155964285Y-75035714D01*
X156011904Y-74845238D01*
X156107142Y-74750000D01*
X156202380Y-74702380D01*
X156392857Y-74702380D01*
X156488095Y-74750000D01*
X156583333Y-74845238D01*
X156630952Y-75035714D01*
X156630952Y-75369047D01*
X156583333Y-75559523D01*
X156488095Y-75654761D01*
X156392857Y-75702380D01*
X156202380Y-75702380D01*
X157583333Y-75702380D02*
X157011904Y-75702380D01*
X157297619Y-75702380D02*
X157297619Y-74702380D01*
X157202380Y-74845238D01*
X157107142Y-74940476D01*
X157011904Y-74988095D01*
X158535714Y-75702380D02*
X157964285Y-75702380D01*
X158250000Y-75702380D02*
X158250000Y-74702380D01*
X158154761Y-74845238D01*
X158059523Y-74940476D01*
X157964285Y-74988095D01*
G04 #@! TO.C,R28*
X109937142Y-120782380D02*
X109603809Y-120306190D01*
X109365714Y-120782380D02*
X109365714Y-119782380D01*
X109746666Y-119782380D01*
X109841904Y-119830000D01*
X109889523Y-119877619D01*
X109937142Y-119972857D01*
X109937142Y-120115714D01*
X109889523Y-120210952D01*
X109841904Y-120258571D01*
X109746666Y-120306190D01*
X109365714Y-120306190D01*
X110318095Y-119877619D02*
X110365714Y-119830000D01*
X110460952Y-119782380D01*
X110699047Y-119782380D01*
X110794285Y-119830000D01*
X110841904Y-119877619D01*
X110889523Y-119972857D01*
X110889523Y-120068095D01*
X110841904Y-120210952D01*
X110270476Y-120782380D01*
X110889523Y-120782380D01*
X111460952Y-120210952D02*
X111365714Y-120163333D01*
X111318095Y-120115714D01*
X111270476Y-120020476D01*
X111270476Y-119972857D01*
X111318095Y-119877619D01*
X111365714Y-119830000D01*
X111460952Y-119782380D01*
X111651428Y-119782380D01*
X111746666Y-119830000D01*
X111794285Y-119877619D01*
X111841904Y-119972857D01*
X111841904Y-120020476D01*
X111794285Y-120115714D01*
X111746666Y-120163333D01*
X111651428Y-120210952D01*
X111460952Y-120210952D01*
X111365714Y-120258571D01*
X111318095Y-120306190D01*
X111270476Y-120401428D01*
X111270476Y-120591904D01*
X111318095Y-120687142D01*
X111365714Y-120734761D01*
X111460952Y-120782380D01*
X111651428Y-120782380D01*
X111746666Y-120734761D01*
X111794285Y-120687142D01*
X111841904Y-120591904D01*
X111841904Y-120401428D01*
X111794285Y-120306190D01*
X111746666Y-120258571D01*
X111651428Y-120210952D01*
G04 #@! TO.C,U2*
X159758095Y-98832380D02*
X159758095Y-99641904D01*
X159805714Y-99737142D01*
X159853333Y-99784761D01*
X159948571Y-99832380D01*
X160139047Y-99832380D01*
X160234285Y-99784761D01*
X160281904Y-99737142D01*
X160329523Y-99641904D01*
X160329523Y-98832380D01*
X160758095Y-98927619D02*
X160805714Y-98880000D01*
X160900952Y-98832380D01*
X161139047Y-98832380D01*
X161234285Y-98880000D01*
X161281904Y-98927619D01*
X161329523Y-99022857D01*
X161329523Y-99118095D01*
X161281904Y-99260952D01*
X160710476Y-99832380D01*
X161329523Y-99832380D01*
G04 #@! TO.C,C12*
X130277142Y-75347142D02*
X130229523Y-75394761D01*
X130086666Y-75442380D01*
X129991428Y-75442380D01*
X129848571Y-75394761D01*
X129753333Y-75299523D01*
X129705714Y-75204285D01*
X129658095Y-75013809D01*
X129658095Y-74870952D01*
X129705714Y-74680476D01*
X129753333Y-74585238D01*
X129848571Y-74490000D01*
X129991428Y-74442380D01*
X130086666Y-74442380D01*
X130229523Y-74490000D01*
X130277142Y-74537619D01*
X131229523Y-75442380D02*
X130658095Y-75442380D01*
X130943809Y-75442380D02*
X130943809Y-74442380D01*
X130848571Y-74585238D01*
X130753333Y-74680476D01*
X130658095Y-74728095D01*
X131610476Y-74537619D02*
X131658095Y-74490000D01*
X131753333Y-74442380D01*
X131991428Y-74442380D01*
X132086666Y-74490000D01*
X132134285Y-74537619D01*
X132181904Y-74632857D01*
X132181904Y-74728095D01*
X132134285Y-74870952D01*
X131562857Y-75442380D01*
X132181904Y-75442380D01*
G04 #@! TO.C,J1*
X103762380Y-92373333D02*
X104476666Y-92373333D01*
X104619523Y-92420952D01*
X104714761Y-92516190D01*
X104762380Y-92659047D01*
X104762380Y-92754285D01*
X104762380Y-91373333D02*
X104762380Y-91944761D01*
X104762380Y-91659047D02*
X103762380Y-91659047D01*
X103905238Y-91754285D01*
X104000476Y-91849523D01*
X104048095Y-91944761D01*
G04 #@! TO.C,J2*
X103752380Y-82033333D02*
X104466666Y-82033333D01*
X104609523Y-82080952D01*
X104704761Y-82176190D01*
X104752380Y-82319047D01*
X104752380Y-82414285D01*
X103847619Y-81604761D02*
X103800000Y-81557142D01*
X103752380Y-81461904D01*
X103752380Y-81223809D01*
X103800000Y-81128571D01*
X103847619Y-81080952D01*
X103942857Y-81033333D01*
X104038095Y-81033333D01*
X104180952Y-81080952D01*
X104752380Y-81652380D01*
X104752380Y-81033333D01*
G04 #@! TO.C,J6*
X103852380Y-101233333D02*
X104566666Y-101233333D01*
X104709523Y-101280952D01*
X104804761Y-101376190D01*
X104852380Y-101519047D01*
X104852380Y-101614285D01*
X103852380Y-100328571D02*
X103852380Y-100519047D01*
X103900000Y-100614285D01*
X103947619Y-100661904D01*
X104090476Y-100757142D01*
X104280952Y-100804761D01*
X104661904Y-100804761D01*
X104757142Y-100757142D01*
X104804761Y-100709523D01*
X104852380Y-100614285D01*
X104852380Y-100423809D01*
X104804761Y-100328571D01*
X104757142Y-100280952D01*
X104661904Y-100233333D01*
X104423809Y-100233333D01*
X104328571Y-100280952D01*
X104280952Y-100328571D01*
X104233333Y-100423809D01*
X104233333Y-100614285D01*
X104280952Y-100709523D01*
X104328571Y-100757142D01*
X104423809Y-100804761D01*
G04 #@! TO.C,Q2*
X135854761Y-87297619D02*
X135759523Y-87250000D01*
X135664285Y-87154761D01*
X135521428Y-87011904D01*
X135426190Y-86964285D01*
X135330952Y-86964285D01*
X135378571Y-87202380D02*
X135283333Y-87154761D01*
X135188095Y-87059523D01*
X135140476Y-86869047D01*
X135140476Y-86535714D01*
X135188095Y-86345238D01*
X135283333Y-86250000D01*
X135378571Y-86202380D01*
X135569047Y-86202380D01*
X135664285Y-86250000D01*
X135759523Y-86345238D01*
X135807142Y-86535714D01*
X135807142Y-86869047D01*
X135759523Y-87059523D01*
X135664285Y-87154761D01*
X135569047Y-87202380D01*
X135378571Y-87202380D01*
X136188095Y-86297619D02*
X136235714Y-86250000D01*
X136330952Y-86202380D01*
X136569047Y-86202380D01*
X136664285Y-86250000D01*
X136711904Y-86297619D01*
X136759523Y-86392857D01*
X136759523Y-86488095D01*
X136711904Y-86630952D01*
X136140476Y-87202380D01*
X136759523Y-87202380D01*
G04 #@! TO.C,R1*
X124023333Y-73652380D02*
X123690000Y-73176190D01*
X123451904Y-73652380D02*
X123451904Y-72652380D01*
X123832857Y-72652380D01*
X123928095Y-72700000D01*
X123975714Y-72747619D01*
X124023333Y-72842857D01*
X124023333Y-72985714D01*
X123975714Y-73080952D01*
X123928095Y-73128571D01*
X123832857Y-73176190D01*
X123451904Y-73176190D01*
X124975714Y-73652380D02*
X124404285Y-73652380D01*
X124690000Y-73652380D02*
X124690000Y-72652380D01*
X124594761Y-72795238D01*
X124499523Y-72890476D01*
X124404285Y-72938095D01*
G04 #@! TO.C,R7*
X121213333Y-85642380D02*
X120880000Y-85166190D01*
X120641904Y-85642380D02*
X120641904Y-84642380D01*
X121022857Y-84642380D01*
X121118095Y-84690000D01*
X121165714Y-84737619D01*
X121213333Y-84832857D01*
X121213333Y-84975714D01*
X121165714Y-85070952D01*
X121118095Y-85118571D01*
X121022857Y-85166190D01*
X120641904Y-85166190D01*
X121546666Y-84642380D02*
X122213333Y-84642380D01*
X121784761Y-85642380D01*
G04 #@! TO.C,R11*
X119477142Y-76472380D02*
X119143809Y-75996190D01*
X118905714Y-76472380D02*
X118905714Y-75472380D01*
X119286666Y-75472380D01*
X119381904Y-75520000D01*
X119429523Y-75567619D01*
X119477142Y-75662857D01*
X119477142Y-75805714D01*
X119429523Y-75900952D01*
X119381904Y-75948571D01*
X119286666Y-75996190D01*
X118905714Y-75996190D01*
X120429523Y-76472380D02*
X119858095Y-76472380D01*
X120143809Y-76472380D02*
X120143809Y-75472380D01*
X120048571Y-75615238D01*
X119953333Y-75710476D01*
X119858095Y-75758095D01*
X121381904Y-76472380D02*
X120810476Y-76472380D01*
X121096190Y-76472380D02*
X121096190Y-75472380D01*
X121000952Y-75615238D01*
X120905714Y-75710476D01*
X120810476Y-75758095D01*
G04 #@! TO.C,R12*
X151857142Y-93452380D02*
X151523809Y-92976190D01*
X151285714Y-93452380D02*
X151285714Y-92452380D01*
X151666666Y-92452380D01*
X151761904Y-92500000D01*
X151809523Y-92547619D01*
X151857142Y-92642857D01*
X151857142Y-92785714D01*
X151809523Y-92880952D01*
X151761904Y-92928571D01*
X151666666Y-92976190D01*
X151285714Y-92976190D01*
X152809523Y-93452380D02*
X152238095Y-93452380D01*
X152523809Y-93452380D02*
X152523809Y-92452380D01*
X152428571Y-92595238D01*
X152333333Y-92690476D01*
X152238095Y-92738095D01*
X153190476Y-92547619D02*
X153238095Y-92500000D01*
X153333333Y-92452380D01*
X153571428Y-92452380D01*
X153666666Y-92500000D01*
X153714285Y-92547619D01*
X153761904Y-92642857D01*
X153761904Y-92738095D01*
X153714285Y-92880952D01*
X153142857Y-93452380D01*
X153761904Y-93452380D01*
G04 #@! TO.C,R14*
X138057142Y-87202380D02*
X137723809Y-86726190D01*
X137485714Y-87202380D02*
X137485714Y-86202380D01*
X137866666Y-86202380D01*
X137961904Y-86250000D01*
X138009523Y-86297619D01*
X138057142Y-86392857D01*
X138057142Y-86535714D01*
X138009523Y-86630952D01*
X137961904Y-86678571D01*
X137866666Y-86726190D01*
X137485714Y-86726190D01*
X139009523Y-87202380D02*
X138438095Y-87202380D01*
X138723809Y-87202380D02*
X138723809Y-86202380D01*
X138628571Y-86345238D01*
X138533333Y-86440476D01*
X138438095Y-86488095D01*
X139866666Y-86535714D02*
X139866666Y-87202380D01*
X139628571Y-86154761D02*
X139390476Y-86869047D01*
X140009523Y-86869047D01*
G04 #@! TO.C,R15*
X167357142Y-95202380D02*
X167023809Y-94726190D01*
X166785714Y-95202380D02*
X166785714Y-94202380D01*
X167166666Y-94202380D01*
X167261904Y-94250000D01*
X167309523Y-94297619D01*
X167357142Y-94392857D01*
X167357142Y-94535714D01*
X167309523Y-94630952D01*
X167261904Y-94678571D01*
X167166666Y-94726190D01*
X166785714Y-94726190D01*
X168309523Y-95202380D02*
X167738095Y-95202380D01*
X168023809Y-95202380D02*
X168023809Y-94202380D01*
X167928571Y-94345238D01*
X167833333Y-94440476D01*
X167738095Y-94488095D01*
X169214285Y-94202380D02*
X168738095Y-94202380D01*
X168690476Y-94678571D01*
X168738095Y-94630952D01*
X168833333Y-94583333D01*
X169071428Y-94583333D01*
X169166666Y-94630952D01*
X169214285Y-94678571D01*
X169261904Y-94773809D01*
X169261904Y-95011904D01*
X169214285Y-95107142D01*
X169166666Y-95154761D01*
X169071428Y-95202380D01*
X168833333Y-95202380D01*
X168738095Y-95154761D01*
X168690476Y-95107142D01*
G04 #@! TO.C,R20*
X132557142Y-87202380D02*
X132223809Y-86726190D01*
X131985714Y-87202380D02*
X131985714Y-86202380D01*
X132366666Y-86202380D01*
X132461904Y-86250000D01*
X132509523Y-86297619D01*
X132557142Y-86392857D01*
X132557142Y-86535714D01*
X132509523Y-86630952D01*
X132461904Y-86678571D01*
X132366666Y-86726190D01*
X131985714Y-86726190D01*
X132938095Y-86297619D02*
X132985714Y-86250000D01*
X133080952Y-86202380D01*
X133319047Y-86202380D01*
X133414285Y-86250000D01*
X133461904Y-86297619D01*
X133509523Y-86392857D01*
X133509523Y-86488095D01*
X133461904Y-86630952D01*
X132890476Y-87202380D01*
X133509523Y-87202380D01*
X134128571Y-86202380D02*
X134223809Y-86202380D01*
X134319047Y-86250000D01*
X134366666Y-86297619D01*
X134414285Y-86392857D01*
X134461904Y-86583333D01*
X134461904Y-86821428D01*
X134414285Y-87011904D01*
X134366666Y-87107142D01*
X134319047Y-87154761D01*
X134223809Y-87202380D01*
X134128571Y-87202380D01*
X134033333Y-87154761D01*
X133985714Y-87107142D01*
X133938095Y-87011904D01*
X133890476Y-86821428D01*
X133890476Y-86583333D01*
X133938095Y-86392857D01*
X133985714Y-86297619D01*
X134033333Y-86250000D01*
X134128571Y-86202380D01*
G04 #@! TO.C,U1*
X136438095Y-75452380D02*
X136438095Y-76261904D01*
X136485714Y-76357142D01*
X136533333Y-76404761D01*
X136628571Y-76452380D01*
X136819047Y-76452380D01*
X136914285Y-76404761D01*
X136961904Y-76357142D01*
X137009523Y-76261904D01*
X137009523Y-75452380D01*
X138009523Y-76452380D02*
X137438095Y-76452380D01*
X137723809Y-76452380D02*
X137723809Y-75452380D01*
X137628571Y-75595238D01*
X137533333Y-75690476D01*
X137438095Y-75738095D01*
G04 #@! TO.C,U5*
X159738095Y-91352380D02*
X159738095Y-92161904D01*
X159785714Y-92257142D01*
X159833333Y-92304761D01*
X159928571Y-92352380D01*
X160119047Y-92352380D01*
X160214285Y-92304761D01*
X160261904Y-92257142D01*
X160309523Y-92161904D01*
X160309523Y-91352380D01*
X161261904Y-91352380D02*
X160785714Y-91352380D01*
X160738095Y-91828571D01*
X160785714Y-91780952D01*
X160880952Y-91733333D01*
X161119047Y-91733333D01*
X161214285Y-91780952D01*
X161261904Y-91828571D01*
X161309523Y-91923809D01*
X161309523Y-92161904D01*
X161261904Y-92257142D01*
X161214285Y-92304761D01*
X161119047Y-92352380D01*
X160880952Y-92352380D01*
X160785714Y-92304761D01*
X160738095Y-92257142D01*
G04 #@! TO.C,D2*
X168011904Y-78702380D02*
X168011904Y-77702380D01*
X168250000Y-77702380D01*
X168392857Y-77750000D01*
X168488095Y-77845238D01*
X168535714Y-77940476D01*
X168583333Y-78130952D01*
X168583333Y-78273809D01*
X168535714Y-78464285D01*
X168488095Y-78559523D01*
X168392857Y-78654761D01*
X168250000Y-78702380D01*
X168011904Y-78702380D01*
X168964285Y-77797619D02*
X169011904Y-77750000D01*
X169107142Y-77702380D01*
X169345238Y-77702380D01*
X169440476Y-77750000D01*
X169488095Y-77797619D01*
X169535714Y-77892857D01*
X169535714Y-77988095D01*
X169488095Y-78130952D01*
X168916666Y-78702380D01*
X169535714Y-78702380D01*
G04 #@! TO.C,Q3*
X168654761Y-75797619D02*
X168559523Y-75750000D01*
X168464285Y-75654761D01*
X168321428Y-75511904D01*
X168226190Y-75464285D01*
X168130952Y-75464285D01*
X168178571Y-75702380D02*
X168083333Y-75654761D01*
X167988095Y-75559523D01*
X167940476Y-75369047D01*
X167940476Y-75035714D01*
X167988095Y-74845238D01*
X168083333Y-74750000D01*
X168178571Y-74702380D01*
X168369047Y-74702380D01*
X168464285Y-74750000D01*
X168559523Y-74845238D01*
X168607142Y-75035714D01*
X168607142Y-75369047D01*
X168559523Y-75559523D01*
X168464285Y-75654761D01*
X168369047Y-75702380D01*
X168178571Y-75702380D01*
X168940476Y-74702380D02*
X169559523Y-74702380D01*
X169226190Y-75083333D01*
X169369047Y-75083333D01*
X169464285Y-75130952D01*
X169511904Y-75178571D01*
X169559523Y-75273809D01*
X169559523Y-75511904D01*
X169511904Y-75607142D01*
X169464285Y-75654761D01*
X169369047Y-75702380D01*
X169083333Y-75702380D01*
X168988095Y-75654761D01*
X168940476Y-75607142D01*
G04 #@! TO.C,R22*
X168607142Y-77202380D02*
X168273809Y-76726190D01*
X168035714Y-77202380D02*
X168035714Y-76202380D01*
X168416666Y-76202380D01*
X168511904Y-76250000D01*
X168559523Y-76297619D01*
X168607142Y-76392857D01*
X168607142Y-76535714D01*
X168559523Y-76630952D01*
X168511904Y-76678571D01*
X168416666Y-76726190D01*
X168035714Y-76726190D01*
X168988095Y-76297619D02*
X169035714Y-76250000D01*
X169130952Y-76202380D01*
X169369047Y-76202380D01*
X169464285Y-76250000D01*
X169511904Y-76297619D01*
X169559523Y-76392857D01*
X169559523Y-76488095D01*
X169511904Y-76630952D01*
X168940476Y-77202380D01*
X169559523Y-77202380D01*
X169940476Y-76297619D02*
X169988095Y-76250000D01*
X170083333Y-76202380D01*
X170321428Y-76202380D01*
X170416666Y-76250000D01*
X170464285Y-76297619D01*
X170511904Y-76392857D01*
X170511904Y-76488095D01*
X170464285Y-76630952D01*
X169892857Y-77202380D01*
X170511904Y-77202380D01*
G04 #@! TD*
M02*
