G04 #@! TF.GenerationSoftware,KiCad,Pcbnew,5.0.2+dfsg1-1*
G04 #@! TF.CreationDate,2019-08-13T10:38:28+09:00*
G04 #@! TF.ProjectId,portal_shield_for_arduino_due,706f7274-616c-45f7-9368-69656c645f66,rev?*
G04 #@! TF.SameCoordinates,Original*
G04 #@! TF.FileFunction,Paste,Top*
G04 #@! TF.FilePolarity,Positive*
%FSLAX46Y46*%
G04 Gerber Fmt 4.6, Leading zero omitted, Abs format (unit mm)*
G04 Created by KiCad (PCBNEW 5.0.2+dfsg1-1) date Tue 13 Aug 2019 10:38:28 AM KST*
%MOMM*%
%LPD*%
G01*
G04 APERTURE LIST*
%ADD10R,0.800000X0.900000*%
%ADD11C,0.100000*%
%ADD12C,0.975000*%
%ADD13R,2.000000X1.780000*%
%ADD14R,0.450000X1.500000*%
%ADD15R,0.900000X0.800000*%
%ADD16R,1.000000X1.150000*%
%ADD17R,1.600000X0.610000*%
%ADD18R,2.620000X3.510000*%
%ADD19R,1.550000X0.600000*%
%ADD20C,1.250000*%
%ADD21R,3.400000X2.350000*%
%ADD22R,1.100000X1.100000*%
G04 APERTURE END LIST*
D10*
G04 #@! TO.C,Q10*
X171930000Y-76940000D03*
X170980000Y-74940000D03*
X172880000Y-74940000D03*
G04 #@! TD*
D11*
G04 #@! TO.C,C8*
G36*
X157310142Y-90941174D02*
X157333803Y-90944684D01*
X157357007Y-90950496D01*
X157379529Y-90958554D01*
X157401153Y-90968782D01*
X157421670Y-90981079D01*
X157440883Y-90995329D01*
X157458607Y-91011393D01*
X157474671Y-91029117D01*
X157488921Y-91048330D01*
X157501218Y-91068847D01*
X157511446Y-91090471D01*
X157519504Y-91112993D01*
X157525316Y-91136197D01*
X157528826Y-91159858D01*
X157530000Y-91183750D01*
X157530000Y-92096250D01*
X157528826Y-92120142D01*
X157525316Y-92143803D01*
X157519504Y-92167007D01*
X157511446Y-92189529D01*
X157501218Y-92211153D01*
X157488921Y-92231670D01*
X157474671Y-92250883D01*
X157458607Y-92268607D01*
X157440883Y-92284671D01*
X157421670Y-92298921D01*
X157401153Y-92311218D01*
X157379529Y-92321446D01*
X157357007Y-92329504D01*
X157333803Y-92335316D01*
X157310142Y-92338826D01*
X157286250Y-92340000D01*
X156798750Y-92340000D01*
X156774858Y-92338826D01*
X156751197Y-92335316D01*
X156727993Y-92329504D01*
X156705471Y-92321446D01*
X156683847Y-92311218D01*
X156663330Y-92298921D01*
X156644117Y-92284671D01*
X156626393Y-92268607D01*
X156610329Y-92250883D01*
X156596079Y-92231670D01*
X156583782Y-92211153D01*
X156573554Y-92189529D01*
X156565496Y-92167007D01*
X156559684Y-92143803D01*
X156556174Y-92120142D01*
X156555000Y-92096250D01*
X156555000Y-91183750D01*
X156556174Y-91159858D01*
X156559684Y-91136197D01*
X156565496Y-91112993D01*
X156573554Y-91090471D01*
X156583782Y-91068847D01*
X156596079Y-91048330D01*
X156610329Y-91029117D01*
X156626393Y-91011393D01*
X156644117Y-90995329D01*
X156663330Y-90981079D01*
X156683847Y-90968782D01*
X156705471Y-90958554D01*
X156727993Y-90950496D01*
X156751197Y-90944684D01*
X156774858Y-90941174D01*
X156798750Y-90940000D01*
X157286250Y-90940000D01*
X157310142Y-90941174D01*
X157310142Y-90941174D01*
G37*
D12*
X157042500Y-91640000D03*
D11*
G36*
X159185142Y-90941174D02*
X159208803Y-90944684D01*
X159232007Y-90950496D01*
X159254529Y-90958554D01*
X159276153Y-90968782D01*
X159296670Y-90981079D01*
X159315883Y-90995329D01*
X159333607Y-91011393D01*
X159349671Y-91029117D01*
X159363921Y-91048330D01*
X159376218Y-91068847D01*
X159386446Y-91090471D01*
X159394504Y-91112993D01*
X159400316Y-91136197D01*
X159403826Y-91159858D01*
X159405000Y-91183750D01*
X159405000Y-92096250D01*
X159403826Y-92120142D01*
X159400316Y-92143803D01*
X159394504Y-92167007D01*
X159386446Y-92189529D01*
X159376218Y-92211153D01*
X159363921Y-92231670D01*
X159349671Y-92250883D01*
X159333607Y-92268607D01*
X159315883Y-92284671D01*
X159296670Y-92298921D01*
X159276153Y-92311218D01*
X159254529Y-92321446D01*
X159232007Y-92329504D01*
X159208803Y-92335316D01*
X159185142Y-92338826D01*
X159161250Y-92340000D01*
X158673750Y-92340000D01*
X158649858Y-92338826D01*
X158626197Y-92335316D01*
X158602993Y-92329504D01*
X158580471Y-92321446D01*
X158558847Y-92311218D01*
X158538330Y-92298921D01*
X158519117Y-92284671D01*
X158501393Y-92268607D01*
X158485329Y-92250883D01*
X158471079Y-92231670D01*
X158458782Y-92211153D01*
X158448554Y-92189529D01*
X158440496Y-92167007D01*
X158434684Y-92143803D01*
X158431174Y-92120142D01*
X158430000Y-92096250D01*
X158430000Y-91183750D01*
X158431174Y-91159858D01*
X158434684Y-91136197D01*
X158440496Y-91112993D01*
X158448554Y-91090471D01*
X158458782Y-91068847D01*
X158471079Y-91048330D01*
X158485329Y-91029117D01*
X158501393Y-91011393D01*
X158519117Y-90995329D01*
X158538330Y-90981079D01*
X158558847Y-90968782D01*
X158580471Y-90958554D01*
X158602993Y-90950496D01*
X158626197Y-90944684D01*
X158649858Y-90941174D01*
X158673750Y-90940000D01*
X159161250Y-90940000D01*
X159185142Y-90941174D01*
X159185142Y-90941174D01*
G37*
D12*
X158917500Y-91640000D03*
G04 #@! TD*
D13*
G04 #@! TO.C,U5*
X152435000Y-96730000D03*
X161965000Y-99270000D03*
X152435000Y-99270000D03*
X161965000Y-96730000D03*
G04 #@! TD*
D11*
G04 #@! TO.C,R12*
G36*
X150480142Y-96576174D02*
X150503803Y-96579684D01*
X150527007Y-96585496D01*
X150549529Y-96593554D01*
X150571153Y-96603782D01*
X150591670Y-96616079D01*
X150610883Y-96630329D01*
X150628607Y-96646393D01*
X150644671Y-96664117D01*
X150658921Y-96683330D01*
X150671218Y-96703847D01*
X150681446Y-96725471D01*
X150689504Y-96747993D01*
X150695316Y-96771197D01*
X150698826Y-96794858D01*
X150700000Y-96818750D01*
X150700000Y-97306250D01*
X150698826Y-97330142D01*
X150695316Y-97353803D01*
X150689504Y-97377007D01*
X150681446Y-97399529D01*
X150671218Y-97421153D01*
X150658921Y-97441670D01*
X150644671Y-97460883D01*
X150628607Y-97478607D01*
X150610883Y-97494671D01*
X150591670Y-97508921D01*
X150571153Y-97521218D01*
X150549529Y-97531446D01*
X150527007Y-97539504D01*
X150503803Y-97545316D01*
X150480142Y-97548826D01*
X150456250Y-97550000D01*
X149543750Y-97550000D01*
X149519858Y-97548826D01*
X149496197Y-97545316D01*
X149472993Y-97539504D01*
X149450471Y-97531446D01*
X149428847Y-97521218D01*
X149408330Y-97508921D01*
X149389117Y-97494671D01*
X149371393Y-97478607D01*
X149355329Y-97460883D01*
X149341079Y-97441670D01*
X149328782Y-97421153D01*
X149318554Y-97399529D01*
X149310496Y-97377007D01*
X149304684Y-97353803D01*
X149301174Y-97330142D01*
X149300000Y-97306250D01*
X149300000Y-96818750D01*
X149301174Y-96794858D01*
X149304684Y-96771197D01*
X149310496Y-96747993D01*
X149318554Y-96725471D01*
X149328782Y-96703847D01*
X149341079Y-96683330D01*
X149355329Y-96664117D01*
X149371393Y-96646393D01*
X149389117Y-96630329D01*
X149408330Y-96616079D01*
X149428847Y-96603782D01*
X149450471Y-96593554D01*
X149472993Y-96585496D01*
X149496197Y-96579684D01*
X149519858Y-96576174D01*
X149543750Y-96575000D01*
X150456250Y-96575000D01*
X150480142Y-96576174D01*
X150480142Y-96576174D01*
G37*
D12*
X150000000Y-97062500D03*
D11*
G36*
X150480142Y-98451174D02*
X150503803Y-98454684D01*
X150527007Y-98460496D01*
X150549529Y-98468554D01*
X150571153Y-98478782D01*
X150591670Y-98491079D01*
X150610883Y-98505329D01*
X150628607Y-98521393D01*
X150644671Y-98539117D01*
X150658921Y-98558330D01*
X150671218Y-98578847D01*
X150681446Y-98600471D01*
X150689504Y-98622993D01*
X150695316Y-98646197D01*
X150698826Y-98669858D01*
X150700000Y-98693750D01*
X150700000Y-99181250D01*
X150698826Y-99205142D01*
X150695316Y-99228803D01*
X150689504Y-99252007D01*
X150681446Y-99274529D01*
X150671218Y-99296153D01*
X150658921Y-99316670D01*
X150644671Y-99335883D01*
X150628607Y-99353607D01*
X150610883Y-99369671D01*
X150591670Y-99383921D01*
X150571153Y-99396218D01*
X150549529Y-99406446D01*
X150527007Y-99414504D01*
X150503803Y-99420316D01*
X150480142Y-99423826D01*
X150456250Y-99425000D01*
X149543750Y-99425000D01*
X149519858Y-99423826D01*
X149496197Y-99420316D01*
X149472993Y-99414504D01*
X149450471Y-99406446D01*
X149428847Y-99396218D01*
X149408330Y-99383921D01*
X149389117Y-99369671D01*
X149371393Y-99353607D01*
X149355329Y-99335883D01*
X149341079Y-99316670D01*
X149328782Y-99296153D01*
X149318554Y-99274529D01*
X149310496Y-99252007D01*
X149304684Y-99228803D01*
X149301174Y-99205142D01*
X149300000Y-99181250D01*
X149300000Y-98693750D01*
X149301174Y-98669858D01*
X149304684Y-98646197D01*
X149310496Y-98622993D01*
X149318554Y-98600471D01*
X149328782Y-98578847D01*
X149341079Y-98558330D01*
X149355329Y-98539117D01*
X149371393Y-98521393D01*
X149389117Y-98505329D01*
X149408330Y-98491079D01*
X149428847Y-98478782D01*
X149450471Y-98468554D01*
X149472993Y-98460496D01*
X149496197Y-98454684D01*
X149519858Y-98451174D01*
X149543750Y-98450000D01*
X150456250Y-98450000D01*
X150480142Y-98451174D01*
X150480142Y-98451174D01*
G37*
D12*
X150000000Y-98937500D03*
G04 #@! TD*
D11*
G04 #@! TO.C,R8*
G36*
X162210142Y-112441174D02*
X162233803Y-112444684D01*
X162257007Y-112450496D01*
X162279529Y-112458554D01*
X162301153Y-112468782D01*
X162321670Y-112481079D01*
X162340883Y-112495329D01*
X162358607Y-112511393D01*
X162374671Y-112529117D01*
X162388921Y-112548330D01*
X162401218Y-112568847D01*
X162411446Y-112590471D01*
X162419504Y-112612993D01*
X162425316Y-112636197D01*
X162428826Y-112659858D01*
X162430000Y-112683750D01*
X162430000Y-113171250D01*
X162428826Y-113195142D01*
X162425316Y-113218803D01*
X162419504Y-113242007D01*
X162411446Y-113264529D01*
X162401218Y-113286153D01*
X162388921Y-113306670D01*
X162374671Y-113325883D01*
X162358607Y-113343607D01*
X162340883Y-113359671D01*
X162321670Y-113373921D01*
X162301153Y-113386218D01*
X162279529Y-113396446D01*
X162257007Y-113404504D01*
X162233803Y-113410316D01*
X162210142Y-113413826D01*
X162186250Y-113415000D01*
X161273750Y-113415000D01*
X161249858Y-113413826D01*
X161226197Y-113410316D01*
X161202993Y-113404504D01*
X161180471Y-113396446D01*
X161158847Y-113386218D01*
X161138330Y-113373921D01*
X161119117Y-113359671D01*
X161101393Y-113343607D01*
X161085329Y-113325883D01*
X161071079Y-113306670D01*
X161058782Y-113286153D01*
X161048554Y-113264529D01*
X161040496Y-113242007D01*
X161034684Y-113218803D01*
X161031174Y-113195142D01*
X161030000Y-113171250D01*
X161030000Y-112683750D01*
X161031174Y-112659858D01*
X161034684Y-112636197D01*
X161040496Y-112612993D01*
X161048554Y-112590471D01*
X161058782Y-112568847D01*
X161071079Y-112548330D01*
X161085329Y-112529117D01*
X161101393Y-112511393D01*
X161119117Y-112495329D01*
X161138330Y-112481079D01*
X161158847Y-112468782D01*
X161180471Y-112458554D01*
X161202993Y-112450496D01*
X161226197Y-112444684D01*
X161249858Y-112441174D01*
X161273750Y-112440000D01*
X162186250Y-112440000D01*
X162210142Y-112441174D01*
X162210142Y-112441174D01*
G37*
D12*
X161730000Y-112927500D03*
D11*
G36*
X162210142Y-110566174D02*
X162233803Y-110569684D01*
X162257007Y-110575496D01*
X162279529Y-110583554D01*
X162301153Y-110593782D01*
X162321670Y-110606079D01*
X162340883Y-110620329D01*
X162358607Y-110636393D01*
X162374671Y-110654117D01*
X162388921Y-110673330D01*
X162401218Y-110693847D01*
X162411446Y-110715471D01*
X162419504Y-110737993D01*
X162425316Y-110761197D01*
X162428826Y-110784858D01*
X162430000Y-110808750D01*
X162430000Y-111296250D01*
X162428826Y-111320142D01*
X162425316Y-111343803D01*
X162419504Y-111367007D01*
X162411446Y-111389529D01*
X162401218Y-111411153D01*
X162388921Y-111431670D01*
X162374671Y-111450883D01*
X162358607Y-111468607D01*
X162340883Y-111484671D01*
X162321670Y-111498921D01*
X162301153Y-111511218D01*
X162279529Y-111521446D01*
X162257007Y-111529504D01*
X162233803Y-111535316D01*
X162210142Y-111538826D01*
X162186250Y-111540000D01*
X161273750Y-111540000D01*
X161249858Y-111538826D01*
X161226197Y-111535316D01*
X161202993Y-111529504D01*
X161180471Y-111521446D01*
X161158847Y-111511218D01*
X161138330Y-111498921D01*
X161119117Y-111484671D01*
X161101393Y-111468607D01*
X161085329Y-111450883D01*
X161071079Y-111431670D01*
X161058782Y-111411153D01*
X161048554Y-111389529D01*
X161040496Y-111367007D01*
X161034684Y-111343803D01*
X161031174Y-111320142D01*
X161030000Y-111296250D01*
X161030000Y-110808750D01*
X161031174Y-110784858D01*
X161034684Y-110761197D01*
X161040496Y-110737993D01*
X161048554Y-110715471D01*
X161058782Y-110693847D01*
X161071079Y-110673330D01*
X161085329Y-110654117D01*
X161101393Y-110636393D01*
X161119117Y-110620329D01*
X161138330Y-110606079D01*
X161158847Y-110593782D01*
X161180471Y-110583554D01*
X161202993Y-110575496D01*
X161226197Y-110569684D01*
X161249858Y-110566174D01*
X161273750Y-110565000D01*
X162186250Y-110565000D01*
X162210142Y-110566174D01*
X162210142Y-110566174D01*
G37*
D12*
X161730000Y-111052500D03*
G04 #@! TD*
D14*
G04 #@! TO.C,U7*
X155635000Y-88271215D03*
X156285000Y-88271215D03*
X156935000Y-88271215D03*
X157585000Y-88271215D03*
X158235000Y-88271215D03*
X158885000Y-88271215D03*
X159535000Y-88271215D03*
X160185000Y-88271215D03*
X160185000Y-82371215D03*
X159535000Y-82371215D03*
X158885000Y-82371215D03*
X158235000Y-82371215D03*
X157585000Y-82371215D03*
X156935000Y-82371215D03*
X156285000Y-82371215D03*
X155635000Y-82371215D03*
G04 #@! TD*
D15*
G04 #@! TO.C,Q1*
X135020000Y-96610000D03*
X135020000Y-98510000D03*
X137020000Y-97560000D03*
G04 #@! TD*
D11*
G04 #@! TO.C,C9*
G36*
X155615142Y-90921174D02*
X155638803Y-90924684D01*
X155662007Y-90930496D01*
X155684529Y-90938554D01*
X155706153Y-90948782D01*
X155726670Y-90961079D01*
X155745883Y-90975329D01*
X155763607Y-90991393D01*
X155779671Y-91009117D01*
X155793921Y-91028330D01*
X155806218Y-91048847D01*
X155816446Y-91070471D01*
X155824504Y-91092993D01*
X155830316Y-91116197D01*
X155833826Y-91139858D01*
X155835000Y-91163750D01*
X155835000Y-92076250D01*
X155833826Y-92100142D01*
X155830316Y-92123803D01*
X155824504Y-92147007D01*
X155816446Y-92169529D01*
X155806218Y-92191153D01*
X155793921Y-92211670D01*
X155779671Y-92230883D01*
X155763607Y-92248607D01*
X155745883Y-92264671D01*
X155726670Y-92278921D01*
X155706153Y-92291218D01*
X155684529Y-92301446D01*
X155662007Y-92309504D01*
X155638803Y-92315316D01*
X155615142Y-92318826D01*
X155591250Y-92320000D01*
X155103750Y-92320000D01*
X155079858Y-92318826D01*
X155056197Y-92315316D01*
X155032993Y-92309504D01*
X155010471Y-92301446D01*
X154988847Y-92291218D01*
X154968330Y-92278921D01*
X154949117Y-92264671D01*
X154931393Y-92248607D01*
X154915329Y-92230883D01*
X154901079Y-92211670D01*
X154888782Y-92191153D01*
X154878554Y-92169529D01*
X154870496Y-92147007D01*
X154864684Y-92123803D01*
X154861174Y-92100142D01*
X154860000Y-92076250D01*
X154860000Y-91163750D01*
X154861174Y-91139858D01*
X154864684Y-91116197D01*
X154870496Y-91092993D01*
X154878554Y-91070471D01*
X154888782Y-91048847D01*
X154901079Y-91028330D01*
X154915329Y-91009117D01*
X154931393Y-90991393D01*
X154949117Y-90975329D01*
X154968330Y-90961079D01*
X154988847Y-90948782D01*
X155010471Y-90938554D01*
X155032993Y-90930496D01*
X155056197Y-90924684D01*
X155079858Y-90921174D01*
X155103750Y-90920000D01*
X155591250Y-90920000D01*
X155615142Y-90921174D01*
X155615142Y-90921174D01*
G37*
D12*
X155347500Y-91620000D03*
D11*
G36*
X153740142Y-90921174D02*
X153763803Y-90924684D01*
X153787007Y-90930496D01*
X153809529Y-90938554D01*
X153831153Y-90948782D01*
X153851670Y-90961079D01*
X153870883Y-90975329D01*
X153888607Y-90991393D01*
X153904671Y-91009117D01*
X153918921Y-91028330D01*
X153931218Y-91048847D01*
X153941446Y-91070471D01*
X153949504Y-91092993D01*
X153955316Y-91116197D01*
X153958826Y-91139858D01*
X153960000Y-91163750D01*
X153960000Y-92076250D01*
X153958826Y-92100142D01*
X153955316Y-92123803D01*
X153949504Y-92147007D01*
X153941446Y-92169529D01*
X153931218Y-92191153D01*
X153918921Y-92211670D01*
X153904671Y-92230883D01*
X153888607Y-92248607D01*
X153870883Y-92264671D01*
X153851670Y-92278921D01*
X153831153Y-92291218D01*
X153809529Y-92301446D01*
X153787007Y-92309504D01*
X153763803Y-92315316D01*
X153740142Y-92318826D01*
X153716250Y-92320000D01*
X153228750Y-92320000D01*
X153204858Y-92318826D01*
X153181197Y-92315316D01*
X153157993Y-92309504D01*
X153135471Y-92301446D01*
X153113847Y-92291218D01*
X153093330Y-92278921D01*
X153074117Y-92264671D01*
X153056393Y-92248607D01*
X153040329Y-92230883D01*
X153026079Y-92211670D01*
X153013782Y-92191153D01*
X153003554Y-92169529D01*
X152995496Y-92147007D01*
X152989684Y-92123803D01*
X152986174Y-92100142D01*
X152985000Y-92076250D01*
X152985000Y-91163750D01*
X152986174Y-91139858D01*
X152989684Y-91116197D01*
X152995496Y-91092993D01*
X153003554Y-91070471D01*
X153013782Y-91048847D01*
X153026079Y-91028330D01*
X153040329Y-91009117D01*
X153056393Y-90991393D01*
X153074117Y-90975329D01*
X153093330Y-90961079D01*
X153113847Y-90948782D01*
X153135471Y-90938554D01*
X153157993Y-90930496D01*
X153181197Y-90924684D01*
X153204858Y-90921174D01*
X153228750Y-90920000D01*
X153716250Y-90920000D01*
X153740142Y-90921174D01*
X153740142Y-90921174D01*
G37*
D12*
X153472500Y-91620000D03*
G04 #@! TD*
D16*
G04 #@! TO.C,SW1*
X147500000Y-96315000D03*
X145000000Y-96315000D03*
X142500000Y-96315000D03*
X147500000Y-90665000D03*
X145000000Y-90665000D03*
X142500000Y-90665000D03*
G04 #@! TD*
D17*
G04 #@! TO.C,U4*
X134122642Y-111386413D03*
X128722642Y-111386413D03*
X134122642Y-112656413D03*
X128722642Y-112656413D03*
X134122642Y-113926413D03*
X128722642Y-113926413D03*
X134122642Y-115196413D03*
X128722642Y-115196413D03*
D18*
X131422642Y-113291413D03*
G04 #@! TD*
D11*
G04 #@! TO.C,C6*
G36*
X137292784Y-112262587D02*
X137316445Y-112266097D01*
X137339649Y-112271909D01*
X137362171Y-112279967D01*
X137383795Y-112290195D01*
X137404312Y-112302492D01*
X137423525Y-112316742D01*
X137441249Y-112332806D01*
X137457313Y-112350530D01*
X137471563Y-112369743D01*
X137483860Y-112390260D01*
X137494088Y-112411884D01*
X137502146Y-112434406D01*
X137507958Y-112457610D01*
X137511468Y-112481271D01*
X137512642Y-112505163D01*
X137512642Y-112992663D01*
X137511468Y-113016555D01*
X137507958Y-113040216D01*
X137502146Y-113063420D01*
X137494088Y-113085942D01*
X137483860Y-113107566D01*
X137471563Y-113128083D01*
X137457313Y-113147296D01*
X137441249Y-113165020D01*
X137423525Y-113181084D01*
X137404312Y-113195334D01*
X137383795Y-113207631D01*
X137362171Y-113217859D01*
X137339649Y-113225917D01*
X137316445Y-113231729D01*
X137292784Y-113235239D01*
X137268892Y-113236413D01*
X136356392Y-113236413D01*
X136332500Y-113235239D01*
X136308839Y-113231729D01*
X136285635Y-113225917D01*
X136263113Y-113217859D01*
X136241489Y-113207631D01*
X136220972Y-113195334D01*
X136201759Y-113181084D01*
X136184035Y-113165020D01*
X136167971Y-113147296D01*
X136153721Y-113128083D01*
X136141424Y-113107566D01*
X136131196Y-113085942D01*
X136123138Y-113063420D01*
X136117326Y-113040216D01*
X136113816Y-113016555D01*
X136112642Y-112992663D01*
X136112642Y-112505163D01*
X136113816Y-112481271D01*
X136117326Y-112457610D01*
X136123138Y-112434406D01*
X136131196Y-112411884D01*
X136141424Y-112390260D01*
X136153721Y-112369743D01*
X136167971Y-112350530D01*
X136184035Y-112332806D01*
X136201759Y-112316742D01*
X136220972Y-112302492D01*
X136241489Y-112290195D01*
X136263113Y-112279967D01*
X136285635Y-112271909D01*
X136308839Y-112266097D01*
X136332500Y-112262587D01*
X136356392Y-112261413D01*
X137268892Y-112261413D01*
X137292784Y-112262587D01*
X137292784Y-112262587D01*
G37*
D12*
X136812642Y-112748913D03*
D11*
G36*
X137292784Y-110387587D02*
X137316445Y-110391097D01*
X137339649Y-110396909D01*
X137362171Y-110404967D01*
X137383795Y-110415195D01*
X137404312Y-110427492D01*
X137423525Y-110441742D01*
X137441249Y-110457806D01*
X137457313Y-110475530D01*
X137471563Y-110494743D01*
X137483860Y-110515260D01*
X137494088Y-110536884D01*
X137502146Y-110559406D01*
X137507958Y-110582610D01*
X137511468Y-110606271D01*
X137512642Y-110630163D01*
X137512642Y-111117663D01*
X137511468Y-111141555D01*
X137507958Y-111165216D01*
X137502146Y-111188420D01*
X137494088Y-111210942D01*
X137483860Y-111232566D01*
X137471563Y-111253083D01*
X137457313Y-111272296D01*
X137441249Y-111290020D01*
X137423525Y-111306084D01*
X137404312Y-111320334D01*
X137383795Y-111332631D01*
X137362171Y-111342859D01*
X137339649Y-111350917D01*
X137316445Y-111356729D01*
X137292784Y-111360239D01*
X137268892Y-111361413D01*
X136356392Y-111361413D01*
X136332500Y-111360239D01*
X136308839Y-111356729D01*
X136285635Y-111350917D01*
X136263113Y-111342859D01*
X136241489Y-111332631D01*
X136220972Y-111320334D01*
X136201759Y-111306084D01*
X136184035Y-111290020D01*
X136167971Y-111272296D01*
X136153721Y-111253083D01*
X136141424Y-111232566D01*
X136131196Y-111210942D01*
X136123138Y-111188420D01*
X136117326Y-111165216D01*
X136113816Y-111141555D01*
X136112642Y-111117663D01*
X136112642Y-110630163D01*
X136113816Y-110606271D01*
X136117326Y-110582610D01*
X136123138Y-110559406D01*
X136131196Y-110536884D01*
X136141424Y-110515260D01*
X136153721Y-110494743D01*
X136167971Y-110475530D01*
X136184035Y-110457806D01*
X136201759Y-110441742D01*
X136220972Y-110427492D01*
X136241489Y-110415195D01*
X136263113Y-110404967D01*
X136285635Y-110396909D01*
X136308839Y-110391097D01*
X136332500Y-110387587D01*
X136356392Y-110386413D01*
X137268892Y-110386413D01*
X137292784Y-110387587D01*
X137292784Y-110387587D01*
G37*
D12*
X136812642Y-110873913D03*
G04 #@! TD*
D19*
G04 #@! TO.C,U3*
X138600000Y-94595000D03*
X138600000Y-93325000D03*
X138600000Y-92055000D03*
X138600000Y-90785000D03*
X133200000Y-90785000D03*
X133200000Y-92055000D03*
X133200000Y-93325000D03*
X133200000Y-94595000D03*
G04 #@! TD*
D11*
G04 #@! TO.C,C1*
G36*
X122999504Y-103626204D02*
X123023773Y-103629804D01*
X123047571Y-103635765D01*
X123070671Y-103644030D01*
X123092849Y-103654520D01*
X123113893Y-103667133D01*
X123133598Y-103681747D01*
X123151777Y-103698223D01*
X123168253Y-103716402D01*
X123182867Y-103736107D01*
X123195480Y-103757151D01*
X123205970Y-103779329D01*
X123214235Y-103802429D01*
X123220196Y-103826227D01*
X123223796Y-103850496D01*
X123225000Y-103875000D01*
X123225000Y-105125000D01*
X123223796Y-105149504D01*
X123220196Y-105173773D01*
X123214235Y-105197571D01*
X123205970Y-105220671D01*
X123195480Y-105242849D01*
X123182867Y-105263893D01*
X123168253Y-105283598D01*
X123151777Y-105301777D01*
X123133598Y-105318253D01*
X123113893Y-105332867D01*
X123092849Y-105345480D01*
X123070671Y-105355970D01*
X123047571Y-105364235D01*
X123023773Y-105370196D01*
X122999504Y-105373796D01*
X122975000Y-105375000D01*
X122225000Y-105375000D01*
X122200496Y-105373796D01*
X122176227Y-105370196D01*
X122152429Y-105364235D01*
X122129329Y-105355970D01*
X122107151Y-105345480D01*
X122086107Y-105332867D01*
X122066402Y-105318253D01*
X122048223Y-105301777D01*
X122031747Y-105283598D01*
X122017133Y-105263893D01*
X122004520Y-105242849D01*
X121994030Y-105220671D01*
X121985765Y-105197571D01*
X121979804Y-105173773D01*
X121976204Y-105149504D01*
X121975000Y-105125000D01*
X121975000Y-103875000D01*
X121976204Y-103850496D01*
X121979804Y-103826227D01*
X121985765Y-103802429D01*
X121994030Y-103779329D01*
X122004520Y-103757151D01*
X122017133Y-103736107D01*
X122031747Y-103716402D01*
X122048223Y-103698223D01*
X122066402Y-103681747D01*
X122086107Y-103667133D01*
X122107151Y-103654520D01*
X122129329Y-103644030D01*
X122152429Y-103635765D01*
X122176227Y-103629804D01*
X122200496Y-103626204D01*
X122225000Y-103625000D01*
X122975000Y-103625000D01*
X122999504Y-103626204D01*
X122999504Y-103626204D01*
G37*
D20*
X122600000Y-104500000D03*
D11*
G36*
X125799504Y-103626204D02*
X125823773Y-103629804D01*
X125847571Y-103635765D01*
X125870671Y-103644030D01*
X125892849Y-103654520D01*
X125913893Y-103667133D01*
X125933598Y-103681747D01*
X125951777Y-103698223D01*
X125968253Y-103716402D01*
X125982867Y-103736107D01*
X125995480Y-103757151D01*
X126005970Y-103779329D01*
X126014235Y-103802429D01*
X126020196Y-103826227D01*
X126023796Y-103850496D01*
X126025000Y-103875000D01*
X126025000Y-105125000D01*
X126023796Y-105149504D01*
X126020196Y-105173773D01*
X126014235Y-105197571D01*
X126005970Y-105220671D01*
X125995480Y-105242849D01*
X125982867Y-105263893D01*
X125968253Y-105283598D01*
X125951777Y-105301777D01*
X125933598Y-105318253D01*
X125913893Y-105332867D01*
X125892849Y-105345480D01*
X125870671Y-105355970D01*
X125847571Y-105364235D01*
X125823773Y-105370196D01*
X125799504Y-105373796D01*
X125775000Y-105375000D01*
X125025000Y-105375000D01*
X125000496Y-105373796D01*
X124976227Y-105370196D01*
X124952429Y-105364235D01*
X124929329Y-105355970D01*
X124907151Y-105345480D01*
X124886107Y-105332867D01*
X124866402Y-105318253D01*
X124848223Y-105301777D01*
X124831747Y-105283598D01*
X124817133Y-105263893D01*
X124804520Y-105242849D01*
X124794030Y-105220671D01*
X124785765Y-105197571D01*
X124779804Y-105173773D01*
X124776204Y-105149504D01*
X124775000Y-105125000D01*
X124775000Y-103875000D01*
X124776204Y-103850496D01*
X124779804Y-103826227D01*
X124785765Y-103802429D01*
X124794030Y-103779329D01*
X124804520Y-103757151D01*
X124817133Y-103736107D01*
X124831747Y-103716402D01*
X124848223Y-103698223D01*
X124866402Y-103681747D01*
X124886107Y-103667133D01*
X124907151Y-103654520D01*
X124929329Y-103644030D01*
X124952429Y-103635765D01*
X124976227Y-103629804D01*
X125000496Y-103626204D01*
X125025000Y-103625000D01*
X125775000Y-103625000D01*
X125799504Y-103626204D01*
X125799504Y-103626204D01*
G37*
D20*
X125400000Y-104500000D03*
G04 #@! TD*
D11*
G04 #@! TO.C,C2*
G36*
X124955142Y-101801174D02*
X124978803Y-101804684D01*
X125002007Y-101810496D01*
X125024529Y-101818554D01*
X125046153Y-101828782D01*
X125066670Y-101841079D01*
X125085883Y-101855329D01*
X125103607Y-101871393D01*
X125119671Y-101889117D01*
X125133921Y-101908330D01*
X125146218Y-101928847D01*
X125156446Y-101950471D01*
X125164504Y-101972993D01*
X125170316Y-101996197D01*
X125173826Y-102019858D01*
X125175000Y-102043750D01*
X125175000Y-102956250D01*
X125173826Y-102980142D01*
X125170316Y-103003803D01*
X125164504Y-103027007D01*
X125156446Y-103049529D01*
X125146218Y-103071153D01*
X125133921Y-103091670D01*
X125119671Y-103110883D01*
X125103607Y-103128607D01*
X125085883Y-103144671D01*
X125066670Y-103158921D01*
X125046153Y-103171218D01*
X125024529Y-103181446D01*
X125002007Y-103189504D01*
X124978803Y-103195316D01*
X124955142Y-103198826D01*
X124931250Y-103200000D01*
X124443750Y-103200000D01*
X124419858Y-103198826D01*
X124396197Y-103195316D01*
X124372993Y-103189504D01*
X124350471Y-103181446D01*
X124328847Y-103171218D01*
X124308330Y-103158921D01*
X124289117Y-103144671D01*
X124271393Y-103128607D01*
X124255329Y-103110883D01*
X124241079Y-103091670D01*
X124228782Y-103071153D01*
X124218554Y-103049529D01*
X124210496Y-103027007D01*
X124204684Y-103003803D01*
X124201174Y-102980142D01*
X124200000Y-102956250D01*
X124200000Y-102043750D01*
X124201174Y-102019858D01*
X124204684Y-101996197D01*
X124210496Y-101972993D01*
X124218554Y-101950471D01*
X124228782Y-101928847D01*
X124241079Y-101908330D01*
X124255329Y-101889117D01*
X124271393Y-101871393D01*
X124289117Y-101855329D01*
X124308330Y-101841079D01*
X124328847Y-101828782D01*
X124350471Y-101818554D01*
X124372993Y-101810496D01*
X124396197Y-101804684D01*
X124419858Y-101801174D01*
X124443750Y-101800000D01*
X124931250Y-101800000D01*
X124955142Y-101801174D01*
X124955142Y-101801174D01*
G37*
D12*
X124687500Y-102500000D03*
D11*
G36*
X123080142Y-101801174D02*
X123103803Y-101804684D01*
X123127007Y-101810496D01*
X123149529Y-101818554D01*
X123171153Y-101828782D01*
X123191670Y-101841079D01*
X123210883Y-101855329D01*
X123228607Y-101871393D01*
X123244671Y-101889117D01*
X123258921Y-101908330D01*
X123271218Y-101928847D01*
X123281446Y-101950471D01*
X123289504Y-101972993D01*
X123295316Y-101996197D01*
X123298826Y-102019858D01*
X123300000Y-102043750D01*
X123300000Y-102956250D01*
X123298826Y-102980142D01*
X123295316Y-103003803D01*
X123289504Y-103027007D01*
X123281446Y-103049529D01*
X123271218Y-103071153D01*
X123258921Y-103091670D01*
X123244671Y-103110883D01*
X123228607Y-103128607D01*
X123210883Y-103144671D01*
X123191670Y-103158921D01*
X123171153Y-103171218D01*
X123149529Y-103181446D01*
X123127007Y-103189504D01*
X123103803Y-103195316D01*
X123080142Y-103198826D01*
X123056250Y-103200000D01*
X122568750Y-103200000D01*
X122544858Y-103198826D01*
X122521197Y-103195316D01*
X122497993Y-103189504D01*
X122475471Y-103181446D01*
X122453847Y-103171218D01*
X122433330Y-103158921D01*
X122414117Y-103144671D01*
X122396393Y-103128607D01*
X122380329Y-103110883D01*
X122366079Y-103091670D01*
X122353782Y-103071153D01*
X122343554Y-103049529D01*
X122335496Y-103027007D01*
X122329684Y-103003803D01*
X122326174Y-102980142D01*
X122325000Y-102956250D01*
X122325000Y-102043750D01*
X122326174Y-102019858D01*
X122329684Y-101996197D01*
X122335496Y-101972993D01*
X122343554Y-101950471D01*
X122353782Y-101928847D01*
X122366079Y-101908330D01*
X122380329Y-101889117D01*
X122396393Y-101871393D01*
X122414117Y-101855329D01*
X122433330Y-101841079D01*
X122453847Y-101828782D01*
X122475471Y-101818554D01*
X122497993Y-101810496D01*
X122521197Y-101804684D01*
X122544858Y-101801174D01*
X122568750Y-101800000D01*
X123056250Y-101800000D01*
X123080142Y-101801174D01*
X123080142Y-101801174D01*
G37*
D12*
X122812500Y-102500000D03*
G04 #@! TD*
D11*
G04 #@! TO.C,C3*
G36*
X133407642Y-88231174D02*
X133431303Y-88234684D01*
X133454507Y-88240496D01*
X133477029Y-88248554D01*
X133498653Y-88258782D01*
X133519170Y-88271079D01*
X133538383Y-88285329D01*
X133556107Y-88301393D01*
X133572171Y-88319117D01*
X133586421Y-88338330D01*
X133598718Y-88358847D01*
X133608946Y-88380471D01*
X133617004Y-88402993D01*
X133622816Y-88426197D01*
X133626326Y-88449858D01*
X133627500Y-88473750D01*
X133627500Y-89386250D01*
X133626326Y-89410142D01*
X133622816Y-89433803D01*
X133617004Y-89457007D01*
X133608946Y-89479529D01*
X133598718Y-89501153D01*
X133586421Y-89521670D01*
X133572171Y-89540883D01*
X133556107Y-89558607D01*
X133538383Y-89574671D01*
X133519170Y-89588921D01*
X133498653Y-89601218D01*
X133477029Y-89611446D01*
X133454507Y-89619504D01*
X133431303Y-89625316D01*
X133407642Y-89628826D01*
X133383750Y-89630000D01*
X132896250Y-89630000D01*
X132872358Y-89628826D01*
X132848697Y-89625316D01*
X132825493Y-89619504D01*
X132802971Y-89611446D01*
X132781347Y-89601218D01*
X132760830Y-89588921D01*
X132741617Y-89574671D01*
X132723893Y-89558607D01*
X132707829Y-89540883D01*
X132693579Y-89521670D01*
X132681282Y-89501153D01*
X132671054Y-89479529D01*
X132662996Y-89457007D01*
X132657184Y-89433803D01*
X132653674Y-89410142D01*
X132652500Y-89386250D01*
X132652500Y-88473750D01*
X132653674Y-88449858D01*
X132657184Y-88426197D01*
X132662996Y-88402993D01*
X132671054Y-88380471D01*
X132681282Y-88358847D01*
X132693579Y-88338330D01*
X132707829Y-88319117D01*
X132723893Y-88301393D01*
X132741617Y-88285329D01*
X132760830Y-88271079D01*
X132781347Y-88258782D01*
X132802971Y-88248554D01*
X132825493Y-88240496D01*
X132848697Y-88234684D01*
X132872358Y-88231174D01*
X132896250Y-88230000D01*
X133383750Y-88230000D01*
X133407642Y-88231174D01*
X133407642Y-88231174D01*
G37*
D12*
X133140000Y-88930000D03*
D11*
G36*
X135282642Y-88231174D02*
X135306303Y-88234684D01*
X135329507Y-88240496D01*
X135352029Y-88248554D01*
X135373653Y-88258782D01*
X135394170Y-88271079D01*
X135413383Y-88285329D01*
X135431107Y-88301393D01*
X135447171Y-88319117D01*
X135461421Y-88338330D01*
X135473718Y-88358847D01*
X135483946Y-88380471D01*
X135492004Y-88402993D01*
X135497816Y-88426197D01*
X135501326Y-88449858D01*
X135502500Y-88473750D01*
X135502500Y-89386250D01*
X135501326Y-89410142D01*
X135497816Y-89433803D01*
X135492004Y-89457007D01*
X135483946Y-89479529D01*
X135473718Y-89501153D01*
X135461421Y-89521670D01*
X135447171Y-89540883D01*
X135431107Y-89558607D01*
X135413383Y-89574671D01*
X135394170Y-89588921D01*
X135373653Y-89601218D01*
X135352029Y-89611446D01*
X135329507Y-89619504D01*
X135306303Y-89625316D01*
X135282642Y-89628826D01*
X135258750Y-89630000D01*
X134771250Y-89630000D01*
X134747358Y-89628826D01*
X134723697Y-89625316D01*
X134700493Y-89619504D01*
X134677971Y-89611446D01*
X134656347Y-89601218D01*
X134635830Y-89588921D01*
X134616617Y-89574671D01*
X134598893Y-89558607D01*
X134582829Y-89540883D01*
X134568579Y-89521670D01*
X134556282Y-89501153D01*
X134546054Y-89479529D01*
X134537996Y-89457007D01*
X134532184Y-89433803D01*
X134528674Y-89410142D01*
X134527500Y-89386250D01*
X134527500Y-88473750D01*
X134528674Y-88449858D01*
X134532184Y-88426197D01*
X134537996Y-88402993D01*
X134546054Y-88380471D01*
X134556282Y-88358847D01*
X134568579Y-88338330D01*
X134582829Y-88319117D01*
X134598893Y-88301393D01*
X134616617Y-88285329D01*
X134635830Y-88271079D01*
X134656347Y-88258782D01*
X134677971Y-88248554D01*
X134700493Y-88240496D01*
X134723697Y-88234684D01*
X134747358Y-88231174D01*
X134771250Y-88230000D01*
X135258750Y-88230000D01*
X135282642Y-88231174D01*
X135282642Y-88231174D01*
G37*
D12*
X135015000Y-88930000D03*
G04 #@! TD*
D11*
G04 #@! TO.C,C4*
G36*
X124442784Y-112652587D02*
X124466445Y-112656097D01*
X124489649Y-112661909D01*
X124512171Y-112669967D01*
X124533795Y-112680195D01*
X124554312Y-112692492D01*
X124573525Y-112706742D01*
X124591249Y-112722806D01*
X124607313Y-112740530D01*
X124621563Y-112759743D01*
X124633860Y-112780260D01*
X124644088Y-112801884D01*
X124652146Y-112824406D01*
X124657958Y-112847610D01*
X124661468Y-112871271D01*
X124662642Y-112895163D01*
X124662642Y-113807663D01*
X124661468Y-113831555D01*
X124657958Y-113855216D01*
X124652146Y-113878420D01*
X124644088Y-113900942D01*
X124633860Y-113922566D01*
X124621563Y-113943083D01*
X124607313Y-113962296D01*
X124591249Y-113980020D01*
X124573525Y-113996084D01*
X124554312Y-114010334D01*
X124533795Y-114022631D01*
X124512171Y-114032859D01*
X124489649Y-114040917D01*
X124466445Y-114046729D01*
X124442784Y-114050239D01*
X124418892Y-114051413D01*
X123931392Y-114051413D01*
X123907500Y-114050239D01*
X123883839Y-114046729D01*
X123860635Y-114040917D01*
X123838113Y-114032859D01*
X123816489Y-114022631D01*
X123795972Y-114010334D01*
X123776759Y-113996084D01*
X123759035Y-113980020D01*
X123742971Y-113962296D01*
X123728721Y-113943083D01*
X123716424Y-113922566D01*
X123706196Y-113900942D01*
X123698138Y-113878420D01*
X123692326Y-113855216D01*
X123688816Y-113831555D01*
X123687642Y-113807663D01*
X123687642Y-112895163D01*
X123688816Y-112871271D01*
X123692326Y-112847610D01*
X123698138Y-112824406D01*
X123706196Y-112801884D01*
X123716424Y-112780260D01*
X123728721Y-112759743D01*
X123742971Y-112740530D01*
X123759035Y-112722806D01*
X123776759Y-112706742D01*
X123795972Y-112692492D01*
X123816489Y-112680195D01*
X123838113Y-112669967D01*
X123860635Y-112661909D01*
X123883839Y-112656097D01*
X123907500Y-112652587D01*
X123931392Y-112651413D01*
X124418892Y-112651413D01*
X124442784Y-112652587D01*
X124442784Y-112652587D01*
G37*
D12*
X124175142Y-113351413D03*
D11*
G36*
X126317784Y-112652587D02*
X126341445Y-112656097D01*
X126364649Y-112661909D01*
X126387171Y-112669967D01*
X126408795Y-112680195D01*
X126429312Y-112692492D01*
X126448525Y-112706742D01*
X126466249Y-112722806D01*
X126482313Y-112740530D01*
X126496563Y-112759743D01*
X126508860Y-112780260D01*
X126519088Y-112801884D01*
X126527146Y-112824406D01*
X126532958Y-112847610D01*
X126536468Y-112871271D01*
X126537642Y-112895163D01*
X126537642Y-113807663D01*
X126536468Y-113831555D01*
X126532958Y-113855216D01*
X126527146Y-113878420D01*
X126519088Y-113900942D01*
X126508860Y-113922566D01*
X126496563Y-113943083D01*
X126482313Y-113962296D01*
X126466249Y-113980020D01*
X126448525Y-113996084D01*
X126429312Y-114010334D01*
X126408795Y-114022631D01*
X126387171Y-114032859D01*
X126364649Y-114040917D01*
X126341445Y-114046729D01*
X126317784Y-114050239D01*
X126293892Y-114051413D01*
X125806392Y-114051413D01*
X125782500Y-114050239D01*
X125758839Y-114046729D01*
X125735635Y-114040917D01*
X125713113Y-114032859D01*
X125691489Y-114022631D01*
X125670972Y-114010334D01*
X125651759Y-113996084D01*
X125634035Y-113980020D01*
X125617971Y-113962296D01*
X125603721Y-113943083D01*
X125591424Y-113922566D01*
X125581196Y-113900942D01*
X125573138Y-113878420D01*
X125567326Y-113855216D01*
X125563816Y-113831555D01*
X125562642Y-113807663D01*
X125562642Y-112895163D01*
X125563816Y-112871271D01*
X125567326Y-112847610D01*
X125573138Y-112824406D01*
X125581196Y-112801884D01*
X125591424Y-112780260D01*
X125603721Y-112759743D01*
X125617971Y-112740530D01*
X125634035Y-112722806D01*
X125651759Y-112706742D01*
X125670972Y-112692492D01*
X125691489Y-112680195D01*
X125713113Y-112669967D01*
X125735635Y-112661909D01*
X125758839Y-112656097D01*
X125782500Y-112652587D01*
X125806392Y-112651413D01*
X126293892Y-112651413D01*
X126317784Y-112652587D01*
X126317784Y-112652587D01*
G37*
D12*
X126050142Y-113351413D03*
G04 #@! TD*
D11*
G04 #@! TO.C,C5*
G36*
X134592784Y-109432587D02*
X134616445Y-109436097D01*
X134639649Y-109441909D01*
X134662171Y-109449967D01*
X134683795Y-109460195D01*
X134704312Y-109472492D01*
X134723525Y-109486742D01*
X134741249Y-109502806D01*
X134757313Y-109520530D01*
X134771563Y-109539743D01*
X134783860Y-109560260D01*
X134794088Y-109581884D01*
X134802146Y-109604406D01*
X134807958Y-109627610D01*
X134811468Y-109651271D01*
X134812642Y-109675163D01*
X134812642Y-110162663D01*
X134811468Y-110186555D01*
X134807958Y-110210216D01*
X134802146Y-110233420D01*
X134794088Y-110255942D01*
X134783860Y-110277566D01*
X134771563Y-110298083D01*
X134757313Y-110317296D01*
X134741249Y-110335020D01*
X134723525Y-110351084D01*
X134704312Y-110365334D01*
X134683795Y-110377631D01*
X134662171Y-110387859D01*
X134639649Y-110395917D01*
X134616445Y-110401729D01*
X134592784Y-110405239D01*
X134568892Y-110406413D01*
X133656392Y-110406413D01*
X133632500Y-110405239D01*
X133608839Y-110401729D01*
X133585635Y-110395917D01*
X133563113Y-110387859D01*
X133541489Y-110377631D01*
X133520972Y-110365334D01*
X133501759Y-110351084D01*
X133484035Y-110335020D01*
X133467971Y-110317296D01*
X133453721Y-110298083D01*
X133441424Y-110277566D01*
X133431196Y-110255942D01*
X133423138Y-110233420D01*
X133417326Y-110210216D01*
X133413816Y-110186555D01*
X133412642Y-110162663D01*
X133412642Y-109675163D01*
X133413816Y-109651271D01*
X133417326Y-109627610D01*
X133423138Y-109604406D01*
X133431196Y-109581884D01*
X133441424Y-109560260D01*
X133453721Y-109539743D01*
X133467971Y-109520530D01*
X133484035Y-109502806D01*
X133501759Y-109486742D01*
X133520972Y-109472492D01*
X133541489Y-109460195D01*
X133563113Y-109449967D01*
X133585635Y-109441909D01*
X133608839Y-109436097D01*
X133632500Y-109432587D01*
X133656392Y-109431413D01*
X134568892Y-109431413D01*
X134592784Y-109432587D01*
X134592784Y-109432587D01*
G37*
D12*
X134112642Y-109918913D03*
D11*
G36*
X134592784Y-107557587D02*
X134616445Y-107561097D01*
X134639649Y-107566909D01*
X134662171Y-107574967D01*
X134683795Y-107585195D01*
X134704312Y-107597492D01*
X134723525Y-107611742D01*
X134741249Y-107627806D01*
X134757313Y-107645530D01*
X134771563Y-107664743D01*
X134783860Y-107685260D01*
X134794088Y-107706884D01*
X134802146Y-107729406D01*
X134807958Y-107752610D01*
X134811468Y-107776271D01*
X134812642Y-107800163D01*
X134812642Y-108287663D01*
X134811468Y-108311555D01*
X134807958Y-108335216D01*
X134802146Y-108358420D01*
X134794088Y-108380942D01*
X134783860Y-108402566D01*
X134771563Y-108423083D01*
X134757313Y-108442296D01*
X134741249Y-108460020D01*
X134723525Y-108476084D01*
X134704312Y-108490334D01*
X134683795Y-108502631D01*
X134662171Y-108512859D01*
X134639649Y-108520917D01*
X134616445Y-108526729D01*
X134592784Y-108530239D01*
X134568892Y-108531413D01*
X133656392Y-108531413D01*
X133632500Y-108530239D01*
X133608839Y-108526729D01*
X133585635Y-108520917D01*
X133563113Y-108512859D01*
X133541489Y-108502631D01*
X133520972Y-108490334D01*
X133501759Y-108476084D01*
X133484035Y-108460020D01*
X133467971Y-108442296D01*
X133453721Y-108423083D01*
X133441424Y-108402566D01*
X133431196Y-108380942D01*
X133423138Y-108358420D01*
X133417326Y-108335216D01*
X133413816Y-108311555D01*
X133412642Y-108287663D01*
X133412642Y-107800163D01*
X133413816Y-107776271D01*
X133417326Y-107752610D01*
X133423138Y-107729406D01*
X133431196Y-107706884D01*
X133441424Y-107685260D01*
X133453721Y-107664743D01*
X133467971Y-107645530D01*
X133484035Y-107627806D01*
X133501759Y-107611742D01*
X133520972Y-107597492D01*
X133541489Y-107585195D01*
X133563113Y-107574967D01*
X133585635Y-107566909D01*
X133608839Y-107561097D01*
X133632500Y-107557587D01*
X133656392Y-107556413D01*
X134568892Y-107556413D01*
X134592784Y-107557587D01*
X134592784Y-107557587D01*
G37*
D12*
X134112642Y-108043913D03*
G04 #@! TD*
D11*
G04 #@! TO.C,C10*
G36*
X160870142Y-90891174D02*
X160893803Y-90894684D01*
X160917007Y-90900496D01*
X160939529Y-90908554D01*
X160961153Y-90918782D01*
X160981670Y-90931079D01*
X161000883Y-90945329D01*
X161018607Y-90961393D01*
X161034671Y-90979117D01*
X161048921Y-90998330D01*
X161061218Y-91018847D01*
X161071446Y-91040471D01*
X161079504Y-91062993D01*
X161085316Y-91086197D01*
X161088826Y-91109858D01*
X161090000Y-91133750D01*
X161090000Y-92046250D01*
X161088826Y-92070142D01*
X161085316Y-92093803D01*
X161079504Y-92117007D01*
X161071446Y-92139529D01*
X161061218Y-92161153D01*
X161048921Y-92181670D01*
X161034671Y-92200883D01*
X161018607Y-92218607D01*
X161000883Y-92234671D01*
X160981670Y-92248921D01*
X160961153Y-92261218D01*
X160939529Y-92271446D01*
X160917007Y-92279504D01*
X160893803Y-92285316D01*
X160870142Y-92288826D01*
X160846250Y-92290000D01*
X160358750Y-92290000D01*
X160334858Y-92288826D01*
X160311197Y-92285316D01*
X160287993Y-92279504D01*
X160265471Y-92271446D01*
X160243847Y-92261218D01*
X160223330Y-92248921D01*
X160204117Y-92234671D01*
X160186393Y-92218607D01*
X160170329Y-92200883D01*
X160156079Y-92181670D01*
X160143782Y-92161153D01*
X160133554Y-92139529D01*
X160125496Y-92117007D01*
X160119684Y-92093803D01*
X160116174Y-92070142D01*
X160115000Y-92046250D01*
X160115000Y-91133750D01*
X160116174Y-91109858D01*
X160119684Y-91086197D01*
X160125496Y-91062993D01*
X160133554Y-91040471D01*
X160143782Y-91018847D01*
X160156079Y-90998330D01*
X160170329Y-90979117D01*
X160186393Y-90961393D01*
X160204117Y-90945329D01*
X160223330Y-90931079D01*
X160243847Y-90918782D01*
X160265471Y-90908554D01*
X160287993Y-90900496D01*
X160311197Y-90894684D01*
X160334858Y-90891174D01*
X160358750Y-90890000D01*
X160846250Y-90890000D01*
X160870142Y-90891174D01*
X160870142Y-90891174D01*
G37*
D12*
X160602500Y-91590000D03*
D11*
G36*
X162745142Y-90891174D02*
X162768803Y-90894684D01*
X162792007Y-90900496D01*
X162814529Y-90908554D01*
X162836153Y-90918782D01*
X162856670Y-90931079D01*
X162875883Y-90945329D01*
X162893607Y-90961393D01*
X162909671Y-90979117D01*
X162923921Y-90998330D01*
X162936218Y-91018847D01*
X162946446Y-91040471D01*
X162954504Y-91062993D01*
X162960316Y-91086197D01*
X162963826Y-91109858D01*
X162965000Y-91133750D01*
X162965000Y-92046250D01*
X162963826Y-92070142D01*
X162960316Y-92093803D01*
X162954504Y-92117007D01*
X162946446Y-92139529D01*
X162936218Y-92161153D01*
X162923921Y-92181670D01*
X162909671Y-92200883D01*
X162893607Y-92218607D01*
X162875883Y-92234671D01*
X162856670Y-92248921D01*
X162836153Y-92261218D01*
X162814529Y-92271446D01*
X162792007Y-92279504D01*
X162768803Y-92285316D01*
X162745142Y-92288826D01*
X162721250Y-92290000D01*
X162233750Y-92290000D01*
X162209858Y-92288826D01*
X162186197Y-92285316D01*
X162162993Y-92279504D01*
X162140471Y-92271446D01*
X162118847Y-92261218D01*
X162098330Y-92248921D01*
X162079117Y-92234671D01*
X162061393Y-92218607D01*
X162045329Y-92200883D01*
X162031079Y-92181670D01*
X162018782Y-92161153D01*
X162008554Y-92139529D01*
X162000496Y-92117007D01*
X161994684Y-92093803D01*
X161991174Y-92070142D01*
X161990000Y-92046250D01*
X161990000Y-91133750D01*
X161991174Y-91109858D01*
X161994684Y-91086197D01*
X162000496Y-91062993D01*
X162008554Y-91040471D01*
X162018782Y-91018847D01*
X162031079Y-90998330D01*
X162045329Y-90979117D01*
X162061393Y-90961393D01*
X162079117Y-90945329D01*
X162098330Y-90931079D01*
X162118847Y-90918782D01*
X162140471Y-90908554D01*
X162162993Y-90900496D01*
X162186197Y-90894684D01*
X162209858Y-90891174D01*
X162233750Y-90890000D01*
X162721250Y-90890000D01*
X162745142Y-90891174D01*
X162745142Y-90891174D01*
G37*
D12*
X162477500Y-91590000D03*
G04 #@! TD*
D11*
G04 #@! TO.C,C11*
G36*
X153890142Y-86137389D02*
X153913803Y-86140899D01*
X153937007Y-86146711D01*
X153959529Y-86154769D01*
X153981153Y-86164997D01*
X154001670Y-86177294D01*
X154020883Y-86191544D01*
X154038607Y-86207608D01*
X154054671Y-86225332D01*
X154068921Y-86244545D01*
X154081218Y-86265062D01*
X154091446Y-86286686D01*
X154099504Y-86309208D01*
X154105316Y-86332412D01*
X154108826Y-86356073D01*
X154110000Y-86379965D01*
X154110000Y-86867465D01*
X154108826Y-86891357D01*
X154105316Y-86915018D01*
X154099504Y-86938222D01*
X154091446Y-86960744D01*
X154081218Y-86982368D01*
X154068921Y-87002885D01*
X154054671Y-87022098D01*
X154038607Y-87039822D01*
X154020883Y-87055886D01*
X154001670Y-87070136D01*
X153981153Y-87082433D01*
X153959529Y-87092661D01*
X153937007Y-87100719D01*
X153913803Y-87106531D01*
X153890142Y-87110041D01*
X153866250Y-87111215D01*
X152953750Y-87111215D01*
X152929858Y-87110041D01*
X152906197Y-87106531D01*
X152882993Y-87100719D01*
X152860471Y-87092661D01*
X152838847Y-87082433D01*
X152818330Y-87070136D01*
X152799117Y-87055886D01*
X152781393Y-87039822D01*
X152765329Y-87022098D01*
X152751079Y-87002885D01*
X152738782Y-86982368D01*
X152728554Y-86960744D01*
X152720496Y-86938222D01*
X152714684Y-86915018D01*
X152711174Y-86891357D01*
X152710000Y-86867465D01*
X152710000Y-86379965D01*
X152711174Y-86356073D01*
X152714684Y-86332412D01*
X152720496Y-86309208D01*
X152728554Y-86286686D01*
X152738782Y-86265062D01*
X152751079Y-86244545D01*
X152765329Y-86225332D01*
X152781393Y-86207608D01*
X152799117Y-86191544D01*
X152818330Y-86177294D01*
X152838847Y-86164997D01*
X152860471Y-86154769D01*
X152882993Y-86146711D01*
X152906197Y-86140899D01*
X152929858Y-86137389D01*
X152953750Y-86136215D01*
X153866250Y-86136215D01*
X153890142Y-86137389D01*
X153890142Y-86137389D01*
G37*
D12*
X153410000Y-86623715D03*
D11*
G36*
X153890142Y-88012389D02*
X153913803Y-88015899D01*
X153937007Y-88021711D01*
X153959529Y-88029769D01*
X153981153Y-88039997D01*
X154001670Y-88052294D01*
X154020883Y-88066544D01*
X154038607Y-88082608D01*
X154054671Y-88100332D01*
X154068921Y-88119545D01*
X154081218Y-88140062D01*
X154091446Y-88161686D01*
X154099504Y-88184208D01*
X154105316Y-88207412D01*
X154108826Y-88231073D01*
X154110000Y-88254965D01*
X154110000Y-88742465D01*
X154108826Y-88766357D01*
X154105316Y-88790018D01*
X154099504Y-88813222D01*
X154091446Y-88835744D01*
X154081218Y-88857368D01*
X154068921Y-88877885D01*
X154054671Y-88897098D01*
X154038607Y-88914822D01*
X154020883Y-88930886D01*
X154001670Y-88945136D01*
X153981153Y-88957433D01*
X153959529Y-88967661D01*
X153937007Y-88975719D01*
X153913803Y-88981531D01*
X153890142Y-88985041D01*
X153866250Y-88986215D01*
X152953750Y-88986215D01*
X152929858Y-88985041D01*
X152906197Y-88981531D01*
X152882993Y-88975719D01*
X152860471Y-88967661D01*
X152838847Y-88957433D01*
X152818330Y-88945136D01*
X152799117Y-88930886D01*
X152781393Y-88914822D01*
X152765329Y-88897098D01*
X152751079Y-88877885D01*
X152738782Y-88857368D01*
X152728554Y-88835744D01*
X152720496Y-88813222D01*
X152714684Y-88790018D01*
X152711174Y-88766357D01*
X152710000Y-88742465D01*
X152710000Y-88254965D01*
X152711174Y-88231073D01*
X152714684Y-88207412D01*
X152720496Y-88184208D01*
X152728554Y-88161686D01*
X152738782Y-88140062D01*
X152751079Y-88119545D01*
X152765329Y-88100332D01*
X152781393Y-88082608D01*
X152799117Y-88066544D01*
X152818330Y-88052294D01*
X152838847Y-88039997D01*
X152860471Y-88029769D01*
X152882993Y-88021711D01*
X152906197Y-88015899D01*
X152929858Y-88012389D01*
X152953750Y-88011215D01*
X153866250Y-88011215D01*
X153890142Y-88012389D01*
X153890142Y-88012389D01*
G37*
D12*
X153410000Y-88498715D03*
G04 #@! TD*
D11*
G04 #@! TO.C,D4*
G36*
X187260142Y-81741174D02*
X187283803Y-81744684D01*
X187307007Y-81750496D01*
X187329529Y-81758554D01*
X187351153Y-81768782D01*
X187371670Y-81781079D01*
X187390883Y-81795329D01*
X187408607Y-81811393D01*
X187424671Y-81829117D01*
X187438921Y-81848330D01*
X187451218Y-81868847D01*
X187461446Y-81890471D01*
X187469504Y-81912993D01*
X187475316Y-81936197D01*
X187478826Y-81959858D01*
X187480000Y-81983750D01*
X187480000Y-82896250D01*
X187478826Y-82920142D01*
X187475316Y-82943803D01*
X187469504Y-82967007D01*
X187461446Y-82989529D01*
X187451218Y-83011153D01*
X187438921Y-83031670D01*
X187424671Y-83050883D01*
X187408607Y-83068607D01*
X187390883Y-83084671D01*
X187371670Y-83098921D01*
X187351153Y-83111218D01*
X187329529Y-83121446D01*
X187307007Y-83129504D01*
X187283803Y-83135316D01*
X187260142Y-83138826D01*
X187236250Y-83140000D01*
X186748750Y-83140000D01*
X186724858Y-83138826D01*
X186701197Y-83135316D01*
X186677993Y-83129504D01*
X186655471Y-83121446D01*
X186633847Y-83111218D01*
X186613330Y-83098921D01*
X186594117Y-83084671D01*
X186576393Y-83068607D01*
X186560329Y-83050883D01*
X186546079Y-83031670D01*
X186533782Y-83011153D01*
X186523554Y-82989529D01*
X186515496Y-82967007D01*
X186509684Y-82943803D01*
X186506174Y-82920142D01*
X186505000Y-82896250D01*
X186505000Y-81983750D01*
X186506174Y-81959858D01*
X186509684Y-81936197D01*
X186515496Y-81912993D01*
X186523554Y-81890471D01*
X186533782Y-81868847D01*
X186546079Y-81848330D01*
X186560329Y-81829117D01*
X186576393Y-81811393D01*
X186594117Y-81795329D01*
X186613330Y-81781079D01*
X186633847Y-81768782D01*
X186655471Y-81758554D01*
X186677993Y-81750496D01*
X186701197Y-81744684D01*
X186724858Y-81741174D01*
X186748750Y-81740000D01*
X187236250Y-81740000D01*
X187260142Y-81741174D01*
X187260142Y-81741174D01*
G37*
D12*
X186992500Y-82440000D03*
D11*
G36*
X189135142Y-81741174D02*
X189158803Y-81744684D01*
X189182007Y-81750496D01*
X189204529Y-81758554D01*
X189226153Y-81768782D01*
X189246670Y-81781079D01*
X189265883Y-81795329D01*
X189283607Y-81811393D01*
X189299671Y-81829117D01*
X189313921Y-81848330D01*
X189326218Y-81868847D01*
X189336446Y-81890471D01*
X189344504Y-81912993D01*
X189350316Y-81936197D01*
X189353826Y-81959858D01*
X189355000Y-81983750D01*
X189355000Y-82896250D01*
X189353826Y-82920142D01*
X189350316Y-82943803D01*
X189344504Y-82967007D01*
X189336446Y-82989529D01*
X189326218Y-83011153D01*
X189313921Y-83031670D01*
X189299671Y-83050883D01*
X189283607Y-83068607D01*
X189265883Y-83084671D01*
X189246670Y-83098921D01*
X189226153Y-83111218D01*
X189204529Y-83121446D01*
X189182007Y-83129504D01*
X189158803Y-83135316D01*
X189135142Y-83138826D01*
X189111250Y-83140000D01*
X188623750Y-83140000D01*
X188599858Y-83138826D01*
X188576197Y-83135316D01*
X188552993Y-83129504D01*
X188530471Y-83121446D01*
X188508847Y-83111218D01*
X188488330Y-83098921D01*
X188469117Y-83084671D01*
X188451393Y-83068607D01*
X188435329Y-83050883D01*
X188421079Y-83031670D01*
X188408782Y-83011153D01*
X188398554Y-82989529D01*
X188390496Y-82967007D01*
X188384684Y-82943803D01*
X188381174Y-82920142D01*
X188380000Y-82896250D01*
X188380000Y-81983750D01*
X188381174Y-81959858D01*
X188384684Y-81936197D01*
X188390496Y-81912993D01*
X188398554Y-81890471D01*
X188408782Y-81868847D01*
X188421079Y-81848330D01*
X188435329Y-81829117D01*
X188451393Y-81811393D01*
X188469117Y-81795329D01*
X188488330Y-81781079D01*
X188508847Y-81768782D01*
X188530471Y-81758554D01*
X188552993Y-81750496D01*
X188576197Y-81744684D01*
X188599858Y-81741174D01*
X188623750Y-81740000D01*
X189111250Y-81740000D01*
X189135142Y-81741174D01*
X189135142Y-81741174D01*
G37*
D12*
X188867500Y-82440000D03*
G04 #@! TD*
D11*
G04 #@! TO.C,D7*
G36*
X179260142Y-81741174D02*
X179283803Y-81744684D01*
X179307007Y-81750496D01*
X179329529Y-81758554D01*
X179351153Y-81768782D01*
X179371670Y-81781079D01*
X179390883Y-81795329D01*
X179408607Y-81811393D01*
X179424671Y-81829117D01*
X179438921Y-81848330D01*
X179451218Y-81868847D01*
X179461446Y-81890471D01*
X179469504Y-81912993D01*
X179475316Y-81936197D01*
X179478826Y-81959858D01*
X179480000Y-81983750D01*
X179480000Y-82896250D01*
X179478826Y-82920142D01*
X179475316Y-82943803D01*
X179469504Y-82967007D01*
X179461446Y-82989529D01*
X179451218Y-83011153D01*
X179438921Y-83031670D01*
X179424671Y-83050883D01*
X179408607Y-83068607D01*
X179390883Y-83084671D01*
X179371670Y-83098921D01*
X179351153Y-83111218D01*
X179329529Y-83121446D01*
X179307007Y-83129504D01*
X179283803Y-83135316D01*
X179260142Y-83138826D01*
X179236250Y-83140000D01*
X178748750Y-83140000D01*
X178724858Y-83138826D01*
X178701197Y-83135316D01*
X178677993Y-83129504D01*
X178655471Y-83121446D01*
X178633847Y-83111218D01*
X178613330Y-83098921D01*
X178594117Y-83084671D01*
X178576393Y-83068607D01*
X178560329Y-83050883D01*
X178546079Y-83031670D01*
X178533782Y-83011153D01*
X178523554Y-82989529D01*
X178515496Y-82967007D01*
X178509684Y-82943803D01*
X178506174Y-82920142D01*
X178505000Y-82896250D01*
X178505000Y-81983750D01*
X178506174Y-81959858D01*
X178509684Y-81936197D01*
X178515496Y-81912993D01*
X178523554Y-81890471D01*
X178533782Y-81868847D01*
X178546079Y-81848330D01*
X178560329Y-81829117D01*
X178576393Y-81811393D01*
X178594117Y-81795329D01*
X178613330Y-81781079D01*
X178633847Y-81768782D01*
X178655471Y-81758554D01*
X178677993Y-81750496D01*
X178701197Y-81744684D01*
X178724858Y-81741174D01*
X178748750Y-81740000D01*
X179236250Y-81740000D01*
X179260142Y-81741174D01*
X179260142Y-81741174D01*
G37*
D12*
X178992500Y-82440000D03*
D11*
G36*
X181135142Y-81741174D02*
X181158803Y-81744684D01*
X181182007Y-81750496D01*
X181204529Y-81758554D01*
X181226153Y-81768782D01*
X181246670Y-81781079D01*
X181265883Y-81795329D01*
X181283607Y-81811393D01*
X181299671Y-81829117D01*
X181313921Y-81848330D01*
X181326218Y-81868847D01*
X181336446Y-81890471D01*
X181344504Y-81912993D01*
X181350316Y-81936197D01*
X181353826Y-81959858D01*
X181355000Y-81983750D01*
X181355000Y-82896250D01*
X181353826Y-82920142D01*
X181350316Y-82943803D01*
X181344504Y-82967007D01*
X181336446Y-82989529D01*
X181326218Y-83011153D01*
X181313921Y-83031670D01*
X181299671Y-83050883D01*
X181283607Y-83068607D01*
X181265883Y-83084671D01*
X181246670Y-83098921D01*
X181226153Y-83111218D01*
X181204529Y-83121446D01*
X181182007Y-83129504D01*
X181158803Y-83135316D01*
X181135142Y-83138826D01*
X181111250Y-83140000D01*
X180623750Y-83140000D01*
X180599858Y-83138826D01*
X180576197Y-83135316D01*
X180552993Y-83129504D01*
X180530471Y-83121446D01*
X180508847Y-83111218D01*
X180488330Y-83098921D01*
X180469117Y-83084671D01*
X180451393Y-83068607D01*
X180435329Y-83050883D01*
X180421079Y-83031670D01*
X180408782Y-83011153D01*
X180398554Y-82989529D01*
X180390496Y-82967007D01*
X180384684Y-82943803D01*
X180381174Y-82920142D01*
X180380000Y-82896250D01*
X180380000Y-81983750D01*
X180381174Y-81959858D01*
X180384684Y-81936197D01*
X180390496Y-81912993D01*
X180398554Y-81890471D01*
X180408782Y-81868847D01*
X180421079Y-81848330D01*
X180435329Y-81829117D01*
X180451393Y-81811393D01*
X180469117Y-81795329D01*
X180488330Y-81781079D01*
X180508847Y-81768782D01*
X180530471Y-81758554D01*
X180552993Y-81750496D01*
X180576197Y-81744684D01*
X180599858Y-81741174D01*
X180623750Y-81740000D01*
X181111250Y-81740000D01*
X181135142Y-81741174D01*
X181135142Y-81741174D01*
G37*
D12*
X180867500Y-82440000D03*
G04 #@! TD*
D11*
G04 #@! TO.C,D8*
G36*
X185135142Y-81741174D02*
X185158803Y-81744684D01*
X185182007Y-81750496D01*
X185204529Y-81758554D01*
X185226153Y-81768782D01*
X185246670Y-81781079D01*
X185265883Y-81795329D01*
X185283607Y-81811393D01*
X185299671Y-81829117D01*
X185313921Y-81848330D01*
X185326218Y-81868847D01*
X185336446Y-81890471D01*
X185344504Y-81912993D01*
X185350316Y-81936197D01*
X185353826Y-81959858D01*
X185355000Y-81983750D01*
X185355000Y-82896250D01*
X185353826Y-82920142D01*
X185350316Y-82943803D01*
X185344504Y-82967007D01*
X185336446Y-82989529D01*
X185326218Y-83011153D01*
X185313921Y-83031670D01*
X185299671Y-83050883D01*
X185283607Y-83068607D01*
X185265883Y-83084671D01*
X185246670Y-83098921D01*
X185226153Y-83111218D01*
X185204529Y-83121446D01*
X185182007Y-83129504D01*
X185158803Y-83135316D01*
X185135142Y-83138826D01*
X185111250Y-83140000D01*
X184623750Y-83140000D01*
X184599858Y-83138826D01*
X184576197Y-83135316D01*
X184552993Y-83129504D01*
X184530471Y-83121446D01*
X184508847Y-83111218D01*
X184488330Y-83098921D01*
X184469117Y-83084671D01*
X184451393Y-83068607D01*
X184435329Y-83050883D01*
X184421079Y-83031670D01*
X184408782Y-83011153D01*
X184398554Y-82989529D01*
X184390496Y-82967007D01*
X184384684Y-82943803D01*
X184381174Y-82920142D01*
X184380000Y-82896250D01*
X184380000Y-81983750D01*
X184381174Y-81959858D01*
X184384684Y-81936197D01*
X184390496Y-81912993D01*
X184398554Y-81890471D01*
X184408782Y-81868847D01*
X184421079Y-81848330D01*
X184435329Y-81829117D01*
X184451393Y-81811393D01*
X184469117Y-81795329D01*
X184488330Y-81781079D01*
X184508847Y-81768782D01*
X184530471Y-81758554D01*
X184552993Y-81750496D01*
X184576197Y-81744684D01*
X184599858Y-81741174D01*
X184623750Y-81740000D01*
X185111250Y-81740000D01*
X185135142Y-81741174D01*
X185135142Y-81741174D01*
G37*
D12*
X184867500Y-82440000D03*
D11*
G36*
X183260142Y-81741174D02*
X183283803Y-81744684D01*
X183307007Y-81750496D01*
X183329529Y-81758554D01*
X183351153Y-81768782D01*
X183371670Y-81781079D01*
X183390883Y-81795329D01*
X183408607Y-81811393D01*
X183424671Y-81829117D01*
X183438921Y-81848330D01*
X183451218Y-81868847D01*
X183461446Y-81890471D01*
X183469504Y-81912993D01*
X183475316Y-81936197D01*
X183478826Y-81959858D01*
X183480000Y-81983750D01*
X183480000Y-82896250D01*
X183478826Y-82920142D01*
X183475316Y-82943803D01*
X183469504Y-82967007D01*
X183461446Y-82989529D01*
X183451218Y-83011153D01*
X183438921Y-83031670D01*
X183424671Y-83050883D01*
X183408607Y-83068607D01*
X183390883Y-83084671D01*
X183371670Y-83098921D01*
X183351153Y-83111218D01*
X183329529Y-83121446D01*
X183307007Y-83129504D01*
X183283803Y-83135316D01*
X183260142Y-83138826D01*
X183236250Y-83140000D01*
X182748750Y-83140000D01*
X182724858Y-83138826D01*
X182701197Y-83135316D01*
X182677993Y-83129504D01*
X182655471Y-83121446D01*
X182633847Y-83111218D01*
X182613330Y-83098921D01*
X182594117Y-83084671D01*
X182576393Y-83068607D01*
X182560329Y-83050883D01*
X182546079Y-83031670D01*
X182533782Y-83011153D01*
X182523554Y-82989529D01*
X182515496Y-82967007D01*
X182509684Y-82943803D01*
X182506174Y-82920142D01*
X182505000Y-82896250D01*
X182505000Y-81983750D01*
X182506174Y-81959858D01*
X182509684Y-81936197D01*
X182515496Y-81912993D01*
X182523554Y-81890471D01*
X182533782Y-81868847D01*
X182546079Y-81848330D01*
X182560329Y-81829117D01*
X182576393Y-81811393D01*
X182594117Y-81795329D01*
X182613330Y-81781079D01*
X182633847Y-81768782D01*
X182655471Y-81758554D01*
X182677993Y-81750496D01*
X182701197Y-81744684D01*
X182724858Y-81741174D01*
X182748750Y-81740000D01*
X183236250Y-81740000D01*
X183260142Y-81741174D01*
X183260142Y-81741174D01*
G37*
D12*
X182992500Y-82440000D03*
G04 #@! TD*
D11*
G04 #@! TO.C,D9*
G36*
X173135142Y-81741174D02*
X173158803Y-81744684D01*
X173182007Y-81750496D01*
X173204529Y-81758554D01*
X173226153Y-81768782D01*
X173246670Y-81781079D01*
X173265883Y-81795329D01*
X173283607Y-81811393D01*
X173299671Y-81829117D01*
X173313921Y-81848330D01*
X173326218Y-81868847D01*
X173336446Y-81890471D01*
X173344504Y-81912993D01*
X173350316Y-81936197D01*
X173353826Y-81959858D01*
X173355000Y-81983750D01*
X173355000Y-82896250D01*
X173353826Y-82920142D01*
X173350316Y-82943803D01*
X173344504Y-82967007D01*
X173336446Y-82989529D01*
X173326218Y-83011153D01*
X173313921Y-83031670D01*
X173299671Y-83050883D01*
X173283607Y-83068607D01*
X173265883Y-83084671D01*
X173246670Y-83098921D01*
X173226153Y-83111218D01*
X173204529Y-83121446D01*
X173182007Y-83129504D01*
X173158803Y-83135316D01*
X173135142Y-83138826D01*
X173111250Y-83140000D01*
X172623750Y-83140000D01*
X172599858Y-83138826D01*
X172576197Y-83135316D01*
X172552993Y-83129504D01*
X172530471Y-83121446D01*
X172508847Y-83111218D01*
X172488330Y-83098921D01*
X172469117Y-83084671D01*
X172451393Y-83068607D01*
X172435329Y-83050883D01*
X172421079Y-83031670D01*
X172408782Y-83011153D01*
X172398554Y-82989529D01*
X172390496Y-82967007D01*
X172384684Y-82943803D01*
X172381174Y-82920142D01*
X172380000Y-82896250D01*
X172380000Y-81983750D01*
X172381174Y-81959858D01*
X172384684Y-81936197D01*
X172390496Y-81912993D01*
X172398554Y-81890471D01*
X172408782Y-81868847D01*
X172421079Y-81848330D01*
X172435329Y-81829117D01*
X172451393Y-81811393D01*
X172469117Y-81795329D01*
X172488330Y-81781079D01*
X172508847Y-81768782D01*
X172530471Y-81758554D01*
X172552993Y-81750496D01*
X172576197Y-81744684D01*
X172599858Y-81741174D01*
X172623750Y-81740000D01*
X173111250Y-81740000D01*
X173135142Y-81741174D01*
X173135142Y-81741174D01*
G37*
D12*
X172867500Y-82440000D03*
D11*
G36*
X171260142Y-81741174D02*
X171283803Y-81744684D01*
X171307007Y-81750496D01*
X171329529Y-81758554D01*
X171351153Y-81768782D01*
X171371670Y-81781079D01*
X171390883Y-81795329D01*
X171408607Y-81811393D01*
X171424671Y-81829117D01*
X171438921Y-81848330D01*
X171451218Y-81868847D01*
X171461446Y-81890471D01*
X171469504Y-81912993D01*
X171475316Y-81936197D01*
X171478826Y-81959858D01*
X171480000Y-81983750D01*
X171480000Y-82896250D01*
X171478826Y-82920142D01*
X171475316Y-82943803D01*
X171469504Y-82967007D01*
X171461446Y-82989529D01*
X171451218Y-83011153D01*
X171438921Y-83031670D01*
X171424671Y-83050883D01*
X171408607Y-83068607D01*
X171390883Y-83084671D01*
X171371670Y-83098921D01*
X171351153Y-83111218D01*
X171329529Y-83121446D01*
X171307007Y-83129504D01*
X171283803Y-83135316D01*
X171260142Y-83138826D01*
X171236250Y-83140000D01*
X170748750Y-83140000D01*
X170724858Y-83138826D01*
X170701197Y-83135316D01*
X170677993Y-83129504D01*
X170655471Y-83121446D01*
X170633847Y-83111218D01*
X170613330Y-83098921D01*
X170594117Y-83084671D01*
X170576393Y-83068607D01*
X170560329Y-83050883D01*
X170546079Y-83031670D01*
X170533782Y-83011153D01*
X170523554Y-82989529D01*
X170515496Y-82967007D01*
X170509684Y-82943803D01*
X170506174Y-82920142D01*
X170505000Y-82896250D01*
X170505000Y-81983750D01*
X170506174Y-81959858D01*
X170509684Y-81936197D01*
X170515496Y-81912993D01*
X170523554Y-81890471D01*
X170533782Y-81868847D01*
X170546079Y-81848330D01*
X170560329Y-81829117D01*
X170576393Y-81811393D01*
X170594117Y-81795329D01*
X170613330Y-81781079D01*
X170633847Y-81768782D01*
X170655471Y-81758554D01*
X170677993Y-81750496D01*
X170701197Y-81744684D01*
X170724858Y-81741174D01*
X170748750Y-81740000D01*
X171236250Y-81740000D01*
X171260142Y-81741174D01*
X171260142Y-81741174D01*
G37*
D12*
X170992500Y-82440000D03*
G04 #@! TD*
D21*
G04 #@! TO.C,L1*
X129572642Y-102086413D03*
X129572642Y-108136413D03*
G04 #@! TD*
D10*
G04 #@! TO.C,Q5*
X188880000Y-74940000D03*
X186980000Y-74940000D03*
X187930000Y-76940000D03*
G04 #@! TD*
G04 #@! TO.C,Q8*
X179930000Y-76940000D03*
X178980000Y-74940000D03*
X180880000Y-74940000D03*
G04 #@! TD*
D11*
G04 #@! TO.C,R2*
G36*
X145830142Y-109991174D02*
X145853803Y-109994684D01*
X145877007Y-110000496D01*
X145899529Y-110008554D01*
X145921153Y-110018782D01*
X145941670Y-110031079D01*
X145960883Y-110045329D01*
X145978607Y-110061393D01*
X145994671Y-110079117D01*
X146008921Y-110098330D01*
X146021218Y-110118847D01*
X146031446Y-110140471D01*
X146039504Y-110162993D01*
X146045316Y-110186197D01*
X146048826Y-110209858D01*
X146050000Y-110233750D01*
X146050000Y-111146250D01*
X146048826Y-111170142D01*
X146045316Y-111193803D01*
X146039504Y-111217007D01*
X146031446Y-111239529D01*
X146021218Y-111261153D01*
X146008921Y-111281670D01*
X145994671Y-111300883D01*
X145978607Y-111318607D01*
X145960883Y-111334671D01*
X145941670Y-111348921D01*
X145921153Y-111361218D01*
X145899529Y-111371446D01*
X145877007Y-111379504D01*
X145853803Y-111385316D01*
X145830142Y-111388826D01*
X145806250Y-111390000D01*
X145318750Y-111390000D01*
X145294858Y-111388826D01*
X145271197Y-111385316D01*
X145247993Y-111379504D01*
X145225471Y-111371446D01*
X145203847Y-111361218D01*
X145183330Y-111348921D01*
X145164117Y-111334671D01*
X145146393Y-111318607D01*
X145130329Y-111300883D01*
X145116079Y-111281670D01*
X145103782Y-111261153D01*
X145093554Y-111239529D01*
X145085496Y-111217007D01*
X145079684Y-111193803D01*
X145076174Y-111170142D01*
X145075000Y-111146250D01*
X145075000Y-110233750D01*
X145076174Y-110209858D01*
X145079684Y-110186197D01*
X145085496Y-110162993D01*
X145093554Y-110140471D01*
X145103782Y-110118847D01*
X145116079Y-110098330D01*
X145130329Y-110079117D01*
X145146393Y-110061393D01*
X145164117Y-110045329D01*
X145183330Y-110031079D01*
X145203847Y-110018782D01*
X145225471Y-110008554D01*
X145247993Y-110000496D01*
X145271197Y-109994684D01*
X145294858Y-109991174D01*
X145318750Y-109990000D01*
X145806250Y-109990000D01*
X145830142Y-109991174D01*
X145830142Y-109991174D01*
G37*
D12*
X145562500Y-110690000D03*
D11*
G36*
X147705142Y-109991174D02*
X147728803Y-109994684D01*
X147752007Y-110000496D01*
X147774529Y-110008554D01*
X147796153Y-110018782D01*
X147816670Y-110031079D01*
X147835883Y-110045329D01*
X147853607Y-110061393D01*
X147869671Y-110079117D01*
X147883921Y-110098330D01*
X147896218Y-110118847D01*
X147906446Y-110140471D01*
X147914504Y-110162993D01*
X147920316Y-110186197D01*
X147923826Y-110209858D01*
X147925000Y-110233750D01*
X147925000Y-111146250D01*
X147923826Y-111170142D01*
X147920316Y-111193803D01*
X147914504Y-111217007D01*
X147906446Y-111239529D01*
X147896218Y-111261153D01*
X147883921Y-111281670D01*
X147869671Y-111300883D01*
X147853607Y-111318607D01*
X147835883Y-111334671D01*
X147816670Y-111348921D01*
X147796153Y-111361218D01*
X147774529Y-111371446D01*
X147752007Y-111379504D01*
X147728803Y-111385316D01*
X147705142Y-111388826D01*
X147681250Y-111390000D01*
X147193750Y-111390000D01*
X147169858Y-111388826D01*
X147146197Y-111385316D01*
X147122993Y-111379504D01*
X147100471Y-111371446D01*
X147078847Y-111361218D01*
X147058330Y-111348921D01*
X147039117Y-111334671D01*
X147021393Y-111318607D01*
X147005329Y-111300883D01*
X146991079Y-111281670D01*
X146978782Y-111261153D01*
X146968554Y-111239529D01*
X146960496Y-111217007D01*
X146954684Y-111193803D01*
X146951174Y-111170142D01*
X146950000Y-111146250D01*
X146950000Y-110233750D01*
X146951174Y-110209858D01*
X146954684Y-110186197D01*
X146960496Y-110162993D01*
X146968554Y-110140471D01*
X146978782Y-110118847D01*
X146991079Y-110098330D01*
X147005329Y-110079117D01*
X147021393Y-110061393D01*
X147039117Y-110045329D01*
X147058330Y-110031079D01*
X147078847Y-110018782D01*
X147100471Y-110008554D01*
X147122993Y-110000496D01*
X147146197Y-109994684D01*
X147169858Y-109991174D01*
X147193750Y-109990000D01*
X147681250Y-109990000D01*
X147705142Y-109991174D01*
X147705142Y-109991174D01*
G37*
D12*
X147437500Y-110690000D03*
G04 #@! TD*
D11*
G04 #@! TO.C,R3*
G36*
X126905142Y-88051174D02*
X126928803Y-88054684D01*
X126952007Y-88060496D01*
X126974529Y-88068554D01*
X126996153Y-88078782D01*
X127016670Y-88091079D01*
X127035883Y-88105329D01*
X127053607Y-88121393D01*
X127069671Y-88139117D01*
X127083921Y-88158330D01*
X127096218Y-88178847D01*
X127106446Y-88200471D01*
X127114504Y-88222993D01*
X127120316Y-88246197D01*
X127123826Y-88269858D01*
X127125000Y-88293750D01*
X127125000Y-89206250D01*
X127123826Y-89230142D01*
X127120316Y-89253803D01*
X127114504Y-89277007D01*
X127106446Y-89299529D01*
X127096218Y-89321153D01*
X127083921Y-89341670D01*
X127069671Y-89360883D01*
X127053607Y-89378607D01*
X127035883Y-89394671D01*
X127016670Y-89408921D01*
X126996153Y-89421218D01*
X126974529Y-89431446D01*
X126952007Y-89439504D01*
X126928803Y-89445316D01*
X126905142Y-89448826D01*
X126881250Y-89450000D01*
X126393750Y-89450000D01*
X126369858Y-89448826D01*
X126346197Y-89445316D01*
X126322993Y-89439504D01*
X126300471Y-89431446D01*
X126278847Y-89421218D01*
X126258330Y-89408921D01*
X126239117Y-89394671D01*
X126221393Y-89378607D01*
X126205329Y-89360883D01*
X126191079Y-89341670D01*
X126178782Y-89321153D01*
X126168554Y-89299529D01*
X126160496Y-89277007D01*
X126154684Y-89253803D01*
X126151174Y-89230142D01*
X126150000Y-89206250D01*
X126150000Y-88293750D01*
X126151174Y-88269858D01*
X126154684Y-88246197D01*
X126160496Y-88222993D01*
X126168554Y-88200471D01*
X126178782Y-88178847D01*
X126191079Y-88158330D01*
X126205329Y-88139117D01*
X126221393Y-88121393D01*
X126239117Y-88105329D01*
X126258330Y-88091079D01*
X126278847Y-88078782D01*
X126300471Y-88068554D01*
X126322993Y-88060496D01*
X126346197Y-88054684D01*
X126369858Y-88051174D01*
X126393750Y-88050000D01*
X126881250Y-88050000D01*
X126905142Y-88051174D01*
X126905142Y-88051174D01*
G37*
D12*
X126637500Y-88750000D03*
D11*
G36*
X125030142Y-88051174D02*
X125053803Y-88054684D01*
X125077007Y-88060496D01*
X125099529Y-88068554D01*
X125121153Y-88078782D01*
X125141670Y-88091079D01*
X125160883Y-88105329D01*
X125178607Y-88121393D01*
X125194671Y-88139117D01*
X125208921Y-88158330D01*
X125221218Y-88178847D01*
X125231446Y-88200471D01*
X125239504Y-88222993D01*
X125245316Y-88246197D01*
X125248826Y-88269858D01*
X125250000Y-88293750D01*
X125250000Y-89206250D01*
X125248826Y-89230142D01*
X125245316Y-89253803D01*
X125239504Y-89277007D01*
X125231446Y-89299529D01*
X125221218Y-89321153D01*
X125208921Y-89341670D01*
X125194671Y-89360883D01*
X125178607Y-89378607D01*
X125160883Y-89394671D01*
X125141670Y-89408921D01*
X125121153Y-89421218D01*
X125099529Y-89431446D01*
X125077007Y-89439504D01*
X125053803Y-89445316D01*
X125030142Y-89448826D01*
X125006250Y-89450000D01*
X124518750Y-89450000D01*
X124494858Y-89448826D01*
X124471197Y-89445316D01*
X124447993Y-89439504D01*
X124425471Y-89431446D01*
X124403847Y-89421218D01*
X124383330Y-89408921D01*
X124364117Y-89394671D01*
X124346393Y-89378607D01*
X124330329Y-89360883D01*
X124316079Y-89341670D01*
X124303782Y-89321153D01*
X124293554Y-89299529D01*
X124285496Y-89277007D01*
X124279684Y-89253803D01*
X124276174Y-89230142D01*
X124275000Y-89206250D01*
X124275000Y-88293750D01*
X124276174Y-88269858D01*
X124279684Y-88246197D01*
X124285496Y-88222993D01*
X124293554Y-88200471D01*
X124303782Y-88178847D01*
X124316079Y-88158330D01*
X124330329Y-88139117D01*
X124346393Y-88121393D01*
X124364117Y-88105329D01*
X124383330Y-88091079D01*
X124403847Y-88078782D01*
X124425471Y-88068554D01*
X124447993Y-88060496D01*
X124471197Y-88054684D01*
X124494858Y-88051174D01*
X124518750Y-88050000D01*
X125006250Y-88050000D01*
X125030142Y-88051174D01*
X125030142Y-88051174D01*
G37*
D12*
X124762500Y-88750000D03*
G04 #@! TD*
D11*
G04 #@! TO.C,R4*
G36*
X125030142Y-98301174D02*
X125053803Y-98304684D01*
X125077007Y-98310496D01*
X125099529Y-98318554D01*
X125121153Y-98328782D01*
X125141670Y-98341079D01*
X125160883Y-98355329D01*
X125178607Y-98371393D01*
X125194671Y-98389117D01*
X125208921Y-98408330D01*
X125221218Y-98428847D01*
X125231446Y-98450471D01*
X125239504Y-98472993D01*
X125245316Y-98496197D01*
X125248826Y-98519858D01*
X125250000Y-98543750D01*
X125250000Y-99456250D01*
X125248826Y-99480142D01*
X125245316Y-99503803D01*
X125239504Y-99527007D01*
X125231446Y-99549529D01*
X125221218Y-99571153D01*
X125208921Y-99591670D01*
X125194671Y-99610883D01*
X125178607Y-99628607D01*
X125160883Y-99644671D01*
X125141670Y-99658921D01*
X125121153Y-99671218D01*
X125099529Y-99681446D01*
X125077007Y-99689504D01*
X125053803Y-99695316D01*
X125030142Y-99698826D01*
X125006250Y-99700000D01*
X124518750Y-99700000D01*
X124494858Y-99698826D01*
X124471197Y-99695316D01*
X124447993Y-99689504D01*
X124425471Y-99681446D01*
X124403847Y-99671218D01*
X124383330Y-99658921D01*
X124364117Y-99644671D01*
X124346393Y-99628607D01*
X124330329Y-99610883D01*
X124316079Y-99591670D01*
X124303782Y-99571153D01*
X124293554Y-99549529D01*
X124285496Y-99527007D01*
X124279684Y-99503803D01*
X124276174Y-99480142D01*
X124275000Y-99456250D01*
X124275000Y-98543750D01*
X124276174Y-98519858D01*
X124279684Y-98496197D01*
X124285496Y-98472993D01*
X124293554Y-98450471D01*
X124303782Y-98428847D01*
X124316079Y-98408330D01*
X124330329Y-98389117D01*
X124346393Y-98371393D01*
X124364117Y-98355329D01*
X124383330Y-98341079D01*
X124403847Y-98328782D01*
X124425471Y-98318554D01*
X124447993Y-98310496D01*
X124471197Y-98304684D01*
X124494858Y-98301174D01*
X124518750Y-98300000D01*
X125006250Y-98300000D01*
X125030142Y-98301174D01*
X125030142Y-98301174D01*
G37*
D12*
X124762500Y-99000000D03*
D11*
G36*
X126905142Y-98301174D02*
X126928803Y-98304684D01*
X126952007Y-98310496D01*
X126974529Y-98318554D01*
X126996153Y-98328782D01*
X127016670Y-98341079D01*
X127035883Y-98355329D01*
X127053607Y-98371393D01*
X127069671Y-98389117D01*
X127083921Y-98408330D01*
X127096218Y-98428847D01*
X127106446Y-98450471D01*
X127114504Y-98472993D01*
X127120316Y-98496197D01*
X127123826Y-98519858D01*
X127125000Y-98543750D01*
X127125000Y-99456250D01*
X127123826Y-99480142D01*
X127120316Y-99503803D01*
X127114504Y-99527007D01*
X127106446Y-99549529D01*
X127096218Y-99571153D01*
X127083921Y-99591670D01*
X127069671Y-99610883D01*
X127053607Y-99628607D01*
X127035883Y-99644671D01*
X127016670Y-99658921D01*
X126996153Y-99671218D01*
X126974529Y-99681446D01*
X126952007Y-99689504D01*
X126928803Y-99695316D01*
X126905142Y-99698826D01*
X126881250Y-99700000D01*
X126393750Y-99700000D01*
X126369858Y-99698826D01*
X126346197Y-99695316D01*
X126322993Y-99689504D01*
X126300471Y-99681446D01*
X126278847Y-99671218D01*
X126258330Y-99658921D01*
X126239117Y-99644671D01*
X126221393Y-99628607D01*
X126205329Y-99610883D01*
X126191079Y-99591670D01*
X126178782Y-99571153D01*
X126168554Y-99549529D01*
X126160496Y-99527007D01*
X126154684Y-99503803D01*
X126151174Y-99480142D01*
X126150000Y-99456250D01*
X126150000Y-98543750D01*
X126151174Y-98519858D01*
X126154684Y-98496197D01*
X126160496Y-98472993D01*
X126168554Y-98450471D01*
X126178782Y-98428847D01*
X126191079Y-98408330D01*
X126205329Y-98389117D01*
X126221393Y-98371393D01*
X126239117Y-98355329D01*
X126258330Y-98341079D01*
X126278847Y-98328782D01*
X126300471Y-98318554D01*
X126322993Y-98310496D01*
X126346197Y-98304684D01*
X126369858Y-98301174D01*
X126393750Y-98300000D01*
X126881250Y-98300000D01*
X126905142Y-98301174D01*
X126905142Y-98301174D01*
G37*
D12*
X126637500Y-99000000D03*
G04 #@! TD*
D11*
G04 #@! TO.C,R5*
G36*
X124462784Y-116262587D02*
X124486445Y-116266097D01*
X124509649Y-116271909D01*
X124532171Y-116279967D01*
X124553795Y-116290195D01*
X124574312Y-116302492D01*
X124593525Y-116316742D01*
X124611249Y-116332806D01*
X124627313Y-116350530D01*
X124641563Y-116369743D01*
X124653860Y-116390260D01*
X124664088Y-116411884D01*
X124672146Y-116434406D01*
X124677958Y-116457610D01*
X124681468Y-116481271D01*
X124682642Y-116505163D01*
X124682642Y-117417663D01*
X124681468Y-117441555D01*
X124677958Y-117465216D01*
X124672146Y-117488420D01*
X124664088Y-117510942D01*
X124653860Y-117532566D01*
X124641563Y-117553083D01*
X124627313Y-117572296D01*
X124611249Y-117590020D01*
X124593525Y-117606084D01*
X124574312Y-117620334D01*
X124553795Y-117632631D01*
X124532171Y-117642859D01*
X124509649Y-117650917D01*
X124486445Y-117656729D01*
X124462784Y-117660239D01*
X124438892Y-117661413D01*
X123951392Y-117661413D01*
X123927500Y-117660239D01*
X123903839Y-117656729D01*
X123880635Y-117650917D01*
X123858113Y-117642859D01*
X123836489Y-117632631D01*
X123815972Y-117620334D01*
X123796759Y-117606084D01*
X123779035Y-117590020D01*
X123762971Y-117572296D01*
X123748721Y-117553083D01*
X123736424Y-117532566D01*
X123726196Y-117510942D01*
X123718138Y-117488420D01*
X123712326Y-117465216D01*
X123708816Y-117441555D01*
X123707642Y-117417663D01*
X123707642Y-116505163D01*
X123708816Y-116481271D01*
X123712326Y-116457610D01*
X123718138Y-116434406D01*
X123726196Y-116411884D01*
X123736424Y-116390260D01*
X123748721Y-116369743D01*
X123762971Y-116350530D01*
X123779035Y-116332806D01*
X123796759Y-116316742D01*
X123815972Y-116302492D01*
X123836489Y-116290195D01*
X123858113Y-116279967D01*
X123880635Y-116271909D01*
X123903839Y-116266097D01*
X123927500Y-116262587D01*
X123951392Y-116261413D01*
X124438892Y-116261413D01*
X124462784Y-116262587D01*
X124462784Y-116262587D01*
G37*
D12*
X124195142Y-116961413D03*
D11*
G36*
X126337784Y-116262587D02*
X126361445Y-116266097D01*
X126384649Y-116271909D01*
X126407171Y-116279967D01*
X126428795Y-116290195D01*
X126449312Y-116302492D01*
X126468525Y-116316742D01*
X126486249Y-116332806D01*
X126502313Y-116350530D01*
X126516563Y-116369743D01*
X126528860Y-116390260D01*
X126539088Y-116411884D01*
X126547146Y-116434406D01*
X126552958Y-116457610D01*
X126556468Y-116481271D01*
X126557642Y-116505163D01*
X126557642Y-117417663D01*
X126556468Y-117441555D01*
X126552958Y-117465216D01*
X126547146Y-117488420D01*
X126539088Y-117510942D01*
X126528860Y-117532566D01*
X126516563Y-117553083D01*
X126502313Y-117572296D01*
X126486249Y-117590020D01*
X126468525Y-117606084D01*
X126449312Y-117620334D01*
X126428795Y-117632631D01*
X126407171Y-117642859D01*
X126384649Y-117650917D01*
X126361445Y-117656729D01*
X126337784Y-117660239D01*
X126313892Y-117661413D01*
X125826392Y-117661413D01*
X125802500Y-117660239D01*
X125778839Y-117656729D01*
X125755635Y-117650917D01*
X125733113Y-117642859D01*
X125711489Y-117632631D01*
X125690972Y-117620334D01*
X125671759Y-117606084D01*
X125654035Y-117590020D01*
X125637971Y-117572296D01*
X125623721Y-117553083D01*
X125611424Y-117532566D01*
X125601196Y-117510942D01*
X125593138Y-117488420D01*
X125587326Y-117465216D01*
X125583816Y-117441555D01*
X125582642Y-117417663D01*
X125582642Y-116505163D01*
X125583816Y-116481271D01*
X125587326Y-116457610D01*
X125593138Y-116434406D01*
X125601196Y-116411884D01*
X125611424Y-116390260D01*
X125623721Y-116369743D01*
X125637971Y-116350530D01*
X125654035Y-116332806D01*
X125671759Y-116316742D01*
X125690972Y-116302492D01*
X125711489Y-116290195D01*
X125733113Y-116279967D01*
X125755635Y-116271909D01*
X125778839Y-116266097D01*
X125802500Y-116262587D01*
X125826392Y-116261413D01*
X126313892Y-116261413D01*
X126337784Y-116262587D01*
X126337784Y-116262587D01*
G37*
D12*
X126070142Y-116961413D03*
G04 #@! TD*
D11*
G04 #@! TO.C,R6*
G36*
X121980142Y-93201174D02*
X122003803Y-93204684D01*
X122027007Y-93210496D01*
X122049529Y-93218554D01*
X122071153Y-93228782D01*
X122091670Y-93241079D01*
X122110883Y-93255329D01*
X122128607Y-93271393D01*
X122144671Y-93289117D01*
X122158921Y-93308330D01*
X122171218Y-93328847D01*
X122181446Y-93350471D01*
X122189504Y-93372993D01*
X122195316Y-93396197D01*
X122198826Y-93419858D01*
X122200000Y-93443750D01*
X122200000Y-93931250D01*
X122198826Y-93955142D01*
X122195316Y-93978803D01*
X122189504Y-94002007D01*
X122181446Y-94024529D01*
X122171218Y-94046153D01*
X122158921Y-94066670D01*
X122144671Y-94085883D01*
X122128607Y-94103607D01*
X122110883Y-94119671D01*
X122091670Y-94133921D01*
X122071153Y-94146218D01*
X122049529Y-94156446D01*
X122027007Y-94164504D01*
X122003803Y-94170316D01*
X121980142Y-94173826D01*
X121956250Y-94175000D01*
X121043750Y-94175000D01*
X121019858Y-94173826D01*
X120996197Y-94170316D01*
X120972993Y-94164504D01*
X120950471Y-94156446D01*
X120928847Y-94146218D01*
X120908330Y-94133921D01*
X120889117Y-94119671D01*
X120871393Y-94103607D01*
X120855329Y-94085883D01*
X120841079Y-94066670D01*
X120828782Y-94046153D01*
X120818554Y-94024529D01*
X120810496Y-94002007D01*
X120804684Y-93978803D01*
X120801174Y-93955142D01*
X120800000Y-93931250D01*
X120800000Y-93443750D01*
X120801174Y-93419858D01*
X120804684Y-93396197D01*
X120810496Y-93372993D01*
X120818554Y-93350471D01*
X120828782Y-93328847D01*
X120841079Y-93308330D01*
X120855329Y-93289117D01*
X120871393Y-93271393D01*
X120889117Y-93255329D01*
X120908330Y-93241079D01*
X120928847Y-93228782D01*
X120950471Y-93218554D01*
X120972993Y-93210496D01*
X120996197Y-93204684D01*
X121019858Y-93201174D01*
X121043750Y-93200000D01*
X121956250Y-93200000D01*
X121980142Y-93201174D01*
X121980142Y-93201174D01*
G37*
D12*
X121500000Y-93687500D03*
D11*
G36*
X121980142Y-91326174D02*
X122003803Y-91329684D01*
X122027007Y-91335496D01*
X122049529Y-91343554D01*
X122071153Y-91353782D01*
X122091670Y-91366079D01*
X122110883Y-91380329D01*
X122128607Y-91396393D01*
X122144671Y-91414117D01*
X122158921Y-91433330D01*
X122171218Y-91453847D01*
X122181446Y-91475471D01*
X122189504Y-91497993D01*
X122195316Y-91521197D01*
X122198826Y-91544858D01*
X122200000Y-91568750D01*
X122200000Y-92056250D01*
X122198826Y-92080142D01*
X122195316Y-92103803D01*
X122189504Y-92127007D01*
X122181446Y-92149529D01*
X122171218Y-92171153D01*
X122158921Y-92191670D01*
X122144671Y-92210883D01*
X122128607Y-92228607D01*
X122110883Y-92244671D01*
X122091670Y-92258921D01*
X122071153Y-92271218D01*
X122049529Y-92281446D01*
X122027007Y-92289504D01*
X122003803Y-92295316D01*
X121980142Y-92298826D01*
X121956250Y-92300000D01*
X121043750Y-92300000D01*
X121019858Y-92298826D01*
X120996197Y-92295316D01*
X120972993Y-92289504D01*
X120950471Y-92281446D01*
X120928847Y-92271218D01*
X120908330Y-92258921D01*
X120889117Y-92244671D01*
X120871393Y-92228607D01*
X120855329Y-92210883D01*
X120841079Y-92191670D01*
X120828782Y-92171153D01*
X120818554Y-92149529D01*
X120810496Y-92127007D01*
X120804684Y-92103803D01*
X120801174Y-92080142D01*
X120800000Y-92056250D01*
X120800000Y-91568750D01*
X120801174Y-91544858D01*
X120804684Y-91521197D01*
X120810496Y-91497993D01*
X120818554Y-91475471D01*
X120828782Y-91453847D01*
X120841079Y-91433330D01*
X120855329Y-91414117D01*
X120871393Y-91396393D01*
X120889117Y-91380329D01*
X120908330Y-91366079D01*
X120928847Y-91353782D01*
X120950471Y-91343554D01*
X120972993Y-91335496D01*
X120996197Y-91329684D01*
X121019858Y-91326174D01*
X121043750Y-91325000D01*
X121956250Y-91325000D01*
X121980142Y-91326174D01*
X121980142Y-91326174D01*
G37*
D12*
X121500000Y-91812500D03*
G04 #@! TD*
D11*
G04 #@! TO.C,R9*
G36*
X121132784Y-112672587D02*
X121156445Y-112676097D01*
X121179649Y-112681909D01*
X121202171Y-112689967D01*
X121223795Y-112700195D01*
X121244312Y-112712492D01*
X121263525Y-112726742D01*
X121281249Y-112742806D01*
X121297313Y-112760530D01*
X121311563Y-112779743D01*
X121323860Y-112800260D01*
X121334088Y-112821884D01*
X121342146Y-112844406D01*
X121347958Y-112867610D01*
X121351468Y-112891271D01*
X121352642Y-112915163D01*
X121352642Y-113827663D01*
X121351468Y-113851555D01*
X121347958Y-113875216D01*
X121342146Y-113898420D01*
X121334088Y-113920942D01*
X121323860Y-113942566D01*
X121311563Y-113963083D01*
X121297313Y-113982296D01*
X121281249Y-114000020D01*
X121263525Y-114016084D01*
X121244312Y-114030334D01*
X121223795Y-114042631D01*
X121202171Y-114052859D01*
X121179649Y-114060917D01*
X121156445Y-114066729D01*
X121132784Y-114070239D01*
X121108892Y-114071413D01*
X120621392Y-114071413D01*
X120597500Y-114070239D01*
X120573839Y-114066729D01*
X120550635Y-114060917D01*
X120528113Y-114052859D01*
X120506489Y-114042631D01*
X120485972Y-114030334D01*
X120466759Y-114016084D01*
X120449035Y-114000020D01*
X120432971Y-113982296D01*
X120418721Y-113963083D01*
X120406424Y-113942566D01*
X120396196Y-113920942D01*
X120388138Y-113898420D01*
X120382326Y-113875216D01*
X120378816Y-113851555D01*
X120377642Y-113827663D01*
X120377642Y-112915163D01*
X120378816Y-112891271D01*
X120382326Y-112867610D01*
X120388138Y-112844406D01*
X120396196Y-112821884D01*
X120406424Y-112800260D01*
X120418721Y-112779743D01*
X120432971Y-112760530D01*
X120449035Y-112742806D01*
X120466759Y-112726742D01*
X120485972Y-112712492D01*
X120506489Y-112700195D01*
X120528113Y-112689967D01*
X120550635Y-112681909D01*
X120573839Y-112676097D01*
X120597500Y-112672587D01*
X120621392Y-112671413D01*
X121108892Y-112671413D01*
X121132784Y-112672587D01*
X121132784Y-112672587D01*
G37*
D12*
X120865142Y-113371413D03*
D11*
G36*
X123007784Y-112672587D02*
X123031445Y-112676097D01*
X123054649Y-112681909D01*
X123077171Y-112689967D01*
X123098795Y-112700195D01*
X123119312Y-112712492D01*
X123138525Y-112726742D01*
X123156249Y-112742806D01*
X123172313Y-112760530D01*
X123186563Y-112779743D01*
X123198860Y-112800260D01*
X123209088Y-112821884D01*
X123217146Y-112844406D01*
X123222958Y-112867610D01*
X123226468Y-112891271D01*
X123227642Y-112915163D01*
X123227642Y-113827663D01*
X123226468Y-113851555D01*
X123222958Y-113875216D01*
X123217146Y-113898420D01*
X123209088Y-113920942D01*
X123198860Y-113942566D01*
X123186563Y-113963083D01*
X123172313Y-113982296D01*
X123156249Y-114000020D01*
X123138525Y-114016084D01*
X123119312Y-114030334D01*
X123098795Y-114042631D01*
X123077171Y-114052859D01*
X123054649Y-114060917D01*
X123031445Y-114066729D01*
X123007784Y-114070239D01*
X122983892Y-114071413D01*
X122496392Y-114071413D01*
X122472500Y-114070239D01*
X122448839Y-114066729D01*
X122425635Y-114060917D01*
X122403113Y-114052859D01*
X122381489Y-114042631D01*
X122360972Y-114030334D01*
X122341759Y-114016084D01*
X122324035Y-114000020D01*
X122307971Y-113982296D01*
X122293721Y-113963083D01*
X122281424Y-113942566D01*
X122271196Y-113920942D01*
X122263138Y-113898420D01*
X122257326Y-113875216D01*
X122253816Y-113851555D01*
X122252642Y-113827663D01*
X122252642Y-112915163D01*
X122253816Y-112891271D01*
X122257326Y-112867610D01*
X122263138Y-112844406D01*
X122271196Y-112821884D01*
X122281424Y-112800260D01*
X122293721Y-112779743D01*
X122307971Y-112760530D01*
X122324035Y-112742806D01*
X122341759Y-112726742D01*
X122360972Y-112712492D01*
X122381489Y-112700195D01*
X122403113Y-112689967D01*
X122425635Y-112681909D01*
X122448839Y-112676097D01*
X122472500Y-112672587D01*
X122496392Y-112671413D01*
X122983892Y-112671413D01*
X123007784Y-112672587D01*
X123007784Y-112672587D01*
G37*
D12*
X122740142Y-113371413D03*
G04 #@! TD*
D11*
G04 #@! TO.C,R10*
G36*
X126317784Y-110852587D02*
X126341445Y-110856097D01*
X126364649Y-110861909D01*
X126387171Y-110869967D01*
X126408795Y-110880195D01*
X126429312Y-110892492D01*
X126448525Y-110906742D01*
X126466249Y-110922806D01*
X126482313Y-110940530D01*
X126496563Y-110959743D01*
X126508860Y-110980260D01*
X126519088Y-111001884D01*
X126527146Y-111024406D01*
X126532958Y-111047610D01*
X126536468Y-111071271D01*
X126537642Y-111095163D01*
X126537642Y-112007663D01*
X126536468Y-112031555D01*
X126532958Y-112055216D01*
X126527146Y-112078420D01*
X126519088Y-112100942D01*
X126508860Y-112122566D01*
X126496563Y-112143083D01*
X126482313Y-112162296D01*
X126466249Y-112180020D01*
X126448525Y-112196084D01*
X126429312Y-112210334D01*
X126408795Y-112222631D01*
X126387171Y-112232859D01*
X126364649Y-112240917D01*
X126341445Y-112246729D01*
X126317784Y-112250239D01*
X126293892Y-112251413D01*
X125806392Y-112251413D01*
X125782500Y-112250239D01*
X125758839Y-112246729D01*
X125735635Y-112240917D01*
X125713113Y-112232859D01*
X125691489Y-112222631D01*
X125670972Y-112210334D01*
X125651759Y-112196084D01*
X125634035Y-112180020D01*
X125617971Y-112162296D01*
X125603721Y-112143083D01*
X125591424Y-112122566D01*
X125581196Y-112100942D01*
X125573138Y-112078420D01*
X125567326Y-112055216D01*
X125563816Y-112031555D01*
X125562642Y-112007663D01*
X125562642Y-111095163D01*
X125563816Y-111071271D01*
X125567326Y-111047610D01*
X125573138Y-111024406D01*
X125581196Y-111001884D01*
X125591424Y-110980260D01*
X125603721Y-110959743D01*
X125617971Y-110940530D01*
X125634035Y-110922806D01*
X125651759Y-110906742D01*
X125670972Y-110892492D01*
X125691489Y-110880195D01*
X125713113Y-110869967D01*
X125735635Y-110861909D01*
X125758839Y-110856097D01*
X125782500Y-110852587D01*
X125806392Y-110851413D01*
X126293892Y-110851413D01*
X126317784Y-110852587D01*
X126317784Y-110852587D01*
G37*
D12*
X126050142Y-111551413D03*
D11*
G36*
X124442784Y-110852587D02*
X124466445Y-110856097D01*
X124489649Y-110861909D01*
X124512171Y-110869967D01*
X124533795Y-110880195D01*
X124554312Y-110892492D01*
X124573525Y-110906742D01*
X124591249Y-110922806D01*
X124607313Y-110940530D01*
X124621563Y-110959743D01*
X124633860Y-110980260D01*
X124644088Y-111001884D01*
X124652146Y-111024406D01*
X124657958Y-111047610D01*
X124661468Y-111071271D01*
X124662642Y-111095163D01*
X124662642Y-112007663D01*
X124661468Y-112031555D01*
X124657958Y-112055216D01*
X124652146Y-112078420D01*
X124644088Y-112100942D01*
X124633860Y-112122566D01*
X124621563Y-112143083D01*
X124607313Y-112162296D01*
X124591249Y-112180020D01*
X124573525Y-112196084D01*
X124554312Y-112210334D01*
X124533795Y-112222631D01*
X124512171Y-112232859D01*
X124489649Y-112240917D01*
X124466445Y-112246729D01*
X124442784Y-112250239D01*
X124418892Y-112251413D01*
X123931392Y-112251413D01*
X123907500Y-112250239D01*
X123883839Y-112246729D01*
X123860635Y-112240917D01*
X123838113Y-112232859D01*
X123816489Y-112222631D01*
X123795972Y-112210334D01*
X123776759Y-112196084D01*
X123759035Y-112180020D01*
X123742971Y-112162296D01*
X123728721Y-112143083D01*
X123716424Y-112122566D01*
X123706196Y-112100942D01*
X123698138Y-112078420D01*
X123692326Y-112055216D01*
X123688816Y-112031555D01*
X123687642Y-112007663D01*
X123687642Y-111095163D01*
X123688816Y-111071271D01*
X123692326Y-111047610D01*
X123698138Y-111024406D01*
X123706196Y-111001884D01*
X123716424Y-110980260D01*
X123728721Y-110959743D01*
X123742971Y-110940530D01*
X123759035Y-110922806D01*
X123776759Y-110906742D01*
X123795972Y-110892492D01*
X123816489Y-110880195D01*
X123838113Y-110869967D01*
X123860635Y-110861909D01*
X123883839Y-110856097D01*
X123907500Y-110852587D01*
X123931392Y-110851413D01*
X124418892Y-110851413D01*
X124442784Y-110852587D01*
X124442784Y-110852587D01*
G37*
D12*
X124175142Y-111551413D03*
G04 #@! TD*
D11*
G04 #@! TO.C,R13*
G36*
X124452784Y-114452587D02*
X124476445Y-114456097D01*
X124499649Y-114461909D01*
X124522171Y-114469967D01*
X124543795Y-114480195D01*
X124564312Y-114492492D01*
X124583525Y-114506742D01*
X124601249Y-114522806D01*
X124617313Y-114540530D01*
X124631563Y-114559743D01*
X124643860Y-114580260D01*
X124654088Y-114601884D01*
X124662146Y-114624406D01*
X124667958Y-114647610D01*
X124671468Y-114671271D01*
X124672642Y-114695163D01*
X124672642Y-115607663D01*
X124671468Y-115631555D01*
X124667958Y-115655216D01*
X124662146Y-115678420D01*
X124654088Y-115700942D01*
X124643860Y-115722566D01*
X124631563Y-115743083D01*
X124617313Y-115762296D01*
X124601249Y-115780020D01*
X124583525Y-115796084D01*
X124564312Y-115810334D01*
X124543795Y-115822631D01*
X124522171Y-115832859D01*
X124499649Y-115840917D01*
X124476445Y-115846729D01*
X124452784Y-115850239D01*
X124428892Y-115851413D01*
X123941392Y-115851413D01*
X123917500Y-115850239D01*
X123893839Y-115846729D01*
X123870635Y-115840917D01*
X123848113Y-115832859D01*
X123826489Y-115822631D01*
X123805972Y-115810334D01*
X123786759Y-115796084D01*
X123769035Y-115780020D01*
X123752971Y-115762296D01*
X123738721Y-115743083D01*
X123726424Y-115722566D01*
X123716196Y-115700942D01*
X123708138Y-115678420D01*
X123702326Y-115655216D01*
X123698816Y-115631555D01*
X123697642Y-115607663D01*
X123697642Y-114695163D01*
X123698816Y-114671271D01*
X123702326Y-114647610D01*
X123708138Y-114624406D01*
X123716196Y-114601884D01*
X123726424Y-114580260D01*
X123738721Y-114559743D01*
X123752971Y-114540530D01*
X123769035Y-114522806D01*
X123786759Y-114506742D01*
X123805972Y-114492492D01*
X123826489Y-114480195D01*
X123848113Y-114469967D01*
X123870635Y-114461909D01*
X123893839Y-114456097D01*
X123917500Y-114452587D01*
X123941392Y-114451413D01*
X124428892Y-114451413D01*
X124452784Y-114452587D01*
X124452784Y-114452587D01*
G37*
D12*
X124185142Y-115151413D03*
D11*
G36*
X126327784Y-114452587D02*
X126351445Y-114456097D01*
X126374649Y-114461909D01*
X126397171Y-114469967D01*
X126418795Y-114480195D01*
X126439312Y-114492492D01*
X126458525Y-114506742D01*
X126476249Y-114522806D01*
X126492313Y-114540530D01*
X126506563Y-114559743D01*
X126518860Y-114580260D01*
X126529088Y-114601884D01*
X126537146Y-114624406D01*
X126542958Y-114647610D01*
X126546468Y-114671271D01*
X126547642Y-114695163D01*
X126547642Y-115607663D01*
X126546468Y-115631555D01*
X126542958Y-115655216D01*
X126537146Y-115678420D01*
X126529088Y-115700942D01*
X126518860Y-115722566D01*
X126506563Y-115743083D01*
X126492313Y-115762296D01*
X126476249Y-115780020D01*
X126458525Y-115796084D01*
X126439312Y-115810334D01*
X126418795Y-115822631D01*
X126397171Y-115832859D01*
X126374649Y-115840917D01*
X126351445Y-115846729D01*
X126327784Y-115850239D01*
X126303892Y-115851413D01*
X125816392Y-115851413D01*
X125792500Y-115850239D01*
X125768839Y-115846729D01*
X125745635Y-115840917D01*
X125723113Y-115832859D01*
X125701489Y-115822631D01*
X125680972Y-115810334D01*
X125661759Y-115796084D01*
X125644035Y-115780020D01*
X125627971Y-115762296D01*
X125613721Y-115743083D01*
X125601424Y-115722566D01*
X125591196Y-115700942D01*
X125583138Y-115678420D01*
X125577326Y-115655216D01*
X125573816Y-115631555D01*
X125572642Y-115607663D01*
X125572642Y-114695163D01*
X125573816Y-114671271D01*
X125577326Y-114647610D01*
X125583138Y-114624406D01*
X125591196Y-114601884D01*
X125601424Y-114580260D01*
X125613721Y-114559743D01*
X125627971Y-114540530D01*
X125644035Y-114522806D01*
X125661759Y-114506742D01*
X125680972Y-114492492D01*
X125701489Y-114480195D01*
X125723113Y-114469967D01*
X125745635Y-114461909D01*
X125768839Y-114456097D01*
X125792500Y-114452587D01*
X125816392Y-114451413D01*
X126303892Y-114451413D01*
X126327784Y-114452587D01*
X126327784Y-114452587D01*
G37*
D12*
X126060142Y-115151413D03*
G04 #@! TD*
D11*
G04 #@! TO.C,R16*
G36*
X137342784Y-113667587D02*
X137366445Y-113671097D01*
X137389649Y-113676909D01*
X137412171Y-113684967D01*
X137433795Y-113695195D01*
X137454312Y-113707492D01*
X137473525Y-113721742D01*
X137491249Y-113737806D01*
X137507313Y-113755530D01*
X137521563Y-113774743D01*
X137533860Y-113795260D01*
X137544088Y-113816884D01*
X137552146Y-113839406D01*
X137557958Y-113862610D01*
X137561468Y-113886271D01*
X137562642Y-113910163D01*
X137562642Y-114397663D01*
X137561468Y-114421555D01*
X137557958Y-114445216D01*
X137552146Y-114468420D01*
X137544088Y-114490942D01*
X137533860Y-114512566D01*
X137521563Y-114533083D01*
X137507313Y-114552296D01*
X137491249Y-114570020D01*
X137473525Y-114586084D01*
X137454312Y-114600334D01*
X137433795Y-114612631D01*
X137412171Y-114622859D01*
X137389649Y-114630917D01*
X137366445Y-114636729D01*
X137342784Y-114640239D01*
X137318892Y-114641413D01*
X136406392Y-114641413D01*
X136382500Y-114640239D01*
X136358839Y-114636729D01*
X136335635Y-114630917D01*
X136313113Y-114622859D01*
X136291489Y-114612631D01*
X136270972Y-114600334D01*
X136251759Y-114586084D01*
X136234035Y-114570020D01*
X136217971Y-114552296D01*
X136203721Y-114533083D01*
X136191424Y-114512566D01*
X136181196Y-114490942D01*
X136173138Y-114468420D01*
X136167326Y-114445216D01*
X136163816Y-114421555D01*
X136162642Y-114397663D01*
X136162642Y-113910163D01*
X136163816Y-113886271D01*
X136167326Y-113862610D01*
X136173138Y-113839406D01*
X136181196Y-113816884D01*
X136191424Y-113795260D01*
X136203721Y-113774743D01*
X136217971Y-113755530D01*
X136234035Y-113737806D01*
X136251759Y-113721742D01*
X136270972Y-113707492D01*
X136291489Y-113695195D01*
X136313113Y-113684967D01*
X136335635Y-113676909D01*
X136358839Y-113671097D01*
X136382500Y-113667587D01*
X136406392Y-113666413D01*
X137318892Y-113666413D01*
X137342784Y-113667587D01*
X137342784Y-113667587D01*
G37*
D12*
X136862642Y-114153913D03*
D11*
G36*
X137342784Y-115542587D02*
X137366445Y-115546097D01*
X137389649Y-115551909D01*
X137412171Y-115559967D01*
X137433795Y-115570195D01*
X137454312Y-115582492D01*
X137473525Y-115596742D01*
X137491249Y-115612806D01*
X137507313Y-115630530D01*
X137521563Y-115649743D01*
X137533860Y-115670260D01*
X137544088Y-115691884D01*
X137552146Y-115714406D01*
X137557958Y-115737610D01*
X137561468Y-115761271D01*
X137562642Y-115785163D01*
X137562642Y-116272663D01*
X137561468Y-116296555D01*
X137557958Y-116320216D01*
X137552146Y-116343420D01*
X137544088Y-116365942D01*
X137533860Y-116387566D01*
X137521563Y-116408083D01*
X137507313Y-116427296D01*
X137491249Y-116445020D01*
X137473525Y-116461084D01*
X137454312Y-116475334D01*
X137433795Y-116487631D01*
X137412171Y-116497859D01*
X137389649Y-116505917D01*
X137366445Y-116511729D01*
X137342784Y-116515239D01*
X137318892Y-116516413D01*
X136406392Y-116516413D01*
X136382500Y-116515239D01*
X136358839Y-116511729D01*
X136335635Y-116505917D01*
X136313113Y-116497859D01*
X136291489Y-116487631D01*
X136270972Y-116475334D01*
X136251759Y-116461084D01*
X136234035Y-116445020D01*
X136217971Y-116427296D01*
X136203721Y-116408083D01*
X136191424Y-116387566D01*
X136181196Y-116365942D01*
X136173138Y-116343420D01*
X136167326Y-116320216D01*
X136163816Y-116296555D01*
X136162642Y-116272663D01*
X136162642Y-115785163D01*
X136163816Y-115761271D01*
X136167326Y-115737610D01*
X136173138Y-115714406D01*
X136181196Y-115691884D01*
X136191424Y-115670260D01*
X136203721Y-115649743D01*
X136217971Y-115630530D01*
X136234035Y-115612806D01*
X136251759Y-115596742D01*
X136270972Y-115582492D01*
X136291489Y-115570195D01*
X136313113Y-115559967D01*
X136335635Y-115551909D01*
X136358839Y-115546097D01*
X136382500Y-115542587D01*
X136406392Y-115541413D01*
X137318892Y-115541413D01*
X137342784Y-115542587D01*
X137342784Y-115542587D01*
G37*
D12*
X136862642Y-116028913D03*
G04 #@! TD*
D11*
G04 #@! TO.C,R17*
G36*
X139320142Y-96206174D02*
X139343803Y-96209684D01*
X139367007Y-96215496D01*
X139389529Y-96223554D01*
X139411153Y-96233782D01*
X139431670Y-96246079D01*
X139450883Y-96260329D01*
X139468607Y-96276393D01*
X139484671Y-96294117D01*
X139498921Y-96313330D01*
X139511218Y-96333847D01*
X139521446Y-96355471D01*
X139529504Y-96377993D01*
X139535316Y-96401197D01*
X139538826Y-96424858D01*
X139540000Y-96448750D01*
X139540000Y-96936250D01*
X139538826Y-96960142D01*
X139535316Y-96983803D01*
X139529504Y-97007007D01*
X139521446Y-97029529D01*
X139511218Y-97051153D01*
X139498921Y-97071670D01*
X139484671Y-97090883D01*
X139468607Y-97108607D01*
X139450883Y-97124671D01*
X139431670Y-97138921D01*
X139411153Y-97151218D01*
X139389529Y-97161446D01*
X139367007Y-97169504D01*
X139343803Y-97175316D01*
X139320142Y-97178826D01*
X139296250Y-97180000D01*
X138383750Y-97180000D01*
X138359858Y-97178826D01*
X138336197Y-97175316D01*
X138312993Y-97169504D01*
X138290471Y-97161446D01*
X138268847Y-97151218D01*
X138248330Y-97138921D01*
X138229117Y-97124671D01*
X138211393Y-97108607D01*
X138195329Y-97090883D01*
X138181079Y-97071670D01*
X138168782Y-97051153D01*
X138158554Y-97029529D01*
X138150496Y-97007007D01*
X138144684Y-96983803D01*
X138141174Y-96960142D01*
X138140000Y-96936250D01*
X138140000Y-96448750D01*
X138141174Y-96424858D01*
X138144684Y-96401197D01*
X138150496Y-96377993D01*
X138158554Y-96355471D01*
X138168782Y-96333847D01*
X138181079Y-96313330D01*
X138195329Y-96294117D01*
X138211393Y-96276393D01*
X138229117Y-96260329D01*
X138248330Y-96246079D01*
X138268847Y-96233782D01*
X138290471Y-96223554D01*
X138312993Y-96215496D01*
X138336197Y-96209684D01*
X138359858Y-96206174D01*
X138383750Y-96205000D01*
X139296250Y-96205000D01*
X139320142Y-96206174D01*
X139320142Y-96206174D01*
G37*
D12*
X138840000Y-96692500D03*
D11*
G36*
X139320142Y-98081174D02*
X139343803Y-98084684D01*
X139367007Y-98090496D01*
X139389529Y-98098554D01*
X139411153Y-98108782D01*
X139431670Y-98121079D01*
X139450883Y-98135329D01*
X139468607Y-98151393D01*
X139484671Y-98169117D01*
X139498921Y-98188330D01*
X139511218Y-98208847D01*
X139521446Y-98230471D01*
X139529504Y-98252993D01*
X139535316Y-98276197D01*
X139538826Y-98299858D01*
X139540000Y-98323750D01*
X139540000Y-98811250D01*
X139538826Y-98835142D01*
X139535316Y-98858803D01*
X139529504Y-98882007D01*
X139521446Y-98904529D01*
X139511218Y-98926153D01*
X139498921Y-98946670D01*
X139484671Y-98965883D01*
X139468607Y-98983607D01*
X139450883Y-98999671D01*
X139431670Y-99013921D01*
X139411153Y-99026218D01*
X139389529Y-99036446D01*
X139367007Y-99044504D01*
X139343803Y-99050316D01*
X139320142Y-99053826D01*
X139296250Y-99055000D01*
X138383750Y-99055000D01*
X138359858Y-99053826D01*
X138336197Y-99050316D01*
X138312993Y-99044504D01*
X138290471Y-99036446D01*
X138268847Y-99026218D01*
X138248330Y-99013921D01*
X138229117Y-98999671D01*
X138211393Y-98983607D01*
X138195329Y-98965883D01*
X138181079Y-98946670D01*
X138168782Y-98926153D01*
X138158554Y-98904529D01*
X138150496Y-98882007D01*
X138144684Y-98858803D01*
X138141174Y-98835142D01*
X138140000Y-98811250D01*
X138140000Y-98323750D01*
X138141174Y-98299858D01*
X138144684Y-98276197D01*
X138150496Y-98252993D01*
X138158554Y-98230471D01*
X138168782Y-98208847D01*
X138181079Y-98188330D01*
X138195329Y-98169117D01*
X138211393Y-98151393D01*
X138229117Y-98135329D01*
X138248330Y-98121079D01*
X138268847Y-98108782D01*
X138290471Y-98098554D01*
X138312993Y-98090496D01*
X138336197Y-98084684D01*
X138359858Y-98081174D01*
X138383750Y-98080000D01*
X139296250Y-98080000D01*
X139320142Y-98081174D01*
X139320142Y-98081174D01*
G37*
D12*
X138840000Y-98567500D03*
G04 #@! TD*
D11*
G04 #@! TO.C,R18*
G36*
X124442784Y-109052587D02*
X124466445Y-109056097D01*
X124489649Y-109061909D01*
X124512171Y-109069967D01*
X124533795Y-109080195D01*
X124554312Y-109092492D01*
X124573525Y-109106742D01*
X124591249Y-109122806D01*
X124607313Y-109140530D01*
X124621563Y-109159743D01*
X124633860Y-109180260D01*
X124644088Y-109201884D01*
X124652146Y-109224406D01*
X124657958Y-109247610D01*
X124661468Y-109271271D01*
X124662642Y-109295163D01*
X124662642Y-110207663D01*
X124661468Y-110231555D01*
X124657958Y-110255216D01*
X124652146Y-110278420D01*
X124644088Y-110300942D01*
X124633860Y-110322566D01*
X124621563Y-110343083D01*
X124607313Y-110362296D01*
X124591249Y-110380020D01*
X124573525Y-110396084D01*
X124554312Y-110410334D01*
X124533795Y-110422631D01*
X124512171Y-110432859D01*
X124489649Y-110440917D01*
X124466445Y-110446729D01*
X124442784Y-110450239D01*
X124418892Y-110451413D01*
X123931392Y-110451413D01*
X123907500Y-110450239D01*
X123883839Y-110446729D01*
X123860635Y-110440917D01*
X123838113Y-110432859D01*
X123816489Y-110422631D01*
X123795972Y-110410334D01*
X123776759Y-110396084D01*
X123759035Y-110380020D01*
X123742971Y-110362296D01*
X123728721Y-110343083D01*
X123716424Y-110322566D01*
X123706196Y-110300942D01*
X123698138Y-110278420D01*
X123692326Y-110255216D01*
X123688816Y-110231555D01*
X123687642Y-110207663D01*
X123687642Y-109295163D01*
X123688816Y-109271271D01*
X123692326Y-109247610D01*
X123698138Y-109224406D01*
X123706196Y-109201884D01*
X123716424Y-109180260D01*
X123728721Y-109159743D01*
X123742971Y-109140530D01*
X123759035Y-109122806D01*
X123776759Y-109106742D01*
X123795972Y-109092492D01*
X123816489Y-109080195D01*
X123838113Y-109069967D01*
X123860635Y-109061909D01*
X123883839Y-109056097D01*
X123907500Y-109052587D01*
X123931392Y-109051413D01*
X124418892Y-109051413D01*
X124442784Y-109052587D01*
X124442784Y-109052587D01*
G37*
D12*
X124175142Y-109751413D03*
D11*
G36*
X126317784Y-109052587D02*
X126341445Y-109056097D01*
X126364649Y-109061909D01*
X126387171Y-109069967D01*
X126408795Y-109080195D01*
X126429312Y-109092492D01*
X126448525Y-109106742D01*
X126466249Y-109122806D01*
X126482313Y-109140530D01*
X126496563Y-109159743D01*
X126508860Y-109180260D01*
X126519088Y-109201884D01*
X126527146Y-109224406D01*
X126532958Y-109247610D01*
X126536468Y-109271271D01*
X126537642Y-109295163D01*
X126537642Y-110207663D01*
X126536468Y-110231555D01*
X126532958Y-110255216D01*
X126527146Y-110278420D01*
X126519088Y-110300942D01*
X126508860Y-110322566D01*
X126496563Y-110343083D01*
X126482313Y-110362296D01*
X126466249Y-110380020D01*
X126448525Y-110396084D01*
X126429312Y-110410334D01*
X126408795Y-110422631D01*
X126387171Y-110432859D01*
X126364649Y-110440917D01*
X126341445Y-110446729D01*
X126317784Y-110450239D01*
X126293892Y-110451413D01*
X125806392Y-110451413D01*
X125782500Y-110450239D01*
X125758839Y-110446729D01*
X125735635Y-110440917D01*
X125713113Y-110432859D01*
X125691489Y-110422631D01*
X125670972Y-110410334D01*
X125651759Y-110396084D01*
X125634035Y-110380020D01*
X125617971Y-110362296D01*
X125603721Y-110343083D01*
X125591424Y-110322566D01*
X125581196Y-110300942D01*
X125573138Y-110278420D01*
X125567326Y-110255216D01*
X125563816Y-110231555D01*
X125562642Y-110207663D01*
X125562642Y-109295163D01*
X125563816Y-109271271D01*
X125567326Y-109247610D01*
X125573138Y-109224406D01*
X125581196Y-109201884D01*
X125591424Y-109180260D01*
X125603721Y-109159743D01*
X125617971Y-109140530D01*
X125634035Y-109122806D01*
X125651759Y-109106742D01*
X125670972Y-109092492D01*
X125691489Y-109080195D01*
X125713113Y-109069967D01*
X125735635Y-109061909D01*
X125758839Y-109056097D01*
X125782500Y-109052587D01*
X125806392Y-109051413D01*
X126293892Y-109051413D01*
X126317784Y-109052587D01*
X126317784Y-109052587D01*
G37*
D12*
X126050142Y-109751413D03*
G04 #@! TD*
D11*
G04 #@! TO.C,R19*
G36*
X133600142Y-98001174D02*
X133623803Y-98004684D01*
X133647007Y-98010496D01*
X133669529Y-98018554D01*
X133691153Y-98028782D01*
X133711670Y-98041079D01*
X133730883Y-98055329D01*
X133748607Y-98071393D01*
X133764671Y-98089117D01*
X133778921Y-98108330D01*
X133791218Y-98128847D01*
X133801446Y-98150471D01*
X133809504Y-98172993D01*
X133815316Y-98196197D01*
X133818826Y-98219858D01*
X133820000Y-98243750D01*
X133820000Y-98731250D01*
X133818826Y-98755142D01*
X133815316Y-98778803D01*
X133809504Y-98802007D01*
X133801446Y-98824529D01*
X133791218Y-98846153D01*
X133778921Y-98866670D01*
X133764671Y-98885883D01*
X133748607Y-98903607D01*
X133730883Y-98919671D01*
X133711670Y-98933921D01*
X133691153Y-98946218D01*
X133669529Y-98956446D01*
X133647007Y-98964504D01*
X133623803Y-98970316D01*
X133600142Y-98973826D01*
X133576250Y-98975000D01*
X132663750Y-98975000D01*
X132639858Y-98973826D01*
X132616197Y-98970316D01*
X132592993Y-98964504D01*
X132570471Y-98956446D01*
X132548847Y-98946218D01*
X132528330Y-98933921D01*
X132509117Y-98919671D01*
X132491393Y-98903607D01*
X132475329Y-98885883D01*
X132461079Y-98866670D01*
X132448782Y-98846153D01*
X132438554Y-98824529D01*
X132430496Y-98802007D01*
X132424684Y-98778803D01*
X132421174Y-98755142D01*
X132420000Y-98731250D01*
X132420000Y-98243750D01*
X132421174Y-98219858D01*
X132424684Y-98196197D01*
X132430496Y-98172993D01*
X132438554Y-98150471D01*
X132448782Y-98128847D01*
X132461079Y-98108330D01*
X132475329Y-98089117D01*
X132491393Y-98071393D01*
X132509117Y-98055329D01*
X132528330Y-98041079D01*
X132548847Y-98028782D01*
X132570471Y-98018554D01*
X132592993Y-98010496D01*
X132616197Y-98004684D01*
X132639858Y-98001174D01*
X132663750Y-98000000D01*
X133576250Y-98000000D01*
X133600142Y-98001174D01*
X133600142Y-98001174D01*
G37*
D12*
X133120000Y-98487500D03*
D11*
G36*
X133600142Y-96126174D02*
X133623803Y-96129684D01*
X133647007Y-96135496D01*
X133669529Y-96143554D01*
X133691153Y-96153782D01*
X133711670Y-96166079D01*
X133730883Y-96180329D01*
X133748607Y-96196393D01*
X133764671Y-96214117D01*
X133778921Y-96233330D01*
X133791218Y-96253847D01*
X133801446Y-96275471D01*
X133809504Y-96297993D01*
X133815316Y-96321197D01*
X133818826Y-96344858D01*
X133820000Y-96368750D01*
X133820000Y-96856250D01*
X133818826Y-96880142D01*
X133815316Y-96903803D01*
X133809504Y-96927007D01*
X133801446Y-96949529D01*
X133791218Y-96971153D01*
X133778921Y-96991670D01*
X133764671Y-97010883D01*
X133748607Y-97028607D01*
X133730883Y-97044671D01*
X133711670Y-97058921D01*
X133691153Y-97071218D01*
X133669529Y-97081446D01*
X133647007Y-97089504D01*
X133623803Y-97095316D01*
X133600142Y-97098826D01*
X133576250Y-97100000D01*
X132663750Y-97100000D01*
X132639858Y-97098826D01*
X132616197Y-97095316D01*
X132592993Y-97089504D01*
X132570471Y-97081446D01*
X132548847Y-97071218D01*
X132528330Y-97058921D01*
X132509117Y-97044671D01*
X132491393Y-97028607D01*
X132475329Y-97010883D01*
X132461079Y-96991670D01*
X132448782Y-96971153D01*
X132438554Y-96949529D01*
X132430496Y-96927007D01*
X132424684Y-96903803D01*
X132421174Y-96880142D01*
X132420000Y-96856250D01*
X132420000Y-96368750D01*
X132421174Y-96344858D01*
X132424684Y-96321197D01*
X132430496Y-96297993D01*
X132438554Y-96275471D01*
X132448782Y-96253847D01*
X132461079Y-96233330D01*
X132475329Y-96214117D01*
X132491393Y-96196393D01*
X132509117Y-96180329D01*
X132528330Y-96166079D01*
X132548847Y-96153782D01*
X132570471Y-96143554D01*
X132592993Y-96135496D01*
X132616197Y-96129684D01*
X132639858Y-96126174D01*
X132663750Y-96125000D01*
X133576250Y-96125000D01*
X133600142Y-96126174D01*
X133600142Y-96126174D01*
G37*
D12*
X133120000Y-96612500D03*
G04 #@! TD*
D11*
G04 #@! TO.C,R21*
G36*
X187260142Y-77991174D02*
X187283803Y-77994684D01*
X187307007Y-78000496D01*
X187329529Y-78008554D01*
X187351153Y-78018782D01*
X187371670Y-78031079D01*
X187390883Y-78045329D01*
X187408607Y-78061393D01*
X187424671Y-78079117D01*
X187438921Y-78098330D01*
X187451218Y-78118847D01*
X187461446Y-78140471D01*
X187469504Y-78162993D01*
X187475316Y-78186197D01*
X187478826Y-78209858D01*
X187480000Y-78233750D01*
X187480000Y-79146250D01*
X187478826Y-79170142D01*
X187475316Y-79193803D01*
X187469504Y-79217007D01*
X187461446Y-79239529D01*
X187451218Y-79261153D01*
X187438921Y-79281670D01*
X187424671Y-79300883D01*
X187408607Y-79318607D01*
X187390883Y-79334671D01*
X187371670Y-79348921D01*
X187351153Y-79361218D01*
X187329529Y-79371446D01*
X187307007Y-79379504D01*
X187283803Y-79385316D01*
X187260142Y-79388826D01*
X187236250Y-79390000D01*
X186748750Y-79390000D01*
X186724858Y-79388826D01*
X186701197Y-79385316D01*
X186677993Y-79379504D01*
X186655471Y-79371446D01*
X186633847Y-79361218D01*
X186613330Y-79348921D01*
X186594117Y-79334671D01*
X186576393Y-79318607D01*
X186560329Y-79300883D01*
X186546079Y-79281670D01*
X186533782Y-79261153D01*
X186523554Y-79239529D01*
X186515496Y-79217007D01*
X186509684Y-79193803D01*
X186506174Y-79170142D01*
X186505000Y-79146250D01*
X186505000Y-78233750D01*
X186506174Y-78209858D01*
X186509684Y-78186197D01*
X186515496Y-78162993D01*
X186523554Y-78140471D01*
X186533782Y-78118847D01*
X186546079Y-78098330D01*
X186560329Y-78079117D01*
X186576393Y-78061393D01*
X186594117Y-78045329D01*
X186613330Y-78031079D01*
X186633847Y-78018782D01*
X186655471Y-78008554D01*
X186677993Y-78000496D01*
X186701197Y-77994684D01*
X186724858Y-77991174D01*
X186748750Y-77990000D01*
X187236250Y-77990000D01*
X187260142Y-77991174D01*
X187260142Y-77991174D01*
G37*
D12*
X186992500Y-78690000D03*
D11*
G36*
X189135142Y-77991174D02*
X189158803Y-77994684D01*
X189182007Y-78000496D01*
X189204529Y-78008554D01*
X189226153Y-78018782D01*
X189246670Y-78031079D01*
X189265883Y-78045329D01*
X189283607Y-78061393D01*
X189299671Y-78079117D01*
X189313921Y-78098330D01*
X189326218Y-78118847D01*
X189336446Y-78140471D01*
X189344504Y-78162993D01*
X189350316Y-78186197D01*
X189353826Y-78209858D01*
X189355000Y-78233750D01*
X189355000Y-79146250D01*
X189353826Y-79170142D01*
X189350316Y-79193803D01*
X189344504Y-79217007D01*
X189336446Y-79239529D01*
X189326218Y-79261153D01*
X189313921Y-79281670D01*
X189299671Y-79300883D01*
X189283607Y-79318607D01*
X189265883Y-79334671D01*
X189246670Y-79348921D01*
X189226153Y-79361218D01*
X189204529Y-79371446D01*
X189182007Y-79379504D01*
X189158803Y-79385316D01*
X189135142Y-79388826D01*
X189111250Y-79390000D01*
X188623750Y-79390000D01*
X188599858Y-79388826D01*
X188576197Y-79385316D01*
X188552993Y-79379504D01*
X188530471Y-79371446D01*
X188508847Y-79361218D01*
X188488330Y-79348921D01*
X188469117Y-79334671D01*
X188451393Y-79318607D01*
X188435329Y-79300883D01*
X188421079Y-79281670D01*
X188408782Y-79261153D01*
X188398554Y-79239529D01*
X188390496Y-79217007D01*
X188384684Y-79193803D01*
X188381174Y-79170142D01*
X188380000Y-79146250D01*
X188380000Y-78233750D01*
X188381174Y-78209858D01*
X188384684Y-78186197D01*
X188390496Y-78162993D01*
X188398554Y-78140471D01*
X188408782Y-78118847D01*
X188421079Y-78098330D01*
X188435329Y-78079117D01*
X188451393Y-78061393D01*
X188469117Y-78045329D01*
X188488330Y-78031079D01*
X188508847Y-78018782D01*
X188530471Y-78008554D01*
X188552993Y-78000496D01*
X188576197Y-77994684D01*
X188599858Y-77991174D01*
X188623750Y-77990000D01*
X189111250Y-77990000D01*
X189135142Y-77991174D01*
X189135142Y-77991174D01*
G37*
D12*
X188867500Y-78690000D03*
G04 #@! TD*
D11*
G04 #@! TO.C,R24*
G36*
X179260142Y-77991174D02*
X179283803Y-77994684D01*
X179307007Y-78000496D01*
X179329529Y-78008554D01*
X179351153Y-78018782D01*
X179371670Y-78031079D01*
X179390883Y-78045329D01*
X179408607Y-78061393D01*
X179424671Y-78079117D01*
X179438921Y-78098330D01*
X179451218Y-78118847D01*
X179461446Y-78140471D01*
X179469504Y-78162993D01*
X179475316Y-78186197D01*
X179478826Y-78209858D01*
X179480000Y-78233750D01*
X179480000Y-79146250D01*
X179478826Y-79170142D01*
X179475316Y-79193803D01*
X179469504Y-79217007D01*
X179461446Y-79239529D01*
X179451218Y-79261153D01*
X179438921Y-79281670D01*
X179424671Y-79300883D01*
X179408607Y-79318607D01*
X179390883Y-79334671D01*
X179371670Y-79348921D01*
X179351153Y-79361218D01*
X179329529Y-79371446D01*
X179307007Y-79379504D01*
X179283803Y-79385316D01*
X179260142Y-79388826D01*
X179236250Y-79390000D01*
X178748750Y-79390000D01*
X178724858Y-79388826D01*
X178701197Y-79385316D01*
X178677993Y-79379504D01*
X178655471Y-79371446D01*
X178633847Y-79361218D01*
X178613330Y-79348921D01*
X178594117Y-79334671D01*
X178576393Y-79318607D01*
X178560329Y-79300883D01*
X178546079Y-79281670D01*
X178533782Y-79261153D01*
X178523554Y-79239529D01*
X178515496Y-79217007D01*
X178509684Y-79193803D01*
X178506174Y-79170142D01*
X178505000Y-79146250D01*
X178505000Y-78233750D01*
X178506174Y-78209858D01*
X178509684Y-78186197D01*
X178515496Y-78162993D01*
X178523554Y-78140471D01*
X178533782Y-78118847D01*
X178546079Y-78098330D01*
X178560329Y-78079117D01*
X178576393Y-78061393D01*
X178594117Y-78045329D01*
X178613330Y-78031079D01*
X178633847Y-78018782D01*
X178655471Y-78008554D01*
X178677993Y-78000496D01*
X178701197Y-77994684D01*
X178724858Y-77991174D01*
X178748750Y-77990000D01*
X179236250Y-77990000D01*
X179260142Y-77991174D01*
X179260142Y-77991174D01*
G37*
D12*
X178992500Y-78690000D03*
D11*
G36*
X181135142Y-77991174D02*
X181158803Y-77994684D01*
X181182007Y-78000496D01*
X181204529Y-78008554D01*
X181226153Y-78018782D01*
X181246670Y-78031079D01*
X181265883Y-78045329D01*
X181283607Y-78061393D01*
X181299671Y-78079117D01*
X181313921Y-78098330D01*
X181326218Y-78118847D01*
X181336446Y-78140471D01*
X181344504Y-78162993D01*
X181350316Y-78186197D01*
X181353826Y-78209858D01*
X181355000Y-78233750D01*
X181355000Y-79146250D01*
X181353826Y-79170142D01*
X181350316Y-79193803D01*
X181344504Y-79217007D01*
X181336446Y-79239529D01*
X181326218Y-79261153D01*
X181313921Y-79281670D01*
X181299671Y-79300883D01*
X181283607Y-79318607D01*
X181265883Y-79334671D01*
X181246670Y-79348921D01*
X181226153Y-79361218D01*
X181204529Y-79371446D01*
X181182007Y-79379504D01*
X181158803Y-79385316D01*
X181135142Y-79388826D01*
X181111250Y-79390000D01*
X180623750Y-79390000D01*
X180599858Y-79388826D01*
X180576197Y-79385316D01*
X180552993Y-79379504D01*
X180530471Y-79371446D01*
X180508847Y-79361218D01*
X180488330Y-79348921D01*
X180469117Y-79334671D01*
X180451393Y-79318607D01*
X180435329Y-79300883D01*
X180421079Y-79281670D01*
X180408782Y-79261153D01*
X180398554Y-79239529D01*
X180390496Y-79217007D01*
X180384684Y-79193803D01*
X180381174Y-79170142D01*
X180380000Y-79146250D01*
X180380000Y-78233750D01*
X180381174Y-78209858D01*
X180384684Y-78186197D01*
X180390496Y-78162993D01*
X180398554Y-78140471D01*
X180408782Y-78118847D01*
X180421079Y-78098330D01*
X180435329Y-78079117D01*
X180451393Y-78061393D01*
X180469117Y-78045329D01*
X180488330Y-78031079D01*
X180508847Y-78018782D01*
X180530471Y-78008554D01*
X180552993Y-78000496D01*
X180576197Y-77994684D01*
X180599858Y-77991174D01*
X180623750Y-77990000D01*
X181111250Y-77990000D01*
X181135142Y-77991174D01*
X181135142Y-77991174D01*
G37*
D12*
X180867500Y-78690000D03*
G04 #@! TD*
D11*
G04 #@! TO.C,R25*
G36*
X183260142Y-77991174D02*
X183283803Y-77994684D01*
X183307007Y-78000496D01*
X183329529Y-78008554D01*
X183351153Y-78018782D01*
X183371670Y-78031079D01*
X183390883Y-78045329D01*
X183408607Y-78061393D01*
X183424671Y-78079117D01*
X183438921Y-78098330D01*
X183451218Y-78118847D01*
X183461446Y-78140471D01*
X183469504Y-78162993D01*
X183475316Y-78186197D01*
X183478826Y-78209858D01*
X183480000Y-78233750D01*
X183480000Y-79146250D01*
X183478826Y-79170142D01*
X183475316Y-79193803D01*
X183469504Y-79217007D01*
X183461446Y-79239529D01*
X183451218Y-79261153D01*
X183438921Y-79281670D01*
X183424671Y-79300883D01*
X183408607Y-79318607D01*
X183390883Y-79334671D01*
X183371670Y-79348921D01*
X183351153Y-79361218D01*
X183329529Y-79371446D01*
X183307007Y-79379504D01*
X183283803Y-79385316D01*
X183260142Y-79388826D01*
X183236250Y-79390000D01*
X182748750Y-79390000D01*
X182724858Y-79388826D01*
X182701197Y-79385316D01*
X182677993Y-79379504D01*
X182655471Y-79371446D01*
X182633847Y-79361218D01*
X182613330Y-79348921D01*
X182594117Y-79334671D01*
X182576393Y-79318607D01*
X182560329Y-79300883D01*
X182546079Y-79281670D01*
X182533782Y-79261153D01*
X182523554Y-79239529D01*
X182515496Y-79217007D01*
X182509684Y-79193803D01*
X182506174Y-79170142D01*
X182505000Y-79146250D01*
X182505000Y-78233750D01*
X182506174Y-78209858D01*
X182509684Y-78186197D01*
X182515496Y-78162993D01*
X182523554Y-78140471D01*
X182533782Y-78118847D01*
X182546079Y-78098330D01*
X182560329Y-78079117D01*
X182576393Y-78061393D01*
X182594117Y-78045329D01*
X182613330Y-78031079D01*
X182633847Y-78018782D01*
X182655471Y-78008554D01*
X182677993Y-78000496D01*
X182701197Y-77994684D01*
X182724858Y-77991174D01*
X182748750Y-77990000D01*
X183236250Y-77990000D01*
X183260142Y-77991174D01*
X183260142Y-77991174D01*
G37*
D12*
X182992500Y-78690000D03*
D11*
G36*
X185135142Y-77991174D02*
X185158803Y-77994684D01*
X185182007Y-78000496D01*
X185204529Y-78008554D01*
X185226153Y-78018782D01*
X185246670Y-78031079D01*
X185265883Y-78045329D01*
X185283607Y-78061393D01*
X185299671Y-78079117D01*
X185313921Y-78098330D01*
X185326218Y-78118847D01*
X185336446Y-78140471D01*
X185344504Y-78162993D01*
X185350316Y-78186197D01*
X185353826Y-78209858D01*
X185355000Y-78233750D01*
X185355000Y-79146250D01*
X185353826Y-79170142D01*
X185350316Y-79193803D01*
X185344504Y-79217007D01*
X185336446Y-79239529D01*
X185326218Y-79261153D01*
X185313921Y-79281670D01*
X185299671Y-79300883D01*
X185283607Y-79318607D01*
X185265883Y-79334671D01*
X185246670Y-79348921D01*
X185226153Y-79361218D01*
X185204529Y-79371446D01*
X185182007Y-79379504D01*
X185158803Y-79385316D01*
X185135142Y-79388826D01*
X185111250Y-79390000D01*
X184623750Y-79390000D01*
X184599858Y-79388826D01*
X184576197Y-79385316D01*
X184552993Y-79379504D01*
X184530471Y-79371446D01*
X184508847Y-79361218D01*
X184488330Y-79348921D01*
X184469117Y-79334671D01*
X184451393Y-79318607D01*
X184435329Y-79300883D01*
X184421079Y-79281670D01*
X184408782Y-79261153D01*
X184398554Y-79239529D01*
X184390496Y-79217007D01*
X184384684Y-79193803D01*
X184381174Y-79170142D01*
X184380000Y-79146250D01*
X184380000Y-78233750D01*
X184381174Y-78209858D01*
X184384684Y-78186197D01*
X184390496Y-78162993D01*
X184398554Y-78140471D01*
X184408782Y-78118847D01*
X184421079Y-78098330D01*
X184435329Y-78079117D01*
X184451393Y-78061393D01*
X184469117Y-78045329D01*
X184488330Y-78031079D01*
X184508847Y-78018782D01*
X184530471Y-78008554D01*
X184552993Y-78000496D01*
X184576197Y-77994684D01*
X184599858Y-77991174D01*
X184623750Y-77990000D01*
X185111250Y-77990000D01*
X185135142Y-77991174D01*
X185135142Y-77991174D01*
G37*
D12*
X184867500Y-78690000D03*
G04 #@! TD*
D11*
G04 #@! TO.C,R26*
G36*
X173135142Y-77991174D02*
X173158803Y-77994684D01*
X173182007Y-78000496D01*
X173204529Y-78008554D01*
X173226153Y-78018782D01*
X173246670Y-78031079D01*
X173265883Y-78045329D01*
X173283607Y-78061393D01*
X173299671Y-78079117D01*
X173313921Y-78098330D01*
X173326218Y-78118847D01*
X173336446Y-78140471D01*
X173344504Y-78162993D01*
X173350316Y-78186197D01*
X173353826Y-78209858D01*
X173355000Y-78233750D01*
X173355000Y-79146250D01*
X173353826Y-79170142D01*
X173350316Y-79193803D01*
X173344504Y-79217007D01*
X173336446Y-79239529D01*
X173326218Y-79261153D01*
X173313921Y-79281670D01*
X173299671Y-79300883D01*
X173283607Y-79318607D01*
X173265883Y-79334671D01*
X173246670Y-79348921D01*
X173226153Y-79361218D01*
X173204529Y-79371446D01*
X173182007Y-79379504D01*
X173158803Y-79385316D01*
X173135142Y-79388826D01*
X173111250Y-79390000D01*
X172623750Y-79390000D01*
X172599858Y-79388826D01*
X172576197Y-79385316D01*
X172552993Y-79379504D01*
X172530471Y-79371446D01*
X172508847Y-79361218D01*
X172488330Y-79348921D01*
X172469117Y-79334671D01*
X172451393Y-79318607D01*
X172435329Y-79300883D01*
X172421079Y-79281670D01*
X172408782Y-79261153D01*
X172398554Y-79239529D01*
X172390496Y-79217007D01*
X172384684Y-79193803D01*
X172381174Y-79170142D01*
X172380000Y-79146250D01*
X172380000Y-78233750D01*
X172381174Y-78209858D01*
X172384684Y-78186197D01*
X172390496Y-78162993D01*
X172398554Y-78140471D01*
X172408782Y-78118847D01*
X172421079Y-78098330D01*
X172435329Y-78079117D01*
X172451393Y-78061393D01*
X172469117Y-78045329D01*
X172488330Y-78031079D01*
X172508847Y-78018782D01*
X172530471Y-78008554D01*
X172552993Y-78000496D01*
X172576197Y-77994684D01*
X172599858Y-77991174D01*
X172623750Y-77990000D01*
X173111250Y-77990000D01*
X173135142Y-77991174D01*
X173135142Y-77991174D01*
G37*
D12*
X172867500Y-78690000D03*
D11*
G36*
X171260142Y-77991174D02*
X171283803Y-77994684D01*
X171307007Y-78000496D01*
X171329529Y-78008554D01*
X171351153Y-78018782D01*
X171371670Y-78031079D01*
X171390883Y-78045329D01*
X171408607Y-78061393D01*
X171424671Y-78079117D01*
X171438921Y-78098330D01*
X171451218Y-78118847D01*
X171461446Y-78140471D01*
X171469504Y-78162993D01*
X171475316Y-78186197D01*
X171478826Y-78209858D01*
X171480000Y-78233750D01*
X171480000Y-79146250D01*
X171478826Y-79170142D01*
X171475316Y-79193803D01*
X171469504Y-79217007D01*
X171461446Y-79239529D01*
X171451218Y-79261153D01*
X171438921Y-79281670D01*
X171424671Y-79300883D01*
X171408607Y-79318607D01*
X171390883Y-79334671D01*
X171371670Y-79348921D01*
X171351153Y-79361218D01*
X171329529Y-79371446D01*
X171307007Y-79379504D01*
X171283803Y-79385316D01*
X171260142Y-79388826D01*
X171236250Y-79390000D01*
X170748750Y-79390000D01*
X170724858Y-79388826D01*
X170701197Y-79385316D01*
X170677993Y-79379504D01*
X170655471Y-79371446D01*
X170633847Y-79361218D01*
X170613330Y-79348921D01*
X170594117Y-79334671D01*
X170576393Y-79318607D01*
X170560329Y-79300883D01*
X170546079Y-79281670D01*
X170533782Y-79261153D01*
X170523554Y-79239529D01*
X170515496Y-79217007D01*
X170509684Y-79193803D01*
X170506174Y-79170142D01*
X170505000Y-79146250D01*
X170505000Y-78233750D01*
X170506174Y-78209858D01*
X170509684Y-78186197D01*
X170515496Y-78162993D01*
X170523554Y-78140471D01*
X170533782Y-78118847D01*
X170546079Y-78098330D01*
X170560329Y-78079117D01*
X170576393Y-78061393D01*
X170594117Y-78045329D01*
X170613330Y-78031079D01*
X170633847Y-78018782D01*
X170655471Y-78008554D01*
X170677993Y-78000496D01*
X170701197Y-77994684D01*
X170724858Y-77991174D01*
X170748750Y-77990000D01*
X171236250Y-77990000D01*
X171260142Y-77991174D01*
X171260142Y-77991174D01*
G37*
D12*
X170992500Y-78690000D03*
G04 #@! TD*
D11*
G04 #@! TO.C,R27*
G36*
X177135142Y-77991174D02*
X177158803Y-77994684D01*
X177182007Y-78000496D01*
X177204529Y-78008554D01*
X177226153Y-78018782D01*
X177246670Y-78031079D01*
X177265883Y-78045329D01*
X177283607Y-78061393D01*
X177299671Y-78079117D01*
X177313921Y-78098330D01*
X177326218Y-78118847D01*
X177336446Y-78140471D01*
X177344504Y-78162993D01*
X177350316Y-78186197D01*
X177353826Y-78209858D01*
X177355000Y-78233750D01*
X177355000Y-79146250D01*
X177353826Y-79170142D01*
X177350316Y-79193803D01*
X177344504Y-79217007D01*
X177336446Y-79239529D01*
X177326218Y-79261153D01*
X177313921Y-79281670D01*
X177299671Y-79300883D01*
X177283607Y-79318607D01*
X177265883Y-79334671D01*
X177246670Y-79348921D01*
X177226153Y-79361218D01*
X177204529Y-79371446D01*
X177182007Y-79379504D01*
X177158803Y-79385316D01*
X177135142Y-79388826D01*
X177111250Y-79390000D01*
X176623750Y-79390000D01*
X176599858Y-79388826D01*
X176576197Y-79385316D01*
X176552993Y-79379504D01*
X176530471Y-79371446D01*
X176508847Y-79361218D01*
X176488330Y-79348921D01*
X176469117Y-79334671D01*
X176451393Y-79318607D01*
X176435329Y-79300883D01*
X176421079Y-79281670D01*
X176408782Y-79261153D01*
X176398554Y-79239529D01*
X176390496Y-79217007D01*
X176384684Y-79193803D01*
X176381174Y-79170142D01*
X176380000Y-79146250D01*
X176380000Y-78233750D01*
X176381174Y-78209858D01*
X176384684Y-78186197D01*
X176390496Y-78162993D01*
X176398554Y-78140471D01*
X176408782Y-78118847D01*
X176421079Y-78098330D01*
X176435329Y-78079117D01*
X176451393Y-78061393D01*
X176469117Y-78045329D01*
X176488330Y-78031079D01*
X176508847Y-78018782D01*
X176530471Y-78008554D01*
X176552993Y-78000496D01*
X176576197Y-77994684D01*
X176599858Y-77991174D01*
X176623750Y-77990000D01*
X177111250Y-77990000D01*
X177135142Y-77991174D01*
X177135142Y-77991174D01*
G37*
D12*
X176867500Y-78690000D03*
D11*
G36*
X175260142Y-77991174D02*
X175283803Y-77994684D01*
X175307007Y-78000496D01*
X175329529Y-78008554D01*
X175351153Y-78018782D01*
X175371670Y-78031079D01*
X175390883Y-78045329D01*
X175408607Y-78061393D01*
X175424671Y-78079117D01*
X175438921Y-78098330D01*
X175451218Y-78118847D01*
X175461446Y-78140471D01*
X175469504Y-78162993D01*
X175475316Y-78186197D01*
X175478826Y-78209858D01*
X175480000Y-78233750D01*
X175480000Y-79146250D01*
X175478826Y-79170142D01*
X175475316Y-79193803D01*
X175469504Y-79217007D01*
X175461446Y-79239529D01*
X175451218Y-79261153D01*
X175438921Y-79281670D01*
X175424671Y-79300883D01*
X175408607Y-79318607D01*
X175390883Y-79334671D01*
X175371670Y-79348921D01*
X175351153Y-79361218D01*
X175329529Y-79371446D01*
X175307007Y-79379504D01*
X175283803Y-79385316D01*
X175260142Y-79388826D01*
X175236250Y-79390000D01*
X174748750Y-79390000D01*
X174724858Y-79388826D01*
X174701197Y-79385316D01*
X174677993Y-79379504D01*
X174655471Y-79371446D01*
X174633847Y-79361218D01*
X174613330Y-79348921D01*
X174594117Y-79334671D01*
X174576393Y-79318607D01*
X174560329Y-79300883D01*
X174546079Y-79281670D01*
X174533782Y-79261153D01*
X174523554Y-79239529D01*
X174515496Y-79217007D01*
X174509684Y-79193803D01*
X174506174Y-79170142D01*
X174505000Y-79146250D01*
X174505000Y-78233750D01*
X174506174Y-78209858D01*
X174509684Y-78186197D01*
X174515496Y-78162993D01*
X174523554Y-78140471D01*
X174533782Y-78118847D01*
X174546079Y-78098330D01*
X174560329Y-78079117D01*
X174576393Y-78061393D01*
X174594117Y-78045329D01*
X174613330Y-78031079D01*
X174633847Y-78018782D01*
X174655471Y-78008554D01*
X174677993Y-78000496D01*
X174701197Y-77994684D01*
X174724858Y-77991174D01*
X174748750Y-77990000D01*
X175236250Y-77990000D01*
X175260142Y-77991174D01*
X175260142Y-77991174D01*
G37*
D12*
X174992500Y-78690000D03*
G04 #@! TD*
D22*
G04 #@! TO.C,D1*
X136902642Y-106351413D03*
X136902642Y-109151413D03*
G04 #@! TD*
D11*
G04 #@! TO.C,C7*
G36*
X140332146Y-112477617D02*
X140356415Y-112481217D01*
X140380213Y-112487178D01*
X140403313Y-112495443D01*
X140425491Y-112505933D01*
X140446535Y-112518546D01*
X140466240Y-112533160D01*
X140484419Y-112549636D01*
X140500895Y-112567815D01*
X140515509Y-112587520D01*
X140528122Y-112608564D01*
X140538612Y-112630742D01*
X140546877Y-112653842D01*
X140552838Y-112677640D01*
X140556438Y-112701909D01*
X140557642Y-112726413D01*
X140557642Y-113476413D01*
X140556438Y-113500917D01*
X140552838Y-113525186D01*
X140546877Y-113548984D01*
X140538612Y-113572084D01*
X140528122Y-113594262D01*
X140515509Y-113615306D01*
X140500895Y-113635011D01*
X140484419Y-113653190D01*
X140466240Y-113669666D01*
X140446535Y-113684280D01*
X140425491Y-113696893D01*
X140403313Y-113707383D01*
X140380213Y-113715648D01*
X140356415Y-113721609D01*
X140332146Y-113725209D01*
X140307642Y-113726413D01*
X139057642Y-113726413D01*
X139033138Y-113725209D01*
X139008869Y-113721609D01*
X138985071Y-113715648D01*
X138961971Y-113707383D01*
X138939793Y-113696893D01*
X138918749Y-113684280D01*
X138899044Y-113669666D01*
X138880865Y-113653190D01*
X138864389Y-113635011D01*
X138849775Y-113615306D01*
X138837162Y-113594262D01*
X138826672Y-113572084D01*
X138818407Y-113548984D01*
X138812446Y-113525186D01*
X138808846Y-113500917D01*
X138807642Y-113476413D01*
X138807642Y-112726413D01*
X138808846Y-112701909D01*
X138812446Y-112677640D01*
X138818407Y-112653842D01*
X138826672Y-112630742D01*
X138837162Y-112608564D01*
X138849775Y-112587520D01*
X138864389Y-112567815D01*
X138880865Y-112549636D01*
X138899044Y-112533160D01*
X138918749Y-112518546D01*
X138939793Y-112505933D01*
X138961971Y-112495443D01*
X138985071Y-112487178D01*
X139008869Y-112481217D01*
X139033138Y-112477617D01*
X139057642Y-112476413D01*
X140307642Y-112476413D01*
X140332146Y-112477617D01*
X140332146Y-112477617D01*
G37*
D20*
X139682642Y-113101413D03*
D11*
G36*
X140332146Y-109677617D02*
X140356415Y-109681217D01*
X140380213Y-109687178D01*
X140403313Y-109695443D01*
X140425491Y-109705933D01*
X140446535Y-109718546D01*
X140466240Y-109733160D01*
X140484419Y-109749636D01*
X140500895Y-109767815D01*
X140515509Y-109787520D01*
X140528122Y-109808564D01*
X140538612Y-109830742D01*
X140546877Y-109853842D01*
X140552838Y-109877640D01*
X140556438Y-109901909D01*
X140557642Y-109926413D01*
X140557642Y-110676413D01*
X140556438Y-110700917D01*
X140552838Y-110725186D01*
X140546877Y-110748984D01*
X140538612Y-110772084D01*
X140528122Y-110794262D01*
X140515509Y-110815306D01*
X140500895Y-110835011D01*
X140484419Y-110853190D01*
X140466240Y-110869666D01*
X140446535Y-110884280D01*
X140425491Y-110896893D01*
X140403313Y-110907383D01*
X140380213Y-110915648D01*
X140356415Y-110921609D01*
X140332146Y-110925209D01*
X140307642Y-110926413D01*
X139057642Y-110926413D01*
X139033138Y-110925209D01*
X139008869Y-110921609D01*
X138985071Y-110915648D01*
X138961971Y-110907383D01*
X138939793Y-110896893D01*
X138918749Y-110884280D01*
X138899044Y-110869666D01*
X138880865Y-110853190D01*
X138864389Y-110835011D01*
X138849775Y-110815306D01*
X138837162Y-110794262D01*
X138826672Y-110772084D01*
X138818407Y-110748984D01*
X138812446Y-110725186D01*
X138808846Y-110700917D01*
X138807642Y-110676413D01*
X138807642Y-109926413D01*
X138808846Y-109901909D01*
X138812446Y-109877640D01*
X138818407Y-109853842D01*
X138826672Y-109830742D01*
X138837162Y-109808564D01*
X138849775Y-109787520D01*
X138864389Y-109767815D01*
X138880865Y-109749636D01*
X138899044Y-109733160D01*
X138918749Y-109718546D01*
X138939793Y-109705933D01*
X138961971Y-109695443D01*
X138985071Y-109687178D01*
X139008869Y-109681217D01*
X139033138Y-109677617D01*
X139057642Y-109676413D01*
X140307642Y-109676413D01*
X140332146Y-109677617D01*
X140332146Y-109677617D01*
G37*
D20*
X139682642Y-110301413D03*
G04 #@! TD*
D11*
G04 #@! TO.C,D10*
G36*
X177135142Y-81741174D02*
X177158803Y-81744684D01*
X177182007Y-81750496D01*
X177204529Y-81758554D01*
X177226153Y-81768782D01*
X177246670Y-81781079D01*
X177265883Y-81795329D01*
X177283607Y-81811393D01*
X177299671Y-81829117D01*
X177313921Y-81848330D01*
X177326218Y-81868847D01*
X177336446Y-81890471D01*
X177344504Y-81912993D01*
X177350316Y-81936197D01*
X177353826Y-81959858D01*
X177355000Y-81983750D01*
X177355000Y-82896250D01*
X177353826Y-82920142D01*
X177350316Y-82943803D01*
X177344504Y-82967007D01*
X177336446Y-82989529D01*
X177326218Y-83011153D01*
X177313921Y-83031670D01*
X177299671Y-83050883D01*
X177283607Y-83068607D01*
X177265883Y-83084671D01*
X177246670Y-83098921D01*
X177226153Y-83111218D01*
X177204529Y-83121446D01*
X177182007Y-83129504D01*
X177158803Y-83135316D01*
X177135142Y-83138826D01*
X177111250Y-83140000D01*
X176623750Y-83140000D01*
X176599858Y-83138826D01*
X176576197Y-83135316D01*
X176552993Y-83129504D01*
X176530471Y-83121446D01*
X176508847Y-83111218D01*
X176488330Y-83098921D01*
X176469117Y-83084671D01*
X176451393Y-83068607D01*
X176435329Y-83050883D01*
X176421079Y-83031670D01*
X176408782Y-83011153D01*
X176398554Y-82989529D01*
X176390496Y-82967007D01*
X176384684Y-82943803D01*
X176381174Y-82920142D01*
X176380000Y-82896250D01*
X176380000Y-81983750D01*
X176381174Y-81959858D01*
X176384684Y-81936197D01*
X176390496Y-81912993D01*
X176398554Y-81890471D01*
X176408782Y-81868847D01*
X176421079Y-81848330D01*
X176435329Y-81829117D01*
X176451393Y-81811393D01*
X176469117Y-81795329D01*
X176488330Y-81781079D01*
X176508847Y-81768782D01*
X176530471Y-81758554D01*
X176552993Y-81750496D01*
X176576197Y-81744684D01*
X176599858Y-81741174D01*
X176623750Y-81740000D01*
X177111250Y-81740000D01*
X177135142Y-81741174D01*
X177135142Y-81741174D01*
G37*
D12*
X176867500Y-82440000D03*
D11*
G36*
X175260142Y-81741174D02*
X175283803Y-81744684D01*
X175307007Y-81750496D01*
X175329529Y-81758554D01*
X175351153Y-81768782D01*
X175371670Y-81781079D01*
X175390883Y-81795329D01*
X175408607Y-81811393D01*
X175424671Y-81829117D01*
X175438921Y-81848330D01*
X175451218Y-81868847D01*
X175461446Y-81890471D01*
X175469504Y-81912993D01*
X175475316Y-81936197D01*
X175478826Y-81959858D01*
X175480000Y-81983750D01*
X175480000Y-82896250D01*
X175478826Y-82920142D01*
X175475316Y-82943803D01*
X175469504Y-82967007D01*
X175461446Y-82989529D01*
X175451218Y-83011153D01*
X175438921Y-83031670D01*
X175424671Y-83050883D01*
X175408607Y-83068607D01*
X175390883Y-83084671D01*
X175371670Y-83098921D01*
X175351153Y-83111218D01*
X175329529Y-83121446D01*
X175307007Y-83129504D01*
X175283803Y-83135316D01*
X175260142Y-83138826D01*
X175236250Y-83140000D01*
X174748750Y-83140000D01*
X174724858Y-83138826D01*
X174701197Y-83135316D01*
X174677993Y-83129504D01*
X174655471Y-83121446D01*
X174633847Y-83111218D01*
X174613330Y-83098921D01*
X174594117Y-83084671D01*
X174576393Y-83068607D01*
X174560329Y-83050883D01*
X174546079Y-83031670D01*
X174533782Y-83011153D01*
X174523554Y-82989529D01*
X174515496Y-82967007D01*
X174509684Y-82943803D01*
X174506174Y-82920142D01*
X174505000Y-82896250D01*
X174505000Y-81983750D01*
X174506174Y-81959858D01*
X174509684Y-81936197D01*
X174515496Y-81912993D01*
X174523554Y-81890471D01*
X174533782Y-81868847D01*
X174546079Y-81848330D01*
X174560329Y-81829117D01*
X174576393Y-81811393D01*
X174594117Y-81795329D01*
X174613330Y-81781079D01*
X174633847Y-81768782D01*
X174655471Y-81758554D01*
X174677993Y-81750496D01*
X174701197Y-81744684D01*
X174724858Y-81741174D01*
X174748750Y-81740000D01*
X175236250Y-81740000D01*
X175260142Y-81741174D01*
X175260142Y-81741174D01*
G37*
D12*
X174992500Y-82440000D03*
G04 #@! TD*
D11*
G04 #@! TO.C,D11*
G36*
X108385142Y-117921174D02*
X108408803Y-117924684D01*
X108432007Y-117930496D01*
X108454529Y-117938554D01*
X108476153Y-117948782D01*
X108496670Y-117961079D01*
X108515883Y-117975329D01*
X108533607Y-117991393D01*
X108549671Y-118009117D01*
X108563921Y-118028330D01*
X108576218Y-118048847D01*
X108586446Y-118070471D01*
X108594504Y-118092993D01*
X108600316Y-118116197D01*
X108603826Y-118139858D01*
X108605000Y-118163750D01*
X108605000Y-119076250D01*
X108603826Y-119100142D01*
X108600316Y-119123803D01*
X108594504Y-119147007D01*
X108586446Y-119169529D01*
X108576218Y-119191153D01*
X108563921Y-119211670D01*
X108549671Y-119230883D01*
X108533607Y-119248607D01*
X108515883Y-119264671D01*
X108496670Y-119278921D01*
X108476153Y-119291218D01*
X108454529Y-119301446D01*
X108432007Y-119309504D01*
X108408803Y-119315316D01*
X108385142Y-119318826D01*
X108361250Y-119320000D01*
X107873750Y-119320000D01*
X107849858Y-119318826D01*
X107826197Y-119315316D01*
X107802993Y-119309504D01*
X107780471Y-119301446D01*
X107758847Y-119291218D01*
X107738330Y-119278921D01*
X107719117Y-119264671D01*
X107701393Y-119248607D01*
X107685329Y-119230883D01*
X107671079Y-119211670D01*
X107658782Y-119191153D01*
X107648554Y-119169529D01*
X107640496Y-119147007D01*
X107634684Y-119123803D01*
X107631174Y-119100142D01*
X107630000Y-119076250D01*
X107630000Y-118163750D01*
X107631174Y-118139858D01*
X107634684Y-118116197D01*
X107640496Y-118092993D01*
X107648554Y-118070471D01*
X107658782Y-118048847D01*
X107671079Y-118028330D01*
X107685329Y-118009117D01*
X107701393Y-117991393D01*
X107719117Y-117975329D01*
X107738330Y-117961079D01*
X107758847Y-117948782D01*
X107780471Y-117938554D01*
X107802993Y-117930496D01*
X107826197Y-117924684D01*
X107849858Y-117921174D01*
X107873750Y-117920000D01*
X108361250Y-117920000D01*
X108385142Y-117921174D01*
X108385142Y-117921174D01*
G37*
D12*
X108117500Y-118620000D03*
D11*
G36*
X106510142Y-117921174D02*
X106533803Y-117924684D01*
X106557007Y-117930496D01*
X106579529Y-117938554D01*
X106601153Y-117948782D01*
X106621670Y-117961079D01*
X106640883Y-117975329D01*
X106658607Y-117991393D01*
X106674671Y-118009117D01*
X106688921Y-118028330D01*
X106701218Y-118048847D01*
X106711446Y-118070471D01*
X106719504Y-118092993D01*
X106725316Y-118116197D01*
X106728826Y-118139858D01*
X106730000Y-118163750D01*
X106730000Y-119076250D01*
X106728826Y-119100142D01*
X106725316Y-119123803D01*
X106719504Y-119147007D01*
X106711446Y-119169529D01*
X106701218Y-119191153D01*
X106688921Y-119211670D01*
X106674671Y-119230883D01*
X106658607Y-119248607D01*
X106640883Y-119264671D01*
X106621670Y-119278921D01*
X106601153Y-119291218D01*
X106579529Y-119301446D01*
X106557007Y-119309504D01*
X106533803Y-119315316D01*
X106510142Y-119318826D01*
X106486250Y-119320000D01*
X105998750Y-119320000D01*
X105974858Y-119318826D01*
X105951197Y-119315316D01*
X105927993Y-119309504D01*
X105905471Y-119301446D01*
X105883847Y-119291218D01*
X105863330Y-119278921D01*
X105844117Y-119264671D01*
X105826393Y-119248607D01*
X105810329Y-119230883D01*
X105796079Y-119211670D01*
X105783782Y-119191153D01*
X105773554Y-119169529D01*
X105765496Y-119147007D01*
X105759684Y-119123803D01*
X105756174Y-119100142D01*
X105755000Y-119076250D01*
X105755000Y-118163750D01*
X105756174Y-118139858D01*
X105759684Y-118116197D01*
X105765496Y-118092993D01*
X105773554Y-118070471D01*
X105783782Y-118048847D01*
X105796079Y-118028330D01*
X105810329Y-118009117D01*
X105826393Y-117991393D01*
X105844117Y-117975329D01*
X105863330Y-117961079D01*
X105883847Y-117948782D01*
X105905471Y-117938554D01*
X105927993Y-117930496D01*
X105951197Y-117924684D01*
X105974858Y-117921174D01*
X105998750Y-117920000D01*
X106486250Y-117920000D01*
X106510142Y-117921174D01*
X106510142Y-117921174D01*
G37*
D12*
X106242500Y-118620000D03*
G04 #@! TD*
D10*
G04 #@! TO.C,Q9*
X184880000Y-74940000D03*
X182980000Y-74940000D03*
X183930000Y-76940000D03*
G04 #@! TD*
G04 #@! TO.C,Q11*
X175930000Y-76940000D03*
X174980000Y-74940000D03*
X176880000Y-74940000D03*
G04 #@! TD*
D11*
G04 #@! TO.C,R28*
G36*
X109910142Y-117911174D02*
X109933803Y-117914684D01*
X109957007Y-117920496D01*
X109979529Y-117928554D01*
X110001153Y-117938782D01*
X110021670Y-117951079D01*
X110040883Y-117965329D01*
X110058607Y-117981393D01*
X110074671Y-117999117D01*
X110088921Y-118018330D01*
X110101218Y-118038847D01*
X110111446Y-118060471D01*
X110119504Y-118082993D01*
X110125316Y-118106197D01*
X110128826Y-118129858D01*
X110130000Y-118153750D01*
X110130000Y-119066250D01*
X110128826Y-119090142D01*
X110125316Y-119113803D01*
X110119504Y-119137007D01*
X110111446Y-119159529D01*
X110101218Y-119181153D01*
X110088921Y-119201670D01*
X110074671Y-119220883D01*
X110058607Y-119238607D01*
X110040883Y-119254671D01*
X110021670Y-119268921D01*
X110001153Y-119281218D01*
X109979529Y-119291446D01*
X109957007Y-119299504D01*
X109933803Y-119305316D01*
X109910142Y-119308826D01*
X109886250Y-119310000D01*
X109398750Y-119310000D01*
X109374858Y-119308826D01*
X109351197Y-119305316D01*
X109327993Y-119299504D01*
X109305471Y-119291446D01*
X109283847Y-119281218D01*
X109263330Y-119268921D01*
X109244117Y-119254671D01*
X109226393Y-119238607D01*
X109210329Y-119220883D01*
X109196079Y-119201670D01*
X109183782Y-119181153D01*
X109173554Y-119159529D01*
X109165496Y-119137007D01*
X109159684Y-119113803D01*
X109156174Y-119090142D01*
X109155000Y-119066250D01*
X109155000Y-118153750D01*
X109156174Y-118129858D01*
X109159684Y-118106197D01*
X109165496Y-118082993D01*
X109173554Y-118060471D01*
X109183782Y-118038847D01*
X109196079Y-118018330D01*
X109210329Y-117999117D01*
X109226393Y-117981393D01*
X109244117Y-117965329D01*
X109263330Y-117951079D01*
X109283847Y-117938782D01*
X109305471Y-117928554D01*
X109327993Y-117920496D01*
X109351197Y-117914684D01*
X109374858Y-117911174D01*
X109398750Y-117910000D01*
X109886250Y-117910000D01*
X109910142Y-117911174D01*
X109910142Y-117911174D01*
G37*
D12*
X109642500Y-118610000D03*
D11*
G36*
X111785142Y-117911174D02*
X111808803Y-117914684D01*
X111832007Y-117920496D01*
X111854529Y-117928554D01*
X111876153Y-117938782D01*
X111896670Y-117951079D01*
X111915883Y-117965329D01*
X111933607Y-117981393D01*
X111949671Y-117999117D01*
X111963921Y-118018330D01*
X111976218Y-118038847D01*
X111986446Y-118060471D01*
X111994504Y-118082993D01*
X112000316Y-118106197D01*
X112003826Y-118129858D01*
X112005000Y-118153750D01*
X112005000Y-119066250D01*
X112003826Y-119090142D01*
X112000316Y-119113803D01*
X111994504Y-119137007D01*
X111986446Y-119159529D01*
X111976218Y-119181153D01*
X111963921Y-119201670D01*
X111949671Y-119220883D01*
X111933607Y-119238607D01*
X111915883Y-119254671D01*
X111896670Y-119268921D01*
X111876153Y-119281218D01*
X111854529Y-119291446D01*
X111832007Y-119299504D01*
X111808803Y-119305316D01*
X111785142Y-119308826D01*
X111761250Y-119310000D01*
X111273750Y-119310000D01*
X111249858Y-119308826D01*
X111226197Y-119305316D01*
X111202993Y-119299504D01*
X111180471Y-119291446D01*
X111158847Y-119281218D01*
X111138330Y-119268921D01*
X111119117Y-119254671D01*
X111101393Y-119238607D01*
X111085329Y-119220883D01*
X111071079Y-119201670D01*
X111058782Y-119181153D01*
X111048554Y-119159529D01*
X111040496Y-119137007D01*
X111034684Y-119113803D01*
X111031174Y-119090142D01*
X111030000Y-119066250D01*
X111030000Y-118153750D01*
X111031174Y-118129858D01*
X111034684Y-118106197D01*
X111040496Y-118082993D01*
X111048554Y-118060471D01*
X111058782Y-118038847D01*
X111071079Y-118018330D01*
X111085329Y-117999117D01*
X111101393Y-117981393D01*
X111119117Y-117965329D01*
X111138330Y-117951079D01*
X111158847Y-117938782D01*
X111180471Y-117928554D01*
X111202993Y-117920496D01*
X111226197Y-117914684D01*
X111249858Y-117911174D01*
X111273750Y-117910000D01*
X111761250Y-117910000D01*
X111785142Y-117911174D01*
X111785142Y-117911174D01*
G37*
D12*
X111517500Y-118610000D03*
G04 #@! TD*
D13*
G04 #@! TO.C,U2*
X159205000Y-110720000D03*
X149675000Y-113260000D03*
X159205000Y-113260000D03*
X149675000Y-110720000D03*
G04 #@! TD*
D11*
G04 #@! TO.C,C12*
G36*
X133280142Y-74301174D02*
X133303803Y-74304684D01*
X133327007Y-74310496D01*
X133349529Y-74318554D01*
X133371153Y-74328782D01*
X133391670Y-74341079D01*
X133410883Y-74355329D01*
X133428607Y-74371393D01*
X133444671Y-74389117D01*
X133458921Y-74408330D01*
X133471218Y-74428847D01*
X133481446Y-74450471D01*
X133489504Y-74472993D01*
X133495316Y-74496197D01*
X133498826Y-74519858D01*
X133500000Y-74543750D01*
X133500000Y-75456250D01*
X133498826Y-75480142D01*
X133495316Y-75503803D01*
X133489504Y-75527007D01*
X133481446Y-75549529D01*
X133471218Y-75571153D01*
X133458921Y-75591670D01*
X133444671Y-75610883D01*
X133428607Y-75628607D01*
X133410883Y-75644671D01*
X133391670Y-75658921D01*
X133371153Y-75671218D01*
X133349529Y-75681446D01*
X133327007Y-75689504D01*
X133303803Y-75695316D01*
X133280142Y-75698826D01*
X133256250Y-75700000D01*
X132768750Y-75700000D01*
X132744858Y-75698826D01*
X132721197Y-75695316D01*
X132697993Y-75689504D01*
X132675471Y-75681446D01*
X132653847Y-75671218D01*
X132633330Y-75658921D01*
X132614117Y-75644671D01*
X132596393Y-75628607D01*
X132580329Y-75610883D01*
X132566079Y-75591670D01*
X132553782Y-75571153D01*
X132543554Y-75549529D01*
X132535496Y-75527007D01*
X132529684Y-75503803D01*
X132526174Y-75480142D01*
X132525000Y-75456250D01*
X132525000Y-74543750D01*
X132526174Y-74519858D01*
X132529684Y-74496197D01*
X132535496Y-74472993D01*
X132543554Y-74450471D01*
X132553782Y-74428847D01*
X132566079Y-74408330D01*
X132580329Y-74389117D01*
X132596393Y-74371393D01*
X132614117Y-74355329D01*
X132633330Y-74341079D01*
X132653847Y-74328782D01*
X132675471Y-74318554D01*
X132697993Y-74310496D01*
X132721197Y-74304684D01*
X132744858Y-74301174D01*
X132768750Y-74300000D01*
X133256250Y-74300000D01*
X133280142Y-74301174D01*
X133280142Y-74301174D01*
G37*
D12*
X133012500Y-75000000D03*
D11*
G36*
X135155142Y-74301174D02*
X135178803Y-74304684D01*
X135202007Y-74310496D01*
X135224529Y-74318554D01*
X135246153Y-74328782D01*
X135266670Y-74341079D01*
X135285883Y-74355329D01*
X135303607Y-74371393D01*
X135319671Y-74389117D01*
X135333921Y-74408330D01*
X135346218Y-74428847D01*
X135356446Y-74450471D01*
X135364504Y-74472993D01*
X135370316Y-74496197D01*
X135373826Y-74519858D01*
X135375000Y-74543750D01*
X135375000Y-75456250D01*
X135373826Y-75480142D01*
X135370316Y-75503803D01*
X135364504Y-75527007D01*
X135356446Y-75549529D01*
X135346218Y-75571153D01*
X135333921Y-75591670D01*
X135319671Y-75610883D01*
X135303607Y-75628607D01*
X135285883Y-75644671D01*
X135266670Y-75658921D01*
X135246153Y-75671218D01*
X135224529Y-75681446D01*
X135202007Y-75689504D01*
X135178803Y-75695316D01*
X135155142Y-75698826D01*
X135131250Y-75700000D01*
X134643750Y-75700000D01*
X134619858Y-75698826D01*
X134596197Y-75695316D01*
X134572993Y-75689504D01*
X134550471Y-75681446D01*
X134528847Y-75671218D01*
X134508330Y-75658921D01*
X134489117Y-75644671D01*
X134471393Y-75628607D01*
X134455329Y-75610883D01*
X134441079Y-75591670D01*
X134428782Y-75571153D01*
X134418554Y-75549529D01*
X134410496Y-75527007D01*
X134404684Y-75503803D01*
X134401174Y-75480142D01*
X134400000Y-75456250D01*
X134400000Y-74543750D01*
X134401174Y-74519858D01*
X134404684Y-74496197D01*
X134410496Y-74472993D01*
X134418554Y-74450471D01*
X134428782Y-74428847D01*
X134441079Y-74408330D01*
X134455329Y-74389117D01*
X134471393Y-74371393D01*
X134489117Y-74355329D01*
X134508330Y-74341079D01*
X134528847Y-74328782D01*
X134550471Y-74318554D01*
X134572993Y-74310496D01*
X134596197Y-74304684D01*
X134619858Y-74301174D01*
X134643750Y-74300000D01*
X135131250Y-74300000D01*
X135155142Y-74301174D01*
X135155142Y-74301174D01*
G37*
D12*
X134887500Y-75000000D03*
G04 #@! TD*
D15*
G04 #@! TO.C,Q2*
X134950000Y-83300000D03*
X134950000Y-85200000D03*
X136950000Y-84250000D03*
G04 #@! TD*
D11*
G04 #@! TO.C,R1*
G36*
X125030142Y-74101174D02*
X125053803Y-74104684D01*
X125077007Y-74110496D01*
X125099529Y-74118554D01*
X125121153Y-74128782D01*
X125141670Y-74141079D01*
X125160883Y-74155329D01*
X125178607Y-74171393D01*
X125194671Y-74189117D01*
X125208921Y-74208330D01*
X125221218Y-74228847D01*
X125231446Y-74250471D01*
X125239504Y-74272993D01*
X125245316Y-74296197D01*
X125248826Y-74319858D01*
X125250000Y-74343750D01*
X125250000Y-75256250D01*
X125248826Y-75280142D01*
X125245316Y-75303803D01*
X125239504Y-75327007D01*
X125231446Y-75349529D01*
X125221218Y-75371153D01*
X125208921Y-75391670D01*
X125194671Y-75410883D01*
X125178607Y-75428607D01*
X125160883Y-75444671D01*
X125141670Y-75458921D01*
X125121153Y-75471218D01*
X125099529Y-75481446D01*
X125077007Y-75489504D01*
X125053803Y-75495316D01*
X125030142Y-75498826D01*
X125006250Y-75500000D01*
X124518750Y-75500000D01*
X124494858Y-75498826D01*
X124471197Y-75495316D01*
X124447993Y-75489504D01*
X124425471Y-75481446D01*
X124403847Y-75471218D01*
X124383330Y-75458921D01*
X124364117Y-75444671D01*
X124346393Y-75428607D01*
X124330329Y-75410883D01*
X124316079Y-75391670D01*
X124303782Y-75371153D01*
X124293554Y-75349529D01*
X124285496Y-75327007D01*
X124279684Y-75303803D01*
X124276174Y-75280142D01*
X124275000Y-75256250D01*
X124275000Y-74343750D01*
X124276174Y-74319858D01*
X124279684Y-74296197D01*
X124285496Y-74272993D01*
X124293554Y-74250471D01*
X124303782Y-74228847D01*
X124316079Y-74208330D01*
X124330329Y-74189117D01*
X124346393Y-74171393D01*
X124364117Y-74155329D01*
X124383330Y-74141079D01*
X124403847Y-74128782D01*
X124425471Y-74118554D01*
X124447993Y-74110496D01*
X124471197Y-74104684D01*
X124494858Y-74101174D01*
X124518750Y-74100000D01*
X125006250Y-74100000D01*
X125030142Y-74101174D01*
X125030142Y-74101174D01*
G37*
D12*
X124762500Y-74800000D03*
D11*
G36*
X126905142Y-74101174D02*
X126928803Y-74104684D01*
X126952007Y-74110496D01*
X126974529Y-74118554D01*
X126996153Y-74128782D01*
X127016670Y-74141079D01*
X127035883Y-74155329D01*
X127053607Y-74171393D01*
X127069671Y-74189117D01*
X127083921Y-74208330D01*
X127096218Y-74228847D01*
X127106446Y-74250471D01*
X127114504Y-74272993D01*
X127120316Y-74296197D01*
X127123826Y-74319858D01*
X127125000Y-74343750D01*
X127125000Y-75256250D01*
X127123826Y-75280142D01*
X127120316Y-75303803D01*
X127114504Y-75327007D01*
X127106446Y-75349529D01*
X127096218Y-75371153D01*
X127083921Y-75391670D01*
X127069671Y-75410883D01*
X127053607Y-75428607D01*
X127035883Y-75444671D01*
X127016670Y-75458921D01*
X126996153Y-75471218D01*
X126974529Y-75481446D01*
X126952007Y-75489504D01*
X126928803Y-75495316D01*
X126905142Y-75498826D01*
X126881250Y-75500000D01*
X126393750Y-75500000D01*
X126369858Y-75498826D01*
X126346197Y-75495316D01*
X126322993Y-75489504D01*
X126300471Y-75481446D01*
X126278847Y-75471218D01*
X126258330Y-75458921D01*
X126239117Y-75444671D01*
X126221393Y-75428607D01*
X126205329Y-75410883D01*
X126191079Y-75391670D01*
X126178782Y-75371153D01*
X126168554Y-75349529D01*
X126160496Y-75327007D01*
X126154684Y-75303803D01*
X126151174Y-75280142D01*
X126150000Y-75256250D01*
X126150000Y-74343750D01*
X126151174Y-74319858D01*
X126154684Y-74296197D01*
X126160496Y-74272993D01*
X126168554Y-74250471D01*
X126178782Y-74228847D01*
X126191079Y-74208330D01*
X126205329Y-74189117D01*
X126221393Y-74171393D01*
X126239117Y-74155329D01*
X126258330Y-74141079D01*
X126278847Y-74128782D01*
X126300471Y-74118554D01*
X126322993Y-74110496D01*
X126346197Y-74104684D01*
X126369858Y-74101174D01*
X126393750Y-74100000D01*
X126881250Y-74100000D01*
X126905142Y-74101174D01*
X126905142Y-74101174D01*
G37*
D12*
X126637500Y-74800000D03*
G04 #@! TD*
D11*
G04 #@! TO.C,R7*
G36*
X125030142Y-84601174D02*
X125053803Y-84604684D01*
X125077007Y-84610496D01*
X125099529Y-84618554D01*
X125121153Y-84628782D01*
X125141670Y-84641079D01*
X125160883Y-84655329D01*
X125178607Y-84671393D01*
X125194671Y-84689117D01*
X125208921Y-84708330D01*
X125221218Y-84728847D01*
X125231446Y-84750471D01*
X125239504Y-84772993D01*
X125245316Y-84796197D01*
X125248826Y-84819858D01*
X125250000Y-84843750D01*
X125250000Y-85756250D01*
X125248826Y-85780142D01*
X125245316Y-85803803D01*
X125239504Y-85827007D01*
X125231446Y-85849529D01*
X125221218Y-85871153D01*
X125208921Y-85891670D01*
X125194671Y-85910883D01*
X125178607Y-85928607D01*
X125160883Y-85944671D01*
X125141670Y-85958921D01*
X125121153Y-85971218D01*
X125099529Y-85981446D01*
X125077007Y-85989504D01*
X125053803Y-85995316D01*
X125030142Y-85998826D01*
X125006250Y-86000000D01*
X124518750Y-86000000D01*
X124494858Y-85998826D01*
X124471197Y-85995316D01*
X124447993Y-85989504D01*
X124425471Y-85981446D01*
X124403847Y-85971218D01*
X124383330Y-85958921D01*
X124364117Y-85944671D01*
X124346393Y-85928607D01*
X124330329Y-85910883D01*
X124316079Y-85891670D01*
X124303782Y-85871153D01*
X124293554Y-85849529D01*
X124285496Y-85827007D01*
X124279684Y-85803803D01*
X124276174Y-85780142D01*
X124275000Y-85756250D01*
X124275000Y-84843750D01*
X124276174Y-84819858D01*
X124279684Y-84796197D01*
X124285496Y-84772993D01*
X124293554Y-84750471D01*
X124303782Y-84728847D01*
X124316079Y-84708330D01*
X124330329Y-84689117D01*
X124346393Y-84671393D01*
X124364117Y-84655329D01*
X124383330Y-84641079D01*
X124403847Y-84628782D01*
X124425471Y-84618554D01*
X124447993Y-84610496D01*
X124471197Y-84604684D01*
X124494858Y-84601174D01*
X124518750Y-84600000D01*
X125006250Y-84600000D01*
X125030142Y-84601174D01*
X125030142Y-84601174D01*
G37*
D12*
X124762500Y-85300000D03*
D11*
G36*
X126905142Y-84601174D02*
X126928803Y-84604684D01*
X126952007Y-84610496D01*
X126974529Y-84618554D01*
X126996153Y-84628782D01*
X127016670Y-84641079D01*
X127035883Y-84655329D01*
X127053607Y-84671393D01*
X127069671Y-84689117D01*
X127083921Y-84708330D01*
X127096218Y-84728847D01*
X127106446Y-84750471D01*
X127114504Y-84772993D01*
X127120316Y-84796197D01*
X127123826Y-84819858D01*
X127125000Y-84843750D01*
X127125000Y-85756250D01*
X127123826Y-85780142D01*
X127120316Y-85803803D01*
X127114504Y-85827007D01*
X127106446Y-85849529D01*
X127096218Y-85871153D01*
X127083921Y-85891670D01*
X127069671Y-85910883D01*
X127053607Y-85928607D01*
X127035883Y-85944671D01*
X127016670Y-85958921D01*
X126996153Y-85971218D01*
X126974529Y-85981446D01*
X126952007Y-85989504D01*
X126928803Y-85995316D01*
X126905142Y-85998826D01*
X126881250Y-86000000D01*
X126393750Y-86000000D01*
X126369858Y-85998826D01*
X126346197Y-85995316D01*
X126322993Y-85989504D01*
X126300471Y-85981446D01*
X126278847Y-85971218D01*
X126258330Y-85958921D01*
X126239117Y-85944671D01*
X126221393Y-85928607D01*
X126205329Y-85910883D01*
X126191079Y-85891670D01*
X126178782Y-85871153D01*
X126168554Y-85849529D01*
X126160496Y-85827007D01*
X126154684Y-85803803D01*
X126151174Y-85780142D01*
X126150000Y-85756250D01*
X126150000Y-84843750D01*
X126151174Y-84819858D01*
X126154684Y-84796197D01*
X126160496Y-84772993D01*
X126168554Y-84750471D01*
X126178782Y-84728847D01*
X126191079Y-84708330D01*
X126205329Y-84689117D01*
X126221393Y-84671393D01*
X126239117Y-84655329D01*
X126258330Y-84641079D01*
X126278847Y-84628782D01*
X126300471Y-84618554D01*
X126322993Y-84610496D01*
X126346197Y-84604684D01*
X126369858Y-84601174D01*
X126393750Y-84600000D01*
X126881250Y-84600000D01*
X126905142Y-84601174D01*
X126905142Y-84601174D01*
G37*
D12*
X126637500Y-85300000D03*
G04 #@! TD*
D11*
G04 #@! TO.C,R11*
G36*
X121980142Y-77376174D02*
X122003803Y-77379684D01*
X122027007Y-77385496D01*
X122049529Y-77393554D01*
X122071153Y-77403782D01*
X122091670Y-77416079D01*
X122110883Y-77430329D01*
X122128607Y-77446393D01*
X122144671Y-77464117D01*
X122158921Y-77483330D01*
X122171218Y-77503847D01*
X122181446Y-77525471D01*
X122189504Y-77547993D01*
X122195316Y-77571197D01*
X122198826Y-77594858D01*
X122200000Y-77618750D01*
X122200000Y-78106250D01*
X122198826Y-78130142D01*
X122195316Y-78153803D01*
X122189504Y-78177007D01*
X122181446Y-78199529D01*
X122171218Y-78221153D01*
X122158921Y-78241670D01*
X122144671Y-78260883D01*
X122128607Y-78278607D01*
X122110883Y-78294671D01*
X122091670Y-78308921D01*
X122071153Y-78321218D01*
X122049529Y-78331446D01*
X122027007Y-78339504D01*
X122003803Y-78345316D01*
X121980142Y-78348826D01*
X121956250Y-78350000D01*
X121043750Y-78350000D01*
X121019858Y-78348826D01*
X120996197Y-78345316D01*
X120972993Y-78339504D01*
X120950471Y-78331446D01*
X120928847Y-78321218D01*
X120908330Y-78308921D01*
X120889117Y-78294671D01*
X120871393Y-78278607D01*
X120855329Y-78260883D01*
X120841079Y-78241670D01*
X120828782Y-78221153D01*
X120818554Y-78199529D01*
X120810496Y-78177007D01*
X120804684Y-78153803D01*
X120801174Y-78130142D01*
X120800000Y-78106250D01*
X120800000Y-77618750D01*
X120801174Y-77594858D01*
X120804684Y-77571197D01*
X120810496Y-77547993D01*
X120818554Y-77525471D01*
X120828782Y-77503847D01*
X120841079Y-77483330D01*
X120855329Y-77464117D01*
X120871393Y-77446393D01*
X120889117Y-77430329D01*
X120908330Y-77416079D01*
X120928847Y-77403782D01*
X120950471Y-77393554D01*
X120972993Y-77385496D01*
X120996197Y-77379684D01*
X121019858Y-77376174D01*
X121043750Y-77375000D01*
X121956250Y-77375000D01*
X121980142Y-77376174D01*
X121980142Y-77376174D01*
G37*
D12*
X121500000Y-77862500D03*
D11*
G36*
X121980142Y-79251174D02*
X122003803Y-79254684D01*
X122027007Y-79260496D01*
X122049529Y-79268554D01*
X122071153Y-79278782D01*
X122091670Y-79291079D01*
X122110883Y-79305329D01*
X122128607Y-79321393D01*
X122144671Y-79339117D01*
X122158921Y-79358330D01*
X122171218Y-79378847D01*
X122181446Y-79400471D01*
X122189504Y-79422993D01*
X122195316Y-79446197D01*
X122198826Y-79469858D01*
X122200000Y-79493750D01*
X122200000Y-79981250D01*
X122198826Y-80005142D01*
X122195316Y-80028803D01*
X122189504Y-80052007D01*
X122181446Y-80074529D01*
X122171218Y-80096153D01*
X122158921Y-80116670D01*
X122144671Y-80135883D01*
X122128607Y-80153607D01*
X122110883Y-80169671D01*
X122091670Y-80183921D01*
X122071153Y-80196218D01*
X122049529Y-80206446D01*
X122027007Y-80214504D01*
X122003803Y-80220316D01*
X121980142Y-80223826D01*
X121956250Y-80225000D01*
X121043750Y-80225000D01*
X121019858Y-80223826D01*
X120996197Y-80220316D01*
X120972993Y-80214504D01*
X120950471Y-80206446D01*
X120928847Y-80196218D01*
X120908330Y-80183921D01*
X120889117Y-80169671D01*
X120871393Y-80153607D01*
X120855329Y-80135883D01*
X120841079Y-80116670D01*
X120828782Y-80096153D01*
X120818554Y-80074529D01*
X120810496Y-80052007D01*
X120804684Y-80028803D01*
X120801174Y-80005142D01*
X120800000Y-79981250D01*
X120800000Y-79493750D01*
X120801174Y-79469858D01*
X120804684Y-79446197D01*
X120810496Y-79422993D01*
X120818554Y-79400471D01*
X120828782Y-79378847D01*
X120841079Y-79358330D01*
X120855329Y-79339117D01*
X120871393Y-79321393D01*
X120889117Y-79305329D01*
X120908330Y-79291079D01*
X120928847Y-79278782D01*
X120950471Y-79268554D01*
X120972993Y-79260496D01*
X120996197Y-79254684D01*
X121019858Y-79251174D01*
X121043750Y-79250000D01*
X121956250Y-79250000D01*
X121980142Y-79251174D01*
X121980142Y-79251174D01*
G37*
D12*
X121500000Y-79737500D03*
G04 #@! TD*
D11*
G04 #@! TO.C,R14*
G36*
X139180142Y-84701174D02*
X139203803Y-84704684D01*
X139227007Y-84710496D01*
X139249529Y-84718554D01*
X139271153Y-84728782D01*
X139291670Y-84741079D01*
X139310883Y-84755329D01*
X139328607Y-84771393D01*
X139344671Y-84789117D01*
X139358921Y-84808330D01*
X139371218Y-84828847D01*
X139381446Y-84850471D01*
X139389504Y-84872993D01*
X139395316Y-84896197D01*
X139398826Y-84919858D01*
X139400000Y-84943750D01*
X139400000Y-85431250D01*
X139398826Y-85455142D01*
X139395316Y-85478803D01*
X139389504Y-85502007D01*
X139381446Y-85524529D01*
X139371218Y-85546153D01*
X139358921Y-85566670D01*
X139344671Y-85585883D01*
X139328607Y-85603607D01*
X139310883Y-85619671D01*
X139291670Y-85633921D01*
X139271153Y-85646218D01*
X139249529Y-85656446D01*
X139227007Y-85664504D01*
X139203803Y-85670316D01*
X139180142Y-85673826D01*
X139156250Y-85675000D01*
X138243750Y-85675000D01*
X138219858Y-85673826D01*
X138196197Y-85670316D01*
X138172993Y-85664504D01*
X138150471Y-85656446D01*
X138128847Y-85646218D01*
X138108330Y-85633921D01*
X138089117Y-85619671D01*
X138071393Y-85603607D01*
X138055329Y-85585883D01*
X138041079Y-85566670D01*
X138028782Y-85546153D01*
X138018554Y-85524529D01*
X138010496Y-85502007D01*
X138004684Y-85478803D01*
X138001174Y-85455142D01*
X138000000Y-85431250D01*
X138000000Y-84943750D01*
X138001174Y-84919858D01*
X138004684Y-84896197D01*
X138010496Y-84872993D01*
X138018554Y-84850471D01*
X138028782Y-84828847D01*
X138041079Y-84808330D01*
X138055329Y-84789117D01*
X138071393Y-84771393D01*
X138089117Y-84755329D01*
X138108330Y-84741079D01*
X138128847Y-84728782D01*
X138150471Y-84718554D01*
X138172993Y-84710496D01*
X138196197Y-84704684D01*
X138219858Y-84701174D01*
X138243750Y-84700000D01*
X139156250Y-84700000D01*
X139180142Y-84701174D01*
X139180142Y-84701174D01*
G37*
D12*
X138700000Y-85187500D03*
D11*
G36*
X139180142Y-82826174D02*
X139203803Y-82829684D01*
X139227007Y-82835496D01*
X139249529Y-82843554D01*
X139271153Y-82853782D01*
X139291670Y-82866079D01*
X139310883Y-82880329D01*
X139328607Y-82896393D01*
X139344671Y-82914117D01*
X139358921Y-82933330D01*
X139371218Y-82953847D01*
X139381446Y-82975471D01*
X139389504Y-82997993D01*
X139395316Y-83021197D01*
X139398826Y-83044858D01*
X139400000Y-83068750D01*
X139400000Y-83556250D01*
X139398826Y-83580142D01*
X139395316Y-83603803D01*
X139389504Y-83627007D01*
X139381446Y-83649529D01*
X139371218Y-83671153D01*
X139358921Y-83691670D01*
X139344671Y-83710883D01*
X139328607Y-83728607D01*
X139310883Y-83744671D01*
X139291670Y-83758921D01*
X139271153Y-83771218D01*
X139249529Y-83781446D01*
X139227007Y-83789504D01*
X139203803Y-83795316D01*
X139180142Y-83798826D01*
X139156250Y-83800000D01*
X138243750Y-83800000D01*
X138219858Y-83798826D01*
X138196197Y-83795316D01*
X138172993Y-83789504D01*
X138150471Y-83781446D01*
X138128847Y-83771218D01*
X138108330Y-83758921D01*
X138089117Y-83744671D01*
X138071393Y-83728607D01*
X138055329Y-83710883D01*
X138041079Y-83691670D01*
X138028782Y-83671153D01*
X138018554Y-83649529D01*
X138010496Y-83627007D01*
X138004684Y-83603803D01*
X138001174Y-83580142D01*
X138000000Y-83556250D01*
X138000000Y-83068750D01*
X138001174Y-83044858D01*
X138004684Y-83021197D01*
X138010496Y-82997993D01*
X138018554Y-82975471D01*
X138028782Y-82953847D01*
X138041079Y-82933330D01*
X138055329Y-82914117D01*
X138071393Y-82896393D01*
X138089117Y-82880329D01*
X138108330Y-82866079D01*
X138128847Y-82853782D01*
X138150471Y-82843554D01*
X138172993Y-82835496D01*
X138196197Y-82829684D01*
X138219858Y-82826174D01*
X138243750Y-82825000D01*
X139156250Y-82825000D01*
X139180142Y-82826174D01*
X139180142Y-82826174D01*
G37*
D12*
X138700000Y-83312500D03*
G04 #@! TD*
D11*
G04 #@! TO.C,R15*
G36*
X164940142Y-98451174D02*
X164963803Y-98454684D01*
X164987007Y-98460496D01*
X165009529Y-98468554D01*
X165031153Y-98478782D01*
X165051670Y-98491079D01*
X165070883Y-98505329D01*
X165088607Y-98521393D01*
X165104671Y-98539117D01*
X165118921Y-98558330D01*
X165131218Y-98578847D01*
X165141446Y-98600471D01*
X165149504Y-98622993D01*
X165155316Y-98646197D01*
X165158826Y-98669858D01*
X165160000Y-98693750D01*
X165160000Y-99181250D01*
X165158826Y-99205142D01*
X165155316Y-99228803D01*
X165149504Y-99252007D01*
X165141446Y-99274529D01*
X165131218Y-99296153D01*
X165118921Y-99316670D01*
X165104671Y-99335883D01*
X165088607Y-99353607D01*
X165070883Y-99369671D01*
X165051670Y-99383921D01*
X165031153Y-99396218D01*
X165009529Y-99406446D01*
X164987007Y-99414504D01*
X164963803Y-99420316D01*
X164940142Y-99423826D01*
X164916250Y-99425000D01*
X164003750Y-99425000D01*
X163979858Y-99423826D01*
X163956197Y-99420316D01*
X163932993Y-99414504D01*
X163910471Y-99406446D01*
X163888847Y-99396218D01*
X163868330Y-99383921D01*
X163849117Y-99369671D01*
X163831393Y-99353607D01*
X163815329Y-99335883D01*
X163801079Y-99316670D01*
X163788782Y-99296153D01*
X163778554Y-99274529D01*
X163770496Y-99252007D01*
X163764684Y-99228803D01*
X163761174Y-99205142D01*
X163760000Y-99181250D01*
X163760000Y-98693750D01*
X163761174Y-98669858D01*
X163764684Y-98646197D01*
X163770496Y-98622993D01*
X163778554Y-98600471D01*
X163788782Y-98578847D01*
X163801079Y-98558330D01*
X163815329Y-98539117D01*
X163831393Y-98521393D01*
X163849117Y-98505329D01*
X163868330Y-98491079D01*
X163888847Y-98478782D01*
X163910471Y-98468554D01*
X163932993Y-98460496D01*
X163956197Y-98454684D01*
X163979858Y-98451174D01*
X164003750Y-98450000D01*
X164916250Y-98450000D01*
X164940142Y-98451174D01*
X164940142Y-98451174D01*
G37*
D12*
X164460000Y-98937500D03*
D11*
G36*
X164940142Y-96576174D02*
X164963803Y-96579684D01*
X164987007Y-96585496D01*
X165009529Y-96593554D01*
X165031153Y-96603782D01*
X165051670Y-96616079D01*
X165070883Y-96630329D01*
X165088607Y-96646393D01*
X165104671Y-96664117D01*
X165118921Y-96683330D01*
X165131218Y-96703847D01*
X165141446Y-96725471D01*
X165149504Y-96747993D01*
X165155316Y-96771197D01*
X165158826Y-96794858D01*
X165160000Y-96818750D01*
X165160000Y-97306250D01*
X165158826Y-97330142D01*
X165155316Y-97353803D01*
X165149504Y-97377007D01*
X165141446Y-97399529D01*
X165131218Y-97421153D01*
X165118921Y-97441670D01*
X165104671Y-97460883D01*
X165088607Y-97478607D01*
X165070883Y-97494671D01*
X165051670Y-97508921D01*
X165031153Y-97521218D01*
X165009529Y-97531446D01*
X164987007Y-97539504D01*
X164963803Y-97545316D01*
X164940142Y-97548826D01*
X164916250Y-97550000D01*
X164003750Y-97550000D01*
X163979858Y-97548826D01*
X163956197Y-97545316D01*
X163932993Y-97539504D01*
X163910471Y-97531446D01*
X163888847Y-97521218D01*
X163868330Y-97508921D01*
X163849117Y-97494671D01*
X163831393Y-97478607D01*
X163815329Y-97460883D01*
X163801079Y-97441670D01*
X163788782Y-97421153D01*
X163778554Y-97399529D01*
X163770496Y-97377007D01*
X163764684Y-97353803D01*
X163761174Y-97330142D01*
X163760000Y-97306250D01*
X163760000Y-96818750D01*
X163761174Y-96794858D01*
X163764684Y-96771197D01*
X163770496Y-96747993D01*
X163778554Y-96725471D01*
X163788782Y-96703847D01*
X163801079Y-96683330D01*
X163815329Y-96664117D01*
X163831393Y-96646393D01*
X163849117Y-96630329D01*
X163868330Y-96616079D01*
X163888847Y-96603782D01*
X163910471Y-96593554D01*
X163932993Y-96585496D01*
X163956197Y-96579684D01*
X163979858Y-96576174D01*
X164003750Y-96575000D01*
X164916250Y-96575000D01*
X164940142Y-96576174D01*
X164940142Y-96576174D01*
G37*
D12*
X164460000Y-97062500D03*
G04 #@! TD*
D11*
G04 #@! TO.C,R20*
G36*
X133680142Y-82826174D02*
X133703803Y-82829684D01*
X133727007Y-82835496D01*
X133749529Y-82843554D01*
X133771153Y-82853782D01*
X133791670Y-82866079D01*
X133810883Y-82880329D01*
X133828607Y-82896393D01*
X133844671Y-82914117D01*
X133858921Y-82933330D01*
X133871218Y-82953847D01*
X133881446Y-82975471D01*
X133889504Y-82997993D01*
X133895316Y-83021197D01*
X133898826Y-83044858D01*
X133900000Y-83068750D01*
X133900000Y-83556250D01*
X133898826Y-83580142D01*
X133895316Y-83603803D01*
X133889504Y-83627007D01*
X133881446Y-83649529D01*
X133871218Y-83671153D01*
X133858921Y-83691670D01*
X133844671Y-83710883D01*
X133828607Y-83728607D01*
X133810883Y-83744671D01*
X133791670Y-83758921D01*
X133771153Y-83771218D01*
X133749529Y-83781446D01*
X133727007Y-83789504D01*
X133703803Y-83795316D01*
X133680142Y-83798826D01*
X133656250Y-83800000D01*
X132743750Y-83800000D01*
X132719858Y-83798826D01*
X132696197Y-83795316D01*
X132672993Y-83789504D01*
X132650471Y-83781446D01*
X132628847Y-83771218D01*
X132608330Y-83758921D01*
X132589117Y-83744671D01*
X132571393Y-83728607D01*
X132555329Y-83710883D01*
X132541079Y-83691670D01*
X132528782Y-83671153D01*
X132518554Y-83649529D01*
X132510496Y-83627007D01*
X132504684Y-83603803D01*
X132501174Y-83580142D01*
X132500000Y-83556250D01*
X132500000Y-83068750D01*
X132501174Y-83044858D01*
X132504684Y-83021197D01*
X132510496Y-82997993D01*
X132518554Y-82975471D01*
X132528782Y-82953847D01*
X132541079Y-82933330D01*
X132555329Y-82914117D01*
X132571393Y-82896393D01*
X132589117Y-82880329D01*
X132608330Y-82866079D01*
X132628847Y-82853782D01*
X132650471Y-82843554D01*
X132672993Y-82835496D01*
X132696197Y-82829684D01*
X132719858Y-82826174D01*
X132743750Y-82825000D01*
X133656250Y-82825000D01*
X133680142Y-82826174D01*
X133680142Y-82826174D01*
G37*
D12*
X133200000Y-83312500D03*
D11*
G36*
X133680142Y-84701174D02*
X133703803Y-84704684D01*
X133727007Y-84710496D01*
X133749529Y-84718554D01*
X133771153Y-84728782D01*
X133791670Y-84741079D01*
X133810883Y-84755329D01*
X133828607Y-84771393D01*
X133844671Y-84789117D01*
X133858921Y-84808330D01*
X133871218Y-84828847D01*
X133881446Y-84850471D01*
X133889504Y-84872993D01*
X133895316Y-84896197D01*
X133898826Y-84919858D01*
X133900000Y-84943750D01*
X133900000Y-85431250D01*
X133898826Y-85455142D01*
X133895316Y-85478803D01*
X133889504Y-85502007D01*
X133881446Y-85524529D01*
X133871218Y-85546153D01*
X133858921Y-85566670D01*
X133844671Y-85585883D01*
X133828607Y-85603607D01*
X133810883Y-85619671D01*
X133791670Y-85633921D01*
X133771153Y-85646218D01*
X133749529Y-85656446D01*
X133727007Y-85664504D01*
X133703803Y-85670316D01*
X133680142Y-85673826D01*
X133656250Y-85675000D01*
X132743750Y-85675000D01*
X132719858Y-85673826D01*
X132696197Y-85670316D01*
X132672993Y-85664504D01*
X132650471Y-85656446D01*
X132628847Y-85646218D01*
X132608330Y-85633921D01*
X132589117Y-85619671D01*
X132571393Y-85603607D01*
X132555329Y-85585883D01*
X132541079Y-85566670D01*
X132528782Y-85546153D01*
X132518554Y-85524529D01*
X132510496Y-85502007D01*
X132504684Y-85478803D01*
X132501174Y-85455142D01*
X132500000Y-85431250D01*
X132500000Y-84943750D01*
X132501174Y-84919858D01*
X132504684Y-84896197D01*
X132510496Y-84872993D01*
X132518554Y-84850471D01*
X132528782Y-84828847D01*
X132541079Y-84808330D01*
X132555329Y-84789117D01*
X132571393Y-84771393D01*
X132589117Y-84755329D01*
X132608330Y-84741079D01*
X132628847Y-84728782D01*
X132650471Y-84718554D01*
X132672993Y-84710496D01*
X132696197Y-84704684D01*
X132719858Y-84701174D01*
X132743750Y-84700000D01*
X133656250Y-84700000D01*
X133680142Y-84701174D01*
X133680142Y-84701174D01*
G37*
D12*
X133200000Y-85187500D03*
G04 #@! TD*
D16*
G04 #@! TO.C,SW2*
X142500000Y-76425000D03*
X145000000Y-76425000D03*
X147500000Y-76425000D03*
X142500000Y-82075000D03*
X145000000Y-82075000D03*
X147500000Y-82075000D03*
G04 #@! TD*
D19*
G04 #@! TO.C,U1*
X138650000Y-81155000D03*
X138650000Y-79885000D03*
X138650000Y-78615000D03*
X138650000Y-77345000D03*
X133250000Y-77345000D03*
X133250000Y-78615000D03*
X133250000Y-79885000D03*
X133250000Y-81155000D03*
G04 #@! TD*
D11*
G04 #@! TO.C,D2*
G36*
X191260142Y-81741174D02*
X191283803Y-81744684D01*
X191307007Y-81750496D01*
X191329529Y-81758554D01*
X191351153Y-81768782D01*
X191371670Y-81781079D01*
X191390883Y-81795329D01*
X191408607Y-81811393D01*
X191424671Y-81829117D01*
X191438921Y-81848330D01*
X191451218Y-81868847D01*
X191461446Y-81890471D01*
X191469504Y-81912993D01*
X191475316Y-81936197D01*
X191478826Y-81959858D01*
X191480000Y-81983750D01*
X191480000Y-82896250D01*
X191478826Y-82920142D01*
X191475316Y-82943803D01*
X191469504Y-82967007D01*
X191461446Y-82989529D01*
X191451218Y-83011153D01*
X191438921Y-83031670D01*
X191424671Y-83050883D01*
X191408607Y-83068607D01*
X191390883Y-83084671D01*
X191371670Y-83098921D01*
X191351153Y-83111218D01*
X191329529Y-83121446D01*
X191307007Y-83129504D01*
X191283803Y-83135316D01*
X191260142Y-83138826D01*
X191236250Y-83140000D01*
X190748750Y-83140000D01*
X190724858Y-83138826D01*
X190701197Y-83135316D01*
X190677993Y-83129504D01*
X190655471Y-83121446D01*
X190633847Y-83111218D01*
X190613330Y-83098921D01*
X190594117Y-83084671D01*
X190576393Y-83068607D01*
X190560329Y-83050883D01*
X190546079Y-83031670D01*
X190533782Y-83011153D01*
X190523554Y-82989529D01*
X190515496Y-82967007D01*
X190509684Y-82943803D01*
X190506174Y-82920142D01*
X190505000Y-82896250D01*
X190505000Y-81983750D01*
X190506174Y-81959858D01*
X190509684Y-81936197D01*
X190515496Y-81912993D01*
X190523554Y-81890471D01*
X190533782Y-81868847D01*
X190546079Y-81848330D01*
X190560329Y-81829117D01*
X190576393Y-81811393D01*
X190594117Y-81795329D01*
X190613330Y-81781079D01*
X190633847Y-81768782D01*
X190655471Y-81758554D01*
X190677993Y-81750496D01*
X190701197Y-81744684D01*
X190724858Y-81741174D01*
X190748750Y-81740000D01*
X191236250Y-81740000D01*
X191260142Y-81741174D01*
X191260142Y-81741174D01*
G37*
D12*
X190992500Y-82440000D03*
D11*
G36*
X193135142Y-81741174D02*
X193158803Y-81744684D01*
X193182007Y-81750496D01*
X193204529Y-81758554D01*
X193226153Y-81768782D01*
X193246670Y-81781079D01*
X193265883Y-81795329D01*
X193283607Y-81811393D01*
X193299671Y-81829117D01*
X193313921Y-81848330D01*
X193326218Y-81868847D01*
X193336446Y-81890471D01*
X193344504Y-81912993D01*
X193350316Y-81936197D01*
X193353826Y-81959858D01*
X193355000Y-81983750D01*
X193355000Y-82896250D01*
X193353826Y-82920142D01*
X193350316Y-82943803D01*
X193344504Y-82967007D01*
X193336446Y-82989529D01*
X193326218Y-83011153D01*
X193313921Y-83031670D01*
X193299671Y-83050883D01*
X193283607Y-83068607D01*
X193265883Y-83084671D01*
X193246670Y-83098921D01*
X193226153Y-83111218D01*
X193204529Y-83121446D01*
X193182007Y-83129504D01*
X193158803Y-83135316D01*
X193135142Y-83138826D01*
X193111250Y-83140000D01*
X192623750Y-83140000D01*
X192599858Y-83138826D01*
X192576197Y-83135316D01*
X192552993Y-83129504D01*
X192530471Y-83121446D01*
X192508847Y-83111218D01*
X192488330Y-83098921D01*
X192469117Y-83084671D01*
X192451393Y-83068607D01*
X192435329Y-83050883D01*
X192421079Y-83031670D01*
X192408782Y-83011153D01*
X192398554Y-82989529D01*
X192390496Y-82967007D01*
X192384684Y-82943803D01*
X192381174Y-82920142D01*
X192380000Y-82896250D01*
X192380000Y-81983750D01*
X192381174Y-81959858D01*
X192384684Y-81936197D01*
X192390496Y-81912993D01*
X192398554Y-81890471D01*
X192408782Y-81868847D01*
X192421079Y-81848330D01*
X192435329Y-81829117D01*
X192451393Y-81811393D01*
X192469117Y-81795329D01*
X192488330Y-81781079D01*
X192508847Y-81768782D01*
X192530471Y-81758554D01*
X192552993Y-81750496D01*
X192576197Y-81744684D01*
X192599858Y-81741174D01*
X192623750Y-81740000D01*
X193111250Y-81740000D01*
X193135142Y-81741174D01*
X193135142Y-81741174D01*
G37*
D12*
X192867500Y-82440000D03*
G04 #@! TD*
D10*
G04 #@! TO.C,Q3*
X191930000Y-76940000D03*
X190980000Y-74940000D03*
X192880000Y-74940000D03*
G04 #@! TD*
D11*
G04 #@! TO.C,R22*
G36*
X191260142Y-78241174D02*
X191283803Y-78244684D01*
X191307007Y-78250496D01*
X191329529Y-78258554D01*
X191351153Y-78268782D01*
X191371670Y-78281079D01*
X191390883Y-78295329D01*
X191408607Y-78311393D01*
X191424671Y-78329117D01*
X191438921Y-78348330D01*
X191451218Y-78368847D01*
X191461446Y-78390471D01*
X191469504Y-78412993D01*
X191475316Y-78436197D01*
X191478826Y-78459858D01*
X191480000Y-78483750D01*
X191480000Y-79396250D01*
X191478826Y-79420142D01*
X191475316Y-79443803D01*
X191469504Y-79467007D01*
X191461446Y-79489529D01*
X191451218Y-79511153D01*
X191438921Y-79531670D01*
X191424671Y-79550883D01*
X191408607Y-79568607D01*
X191390883Y-79584671D01*
X191371670Y-79598921D01*
X191351153Y-79611218D01*
X191329529Y-79621446D01*
X191307007Y-79629504D01*
X191283803Y-79635316D01*
X191260142Y-79638826D01*
X191236250Y-79640000D01*
X190748750Y-79640000D01*
X190724858Y-79638826D01*
X190701197Y-79635316D01*
X190677993Y-79629504D01*
X190655471Y-79621446D01*
X190633847Y-79611218D01*
X190613330Y-79598921D01*
X190594117Y-79584671D01*
X190576393Y-79568607D01*
X190560329Y-79550883D01*
X190546079Y-79531670D01*
X190533782Y-79511153D01*
X190523554Y-79489529D01*
X190515496Y-79467007D01*
X190509684Y-79443803D01*
X190506174Y-79420142D01*
X190505000Y-79396250D01*
X190505000Y-78483750D01*
X190506174Y-78459858D01*
X190509684Y-78436197D01*
X190515496Y-78412993D01*
X190523554Y-78390471D01*
X190533782Y-78368847D01*
X190546079Y-78348330D01*
X190560329Y-78329117D01*
X190576393Y-78311393D01*
X190594117Y-78295329D01*
X190613330Y-78281079D01*
X190633847Y-78268782D01*
X190655471Y-78258554D01*
X190677993Y-78250496D01*
X190701197Y-78244684D01*
X190724858Y-78241174D01*
X190748750Y-78240000D01*
X191236250Y-78240000D01*
X191260142Y-78241174D01*
X191260142Y-78241174D01*
G37*
D12*
X190992500Y-78940000D03*
D11*
G36*
X193135142Y-78241174D02*
X193158803Y-78244684D01*
X193182007Y-78250496D01*
X193204529Y-78258554D01*
X193226153Y-78268782D01*
X193246670Y-78281079D01*
X193265883Y-78295329D01*
X193283607Y-78311393D01*
X193299671Y-78329117D01*
X193313921Y-78348330D01*
X193326218Y-78368847D01*
X193336446Y-78390471D01*
X193344504Y-78412993D01*
X193350316Y-78436197D01*
X193353826Y-78459858D01*
X193355000Y-78483750D01*
X193355000Y-79396250D01*
X193353826Y-79420142D01*
X193350316Y-79443803D01*
X193344504Y-79467007D01*
X193336446Y-79489529D01*
X193326218Y-79511153D01*
X193313921Y-79531670D01*
X193299671Y-79550883D01*
X193283607Y-79568607D01*
X193265883Y-79584671D01*
X193246670Y-79598921D01*
X193226153Y-79611218D01*
X193204529Y-79621446D01*
X193182007Y-79629504D01*
X193158803Y-79635316D01*
X193135142Y-79638826D01*
X193111250Y-79640000D01*
X192623750Y-79640000D01*
X192599858Y-79638826D01*
X192576197Y-79635316D01*
X192552993Y-79629504D01*
X192530471Y-79621446D01*
X192508847Y-79611218D01*
X192488330Y-79598921D01*
X192469117Y-79584671D01*
X192451393Y-79568607D01*
X192435329Y-79550883D01*
X192421079Y-79531670D01*
X192408782Y-79511153D01*
X192398554Y-79489529D01*
X192390496Y-79467007D01*
X192384684Y-79443803D01*
X192381174Y-79420142D01*
X192380000Y-79396250D01*
X192380000Y-78483750D01*
X192381174Y-78459858D01*
X192384684Y-78436197D01*
X192390496Y-78412993D01*
X192398554Y-78390471D01*
X192408782Y-78368847D01*
X192421079Y-78348330D01*
X192435329Y-78329117D01*
X192451393Y-78311393D01*
X192469117Y-78295329D01*
X192488330Y-78281079D01*
X192508847Y-78268782D01*
X192530471Y-78258554D01*
X192552993Y-78250496D01*
X192576197Y-78244684D01*
X192599858Y-78241174D01*
X192623750Y-78240000D01*
X193111250Y-78240000D01*
X193135142Y-78241174D01*
X193135142Y-78241174D01*
G37*
D12*
X192867500Y-78940000D03*
G04 #@! TD*
M02*
