G04 #@! TF.GenerationSoftware,KiCad,Pcbnew,5.0.2+dfsg1-1*
G04 #@! TF.CreationDate,2019-08-13T10:38:28+09:00*
G04 #@! TF.ProjectId,portal_shield_for_arduino_due,706f7274-616c-45f7-9368-69656c645f66,rev?*
G04 #@! TF.SameCoordinates,Original*
G04 #@! TF.FileFunction,Soldermask,Bot*
G04 #@! TF.FilePolarity,Negative*
%FSLAX46Y46*%
G04 Gerber Fmt 4.6, Leading zero omitted, Abs format (unit mm)*
G04 Created by KiCad (PCBNEW 5.0.2+dfsg1-1) date Tue 13 Aug 2019 10:38:28 AM KST*
%MOMM*%
%LPD*%
G01*
G04 APERTURE LIST*
%ADD10C,0.100000*%
G04 APERTURE END LIST*
D10*
G36*
X200490712Y-117172088D02*
X200860510Y-117325263D01*
X200860513Y-117325265D01*
X201193325Y-117547643D01*
X201476357Y-117830675D01*
X201660204Y-118105822D01*
X201698737Y-118163490D01*
X201851912Y-118533288D01*
X201930000Y-118925864D01*
X201930000Y-119326136D01*
X201851912Y-119718712D01*
X201698737Y-120088510D01*
X201698735Y-120088513D01*
X201476357Y-120421325D01*
X201193325Y-120704357D01*
X200860513Y-120926735D01*
X200860510Y-120926737D01*
X200490712Y-121079912D01*
X200098136Y-121158000D01*
X199697864Y-121158000D01*
X199305288Y-121079912D01*
X198935490Y-120926737D01*
X198935487Y-120926735D01*
X198602675Y-120704357D01*
X198319643Y-120421325D01*
X198097265Y-120088513D01*
X198097263Y-120088510D01*
X197944088Y-119718712D01*
X197866000Y-119326136D01*
X197866000Y-118925864D01*
X197944088Y-118533288D01*
X198097263Y-118163490D01*
X198135796Y-118105822D01*
X198319643Y-117830675D01*
X198602675Y-117547643D01*
X198935487Y-117325265D01*
X198935490Y-117325263D01*
X199305288Y-117172088D01*
X199697864Y-117094000D01*
X200098136Y-117094000D01*
X200490712Y-117172088D01*
X200490712Y-117172088D01*
G37*
G36*
X117940712Y-117172088D02*
X118310510Y-117325263D01*
X118310513Y-117325265D01*
X118643325Y-117547643D01*
X118926357Y-117830675D01*
X119110204Y-118105822D01*
X119148737Y-118163490D01*
X119301912Y-118533288D01*
X119380000Y-118925864D01*
X119380000Y-119326136D01*
X119301912Y-119718712D01*
X119148737Y-120088510D01*
X119148735Y-120088513D01*
X118926357Y-120421325D01*
X118643325Y-120704357D01*
X118310513Y-120926735D01*
X118310510Y-120926737D01*
X117940712Y-121079912D01*
X117548136Y-121158000D01*
X117147864Y-121158000D01*
X116755288Y-121079912D01*
X116385490Y-120926737D01*
X116385487Y-120926735D01*
X116052675Y-120704357D01*
X115769643Y-120421325D01*
X115547265Y-120088513D01*
X115547263Y-120088510D01*
X115394088Y-119718712D01*
X115316000Y-119326136D01*
X115316000Y-118925864D01*
X115394088Y-118533288D01*
X115547263Y-118163490D01*
X115585796Y-118105822D01*
X115769643Y-117830675D01*
X116052675Y-117547643D01*
X116385487Y-117325265D01*
X116385490Y-117325263D01*
X116755288Y-117172088D01*
X117147864Y-117094000D01*
X117548136Y-117094000D01*
X117940712Y-117172088D01*
X117940712Y-117172088D01*
G37*
G36*
X144187294Y-118122496D02*
X144307726Y-118159029D01*
X144350087Y-118171879D01*
X144500112Y-118252068D01*
X144631612Y-118359988D01*
X144739532Y-118491488D01*
X144819721Y-118641512D01*
X144832571Y-118683873D01*
X144869104Y-118804305D01*
X144869104Y-118804307D01*
X144881600Y-118931179D01*
X144881600Y-119320820D01*
X144881076Y-119326136D01*
X144869104Y-119447694D01*
X144832571Y-119568128D01*
X144819721Y-119610488D01*
X144739532Y-119760512D01*
X144631612Y-119892012D01*
X144500112Y-119999932D01*
X144350088Y-120080121D01*
X144322433Y-120088510D01*
X144187295Y-120129504D01*
X144074432Y-120140620D01*
X144018001Y-120146178D01*
X144018000Y-120146178D01*
X143848706Y-120129504D01*
X143713568Y-120088510D01*
X143685913Y-120080121D01*
X143535889Y-119999932D01*
X143445946Y-119926117D01*
X143404388Y-119892012D01*
X143296469Y-119760512D01*
X143274127Y-119718713D01*
X143216279Y-119610488D01*
X143203429Y-119568127D01*
X143166896Y-119447695D01*
X143158565Y-119363112D01*
X143154400Y-119320821D01*
X143154400Y-118931180D01*
X143166896Y-118804308D01*
X143166896Y-118804306D01*
X143216278Y-118641517D01*
X143216279Y-118641513D01*
X143296468Y-118491488D01*
X143404388Y-118359988D01*
X143535888Y-118252068D01*
X143685912Y-118171879D01*
X143728273Y-118159029D01*
X143848705Y-118122496D01*
X143961568Y-118111380D01*
X144017999Y-118105822D01*
X144018000Y-118105822D01*
X144187294Y-118122496D01*
X144187294Y-118122496D01*
G37*
G36*
X134027294Y-118122496D02*
X134147726Y-118159029D01*
X134190087Y-118171879D01*
X134340112Y-118252068D01*
X134471612Y-118359988D01*
X134579532Y-118491488D01*
X134659721Y-118641512D01*
X134672571Y-118683873D01*
X134709104Y-118804305D01*
X134709104Y-118804307D01*
X134721600Y-118931179D01*
X134721600Y-119320820D01*
X134721076Y-119326136D01*
X134709104Y-119447694D01*
X134672571Y-119568128D01*
X134659721Y-119610488D01*
X134579532Y-119760512D01*
X134471612Y-119892012D01*
X134340112Y-119999932D01*
X134190088Y-120080121D01*
X134162433Y-120088510D01*
X134027295Y-120129504D01*
X133914432Y-120140620D01*
X133858001Y-120146178D01*
X133858000Y-120146178D01*
X133688706Y-120129504D01*
X133553568Y-120088510D01*
X133525913Y-120080121D01*
X133375889Y-119999932D01*
X133285946Y-119926117D01*
X133244388Y-119892012D01*
X133136469Y-119760512D01*
X133114127Y-119718713D01*
X133056279Y-119610488D01*
X133043429Y-119568127D01*
X133006896Y-119447695D01*
X132998565Y-119363112D01*
X132994400Y-119320821D01*
X132994400Y-118931180D01*
X133006896Y-118804308D01*
X133006896Y-118804306D01*
X133056278Y-118641517D01*
X133056279Y-118641513D01*
X133136468Y-118491488D01*
X133244388Y-118359988D01*
X133375888Y-118252068D01*
X133525912Y-118171879D01*
X133568273Y-118159029D01*
X133688705Y-118122496D01*
X133801568Y-118111380D01*
X133857999Y-118105822D01*
X133858000Y-118105822D01*
X134027294Y-118122496D01*
X134027294Y-118122496D01*
G37*
G36*
X167047294Y-118122496D02*
X167167726Y-118159029D01*
X167210087Y-118171879D01*
X167360112Y-118252068D01*
X167491612Y-118359988D01*
X167599532Y-118491488D01*
X167679721Y-118641512D01*
X167692571Y-118683873D01*
X167729104Y-118804305D01*
X167729104Y-118804307D01*
X167741600Y-118931179D01*
X167741600Y-119320820D01*
X167741076Y-119326136D01*
X167729104Y-119447694D01*
X167692571Y-119568128D01*
X167679721Y-119610488D01*
X167599532Y-119760512D01*
X167491612Y-119892012D01*
X167360112Y-119999932D01*
X167210088Y-120080121D01*
X167182433Y-120088510D01*
X167047295Y-120129504D01*
X166934432Y-120140620D01*
X166878001Y-120146178D01*
X166878000Y-120146178D01*
X166708706Y-120129504D01*
X166573568Y-120088510D01*
X166545913Y-120080121D01*
X166395889Y-119999932D01*
X166305946Y-119926117D01*
X166264388Y-119892012D01*
X166156469Y-119760512D01*
X166134127Y-119718713D01*
X166076279Y-119610488D01*
X166063429Y-119568127D01*
X166026896Y-119447695D01*
X166018565Y-119363112D01*
X166014400Y-119320821D01*
X166014400Y-118931180D01*
X166026896Y-118804308D01*
X166026896Y-118804306D01*
X166076278Y-118641517D01*
X166076279Y-118641513D01*
X166156468Y-118491488D01*
X166264388Y-118359988D01*
X166395888Y-118252068D01*
X166545912Y-118171879D01*
X166588273Y-118159029D01*
X166708705Y-118122496D01*
X166821568Y-118111380D01*
X166877999Y-118105822D01*
X166878000Y-118105822D01*
X167047294Y-118122496D01*
X167047294Y-118122496D01*
G37*
G36*
X161967294Y-118122496D02*
X162087726Y-118159029D01*
X162130087Y-118171879D01*
X162280112Y-118252068D01*
X162411612Y-118359988D01*
X162519532Y-118491488D01*
X162599721Y-118641512D01*
X162612571Y-118683873D01*
X162649104Y-118804305D01*
X162649104Y-118804307D01*
X162661600Y-118931179D01*
X162661600Y-119320820D01*
X162661076Y-119326136D01*
X162649104Y-119447694D01*
X162612571Y-119568128D01*
X162599721Y-119610488D01*
X162519532Y-119760512D01*
X162411612Y-119892012D01*
X162280112Y-119999932D01*
X162130088Y-120080121D01*
X162102433Y-120088510D01*
X161967295Y-120129504D01*
X161854432Y-120140620D01*
X161798001Y-120146178D01*
X161798000Y-120146178D01*
X161628706Y-120129504D01*
X161493568Y-120088510D01*
X161465913Y-120080121D01*
X161315889Y-119999932D01*
X161225946Y-119926117D01*
X161184388Y-119892012D01*
X161076469Y-119760512D01*
X161054127Y-119718713D01*
X160996279Y-119610488D01*
X160983429Y-119568127D01*
X160946896Y-119447695D01*
X160938565Y-119363112D01*
X160934400Y-119320821D01*
X160934400Y-118931180D01*
X160946896Y-118804308D01*
X160946896Y-118804306D01*
X160996278Y-118641517D01*
X160996279Y-118641513D01*
X161076468Y-118491488D01*
X161184388Y-118359988D01*
X161315888Y-118252068D01*
X161465912Y-118171879D01*
X161508273Y-118159029D01*
X161628705Y-118122496D01*
X161741568Y-118111380D01*
X161797999Y-118105822D01*
X161798000Y-118105822D01*
X161967294Y-118122496D01*
X161967294Y-118122496D01*
G37*
G36*
X159427294Y-118122496D02*
X159547726Y-118159029D01*
X159590087Y-118171879D01*
X159740112Y-118252068D01*
X159871612Y-118359988D01*
X159979532Y-118491488D01*
X160059721Y-118641512D01*
X160072571Y-118683873D01*
X160109104Y-118804305D01*
X160109104Y-118804307D01*
X160121600Y-118931179D01*
X160121600Y-119320820D01*
X160121076Y-119326136D01*
X160109104Y-119447694D01*
X160072571Y-119568128D01*
X160059721Y-119610488D01*
X159979532Y-119760512D01*
X159871612Y-119892012D01*
X159740112Y-119999932D01*
X159590088Y-120080121D01*
X159562433Y-120088510D01*
X159427295Y-120129504D01*
X159314432Y-120140620D01*
X159258001Y-120146178D01*
X159258000Y-120146178D01*
X159088706Y-120129504D01*
X158953568Y-120088510D01*
X158925913Y-120080121D01*
X158775889Y-119999932D01*
X158685946Y-119926117D01*
X158644388Y-119892012D01*
X158536469Y-119760512D01*
X158514127Y-119718713D01*
X158456279Y-119610488D01*
X158443429Y-119568127D01*
X158406896Y-119447695D01*
X158398565Y-119363112D01*
X158394400Y-119320821D01*
X158394400Y-118931180D01*
X158406896Y-118804308D01*
X158406896Y-118804306D01*
X158456278Y-118641517D01*
X158456279Y-118641513D01*
X158536468Y-118491488D01*
X158644388Y-118359988D01*
X158775888Y-118252068D01*
X158925912Y-118171879D01*
X158968273Y-118159029D01*
X159088705Y-118122496D01*
X159201568Y-118111380D01*
X159257999Y-118105822D01*
X159258000Y-118105822D01*
X159427294Y-118122496D01*
X159427294Y-118122496D01*
G37*
G36*
X156887294Y-118122496D02*
X157007726Y-118159029D01*
X157050087Y-118171879D01*
X157200112Y-118252068D01*
X157331612Y-118359988D01*
X157439532Y-118491488D01*
X157519721Y-118641512D01*
X157532571Y-118683873D01*
X157569104Y-118804305D01*
X157569104Y-118804307D01*
X157581600Y-118931179D01*
X157581600Y-119320820D01*
X157581076Y-119326136D01*
X157569104Y-119447694D01*
X157532571Y-119568128D01*
X157519721Y-119610488D01*
X157439532Y-119760512D01*
X157331612Y-119892012D01*
X157200112Y-119999932D01*
X157050088Y-120080121D01*
X157022433Y-120088510D01*
X156887295Y-120129504D01*
X156774432Y-120140620D01*
X156718001Y-120146178D01*
X156718000Y-120146178D01*
X156548706Y-120129504D01*
X156413568Y-120088510D01*
X156385913Y-120080121D01*
X156235889Y-119999932D01*
X156145946Y-119926117D01*
X156104388Y-119892012D01*
X155996469Y-119760512D01*
X155974127Y-119718713D01*
X155916279Y-119610488D01*
X155903429Y-119568127D01*
X155866896Y-119447695D01*
X155858565Y-119363112D01*
X155854400Y-119320821D01*
X155854400Y-118931180D01*
X155866896Y-118804308D01*
X155866896Y-118804306D01*
X155916278Y-118641517D01*
X155916279Y-118641513D01*
X155996468Y-118491488D01*
X156104388Y-118359988D01*
X156235888Y-118252068D01*
X156385912Y-118171879D01*
X156428273Y-118159029D01*
X156548705Y-118122496D01*
X156661568Y-118111380D01*
X156717999Y-118105822D01*
X156718000Y-118105822D01*
X156887294Y-118122496D01*
X156887294Y-118122496D01*
G37*
G36*
X154347294Y-118122496D02*
X154467726Y-118159029D01*
X154510087Y-118171879D01*
X154660112Y-118252068D01*
X154791612Y-118359988D01*
X154899532Y-118491488D01*
X154979721Y-118641512D01*
X154992571Y-118683873D01*
X155029104Y-118804305D01*
X155029104Y-118804307D01*
X155041600Y-118931179D01*
X155041600Y-119320820D01*
X155041076Y-119326136D01*
X155029104Y-119447694D01*
X154992571Y-119568128D01*
X154979721Y-119610488D01*
X154899532Y-119760512D01*
X154791612Y-119892012D01*
X154660112Y-119999932D01*
X154510088Y-120080121D01*
X154482433Y-120088510D01*
X154347295Y-120129504D01*
X154234432Y-120140620D01*
X154178001Y-120146178D01*
X154178000Y-120146178D01*
X154008706Y-120129504D01*
X153873568Y-120088510D01*
X153845913Y-120080121D01*
X153695889Y-119999932D01*
X153605946Y-119926117D01*
X153564388Y-119892012D01*
X153456469Y-119760512D01*
X153434127Y-119718713D01*
X153376279Y-119610488D01*
X153363429Y-119568127D01*
X153326896Y-119447695D01*
X153318565Y-119363112D01*
X153314400Y-119320821D01*
X153314400Y-118931180D01*
X153326896Y-118804308D01*
X153326896Y-118804306D01*
X153376278Y-118641517D01*
X153376279Y-118641513D01*
X153456468Y-118491488D01*
X153564388Y-118359988D01*
X153695888Y-118252068D01*
X153845912Y-118171879D01*
X153888273Y-118159029D01*
X154008705Y-118122496D01*
X154121568Y-118111380D01*
X154177999Y-118105822D01*
X154178000Y-118105822D01*
X154347294Y-118122496D01*
X154347294Y-118122496D01*
G37*
G36*
X149267294Y-118122496D02*
X149387726Y-118159029D01*
X149430087Y-118171879D01*
X149580112Y-118252068D01*
X149711612Y-118359988D01*
X149819532Y-118491488D01*
X149899721Y-118641512D01*
X149912571Y-118683873D01*
X149949104Y-118804305D01*
X149949104Y-118804307D01*
X149961600Y-118931179D01*
X149961600Y-119320820D01*
X149961076Y-119326136D01*
X149949104Y-119447694D01*
X149912571Y-119568128D01*
X149899721Y-119610488D01*
X149819532Y-119760512D01*
X149711612Y-119892012D01*
X149580112Y-119999932D01*
X149430088Y-120080121D01*
X149402433Y-120088510D01*
X149267295Y-120129504D01*
X149154432Y-120140620D01*
X149098001Y-120146178D01*
X149098000Y-120146178D01*
X148928706Y-120129504D01*
X148793568Y-120088510D01*
X148765913Y-120080121D01*
X148615889Y-119999932D01*
X148525946Y-119926117D01*
X148484388Y-119892012D01*
X148376469Y-119760512D01*
X148354127Y-119718713D01*
X148296279Y-119610488D01*
X148283429Y-119568127D01*
X148246896Y-119447695D01*
X148238565Y-119363112D01*
X148234400Y-119320821D01*
X148234400Y-118931180D01*
X148246896Y-118804308D01*
X148246896Y-118804306D01*
X148296278Y-118641517D01*
X148296279Y-118641513D01*
X148376468Y-118491488D01*
X148484388Y-118359988D01*
X148615888Y-118252068D01*
X148765912Y-118171879D01*
X148808273Y-118159029D01*
X148928705Y-118122496D01*
X149041568Y-118111380D01*
X149097999Y-118105822D01*
X149098000Y-118105822D01*
X149267294Y-118122496D01*
X149267294Y-118122496D01*
G37*
G36*
X146727294Y-118122496D02*
X146847726Y-118159029D01*
X146890087Y-118171879D01*
X147040112Y-118252068D01*
X147171612Y-118359988D01*
X147279532Y-118491488D01*
X147359721Y-118641512D01*
X147372571Y-118683873D01*
X147409104Y-118804305D01*
X147409104Y-118804307D01*
X147421600Y-118931179D01*
X147421600Y-119320820D01*
X147421076Y-119326136D01*
X147409104Y-119447694D01*
X147372571Y-119568128D01*
X147359721Y-119610488D01*
X147279532Y-119760512D01*
X147171612Y-119892012D01*
X147040112Y-119999932D01*
X146890088Y-120080121D01*
X146862433Y-120088510D01*
X146727295Y-120129504D01*
X146614432Y-120140620D01*
X146558001Y-120146178D01*
X146558000Y-120146178D01*
X146388706Y-120129504D01*
X146253568Y-120088510D01*
X146225913Y-120080121D01*
X146075889Y-119999932D01*
X145985946Y-119926117D01*
X145944388Y-119892012D01*
X145836469Y-119760512D01*
X145814127Y-119718713D01*
X145756279Y-119610488D01*
X145743429Y-119568127D01*
X145706896Y-119447695D01*
X145698565Y-119363112D01*
X145694400Y-119320821D01*
X145694400Y-118931180D01*
X145706896Y-118804308D01*
X145706896Y-118804306D01*
X145756278Y-118641517D01*
X145756279Y-118641513D01*
X145836468Y-118491488D01*
X145944388Y-118359988D01*
X146075888Y-118252068D01*
X146225912Y-118171879D01*
X146268273Y-118159029D01*
X146388705Y-118122496D01*
X146501568Y-118111380D01*
X146557999Y-118105822D01*
X146558000Y-118105822D01*
X146727294Y-118122496D01*
X146727294Y-118122496D01*
G37*
G36*
X141647294Y-118122496D02*
X141767726Y-118159029D01*
X141810087Y-118171879D01*
X141960112Y-118252068D01*
X142091612Y-118359988D01*
X142199532Y-118491488D01*
X142279721Y-118641512D01*
X142292571Y-118683873D01*
X142329104Y-118804305D01*
X142329104Y-118804307D01*
X142341600Y-118931179D01*
X142341600Y-119320820D01*
X142341076Y-119326136D01*
X142329104Y-119447694D01*
X142292571Y-119568128D01*
X142279721Y-119610488D01*
X142199532Y-119760512D01*
X142091612Y-119892012D01*
X141960112Y-119999932D01*
X141810088Y-120080121D01*
X141782433Y-120088510D01*
X141647295Y-120129504D01*
X141534432Y-120140620D01*
X141478001Y-120146178D01*
X141478000Y-120146178D01*
X141308706Y-120129504D01*
X141173568Y-120088510D01*
X141145913Y-120080121D01*
X140995889Y-119999932D01*
X140905946Y-119926117D01*
X140864388Y-119892012D01*
X140756469Y-119760512D01*
X140734127Y-119718713D01*
X140676279Y-119610488D01*
X140663429Y-119568127D01*
X140626896Y-119447695D01*
X140618565Y-119363112D01*
X140614400Y-119320821D01*
X140614400Y-118931180D01*
X140626896Y-118804308D01*
X140626896Y-118804306D01*
X140676278Y-118641517D01*
X140676279Y-118641513D01*
X140756468Y-118491488D01*
X140864388Y-118359988D01*
X140995888Y-118252068D01*
X141145912Y-118171879D01*
X141188273Y-118159029D01*
X141308705Y-118122496D01*
X141421568Y-118111380D01*
X141477999Y-118105822D01*
X141478000Y-118105822D01*
X141647294Y-118122496D01*
X141647294Y-118122496D01*
G37*
G36*
X139107294Y-118122496D02*
X139227726Y-118159029D01*
X139270087Y-118171879D01*
X139420112Y-118252068D01*
X139551612Y-118359988D01*
X139659532Y-118491488D01*
X139739721Y-118641512D01*
X139752571Y-118683873D01*
X139789104Y-118804305D01*
X139789104Y-118804307D01*
X139801600Y-118931179D01*
X139801600Y-119320820D01*
X139801076Y-119326136D01*
X139789104Y-119447694D01*
X139752571Y-119568128D01*
X139739721Y-119610488D01*
X139659532Y-119760512D01*
X139551612Y-119892012D01*
X139420112Y-119999932D01*
X139270088Y-120080121D01*
X139242433Y-120088510D01*
X139107295Y-120129504D01*
X138994432Y-120140620D01*
X138938001Y-120146178D01*
X138938000Y-120146178D01*
X138768706Y-120129504D01*
X138633568Y-120088510D01*
X138605913Y-120080121D01*
X138455889Y-119999932D01*
X138365946Y-119926117D01*
X138324388Y-119892012D01*
X138216469Y-119760512D01*
X138194127Y-119718713D01*
X138136279Y-119610488D01*
X138123429Y-119568127D01*
X138086896Y-119447695D01*
X138078565Y-119363112D01*
X138074400Y-119320821D01*
X138074400Y-118931180D01*
X138086896Y-118804308D01*
X138086896Y-118804306D01*
X138136278Y-118641517D01*
X138136279Y-118641513D01*
X138216468Y-118491488D01*
X138324388Y-118359988D01*
X138455888Y-118252068D01*
X138605912Y-118171879D01*
X138648273Y-118159029D01*
X138768705Y-118122496D01*
X138881568Y-118111380D01*
X138937999Y-118105822D01*
X138938000Y-118105822D01*
X139107294Y-118122496D01*
X139107294Y-118122496D01*
G37*
G36*
X136567294Y-118122496D02*
X136687726Y-118159029D01*
X136730087Y-118171879D01*
X136880112Y-118252068D01*
X137011612Y-118359988D01*
X137119532Y-118491488D01*
X137199721Y-118641512D01*
X137212571Y-118683873D01*
X137249104Y-118804305D01*
X137249104Y-118804307D01*
X137261600Y-118931179D01*
X137261600Y-119320820D01*
X137261076Y-119326136D01*
X137249104Y-119447694D01*
X137212571Y-119568128D01*
X137199721Y-119610488D01*
X137119532Y-119760512D01*
X137011612Y-119892012D01*
X136880112Y-119999932D01*
X136730088Y-120080121D01*
X136702433Y-120088510D01*
X136567295Y-120129504D01*
X136454432Y-120140620D01*
X136398001Y-120146178D01*
X136398000Y-120146178D01*
X136228706Y-120129504D01*
X136093568Y-120088510D01*
X136065913Y-120080121D01*
X135915889Y-119999932D01*
X135825946Y-119926117D01*
X135784388Y-119892012D01*
X135676469Y-119760512D01*
X135654127Y-119718713D01*
X135596279Y-119610488D01*
X135583429Y-119568127D01*
X135546896Y-119447695D01*
X135538565Y-119363112D01*
X135534400Y-119320821D01*
X135534400Y-118931180D01*
X135546896Y-118804308D01*
X135546896Y-118804306D01*
X135596278Y-118641517D01*
X135596279Y-118641513D01*
X135676468Y-118491488D01*
X135784388Y-118359988D01*
X135915888Y-118252068D01*
X136065912Y-118171879D01*
X136108273Y-118159029D01*
X136228705Y-118122496D01*
X136341568Y-118111380D01*
X136397999Y-118105822D01*
X136398000Y-118105822D01*
X136567294Y-118122496D01*
X136567294Y-118122496D01*
G37*
G36*
X192447294Y-118122496D02*
X192567726Y-118159029D01*
X192610087Y-118171879D01*
X192760112Y-118252068D01*
X192891612Y-118359988D01*
X192999532Y-118491488D01*
X193079721Y-118641512D01*
X193092571Y-118683873D01*
X193129104Y-118804305D01*
X193129104Y-118804307D01*
X193141600Y-118931179D01*
X193141600Y-119320820D01*
X193141076Y-119326136D01*
X193129104Y-119447694D01*
X193092571Y-119568128D01*
X193079721Y-119610488D01*
X192999532Y-119760512D01*
X192891612Y-119892012D01*
X192760112Y-119999932D01*
X192610088Y-120080121D01*
X192582433Y-120088510D01*
X192447295Y-120129504D01*
X192334432Y-120140620D01*
X192278001Y-120146178D01*
X192278000Y-120146178D01*
X192108706Y-120129504D01*
X191973568Y-120088510D01*
X191945913Y-120080121D01*
X191795889Y-119999932D01*
X191705946Y-119926117D01*
X191664388Y-119892012D01*
X191556469Y-119760512D01*
X191534127Y-119718713D01*
X191476279Y-119610488D01*
X191463429Y-119568127D01*
X191426896Y-119447695D01*
X191418565Y-119363112D01*
X191414400Y-119320821D01*
X191414400Y-118931180D01*
X191426896Y-118804308D01*
X191426896Y-118804306D01*
X191476278Y-118641517D01*
X191476279Y-118641513D01*
X191556468Y-118491488D01*
X191664388Y-118359988D01*
X191795888Y-118252068D01*
X191945912Y-118171879D01*
X191988273Y-118159029D01*
X192108705Y-118122496D01*
X192221568Y-118111380D01*
X192277999Y-118105822D01*
X192278000Y-118105822D01*
X192447294Y-118122496D01*
X192447294Y-118122496D01*
G37*
G36*
X164507294Y-118122496D02*
X164627726Y-118159029D01*
X164670087Y-118171879D01*
X164820112Y-118252068D01*
X164951612Y-118359988D01*
X165059532Y-118491488D01*
X165139721Y-118641512D01*
X165152571Y-118683873D01*
X165189104Y-118804305D01*
X165189104Y-118804307D01*
X165201600Y-118931179D01*
X165201600Y-119320820D01*
X165201076Y-119326136D01*
X165189104Y-119447694D01*
X165152571Y-119568128D01*
X165139721Y-119610488D01*
X165059532Y-119760512D01*
X164951612Y-119892012D01*
X164820112Y-119999932D01*
X164670088Y-120080121D01*
X164642433Y-120088510D01*
X164507295Y-120129504D01*
X164394432Y-120140620D01*
X164338001Y-120146178D01*
X164338000Y-120146178D01*
X164168706Y-120129504D01*
X164033568Y-120088510D01*
X164005913Y-120080121D01*
X163855889Y-119999932D01*
X163765946Y-119926117D01*
X163724388Y-119892012D01*
X163616469Y-119760512D01*
X163594127Y-119718713D01*
X163536279Y-119610488D01*
X163523429Y-119568127D01*
X163486896Y-119447695D01*
X163478565Y-119363112D01*
X163474400Y-119320821D01*
X163474400Y-118931180D01*
X163486896Y-118804308D01*
X163486896Y-118804306D01*
X163536278Y-118641517D01*
X163536279Y-118641513D01*
X163616468Y-118491488D01*
X163724388Y-118359988D01*
X163855888Y-118252068D01*
X164005912Y-118171879D01*
X164048273Y-118159029D01*
X164168705Y-118122496D01*
X164281568Y-118111380D01*
X164337999Y-118105822D01*
X164338000Y-118105822D01*
X164507294Y-118122496D01*
X164507294Y-118122496D01*
G37*
G36*
X194987294Y-118122496D02*
X195107726Y-118159029D01*
X195150087Y-118171879D01*
X195300112Y-118252068D01*
X195431612Y-118359988D01*
X195539532Y-118491488D01*
X195619721Y-118641512D01*
X195632571Y-118683873D01*
X195669104Y-118804305D01*
X195669104Y-118804307D01*
X195681600Y-118931179D01*
X195681600Y-119320820D01*
X195681076Y-119326136D01*
X195669104Y-119447694D01*
X195632571Y-119568128D01*
X195619721Y-119610488D01*
X195539532Y-119760512D01*
X195431612Y-119892012D01*
X195300112Y-119999932D01*
X195150088Y-120080121D01*
X195122433Y-120088510D01*
X194987295Y-120129504D01*
X194874432Y-120140620D01*
X194818001Y-120146178D01*
X194818000Y-120146178D01*
X194648706Y-120129504D01*
X194513568Y-120088510D01*
X194485913Y-120080121D01*
X194335889Y-119999932D01*
X194245946Y-119926117D01*
X194204388Y-119892012D01*
X194096469Y-119760512D01*
X194074127Y-119718713D01*
X194016279Y-119610488D01*
X194003429Y-119568127D01*
X193966896Y-119447695D01*
X193958565Y-119363112D01*
X193954400Y-119320821D01*
X193954400Y-118931180D01*
X193966896Y-118804308D01*
X193966896Y-118804306D01*
X194016278Y-118641517D01*
X194016279Y-118641513D01*
X194096468Y-118491488D01*
X194204388Y-118359988D01*
X194335888Y-118252068D01*
X194485912Y-118171879D01*
X194528273Y-118159029D01*
X194648705Y-118122496D01*
X194761568Y-118111380D01*
X194817999Y-118105822D01*
X194818000Y-118105822D01*
X194987294Y-118122496D01*
X194987294Y-118122496D01*
G37*
G36*
X131487294Y-118122496D02*
X131607726Y-118159029D01*
X131650087Y-118171879D01*
X131800112Y-118252068D01*
X131931612Y-118359988D01*
X132039532Y-118491488D01*
X132119721Y-118641512D01*
X132132571Y-118683873D01*
X132169104Y-118804305D01*
X132169104Y-118804307D01*
X132181600Y-118931179D01*
X132181600Y-119320820D01*
X132181076Y-119326136D01*
X132169104Y-119447694D01*
X132132571Y-119568128D01*
X132119721Y-119610488D01*
X132039532Y-119760512D01*
X131931612Y-119892012D01*
X131800112Y-119999932D01*
X131650088Y-120080121D01*
X131622433Y-120088510D01*
X131487295Y-120129504D01*
X131374432Y-120140620D01*
X131318001Y-120146178D01*
X131318000Y-120146178D01*
X131148706Y-120129504D01*
X131013568Y-120088510D01*
X130985913Y-120080121D01*
X130835889Y-119999932D01*
X130745946Y-119926117D01*
X130704388Y-119892012D01*
X130596469Y-119760512D01*
X130574127Y-119718713D01*
X130516279Y-119610488D01*
X130503429Y-119568127D01*
X130466896Y-119447695D01*
X130458565Y-119363112D01*
X130454400Y-119320821D01*
X130454400Y-118931180D01*
X130466896Y-118804308D01*
X130466896Y-118804306D01*
X130516278Y-118641517D01*
X130516279Y-118641513D01*
X130596468Y-118491488D01*
X130704388Y-118359988D01*
X130835888Y-118252068D01*
X130985912Y-118171879D01*
X131028273Y-118159029D01*
X131148705Y-118122496D01*
X131261568Y-118111380D01*
X131317999Y-118105822D01*
X131318000Y-118105822D01*
X131487294Y-118122496D01*
X131487294Y-118122496D01*
G37*
G36*
X189907294Y-118122496D02*
X190027726Y-118159029D01*
X190070087Y-118171879D01*
X190220112Y-118252068D01*
X190351612Y-118359988D01*
X190459532Y-118491488D01*
X190539721Y-118641512D01*
X190552571Y-118683873D01*
X190589104Y-118804305D01*
X190589104Y-118804307D01*
X190601600Y-118931179D01*
X190601600Y-119320820D01*
X190601076Y-119326136D01*
X190589104Y-119447694D01*
X190552571Y-119568128D01*
X190539721Y-119610488D01*
X190459532Y-119760512D01*
X190351612Y-119892012D01*
X190220112Y-119999932D01*
X190070088Y-120080121D01*
X190042433Y-120088510D01*
X189907295Y-120129504D01*
X189794432Y-120140620D01*
X189738001Y-120146178D01*
X189738000Y-120146178D01*
X189568706Y-120129504D01*
X189433568Y-120088510D01*
X189405913Y-120080121D01*
X189255889Y-119999932D01*
X189165946Y-119926117D01*
X189124388Y-119892012D01*
X189016469Y-119760512D01*
X188994127Y-119718713D01*
X188936279Y-119610488D01*
X188923429Y-119568127D01*
X188886896Y-119447695D01*
X188878565Y-119363112D01*
X188874400Y-119320821D01*
X188874400Y-118931180D01*
X188886896Y-118804308D01*
X188886896Y-118804306D01*
X188936278Y-118641517D01*
X188936279Y-118641513D01*
X189016468Y-118491488D01*
X189124388Y-118359988D01*
X189255888Y-118252068D01*
X189405912Y-118171879D01*
X189448273Y-118159029D01*
X189568705Y-118122496D01*
X189681568Y-118111380D01*
X189737999Y-118105822D01*
X189738000Y-118105822D01*
X189907294Y-118122496D01*
X189907294Y-118122496D01*
G37*
G36*
X187367294Y-118122496D02*
X187487726Y-118159029D01*
X187530087Y-118171879D01*
X187680112Y-118252068D01*
X187811612Y-118359988D01*
X187919532Y-118491488D01*
X187999721Y-118641512D01*
X188012571Y-118683873D01*
X188049104Y-118804305D01*
X188049104Y-118804307D01*
X188061600Y-118931179D01*
X188061600Y-119320820D01*
X188061076Y-119326136D01*
X188049104Y-119447694D01*
X188012571Y-119568128D01*
X187999721Y-119610488D01*
X187919532Y-119760512D01*
X187811612Y-119892012D01*
X187680112Y-119999932D01*
X187530088Y-120080121D01*
X187502433Y-120088510D01*
X187367295Y-120129504D01*
X187254432Y-120140620D01*
X187198001Y-120146178D01*
X187198000Y-120146178D01*
X187028706Y-120129504D01*
X186893568Y-120088510D01*
X186865913Y-120080121D01*
X186715889Y-119999932D01*
X186625946Y-119926117D01*
X186584388Y-119892012D01*
X186476469Y-119760512D01*
X186454127Y-119718713D01*
X186396279Y-119610488D01*
X186383429Y-119568127D01*
X186346896Y-119447695D01*
X186338565Y-119363112D01*
X186334400Y-119320821D01*
X186334400Y-118931180D01*
X186346896Y-118804308D01*
X186346896Y-118804306D01*
X186396278Y-118641517D01*
X186396279Y-118641513D01*
X186476468Y-118491488D01*
X186584388Y-118359988D01*
X186715888Y-118252068D01*
X186865912Y-118171879D01*
X186908273Y-118159029D01*
X187028705Y-118122496D01*
X187141568Y-118111380D01*
X187197999Y-118105822D01*
X187198000Y-118105822D01*
X187367294Y-118122496D01*
X187367294Y-118122496D01*
G37*
G36*
X184827294Y-118122496D02*
X184947726Y-118159029D01*
X184990087Y-118171879D01*
X185140112Y-118252068D01*
X185271612Y-118359988D01*
X185379532Y-118491488D01*
X185459721Y-118641512D01*
X185472571Y-118683873D01*
X185509104Y-118804305D01*
X185509104Y-118804307D01*
X185521600Y-118931179D01*
X185521600Y-119320820D01*
X185521076Y-119326136D01*
X185509104Y-119447694D01*
X185472571Y-119568128D01*
X185459721Y-119610488D01*
X185379532Y-119760512D01*
X185271612Y-119892012D01*
X185140112Y-119999932D01*
X184990088Y-120080121D01*
X184962433Y-120088510D01*
X184827295Y-120129504D01*
X184714432Y-120140620D01*
X184658001Y-120146178D01*
X184658000Y-120146178D01*
X184488706Y-120129504D01*
X184353568Y-120088510D01*
X184325913Y-120080121D01*
X184175889Y-119999932D01*
X184085946Y-119926117D01*
X184044388Y-119892012D01*
X183936469Y-119760512D01*
X183914127Y-119718713D01*
X183856279Y-119610488D01*
X183843429Y-119568127D01*
X183806896Y-119447695D01*
X183798565Y-119363112D01*
X183794400Y-119320821D01*
X183794400Y-118931180D01*
X183806896Y-118804308D01*
X183806896Y-118804306D01*
X183856278Y-118641517D01*
X183856279Y-118641513D01*
X183936468Y-118491488D01*
X184044388Y-118359988D01*
X184175888Y-118252068D01*
X184325912Y-118171879D01*
X184368273Y-118159029D01*
X184488705Y-118122496D01*
X184601568Y-118111380D01*
X184657999Y-118105822D01*
X184658000Y-118105822D01*
X184827294Y-118122496D01*
X184827294Y-118122496D01*
G37*
G36*
X182287294Y-118122496D02*
X182407726Y-118159029D01*
X182450087Y-118171879D01*
X182600112Y-118252068D01*
X182731612Y-118359988D01*
X182839532Y-118491488D01*
X182919721Y-118641512D01*
X182932571Y-118683873D01*
X182969104Y-118804305D01*
X182969104Y-118804307D01*
X182981600Y-118931179D01*
X182981600Y-119320820D01*
X182981076Y-119326136D01*
X182969104Y-119447694D01*
X182932571Y-119568128D01*
X182919721Y-119610488D01*
X182839532Y-119760512D01*
X182731612Y-119892012D01*
X182600112Y-119999932D01*
X182450088Y-120080121D01*
X182422433Y-120088510D01*
X182287295Y-120129504D01*
X182174432Y-120140620D01*
X182118001Y-120146178D01*
X182118000Y-120146178D01*
X181948706Y-120129504D01*
X181813568Y-120088510D01*
X181785913Y-120080121D01*
X181635889Y-119999932D01*
X181545946Y-119926117D01*
X181504388Y-119892012D01*
X181396469Y-119760512D01*
X181374127Y-119718713D01*
X181316279Y-119610488D01*
X181303429Y-119568127D01*
X181266896Y-119447695D01*
X181258565Y-119363112D01*
X181254400Y-119320821D01*
X181254400Y-118931180D01*
X181266896Y-118804308D01*
X181266896Y-118804306D01*
X181316278Y-118641517D01*
X181316279Y-118641513D01*
X181396468Y-118491488D01*
X181504388Y-118359988D01*
X181635888Y-118252068D01*
X181785912Y-118171879D01*
X181828273Y-118159029D01*
X181948705Y-118122496D01*
X182061568Y-118111380D01*
X182117999Y-118105822D01*
X182118000Y-118105822D01*
X182287294Y-118122496D01*
X182287294Y-118122496D01*
G37*
G36*
X179747294Y-118122496D02*
X179867726Y-118159029D01*
X179910087Y-118171879D01*
X180060112Y-118252068D01*
X180191612Y-118359988D01*
X180299532Y-118491488D01*
X180379721Y-118641512D01*
X180392571Y-118683873D01*
X180429104Y-118804305D01*
X180429104Y-118804307D01*
X180441600Y-118931179D01*
X180441600Y-119320820D01*
X180441076Y-119326136D01*
X180429104Y-119447694D01*
X180392571Y-119568128D01*
X180379721Y-119610488D01*
X180299532Y-119760512D01*
X180191612Y-119892012D01*
X180060112Y-119999932D01*
X179910088Y-120080121D01*
X179882433Y-120088510D01*
X179747295Y-120129504D01*
X179634432Y-120140620D01*
X179578001Y-120146178D01*
X179578000Y-120146178D01*
X179408706Y-120129504D01*
X179273568Y-120088510D01*
X179245913Y-120080121D01*
X179095889Y-119999932D01*
X179005946Y-119926117D01*
X178964388Y-119892012D01*
X178856469Y-119760512D01*
X178834127Y-119718713D01*
X178776279Y-119610488D01*
X178763429Y-119568127D01*
X178726896Y-119447695D01*
X178718565Y-119363112D01*
X178714400Y-119320821D01*
X178714400Y-118931180D01*
X178726896Y-118804308D01*
X178726896Y-118804306D01*
X178776278Y-118641517D01*
X178776279Y-118641513D01*
X178856468Y-118491488D01*
X178964388Y-118359988D01*
X179095888Y-118252068D01*
X179245912Y-118171879D01*
X179288273Y-118159029D01*
X179408705Y-118122496D01*
X179521568Y-118111380D01*
X179577999Y-118105822D01*
X179578000Y-118105822D01*
X179747294Y-118122496D01*
X179747294Y-118122496D01*
G37*
G36*
X177207294Y-118122496D02*
X177327726Y-118159029D01*
X177370087Y-118171879D01*
X177520112Y-118252068D01*
X177651612Y-118359988D01*
X177759532Y-118491488D01*
X177839721Y-118641512D01*
X177852571Y-118683873D01*
X177889104Y-118804305D01*
X177889104Y-118804307D01*
X177901600Y-118931179D01*
X177901600Y-119320820D01*
X177901076Y-119326136D01*
X177889104Y-119447694D01*
X177852571Y-119568128D01*
X177839721Y-119610488D01*
X177759532Y-119760512D01*
X177651612Y-119892012D01*
X177520112Y-119999932D01*
X177370088Y-120080121D01*
X177342433Y-120088510D01*
X177207295Y-120129504D01*
X177094432Y-120140620D01*
X177038001Y-120146178D01*
X177038000Y-120146178D01*
X176868706Y-120129504D01*
X176733568Y-120088510D01*
X176705913Y-120080121D01*
X176555889Y-119999932D01*
X176465946Y-119926117D01*
X176424388Y-119892012D01*
X176316469Y-119760512D01*
X176294127Y-119718713D01*
X176236279Y-119610488D01*
X176223429Y-119568127D01*
X176186896Y-119447695D01*
X176178565Y-119363112D01*
X176174400Y-119320821D01*
X176174400Y-118931180D01*
X176186896Y-118804308D01*
X176186896Y-118804306D01*
X176236278Y-118641517D01*
X176236279Y-118641513D01*
X176316468Y-118491488D01*
X176424388Y-118359988D01*
X176555888Y-118252068D01*
X176705912Y-118171879D01*
X176748273Y-118159029D01*
X176868705Y-118122496D01*
X176981568Y-118111380D01*
X177037999Y-118105822D01*
X177038000Y-118105822D01*
X177207294Y-118122496D01*
X177207294Y-118122496D01*
G37*
G36*
X172127294Y-118122496D02*
X172247726Y-118159029D01*
X172290087Y-118171879D01*
X172440112Y-118252068D01*
X172571612Y-118359988D01*
X172679532Y-118491488D01*
X172759721Y-118641512D01*
X172772571Y-118683873D01*
X172809104Y-118804305D01*
X172809104Y-118804307D01*
X172821600Y-118931179D01*
X172821600Y-119320820D01*
X172821076Y-119326136D01*
X172809104Y-119447694D01*
X172772571Y-119568128D01*
X172759721Y-119610488D01*
X172679532Y-119760512D01*
X172571612Y-119892012D01*
X172440112Y-119999932D01*
X172290088Y-120080121D01*
X172262433Y-120088510D01*
X172127295Y-120129504D01*
X172014432Y-120140620D01*
X171958001Y-120146178D01*
X171958000Y-120146178D01*
X171788706Y-120129504D01*
X171653568Y-120088510D01*
X171625913Y-120080121D01*
X171475889Y-119999932D01*
X171385946Y-119926117D01*
X171344388Y-119892012D01*
X171236469Y-119760512D01*
X171214127Y-119718713D01*
X171156279Y-119610488D01*
X171143429Y-119568127D01*
X171106896Y-119447695D01*
X171098565Y-119363112D01*
X171094400Y-119320821D01*
X171094400Y-118931180D01*
X171106896Y-118804308D01*
X171106896Y-118804306D01*
X171156278Y-118641517D01*
X171156279Y-118641513D01*
X171236468Y-118491488D01*
X171344388Y-118359988D01*
X171475888Y-118252068D01*
X171625912Y-118171879D01*
X171668273Y-118159029D01*
X171788705Y-118122496D01*
X171901568Y-118111380D01*
X171957999Y-118105822D01*
X171958000Y-118105822D01*
X172127294Y-118122496D01*
X172127294Y-118122496D01*
G37*
G36*
X169587294Y-118122496D02*
X169707726Y-118159029D01*
X169750087Y-118171879D01*
X169900112Y-118252068D01*
X170031612Y-118359988D01*
X170139532Y-118491488D01*
X170219721Y-118641512D01*
X170232571Y-118683873D01*
X170269104Y-118804305D01*
X170269104Y-118804307D01*
X170281600Y-118931179D01*
X170281600Y-119320820D01*
X170281076Y-119326136D01*
X170269104Y-119447694D01*
X170232571Y-119568128D01*
X170219721Y-119610488D01*
X170139532Y-119760512D01*
X170031612Y-119892012D01*
X169900112Y-119999932D01*
X169750088Y-120080121D01*
X169722433Y-120088510D01*
X169587295Y-120129504D01*
X169474432Y-120140620D01*
X169418001Y-120146178D01*
X169418000Y-120146178D01*
X169248706Y-120129504D01*
X169113568Y-120088510D01*
X169085913Y-120080121D01*
X168935889Y-119999932D01*
X168845946Y-119926117D01*
X168804388Y-119892012D01*
X168696469Y-119760512D01*
X168674127Y-119718713D01*
X168616279Y-119610488D01*
X168603429Y-119568127D01*
X168566896Y-119447695D01*
X168558565Y-119363112D01*
X168554400Y-119320821D01*
X168554400Y-118931180D01*
X168566896Y-118804308D01*
X168566896Y-118804306D01*
X168616278Y-118641517D01*
X168616279Y-118641513D01*
X168696468Y-118491488D01*
X168804388Y-118359988D01*
X168935888Y-118252068D01*
X169085912Y-118171879D01*
X169128273Y-118159029D01*
X169248705Y-118122496D01*
X169361568Y-118111380D01*
X169417999Y-118105822D01*
X169418000Y-118105822D01*
X169587294Y-118122496D01*
X169587294Y-118122496D01*
G37*
G36*
X189623378Y-111531859D02*
X189987354Y-111682622D01*
X190314929Y-111901501D01*
X190593499Y-112180071D01*
X190812378Y-112507646D01*
X190963141Y-112871622D01*
X191040000Y-113258016D01*
X191040000Y-113651984D01*
X190963141Y-114038378D01*
X190812378Y-114402354D01*
X190593499Y-114729929D01*
X190314929Y-115008499D01*
X189987354Y-115227378D01*
X189623378Y-115378141D01*
X189236984Y-115455000D01*
X188843016Y-115455000D01*
X188456622Y-115378141D01*
X188092646Y-115227378D01*
X187765071Y-115008499D01*
X187486501Y-114729929D01*
X187267622Y-114402354D01*
X187116859Y-114038378D01*
X187040000Y-113651984D01*
X187040000Y-113258016D01*
X187116859Y-112871622D01*
X187267622Y-112507646D01*
X187486501Y-112180071D01*
X187765071Y-111901501D01*
X188092646Y-111682622D01*
X188456622Y-111531859D01*
X188843016Y-111455000D01*
X189236984Y-111455000D01*
X189623378Y-111531859D01*
X189623378Y-111531859D01*
G37*
G36*
X172603378Y-111531859D02*
X172967354Y-111682622D01*
X173294929Y-111901501D01*
X173573499Y-112180071D01*
X173792378Y-112507646D01*
X173943141Y-112871622D01*
X174020000Y-113258016D01*
X174020000Y-113651984D01*
X173943141Y-114038378D01*
X173792378Y-114402354D01*
X173573499Y-114729929D01*
X173294929Y-115008499D01*
X172967354Y-115227378D01*
X172603378Y-115378141D01*
X172216984Y-115455000D01*
X171823016Y-115455000D01*
X171436622Y-115378141D01*
X171072646Y-115227378D01*
X170745071Y-115008499D01*
X170466501Y-114729929D01*
X170247622Y-114402354D01*
X170096859Y-114038378D01*
X170020000Y-113651984D01*
X170020000Y-113258016D01*
X170096859Y-112871622D01*
X170247622Y-112507646D01*
X170466501Y-112180071D01*
X170745071Y-111901501D01*
X171072646Y-111682622D01*
X171436622Y-111531859D01*
X171823016Y-111455000D01*
X172216984Y-111455000D01*
X172603378Y-111531859D01*
X172603378Y-111531859D01*
G37*
G36*
X197609903Y-113215587D02*
X197767068Y-113280687D01*
X197908513Y-113375198D01*
X198028802Y-113495487D01*
X198123313Y-113636932D01*
X198188413Y-113794097D01*
X198221600Y-113960943D01*
X198221600Y-114131057D01*
X198188413Y-114297903D01*
X198123313Y-114455068D01*
X198028802Y-114596513D01*
X197908513Y-114716802D01*
X197767068Y-114811313D01*
X197609903Y-114876413D01*
X197443057Y-114909600D01*
X197272943Y-114909600D01*
X197106097Y-114876413D01*
X196948932Y-114811313D01*
X196807487Y-114716802D01*
X196687198Y-114596513D01*
X196592687Y-114455068D01*
X196527587Y-114297903D01*
X196494400Y-114131057D01*
X196494400Y-113960943D01*
X196527587Y-113794097D01*
X196592687Y-113636932D01*
X196687198Y-113495487D01*
X196807487Y-113375198D01*
X196948932Y-113280687D01*
X197106097Y-113215587D01*
X197272943Y-113182400D01*
X197443057Y-113182400D01*
X197609903Y-113215587D01*
X197609903Y-113215587D01*
G37*
G36*
X199982712Y-113186565D02*
X200067295Y-113194896D01*
X200187727Y-113231429D01*
X200230088Y-113244279D01*
X200380112Y-113324468D01*
X200511612Y-113432388D01*
X200619532Y-113563888D01*
X200699721Y-113713912D01*
X200699722Y-113713916D01*
X200749104Y-113876705D01*
X200765778Y-114046000D01*
X200749104Y-114215295D01*
X200724045Y-114297903D01*
X200699721Y-114378088D01*
X200619532Y-114528112D01*
X200511612Y-114659612D01*
X200380112Y-114767532D01*
X200230088Y-114847721D01*
X200187727Y-114860571D01*
X200067295Y-114897104D01*
X199982712Y-114905435D01*
X199940421Y-114909600D01*
X199855579Y-114909600D01*
X199813288Y-114905435D01*
X199728705Y-114897104D01*
X199608273Y-114860571D01*
X199565912Y-114847721D01*
X199415888Y-114767532D01*
X199284388Y-114659612D01*
X199176468Y-114528112D01*
X199096279Y-114378088D01*
X199071955Y-114297903D01*
X199046896Y-114215295D01*
X199030222Y-114046000D01*
X199046896Y-113876705D01*
X199096278Y-113713916D01*
X199096279Y-113713912D01*
X199176468Y-113563888D01*
X199284388Y-113432388D01*
X199415888Y-113324468D01*
X199565912Y-113244279D01*
X199608273Y-113231429D01*
X199728705Y-113194896D01*
X199813288Y-113186565D01*
X199855579Y-113182400D01*
X199940421Y-113182400D01*
X199982712Y-113186565D01*
X199982712Y-113186565D01*
G37*
G36*
X111375770Y-112085372D02*
X111491689Y-112108429D01*
X111673678Y-112183811D01*
X111837463Y-112293249D01*
X111976751Y-112432537D01*
X112086189Y-112596322D01*
X112161571Y-112778311D01*
X112180131Y-112871622D01*
X112200000Y-112971507D01*
X112200000Y-113168493D01*
X112194748Y-113194896D01*
X112161571Y-113361689D01*
X112086189Y-113543678D01*
X111976751Y-113707463D01*
X111837463Y-113846751D01*
X111673678Y-113956189D01*
X111491689Y-114031571D01*
X111375770Y-114054628D01*
X111298493Y-114070000D01*
X111101507Y-114070000D01*
X111024230Y-114054628D01*
X110908311Y-114031571D01*
X110726322Y-113956189D01*
X110562537Y-113846751D01*
X110423249Y-113707463D01*
X110313811Y-113543678D01*
X110238429Y-113361689D01*
X110205252Y-113194896D01*
X110200000Y-113168493D01*
X110200000Y-112971507D01*
X110219869Y-112871622D01*
X110238429Y-112778311D01*
X110313811Y-112596322D01*
X110423249Y-112432537D01*
X110562537Y-112293249D01*
X110726322Y-112183811D01*
X110908311Y-112108429D01*
X111024230Y-112085372D01*
X111101507Y-112070000D01*
X111298493Y-112070000D01*
X111375770Y-112085372D01*
X111375770Y-112085372D01*
G37*
G36*
X199982712Y-110646565D02*
X200067295Y-110654896D01*
X200187727Y-110691429D01*
X200230088Y-110704279D01*
X200380112Y-110784468D01*
X200511612Y-110892388D01*
X200619532Y-111023888D01*
X200699721Y-111173912D01*
X200699722Y-111173916D01*
X200749104Y-111336705D01*
X200765778Y-111506000D01*
X200749104Y-111675295D01*
X200712571Y-111795727D01*
X200699721Y-111838088D01*
X200619532Y-111988112D01*
X200511612Y-112119612D01*
X200380112Y-112227532D01*
X200230088Y-112307721D01*
X200187727Y-112320571D01*
X200067295Y-112357104D01*
X199982712Y-112365435D01*
X199940421Y-112369600D01*
X199855579Y-112369600D01*
X199813288Y-112365435D01*
X199728705Y-112357104D01*
X199608273Y-112320571D01*
X199565912Y-112307721D01*
X199415888Y-112227532D01*
X199284388Y-112119612D01*
X199176468Y-111988112D01*
X199096279Y-111838088D01*
X199083429Y-111795727D01*
X199046896Y-111675295D01*
X199030222Y-111506000D01*
X199046896Y-111336705D01*
X199096278Y-111173916D01*
X199096279Y-111173912D01*
X199176468Y-111023888D01*
X199284388Y-110892388D01*
X199415888Y-110784468D01*
X199565912Y-110704279D01*
X199608273Y-110691429D01*
X199728705Y-110654896D01*
X199813288Y-110646565D01*
X199855579Y-110642400D01*
X199940421Y-110642400D01*
X199982712Y-110646565D01*
X199982712Y-110646565D01*
G37*
G36*
X197442712Y-110646565D02*
X197527295Y-110654896D01*
X197647727Y-110691429D01*
X197690088Y-110704279D01*
X197840112Y-110784468D01*
X197971612Y-110892388D01*
X198079532Y-111023888D01*
X198159721Y-111173912D01*
X198159722Y-111173916D01*
X198209104Y-111336705D01*
X198225778Y-111506000D01*
X198209104Y-111675295D01*
X198172571Y-111795727D01*
X198159721Y-111838088D01*
X198079532Y-111988112D01*
X197971612Y-112119612D01*
X197840112Y-112227532D01*
X197690088Y-112307721D01*
X197647727Y-112320571D01*
X197527295Y-112357104D01*
X197442712Y-112365435D01*
X197400421Y-112369600D01*
X197315579Y-112369600D01*
X197273288Y-112365435D01*
X197188705Y-112357104D01*
X197068273Y-112320571D01*
X197025912Y-112307721D01*
X196875888Y-112227532D01*
X196744388Y-112119612D01*
X196636468Y-111988112D01*
X196556279Y-111838088D01*
X196543429Y-111795727D01*
X196506896Y-111675295D01*
X196490222Y-111506000D01*
X196506896Y-111336705D01*
X196556278Y-111173916D01*
X196556279Y-111173912D01*
X196636468Y-111023888D01*
X196744388Y-110892388D01*
X196875888Y-110784468D01*
X197025912Y-110704279D01*
X197068273Y-110691429D01*
X197188705Y-110654896D01*
X197273288Y-110646565D01*
X197315579Y-110642400D01*
X197400421Y-110642400D01*
X197442712Y-110646565D01*
X197442712Y-110646565D01*
G37*
G36*
X111375770Y-108585372D02*
X111491689Y-108608429D01*
X111673678Y-108683811D01*
X111837463Y-108793249D01*
X111976751Y-108932537D01*
X112086189Y-109096322D01*
X112161571Y-109278311D01*
X112200000Y-109471509D01*
X112200000Y-109668491D01*
X112161571Y-109861689D01*
X112086189Y-110043678D01*
X111976751Y-110207463D01*
X111837463Y-110346751D01*
X111673678Y-110456189D01*
X111491689Y-110531571D01*
X111375770Y-110554628D01*
X111298493Y-110570000D01*
X111101507Y-110570000D01*
X111024230Y-110554628D01*
X110908311Y-110531571D01*
X110726322Y-110456189D01*
X110562537Y-110346751D01*
X110423249Y-110207463D01*
X110313811Y-110043678D01*
X110238429Y-109861689D01*
X110200000Y-109668491D01*
X110200000Y-109471509D01*
X110238429Y-109278311D01*
X110313811Y-109096322D01*
X110423249Y-108932537D01*
X110562537Y-108793249D01*
X110726322Y-108683811D01*
X110908311Y-108608429D01*
X111024230Y-108585372D01*
X111101507Y-108570000D01*
X111298493Y-108570000D01*
X111375770Y-108585372D01*
X111375770Y-108585372D01*
G37*
G36*
X199982712Y-108106565D02*
X200067295Y-108114896D01*
X200187727Y-108151429D01*
X200230088Y-108164279D01*
X200380112Y-108244468D01*
X200511612Y-108352388D01*
X200619532Y-108483888D01*
X200699721Y-108633912D01*
X200699722Y-108633916D01*
X200749104Y-108796705D01*
X200765778Y-108966000D01*
X200749104Y-109135295D01*
X200712571Y-109255727D01*
X200699721Y-109298088D01*
X200619532Y-109448112D01*
X200511612Y-109579612D01*
X200380112Y-109687532D01*
X200230088Y-109767721D01*
X200187727Y-109780571D01*
X200067295Y-109817104D01*
X199982712Y-109825435D01*
X199940421Y-109829600D01*
X199855579Y-109829600D01*
X199813288Y-109825435D01*
X199728705Y-109817104D01*
X199608273Y-109780571D01*
X199565912Y-109767721D01*
X199415888Y-109687532D01*
X199284388Y-109579612D01*
X199176468Y-109448112D01*
X199096279Y-109298088D01*
X199083429Y-109255727D01*
X199046896Y-109135295D01*
X199030222Y-108966000D01*
X199046896Y-108796705D01*
X199096278Y-108633916D01*
X199096279Y-108633912D01*
X199176468Y-108483888D01*
X199284388Y-108352388D01*
X199415888Y-108244468D01*
X199565912Y-108164279D01*
X199608273Y-108151429D01*
X199728705Y-108114896D01*
X199813288Y-108106565D01*
X199855579Y-108102400D01*
X199940421Y-108102400D01*
X199982712Y-108106565D01*
X199982712Y-108106565D01*
G37*
G36*
X197442712Y-108106565D02*
X197527295Y-108114896D01*
X197647727Y-108151429D01*
X197690088Y-108164279D01*
X197840112Y-108244468D01*
X197971612Y-108352388D01*
X198079532Y-108483888D01*
X198159721Y-108633912D01*
X198159722Y-108633916D01*
X198209104Y-108796705D01*
X198225778Y-108966000D01*
X198209104Y-109135295D01*
X198172571Y-109255727D01*
X198159721Y-109298088D01*
X198079532Y-109448112D01*
X197971612Y-109579612D01*
X197840112Y-109687532D01*
X197690088Y-109767721D01*
X197647727Y-109780571D01*
X197527295Y-109817104D01*
X197442712Y-109825435D01*
X197400421Y-109829600D01*
X197315579Y-109829600D01*
X197273288Y-109825435D01*
X197188705Y-109817104D01*
X197068273Y-109780571D01*
X197025912Y-109767721D01*
X196875888Y-109687532D01*
X196744388Y-109579612D01*
X196636468Y-109448112D01*
X196556279Y-109298088D01*
X196543429Y-109255727D01*
X196506896Y-109135295D01*
X196490222Y-108966000D01*
X196506896Y-108796705D01*
X196556278Y-108633916D01*
X196556279Y-108633912D01*
X196636468Y-108483888D01*
X196744388Y-108352388D01*
X196875888Y-108244468D01*
X197025912Y-108164279D01*
X197068273Y-108151429D01*
X197188705Y-108114896D01*
X197273288Y-108106565D01*
X197315579Y-108102400D01*
X197400421Y-108102400D01*
X197442712Y-108106565D01*
X197442712Y-108106565D01*
G37*
G36*
X187853352Y-105725743D02*
X187998941Y-105786048D01*
X188129973Y-105873601D01*
X188241399Y-105985027D01*
X188328952Y-106116059D01*
X188389257Y-106261648D01*
X188420000Y-106416205D01*
X188420000Y-106573795D01*
X188389257Y-106728352D01*
X188328952Y-106873941D01*
X188241399Y-107004973D01*
X188129973Y-107116399D01*
X187998941Y-107203952D01*
X187853352Y-107264257D01*
X187698795Y-107295000D01*
X187541205Y-107295000D01*
X187386648Y-107264257D01*
X187241059Y-107203952D01*
X187110027Y-107116399D01*
X186998601Y-107004973D01*
X186911048Y-106873941D01*
X186850743Y-106728352D01*
X186820000Y-106573795D01*
X186820000Y-106416205D01*
X186850743Y-106261648D01*
X186911048Y-106116059D01*
X186998601Y-105985027D01*
X187110027Y-105873601D01*
X187241059Y-105786048D01*
X187386648Y-105725743D01*
X187541205Y-105695000D01*
X187698795Y-105695000D01*
X187853352Y-105725743D01*
X187853352Y-105725743D01*
G37*
G36*
X170833352Y-105725743D02*
X170978941Y-105786048D01*
X171109973Y-105873601D01*
X171221399Y-105985027D01*
X171308952Y-106116059D01*
X171369257Y-106261648D01*
X171400000Y-106416205D01*
X171400000Y-106573795D01*
X171369257Y-106728352D01*
X171308952Y-106873941D01*
X171221399Y-107004973D01*
X171109973Y-107116399D01*
X170978941Y-107203952D01*
X170833352Y-107264257D01*
X170678795Y-107295000D01*
X170521205Y-107295000D01*
X170366648Y-107264257D01*
X170221059Y-107203952D01*
X170090027Y-107116399D01*
X169978601Y-107004973D01*
X169891048Y-106873941D01*
X169830743Y-106728352D01*
X169800000Y-106573795D01*
X169800000Y-106416205D01*
X169830743Y-106261648D01*
X169891048Y-106116059D01*
X169978601Y-105985027D01*
X170090027Y-105873601D01*
X170221059Y-105786048D01*
X170366648Y-105725743D01*
X170521205Y-105695000D01*
X170678795Y-105695000D01*
X170833352Y-105725743D01*
X170833352Y-105725743D01*
G37*
G36*
X197442712Y-105566565D02*
X197527295Y-105574896D01*
X197647727Y-105611429D01*
X197690088Y-105624279D01*
X197840112Y-105704468D01*
X197971612Y-105812388D01*
X198079532Y-105943888D01*
X198159721Y-106093912D01*
X198159722Y-106093916D01*
X198209104Y-106256705D01*
X198225778Y-106426000D01*
X198209104Y-106595295D01*
X198175078Y-106707463D01*
X198159721Y-106758088D01*
X198079532Y-106908112D01*
X197971612Y-107039612D01*
X197840112Y-107147532D01*
X197690088Y-107227721D01*
X197647727Y-107240571D01*
X197527295Y-107277104D01*
X197442712Y-107285435D01*
X197400421Y-107289600D01*
X197315579Y-107289600D01*
X197273288Y-107285435D01*
X197188705Y-107277104D01*
X197068273Y-107240571D01*
X197025912Y-107227721D01*
X196875888Y-107147532D01*
X196744388Y-107039612D01*
X196636468Y-106908112D01*
X196556279Y-106758088D01*
X196540922Y-106707463D01*
X196506896Y-106595295D01*
X196490222Y-106426000D01*
X196506896Y-106256705D01*
X196556278Y-106093916D01*
X196556279Y-106093912D01*
X196636468Y-105943888D01*
X196744388Y-105812388D01*
X196875888Y-105704468D01*
X197025912Y-105624279D01*
X197068273Y-105611429D01*
X197188705Y-105574896D01*
X197273288Y-105566565D01*
X197315579Y-105562400D01*
X197400421Y-105562400D01*
X197442712Y-105566565D01*
X197442712Y-105566565D01*
G37*
G36*
X199982712Y-105566565D02*
X200067295Y-105574896D01*
X200187727Y-105611429D01*
X200230088Y-105624279D01*
X200380112Y-105704468D01*
X200511612Y-105812388D01*
X200619532Y-105943888D01*
X200699721Y-106093912D01*
X200699722Y-106093916D01*
X200749104Y-106256705D01*
X200765778Y-106426000D01*
X200749104Y-106595295D01*
X200715078Y-106707463D01*
X200699721Y-106758088D01*
X200619532Y-106908112D01*
X200511612Y-107039612D01*
X200380112Y-107147532D01*
X200230088Y-107227721D01*
X200187727Y-107240571D01*
X200067295Y-107277104D01*
X199982712Y-107285435D01*
X199940421Y-107289600D01*
X199855579Y-107289600D01*
X199813288Y-107285435D01*
X199728705Y-107277104D01*
X199608273Y-107240571D01*
X199565912Y-107227721D01*
X199415888Y-107147532D01*
X199284388Y-107039612D01*
X199176468Y-106908112D01*
X199096279Y-106758088D01*
X199080922Y-106707463D01*
X199046896Y-106595295D01*
X199030222Y-106426000D01*
X199046896Y-106256705D01*
X199096278Y-106093916D01*
X199096279Y-106093912D01*
X199176468Y-105943888D01*
X199284388Y-105812388D01*
X199415888Y-105704468D01*
X199565912Y-105624279D01*
X199608273Y-105611429D01*
X199728705Y-105574896D01*
X199813288Y-105566565D01*
X199855579Y-105562400D01*
X199940421Y-105562400D01*
X199982712Y-105566565D01*
X199982712Y-105566565D01*
G37*
G36*
X111375770Y-105085372D02*
X111491689Y-105108429D01*
X111673678Y-105183811D01*
X111837463Y-105293249D01*
X111976751Y-105432537D01*
X112086189Y-105596322D01*
X112161571Y-105778311D01*
X112200000Y-105971509D01*
X112200000Y-106168491D01*
X112161571Y-106361689D01*
X112086189Y-106543678D01*
X111976751Y-106707463D01*
X111837463Y-106846751D01*
X111673678Y-106956189D01*
X111491689Y-107031571D01*
X111375770Y-107054628D01*
X111298493Y-107070000D01*
X111101507Y-107070000D01*
X111024230Y-107054628D01*
X110908311Y-107031571D01*
X110726322Y-106956189D01*
X110562537Y-106846751D01*
X110423249Y-106707463D01*
X110313811Y-106543678D01*
X110238429Y-106361689D01*
X110200000Y-106168491D01*
X110200000Y-105971509D01*
X110238429Y-105778311D01*
X110313811Y-105596322D01*
X110423249Y-105432537D01*
X110562537Y-105293249D01*
X110726322Y-105183811D01*
X110908311Y-105108429D01*
X111024230Y-105085372D01*
X111101507Y-105070000D01*
X111298493Y-105070000D01*
X111375770Y-105085372D01*
X111375770Y-105085372D01*
G37*
G36*
X190693352Y-104340743D02*
X190838941Y-104401048D01*
X190969973Y-104488601D01*
X191081399Y-104600027D01*
X191168952Y-104731059D01*
X191229257Y-104876648D01*
X191260000Y-105031205D01*
X191260000Y-105188795D01*
X191229257Y-105343352D01*
X191168952Y-105488941D01*
X191081399Y-105619973D01*
X190969973Y-105731399D01*
X190838941Y-105818952D01*
X190693352Y-105879257D01*
X190538795Y-105910000D01*
X190381205Y-105910000D01*
X190226648Y-105879257D01*
X190081059Y-105818952D01*
X189950027Y-105731399D01*
X189838601Y-105619973D01*
X189751048Y-105488941D01*
X189690743Y-105343352D01*
X189660000Y-105188795D01*
X189660000Y-105031205D01*
X189690743Y-104876648D01*
X189751048Y-104731059D01*
X189838601Y-104600027D01*
X189950027Y-104488601D01*
X190081059Y-104401048D01*
X190226648Y-104340743D01*
X190381205Y-104310000D01*
X190538795Y-104310000D01*
X190693352Y-104340743D01*
X190693352Y-104340743D01*
G37*
G36*
X173673352Y-104340743D02*
X173818941Y-104401048D01*
X173949973Y-104488601D01*
X174061399Y-104600027D01*
X174148952Y-104731059D01*
X174209257Y-104876648D01*
X174240000Y-105031205D01*
X174240000Y-105188795D01*
X174209257Y-105343352D01*
X174148952Y-105488941D01*
X174061399Y-105619973D01*
X173949973Y-105731399D01*
X173818941Y-105818952D01*
X173673352Y-105879257D01*
X173518795Y-105910000D01*
X173361205Y-105910000D01*
X173206648Y-105879257D01*
X173061059Y-105818952D01*
X172930027Y-105731399D01*
X172818601Y-105619973D01*
X172731048Y-105488941D01*
X172670743Y-105343352D01*
X172640000Y-105188795D01*
X172640000Y-105031205D01*
X172670743Y-104876648D01*
X172731048Y-104731059D01*
X172818601Y-104600027D01*
X172930027Y-104488601D01*
X173061059Y-104401048D01*
X173206648Y-104340743D01*
X173361205Y-104310000D01*
X173518795Y-104310000D01*
X173673352Y-104340743D01*
X173673352Y-104340743D01*
G37*
G36*
X197442712Y-103026565D02*
X197527295Y-103034896D01*
X197647727Y-103071429D01*
X197690088Y-103084279D01*
X197840112Y-103164468D01*
X197971612Y-103272388D01*
X198079532Y-103403888D01*
X198159721Y-103553912D01*
X198159722Y-103553916D01*
X198209104Y-103716705D01*
X198225778Y-103886000D01*
X198209104Y-104055295D01*
X198194347Y-104103941D01*
X198159721Y-104218088D01*
X198079532Y-104368112D01*
X197971612Y-104499612D01*
X197840112Y-104607532D01*
X197690088Y-104687721D01*
X197647727Y-104700571D01*
X197527295Y-104737104D01*
X197442712Y-104745435D01*
X197400421Y-104749600D01*
X197315579Y-104749600D01*
X197273288Y-104745435D01*
X197188705Y-104737104D01*
X197068273Y-104700571D01*
X197025912Y-104687721D01*
X196875888Y-104607532D01*
X196744388Y-104499612D01*
X196636468Y-104368112D01*
X196556279Y-104218088D01*
X196521653Y-104103941D01*
X196506896Y-104055295D01*
X196490222Y-103886000D01*
X196506896Y-103716705D01*
X196556278Y-103553916D01*
X196556279Y-103553912D01*
X196636468Y-103403888D01*
X196744388Y-103272388D01*
X196875888Y-103164468D01*
X197025912Y-103084279D01*
X197068273Y-103071429D01*
X197188705Y-103034896D01*
X197273288Y-103026565D01*
X197315579Y-103022400D01*
X197400421Y-103022400D01*
X197442712Y-103026565D01*
X197442712Y-103026565D01*
G37*
G36*
X199982712Y-103026565D02*
X200067295Y-103034896D01*
X200187727Y-103071429D01*
X200230088Y-103084279D01*
X200380112Y-103164468D01*
X200511612Y-103272388D01*
X200619532Y-103403888D01*
X200699721Y-103553912D01*
X200699722Y-103553916D01*
X200749104Y-103716705D01*
X200765778Y-103886000D01*
X200749104Y-104055295D01*
X200734347Y-104103941D01*
X200699721Y-104218088D01*
X200619532Y-104368112D01*
X200511612Y-104499612D01*
X200380112Y-104607532D01*
X200230088Y-104687721D01*
X200187727Y-104700571D01*
X200067295Y-104737104D01*
X199982712Y-104745435D01*
X199940421Y-104749600D01*
X199855579Y-104749600D01*
X199813288Y-104745435D01*
X199728705Y-104737104D01*
X199608273Y-104700571D01*
X199565912Y-104687721D01*
X199415888Y-104607532D01*
X199284388Y-104499612D01*
X199176468Y-104368112D01*
X199096279Y-104218088D01*
X199061653Y-104103941D01*
X199046896Y-104055295D01*
X199030222Y-103886000D01*
X199046896Y-103716705D01*
X199096278Y-103553916D01*
X199096279Y-103553912D01*
X199176468Y-103403888D01*
X199284388Y-103272388D01*
X199415888Y-103164468D01*
X199565912Y-103084279D01*
X199608273Y-103071429D01*
X199728705Y-103034896D01*
X199813288Y-103026565D01*
X199855579Y-103022400D01*
X199940421Y-103022400D01*
X199982712Y-103026565D01*
X199982712Y-103026565D01*
G37*
G36*
X170833352Y-102955743D02*
X170978941Y-103016048D01*
X171109973Y-103103601D01*
X171221399Y-103215027D01*
X171308952Y-103346059D01*
X171369257Y-103491648D01*
X171400000Y-103646205D01*
X171400000Y-103803795D01*
X171369257Y-103958352D01*
X171308952Y-104103941D01*
X171221399Y-104234973D01*
X171109973Y-104346399D01*
X170978941Y-104433952D01*
X170833352Y-104494257D01*
X170678795Y-104525000D01*
X170521205Y-104525000D01*
X170366648Y-104494257D01*
X170221059Y-104433952D01*
X170090027Y-104346399D01*
X169978601Y-104234973D01*
X169891048Y-104103941D01*
X169830743Y-103958352D01*
X169800000Y-103803795D01*
X169800000Y-103646205D01*
X169830743Y-103491648D01*
X169891048Y-103346059D01*
X169978601Y-103215027D01*
X170090027Y-103103601D01*
X170221059Y-103016048D01*
X170366648Y-102955743D01*
X170521205Y-102925000D01*
X170678795Y-102925000D01*
X170833352Y-102955743D01*
X170833352Y-102955743D01*
G37*
G36*
X187853352Y-102955743D02*
X187998941Y-103016048D01*
X188129973Y-103103601D01*
X188241399Y-103215027D01*
X188328952Y-103346059D01*
X188389257Y-103491648D01*
X188420000Y-103646205D01*
X188420000Y-103803795D01*
X188389257Y-103958352D01*
X188328952Y-104103941D01*
X188241399Y-104234973D01*
X188129973Y-104346399D01*
X187998941Y-104433952D01*
X187853352Y-104494257D01*
X187698795Y-104525000D01*
X187541205Y-104525000D01*
X187386648Y-104494257D01*
X187241059Y-104433952D01*
X187110027Y-104346399D01*
X186998601Y-104234973D01*
X186911048Y-104103941D01*
X186850743Y-103958352D01*
X186820000Y-103803795D01*
X186820000Y-103646205D01*
X186850743Y-103491648D01*
X186911048Y-103346059D01*
X186998601Y-103215027D01*
X187110027Y-103103601D01*
X187241059Y-103016048D01*
X187386648Y-102955743D01*
X187541205Y-102925000D01*
X187698795Y-102925000D01*
X187853352Y-102955743D01*
X187853352Y-102955743D01*
G37*
G36*
X111375770Y-101585372D02*
X111491689Y-101608429D01*
X111673678Y-101683811D01*
X111837463Y-101793249D01*
X111976751Y-101932537D01*
X112086189Y-102096322D01*
X112161571Y-102278311D01*
X112200000Y-102471509D01*
X112200000Y-102668491D01*
X112161571Y-102861689D01*
X112086189Y-103043678D01*
X111976751Y-103207463D01*
X111837463Y-103346751D01*
X111673678Y-103456189D01*
X111491689Y-103531571D01*
X111379372Y-103553912D01*
X111298493Y-103570000D01*
X111101507Y-103570000D01*
X111020628Y-103553912D01*
X110908311Y-103531571D01*
X110726322Y-103456189D01*
X110562537Y-103346751D01*
X110423249Y-103207463D01*
X110313811Y-103043678D01*
X110238429Y-102861689D01*
X110200000Y-102668491D01*
X110200000Y-102471509D01*
X110238429Y-102278311D01*
X110313811Y-102096322D01*
X110423249Y-101932537D01*
X110562537Y-101793249D01*
X110726322Y-101683811D01*
X110908311Y-101608429D01*
X111024230Y-101585372D01*
X111101507Y-101570000D01*
X111298493Y-101570000D01*
X111375770Y-101585372D01*
X111375770Y-101585372D01*
G37*
G36*
X173673352Y-101570743D02*
X173818941Y-101631048D01*
X173949973Y-101718601D01*
X174061399Y-101830027D01*
X174148952Y-101961059D01*
X174209257Y-102106648D01*
X174240000Y-102261205D01*
X174240000Y-102418795D01*
X174209257Y-102573352D01*
X174148952Y-102718941D01*
X174061399Y-102849973D01*
X173949973Y-102961399D01*
X173818941Y-103048952D01*
X173673352Y-103109257D01*
X173518795Y-103140000D01*
X173361205Y-103140000D01*
X173206648Y-103109257D01*
X173061059Y-103048952D01*
X172930027Y-102961399D01*
X172818601Y-102849973D01*
X172731048Y-102718941D01*
X172670743Y-102573352D01*
X172640000Y-102418795D01*
X172640000Y-102261205D01*
X172670743Y-102106648D01*
X172731048Y-101961059D01*
X172818601Y-101830027D01*
X172930027Y-101718601D01*
X173061059Y-101631048D01*
X173206648Y-101570743D01*
X173361205Y-101540000D01*
X173518795Y-101540000D01*
X173673352Y-101570743D01*
X173673352Y-101570743D01*
G37*
G36*
X190693352Y-101570743D02*
X190838941Y-101631048D01*
X190969973Y-101718601D01*
X191081399Y-101830027D01*
X191168952Y-101961059D01*
X191229257Y-102106648D01*
X191260000Y-102261205D01*
X191260000Y-102418795D01*
X191229257Y-102573352D01*
X191168952Y-102718941D01*
X191081399Y-102849973D01*
X190969973Y-102961399D01*
X190838941Y-103048952D01*
X190693352Y-103109257D01*
X190538795Y-103140000D01*
X190381205Y-103140000D01*
X190226648Y-103109257D01*
X190081059Y-103048952D01*
X189950027Y-102961399D01*
X189838601Y-102849973D01*
X189751048Y-102718941D01*
X189690743Y-102573352D01*
X189660000Y-102418795D01*
X189660000Y-102261205D01*
X189690743Y-102106648D01*
X189751048Y-101961059D01*
X189838601Y-101830027D01*
X189950027Y-101718601D01*
X190081059Y-101631048D01*
X190226648Y-101570743D01*
X190381205Y-101540000D01*
X190538795Y-101540000D01*
X190693352Y-101570743D01*
X190693352Y-101570743D01*
G37*
G36*
X199982712Y-100486565D02*
X200067295Y-100494896D01*
X200187727Y-100531429D01*
X200230088Y-100544279D01*
X200380112Y-100624468D01*
X200511612Y-100732388D01*
X200619532Y-100863888D01*
X200699721Y-101013912D01*
X200699722Y-101013916D01*
X200749104Y-101176705D01*
X200765778Y-101346000D01*
X200749104Y-101515295D01*
X200720852Y-101608429D01*
X200699721Y-101678088D01*
X200619532Y-101828112D01*
X200511612Y-101959612D01*
X200380112Y-102067532D01*
X200230088Y-102147721D01*
X200187727Y-102160571D01*
X200067295Y-102197104D01*
X199982712Y-102205435D01*
X199940421Y-102209600D01*
X199855579Y-102209600D01*
X199813288Y-102205435D01*
X199728705Y-102197104D01*
X199608273Y-102160571D01*
X199565912Y-102147721D01*
X199415888Y-102067532D01*
X199284388Y-101959612D01*
X199176468Y-101828112D01*
X199096279Y-101678088D01*
X199075148Y-101608429D01*
X199046896Y-101515295D01*
X199030222Y-101346000D01*
X199046896Y-101176705D01*
X199096278Y-101013916D01*
X199096279Y-101013912D01*
X199176468Y-100863888D01*
X199284388Y-100732388D01*
X199415888Y-100624468D01*
X199565912Y-100544279D01*
X199608273Y-100531429D01*
X199728705Y-100494896D01*
X199813288Y-100486565D01*
X199855579Y-100482400D01*
X199940421Y-100482400D01*
X199982712Y-100486565D01*
X199982712Y-100486565D01*
G37*
G36*
X197442712Y-100486565D02*
X197527295Y-100494896D01*
X197647727Y-100531429D01*
X197690088Y-100544279D01*
X197840112Y-100624468D01*
X197971612Y-100732388D01*
X198079532Y-100863888D01*
X198159721Y-101013912D01*
X198159722Y-101013916D01*
X198209104Y-101176705D01*
X198225778Y-101346000D01*
X198209104Y-101515295D01*
X198180852Y-101608429D01*
X198159721Y-101678088D01*
X198079532Y-101828112D01*
X197971612Y-101959612D01*
X197840112Y-102067532D01*
X197690088Y-102147721D01*
X197647727Y-102160571D01*
X197527295Y-102197104D01*
X197442712Y-102205435D01*
X197400421Y-102209600D01*
X197315579Y-102209600D01*
X197273288Y-102205435D01*
X197188705Y-102197104D01*
X197068273Y-102160571D01*
X197025912Y-102147721D01*
X196875888Y-102067532D01*
X196744388Y-101959612D01*
X196636468Y-101828112D01*
X196556279Y-101678088D01*
X196535148Y-101608429D01*
X196506896Y-101515295D01*
X196490222Y-101346000D01*
X196506896Y-101176705D01*
X196556278Y-101013916D01*
X196556279Y-101013912D01*
X196636468Y-100863888D01*
X196744388Y-100732388D01*
X196875888Y-100624468D01*
X197025912Y-100544279D01*
X197068273Y-100531429D01*
X197188705Y-100494896D01*
X197273288Y-100486565D01*
X197315579Y-100482400D01*
X197400421Y-100482400D01*
X197442712Y-100486565D01*
X197442712Y-100486565D01*
G37*
G36*
X187853352Y-100185743D02*
X187998941Y-100246048D01*
X188129973Y-100333601D01*
X188241399Y-100445027D01*
X188328952Y-100576059D01*
X188389257Y-100721648D01*
X188420000Y-100876205D01*
X188420000Y-101033795D01*
X188389257Y-101188352D01*
X188328952Y-101333941D01*
X188241399Y-101464973D01*
X188129973Y-101576399D01*
X187998941Y-101663952D01*
X187853352Y-101724257D01*
X187698795Y-101755000D01*
X187541205Y-101755000D01*
X187386648Y-101724257D01*
X187241059Y-101663952D01*
X187110027Y-101576399D01*
X186998601Y-101464973D01*
X186911048Y-101333941D01*
X186850743Y-101188352D01*
X186820000Y-101033795D01*
X186820000Y-100876205D01*
X186850743Y-100721648D01*
X186911048Y-100576059D01*
X186998601Y-100445027D01*
X187110027Y-100333601D01*
X187241059Y-100246048D01*
X187386648Y-100185743D01*
X187541205Y-100155000D01*
X187698795Y-100155000D01*
X187853352Y-100185743D01*
X187853352Y-100185743D01*
G37*
G36*
X170833352Y-100185743D02*
X170978941Y-100246048D01*
X171109973Y-100333601D01*
X171221399Y-100445027D01*
X171308952Y-100576059D01*
X171369257Y-100721648D01*
X171400000Y-100876205D01*
X171400000Y-101033795D01*
X171369257Y-101188352D01*
X171308952Y-101333941D01*
X171221399Y-101464973D01*
X171109973Y-101576399D01*
X170978941Y-101663952D01*
X170833352Y-101724257D01*
X170678795Y-101755000D01*
X170521205Y-101755000D01*
X170366648Y-101724257D01*
X170221059Y-101663952D01*
X170090027Y-101576399D01*
X169978601Y-101464973D01*
X169891048Y-101333941D01*
X169830743Y-101188352D01*
X169800000Y-101033795D01*
X169800000Y-100876205D01*
X169830743Y-100721648D01*
X169891048Y-100576059D01*
X169978601Y-100445027D01*
X170090027Y-100333601D01*
X170221059Y-100246048D01*
X170366648Y-100185743D01*
X170521205Y-100155000D01*
X170678795Y-100155000D01*
X170833352Y-100185743D01*
X170833352Y-100185743D01*
G37*
G36*
X190693352Y-98800743D02*
X190838941Y-98861048D01*
X190969973Y-98948601D01*
X191081399Y-99060027D01*
X191168952Y-99191059D01*
X191229257Y-99336648D01*
X191260000Y-99491205D01*
X191260000Y-99648795D01*
X191229257Y-99803352D01*
X191168952Y-99948941D01*
X191081399Y-100079973D01*
X190969973Y-100191399D01*
X190838941Y-100278952D01*
X190693352Y-100339257D01*
X190538795Y-100370000D01*
X190381205Y-100370000D01*
X190226648Y-100339257D01*
X190081059Y-100278952D01*
X189950027Y-100191399D01*
X189838601Y-100079973D01*
X189751048Y-99948941D01*
X189690743Y-99803352D01*
X189660000Y-99648795D01*
X189660000Y-99491205D01*
X189690743Y-99336648D01*
X189751048Y-99191059D01*
X189838601Y-99060027D01*
X189950027Y-98948601D01*
X190081059Y-98861048D01*
X190226648Y-98800743D01*
X190381205Y-98770000D01*
X190538795Y-98770000D01*
X190693352Y-98800743D01*
X190693352Y-98800743D01*
G37*
G36*
X173673352Y-98800743D02*
X173818941Y-98861048D01*
X173949973Y-98948601D01*
X174061399Y-99060027D01*
X174148952Y-99191059D01*
X174209257Y-99336648D01*
X174240000Y-99491205D01*
X174240000Y-99648795D01*
X174209257Y-99803352D01*
X174148952Y-99948941D01*
X174061399Y-100079973D01*
X173949973Y-100191399D01*
X173818941Y-100278952D01*
X173673352Y-100339257D01*
X173518795Y-100370000D01*
X173361205Y-100370000D01*
X173206648Y-100339257D01*
X173061059Y-100278952D01*
X172930027Y-100191399D01*
X172818601Y-100079973D01*
X172731048Y-99948941D01*
X172670743Y-99803352D01*
X172640000Y-99648795D01*
X172640000Y-99491205D01*
X172670743Y-99336648D01*
X172731048Y-99191059D01*
X172818601Y-99060027D01*
X172930027Y-98948601D01*
X173061059Y-98861048D01*
X173206648Y-98800743D01*
X173361205Y-98770000D01*
X173518795Y-98770000D01*
X173673352Y-98800743D01*
X173673352Y-98800743D01*
G37*
G36*
X111375770Y-98085372D02*
X111491689Y-98108429D01*
X111673678Y-98183811D01*
X111837463Y-98293249D01*
X111976751Y-98432537D01*
X112086189Y-98596322D01*
X112161571Y-98778311D01*
X112167158Y-98806399D01*
X112196569Y-98954257D01*
X112200000Y-98971509D01*
X112200000Y-99168491D01*
X112161571Y-99361689D01*
X112086189Y-99543678D01*
X111976751Y-99707463D01*
X111837463Y-99846751D01*
X111673678Y-99956189D01*
X111491689Y-100031571D01*
X111375770Y-100054628D01*
X111298493Y-100070000D01*
X111101507Y-100070000D01*
X111024230Y-100054628D01*
X110908311Y-100031571D01*
X110726322Y-99956189D01*
X110562537Y-99846751D01*
X110423249Y-99707463D01*
X110313811Y-99543678D01*
X110238429Y-99361689D01*
X110200000Y-99168491D01*
X110200000Y-98971509D01*
X110203432Y-98954257D01*
X110232842Y-98806399D01*
X110238429Y-98778311D01*
X110313811Y-98596322D01*
X110423249Y-98432537D01*
X110562537Y-98293249D01*
X110726322Y-98183811D01*
X110908311Y-98108429D01*
X111024230Y-98085372D01*
X111101507Y-98070000D01*
X111298493Y-98070000D01*
X111375770Y-98085372D01*
X111375770Y-98085372D01*
G37*
G36*
X199982712Y-97946565D02*
X200067295Y-97954896D01*
X200187727Y-97991429D01*
X200230088Y-98004279D01*
X200380112Y-98084468D01*
X200511612Y-98192388D01*
X200619532Y-98323888D01*
X200699721Y-98473912D01*
X200699722Y-98473916D01*
X200749104Y-98636705D01*
X200765778Y-98806000D01*
X200749104Y-98975295D01*
X200712571Y-99095727D01*
X200699721Y-99138088D01*
X200619532Y-99288112D01*
X200511612Y-99419612D01*
X200380112Y-99527532D01*
X200230088Y-99607721D01*
X200187727Y-99620571D01*
X200067295Y-99657104D01*
X199982712Y-99665435D01*
X199940421Y-99669600D01*
X199855579Y-99669600D01*
X199813288Y-99665435D01*
X199728705Y-99657104D01*
X199608273Y-99620571D01*
X199565912Y-99607721D01*
X199415888Y-99527532D01*
X199284388Y-99419612D01*
X199176468Y-99288112D01*
X199096279Y-99138088D01*
X199083429Y-99095727D01*
X199046896Y-98975295D01*
X199030222Y-98806000D01*
X199046896Y-98636705D01*
X199096278Y-98473916D01*
X199096279Y-98473912D01*
X199176468Y-98323888D01*
X199284388Y-98192388D01*
X199415888Y-98084468D01*
X199565912Y-98004279D01*
X199608273Y-97991429D01*
X199728705Y-97954896D01*
X199813288Y-97946565D01*
X199855579Y-97942400D01*
X199940421Y-97942400D01*
X199982712Y-97946565D01*
X199982712Y-97946565D01*
G37*
G36*
X197442712Y-97946565D02*
X197527295Y-97954896D01*
X197647727Y-97991429D01*
X197690088Y-98004279D01*
X197840112Y-98084468D01*
X197971612Y-98192388D01*
X198079532Y-98323888D01*
X198159721Y-98473912D01*
X198159722Y-98473916D01*
X198209104Y-98636705D01*
X198225778Y-98806000D01*
X198209104Y-98975295D01*
X198172571Y-99095727D01*
X198159721Y-99138088D01*
X198079532Y-99288112D01*
X197971612Y-99419612D01*
X197840112Y-99527532D01*
X197690088Y-99607721D01*
X197647727Y-99620571D01*
X197527295Y-99657104D01*
X197442712Y-99665435D01*
X197400421Y-99669600D01*
X197315579Y-99669600D01*
X197273288Y-99665435D01*
X197188705Y-99657104D01*
X197068273Y-99620571D01*
X197025912Y-99607721D01*
X196875888Y-99527532D01*
X196744388Y-99419612D01*
X196636468Y-99288112D01*
X196556279Y-99138088D01*
X196543429Y-99095727D01*
X196506896Y-98975295D01*
X196490222Y-98806000D01*
X196506896Y-98636705D01*
X196556278Y-98473916D01*
X196556279Y-98473912D01*
X196636468Y-98323888D01*
X196744388Y-98192388D01*
X196875888Y-98084468D01*
X197025912Y-98004279D01*
X197068273Y-97991429D01*
X197188705Y-97954896D01*
X197273288Y-97946565D01*
X197315579Y-97942400D01*
X197400421Y-97942400D01*
X197442712Y-97946565D01*
X197442712Y-97946565D01*
G37*
G36*
X187853352Y-97415743D02*
X187998941Y-97476048D01*
X188129973Y-97563601D01*
X188241399Y-97675027D01*
X188328952Y-97806059D01*
X188389257Y-97951648D01*
X188420000Y-98106205D01*
X188420000Y-98263795D01*
X188389257Y-98418352D01*
X188328952Y-98563941D01*
X188241399Y-98694973D01*
X188129973Y-98806399D01*
X187998941Y-98893952D01*
X187853352Y-98954257D01*
X187698795Y-98985000D01*
X187541205Y-98985000D01*
X187386648Y-98954257D01*
X187241059Y-98893952D01*
X187110027Y-98806399D01*
X186998601Y-98694973D01*
X186911048Y-98563941D01*
X186850743Y-98418352D01*
X186820000Y-98263795D01*
X186820000Y-98106205D01*
X186850743Y-97951648D01*
X186911048Y-97806059D01*
X186998601Y-97675027D01*
X187110027Y-97563601D01*
X187241059Y-97476048D01*
X187386648Y-97415743D01*
X187541205Y-97385000D01*
X187698795Y-97385000D01*
X187853352Y-97415743D01*
X187853352Y-97415743D01*
G37*
G36*
X170833352Y-97415743D02*
X170978941Y-97476048D01*
X171109973Y-97563601D01*
X171221399Y-97675027D01*
X171308952Y-97806059D01*
X171369257Y-97951648D01*
X171400000Y-98106205D01*
X171400000Y-98263795D01*
X171369257Y-98418352D01*
X171308952Y-98563941D01*
X171221399Y-98694973D01*
X171109973Y-98806399D01*
X170978941Y-98893952D01*
X170833352Y-98954257D01*
X170678795Y-98985000D01*
X170521205Y-98985000D01*
X170366648Y-98954257D01*
X170221059Y-98893952D01*
X170090027Y-98806399D01*
X169978601Y-98694973D01*
X169891048Y-98563941D01*
X169830743Y-98418352D01*
X169800000Y-98263795D01*
X169800000Y-98106205D01*
X169830743Y-97951648D01*
X169891048Y-97806059D01*
X169978601Y-97675027D01*
X170090027Y-97563601D01*
X170221059Y-97476048D01*
X170366648Y-97415743D01*
X170521205Y-97385000D01*
X170678795Y-97385000D01*
X170833352Y-97415743D01*
X170833352Y-97415743D01*
G37*
G36*
X190693352Y-96030743D02*
X190838941Y-96091048D01*
X190969973Y-96178601D01*
X191081399Y-96290027D01*
X191168952Y-96421059D01*
X191229257Y-96566648D01*
X191260000Y-96721205D01*
X191260000Y-96878795D01*
X191229257Y-97033352D01*
X191168952Y-97178941D01*
X191081399Y-97309973D01*
X190969973Y-97421399D01*
X190838941Y-97508952D01*
X190693352Y-97569257D01*
X190538795Y-97600000D01*
X190381205Y-97600000D01*
X190226648Y-97569257D01*
X190081059Y-97508952D01*
X189950027Y-97421399D01*
X189838601Y-97309973D01*
X189751048Y-97178941D01*
X189690743Y-97033352D01*
X189660000Y-96878795D01*
X189660000Y-96721205D01*
X189690743Y-96566648D01*
X189751048Y-96421059D01*
X189838601Y-96290027D01*
X189950027Y-96178601D01*
X190081059Y-96091048D01*
X190226648Y-96030743D01*
X190381205Y-96000000D01*
X190538795Y-96000000D01*
X190693352Y-96030743D01*
X190693352Y-96030743D01*
G37*
G36*
X173673352Y-96030743D02*
X173818941Y-96091048D01*
X173949973Y-96178601D01*
X174061399Y-96290027D01*
X174148952Y-96421059D01*
X174209257Y-96566648D01*
X174240000Y-96721205D01*
X174240000Y-96878795D01*
X174209257Y-97033352D01*
X174148952Y-97178941D01*
X174061399Y-97309973D01*
X173949973Y-97421399D01*
X173818941Y-97508952D01*
X173673352Y-97569257D01*
X173518795Y-97600000D01*
X173361205Y-97600000D01*
X173206648Y-97569257D01*
X173061059Y-97508952D01*
X172930027Y-97421399D01*
X172818601Y-97309973D01*
X172731048Y-97178941D01*
X172670743Y-97033352D01*
X172640000Y-96878795D01*
X172640000Y-96721205D01*
X172670743Y-96566648D01*
X172731048Y-96421059D01*
X172818601Y-96290027D01*
X172930027Y-96178601D01*
X173061059Y-96091048D01*
X173206648Y-96030743D01*
X173361205Y-96000000D01*
X173518795Y-96000000D01*
X173673352Y-96030743D01*
X173673352Y-96030743D01*
G37*
G36*
X124626630Y-95662299D02*
X124786855Y-95710903D01*
X124934520Y-95789831D01*
X125063949Y-95896051D01*
X125170169Y-96025480D01*
X125249097Y-96173145D01*
X125297701Y-96333370D01*
X125314112Y-96500000D01*
X125297701Y-96666630D01*
X125249097Y-96826855D01*
X125170169Y-96974520D01*
X125063949Y-97103949D01*
X124934520Y-97210169D01*
X124786855Y-97289097D01*
X124626630Y-97337701D01*
X124501752Y-97350000D01*
X124418248Y-97350000D01*
X124293370Y-97337701D01*
X124133145Y-97289097D01*
X123985480Y-97210169D01*
X123856051Y-97103949D01*
X123749831Y-96974520D01*
X123670903Y-96826855D01*
X123622299Y-96666630D01*
X123605888Y-96500000D01*
X123622299Y-96333370D01*
X123670903Y-96173145D01*
X123749831Y-96025480D01*
X123856051Y-95896051D01*
X123985480Y-95789831D01*
X124133145Y-95710903D01*
X124293370Y-95662299D01*
X124418248Y-95650000D01*
X124501752Y-95650000D01*
X124626630Y-95662299D01*
X124626630Y-95662299D01*
G37*
G36*
X127850000Y-97350000D02*
X126150000Y-97350000D01*
X126150000Y-95650000D01*
X127850000Y-95650000D01*
X127850000Y-97350000D01*
X127850000Y-97350000D01*
G37*
G36*
X197442712Y-95406565D02*
X197527295Y-95414896D01*
X197647727Y-95451429D01*
X197690088Y-95464279D01*
X197840112Y-95544468D01*
X197971612Y-95652388D01*
X198079532Y-95783888D01*
X198159721Y-95933912D01*
X198159722Y-95933916D01*
X198209104Y-96096705D01*
X198225778Y-96266000D01*
X198209104Y-96435295D01*
X198179899Y-96531571D01*
X198159721Y-96598088D01*
X198079532Y-96748112D01*
X197971612Y-96879612D01*
X197840112Y-96987532D01*
X197690088Y-97067721D01*
X197647727Y-97080571D01*
X197527295Y-97117104D01*
X197442712Y-97125435D01*
X197400421Y-97129600D01*
X197315579Y-97129600D01*
X197273288Y-97125435D01*
X197188705Y-97117104D01*
X197068273Y-97080571D01*
X197025912Y-97067721D01*
X196875888Y-96987532D01*
X196744388Y-96879612D01*
X196636468Y-96748112D01*
X196556279Y-96598088D01*
X196536101Y-96531571D01*
X196506896Y-96435295D01*
X196490222Y-96266000D01*
X196506896Y-96096705D01*
X196556278Y-95933916D01*
X196556279Y-95933912D01*
X196636468Y-95783888D01*
X196744388Y-95652388D01*
X196875888Y-95544468D01*
X197025912Y-95464279D01*
X197068273Y-95451429D01*
X197188705Y-95414896D01*
X197273288Y-95406565D01*
X197315579Y-95402400D01*
X197400421Y-95402400D01*
X197442712Y-95406565D01*
X197442712Y-95406565D01*
G37*
G36*
X199982712Y-95406565D02*
X200067295Y-95414896D01*
X200187727Y-95451429D01*
X200230088Y-95464279D01*
X200380112Y-95544468D01*
X200511612Y-95652388D01*
X200619532Y-95783888D01*
X200699721Y-95933912D01*
X200699722Y-95933916D01*
X200749104Y-96096705D01*
X200765778Y-96266000D01*
X200749104Y-96435295D01*
X200719899Y-96531571D01*
X200699721Y-96598088D01*
X200619532Y-96748112D01*
X200511612Y-96879612D01*
X200380112Y-96987532D01*
X200230088Y-97067721D01*
X200187727Y-97080571D01*
X200067295Y-97117104D01*
X199982712Y-97125435D01*
X199940421Y-97129600D01*
X199855579Y-97129600D01*
X199813288Y-97125435D01*
X199728705Y-97117104D01*
X199608273Y-97080571D01*
X199565912Y-97067721D01*
X199415888Y-96987532D01*
X199284388Y-96879612D01*
X199176468Y-96748112D01*
X199096279Y-96598088D01*
X199076101Y-96531571D01*
X199046896Y-96435295D01*
X199030222Y-96266000D01*
X199046896Y-96096705D01*
X199096278Y-95933916D01*
X199096279Y-95933912D01*
X199176468Y-95783888D01*
X199284388Y-95652388D01*
X199415888Y-95544468D01*
X199565912Y-95464279D01*
X199608273Y-95451429D01*
X199728705Y-95414896D01*
X199813288Y-95406565D01*
X199855579Y-95402400D01*
X199940421Y-95402400D01*
X199982712Y-95406565D01*
X199982712Y-95406565D01*
G37*
G36*
X111375770Y-94585372D02*
X111491689Y-94608429D01*
X111673678Y-94683811D01*
X111837463Y-94793249D01*
X111976751Y-94932537D01*
X112086189Y-95096322D01*
X112161571Y-95278311D01*
X112200000Y-95471509D01*
X112200000Y-95668491D01*
X112161571Y-95861689D01*
X112086189Y-96043678D01*
X111976751Y-96207463D01*
X111837463Y-96346751D01*
X111673678Y-96456189D01*
X111491689Y-96531571D01*
X111375770Y-96554628D01*
X111298493Y-96570000D01*
X111101507Y-96570000D01*
X111024230Y-96554628D01*
X110908311Y-96531571D01*
X110726322Y-96456189D01*
X110562537Y-96346751D01*
X110423249Y-96207463D01*
X110313811Y-96043678D01*
X110238429Y-95861689D01*
X110200000Y-95668491D01*
X110200000Y-95471509D01*
X110238429Y-95278311D01*
X110313811Y-95096322D01*
X110423249Y-94932537D01*
X110562537Y-94793249D01*
X110726322Y-94683811D01*
X110908311Y-94608429D01*
X111024230Y-94585372D01*
X111101507Y-94570000D01*
X111298493Y-94570000D01*
X111375770Y-94585372D01*
X111375770Y-94585372D01*
G37*
G36*
X171400000Y-96215000D02*
X169800000Y-96215000D01*
X169800000Y-94615000D01*
X171400000Y-94615000D01*
X171400000Y-96215000D01*
X171400000Y-96215000D01*
G37*
G36*
X188420000Y-96215000D02*
X186820000Y-96215000D01*
X186820000Y-94615000D01*
X188420000Y-94615000D01*
X188420000Y-96215000D01*
X188420000Y-96215000D01*
G37*
G36*
X124626630Y-93122299D02*
X124786855Y-93170903D01*
X124934520Y-93249831D01*
X125063949Y-93356051D01*
X125170169Y-93485480D01*
X125249097Y-93633145D01*
X125297701Y-93793370D01*
X125314112Y-93960000D01*
X125297701Y-94126630D01*
X125249097Y-94286855D01*
X125170169Y-94434520D01*
X125063949Y-94563949D01*
X124934520Y-94670169D01*
X124786855Y-94749097D01*
X124626630Y-94797701D01*
X124501752Y-94810000D01*
X124418248Y-94810000D01*
X124293370Y-94797701D01*
X124133145Y-94749097D01*
X123985480Y-94670169D01*
X123856051Y-94563949D01*
X123749831Y-94434520D01*
X123670903Y-94286855D01*
X123622299Y-94126630D01*
X123605888Y-93960000D01*
X123622299Y-93793370D01*
X123670903Y-93633145D01*
X123749831Y-93485480D01*
X123856051Y-93356051D01*
X123985480Y-93249831D01*
X124133145Y-93170903D01*
X124293370Y-93122299D01*
X124418248Y-93110000D01*
X124501752Y-93110000D01*
X124626630Y-93122299D01*
X124626630Y-93122299D01*
G37*
G36*
X127166630Y-93122299D02*
X127326855Y-93170903D01*
X127474520Y-93249831D01*
X127603949Y-93356051D01*
X127710169Y-93485480D01*
X127789097Y-93633145D01*
X127837701Y-93793370D01*
X127854112Y-93960000D01*
X127837701Y-94126630D01*
X127789097Y-94286855D01*
X127710169Y-94434520D01*
X127603949Y-94563949D01*
X127474520Y-94670169D01*
X127326855Y-94749097D01*
X127166630Y-94797701D01*
X127041752Y-94810000D01*
X126958248Y-94810000D01*
X126833370Y-94797701D01*
X126673145Y-94749097D01*
X126525480Y-94670169D01*
X126396051Y-94563949D01*
X126289831Y-94434520D01*
X126210903Y-94286855D01*
X126162299Y-94126630D01*
X126145888Y-93960000D01*
X126162299Y-93793370D01*
X126210903Y-93633145D01*
X126289831Y-93485480D01*
X126396051Y-93356051D01*
X126525480Y-93249831D01*
X126673145Y-93170903D01*
X126833370Y-93122299D01*
X126958248Y-93110000D01*
X127041752Y-93110000D01*
X127166630Y-93122299D01*
X127166630Y-93122299D01*
G37*
G36*
X197442712Y-92866565D02*
X197527295Y-92874896D01*
X197647727Y-92911429D01*
X197690088Y-92924279D01*
X197840112Y-93004468D01*
X197971612Y-93112388D01*
X198079532Y-93243888D01*
X198159721Y-93393912D01*
X198159722Y-93393916D01*
X198209104Y-93556705D01*
X198225778Y-93726000D01*
X198209104Y-93895295D01*
X198186204Y-93970785D01*
X198159721Y-94058088D01*
X198079532Y-94208112D01*
X197971612Y-94339612D01*
X197840112Y-94447532D01*
X197690088Y-94527721D01*
X197647727Y-94540571D01*
X197527295Y-94577104D01*
X197442712Y-94585435D01*
X197400421Y-94589600D01*
X197315579Y-94589600D01*
X197273288Y-94585435D01*
X197188705Y-94577104D01*
X197068273Y-94540571D01*
X197025912Y-94527721D01*
X196875888Y-94447532D01*
X196744388Y-94339612D01*
X196636468Y-94208112D01*
X196556279Y-94058088D01*
X196529796Y-93970785D01*
X196506896Y-93895295D01*
X196490222Y-93726000D01*
X196506896Y-93556705D01*
X196556278Y-93393916D01*
X196556279Y-93393912D01*
X196636468Y-93243888D01*
X196744388Y-93112388D01*
X196875888Y-93004468D01*
X197025912Y-92924279D01*
X197068273Y-92911429D01*
X197188705Y-92874896D01*
X197273288Y-92866565D01*
X197315579Y-92862400D01*
X197400421Y-92862400D01*
X197442712Y-92866565D01*
X197442712Y-92866565D01*
G37*
G36*
X199982712Y-92866565D02*
X200067295Y-92874896D01*
X200187727Y-92911429D01*
X200230088Y-92924279D01*
X200380112Y-93004468D01*
X200511612Y-93112388D01*
X200619532Y-93243888D01*
X200699721Y-93393912D01*
X200699722Y-93393916D01*
X200749104Y-93556705D01*
X200765778Y-93726000D01*
X200749104Y-93895295D01*
X200726204Y-93970785D01*
X200699721Y-94058088D01*
X200619532Y-94208112D01*
X200511612Y-94339612D01*
X200380112Y-94447532D01*
X200230088Y-94527721D01*
X200187727Y-94540571D01*
X200067295Y-94577104D01*
X199982712Y-94585435D01*
X199940421Y-94589600D01*
X199855579Y-94589600D01*
X199813288Y-94585435D01*
X199728705Y-94577104D01*
X199608273Y-94540571D01*
X199565912Y-94527721D01*
X199415888Y-94447532D01*
X199284388Y-94339612D01*
X199176468Y-94208112D01*
X199096279Y-94058088D01*
X199069796Y-93970785D01*
X199046896Y-93895295D01*
X199030222Y-93726000D01*
X199046896Y-93556705D01*
X199096278Y-93393916D01*
X199096279Y-93393912D01*
X199176468Y-93243888D01*
X199284388Y-93112388D01*
X199415888Y-93004468D01*
X199565912Y-92924279D01*
X199608273Y-92911429D01*
X199728705Y-92874896D01*
X199813288Y-92866565D01*
X199855579Y-92862400D01*
X199940421Y-92862400D01*
X199982712Y-92866565D01*
X199982712Y-92866565D01*
G37*
G36*
X143645845Y-93009215D02*
X143736839Y-93046906D01*
X143771401Y-93070000D01*
X143818734Y-93101627D01*
X143888373Y-93171266D01*
X143888375Y-93171269D01*
X143940870Y-93249832D01*
X143943095Y-93253163D01*
X143980785Y-93344155D01*
X144000000Y-93440755D01*
X144000000Y-93539245D01*
X143980785Y-93635845D01*
X143943095Y-93726837D01*
X143888373Y-93808734D01*
X143818734Y-93878373D01*
X143818731Y-93878375D01*
X143736839Y-93933094D01*
X143645845Y-93970785D01*
X143549246Y-93990000D01*
X143450754Y-93990000D01*
X143354155Y-93970785D01*
X143263161Y-93933094D01*
X143181269Y-93878375D01*
X143181266Y-93878373D01*
X143111627Y-93808734D01*
X143056905Y-93726837D01*
X143019215Y-93635845D01*
X143000000Y-93539245D01*
X143000000Y-93440755D01*
X143019215Y-93344155D01*
X143056905Y-93253163D01*
X143059131Y-93249832D01*
X143111625Y-93171269D01*
X143111627Y-93171266D01*
X143181266Y-93101627D01*
X143228599Y-93070000D01*
X143263161Y-93046906D01*
X143354155Y-93009215D01*
X143450754Y-92990000D01*
X143549246Y-92990000D01*
X143645845Y-93009215D01*
X143645845Y-93009215D01*
G37*
G36*
X146645845Y-93009215D02*
X146736839Y-93046906D01*
X146771401Y-93070000D01*
X146818734Y-93101627D01*
X146888373Y-93171266D01*
X146888375Y-93171269D01*
X146940870Y-93249832D01*
X146943095Y-93253163D01*
X146980785Y-93344155D01*
X147000000Y-93440755D01*
X147000000Y-93539245D01*
X146980785Y-93635845D01*
X146943095Y-93726837D01*
X146888373Y-93808734D01*
X146818734Y-93878373D01*
X146818731Y-93878375D01*
X146736839Y-93933094D01*
X146645845Y-93970785D01*
X146549246Y-93990000D01*
X146450754Y-93990000D01*
X146354155Y-93970785D01*
X146263161Y-93933094D01*
X146181269Y-93878375D01*
X146181266Y-93878373D01*
X146111627Y-93808734D01*
X146056905Y-93726837D01*
X146019215Y-93635845D01*
X146000000Y-93539245D01*
X146000000Y-93440755D01*
X146019215Y-93344155D01*
X146056905Y-93253163D01*
X146059131Y-93249832D01*
X146111625Y-93171269D01*
X146111627Y-93171266D01*
X146181266Y-93101627D01*
X146228599Y-93070000D01*
X146263161Y-93046906D01*
X146354155Y-93009215D01*
X146450754Y-92990000D01*
X146549246Y-92990000D01*
X146645845Y-93009215D01*
X146645845Y-93009215D01*
G37*
G36*
X111375770Y-91085372D02*
X111491689Y-91108429D01*
X111673678Y-91183811D01*
X111837463Y-91293249D01*
X111976751Y-91432537D01*
X112086189Y-91596322D01*
X112161571Y-91778311D01*
X112200000Y-91971509D01*
X112200000Y-92168491D01*
X112161571Y-92361689D01*
X112086189Y-92543678D01*
X111976751Y-92707463D01*
X111837463Y-92846751D01*
X111673678Y-92956189D01*
X111491689Y-93031571D01*
X111375770Y-93054628D01*
X111298493Y-93070000D01*
X111101507Y-93070000D01*
X111024230Y-93054628D01*
X110908311Y-93031571D01*
X110726322Y-92956189D01*
X110562537Y-92846751D01*
X110423249Y-92707463D01*
X110313811Y-92543678D01*
X110238429Y-92361689D01*
X110200000Y-92168491D01*
X110200000Y-91971509D01*
X110238429Y-91778311D01*
X110313811Y-91596322D01*
X110423249Y-91432537D01*
X110562537Y-91293249D01*
X110726322Y-91183811D01*
X110908311Y-91108429D01*
X111024230Y-91085372D01*
X111101507Y-91070000D01*
X111298493Y-91070000D01*
X111375770Y-91085372D01*
X111375770Y-91085372D01*
G37*
G36*
X124626630Y-90582299D02*
X124786855Y-90630903D01*
X124934520Y-90709831D01*
X125063949Y-90816051D01*
X125170169Y-90945480D01*
X125249097Y-91093145D01*
X125297701Y-91253370D01*
X125314112Y-91420000D01*
X125297701Y-91586630D01*
X125249097Y-91746855D01*
X125170169Y-91894520D01*
X125063949Y-92023949D01*
X124934520Y-92130169D01*
X124786855Y-92209097D01*
X124626630Y-92257701D01*
X124501752Y-92270000D01*
X124418248Y-92270000D01*
X124293370Y-92257701D01*
X124133145Y-92209097D01*
X123985480Y-92130169D01*
X123856051Y-92023949D01*
X123749831Y-91894520D01*
X123670903Y-91746855D01*
X123622299Y-91586630D01*
X123605888Y-91420000D01*
X123622299Y-91253370D01*
X123670903Y-91093145D01*
X123749831Y-90945480D01*
X123856051Y-90816051D01*
X123985480Y-90709831D01*
X124133145Y-90630903D01*
X124293370Y-90582299D01*
X124418248Y-90570000D01*
X124501752Y-90570000D01*
X124626630Y-90582299D01*
X124626630Y-90582299D01*
G37*
G36*
X127166630Y-90582299D02*
X127326855Y-90630903D01*
X127474520Y-90709831D01*
X127603949Y-90816051D01*
X127710169Y-90945480D01*
X127789097Y-91093145D01*
X127837701Y-91253370D01*
X127854112Y-91420000D01*
X127837701Y-91586630D01*
X127789097Y-91746855D01*
X127710169Y-91894520D01*
X127603949Y-92023949D01*
X127474520Y-92130169D01*
X127326855Y-92209097D01*
X127166630Y-92257701D01*
X127041752Y-92270000D01*
X126958248Y-92270000D01*
X126833370Y-92257701D01*
X126673145Y-92209097D01*
X126525480Y-92130169D01*
X126396051Y-92023949D01*
X126289831Y-91894520D01*
X126210903Y-91746855D01*
X126162299Y-91586630D01*
X126145888Y-91420000D01*
X126162299Y-91253370D01*
X126210903Y-91093145D01*
X126289831Y-90945480D01*
X126396051Y-90816051D01*
X126525480Y-90709831D01*
X126673145Y-90630903D01*
X126833370Y-90582299D01*
X126958248Y-90570000D01*
X127041752Y-90570000D01*
X127166630Y-90582299D01*
X127166630Y-90582299D01*
G37*
G36*
X199982712Y-90326565D02*
X200067295Y-90334896D01*
X200187727Y-90371429D01*
X200230088Y-90384279D01*
X200380112Y-90464468D01*
X200511612Y-90572388D01*
X200619532Y-90703888D01*
X200699721Y-90853912D01*
X200699722Y-90853916D01*
X200749104Y-91016705D01*
X200765778Y-91186000D01*
X200749104Y-91355295D01*
X200712571Y-91475727D01*
X200699721Y-91518088D01*
X200619532Y-91668112D01*
X200511612Y-91799612D01*
X200380112Y-91907532D01*
X200230088Y-91987721D01*
X200187727Y-92000571D01*
X200067295Y-92037104D01*
X199982712Y-92045435D01*
X199940421Y-92049600D01*
X199855579Y-92049600D01*
X199813288Y-92045435D01*
X199728705Y-92037104D01*
X199608273Y-92000571D01*
X199565912Y-91987721D01*
X199415888Y-91907532D01*
X199284388Y-91799612D01*
X199176468Y-91668112D01*
X199096279Y-91518088D01*
X199083429Y-91475727D01*
X199046896Y-91355295D01*
X199030222Y-91186000D01*
X199046896Y-91016705D01*
X199096278Y-90853916D01*
X199096279Y-90853912D01*
X199176468Y-90703888D01*
X199284388Y-90572388D01*
X199415888Y-90464468D01*
X199565912Y-90384279D01*
X199608273Y-90371429D01*
X199728705Y-90334896D01*
X199813288Y-90326565D01*
X199855579Y-90322400D01*
X199940421Y-90322400D01*
X199982712Y-90326565D01*
X199982712Y-90326565D01*
G37*
G36*
X197442712Y-90326565D02*
X197527295Y-90334896D01*
X197647727Y-90371429D01*
X197690088Y-90384279D01*
X197840112Y-90464468D01*
X197971612Y-90572388D01*
X198079532Y-90703888D01*
X198159721Y-90853912D01*
X198159722Y-90853916D01*
X198209104Y-91016705D01*
X198225778Y-91186000D01*
X198209104Y-91355295D01*
X198172571Y-91475727D01*
X198159721Y-91518088D01*
X198079532Y-91668112D01*
X197971612Y-91799612D01*
X197840112Y-91907532D01*
X197690088Y-91987721D01*
X197647727Y-92000571D01*
X197527295Y-92037104D01*
X197442712Y-92045435D01*
X197400421Y-92049600D01*
X197315579Y-92049600D01*
X197273288Y-92045435D01*
X197188705Y-92037104D01*
X197068273Y-92000571D01*
X197025912Y-91987721D01*
X196875888Y-91907532D01*
X196744388Y-91799612D01*
X196636468Y-91668112D01*
X196556279Y-91518088D01*
X196543429Y-91475727D01*
X196506896Y-91355295D01*
X196490222Y-91186000D01*
X196506896Y-91016705D01*
X196556278Y-90853916D01*
X196556279Y-90853912D01*
X196636468Y-90703888D01*
X196744388Y-90572388D01*
X196875888Y-90464468D01*
X197025912Y-90384279D01*
X197068273Y-90371429D01*
X197188705Y-90334896D01*
X197273288Y-90326565D01*
X197315579Y-90322400D01*
X197400421Y-90322400D01*
X197442712Y-90326565D01*
X197442712Y-90326565D01*
G37*
G36*
X172603378Y-86531859D02*
X172967354Y-86682622D01*
X173294929Y-86901501D01*
X173573499Y-87180071D01*
X173792378Y-87507646D01*
X173943141Y-87871622D01*
X174020000Y-88258016D01*
X174020000Y-88651984D01*
X173943141Y-89038378D01*
X173792378Y-89402354D01*
X173573499Y-89729929D01*
X173294929Y-90008499D01*
X172967354Y-90227378D01*
X172603378Y-90378141D01*
X172216984Y-90455000D01*
X171823016Y-90455000D01*
X171436622Y-90378141D01*
X171072646Y-90227378D01*
X170745071Y-90008499D01*
X170466501Y-89729929D01*
X170247622Y-89402354D01*
X170096859Y-89038378D01*
X170020000Y-88651984D01*
X170020000Y-88258016D01*
X170096859Y-87871622D01*
X170247622Y-87507646D01*
X170466501Y-87180071D01*
X170745071Y-86901501D01*
X171072646Y-86682622D01*
X171436622Y-86531859D01*
X171823016Y-86455000D01*
X172216984Y-86455000D01*
X172603378Y-86531859D01*
X172603378Y-86531859D01*
G37*
G36*
X189623378Y-86531859D02*
X189987354Y-86682622D01*
X190314929Y-86901501D01*
X190593499Y-87180071D01*
X190812378Y-87507646D01*
X190963141Y-87871622D01*
X191040000Y-88258016D01*
X191040000Y-88651984D01*
X190963141Y-89038378D01*
X190812378Y-89402354D01*
X190593499Y-89729929D01*
X190314929Y-90008499D01*
X189987354Y-90227378D01*
X189623378Y-90378141D01*
X189236984Y-90455000D01*
X188843016Y-90455000D01*
X188456622Y-90378141D01*
X188092646Y-90227378D01*
X187765071Y-90008499D01*
X187486501Y-89729929D01*
X187267622Y-89402354D01*
X187116859Y-89038378D01*
X187040000Y-88651984D01*
X187040000Y-88258016D01*
X187116859Y-87871622D01*
X187267622Y-87507646D01*
X187486501Y-87180071D01*
X187765071Y-86901501D01*
X188092646Y-86682622D01*
X188456622Y-86531859D01*
X188843016Y-86455000D01*
X189236984Y-86455000D01*
X189623378Y-86531859D01*
X189623378Y-86531859D01*
G37*
G36*
X111375770Y-87585372D02*
X111491689Y-87608429D01*
X111673678Y-87683811D01*
X111837463Y-87793249D01*
X111976751Y-87932537D01*
X112086189Y-88096322D01*
X112161571Y-88278311D01*
X112200000Y-88471509D01*
X112200000Y-88668491D01*
X112161571Y-88861689D01*
X112086189Y-89043678D01*
X111976751Y-89207463D01*
X111837463Y-89346751D01*
X111673678Y-89456189D01*
X111491689Y-89531571D01*
X111375770Y-89554628D01*
X111298493Y-89570000D01*
X111101507Y-89570000D01*
X111024230Y-89554628D01*
X110908311Y-89531571D01*
X110726322Y-89456189D01*
X110562537Y-89346751D01*
X110423249Y-89207463D01*
X110313811Y-89043678D01*
X110238429Y-88861689D01*
X110200000Y-88668491D01*
X110200000Y-88471509D01*
X110238429Y-88278311D01*
X110313811Y-88096322D01*
X110423249Y-87932537D01*
X110562537Y-87793249D01*
X110726322Y-87683811D01*
X110908311Y-87608429D01*
X111024230Y-87585372D01*
X111101507Y-87570000D01*
X111298493Y-87570000D01*
X111375770Y-87585372D01*
X111375770Y-87585372D01*
G37*
G36*
X197442712Y-87786565D02*
X197527295Y-87794896D01*
X197647727Y-87831429D01*
X197690088Y-87844279D01*
X197840112Y-87924468D01*
X197971612Y-88032388D01*
X198079532Y-88163888D01*
X198159721Y-88313912D01*
X198159722Y-88313916D01*
X198209104Y-88476705D01*
X198225778Y-88646000D01*
X198209104Y-88815295D01*
X198195031Y-88861686D01*
X198159721Y-88978088D01*
X198079532Y-89128112D01*
X197971612Y-89259612D01*
X197840112Y-89367532D01*
X197690088Y-89447721D01*
X197647727Y-89460571D01*
X197527295Y-89497104D01*
X197442712Y-89505435D01*
X197400421Y-89509600D01*
X197315579Y-89509600D01*
X197273288Y-89505435D01*
X197188705Y-89497104D01*
X197068273Y-89460571D01*
X197025912Y-89447721D01*
X196875888Y-89367532D01*
X196744388Y-89259612D01*
X196636468Y-89128112D01*
X196556279Y-88978088D01*
X196520969Y-88861686D01*
X196506896Y-88815295D01*
X196490222Y-88646000D01*
X196506896Y-88476705D01*
X196556278Y-88313916D01*
X196556279Y-88313912D01*
X196636468Y-88163888D01*
X196744388Y-88032388D01*
X196875888Y-87924468D01*
X197025912Y-87844279D01*
X197068273Y-87831429D01*
X197188705Y-87794896D01*
X197273288Y-87786565D01*
X197315579Y-87782400D01*
X197400421Y-87782400D01*
X197442712Y-87786565D01*
X197442712Y-87786565D01*
G37*
G36*
X199982712Y-87786565D02*
X200067295Y-87794896D01*
X200187727Y-87831429D01*
X200230088Y-87844279D01*
X200380112Y-87924468D01*
X200511612Y-88032388D01*
X200619532Y-88163888D01*
X200699721Y-88313912D01*
X200699722Y-88313916D01*
X200749104Y-88476705D01*
X200765778Y-88646000D01*
X200749104Y-88815295D01*
X200735031Y-88861686D01*
X200699721Y-88978088D01*
X200619532Y-89128112D01*
X200511612Y-89259612D01*
X200380112Y-89367532D01*
X200230088Y-89447721D01*
X200187727Y-89460571D01*
X200067295Y-89497104D01*
X199982712Y-89505435D01*
X199940421Y-89509600D01*
X199855579Y-89509600D01*
X199813288Y-89505435D01*
X199728705Y-89497104D01*
X199608273Y-89460571D01*
X199565912Y-89447721D01*
X199415888Y-89367532D01*
X199284388Y-89259612D01*
X199176468Y-89128112D01*
X199096279Y-88978088D01*
X199060969Y-88861686D01*
X199046896Y-88815295D01*
X199030222Y-88646000D01*
X199046896Y-88476705D01*
X199096278Y-88313916D01*
X199096279Y-88313912D01*
X199176468Y-88163888D01*
X199284388Y-88032388D01*
X199415888Y-87924468D01*
X199565912Y-87844279D01*
X199608273Y-87831429D01*
X199728705Y-87794896D01*
X199813288Y-87786565D01*
X199855579Y-87782400D01*
X199940421Y-87782400D01*
X199982712Y-87786565D01*
X199982712Y-87786565D01*
G37*
G36*
X199982712Y-85246565D02*
X200067295Y-85254896D01*
X200187727Y-85291429D01*
X200230088Y-85304279D01*
X200380112Y-85384468D01*
X200511612Y-85492388D01*
X200619532Y-85623888D01*
X200699721Y-85773912D01*
X200699722Y-85773916D01*
X200749104Y-85936705D01*
X200765778Y-86106000D01*
X200749104Y-86275295D01*
X200712571Y-86395727D01*
X200699721Y-86438088D01*
X200619532Y-86588112D01*
X200511612Y-86719612D01*
X200380112Y-86827532D01*
X200230088Y-86907721D01*
X200187727Y-86920571D01*
X200067295Y-86957104D01*
X199982712Y-86965435D01*
X199940421Y-86969600D01*
X199855579Y-86969600D01*
X199813288Y-86965435D01*
X199728705Y-86957104D01*
X199608273Y-86920571D01*
X199565912Y-86907721D01*
X199415888Y-86827532D01*
X199284388Y-86719612D01*
X199176468Y-86588112D01*
X199096279Y-86438088D01*
X199083429Y-86395727D01*
X199046896Y-86275295D01*
X199030222Y-86106000D01*
X199046896Y-85936705D01*
X199096278Y-85773916D01*
X199096279Y-85773912D01*
X199176468Y-85623888D01*
X199284388Y-85492388D01*
X199415888Y-85384468D01*
X199565912Y-85304279D01*
X199608273Y-85291429D01*
X199728705Y-85254896D01*
X199813288Y-85246565D01*
X199855579Y-85242400D01*
X199940421Y-85242400D01*
X199982712Y-85246565D01*
X199982712Y-85246565D01*
G37*
G36*
X197442712Y-85246565D02*
X197527295Y-85254896D01*
X197647727Y-85291429D01*
X197690088Y-85304279D01*
X197840112Y-85384468D01*
X197971612Y-85492388D01*
X198079532Y-85623888D01*
X198159721Y-85773912D01*
X198159722Y-85773916D01*
X198209104Y-85936705D01*
X198225778Y-86106000D01*
X198209104Y-86275295D01*
X198172571Y-86395727D01*
X198159721Y-86438088D01*
X198079532Y-86588112D01*
X197971612Y-86719612D01*
X197840112Y-86827532D01*
X197690088Y-86907721D01*
X197647727Y-86920571D01*
X197527295Y-86957104D01*
X197442712Y-86965435D01*
X197400421Y-86969600D01*
X197315579Y-86969600D01*
X197273288Y-86965435D01*
X197188705Y-86957104D01*
X197068273Y-86920571D01*
X197025912Y-86907721D01*
X196875888Y-86827532D01*
X196744388Y-86719612D01*
X196636468Y-86588112D01*
X196556279Y-86438088D01*
X196543429Y-86395727D01*
X196506896Y-86275295D01*
X196490222Y-86106000D01*
X196506896Y-85936705D01*
X196556278Y-85773916D01*
X196556279Y-85773912D01*
X196636468Y-85623888D01*
X196744388Y-85492388D01*
X196875888Y-85384468D01*
X197025912Y-85304279D01*
X197068273Y-85291429D01*
X197188705Y-85254896D01*
X197273288Y-85246565D01*
X197315579Y-85242400D01*
X197400421Y-85242400D01*
X197442712Y-85246565D01*
X197442712Y-85246565D01*
G37*
G36*
X111375770Y-84085372D02*
X111491689Y-84108429D01*
X111673678Y-84183811D01*
X111837463Y-84293249D01*
X111976751Y-84432537D01*
X112086189Y-84596322D01*
X112161571Y-84778311D01*
X112200000Y-84971509D01*
X112200000Y-85168491D01*
X112161571Y-85361689D01*
X112086189Y-85543678D01*
X111976751Y-85707463D01*
X111837463Y-85846751D01*
X111673678Y-85956189D01*
X111491689Y-86031571D01*
X111375770Y-86054628D01*
X111298493Y-86070000D01*
X111101507Y-86070000D01*
X111024230Y-86054628D01*
X110908311Y-86031571D01*
X110726322Y-85956189D01*
X110562537Y-85846751D01*
X110423249Y-85707463D01*
X110313811Y-85543678D01*
X110238429Y-85361689D01*
X110200000Y-85168491D01*
X110200000Y-84971509D01*
X110238429Y-84778311D01*
X110313811Y-84596322D01*
X110423249Y-84432537D01*
X110562537Y-84293249D01*
X110726322Y-84183811D01*
X110908311Y-84108429D01*
X111024230Y-84085372D01*
X111101507Y-84070000D01*
X111298493Y-84070000D01*
X111375770Y-84085372D01*
X111375770Y-84085372D01*
G37*
G36*
X199982712Y-82706565D02*
X200067295Y-82714896D01*
X200187727Y-82751429D01*
X200230088Y-82764279D01*
X200380112Y-82844468D01*
X200511612Y-82952388D01*
X200619532Y-83083888D01*
X200699721Y-83233912D01*
X200699722Y-83233916D01*
X200749104Y-83396705D01*
X200765778Y-83566000D01*
X200749104Y-83735295D01*
X200712571Y-83855727D01*
X200699721Y-83898088D01*
X200619532Y-84048112D01*
X200511612Y-84179612D01*
X200380112Y-84287532D01*
X200230088Y-84367721D01*
X200187727Y-84380571D01*
X200067295Y-84417104D01*
X199982712Y-84425435D01*
X199940421Y-84429600D01*
X199855579Y-84429600D01*
X199813288Y-84425435D01*
X199728705Y-84417104D01*
X199608273Y-84380571D01*
X199565912Y-84367721D01*
X199415888Y-84287532D01*
X199284388Y-84179612D01*
X199176468Y-84048112D01*
X199096279Y-83898088D01*
X199083429Y-83855727D01*
X199046896Y-83735295D01*
X199030222Y-83566000D01*
X199046896Y-83396705D01*
X199096278Y-83233916D01*
X199096279Y-83233912D01*
X199176468Y-83083888D01*
X199284388Y-82952388D01*
X199415888Y-82844468D01*
X199565912Y-82764279D01*
X199608273Y-82751429D01*
X199728705Y-82714896D01*
X199813288Y-82706565D01*
X199855579Y-82702400D01*
X199940421Y-82702400D01*
X199982712Y-82706565D01*
X199982712Y-82706565D01*
G37*
G36*
X197442712Y-82706565D02*
X197527295Y-82714896D01*
X197647727Y-82751429D01*
X197690088Y-82764279D01*
X197840112Y-82844468D01*
X197971612Y-82952388D01*
X198079532Y-83083888D01*
X198159721Y-83233912D01*
X198159722Y-83233916D01*
X198209104Y-83396705D01*
X198225778Y-83566000D01*
X198209104Y-83735295D01*
X198172571Y-83855727D01*
X198159721Y-83898088D01*
X198079532Y-84048112D01*
X197971612Y-84179612D01*
X197840112Y-84287532D01*
X197690088Y-84367721D01*
X197647727Y-84380571D01*
X197527295Y-84417104D01*
X197442712Y-84425435D01*
X197400421Y-84429600D01*
X197315579Y-84429600D01*
X197273288Y-84425435D01*
X197188705Y-84417104D01*
X197068273Y-84380571D01*
X197025912Y-84367721D01*
X196875888Y-84287532D01*
X196744388Y-84179612D01*
X196636468Y-84048112D01*
X196556279Y-83898088D01*
X196543429Y-83855727D01*
X196506896Y-83735295D01*
X196490222Y-83566000D01*
X196506896Y-83396705D01*
X196556278Y-83233916D01*
X196556279Y-83233912D01*
X196636468Y-83083888D01*
X196744388Y-82952388D01*
X196875888Y-82844468D01*
X197025912Y-82764279D01*
X197068273Y-82751429D01*
X197188705Y-82714896D01*
X197273288Y-82706565D01*
X197315579Y-82702400D01*
X197400421Y-82702400D01*
X197442712Y-82706565D01*
X197442712Y-82706565D01*
G37*
G36*
X127850000Y-83400000D02*
X126150000Y-83400000D01*
X126150000Y-81700000D01*
X127850000Y-81700000D01*
X127850000Y-83400000D01*
X127850000Y-83400000D01*
G37*
G36*
X124626630Y-81712299D02*
X124786855Y-81760903D01*
X124934520Y-81839831D01*
X125063949Y-81946051D01*
X125170169Y-82075480D01*
X125249097Y-82223145D01*
X125297701Y-82383370D01*
X125314112Y-82550000D01*
X125297701Y-82716630D01*
X125249097Y-82876855D01*
X125170169Y-83024520D01*
X125063949Y-83153949D01*
X124934520Y-83260169D01*
X124786855Y-83339097D01*
X124626630Y-83387701D01*
X124501752Y-83400000D01*
X124418248Y-83400000D01*
X124293370Y-83387701D01*
X124133145Y-83339097D01*
X123985480Y-83260169D01*
X123856051Y-83153949D01*
X123749831Y-83024520D01*
X123670903Y-82876855D01*
X123622299Y-82716630D01*
X123605888Y-82550000D01*
X123622299Y-82383370D01*
X123670903Y-82223145D01*
X123749831Y-82075480D01*
X123856051Y-81946051D01*
X123985480Y-81839831D01*
X124133145Y-81760903D01*
X124293370Y-81712299D01*
X124418248Y-81700000D01*
X124501752Y-81700000D01*
X124626630Y-81712299D01*
X124626630Y-81712299D01*
G37*
G36*
X111375770Y-80585372D02*
X111491689Y-80608429D01*
X111673678Y-80683811D01*
X111837463Y-80793249D01*
X111976751Y-80932537D01*
X112086189Y-81096322D01*
X112161571Y-81278311D01*
X112200000Y-81471509D01*
X112200000Y-81668491D01*
X112161571Y-81861689D01*
X112086189Y-82043678D01*
X111976751Y-82207463D01*
X111837463Y-82346751D01*
X111673678Y-82456189D01*
X111491689Y-82531571D01*
X111375770Y-82554628D01*
X111298493Y-82570000D01*
X111101507Y-82570000D01*
X111024230Y-82554628D01*
X110908311Y-82531571D01*
X110726322Y-82456189D01*
X110562537Y-82346751D01*
X110423249Y-82207463D01*
X110313811Y-82043678D01*
X110238429Y-81861689D01*
X110200000Y-81668491D01*
X110200000Y-81471509D01*
X110238429Y-81278311D01*
X110313811Y-81096322D01*
X110423249Y-80932537D01*
X110562537Y-80793249D01*
X110726322Y-80683811D01*
X110908311Y-80608429D01*
X111024230Y-80585372D01*
X111101507Y-80570000D01*
X111298493Y-80570000D01*
X111375770Y-80585372D01*
X111375770Y-80585372D01*
G37*
G36*
X197442712Y-80166565D02*
X197527295Y-80174896D01*
X197647727Y-80211429D01*
X197690088Y-80224279D01*
X197840112Y-80304468D01*
X197971612Y-80412388D01*
X198079532Y-80543888D01*
X198159721Y-80693912D01*
X198159722Y-80693916D01*
X198209104Y-80856705D01*
X198225778Y-81026000D01*
X198209104Y-81195295D01*
X198183921Y-81278311D01*
X198159721Y-81358088D01*
X198079532Y-81508112D01*
X197971612Y-81639612D01*
X197840112Y-81747532D01*
X197690088Y-81827721D01*
X197650166Y-81839831D01*
X197527295Y-81877104D01*
X197442712Y-81885435D01*
X197400421Y-81889600D01*
X197315579Y-81889600D01*
X197273288Y-81885435D01*
X197188705Y-81877104D01*
X197065834Y-81839831D01*
X197025912Y-81827721D01*
X196875888Y-81747532D01*
X196744388Y-81639612D01*
X196636468Y-81508112D01*
X196556279Y-81358088D01*
X196532079Y-81278311D01*
X196506896Y-81195295D01*
X196490222Y-81026000D01*
X196506896Y-80856705D01*
X196556278Y-80693916D01*
X196556279Y-80693912D01*
X196636468Y-80543888D01*
X196744388Y-80412388D01*
X196875888Y-80304468D01*
X197025912Y-80224279D01*
X197068273Y-80211429D01*
X197188705Y-80174896D01*
X197273288Y-80166565D01*
X197315579Y-80162400D01*
X197400421Y-80162400D01*
X197442712Y-80166565D01*
X197442712Y-80166565D01*
G37*
G36*
X199982712Y-80166565D02*
X200067295Y-80174896D01*
X200187727Y-80211429D01*
X200230088Y-80224279D01*
X200380112Y-80304468D01*
X200511612Y-80412388D01*
X200619532Y-80543888D01*
X200699721Y-80693912D01*
X200699722Y-80693916D01*
X200749104Y-80856705D01*
X200765778Y-81026000D01*
X200749104Y-81195295D01*
X200723921Y-81278311D01*
X200699721Y-81358088D01*
X200619532Y-81508112D01*
X200511612Y-81639612D01*
X200380112Y-81747532D01*
X200230088Y-81827721D01*
X200190166Y-81839831D01*
X200067295Y-81877104D01*
X199982712Y-81885435D01*
X199940421Y-81889600D01*
X199855579Y-81889600D01*
X199813288Y-81885435D01*
X199728705Y-81877104D01*
X199605834Y-81839831D01*
X199565912Y-81827721D01*
X199415888Y-81747532D01*
X199284388Y-81639612D01*
X199176468Y-81508112D01*
X199096279Y-81358088D01*
X199072079Y-81278311D01*
X199046896Y-81195295D01*
X199030222Y-81026000D01*
X199046896Y-80856705D01*
X199096278Y-80693916D01*
X199096279Y-80693912D01*
X199176468Y-80543888D01*
X199284388Y-80412388D01*
X199415888Y-80304468D01*
X199565912Y-80224279D01*
X199608273Y-80211429D01*
X199728705Y-80174896D01*
X199813288Y-80166565D01*
X199855579Y-80162400D01*
X199940421Y-80162400D01*
X199982712Y-80166565D01*
X199982712Y-80166565D01*
G37*
G36*
X127166630Y-79172299D02*
X127326855Y-79220903D01*
X127474520Y-79299831D01*
X127603949Y-79406051D01*
X127710169Y-79535480D01*
X127789097Y-79683145D01*
X127837701Y-79843370D01*
X127854112Y-80010000D01*
X127837701Y-80176630D01*
X127789097Y-80336855D01*
X127710169Y-80484520D01*
X127603949Y-80613949D01*
X127474520Y-80720169D01*
X127326855Y-80799097D01*
X127166630Y-80847701D01*
X127041752Y-80860000D01*
X126958248Y-80860000D01*
X126833370Y-80847701D01*
X126673145Y-80799097D01*
X126525480Y-80720169D01*
X126396051Y-80613949D01*
X126289831Y-80484520D01*
X126210903Y-80336855D01*
X126162299Y-80176630D01*
X126145888Y-80010000D01*
X126162299Y-79843370D01*
X126210903Y-79683145D01*
X126289831Y-79535480D01*
X126396051Y-79406051D01*
X126525480Y-79299831D01*
X126673145Y-79220903D01*
X126833370Y-79172299D01*
X126958248Y-79160000D01*
X127041752Y-79160000D01*
X127166630Y-79172299D01*
X127166630Y-79172299D01*
G37*
G36*
X124626630Y-79172299D02*
X124786855Y-79220903D01*
X124934520Y-79299831D01*
X125063949Y-79406051D01*
X125170169Y-79535480D01*
X125249097Y-79683145D01*
X125297701Y-79843370D01*
X125314112Y-80010000D01*
X125297701Y-80176630D01*
X125249097Y-80336855D01*
X125170169Y-80484520D01*
X125063949Y-80613949D01*
X124934520Y-80720169D01*
X124786855Y-80799097D01*
X124626630Y-80847701D01*
X124501752Y-80860000D01*
X124418248Y-80860000D01*
X124293370Y-80847701D01*
X124133145Y-80799097D01*
X123985480Y-80720169D01*
X123856051Y-80613949D01*
X123749831Y-80484520D01*
X123670903Y-80336855D01*
X123622299Y-80176630D01*
X123605888Y-80010000D01*
X123622299Y-79843370D01*
X123670903Y-79683145D01*
X123749831Y-79535480D01*
X123856051Y-79406051D01*
X123985480Y-79299831D01*
X124133145Y-79220903D01*
X124293370Y-79172299D01*
X124418248Y-79160000D01*
X124501752Y-79160000D01*
X124626630Y-79172299D01*
X124626630Y-79172299D01*
G37*
G36*
X143645845Y-78769215D02*
X143736839Y-78806906D01*
X143796465Y-78846747D01*
X143818734Y-78861627D01*
X143888373Y-78931266D01*
X143888375Y-78931269D01*
X143943094Y-79013161D01*
X143980785Y-79104155D01*
X144000000Y-79200754D01*
X144000000Y-79299246D01*
X143999883Y-79299832D01*
X143980785Y-79395845D01*
X143943095Y-79486837D01*
X143888373Y-79568734D01*
X143818734Y-79638373D01*
X143818731Y-79638375D01*
X143736839Y-79693094D01*
X143645845Y-79730785D01*
X143549246Y-79750000D01*
X143450754Y-79750000D01*
X143354155Y-79730785D01*
X143263161Y-79693094D01*
X143181269Y-79638375D01*
X143181266Y-79638373D01*
X143111627Y-79568734D01*
X143056905Y-79486837D01*
X143019215Y-79395845D01*
X143000117Y-79299832D01*
X143000000Y-79299246D01*
X143000000Y-79200754D01*
X143019215Y-79104155D01*
X143056906Y-79013161D01*
X143111625Y-78931269D01*
X143111627Y-78931266D01*
X143181266Y-78861627D01*
X143203535Y-78846747D01*
X143263161Y-78806906D01*
X143354155Y-78769215D01*
X143450754Y-78750000D01*
X143549246Y-78750000D01*
X143645845Y-78769215D01*
X143645845Y-78769215D01*
G37*
G36*
X146645845Y-78769215D02*
X146736839Y-78806906D01*
X146796465Y-78846747D01*
X146818734Y-78861627D01*
X146888373Y-78931266D01*
X146888375Y-78931269D01*
X146943094Y-79013161D01*
X146980785Y-79104155D01*
X147000000Y-79200754D01*
X147000000Y-79299246D01*
X146999883Y-79299832D01*
X146980785Y-79395845D01*
X146943095Y-79486837D01*
X146888373Y-79568734D01*
X146818734Y-79638373D01*
X146818731Y-79638375D01*
X146736839Y-79693094D01*
X146645845Y-79730785D01*
X146549246Y-79750000D01*
X146450754Y-79750000D01*
X146354155Y-79730785D01*
X146263161Y-79693094D01*
X146181269Y-79638375D01*
X146181266Y-79638373D01*
X146111627Y-79568734D01*
X146056905Y-79486837D01*
X146019215Y-79395845D01*
X146000117Y-79299832D01*
X146000000Y-79299246D01*
X146000000Y-79200754D01*
X146019215Y-79104155D01*
X146056906Y-79013161D01*
X146111625Y-78931269D01*
X146111627Y-78931266D01*
X146181266Y-78861627D01*
X146203535Y-78846747D01*
X146263161Y-78806906D01*
X146354155Y-78769215D01*
X146450754Y-78750000D01*
X146549246Y-78750000D01*
X146645845Y-78769215D01*
X146645845Y-78769215D01*
G37*
G36*
X197442712Y-77626565D02*
X197527295Y-77634896D01*
X197647727Y-77671429D01*
X197690088Y-77684279D01*
X197840112Y-77764468D01*
X197971612Y-77872388D01*
X198079532Y-78003888D01*
X198159721Y-78153912D01*
X198159722Y-78153916D01*
X198209104Y-78316705D01*
X198225778Y-78486000D01*
X198209104Y-78655295D01*
X198193279Y-78707463D01*
X198159721Y-78818088D01*
X198079532Y-78968112D01*
X197971612Y-79099612D01*
X197840112Y-79207532D01*
X197690088Y-79287721D01*
X197652098Y-79299245D01*
X197527295Y-79337104D01*
X197442712Y-79345435D01*
X197400421Y-79349600D01*
X197315579Y-79349600D01*
X197273288Y-79345435D01*
X197188705Y-79337104D01*
X197063902Y-79299245D01*
X197025912Y-79287721D01*
X196875888Y-79207532D01*
X196744388Y-79099612D01*
X196636468Y-78968112D01*
X196556279Y-78818088D01*
X196522721Y-78707463D01*
X196506896Y-78655295D01*
X196490222Y-78486000D01*
X196506896Y-78316705D01*
X196556278Y-78153916D01*
X196556279Y-78153912D01*
X196636468Y-78003888D01*
X196744388Y-77872388D01*
X196875888Y-77764468D01*
X197025912Y-77684279D01*
X197068273Y-77671429D01*
X197188705Y-77634896D01*
X197273288Y-77626565D01*
X197315579Y-77622400D01*
X197400421Y-77622400D01*
X197442712Y-77626565D01*
X197442712Y-77626565D01*
G37*
G36*
X199982712Y-77626565D02*
X200067295Y-77634896D01*
X200187727Y-77671429D01*
X200230088Y-77684279D01*
X200380112Y-77764468D01*
X200511612Y-77872388D01*
X200619532Y-78003888D01*
X200699721Y-78153912D01*
X200699722Y-78153916D01*
X200749104Y-78316705D01*
X200765778Y-78486000D01*
X200749104Y-78655295D01*
X200733279Y-78707463D01*
X200699721Y-78818088D01*
X200619532Y-78968112D01*
X200511612Y-79099612D01*
X200380112Y-79207532D01*
X200230088Y-79287721D01*
X200192098Y-79299245D01*
X200067295Y-79337104D01*
X199982712Y-79345435D01*
X199940421Y-79349600D01*
X199855579Y-79349600D01*
X199813288Y-79345435D01*
X199728705Y-79337104D01*
X199603902Y-79299245D01*
X199565912Y-79287721D01*
X199415888Y-79207532D01*
X199284388Y-79099612D01*
X199176468Y-78968112D01*
X199096279Y-78818088D01*
X199062721Y-78707463D01*
X199046896Y-78655295D01*
X199030222Y-78486000D01*
X199046896Y-78316705D01*
X199096278Y-78153916D01*
X199096279Y-78153912D01*
X199176468Y-78003888D01*
X199284388Y-77872388D01*
X199415888Y-77764468D01*
X199565912Y-77684279D01*
X199608273Y-77671429D01*
X199728705Y-77634896D01*
X199813288Y-77626565D01*
X199855579Y-77622400D01*
X199940421Y-77622400D01*
X199982712Y-77626565D01*
X199982712Y-77626565D01*
G37*
G36*
X111375770Y-77085372D02*
X111491689Y-77108429D01*
X111673678Y-77183811D01*
X111837463Y-77293249D01*
X111976751Y-77432537D01*
X112086189Y-77596322D01*
X112161571Y-77778311D01*
X112180284Y-77872388D01*
X112200000Y-77971507D01*
X112200000Y-78168493D01*
X112197677Y-78180169D01*
X112161571Y-78361689D01*
X112086189Y-78543678D01*
X111976751Y-78707463D01*
X111837463Y-78846751D01*
X111673678Y-78956189D01*
X111491689Y-79031571D01*
X111375770Y-79054628D01*
X111298493Y-79070000D01*
X111101507Y-79070000D01*
X111024230Y-79054628D01*
X110908311Y-79031571D01*
X110726322Y-78956189D01*
X110562537Y-78846751D01*
X110423249Y-78707463D01*
X110313811Y-78543678D01*
X110238429Y-78361689D01*
X110202323Y-78180169D01*
X110200000Y-78168493D01*
X110200000Y-77971507D01*
X110219716Y-77872388D01*
X110238429Y-77778311D01*
X110313811Y-77596322D01*
X110423249Y-77432537D01*
X110562537Y-77293249D01*
X110726322Y-77183811D01*
X110908311Y-77108429D01*
X111024230Y-77085372D01*
X111101507Y-77070000D01*
X111298493Y-77070000D01*
X111375770Y-77085372D01*
X111375770Y-77085372D01*
G37*
G36*
X127166630Y-76632299D02*
X127326855Y-76680903D01*
X127474520Y-76759831D01*
X127603949Y-76866051D01*
X127710169Y-76995480D01*
X127789097Y-77143145D01*
X127837701Y-77303370D01*
X127854112Y-77470000D01*
X127837701Y-77636630D01*
X127789097Y-77796855D01*
X127710169Y-77944520D01*
X127603949Y-78073949D01*
X127474520Y-78180169D01*
X127326855Y-78259097D01*
X127166630Y-78307701D01*
X127041752Y-78320000D01*
X126958248Y-78320000D01*
X126833370Y-78307701D01*
X126673145Y-78259097D01*
X126525480Y-78180169D01*
X126396051Y-78073949D01*
X126289831Y-77944520D01*
X126210903Y-77796855D01*
X126162299Y-77636630D01*
X126145888Y-77470000D01*
X126162299Y-77303370D01*
X126210903Y-77143145D01*
X126289831Y-76995480D01*
X126396051Y-76866051D01*
X126525480Y-76759831D01*
X126673145Y-76680903D01*
X126833370Y-76632299D01*
X126958248Y-76620000D01*
X127041752Y-76620000D01*
X127166630Y-76632299D01*
X127166630Y-76632299D01*
G37*
G36*
X124626630Y-76632299D02*
X124786855Y-76680903D01*
X124934520Y-76759831D01*
X125063949Y-76866051D01*
X125170169Y-76995480D01*
X125249097Y-77143145D01*
X125297701Y-77303370D01*
X125314112Y-77470000D01*
X125297701Y-77636630D01*
X125249097Y-77796855D01*
X125170169Y-77944520D01*
X125063949Y-78073949D01*
X124934520Y-78180169D01*
X124786855Y-78259097D01*
X124626630Y-78307701D01*
X124501752Y-78320000D01*
X124418248Y-78320000D01*
X124293370Y-78307701D01*
X124133145Y-78259097D01*
X123985480Y-78180169D01*
X123856051Y-78073949D01*
X123749831Y-77944520D01*
X123670903Y-77796855D01*
X123622299Y-77636630D01*
X123605888Y-77470000D01*
X123622299Y-77303370D01*
X123670903Y-77143145D01*
X123749831Y-76995480D01*
X123856051Y-76866051D01*
X123985480Y-76759831D01*
X124133145Y-76680903D01*
X124293370Y-76632299D01*
X124418248Y-76620000D01*
X124501752Y-76620000D01*
X124626630Y-76632299D01*
X124626630Y-76632299D01*
G37*
G36*
X199982712Y-75086565D02*
X200067295Y-75094896D01*
X200187727Y-75131429D01*
X200230088Y-75144279D01*
X200380112Y-75224468D01*
X200511612Y-75332388D01*
X200619532Y-75463888D01*
X200699721Y-75613912D01*
X200699722Y-75613916D01*
X200749104Y-75776705D01*
X200765778Y-75946000D01*
X200749104Y-76115295D01*
X200712571Y-76235727D01*
X200699721Y-76278088D01*
X200619532Y-76428112D01*
X200511612Y-76559612D01*
X200380112Y-76667532D01*
X200230088Y-76747721D01*
X200190166Y-76759831D01*
X200067295Y-76797104D01*
X199982712Y-76805435D01*
X199940421Y-76809600D01*
X199855579Y-76809600D01*
X199813288Y-76805435D01*
X199728705Y-76797104D01*
X199605834Y-76759831D01*
X199565912Y-76747721D01*
X199415888Y-76667532D01*
X199284388Y-76559612D01*
X199176468Y-76428112D01*
X199096279Y-76278088D01*
X199083429Y-76235727D01*
X199046896Y-76115295D01*
X199030222Y-75946000D01*
X199046896Y-75776705D01*
X199096278Y-75613916D01*
X199096279Y-75613912D01*
X199176468Y-75463888D01*
X199284388Y-75332388D01*
X199415888Y-75224468D01*
X199565912Y-75144279D01*
X199608273Y-75131429D01*
X199728705Y-75094896D01*
X199813288Y-75086565D01*
X199855579Y-75082400D01*
X199940421Y-75082400D01*
X199982712Y-75086565D01*
X199982712Y-75086565D01*
G37*
G36*
X197442712Y-75086565D02*
X197527295Y-75094896D01*
X197647727Y-75131429D01*
X197690088Y-75144279D01*
X197840112Y-75224468D01*
X197971612Y-75332388D01*
X198079532Y-75463888D01*
X198159721Y-75613912D01*
X198159722Y-75613916D01*
X198209104Y-75776705D01*
X198225778Y-75946000D01*
X198209104Y-76115295D01*
X198172571Y-76235727D01*
X198159721Y-76278088D01*
X198079532Y-76428112D01*
X197971612Y-76559612D01*
X197840112Y-76667532D01*
X197690088Y-76747721D01*
X197650166Y-76759831D01*
X197527295Y-76797104D01*
X197442712Y-76805435D01*
X197400421Y-76809600D01*
X197315579Y-76809600D01*
X197273288Y-76805435D01*
X197188705Y-76797104D01*
X197065834Y-76759831D01*
X197025912Y-76747721D01*
X196875888Y-76667532D01*
X196744388Y-76559612D01*
X196636468Y-76428112D01*
X196556279Y-76278088D01*
X196543429Y-76235727D01*
X196506896Y-76115295D01*
X196490222Y-75946000D01*
X196506896Y-75776705D01*
X196556278Y-75613916D01*
X196556279Y-75613912D01*
X196636468Y-75463888D01*
X196744388Y-75332388D01*
X196875888Y-75224468D01*
X197025912Y-75144279D01*
X197068273Y-75131429D01*
X197188705Y-75094896D01*
X197273288Y-75086565D01*
X197315579Y-75082400D01*
X197400421Y-75082400D01*
X197442712Y-75086565D01*
X197442712Y-75086565D01*
G37*
G36*
X199982712Y-72546565D02*
X200067295Y-72554896D01*
X200187727Y-72591429D01*
X200230088Y-72604279D01*
X200380112Y-72684468D01*
X200511612Y-72792388D01*
X200619532Y-72923888D01*
X200699721Y-73073912D01*
X200699722Y-73073916D01*
X200749104Y-73236705D01*
X200765778Y-73406000D01*
X200749104Y-73575295D01*
X200712571Y-73695727D01*
X200699721Y-73738088D01*
X200619532Y-73888112D01*
X200511612Y-74019612D01*
X200380112Y-74127532D01*
X200230088Y-74207721D01*
X200187727Y-74220571D01*
X200067295Y-74257104D01*
X199982712Y-74265435D01*
X199940421Y-74269600D01*
X199855579Y-74269600D01*
X199813288Y-74265435D01*
X199728705Y-74257104D01*
X199608273Y-74220571D01*
X199565912Y-74207721D01*
X199415888Y-74127532D01*
X199284388Y-74019612D01*
X199176468Y-73888112D01*
X199096279Y-73738088D01*
X199083429Y-73695727D01*
X199046896Y-73575295D01*
X199030222Y-73406000D01*
X199046896Y-73236705D01*
X199096278Y-73073916D01*
X199096279Y-73073912D01*
X199176468Y-72923888D01*
X199284388Y-72792388D01*
X199415888Y-72684468D01*
X199565912Y-72604279D01*
X199608273Y-72591429D01*
X199728705Y-72554896D01*
X199813288Y-72546565D01*
X199855579Y-72542400D01*
X199940421Y-72542400D01*
X199982712Y-72546565D01*
X199982712Y-72546565D01*
G37*
G36*
X197442712Y-72546565D02*
X197527295Y-72554896D01*
X197647727Y-72591429D01*
X197690088Y-72604279D01*
X197840112Y-72684468D01*
X197971612Y-72792388D01*
X198079532Y-72923888D01*
X198159721Y-73073912D01*
X198159722Y-73073916D01*
X198209104Y-73236705D01*
X198225778Y-73406000D01*
X198209104Y-73575295D01*
X198172571Y-73695727D01*
X198159721Y-73738088D01*
X198079532Y-73888112D01*
X197971612Y-74019612D01*
X197840112Y-74127532D01*
X197690088Y-74207721D01*
X197647727Y-74220571D01*
X197527295Y-74257104D01*
X197442712Y-74265435D01*
X197400421Y-74269600D01*
X197315579Y-74269600D01*
X197273288Y-74265435D01*
X197188705Y-74257104D01*
X197068273Y-74220571D01*
X197025912Y-74207721D01*
X196875888Y-74127532D01*
X196744388Y-74019612D01*
X196636468Y-73888112D01*
X196556279Y-73738088D01*
X196543429Y-73695727D01*
X196506896Y-73575295D01*
X196490222Y-73406000D01*
X196506896Y-73236705D01*
X196556278Y-73073916D01*
X196556279Y-73073912D01*
X196636468Y-72923888D01*
X196744388Y-72792388D01*
X196875888Y-72684468D01*
X197025912Y-72604279D01*
X197068273Y-72591429D01*
X197188705Y-72554896D01*
X197273288Y-72546565D01*
X197315579Y-72542400D01*
X197400421Y-72542400D01*
X197442712Y-72546565D01*
X197442712Y-72546565D01*
G37*
G36*
X194140712Y-68912088D02*
X194510510Y-69065263D01*
X194510513Y-69065265D01*
X194843325Y-69287643D01*
X195126357Y-69570675D01*
X195310204Y-69845822D01*
X195348737Y-69903490D01*
X195501912Y-70273288D01*
X195580000Y-70665864D01*
X195580000Y-71066136D01*
X195501912Y-71458712D01*
X195348737Y-71828510D01*
X195348735Y-71828513D01*
X195126357Y-72161325D01*
X194843325Y-72444357D01*
X194603986Y-72604278D01*
X194510510Y-72666737D01*
X194140712Y-72819912D01*
X193748136Y-72898000D01*
X193347864Y-72898000D01*
X192955288Y-72819912D01*
X192585490Y-72666737D01*
X192492014Y-72604278D01*
X192252675Y-72444357D01*
X191969643Y-72161325D01*
X191747265Y-71828513D01*
X191747263Y-71828510D01*
X191594088Y-71458712D01*
X191516000Y-71066136D01*
X191516000Y-70665864D01*
X191594088Y-70273288D01*
X191747263Y-69903490D01*
X191785796Y-69845822D01*
X191969643Y-69570675D01*
X192252675Y-69287643D01*
X192585487Y-69065265D01*
X192585490Y-69065263D01*
X192955288Y-68912088D01*
X193347864Y-68834000D01*
X193748136Y-68834000D01*
X194140712Y-68912088D01*
X194140712Y-68912088D01*
G37*
G36*
X119210712Y-68912088D02*
X119580510Y-69065263D01*
X119580513Y-69065265D01*
X119913325Y-69287643D01*
X120196357Y-69570675D01*
X120380204Y-69845822D01*
X120418737Y-69903490D01*
X120571912Y-70273288D01*
X120650000Y-70665864D01*
X120650000Y-71066136D01*
X120571912Y-71458712D01*
X120418737Y-71828510D01*
X120418735Y-71828513D01*
X120196357Y-72161325D01*
X119913325Y-72444357D01*
X119673986Y-72604278D01*
X119580510Y-72666737D01*
X119210712Y-72819912D01*
X118818136Y-72898000D01*
X118417864Y-72898000D01*
X118025288Y-72819912D01*
X117655490Y-72666737D01*
X117562014Y-72604278D01*
X117322675Y-72444357D01*
X117039643Y-72161325D01*
X116817265Y-71828513D01*
X116817263Y-71828510D01*
X116664088Y-71458712D01*
X116586000Y-71066136D01*
X116586000Y-70665864D01*
X116664088Y-70273288D01*
X116817263Y-69903490D01*
X116855796Y-69845822D01*
X117039643Y-69570675D01*
X117322675Y-69287643D01*
X117655487Y-69065265D01*
X117655490Y-69065263D01*
X118025288Y-68912088D01*
X118417864Y-68834000D01*
X118818136Y-68834000D01*
X119210712Y-68912088D01*
X119210712Y-68912088D01*
G37*
G36*
X184827294Y-69862496D02*
X184947726Y-69899029D01*
X184990087Y-69911879D01*
X185140112Y-69992068D01*
X185271612Y-70099988D01*
X185379532Y-70231488D01*
X185459721Y-70381512D01*
X185460442Y-70383888D01*
X185509104Y-70544305D01*
X185509104Y-70544307D01*
X185521600Y-70671179D01*
X185521600Y-71060820D01*
X185521076Y-71066136D01*
X185509104Y-71187694D01*
X185472571Y-71308128D01*
X185459721Y-71350488D01*
X185379532Y-71500512D01*
X185271612Y-71632012D01*
X185140112Y-71739932D01*
X184990088Y-71820121D01*
X184962433Y-71828510D01*
X184827295Y-71869504D01*
X184714432Y-71880620D01*
X184658001Y-71886178D01*
X184658000Y-71886178D01*
X184488706Y-71869504D01*
X184353568Y-71828510D01*
X184325913Y-71820121D01*
X184175889Y-71739932D01*
X184085946Y-71666117D01*
X184044388Y-71632012D01*
X183936469Y-71500512D01*
X183936467Y-71500509D01*
X183856279Y-71350488D01*
X183810048Y-71198084D01*
X183806896Y-71187695D01*
X183798565Y-71103112D01*
X183794400Y-71060821D01*
X183794400Y-70671180D01*
X183806896Y-70544308D01*
X183806896Y-70544306D01*
X183856278Y-70381517D01*
X183856279Y-70381513D01*
X183936468Y-70231488D01*
X184044388Y-70099988D01*
X184175888Y-69992068D01*
X184325912Y-69911879D01*
X184368273Y-69899029D01*
X184488705Y-69862496D01*
X184601568Y-69851380D01*
X184657999Y-69845822D01*
X184658000Y-69845822D01*
X184827294Y-69862496D01*
X184827294Y-69862496D01*
G37*
G36*
X174667294Y-69862496D02*
X174787726Y-69899029D01*
X174830087Y-69911879D01*
X174980112Y-69992068D01*
X175111612Y-70099988D01*
X175219532Y-70231488D01*
X175299721Y-70381512D01*
X175300442Y-70383888D01*
X175349104Y-70544305D01*
X175349104Y-70544307D01*
X175361600Y-70671179D01*
X175361600Y-71060820D01*
X175361076Y-71066136D01*
X175349104Y-71187694D01*
X175312571Y-71308128D01*
X175299721Y-71350488D01*
X175219532Y-71500512D01*
X175111612Y-71632012D01*
X174980112Y-71739932D01*
X174830088Y-71820121D01*
X174802433Y-71828510D01*
X174667295Y-71869504D01*
X174554432Y-71880620D01*
X174498001Y-71886178D01*
X174498000Y-71886178D01*
X174328706Y-71869504D01*
X174193568Y-71828510D01*
X174165913Y-71820121D01*
X174015889Y-71739932D01*
X173925946Y-71666117D01*
X173884388Y-71632012D01*
X173776469Y-71500512D01*
X173776467Y-71500509D01*
X173696279Y-71350488D01*
X173650048Y-71198084D01*
X173646896Y-71187695D01*
X173638565Y-71103112D01*
X173634400Y-71060821D01*
X173634400Y-70671180D01*
X173646896Y-70544308D01*
X173646896Y-70544306D01*
X173696278Y-70381517D01*
X173696279Y-70381513D01*
X173776468Y-70231488D01*
X173884388Y-70099988D01*
X174015888Y-69992068D01*
X174165912Y-69911879D01*
X174208273Y-69899029D01*
X174328705Y-69862496D01*
X174441568Y-69851380D01*
X174497999Y-69845822D01*
X174498000Y-69845822D01*
X174667294Y-69862496D01*
X174667294Y-69862496D01*
G37*
G36*
X187367294Y-69862496D02*
X187487726Y-69899029D01*
X187530087Y-69911879D01*
X187680112Y-69992068D01*
X187811612Y-70099988D01*
X187919532Y-70231488D01*
X187999721Y-70381512D01*
X188000442Y-70383888D01*
X188049104Y-70544305D01*
X188049104Y-70544307D01*
X188061600Y-70671179D01*
X188061600Y-71060820D01*
X188061076Y-71066136D01*
X188049104Y-71187694D01*
X188012571Y-71308128D01*
X187999721Y-71350488D01*
X187919532Y-71500512D01*
X187811612Y-71632012D01*
X187680112Y-71739932D01*
X187530088Y-71820121D01*
X187502433Y-71828510D01*
X187367295Y-71869504D01*
X187254432Y-71880620D01*
X187198001Y-71886178D01*
X187198000Y-71886178D01*
X187028706Y-71869504D01*
X186893568Y-71828510D01*
X186865913Y-71820121D01*
X186715889Y-71739932D01*
X186625946Y-71666117D01*
X186584388Y-71632012D01*
X186476469Y-71500512D01*
X186476467Y-71500509D01*
X186396279Y-71350488D01*
X186350048Y-71198084D01*
X186346896Y-71187695D01*
X186338565Y-71103112D01*
X186334400Y-71060821D01*
X186334400Y-70671180D01*
X186346896Y-70544308D01*
X186346896Y-70544306D01*
X186396278Y-70381517D01*
X186396279Y-70381513D01*
X186476468Y-70231488D01*
X186584388Y-70099988D01*
X186715888Y-69992068D01*
X186865912Y-69911879D01*
X186908273Y-69899029D01*
X187028705Y-69862496D01*
X187141568Y-69851380D01*
X187197999Y-69845822D01*
X187198000Y-69845822D01*
X187367294Y-69862496D01*
X187367294Y-69862496D01*
G37*
G36*
X189907294Y-69862496D02*
X190027726Y-69899029D01*
X190070087Y-69911879D01*
X190220112Y-69992068D01*
X190351612Y-70099988D01*
X190459532Y-70231488D01*
X190539721Y-70381512D01*
X190540442Y-70383888D01*
X190589104Y-70544305D01*
X190589104Y-70544307D01*
X190601600Y-70671179D01*
X190601600Y-71060820D01*
X190601076Y-71066136D01*
X190589104Y-71187694D01*
X190552571Y-71308128D01*
X190539721Y-71350488D01*
X190459532Y-71500512D01*
X190351612Y-71632012D01*
X190220112Y-71739932D01*
X190070088Y-71820121D01*
X190042433Y-71828510D01*
X189907295Y-71869504D01*
X189794432Y-71880620D01*
X189738001Y-71886178D01*
X189738000Y-71886178D01*
X189568706Y-71869504D01*
X189433568Y-71828510D01*
X189405913Y-71820121D01*
X189255889Y-71739932D01*
X189165946Y-71666117D01*
X189124388Y-71632012D01*
X189016469Y-71500512D01*
X189016467Y-71500509D01*
X188936279Y-71350488D01*
X188890048Y-71198084D01*
X188886896Y-71187695D01*
X188878565Y-71103112D01*
X188874400Y-71060821D01*
X188874400Y-70671180D01*
X188886896Y-70544308D01*
X188886896Y-70544306D01*
X188936278Y-70381517D01*
X188936279Y-70381513D01*
X189016468Y-70231488D01*
X189124388Y-70099988D01*
X189255888Y-69992068D01*
X189405912Y-69911879D01*
X189448273Y-69899029D01*
X189568705Y-69862496D01*
X189681568Y-69851380D01*
X189737999Y-69845822D01*
X189738000Y-69845822D01*
X189907294Y-69862496D01*
X189907294Y-69862496D01*
G37*
G36*
X140123294Y-69862496D02*
X140243726Y-69899029D01*
X140286087Y-69911879D01*
X140436112Y-69992068D01*
X140567612Y-70099988D01*
X140675532Y-70231488D01*
X140755721Y-70381512D01*
X140756442Y-70383888D01*
X140805104Y-70544305D01*
X140805104Y-70544307D01*
X140817600Y-70671179D01*
X140817600Y-71060820D01*
X140817076Y-71066136D01*
X140805104Y-71187694D01*
X140768571Y-71308128D01*
X140755721Y-71350488D01*
X140675532Y-71500512D01*
X140567612Y-71632012D01*
X140436112Y-71739932D01*
X140286088Y-71820121D01*
X140258433Y-71828510D01*
X140123295Y-71869504D01*
X140010432Y-71880620D01*
X139954001Y-71886178D01*
X139954000Y-71886178D01*
X139784706Y-71869504D01*
X139649568Y-71828510D01*
X139621913Y-71820121D01*
X139471889Y-71739932D01*
X139381946Y-71666117D01*
X139340388Y-71632012D01*
X139232469Y-71500512D01*
X139232467Y-71500509D01*
X139152279Y-71350488D01*
X139106048Y-71198084D01*
X139102896Y-71187695D01*
X139094565Y-71103112D01*
X139090400Y-71060821D01*
X139090400Y-70671180D01*
X139102896Y-70544308D01*
X139102896Y-70544306D01*
X139152278Y-70381517D01*
X139152279Y-70381513D01*
X139232468Y-70231488D01*
X139340388Y-70099988D01*
X139471888Y-69992068D01*
X139621912Y-69911879D01*
X139664273Y-69899029D01*
X139784705Y-69862496D01*
X139897568Y-69851380D01*
X139953999Y-69845822D01*
X139954000Y-69845822D01*
X140123294Y-69862496D01*
X140123294Y-69862496D01*
G37*
G36*
X124883294Y-69862496D02*
X125003726Y-69899029D01*
X125046087Y-69911879D01*
X125196112Y-69992068D01*
X125327612Y-70099988D01*
X125435532Y-70231488D01*
X125515721Y-70381512D01*
X125516442Y-70383888D01*
X125565104Y-70544305D01*
X125565104Y-70544307D01*
X125577600Y-70671179D01*
X125577600Y-71060820D01*
X125577076Y-71066136D01*
X125565104Y-71187694D01*
X125528571Y-71308128D01*
X125515721Y-71350488D01*
X125435532Y-71500512D01*
X125327612Y-71632012D01*
X125196112Y-71739932D01*
X125046088Y-71820121D01*
X125018433Y-71828510D01*
X124883295Y-71869504D01*
X124770432Y-71880620D01*
X124714001Y-71886178D01*
X124714000Y-71886178D01*
X124544706Y-71869504D01*
X124409568Y-71828510D01*
X124381913Y-71820121D01*
X124231889Y-71739932D01*
X124141946Y-71666117D01*
X124100388Y-71632012D01*
X123992469Y-71500512D01*
X123992467Y-71500509D01*
X123912279Y-71350488D01*
X123866048Y-71198084D01*
X123862896Y-71187695D01*
X123854565Y-71103112D01*
X123850400Y-71060821D01*
X123850400Y-70671180D01*
X123862896Y-70544308D01*
X123862896Y-70544306D01*
X123912278Y-70381517D01*
X123912279Y-70381513D01*
X123992468Y-70231488D01*
X124100388Y-70099988D01*
X124231888Y-69992068D01*
X124381912Y-69911879D01*
X124424273Y-69899029D01*
X124544705Y-69862496D01*
X124657568Y-69851380D01*
X124713999Y-69845822D01*
X124714000Y-69845822D01*
X124883294Y-69862496D01*
X124883294Y-69862496D01*
G37*
G36*
X127423294Y-69862496D02*
X127543726Y-69899029D01*
X127586087Y-69911879D01*
X127736112Y-69992068D01*
X127867612Y-70099988D01*
X127975532Y-70231488D01*
X128055721Y-70381512D01*
X128056442Y-70383888D01*
X128105104Y-70544305D01*
X128105104Y-70544307D01*
X128117600Y-70671179D01*
X128117600Y-71060820D01*
X128117076Y-71066136D01*
X128105104Y-71187694D01*
X128068571Y-71308128D01*
X128055721Y-71350488D01*
X127975532Y-71500512D01*
X127867612Y-71632012D01*
X127736112Y-71739932D01*
X127586088Y-71820121D01*
X127558433Y-71828510D01*
X127423295Y-71869504D01*
X127310432Y-71880620D01*
X127254001Y-71886178D01*
X127254000Y-71886178D01*
X127084706Y-71869504D01*
X126949568Y-71828510D01*
X126921913Y-71820121D01*
X126771889Y-71739932D01*
X126681946Y-71666117D01*
X126640388Y-71632012D01*
X126532469Y-71500512D01*
X126532467Y-71500509D01*
X126452279Y-71350488D01*
X126406048Y-71198084D01*
X126402896Y-71187695D01*
X126394565Y-71103112D01*
X126390400Y-71060821D01*
X126390400Y-70671180D01*
X126402896Y-70544308D01*
X126402896Y-70544306D01*
X126452278Y-70381517D01*
X126452279Y-70381513D01*
X126532468Y-70231488D01*
X126640388Y-70099988D01*
X126771888Y-69992068D01*
X126921912Y-69911879D01*
X126964273Y-69899029D01*
X127084705Y-69862496D01*
X127197568Y-69851380D01*
X127253999Y-69845822D01*
X127254000Y-69845822D01*
X127423294Y-69862496D01*
X127423294Y-69862496D01*
G37*
G36*
X129963294Y-69862496D02*
X130083726Y-69899029D01*
X130126087Y-69911879D01*
X130276112Y-69992068D01*
X130407612Y-70099988D01*
X130515532Y-70231488D01*
X130595721Y-70381512D01*
X130596442Y-70383888D01*
X130645104Y-70544305D01*
X130645104Y-70544307D01*
X130657600Y-70671179D01*
X130657600Y-71060820D01*
X130657076Y-71066136D01*
X130645104Y-71187694D01*
X130608571Y-71308128D01*
X130595721Y-71350488D01*
X130515532Y-71500512D01*
X130407612Y-71632012D01*
X130276112Y-71739932D01*
X130126088Y-71820121D01*
X130098433Y-71828510D01*
X129963295Y-71869504D01*
X129850432Y-71880620D01*
X129794001Y-71886178D01*
X129794000Y-71886178D01*
X129624706Y-71869504D01*
X129489568Y-71828510D01*
X129461913Y-71820121D01*
X129311889Y-71739932D01*
X129221946Y-71666117D01*
X129180388Y-71632012D01*
X129072469Y-71500512D01*
X129072467Y-71500509D01*
X128992279Y-71350488D01*
X128946048Y-71198084D01*
X128942896Y-71187695D01*
X128934565Y-71103112D01*
X128930400Y-71060821D01*
X128930400Y-70671180D01*
X128942896Y-70544308D01*
X128942896Y-70544306D01*
X128992278Y-70381517D01*
X128992279Y-70381513D01*
X129072468Y-70231488D01*
X129180388Y-70099988D01*
X129311888Y-69992068D01*
X129461912Y-69911879D01*
X129504273Y-69899029D01*
X129624705Y-69862496D01*
X129737568Y-69851380D01*
X129793999Y-69845822D01*
X129794000Y-69845822D01*
X129963294Y-69862496D01*
X129963294Y-69862496D01*
G37*
G36*
X132503294Y-69862496D02*
X132623726Y-69899029D01*
X132666087Y-69911879D01*
X132816112Y-69992068D01*
X132947612Y-70099988D01*
X133055532Y-70231488D01*
X133135721Y-70381512D01*
X133136442Y-70383888D01*
X133185104Y-70544305D01*
X133185104Y-70544307D01*
X133197600Y-70671179D01*
X133197600Y-71060820D01*
X133197076Y-71066136D01*
X133185104Y-71187694D01*
X133148571Y-71308128D01*
X133135721Y-71350488D01*
X133055532Y-71500512D01*
X132947612Y-71632012D01*
X132816112Y-71739932D01*
X132666088Y-71820121D01*
X132638433Y-71828510D01*
X132503295Y-71869504D01*
X132390432Y-71880620D01*
X132334001Y-71886178D01*
X132334000Y-71886178D01*
X132164706Y-71869504D01*
X132029568Y-71828510D01*
X132001913Y-71820121D01*
X131851889Y-71739932D01*
X131761946Y-71666117D01*
X131720388Y-71632012D01*
X131612469Y-71500512D01*
X131612467Y-71500509D01*
X131532279Y-71350488D01*
X131486048Y-71198084D01*
X131482896Y-71187695D01*
X131474565Y-71103112D01*
X131470400Y-71060821D01*
X131470400Y-70671180D01*
X131482896Y-70544308D01*
X131482896Y-70544306D01*
X131532278Y-70381517D01*
X131532279Y-70381513D01*
X131612468Y-70231488D01*
X131720388Y-70099988D01*
X131851888Y-69992068D01*
X132001912Y-69911879D01*
X132044273Y-69899029D01*
X132164705Y-69862496D01*
X132277568Y-69851380D01*
X132333999Y-69845822D01*
X132334000Y-69845822D01*
X132503294Y-69862496D01*
X132503294Y-69862496D01*
G37*
G36*
X135043294Y-69862496D02*
X135163726Y-69899029D01*
X135206087Y-69911879D01*
X135356112Y-69992068D01*
X135487612Y-70099988D01*
X135595532Y-70231488D01*
X135675721Y-70381512D01*
X135676442Y-70383888D01*
X135725104Y-70544305D01*
X135725104Y-70544307D01*
X135737600Y-70671179D01*
X135737600Y-71060820D01*
X135737076Y-71066136D01*
X135725104Y-71187694D01*
X135688571Y-71308128D01*
X135675721Y-71350488D01*
X135595532Y-71500512D01*
X135487612Y-71632012D01*
X135356112Y-71739932D01*
X135206088Y-71820121D01*
X135178433Y-71828510D01*
X135043295Y-71869504D01*
X134930432Y-71880620D01*
X134874001Y-71886178D01*
X134874000Y-71886178D01*
X134704706Y-71869504D01*
X134569568Y-71828510D01*
X134541913Y-71820121D01*
X134391889Y-71739932D01*
X134301946Y-71666117D01*
X134260388Y-71632012D01*
X134152469Y-71500512D01*
X134152467Y-71500509D01*
X134072279Y-71350488D01*
X134026048Y-71198084D01*
X134022896Y-71187695D01*
X134014565Y-71103112D01*
X134010400Y-71060821D01*
X134010400Y-70671180D01*
X134022896Y-70544308D01*
X134022896Y-70544306D01*
X134072278Y-70381517D01*
X134072279Y-70381513D01*
X134152468Y-70231488D01*
X134260388Y-70099988D01*
X134391888Y-69992068D01*
X134541912Y-69911879D01*
X134584273Y-69899029D01*
X134704705Y-69862496D01*
X134817568Y-69851380D01*
X134873999Y-69845822D01*
X134874000Y-69845822D01*
X135043294Y-69862496D01*
X135043294Y-69862496D01*
G37*
G36*
X145203294Y-69862496D02*
X145323726Y-69899029D01*
X145366087Y-69911879D01*
X145516112Y-69992068D01*
X145647612Y-70099988D01*
X145755532Y-70231488D01*
X145835721Y-70381512D01*
X145836442Y-70383888D01*
X145885104Y-70544305D01*
X145885104Y-70544307D01*
X145897600Y-70671179D01*
X145897600Y-71060820D01*
X145897076Y-71066136D01*
X145885104Y-71187694D01*
X145848571Y-71308128D01*
X145835721Y-71350488D01*
X145755532Y-71500512D01*
X145647612Y-71632012D01*
X145516112Y-71739932D01*
X145366088Y-71820121D01*
X145338433Y-71828510D01*
X145203295Y-71869504D01*
X145090432Y-71880620D01*
X145034001Y-71886178D01*
X145034000Y-71886178D01*
X144864706Y-71869504D01*
X144729568Y-71828510D01*
X144701913Y-71820121D01*
X144551889Y-71739932D01*
X144461946Y-71666117D01*
X144420388Y-71632012D01*
X144312469Y-71500512D01*
X144312467Y-71500509D01*
X144232279Y-71350488D01*
X144186048Y-71198084D01*
X144182896Y-71187695D01*
X144174565Y-71103112D01*
X144170400Y-71060821D01*
X144170400Y-70671180D01*
X144182896Y-70544308D01*
X144182896Y-70544306D01*
X144232278Y-70381517D01*
X144232279Y-70381513D01*
X144312468Y-70231488D01*
X144420388Y-70099988D01*
X144551888Y-69992068D01*
X144701912Y-69911879D01*
X144744273Y-69899029D01*
X144864705Y-69862496D01*
X144977568Y-69851380D01*
X145033999Y-69845822D01*
X145034000Y-69845822D01*
X145203294Y-69862496D01*
X145203294Y-69862496D01*
G37*
G36*
X142663294Y-69862496D02*
X142783726Y-69899029D01*
X142826087Y-69911879D01*
X142976112Y-69992068D01*
X143107612Y-70099988D01*
X143215532Y-70231488D01*
X143295721Y-70381512D01*
X143296442Y-70383888D01*
X143345104Y-70544305D01*
X143345104Y-70544307D01*
X143357600Y-70671179D01*
X143357600Y-71060820D01*
X143357076Y-71066136D01*
X143345104Y-71187694D01*
X143308571Y-71308128D01*
X143295721Y-71350488D01*
X143215532Y-71500512D01*
X143107612Y-71632012D01*
X142976112Y-71739932D01*
X142826088Y-71820121D01*
X142798433Y-71828510D01*
X142663295Y-71869504D01*
X142550432Y-71880620D01*
X142494001Y-71886178D01*
X142494000Y-71886178D01*
X142324706Y-71869504D01*
X142189568Y-71828510D01*
X142161913Y-71820121D01*
X142011889Y-71739932D01*
X141921946Y-71666117D01*
X141880388Y-71632012D01*
X141772469Y-71500512D01*
X141772467Y-71500509D01*
X141692279Y-71350488D01*
X141646048Y-71198084D01*
X141642896Y-71187695D01*
X141634565Y-71103112D01*
X141630400Y-71060821D01*
X141630400Y-70671180D01*
X141642896Y-70544308D01*
X141642896Y-70544306D01*
X141692278Y-70381517D01*
X141692279Y-70381513D01*
X141772468Y-70231488D01*
X141880388Y-70099988D01*
X142011888Y-69992068D01*
X142161912Y-69911879D01*
X142204273Y-69899029D01*
X142324705Y-69862496D01*
X142437568Y-69851380D01*
X142493999Y-69845822D01*
X142494000Y-69845822D01*
X142663294Y-69862496D01*
X142663294Y-69862496D01*
G37*
G36*
X122343294Y-69862496D02*
X122463726Y-69899029D01*
X122506087Y-69911879D01*
X122656112Y-69992068D01*
X122787612Y-70099988D01*
X122895532Y-70231488D01*
X122975721Y-70381512D01*
X122976442Y-70383888D01*
X123025104Y-70544305D01*
X123025104Y-70544307D01*
X123037600Y-70671179D01*
X123037600Y-71060820D01*
X123037076Y-71066136D01*
X123025104Y-71187694D01*
X122988571Y-71308128D01*
X122975721Y-71350488D01*
X122895532Y-71500512D01*
X122787612Y-71632012D01*
X122656112Y-71739932D01*
X122506088Y-71820121D01*
X122478433Y-71828510D01*
X122343295Y-71869504D01*
X122230432Y-71880620D01*
X122174001Y-71886178D01*
X122174000Y-71886178D01*
X122004706Y-71869504D01*
X121869568Y-71828510D01*
X121841913Y-71820121D01*
X121691889Y-71739932D01*
X121601946Y-71666117D01*
X121560388Y-71632012D01*
X121452469Y-71500512D01*
X121452467Y-71500509D01*
X121372279Y-71350488D01*
X121326048Y-71198084D01*
X121322896Y-71187695D01*
X121314565Y-71103112D01*
X121310400Y-71060821D01*
X121310400Y-70671180D01*
X121322896Y-70544308D01*
X121322896Y-70544306D01*
X121372278Y-70381517D01*
X121372279Y-70381513D01*
X121452468Y-70231488D01*
X121560388Y-70099988D01*
X121691888Y-69992068D01*
X121841912Y-69911879D01*
X121884273Y-69899029D01*
X122004705Y-69862496D01*
X122117568Y-69851380D01*
X122173999Y-69845822D01*
X122174000Y-69845822D01*
X122343294Y-69862496D01*
X122343294Y-69862496D01*
G37*
G36*
X182287294Y-69862496D02*
X182407726Y-69899029D01*
X182450087Y-69911879D01*
X182600112Y-69992068D01*
X182731612Y-70099988D01*
X182839532Y-70231488D01*
X182919721Y-70381512D01*
X182920442Y-70383888D01*
X182969104Y-70544305D01*
X182969104Y-70544307D01*
X182981600Y-70671179D01*
X182981600Y-71060820D01*
X182981076Y-71066136D01*
X182969104Y-71187694D01*
X182932571Y-71308128D01*
X182919721Y-71350488D01*
X182839532Y-71500512D01*
X182731612Y-71632012D01*
X182600112Y-71739932D01*
X182450088Y-71820121D01*
X182422433Y-71828510D01*
X182287295Y-71869504D01*
X182174432Y-71880620D01*
X182118001Y-71886178D01*
X182118000Y-71886178D01*
X181948706Y-71869504D01*
X181813568Y-71828510D01*
X181785913Y-71820121D01*
X181635889Y-71739932D01*
X181545946Y-71666117D01*
X181504388Y-71632012D01*
X181396469Y-71500512D01*
X181396467Y-71500509D01*
X181316279Y-71350488D01*
X181270048Y-71198084D01*
X181266896Y-71187695D01*
X181258565Y-71103112D01*
X181254400Y-71060821D01*
X181254400Y-70671180D01*
X181266896Y-70544308D01*
X181266896Y-70544306D01*
X181316278Y-70381517D01*
X181316279Y-70381513D01*
X181396468Y-70231488D01*
X181504388Y-70099988D01*
X181635888Y-69992068D01*
X181785912Y-69911879D01*
X181828273Y-69899029D01*
X181948705Y-69862496D01*
X182061568Y-69851380D01*
X182117999Y-69845822D01*
X182118000Y-69845822D01*
X182287294Y-69862496D01*
X182287294Y-69862496D01*
G37*
G36*
X179747294Y-69862496D02*
X179867726Y-69899029D01*
X179910087Y-69911879D01*
X180060112Y-69992068D01*
X180191612Y-70099988D01*
X180299532Y-70231488D01*
X180379721Y-70381512D01*
X180380442Y-70383888D01*
X180429104Y-70544305D01*
X180429104Y-70544307D01*
X180441600Y-70671179D01*
X180441600Y-71060820D01*
X180441076Y-71066136D01*
X180429104Y-71187694D01*
X180392571Y-71308128D01*
X180379721Y-71350488D01*
X180299532Y-71500512D01*
X180191612Y-71632012D01*
X180060112Y-71739932D01*
X179910088Y-71820121D01*
X179882433Y-71828510D01*
X179747295Y-71869504D01*
X179634432Y-71880620D01*
X179578001Y-71886178D01*
X179578000Y-71886178D01*
X179408706Y-71869504D01*
X179273568Y-71828510D01*
X179245913Y-71820121D01*
X179095889Y-71739932D01*
X179005946Y-71666117D01*
X178964388Y-71632012D01*
X178856469Y-71500512D01*
X178856467Y-71500509D01*
X178776279Y-71350488D01*
X178730048Y-71198084D01*
X178726896Y-71187695D01*
X178718565Y-71103112D01*
X178714400Y-71060821D01*
X178714400Y-70671180D01*
X178726896Y-70544308D01*
X178726896Y-70544306D01*
X178776278Y-70381517D01*
X178776279Y-70381513D01*
X178856468Y-70231488D01*
X178964388Y-70099988D01*
X179095888Y-69992068D01*
X179245912Y-69911879D01*
X179288273Y-69899029D01*
X179408705Y-69862496D01*
X179521568Y-69851380D01*
X179577999Y-69845822D01*
X179578000Y-69845822D01*
X179747294Y-69862496D01*
X179747294Y-69862496D01*
G37*
G36*
X177207294Y-69862496D02*
X177327726Y-69899029D01*
X177370087Y-69911879D01*
X177520112Y-69992068D01*
X177651612Y-70099988D01*
X177759532Y-70231488D01*
X177839721Y-70381512D01*
X177840442Y-70383888D01*
X177889104Y-70544305D01*
X177889104Y-70544307D01*
X177901600Y-70671179D01*
X177901600Y-71060820D01*
X177901076Y-71066136D01*
X177889104Y-71187694D01*
X177852571Y-71308128D01*
X177839721Y-71350488D01*
X177759532Y-71500512D01*
X177651612Y-71632012D01*
X177520112Y-71739932D01*
X177370088Y-71820121D01*
X177342433Y-71828510D01*
X177207295Y-71869504D01*
X177094432Y-71880620D01*
X177038001Y-71886178D01*
X177038000Y-71886178D01*
X176868706Y-71869504D01*
X176733568Y-71828510D01*
X176705913Y-71820121D01*
X176555889Y-71739932D01*
X176465946Y-71666117D01*
X176424388Y-71632012D01*
X176316469Y-71500512D01*
X176316467Y-71500509D01*
X176236279Y-71350488D01*
X176190048Y-71198084D01*
X176186896Y-71187695D01*
X176178565Y-71103112D01*
X176174400Y-71060821D01*
X176174400Y-70671180D01*
X176186896Y-70544308D01*
X176186896Y-70544306D01*
X176236278Y-70381517D01*
X176236279Y-70381513D01*
X176316468Y-70231488D01*
X176424388Y-70099988D01*
X176555888Y-69992068D01*
X176705912Y-69911879D01*
X176748273Y-69899029D01*
X176868705Y-69862496D01*
X176981568Y-69851380D01*
X177037999Y-69845822D01*
X177038000Y-69845822D01*
X177207294Y-69862496D01*
X177207294Y-69862496D01*
G37*
G36*
X172127294Y-69862496D02*
X172247726Y-69899029D01*
X172290087Y-69911879D01*
X172440112Y-69992068D01*
X172571612Y-70099988D01*
X172679532Y-70231488D01*
X172759721Y-70381512D01*
X172760442Y-70383888D01*
X172809104Y-70544305D01*
X172809104Y-70544307D01*
X172821600Y-70671179D01*
X172821600Y-71060820D01*
X172821076Y-71066136D01*
X172809104Y-71187694D01*
X172772571Y-71308128D01*
X172759721Y-71350488D01*
X172679532Y-71500512D01*
X172571612Y-71632012D01*
X172440112Y-71739932D01*
X172290088Y-71820121D01*
X172262433Y-71828510D01*
X172127295Y-71869504D01*
X172014432Y-71880620D01*
X171958001Y-71886178D01*
X171958000Y-71886178D01*
X171788706Y-71869504D01*
X171653568Y-71828510D01*
X171625913Y-71820121D01*
X171475889Y-71739932D01*
X171385946Y-71666117D01*
X171344388Y-71632012D01*
X171236469Y-71500512D01*
X171236467Y-71500509D01*
X171156279Y-71350488D01*
X171110048Y-71198084D01*
X171106896Y-71187695D01*
X171098565Y-71103112D01*
X171094400Y-71060821D01*
X171094400Y-70671180D01*
X171106896Y-70544308D01*
X171106896Y-70544306D01*
X171156278Y-70381517D01*
X171156279Y-70381513D01*
X171236468Y-70231488D01*
X171344388Y-70099988D01*
X171475888Y-69992068D01*
X171625912Y-69911879D01*
X171668273Y-69899029D01*
X171788705Y-69862496D01*
X171901568Y-69851380D01*
X171957999Y-69845822D01*
X171958000Y-69845822D01*
X172127294Y-69862496D01*
X172127294Y-69862496D01*
G37*
G36*
X167047294Y-69862496D02*
X167167726Y-69899029D01*
X167210087Y-69911879D01*
X167360112Y-69992068D01*
X167491612Y-70099988D01*
X167599532Y-70231488D01*
X167679721Y-70381512D01*
X167680442Y-70383888D01*
X167729104Y-70544305D01*
X167729104Y-70544307D01*
X167741600Y-70671179D01*
X167741600Y-71060820D01*
X167741076Y-71066136D01*
X167729104Y-71187694D01*
X167692571Y-71308128D01*
X167679721Y-71350488D01*
X167599532Y-71500512D01*
X167491612Y-71632012D01*
X167360112Y-71739932D01*
X167210088Y-71820121D01*
X167182433Y-71828510D01*
X167047295Y-71869504D01*
X166934432Y-71880620D01*
X166878001Y-71886178D01*
X166878000Y-71886178D01*
X166708706Y-71869504D01*
X166573568Y-71828510D01*
X166545913Y-71820121D01*
X166395889Y-71739932D01*
X166305946Y-71666117D01*
X166264388Y-71632012D01*
X166156469Y-71500512D01*
X166156467Y-71500509D01*
X166076279Y-71350488D01*
X166030048Y-71198084D01*
X166026896Y-71187695D01*
X166018565Y-71103112D01*
X166014400Y-71060821D01*
X166014400Y-70671180D01*
X166026896Y-70544308D01*
X166026896Y-70544306D01*
X166076278Y-70381517D01*
X166076279Y-70381513D01*
X166156468Y-70231488D01*
X166264388Y-70099988D01*
X166395888Y-69992068D01*
X166545912Y-69911879D01*
X166588273Y-69899029D01*
X166708705Y-69862496D01*
X166821568Y-69851380D01*
X166877999Y-69845822D01*
X166878000Y-69845822D01*
X167047294Y-69862496D01*
X167047294Y-69862496D01*
G37*
G36*
X164507294Y-69862496D02*
X164627726Y-69899029D01*
X164670087Y-69911879D01*
X164820112Y-69992068D01*
X164951612Y-70099988D01*
X165059532Y-70231488D01*
X165139721Y-70381512D01*
X165140442Y-70383888D01*
X165189104Y-70544305D01*
X165189104Y-70544307D01*
X165201600Y-70671179D01*
X165201600Y-71060820D01*
X165201076Y-71066136D01*
X165189104Y-71187694D01*
X165152571Y-71308128D01*
X165139721Y-71350488D01*
X165059532Y-71500512D01*
X164951612Y-71632012D01*
X164820112Y-71739932D01*
X164670088Y-71820121D01*
X164642433Y-71828510D01*
X164507295Y-71869504D01*
X164394432Y-71880620D01*
X164338001Y-71886178D01*
X164338000Y-71886178D01*
X164168706Y-71869504D01*
X164033568Y-71828510D01*
X164005913Y-71820121D01*
X163855889Y-71739932D01*
X163765946Y-71666117D01*
X163724388Y-71632012D01*
X163616469Y-71500512D01*
X163616467Y-71500509D01*
X163536279Y-71350488D01*
X163490048Y-71198084D01*
X163486896Y-71187695D01*
X163478565Y-71103112D01*
X163474400Y-71060821D01*
X163474400Y-70671180D01*
X163486896Y-70544308D01*
X163486896Y-70544306D01*
X163536278Y-70381517D01*
X163536279Y-70381513D01*
X163616468Y-70231488D01*
X163724388Y-70099988D01*
X163855888Y-69992068D01*
X164005912Y-69911879D01*
X164048273Y-69899029D01*
X164168705Y-69862496D01*
X164281568Y-69851380D01*
X164337999Y-69845822D01*
X164338000Y-69845822D01*
X164507294Y-69862496D01*
X164507294Y-69862496D01*
G37*
G36*
X161967294Y-69862496D02*
X162087726Y-69899029D01*
X162130087Y-69911879D01*
X162280112Y-69992068D01*
X162411612Y-70099988D01*
X162519532Y-70231488D01*
X162599721Y-70381512D01*
X162600442Y-70383888D01*
X162649104Y-70544305D01*
X162649104Y-70544307D01*
X162661600Y-70671179D01*
X162661600Y-71060820D01*
X162661076Y-71066136D01*
X162649104Y-71187694D01*
X162612571Y-71308128D01*
X162599721Y-71350488D01*
X162519532Y-71500512D01*
X162411612Y-71632012D01*
X162280112Y-71739932D01*
X162130088Y-71820121D01*
X162102433Y-71828510D01*
X161967295Y-71869504D01*
X161854432Y-71880620D01*
X161798001Y-71886178D01*
X161798000Y-71886178D01*
X161628706Y-71869504D01*
X161493568Y-71828510D01*
X161465913Y-71820121D01*
X161315889Y-71739932D01*
X161225946Y-71666117D01*
X161184388Y-71632012D01*
X161076469Y-71500512D01*
X161076467Y-71500509D01*
X160996279Y-71350488D01*
X160950048Y-71198084D01*
X160946896Y-71187695D01*
X160938565Y-71103112D01*
X160934400Y-71060821D01*
X160934400Y-70671180D01*
X160946896Y-70544308D01*
X160946896Y-70544306D01*
X160996278Y-70381517D01*
X160996279Y-70381513D01*
X161076468Y-70231488D01*
X161184388Y-70099988D01*
X161315888Y-69992068D01*
X161465912Y-69911879D01*
X161508273Y-69899029D01*
X161628705Y-69862496D01*
X161741568Y-69851380D01*
X161797999Y-69845822D01*
X161798000Y-69845822D01*
X161967294Y-69862496D01*
X161967294Y-69862496D01*
G37*
G36*
X159427294Y-69862496D02*
X159547726Y-69899029D01*
X159590087Y-69911879D01*
X159740112Y-69992068D01*
X159871612Y-70099988D01*
X159979532Y-70231488D01*
X160059721Y-70381512D01*
X160060442Y-70383888D01*
X160109104Y-70544305D01*
X160109104Y-70544307D01*
X160121600Y-70671179D01*
X160121600Y-71060820D01*
X160121076Y-71066136D01*
X160109104Y-71187694D01*
X160072571Y-71308128D01*
X160059721Y-71350488D01*
X159979532Y-71500512D01*
X159871612Y-71632012D01*
X159740112Y-71739932D01*
X159590088Y-71820121D01*
X159562433Y-71828510D01*
X159427295Y-71869504D01*
X159314432Y-71880620D01*
X159258001Y-71886178D01*
X159258000Y-71886178D01*
X159088706Y-71869504D01*
X158953568Y-71828510D01*
X158925913Y-71820121D01*
X158775889Y-71739932D01*
X158685946Y-71666117D01*
X158644388Y-71632012D01*
X158536469Y-71500512D01*
X158536467Y-71500509D01*
X158456279Y-71350488D01*
X158410048Y-71198084D01*
X158406896Y-71187695D01*
X158398565Y-71103112D01*
X158394400Y-71060821D01*
X158394400Y-70671180D01*
X158406896Y-70544308D01*
X158406896Y-70544306D01*
X158456278Y-70381517D01*
X158456279Y-70381513D01*
X158536468Y-70231488D01*
X158644388Y-70099988D01*
X158775888Y-69992068D01*
X158925912Y-69911879D01*
X158968273Y-69899029D01*
X159088705Y-69862496D01*
X159201568Y-69851380D01*
X159257999Y-69845822D01*
X159258000Y-69845822D01*
X159427294Y-69862496D01*
X159427294Y-69862496D01*
G37*
G36*
X156887294Y-69862496D02*
X157007726Y-69899029D01*
X157050087Y-69911879D01*
X157200112Y-69992068D01*
X157331612Y-70099988D01*
X157439532Y-70231488D01*
X157519721Y-70381512D01*
X157520442Y-70383888D01*
X157569104Y-70544305D01*
X157569104Y-70544307D01*
X157581600Y-70671179D01*
X157581600Y-71060820D01*
X157581076Y-71066136D01*
X157569104Y-71187694D01*
X157532571Y-71308128D01*
X157519721Y-71350488D01*
X157439532Y-71500512D01*
X157331612Y-71632012D01*
X157200112Y-71739932D01*
X157050088Y-71820121D01*
X157022433Y-71828510D01*
X156887295Y-71869504D01*
X156774432Y-71880620D01*
X156718001Y-71886178D01*
X156718000Y-71886178D01*
X156548706Y-71869504D01*
X156413568Y-71828510D01*
X156385913Y-71820121D01*
X156235889Y-71739932D01*
X156145946Y-71666117D01*
X156104388Y-71632012D01*
X155996469Y-71500512D01*
X155996467Y-71500509D01*
X155916279Y-71350488D01*
X155870048Y-71198084D01*
X155866896Y-71187695D01*
X155858565Y-71103112D01*
X155854400Y-71060821D01*
X155854400Y-70671180D01*
X155866896Y-70544308D01*
X155866896Y-70544306D01*
X155916278Y-70381517D01*
X155916279Y-70381513D01*
X155996468Y-70231488D01*
X156104388Y-70099988D01*
X156235888Y-69992068D01*
X156385912Y-69911879D01*
X156428273Y-69899029D01*
X156548705Y-69862496D01*
X156661568Y-69851380D01*
X156717999Y-69845822D01*
X156718000Y-69845822D01*
X156887294Y-69862496D01*
X156887294Y-69862496D01*
G37*
G36*
X154347294Y-69862496D02*
X154467726Y-69899029D01*
X154510087Y-69911879D01*
X154660112Y-69992068D01*
X154791612Y-70099988D01*
X154899532Y-70231488D01*
X154979721Y-70381512D01*
X154980442Y-70383888D01*
X155029104Y-70544305D01*
X155029104Y-70544307D01*
X155041600Y-70671179D01*
X155041600Y-71060820D01*
X155041076Y-71066136D01*
X155029104Y-71187694D01*
X154992571Y-71308128D01*
X154979721Y-71350488D01*
X154899532Y-71500512D01*
X154791612Y-71632012D01*
X154660112Y-71739932D01*
X154510088Y-71820121D01*
X154482433Y-71828510D01*
X154347295Y-71869504D01*
X154234432Y-71880620D01*
X154178001Y-71886178D01*
X154178000Y-71886178D01*
X154008706Y-71869504D01*
X153873568Y-71828510D01*
X153845913Y-71820121D01*
X153695889Y-71739932D01*
X153605946Y-71666117D01*
X153564388Y-71632012D01*
X153456469Y-71500512D01*
X153456467Y-71500509D01*
X153376279Y-71350488D01*
X153330048Y-71198084D01*
X153326896Y-71187695D01*
X153318565Y-71103112D01*
X153314400Y-71060821D01*
X153314400Y-70671180D01*
X153326896Y-70544308D01*
X153326896Y-70544306D01*
X153376278Y-70381517D01*
X153376279Y-70381513D01*
X153456468Y-70231488D01*
X153564388Y-70099988D01*
X153695888Y-69992068D01*
X153845912Y-69911879D01*
X153888273Y-69899029D01*
X154008705Y-69862496D01*
X154121568Y-69851380D01*
X154177999Y-69845822D01*
X154178000Y-69845822D01*
X154347294Y-69862496D01*
X154347294Y-69862496D01*
G37*
G36*
X151807294Y-69862496D02*
X151927726Y-69899029D01*
X151970087Y-69911879D01*
X152120112Y-69992068D01*
X152251612Y-70099988D01*
X152359532Y-70231488D01*
X152439721Y-70381512D01*
X152440442Y-70383888D01*
X152489104Y-70544305D01*
X152489104Y-70544307D01*
X152501600Y-70671179D01*
X152501600Y-71060820D01*
X152501076Y-71066136D01*
X152489104Y-71187694D01*
X152452571Y-71308128D01*
X152439721Y-71350488D01*
X152359532Y-71500512D01*
X152251612Y-71632012D01*
X152120112Y-71739932D01*
X151970088Y-71820121D01*
X151942433Y-71828510D01*
X151807295Y-71869504D01*
X151694432Y-71880620D01*
X151638001Y-71886178D01*
X151638000Y-71886178D01*
X151468706Y-71869504D01*
X151333568Y-71828510D01*
X151305913Y-71820121D01*
X151155889Y-71739932D01*
X151065946Y-71666117D01*
X151024388Y-71632012D01*
X150916469Y-71500512D01*
X150916467Y-71500509D01*
X150836279Y-71350488D01*
X150790048Y-71198084D01*
X150786896Y-71187695D01*
X150778565Y-71103112D01*
X150774400Y-71060821D01*
X150774400Y-70671180D01*
X150786896Y-70544308D01*
X150786896Y-70544306D01*
X150836278Y-70381517D01*
X150836279Y-70381513D01*
X150916468Y-70231488D01*
X151024388Y-70099988D01*
X151155888Y-69992068D01*
X151305912Y-69911879D01*
X151348273Y-69899029D01*
X151468705Y-69862496D01*
X151581568Y-69851380D01*
X151637999Y-69845822D01*
X151638000Y-69845822D01*
X151807294Y-69862496D01*
X151807294Y-69862496D01*
G37*
G36*
X137583294Y-69862496D02*
X137703726Y-69899029D01*
X137746087Y-69911879D01*
X137896112Y-69992068D01*
X138027612Y-70099988D01*
X138135532Y-70231488D01*
X138215721Y-70381512D01*
X138216442Y-70383888D01*
X138265104Y-70544305D01*
X138265104Y-70544307D01*
X138277600Y-70671179D01*
X138277600Y-71060820D01*
X138277076Y-71066136D01*
X138265104Y-71187694D01*
X138228571Y-71308128D01*
X138215721Y-71350488D01*
X138135532Y-71500512D01*
X138027612Y-71632012D01*
X137896112Y-71739932D01*
X137746088Y-71820121D01*
X137718433Y-71828510D01*
X137583295Y-71869504D01*
X137470432Y-71880620D01*
X137414001Y-71886178D01*
X137414000Y-71886178D01*
X137244706Y-71869504D01*
X137109568Y-71828510D01*
X137081913Y-71820121D01*
X136931889Y-71739932D01*
X136841946Y-71666117D01*
X136800388Y-71632012D01*
X136692469Y-71500512D01*
X136692467Y-71500509D01*
X136612279Y-71350488D01*
X136566048Y-71198084D01*
X136562896Y-71187695D01*
X136554565Y-71103112D01*
X136550400Y-71060821D01*
X136550400Y-70671180D01*
X136562896Y-70544308D01*
X136562896Y-70544306D01*
X136612278Y-70381517D01*
X136612279Y-70381513D01*
X136692468Y-70231488D01*
X136800388Y-70099988D01*
X136931888Y-69992068D01*
X137081912Y-69911879D01*
X137124273Y-69899029D01*
X137244705Y-69862496D01*
X137357568Y-69851380D01*
X137413999Y-69845822D01*
X137414000Y-69845822D01*
X137583294Y-69862496D01*
X137583294Y-69862496D01*
G37*
G36*
X149267294Y-69862496D02*
X149387726Y-69899029D01*
X149430087Y-69911879D01*
X149580112Y-69992068D01*
X149711612Y-70099988D01*
X149819532Y-70231488D01*
X149899721Y-70381512D01*
X149900442Y-70383888D01*
X149949104Y-70544305D01*
X149949104Y-70544307D01*
X149961600Y-70671179D01*
X149961600Y-71060820D01*
X149961076Y-71066136D01*
X149949104Y-71187694D01*
X149912571Y-71308128D01*
X149899721Y-71350488D01*
X149819532Y-71500512D01*
X149711612Y-71632012D01*
X149580112Y-71739932D01*
X149430088Y-71820121D01*
X149402433Y-71828510D01*
X149267295Y-71869504D01*
X149154432Y-71880620D01*
X149098001Y-71886178D01*
X149098000Y-71886178D01*
X148928706Y-71869504D01*
X148793568Y-71828510D01*
X148765913Y-71820121D01*
X148615889Y-71739932D01*
X148525946Y-71666117D01*
X148484388Y-71632012D01*
X148376469Y-71500512D01*
X148376467Y-71500509D01*
X148296279Y-71350488D01*
X148250048Y-71198084D01*
X148246896Y-71187695D01*
X148238565Y-71103112D01*
X148234400Y-71060821D01*
X148234400Y-70671180D01*
X148246896Y-70544308D01*
X148246896Y-70544306D01*
X148296278Y-70381517D01*
X148296279Y-70381513D01*
X148376468Y-70231488D01*
X148484388Y-70099988D01*
X148615888Y-69992068D01*
X148765912Y-69911879D01*
X148808273Y-69899029D01*
X148928705Y-69862496D01*
X149041568Y-69851380D01*
X149097999Y-69845822D01*
X149098000Y-69845822D01*
X149267294Y-69862496D01*
X149267294Y-69862496D01*
G37*
G36*
X199982712Y-70006565D02*
X200067295Y-70014896D01*
X200187727Y-70051429D01*
X200230088Y-70064279D01*
X200380112Y-70144468D01*
X200511612Y-70252388D01*
X200619532Y-70383888D01*
X200699721Y-70533912D01*
X200712571Y-70576273D01*
X200749104Y-70696705D01*
X200765778Y-70866000D01*
X200749104Y-71035295D01*
X200739748Y-71066136D01*
X200699721Y-71198088D01*
X200619532Y-71348112D01*
X200511612Y-71479612D01*
X200380112Y-71587532D01*
X200230088Y-71667721D01*
X200187727Y-71680571D01*
X200067295Y-71717104D01*
X199982712Y-71725435D01*
X199940421Y-71729600D01*
X199855579Y-71729600D01*
X199813288Y-71725435D01*
X199728705Y-71717104D01*
X199608273Y-71680571D01*
X199565912Y-71667721D01*
X199415888Y-71587532D01*
X199284388Y-71479612D01*
X199176468Y-71348112D01*
X199096279Y-71198088D01*
X199056252Y-71066136D01*
X199046896Y-71035295D01*
X199030222Y-70866000D01*
X199046896Y-70696705D01*
X199083429Y-70576273D01*
X199096279Y-70533912D01*
X199176468Y-70383888D01*
X199284388Y-70252388D01*
X199415888Y-70144468D01*
X199565912Y-70064279D01*
X199608273Y-70051429D01*
X199728705Y-70014896D01*
X199813288Y-70006565D01*
X199855579Y-70002400D01*
X199940421Y-70002400D01*
X199982712Y-70006565D01*
X199982712Y-70006565D01*
G37*
G36*
X197442712Y-70006565D02*
X197527295Y-70014896D01*
X197647727Y-70051429D01*
X197690088Y-70064279D01*
X197840112Y-70144468D01*
X197971612Y-70252388D01*
X198079532Y-70383888D01*
X198159721Y-70533912D01*
X198172571Y-70576273D01*
X198209104Y-70696705D01*
X198225778Y-70866000D01*
X198209104Y-71035295D01*
X198199748Y-71066136D01*
X198159721Y-71198088D01*
X198079532Y-71348112D01*
X197971612Y-71479612D01*
X197840112Y-71587532D01*
X197690088Y-71667721D01*
X197647727Y-71680571D01*
X197527295Y-71717104D01*
X197442712Y-71725435D01*
X197400421Y-71729600D01*
X197315579Y-71729600D01*
X197273288Y-71725435D01*
X197188705Y-71717104D01*
X197068273Y-71680571D01*
X197025912Y-71667721D01*
X196875888Y-71587532D01*
X196744388Y-71479612D01*
X196636468Y-71348112D01*
X196556279Y-71198088D01*
X196516252Y-71066136D01*
X196506896Y-71035295D01*
X196490222Y-70866000D01*
X196506896Y-70696705D01*
X196543429Y-70576273D01*
X196556279Y-70533912D01*
X196636468Y-70383888D01*
X196744388Y-70252388D01*
X196875888Y-70144468D01*
X197025912Y-70064279D01*
X197068273Y-70051429D01*
X197188705Y-70014896D01*
X197273288Y-70006565D01*
X197315579Y-70002400D01*
X197400421Y-70002400D01*
X197442712Y-70006565D01*
X197442712Y-70006565D01*
G37*
M02*
