G04 #@! TF.GenerationSoftware,KiCad,Pcbnew,5.0.2+dfsg1-1*
G04 #@! TF.CreationDate,2019-08-13T10:38:28+09:00*
G04 #@! TF.ProjectId,portal_shield_for_arduino_due,706f7274-616c-45f7-9368-69656c645f66,rev?*
G04 #@! TF.SameCoordinates,Original*
G04 #@! TF.FileFunction,Legend,Top*
G04 #@! TF.FilePolarity,Positive*
%FSLAX46Y46*%
G04 Gerber Fmt 4.6, Leading zero omitted, Abs format (unit mm)*
G04 Created by KiCad (PCBNEW 5.0.2+dfsg1-1) date Tue 13 Aug 2019 10:38:28 AM KST*
%MOMM*%
%LPD*%
G01*
G04 APERTURE LIST*
%ADD10C,0.150000*%
%ADD11C,0.120000*%
G04 APERTURE END LIST*
D10*
X139235833Y-102977380D02*
X139235833Y-101977380D01*
X139616785Y-101977380D01*
X139712023Y-102025000D01*
X139759642Y-102072619D01*
X139807261Y-102167857D01*
X139807261Y-102310714D01*
X139759642Y-102405952D01*
X139712023Y-102453571D01*
X139616785Y-102501190D01*
X139235833Y-102501190D01*
X140378690Y-102977380D02*
X140283452Y-102929761D01*
X140235833Y-102882142D01*
X140188214Y-102786904D01*
X140188214Y-102501190D01*
X140235833Y-102405952D01*
X140283452Y-102358333D01*
X140378690Y-102310714D01*
X140521547Y-102310714D01*
X140616785Y-102358333D01*
X140664404Y-102405952D01*
X140712023Y-102501190D01*
X140712023Y-102786904D01*
X140664404Y-102882142D01*
X140616785Y-102929761D01*
X140521547Y-102977380D01*
X140378690Y-102977380D01*
X141140595Y-102977380D02*
X141140595Y-102310714D01*
X141140595Y-102501190D02*
X141188214Y-102405952D01*
X141235833Y-102358333D01*
X141331071Y-102310714D01*
X141426309Y-102310714D01*
X141616785Y-102310714D02*
X141997738Y-102310714D01*
X141759642Y-101977380D02*
X141759642Y-102834523D01*
X141807261Y-102929761D01*
X141902500Y-102977380D01*
X141997738Y-102977380D01*
X142759642Y-102977380D02*
X142759642Y-102453571D01*
X142712023Y-102358333D01*
X142616785Y-102310714D01*
X142426309Y-102310714D01*
X142331071Y-102358333D01*
X142759642Y-102929761D02*
X142664404Y-102977380D01*
X142426309Y-102977380D01*
X142331071Y-102929761D01*
X142283452Y-102834523D01*
X142283452Y-102739285D01*
X142331071Y-102644047D01*
X142426309Y-102596428D01*
X142664404Y-102596428D01*
X142759642Y-102548809D01*
X143378690Y-102977380D02*
X143283452Y-102929761D01*
X143235833Y-102834523D01*
X143235833Y-101977380D01*
X144473928Y-102929761D02*
X144616785Y-102977380D01*
X144854880Y-102977380D01*
X144950119Y-102929761D01*
X144997738Y-102882142D01*
X145045357Y-102786904D01*
X145045357Y-102691666D01*
X144997738Y-102596428D01*
X144950119Y-102548809D01*
X144854880Y-102501190D01*
X144664404Y-102453571D01*
X144569166Y-102405952D01*
X144521547Y-102358333D01*
X144473928Y-102263095D01*
X144473928Y-102167857D01*
X144521547Y-102072619D01*
X144569166Y-102025000D01*
X144664404Y-101977380D01*
X144902500Y-101977380D01*
X145045357Y-102025000D01*
X145473928Y-102977380D02*
X145473928Y-101977380D01*
X145902500Y-102977380D02*
X145902500Y-102453571D01*
X145854880Y-102358333D01*
X145759642Y-102310714D01*
X145616785Y-102310714D01*
X145521547Y-102358333D01*
X145473928Y-102405952D01*
X146378690Y-102977380D02*
X146378690Y-102310714D01*
X146378690Y-101977380D02*
X146331071Y-102025000D01*
X146378690Y-102072619D01*
X146426309Y-102025000D01*
X146378690Y-101977380D01*
X146378690Y-102072619D01*
X147235833Y-102929761D02*
X147140595Y-102977380D01*
X146950119Y-102977380D01*
X146854880Y-102929761D01*
X146807261Y-102834523D01*
X146807261Y-102453571D01*
X146854880Y-102358333D01*
X146950119Y-102310714D01*
X147140595Y-102310714D01*
X147235833Y-102358333D01*
X147283452Y-102453571D01*
X147283452Y-102548809D01*
X146807261Y-102644047D01*
X147854880Y-102977380D02*
X147759642Y-102929761D01*
X147712023Y-102834523D01*
X147712023Y-101977380D01*
X148664404Y-102977380D02*
X148664404Y-101977380D01*
X148664404Y-102929761D02*
X148569166Y-102977380D01*
X148378690Y-102977380D01*
X148283452Y-102929761D01*
X148235833Y-102882142D01*
X148188214Y-102786904D01*
X148188214Y-102501190D01*
X148235833Y-102405952D01*
X148283452Y-102358333D01*
X148378690Y-102310714D01*
X148569166Y-102310714D01*
X148664404Y-102358333D01*
X149426309Y-103358333D02*
X149378690Y-103310714D01*
X149283452Y-103167857D01*
X149235833Y-103072619D01*
X149188214Y-102929761D01*
X149140595Y-102691666D01*
X149140595Y-102501190D01*
X149188214Y-102263095D01*
X149235833Y-102120238D01*
X149283452Y-102025000D01*
X149378690Y-101882142D01*
X149426309Y-101834523D01*
X149759642Y-102691666D02*
X150235833Y-102691666D01*
X149664404Y-102977380D02*
X149997738Y-101977380D01*
X150331071Y-102977380D01*
X150664404Y-102977380D02*
X150664404Y-102310714D01*
X150664404Y-102501190D02*
X150712023Y-102405952D01*
X150759642Y-102358333D01*
X150854880Y-102310714D01*
X150950119Y-102310714D01*
X151712023Y-102977380D02*
X151712023Y-101977380D01*
X151712023Y-102929761D02*
X151616785Y-102977380D01*
X151426309Y-102977380D01*
X151331071Y-102929761D01*
X151283452Y-102882142D01*
X151235833Y-102786904D01*
X151235833Y-102501190D01*
X151283452Y-102405952D01*
X151331071Y-102358333D01*
X151426309Y-102310714D01*
X151616785Y-102310714D01*
X151712023Y-102358333D01*
X152616785Y-102310714D02*
X152616785Y-102977380D01*
X152188214Y-102310714D02*
X152188214Y-102834523D01*
X152235833Y-102929761D01*
X152331071Y-102977380D01*
X152473928Y-102977380D01*
X152569166Y-102929761D01*
X152616785Y-102882142D01*
X153092976Y-102977380D02*
X153092976Y-102310714D01*
X153092976Y-101977380D02*
X153045357Y-102025000D01*
X153092976Y-102072619D01*
X153140595Y-102025000D01*
X153092976Y-101977380D01*
X153092976Y-102072619D01*
X153569166Y-102310714D02*
X153569166Y-102977380D01*
X153569166Y-102405952D02*
X153616785Y-102358333D01*
X153712023Y-102310714D01*
X153854880Y-102310714D01*
X153950119Y-102358333D01*
X153997738Y-102453571D01*
X153997738Y-102977380D01*
X154616785Y-102977380D02*
X154521547Y-102929761D01*
X154473928Y-102882142D01*
X154426309Y-102786904D01*
X154426309Y-102501190D01*
X154473928Y-102405952D01*
X154521547Y-102358333D01*
X154616785Y-102310714D01*
X154759642Y-102310714D01*
X154854880Y-102358333D01*
X154902500Y-102405952D01*
X154950119Y-102501190D01*
X154950119Y-102786904D01*
X154902500Y-102882142D01*
X154854880Y-102929761D01*
X154759642Y-102977380D01*
X154616785Y-102977380D01*
X156140595Y-102977380D02*
X156140595Y-101977380D01*
X156378690Y-101977380D01*
X156521547Y-102025000D01*
X156616785Y-102120238D01*
X156664404Y-102215476D01*
X156712023Y-102405952D01*
X156712023Y-102548809D01*
X156664404Y-102739285D01*
X156616785Y-102834523D01*
X156521547Y-102929761D01*
X156378690Y-102977380D01*
X156140595Y-102977380D01*
X157569166Y-102310714D02*
X157569166Y-102977380D01*
X157140595Y-102310714D02*
X157140595Y-102834523D01*
X157188214Y-102929761D01*
X157283452Y-102977380D01*
X157426309Y-102977380D01*
X157521547Y-102929761D01*
X157569166Y-102882142D01*
X158426309Y-102929761D02*
X158331071Y-102977380D01*
X158140595Y-102977380D01*
X158045357Y-102929761D01*
X157997738Y-102834523D01*
X157997738Y-102453571D01*
X158045357Y-102358333D01*
X158140595Y-102310714D01*
X158331071Y-102310714D01*
X158426309Y-102358333D01*
X158473928Y-102453571D01*
X158473928Y-102548809D01*
X157997738Y-102644047D01*
X158807261Y-103358333D02*
X158854880Y-103310714D01*
X158950119Y-103167857D01*
X158997738Y-103072619D01*
X159045357Y-102929761D01*
X159092976Y-102691666D01*
X159092976Y-102501190D01*
X159045357Y-102263095D01*
X158997738Y-102120238D01*
X158950119Y-102025000D01*
X158854880Y-101882142D01*
X158807261Y-101834523D01*
X160521547Y-101977380D02*
X160616785Y-101977380D01*
X160712023Y-102025000D01*
X160759642Y-102072619D01*
X160807261Y-102167857D01*
X160854880Y-102358333D01*
X160854880Y-102596428D01*
X160807261Y-102786904D01*
X160759642Y-102882142D01*
X160712023Y-102929761D01*
X160616785Y-102977380D01*
X160521547Y-102977380D01*
X160426309Y-102929761D01*
X160378690Y-102882142D01*
X160331071Y-102786904D01*
X160283452Y-102596428D01*
X160283452Y-102358333D01*
X160331071Y-102167857D01*
X160378690Y-102072619D01*
X160426309Y-102025000D01*
X160521547Y-101977380D01*
X161283452Y-102882142D02*
X161331071Y-102929761D01*
X161283452Y-102977380D01*
X161235833Y-102929761D01*
X161283452Y-102882142D01*
X161283452Y-102977380D01*
X162283452Y-102977380D02*
X161712023Y-102977380D01*
X161997738Y-102977380D02*
X161997738Y-101977380D01*
X161902500Y-102120238D01*
X161807261Y-102215476D01*
X161712023Y-102263095D01*
X162712023Y-102882142D02*
X162759642Y-102929761D01*
X162712023Y-102977380D01*
X162664404Y-102929761D01*
X162712023Y-102882142D01*
X162712023Y-102977380D01*
X163712023Y-102977380D02*
X163140595Y-102977380D01*
X163426309Y-102977380D02*
X163426309Y-101977380D01*
X163331071Y-102120238D01*
X163235833Y-102215476D01*
X163140595Y-102263095D01*
X144092976Y-103722619D02*
X144140595Y-103675000D01*
X144235833Y-103627380D01*
X144473928Y-103627380D01*
X144569166Y-103675000D01*
X144616785Y-103722619D01*
X144664404Y-103817857D01*
X144664404Y-103913095D01*
X144616785Y-104055952D01*
X144045357Y-104627380D01*
X144664404Y-104627380D01*
X144997738Y-104627380D02*
X145521547Y-103960714D01*
X144997738Y-103960714D02*
X145521547Y-104627380D01*
X146473928Y-104627380D02*
X146140595Y-104151190D01*
X145902500Y-104627380D02*
X145902500Y-103627380D01*
X146283452Y-103627380D01*
X146378690Y-103675000D01*
X146426309Y-103722619D01*
X146473928Y-103817857D01*
X146473928Y-103960714D01*
X146426309Y-104055952D01*
X146378690Y-104103571D01*
X146283452Y-104151190D01*
X145902500Y-104151190D01*
X146854880Y-104579761D02*
X146997738Y-104627380D01*
X147235833Y-104627380D01*
X147331071Y-104579761D01*
X147378690Y-104532142D01*
X147426309Y-104436904D01*
X147426309Y-104341666D01*
X147378690Y-104246428D01*
X147331071Y-104198809D01*
X147235833Y-104151190D01*
X147045357Y-104103571D01*
X146950119Y-104055952D01*
X146902500Y-104008333D01*
X146854880Y-103913095D01*
X146854880Y-103817857D01*
X146902500Y-103722619D01*
X146950119Y-103675000D01*
X147045357Y-103627380D01*
X147283452Y-103627380D01*
X147426309Y-103675000D01*
X147807261Y-103722619D02*
X147854880Y-103675000D01*
X147950119Y-103627380D01*
X148188214Y-103627380D01*
X148283452Y-103675000D01*
X148331071Y-103722619D01*
X148378690Y-103817857D01*
X148378690Y-103913095D01*
X148331071Y-104055952D01*
X147759642Y-104627380D01*
X148378690Y-104627380D01*
X148712023Y-103627380D02*
X149331071Y-103627380D01*
X148997738Y-104008333D01*
X149140595Y-104008333D01*
X149235833Y-104055952D01*
X149283452Y-104103571D01*
X149331071Y-104198809D01*
X149331071Y-104436904D01*
X149283452Y-104532142D01*
X149235833Y-104579761D01*
X149140595Y-104627380D01*
X148854880Y-104627380D01*
X148759642Y-104579761D01*
X148712023Y-104532142D01*
X149712023Y-103722619D02*
X149759642Y-103675000D01*
X149854880Y-103627380D01*
X150092976Y-103627380D01*
X150188214Y-103675000D01*
X150235833Y-103722619D01*
X150283452Y-103817857D01*
X150283452Y-103913095D01*
X150235833Y-104055952D01*
X149664404Y-104627380D01*
X150283452Y-104627380D01*
X151426309Y-103579761D02*
X150569166Y-104865476D01*
X152331071Y-104627380D02*
X151997738Y-104151190D01*
X151759642Y-104627380D02*
X151759642Y-103627380D01*
X152140595Y-103627380D01*
X152235833Y-103675000D01*
X152283452Y-103722619D01*
X152331071Y-103817857D01*
X152331071Y-103960714D01*
X152283452Y-104055952D01*
X152235833Y-104103571D01*
X152140595Y-104151190D01*
X151759642Y-104151190D01*
X152712023Y-104579761D02*
X152854880Y-104627380D01*
X153092976Y-104627380D01*
X153188214Y-104579761D01*
X153235833Y-104532142D01*
X153283452Y-104436904D01*
X153283452Y-104341666D01*
X153235833Y-104246428D01*
X153188214Y-104198809D01*
X153092976Y-104151190D01*
X152902500Y-104103571D01*
X152807261Y-104055952D01*
X152759642Y-104008333D01*
X152712023Y-103913095D01*
X152712023Y-103817857D01*
X152759642Y-103722619D01*
X152807261Y-103675000D01*
X152902500Y-103627380D01*
X153140595Y-103627380D01*
X153283452Y-103675000D01*
X154140595Y-103960714D02*
X154140595Y-104627380D01*
X153902500Y-103579761D02*
X153664404Y-104294047D01*
X154283452Y-104294047D01*
X154807261Y-104055952D02*
X154712023Y-104008333D01*
X154664404Y-103960714D01*
X154616785Y-103865476D01*
X154616785Y-103817857D01*
X154664404Y-103722619D01*
X154712023Y-103675000D01*
X154807261Y-103627380D01*
X154997738Y-103627380D01*
X155092976Y-103675000D01*
X155140595Y-103722619D01*
X155188214Y-103817857D01*
X155188214Y-103865476D01*
X155140595Y-103960714D01*
X155092976Y-104008333D01*
X154997738Y-104055952D01*
X154807261Y-104055952D01*
X154712023Y-104103571D01*
X154664404Y-104151190D01*
X154616785Y-104246428D01*
X154616785Y-104436904D01*
X154664404Y-104532142D01*
X154712023Y-104579761D01*
X154807261Y-104627380D01*
X154997738Y-104627380D01*
X155092976Y-104579761D01*
X155140595Y-104532142D01*
X155188214Y-104436904D01*
X155188214Y-104246428D01*
X155140595Y-104151190D01*
X155092976Y-104103571D01*
X154997738Y-104055952D01*
X156092976Y-103627380D02*
X155616785Y-103627380D01*
X155569166Y-104103571D01*
X155616785Y-104055952D01*
X155712023Y-104008333D01*
X155950119Y-104008333D01*
X156045357Y-104055952D01*
X156092976Y-104103571D01*
X156140595Y-104198809D01*
X156140595Y-104436904D01*
X156092976Y-104532142D01*
X156045357Y-104579761D01*
X155950119Y-104627380D01*
X155712023Y-104627380D01*
X155616785Y-104579761D01*
X155569166Y-104532142D01*
X156616785Y-104579761D02*
X156616785Y-104627380D01*
X156569166Y-104722619D01*
X156521547Y-104770238D01*
X157759642Y-103722619D02*
X157807261Y-103675000D01*
X157902500Y-103627380D01*
X158140595Y-103627380D01*
X158235833Y-103675000D01*
X158283452Y-103722619D01*
X158331071Y-103817857D01*
X158331071Y-103913095D01*
X158283452Y-104055952D01*
X157712023Y-104627380D01*
X158331071Y-104627380D01*
X158664404Y-104627380D02*
X159188214Y-103960714D01*
X158664404Y-103960714D02*
X159188214Y-104627380D01*
X159569166Y-104627380D02*
X159569166Y-103627380D01*
X160045357Y-103960714D02*
X160045357Y-104627380D01*
X160045357Y-104055952D02*
X160092976Y-104008333D01*
X160188214Y-103960714D01*
X160331071Y-103960714D01*
X160426309Y-104008333D01*
X160473928Y-104103571D01*
X160473928Y-104627380D01*
X160950119Y-103960714D02*
X160950119Y-104960714D01*
X160950119Y-104008333D02*
X161045357Y-103960714D01*
X161235833Y-103960714D01*
X161331071Y-104008333D01*
X161378690Y-104055952D01*
X161426309Y-104151190D01*
X161426309Y-104436904D01*
X161378690Y-104532142D01*
X161331071Y-104579761D01*
X161235833Y-104627380D01*
X161045357Y-104627380D01*
X160950119Y-104579761D01*
X162283452Y-103960714D02*
X162283452Y-104627380D01*
X161854880Y-103960714D02*
X161854880Y-104484523D01*
X161902500Y-104579761D01*
X161997738Y-104627380D01*
X162140595Y-104627380D01*
X162235833Y-104579761D01*
X162283452Y-104532142D01*
X162616785Y-103960714D02*
X162997738Y-103960714D01*
X162759642Y-103627380D02*
X162759642Y-104484523D01*
X162807261Y-104579761D01*
X162902500Y-104627380D01*
X162997738Y-104627380D01*
X163283452Y-104579761D02*
X163378690Y-104627380D01*
X163569166Y-104627380D01*
X163664404Y-104579761D01*
X163712023Y-104484523D01*
X163712023Y-104436904D01*
X163664404Y-104341666D01*
X163569166Y-104294047D01*
X163426309Y-104294047D01*
X163331071Y-104246428D01*
X163283452Y-104151190D01*
X163283452Y-104103571D01*
X163331071Y-104008333D01*
X163426309Y-103960714D01*
X163569166Y-103960714D01*
X163664404Y-104008333D01*
X144140595Y-106277380D02*
X144140595Y-105277380D01*
X144378690Y-105277380D01*
X144521547Y-105325000D01*
X144616785Y-105420238D01*
X144664404Y-105515476D01*
X144712023Y-105705952D01*
X144712023Y-105848809D01*
X144664404Y-106039285D01*
X144616785Y-106134523D01*
X144521547Y-106229761D01*
X144378690Y-106277380D01*
X144140595Y-106277380D01*
X145521547Y-106229761D02*
X145426309Y-106277380D01*
X145235833Y-106277380D01*
X145140595Y-106229761D01*
X145092976Y-106134523D01*
X145092976Y-105753571D01*
X145140595Y-105658333D01*
X145235833Y-105610714D01*
X145426309Y-105610714D01*
X145521547Y-105658333D01*
X145569166Y-105753571D01*
X145569166Y-105848809D01*
X145092976Y-105944047D01*
X145950119Y-106229761D02*
X146045357Y-106277380D01*
X146235833Y-106277380D01*
X146331071Y-106229761D01*
X146378690Y-106134523D01*
X146378690Y-106086904D01*
X146331071Y-105991666D01*
X146235833Y-105944047D01*
X146092976Y-105944047D01*
X145997738Y-105896428D01*
X145950119Y-105801190D01*
X145950119Y-105753571D01*
X145997738Y-105658333D01*
X146092976Y-105610714D01*
X146235833Y-105610714D01*
X146331071Y-105658333D01*
X146807261Y-106277380D02*
X146807261Y-105610714D01*
X146807261Y-105277380D02*
X146759642Y-105325000D01*
X146807261Y-105372619D01*
X146854880Y-105325000D01*
X146807261Y-105277380D01*
X146807261Y-105372619D01*
X147712023Y-105610714D02*
X147712023Y-106420238D01*
X147664404Y-106515476D01*
X147616785Y-106563095D01*
X147521547Y-106610714D01*
X147378690Y-106610714D01*
X147283452Y-106563095D01*
X147712023Y-106229761D02*
X147616785Y-106277380D01*
X147426309Y-106277380D01*
X147331071Y-106229761D01*
X147283452Y-106182142D01*
X147235833Y-106086904D01*
X147235833Y-105801190D01*
X147283452Y-105705952D01*
X147331071Y-105658333D01*
X147426309Y-105610714D01*
X147616785Y-105610714D01*
X147712023Y-105658333D01*
X148188214Y-105610714D02*
X148188214Y-106277380D01*
X148188214Y-105705952D02*
X148235833Y-105658333D01*
X148331071Y-105610714D01*
X148473928Y-105610714D01*
X148569166Y-105658333D01*
X148616785Y-105753571D01*
X148616785Y-106277380D01*
X149473928Y-106229761D02*
X149378690Y-106277380D01*
X149188214Y-106277380D01*
X149092976Y-106229761D01*
X149045357Y-106134523D01*
X149045357Y-105753571D01*
X149092976Y-105658333D01*
X149188214Y-105610714D01*
X149378690Y-105610714D01*
X149473928Y-105658333D01*
X149521547Y-105753571D01*
X149521547Y-105848809D01*
X149045357Y-105944047D01*
X150378690Y-106277380D02*
X150378690Y-105277380D01*
X150378690Y-106229761D02*
X150283452Y-106277380D01*
X150092976Y-106277380D01*
X149997738Y-106229761D01*
X149950119Y-106182142D01*
X149902500Y-106086904D01*
X149902500Y-105801190D01*
X149950119Y-105705952D01*
X149997738Y-105658333D01*
X150092976Y-105610714D01*
X150283452Y-105610714D01*
X150378690Y-105658333D01*
X151616785Y-106277380D02*
X151616785Y-105277380D01*
X151616785Y-105658333D02*
X151712023Y-105610714D01*
X151902500Y-105610714D01*
X151997738Y-105658333D01*
X152045357Y-105705952D01*
X152092976Y-105801190D01*
X152092976Y-106086904D01*
X152045357Y-106182142D01*
X151997738Y-106229761D01*
X151902500Y-106277380D01*
X151712023Y-106277380D01*
X151616785Y-106229761D01*
X152426309Y-105610714D02*
X152664404Y-106277380D01*
X152902500Y-105610714D02*
X152664404Y-106277380D01*
X152569166Y-106515476D01*
X152521547Y-106563095D01*
X152426309Y-106610714D01*
X154045357Y-106277380D02*
X154045357Y-105277380D01*
X154045357Y-105753571D02*
X154616785Y-105753571D01*
X154616785Y-106277380D02*
X154616785Y-105277380D01*
X155235833Y-106277380D02*
X155140595Y-106229761D01*
X155092976Y-106182142D01*
X155045357Y-106086904D01*
X155045357Y-105801190D01*
X155092976Y-105705952D01*
X155140595Y-105658333D01*
X155235833Y-105610714D01*
X155378690Y-105610714D01*
X155473928Y-105658333D01*
X155521547Y-105705952D01*
X155569166Y-105801190D01*
X155569166Y-106086904D01*
X155521547Y-106182142D01*
X155473928Y-106229761D01*
X155378690Y-106277380D01*
X155235833Y-106277380D01*
X155902500Y-105610714D02*
X156140595Y-106277380D01*
X156378690Y-105610714D02*
X156140595Y-106277380D01*
X156045357Y-106515476D01*
X155997738Y-106563095D01*
X155902500Y-106610714D01*
X156902500Y-106277380D02*
X156807261Y-106229761D01*
X156759642Y-106182142D01*
X156712023Y-106086904D01*
X156712023Y-105801190D01*
X156759642Y-105705952D01*
X156807261Y-105658333D01*
X156902500Y-105610714D01*
X157045357Y-105610714D01*
X157140595Y-105658333D01*
X157188214Y-105705952D01*
X157235833Y-105801190D01*
X157235833Y-106086904D01*
X157188214Y-106182142D01*
X157140595Y-106229761D01*
X157045357Y-106277380D01*
X156902500Y-106277380D01*
X158092976Y-105610714D02*
X158092976Y-106277380D01*
X157664404Y-105610714D02*
X157664404Y-106134523D01*
X157712023Y-106229761D01*
X157807261Y-106277380D01*
X157950119Y-106277380D01*
X158045357Y-106229761D01*
X158092976Y-106182142D01*
X158569166Y-105610714D02*
X158569166Y-106277380D01*
X158569166Y-105705952D02*
X158616785Y-105658333D01*
X158712023Y-105610714D01*
X158854880Y-105610714D01*
X158950119Y-105658333D01*
X158997738Y-105753571D01*
X158997738Y-106277380D01*
X159902500Y-105610714D02*
X159902500Y-106420238D01*
X159854880Y-106515476D01*
X159807261Y-106563095D01*
X159712023Y-106610714D01*
X159569166Y-106610714D01*
X159473928Y-106563095D01*
X159902500Y-106229761D02*
X159807261Y-106277380D01*
X159616785Y-106277380D01*
X159521547Y-106229761D01*
X159473928Y-106182142D01*
X159426309Y-106086904D01*
X159426309Y-105801190D01*
X159473928Y-105705952D01*
X159521547Y-105658333D01*
X159616785Y-105610714D01*
X159807261Y-105610714D01*
X159902500Y-105658333D01*
X161616785Y-106277380D02*
X161140595Y-106277380D01*
X161140595Y-105277380D01*
X162331071Y-106229761D02*
X162235833Y-106277380D01*
X162045357Y-106277380D01*
X161950119Y-106229761D01*
X161902500Y-106134523D01*
X161902500Y-105753571D01*
X161950119Y-105658333D01*
X162045357Y-105610714D01*
X162235833Y-105610714D01*
X162331071Y-105658333D01*
X162378690Y-105753571D01*
X162378690Y-105848809D01*
X161902500Y-105944047D01*
X163188214Y-106229761D02*
X163092976Y-106277380D01*
X162902500Y-106277380D01*
X162807261Y-106229761D01*
X162759642Y-106134523D01*
X162759642Y-105753571D01*
X162807261Y-105658333D01*
X162902500Y-105610714D01*
X163092976Y-105610714D01*
X163188214Y-105658333D01*
X163235833Y-105753571D01*
X163235833Y-105848809D01*
X162759642Y-105944047D01*
X163664404Y-106182142D02*
X163712023Y-106229761D01*
X163664404Y-106277380D01*
X163616785Y-106229761D01*
X163664404Y-106182142D01*
X163664404Y-106277380D01*
X153997738Y-107022619D02*
X154045357Y-106975000D01*
X154140595Y-106927380D01*
X154378690Y-106927380D01*
X154473928Y-106975000D01*
X154521547Y-107022619D01*
X154569166Y-107117857D01*
X154569166Y-107213095D01*
X154521547Y-107355952D01*
X153950119Y-107927380D01*
X154569166Y-107927380D01*
X155188214Y-106927380D02*
X155283452Y-106927380D01*
X155378690Y-106975000D01*
X155426309Y-107022619D01*
X155473928Y-107117857D01*
X155521547Y-107308333D01*
X155521547Y-107546428D01*
X155473928Y-107736904D01*
X155426309Y-107832142D01*
X155378690Y-107879761D01*
X155283452Y-107927380D01*
X155188214Y-107927380D01*
X155092976Y-107879761D01*
X155045357Y-107832142D01*
X154997738Y-107736904D01*
X154950119Y-107546428D01*
X154950119Y-107308333D01*
X154997738Y-107117857D01*
X155045357Y-107022619D01*
X155092976Y-106975000D01*
X155188214Y-106927380D01*
X156473928Y-107927380D02*
X155902500Y-107927380D01*
X156188214Y-107927380D02*
X156188214Y-106927380D01*
X156092976Y-107070238D01*
X155997738Y-107165476D01*
X155902500Y-107213095D01*
X156950119Y-107927380D02*
X157140595Y-107927380D01*
X157235833Y-107879761D01*
X157283452Y-107832142D01*
X157378690Y-107689285D01*
X157426309Y-107498809D01*
X157426309Y-107117857D01*
X157378690Y-107022619D01*
X157331071Y-106975000D01*
X157235833Y-106927380D01*
X157045357Y-106927380D01*
X156950119Y-106975000D01*
X156902500Y-107022619D01*
X156854880Y-107117857D01*
X156854880Y-107355952D01*
X156902500Y-107451190D01*
X156950119Y-107498809D01*
X157045357Y-107546428D01*
X157235833Y-107546428D01*
X157331071Y-107498809D01*
X157378690Y-107451190D01*
X157426309Y-107355952D01*
X157854880Y-107546428D02*
X158616785Y-107546428D01*
X159283452Y-106927380D02*
X159378690Y-106927380D01*
X159473928Y-106975000D01*
X159521547Y-107022619D01*
X159569166Y-107117857D01*
X159616785Y-107308333D01*
X159616785Y-107546428D01*
X159569166Y-107736904D01*
X159521547Y-107832142D01*
X159473928Y-107879761D01*
X159378690Y-107927380D01*
X159283452Y-107927380D01*
X159188214Y-107879761D01*
X159140595Y-107832142D01*
X159092976Y-107736904D01*
X159045357Y-107546428D01*
X159045357Y-107308333D01*
X159092976Y-107117857D01*
X159140595Y-107022619D01*
X159188214Y-106975000D01*
X159283452Y-106927380D01*
X160188214Y-107355952D02*
X160092976Y-107308333D01*
X160045357Y-107260714D01*
X159997738Y-107165476D01*
X159997738Y-107117857D01*
X160045357Y-107022619D01*
X160092976Y-106975000D01*
X160188214Y-106927380D01*
X160378690Y-106927380D01*
X160473928Y-106975000D01*
X160521547Y-107022619D01*
X160569166Y-107117857D01*
X160569166Y-107165476D01*
X160521547Y-107260714D01*
X160473928Y-107308333D01*
X160378690Y-107355952D01*
X160188214Y-107355952D01*
X160092976Y-107403571D01*
X160045357Y-107451190D01*
X159997738Y-107546428D01*
X159997738Y-107736904D01*
X160045357Y-107832142D01*
X160092976Y-107879761D01*
X160188214Y-107927380D01*
X160378690Y-107927380D01*
X160473928Y-107879761D01*
X160521547Y-107832142D01*
X160569166Y-107736904D01*
X160569166Y-107546428D01*
X160521547Y-107451190D01*
X160473928Y-107403571D01*
X160378690Y-107355952D01*
X160997738Y-107546428D02*
X161759642Y-107546428D01*
X162426309Y-106927380D02*
X162521547Y-106927380D01*
X162616785Y-106975000D01*
X162664404Y-107022619D01*
X162712023Y-107117857D01*
X162759642Y-107308333D01*
X162759642Y-107546428D01*
X162712023Y-107736904D01*
X162664404Y-107832142D01*
X162616785Y-107879761D01*
X162521547Y-107927380D01*
X162426309Y-107927380D01*
X162331071Y-107879761D01*
X162283452Y-107832142D01*
X162235833Y-107736904D01*
X162188214Y-107546428D01*
X162188214Y-107308333D01*
X162235833Y-107117857D01*
X162283452Y-107022619D01*
X162331071Y-106975000D01*
X162426309Y-106927380D01*
X163092976Y-106927380D02*
X163759642Y-106927380D01*
X163331071Y-107927380D01*
X104592857Y-105871428D02*
X104592857Y-105357142D01*
X104592857Y-105614285D02*
X105492857Y-105614285D01*
X105364285Y-105528571D01*
X105278571Y-105442857D01*
X105235714Y-105357142D01*
X105407142Y-106214285D02*
X105450000Y-106257142D01*
X105492857Y-106342857D01*
X105492857Y-106557142D01*
X105450000Y-106642857D01*
X105407142Y-106685714D01*
X105321428Y-106728571D01*
X105235714Y-106728571D01*
X105107142Y-106685714D01*
X104592857Y-106171428D01*
X104592857Y-106728571D01*
X105192857Y-107028571D02*
X104592857Y-107242857D01*
X105192857Y-107457142D01*
X105535714Y-108442857D02*
X104378571Y-107671428D01*
X105492857Y-108614285D02*
X105492857Y-109128571D01*
X104592857Y-108871428D02*
X105492857Y-108871428D01*
X104592857Y-109428571D02*
X105492857Y-109428571D01*
X104678571Y-110371428D02*
X104635714Y-110328571D01*
X104592857Y-110200000D01*
X104592857Y-110114285D01*
X104635714Y-109985714D01*
X104721428Y-109900000D01*
X104807142Y-109857142D01*
X104978571Y-109814285D01*
X105107142Y-109814285D01*
X105278571Y-109857142D01*
X105364285Y-109900000D01*
X105450000Y-109985714D01*
X105492857Y-110114285D01*
X105492857Y-110200000D01*
X105450000Y-110328571D01*
X105407142Y-110371428D01*
X105535714Y-111400000D02*
X104378571Y-110628571D01*
X105450000Y-112171428D02*
X105492857Y-112085714D01*
X105492857Y-111957142D01*
X105450000Y-111828571D01*
X105364285Y-111742857D01*
X105278571Y-111700000D01*
X105107142Y-111657142D01*
X104978571Y-111657142D01*
X104807142Y-111700000D01*
X104721428Y-111742857D01*
X104635714Y-111828571D01*
X104592857Y-111957142D01*
X104592857Y-112042857D01*
X104635714Y-112171428D01*
X104678571Y-112214285D01*
X104978571Y-112214285D01*
X104978571Y-112042857D01*
X105192857Y-112600000D02*
X104592857Y-112600000D01*
X105107142Y-112600000D02*
X105150000Y-112642857D01*
X105192857Y-112728571D01*
X105192857Y-112857142D01*
X105150000Y-112942857D01*
X105064285Y-112985714D01*
X104592857Y-112985714D01*
X104592857Y-113800000D02*
X105492857Y-113800000D01*
X104635714Y-113800000D02*
X104592857Y-113714285D01*
X104592857Y-113542857D01*
X104635714Y-113457142D01*
X104678571Y-113414285D01*
X104764285Y-113371428D01*
X105021428Y-113371428D01*
X105107142Y-113414285D01*
X105150000Y-113457142D01*
X105192857Y-113542857D01*
X105192857Y-113714285D01*
X105150000Y-113800000D01*
X104833333Y-97942857D02*
X104833333Y-98419047D01*
X104547619Y-97847619D02*
X105547619Y-98180952D01*
X104547619Y-98514285D01*
X105547619Y-98704761D02*
X105547619Y-99276190D01*
X104547619Y-98990476D02*
X105547619Y-98990476D01*
X105547619Y-99514285D02*
X104547619Y-100180952D01*
X105547619Y-100180952D02*
X104547619Y-99514285D01*
X104928571Y-100561904D02*
X104928571Y-101323809D01*
X104547619Y-100942857D02*
X105309523Y-100942857D01*
X105595238Y-102514285D02*
X104309523Y-101657142D01*
X104928571Y-102847619D02*
X104928571Y-103609523D01*
X104850000Y-77871428D02*
X104850000Y-78300000D01*
X104592857Y-77785714D02*
X105492857Y-78085714D01*
X104592857Y-78385714D01*
X105407142Y-78642857D02*
X105450000Y-78685714D01*
X105492857Y-78771428D01*
X105492857Y-78985714D01*
X105450000Y-79071428D01*
X105407142Y-79114285D01*
X105321428Y-79157142D01*
X105235714Y-79157142D01*
X105107142Y-79114285D01*
X104592857Y-78600000D01*
X104592857Y-79157142D01*
X105535714Y-80185714D02*
X104378571Y-79414285D01*
X105064285Y-80785714D02*
X105021428Y-80914285D01*
X104978571Y-80957142D01*
X104892857Y-81000000D01*
X104764285Y-81000000D01*
X104678571Y-80957142D01*
X104635714Y-80914285D01*
X104592857Y-80828571D01*
X104592857Y-80485714D01*
X105492857Y-80485714D01*
X105492857Y-80785714D01*
X105450000Y-80871428D01*
X105407142Y-80914285D01*
X105321428Y-80957142D01*
X105235714Y-80957142D01*
X105150000Y-80914285D01*
X105107142Y-80871428D01*
X105064285Y-80785714D01*
X105064285Y-80485714D01*
X105407142Y-81342857D02*
X105450000Y-81385714D01*
X105492857Y-81471428D01*
X105492857Y-81685714D01*
X105450000Y-81771428D01*
X105407142Y-81814285D01*
X105321428Y-81857142D01*
X105235714Y-81857142D01*
X105107142Y-81814285D01*
X104592857Y-81300000D01*
X104592857Y-81857142D01*
X105535714Y-82885714D02*
X104378571Y-82114285D01*
X105450000Y-83657142D02*
X105492857Y-83571428D01*
X105492857Y-83442857D01*
X105450000Y-83314285D01*
X105364285Y-83228571D01*
X105278571Y-83185714D01*
X105107142Y-83142857D01*
X104978571Y-83142857D01*
X104807142Y-83185714D01*
X104721428Y-83228571D01*
X104635714Y-83314285D01*
X104592857Y-83442857D01*
X104592857Y-83528571D01*
X104635714Y-83657142D01*
X104678571Y-83700000D01*
X104978571Y-83700000D01*
X104978571Y-83528571D01*
X105192857Y-84085714D02*
X104592857Y-84085714D01*
X105107142Y-84085714D02*
X105150000Y-84128571D01*
X105192857Y-84214285D01*
X105192857Y-84342857D01*
X105150000Y-84428571D01*
X105064285Y-84471428D01*
X104592857Y-84471428D01*
X104592857Y-85285714D02*
X105492857Y-85285714D01*
X104635714Y-85285714D02*
X104592857Y-85200000D01*
X104592857Y-85028571D01*
X104635714Y-84942857D01*
X104678571Y-84900000D01*
X104764285Y-84857142D01*
X105021428Y-84857142D01*
X105107142Y-84900000D01*
X105150000Y-84942857D01*
X105192857Y-85028571D01*
X105192857Y-85200000D01*
X105150000Y-85285714D01*
X129547619Y-74228571D02*
X130547619Y-74228571D01*
X130547619Y-74609523D01*
X130500000Y-74704761D01*
X130452380Y-74752380D01*
X130357142Y-74800000D01*
X130214285Y-74800000D01*
X130119047Y-74752380D01*
X130071428Y-74704761D01*
X130023809Y-74609523D01*
X130023809Y-74228571D01*
X129642857Y-75228571D02*
X129595238Y-75276190D01*
X129547619Y-75228571D01*
X129595238Y-75180952D01*
X129642857Y-75228571D01*
X129547619Y-75228571D01*
X130547619Y-75704761D02*
X129738095Y-75704761D01*
X129642857Y-75752380D01*
X129595238Y-75800000D01*
X129547619Y-75895238D01*
X129547619Y-76085714D01*
X129595238Y-76180952D01*
X129642857Y-76228571D01*
X129738095Y-76276190D01*
X130547619Y-76276190D01*
X130214285Y-76752380D02*
X129214285Y-76752380D01*
X130166666Y-76752380D02*
X130214285Y-76847619D01*
X130214285Y-77038095D01*
X130166666Y-77133333D01*
X130119047Y-77180952D01*
X130023809Y-77228571D01*
X129738095Y-77228571D01*
X129642857Y-77180952D01*
X129595238Y-77133333D01*
X129547619Y-77038095D01*
X129547619Y-76847619D01*
X129595238Y-76752380D01*
X130595238Y-78371428D02*
X129309523Y-77514285D01*
X130547619Y-78561904D02*
X130547619Y-79133333D01*
X129547619Y-78847619D02*
X130547619Y-78847619D01*
X129595238Y-79847619D02*
X129547619Y-79752380D01*
X129547619Y-79561904D01*
X129595238Y-79466666D01*
X129690476Y-79419047D01*
X130071428Y-79419047D01*
X130166666Y-79466666D01*
X130214285Y-79561904D01*
X130214285Y-79752380D01*
X130166666Y-79847619D01*
X130071428Y-79895238D01*
X129976190Y-79895238D01*
X129880952Y-79419047D01*
X129547619Y-80323809D02*
X130214285Y-80323809D01*
X130023809Y-80323809D02*
X130119047Y-80371428D01*
X130166666Y-80419047D01*
X130214285Y-80514285D01*
X130214285Y-80609523D01*
X129642857Y-80942857D02*
X129595238Y-80990476D01*
X129547619Y-80942857D01*
X129595238Y-80895238D01*
X129642857Y-80942857D01*
X129547619Y-80942857D01*
X130595238Y-82133333D02*
X129309523Y-81276190D01*
X129547619Y-82466666D02*
X130547619Y-82466666D01*
X130547619Y-82847619D01*
X130500000Y-82942857D01*
X130452380Y-82990476D01*
X130357142Y-83038095D01*
X130214285Y-83038095D01*
X130119047Y-82990476D01*
X130071428Y-82942857D01*
X130023809Y-82847619D01*
X130023809Y-82466666D01*
X129642857Y-83466666D02*
X129595238Y-83514285D01*
X129547619Y-83466666D01*
X129595238Y-83419047D01*
X129642857Y-83466666D01*
X129547619Y-83466666D01*
X129547619Y-83942857D02*
X130547619Y-83942857D01*
X130547619Y-84180952D01*
X130500000Y-84323809D01*
X130404761Y-84419047D01*
X130309523Y-84466666D01*
X130119047Y-84514285D01*
X129976190Y-84514285D01*
X129785714Y-84466666D01*
X129690476Y-84419047D01*
X129595238Y-84323809D01*
X129547619Y-84180952D01*
X129547619Y-83942857D01*
X130214285Y-84942857D02*
X129547619Y-84942857D01*
X130119047Y-84942857D02*
X130166666Y-84990476D01*
X130214285Y-85085714D01*
X130214285Y-85228571D01*
X130166666Y-85323809D01*
X130071428Y-85371428D01*
X129547619Y-85371428D01*
X141591428Y-74517142D02*
X141591428Y-75117142D01*
X141377142Y-74174285D02*
X141162857Y-74817142D01*
X141720000Y-74817142D01*
X142191428Y-74602857D02*
X142105714Y-74560000D01*
X142062857Y-74517142D01*
X142020000Y-74431428D01*
X142020000Y-74388571D01*
X142062857Y-74302857D01*
X142105714Y-74260000D01*
X142191428Y-74217142D01*
X142362857Y-74217142D01*
X142448571Y-74260000D01*
X142491428Y-74302857D01*
X142534285Y-74388571D01*
X142534285Y-74431428D01*
X142491428Y-74517142D01*
X142448571Y-74560000D01*
X142362857Y-74602857D01*
X142191428Y-74602857D01*
X142105714Y-74645714D01*
X142062857Y-74688571D01*
X142020000Y-74774285D01*
X142020000Y-74945714D01*
X142062857Y-75031428D01*
X142105714Y-75074285D01*
X142191428Y-75117142D01*
X142362857Y-75117142D01*
X142448571Y-75074285D01*
X142491428Y-75031428D01*
X142534285Y-74945714D01*
X142534285Y-74774285D01*
X142491428Y-74688571D01*
X142448571Y-74645714D01*
X142362857Y-74602857D01*
X143348571Y-74217142D02*
X142920000Y-74217142D01*
X142877142Y-74645714D01*
X142920000Y-74602857D01*
X143005714Y-74560000D01*
X143220000Y-74560000D01*
X143305714Y-74602857D01*
X143348571Y-74645714D01*
X143391428Y-74731428D01*
X143391428Y-74945714D01*
X143348571Y-75031428D01*
X143305714Y-75074285D01*
X143220000Y-75117142D01*
X143005714Y-75117142D01*
X142920000Y-75074285D01*
X142877142Y-75031428D01*
X144420000Y-74174285D02*
X143648571Y-75331428D01*
X144677142Y-74302857D02*
X144720000Y-74260000D01*
X144805714Y-74217142D01*
X145020000Y-74217142D01*
X145105714Y-74260000D01*
X145148571Y-74302857D01*
X145191428Y-74388571D01*
X145191428Y-74474285D01*
X145148571Y-74602857D01*
X144634285Y-75117142D01*
X145191428Y-75117142D01*
X145491428Y-74217142D02*
X146048571Y-74217142D01*
X145748571Y-74560000D01*
X145877142Y-74560000D01*
X145962857Y-74602857D01*
X146005714Y-74645714D01*
X146048571Y-74731428D01*
X146048571Y-74945714D01*
X146005714Y-75031428D01*
X145962857Y-75074285D01*
X145877142Y-75117142D01*
X145620000Y-75117142D01*
X145534285Y-75074285D01*
X145491428Y-75031428D01*
X146391428Y-74302857D02*
X146434285Y-74260000D01*
X146520000Y-74217142D01*
X146734285Y-74217142D01*
X146820000Y-74260000D01*
X146862857Y-74302857D01*
X146905714Y-74388571D01*
X146905714Y-74474285D01*
X146862857Y-74602857D01*
X146348571Y-75117142D01*
X146905714Y-75117142D01*
X147291428Y-74774285D02*
X147977142Y-74774285D01*
X148362857Y-74302857D02*
X148405714Y-74260000D01*
X148491428Y-74217142D01*
X148705714Y-74217142D01*
X148791428Y-74260000D01*
X148834285Y-74302857D01*
X148877142Y-74388571D01*
X148877142Y-74474285D01*
X148834285Y-74602857D01*
X148320000Y-75117142D01*
X148877142Y-75117142D01*
X141690000Y-84050000D02*
X142118571Y-84050000D01*
X141604285Y-84307142D02*
X141904285Y-83407142D01*
X142204285Y-84307142D01*
X142890000Y-83707142D02*
X142890000Y-84307142D01*
X142504285Y-83707142D02*
X142504285Y-84178571D01*
X142547142Y-84264285D01*
X142632857Y-84307142D01*
X142761428Y-84307142D01*
X142847142Y-84264285D01*
X142890000Y-84221428D01*
X143190000Y-83707142D02*
X143532857Y-83707142D01*
X143318571Y-83407142D02*
X143318571Y-84178571D01*
X143361428Y-84264285D01*
X143447142Y-84307142D01*
X143532857Y-84307142D01*
X143961428Y-84307142D02*
X143875714Y-84264285D01*
X143832857Y-84221428D01*
X143790000Y-84135714D01*
X143790000Y-83878571D01*
X143832857Y-83792857D01*
X143875714Y-83750000D01*
X143961428Y-83707142D01*
X144090000Y-83707142D01*
X144175714Y-83750000D01*
X144218571Y-83792857D01*
X144261428Y-83878571D01*
X144261428Y-84135714D01*
X144218571Y-84221428D01*
X144175714Y-84264285D01*
X144090000Y-84307142D01*
X143961428Y-84307142D01*
X145290000Y-83364285D02*
X144518571Y-84521428D01*
X145590000Y-84307142D02*
X145590000Y-83407142D01*
X145890000Y-84050000D01*
X146190000Y-83407142D01*
X146190000Y-84307142D01*
X147004285Y-84307142D02*
X147004285Y-83835714D01*
X146961428Y-83750000D01*
X146875714Y-83707142D01*
X146704285Y-83707142D01*
X146618571Y-83750000D01*
X147004285Y-84264285D02*
X146918571Y-84307142D01*
X146704285Y-84307142D01*
X146618571Y-84264285D01*
X146575714Y-84178571D01*
X146575714Y-84092857D01*
X146618571Y-84007142D01*
X146704285Y-83964285D01*
X146918571Y-83964285D01*
X147004285Y-83921428D01*
X147432857Y-83707142D02*
X147432857Y-84307142D01*
X147432857Y-83792857D02*
X147475714Y-83750000D01*
X147561428Y-83707142D01*
X147690000Y-83707142D01*
X147775714Y-83750000D01*
X147818571Y-83835714D01*
X147818571Y-84307142D01*
X148247142Y-84221428D02*
X148290000Y-84264285D01*
X148247142Y-84307142D01*
X148204285Y-84264285D01*
X148247142Y-84221428D01*
X148247142Y-84307142D01*
X170691904Y-80142380D02*
X171263333Y-80142380D01*
X170977619Y-81142380D02*
X170977619Y-80142380D01*
X171501428Y-80142380D02*
X172168095Y-81142380D01*
X172168095Y-80142380D02*
X171501428Y-81142380D01*
X172501428Y-80237619D02*
X172549047Y-80190000D01*
X172644285Y-80142380D01*
X172882380Y-80142380D01*
X172977619Y-80190000D01*
X173025238Y-80237619D01*
X173072857Y-80332857D01*
X173072857Y-80428095D01*
X173025238Y-80570952D01*
X172453809Y-81142380D01*
X173072857Y-81142380D01*
X169349523Y-85072380D02*
X169016190Y-84596190D01*
X168778095Y-85072380D02*
X168778095Y-84072380D01*
X169159047Y-84072380D01*
X169254285Y-84120000D01*
X169301904Y-84167619D01*
X169349523Y-84262857D01*
X169349523Y-84405714D01*
X169301904Y-84500952D01*
X169254285Y-84548571D01*
X169159047Y-84596190D01*
X168778095Y-84596190D01*
X169730476Y-85024761D02*
X169873333Y-85072380D01*
X170111428Y-85072380D01*
X170206666Y-85024761D01*
X170254285Y-84977142D01*
X170301904Y-84881904D01*
X170301904Y-84786666D01*
X170254285Y-84691428D01*
X170206666Y-84643809D01*
X170111428Y-84596190D01*
X169920952Y-84548571D01*
X169825714Y-84500952D01*
X169778095Y-84453333D01*
X169730476Y-84358095D01*
X169730476Y-84262857D01*
X169778095Y-84167619D01*
X169825714Y-84120000D01*
X169920952Y-84072380D01*
X170159047Y-84072380D01*
X170301904Y-84120000D01*
X170682857Y-84167619D02*
X170730476Y-84120000D01*
X170825714Y-84072380D01*
X171063809Y-84072380D01*
X171159047Y-84120000D01*
X171206666Y-84167619D01*
X171254285Y-84262857D01*
X171254285Y-84358095D01*
X171206666Y-84500952D01*
X170635238Y-85072380D01*
X171254285Y-85072380D01*
X171587619Y-84072380D02*
X172206666Y-84072380D01*
X171873333Y-84453333D01*
X172016190Y-84453333D01*
X172111428Y-84500952D01*
X172159047Y-84548571D01*
X172206666Y-84643809D01*
X172206666Y-84881904D01*
X172159047Y-84977142D01*
X172111428Y-85024761D01*
X172016190Y-85072380D01*
X171730476Y-85072380D01*
X171635238Y-85024761D01*
X171587619Y-84977142D01*
X172587619Y-84167619D02*
X172635238Y-84120000D01*
X172730476Y-84072380D01*
X172968571Y-84072380D01*
X173063809Y-84120000D01*
X173111428Y-84167619D01*
X173159047Y-84262857D01*
X173159047Y-84358095D01*
X173111428Y-84500952D01*
X172540000Y-85072380D01*
X173159047Y-85072380D01*
X173587619Y-84691428D02*
X174349523Y-84691428D01*
X174778095Y-84167619D02*
X174825714Y-84120000D01*
X174920952Y-84072380D01*
X175159047Y-84072380D01*
X175254285Y-84120000D01*
X175301904Y-84167619D01*
X175349523Y-84262857D01*
X175349523Y-84358095D01*
X175301904Y-84500952D01*
X174730476Y-85072380D01*
X175349523Y-85072380D01*
X175287142Y-81142380D02*
X174953809Y-80666190D01*
X174715714Y-81142380D02*
X174715714Y-80142380D01*
X175096666Y-80142380D01*
X175191904Y-80190000D01*
X175239523Y-80237619D01*
X175287142Y-80332857D01*
X175287142Y-80475714D01*
X175239523Y-80570952D01*
X175191904Y-80618571D01*
X175096666Y-80666190D01*
X174715714Y-80666190D01*
X175620476Y-80142380D02*
X176287142Y-81142380D01*
X176287142Y-80142380D02*
X175620476Y-81142380D01*
X176620476Y-80237619D02*
X176668095Y-80190000D01*
X176763333Y-80142380D01*
X177001428Y-80142380D01*
X177096666Y-80190000D01*
X177144285Y-80237619D01*
X177191904Y-80332857D01*
X177191904Y-80428095D01*
X177144285Y-80570952D01*
X176572857Y-81142380D01*
X177191904Y-81142380D01*
X190834761Y-80856666D02*
X191310952Y-80856666D01*
X190739523Y-81142380D02*
X191072857Y-80142380D01*
X191406190Y-81142380D01*
X191596666Y-80142380D02*
X192168095Y-80142380D01*
X191882380Y-81142380D02*
X191882380Y-80142380D01*
X192406190Y-80142380D02*
X193072857Y-81142380D01*
X193072857Y-80142380D02*
X192406190Y-81142380D01*
X186906190Y-80142380D02*
X187477619Y-80142380D01*
X187191904Y-81142380D02*
X187191904Y-80142380D01*
X187810952Y-81142380D02*
X187810952Y-80142380D01*
X188858571Y-81047142D02*
X188810952Y-81094761D01*
X188668095Y-81142380D01*
X188572857Y-81142380D01*
X188430000Y-81094761D01*
X188334761Y-80999523D01*
X188287142Y-80904285D01*
X188239523Y-80713809D01*
X188239523Y-80570952D01*
X188287142Y-80380476D01*
X188334761Y-80285238D01*
X188430000Y-80190000D01*
X188572857Y-80142380D01*
X188668095Y-80142380D01*
X188810952Y-80190000D01*
X188858571Y-80237619D01*
X141700000Y-98190000D02*
X142128571Y-98190000D01*
X141614285Y-98447142D02*
X141914285Y-97547142D01*
X142214285Y-98447142D01*
X142900000Y-97847142D02*
X142900000Y-98447142D01*
X142514285Y-97847142D02*
X142514285Y-98318571D01*
X142557142Y-98404285D01*
X142642857Y-98447142D01*
X142771428Y-98447142D01*
X142857142Y-98404285D01*
X142900000Y-98361428D01*
X143200000Y-97847142D02*
X143542857Y-97847142D01*
X143328571Y-97547142D02*
X143328571Y-98318571D01*
X143371428Y-98404285D01*
X143457142Y-98447142D01*
X143542857Y-98447142D01*
X143971428Y-98447142D02*
X143885714Y-98404285D01*
X143842857Y-98361428D01*
X143800000Y-98275714D01*
X143800000Y-98018571D01*
X143842857Y-97932857D01*
X143885714Y-97890000D01*
X143971428Y-97847142D01*
X144100000Y-97847142D01*
X144185714Y-97890000D01*
X144228571Y-97932857D01*
X144271428Y-98018571D01*
X144271428Y-98275714D01*
X144228571Y-98361428D01*
X144185714Y-98404285D01*
X144100000Y-98447142D01*
X143971428Y-98447142D01*
X145300000Y-97504285D02*
X144528571Y-98661428D01*
X145600000Y-98447142D02*
X145600000Y-97547142D01*
X145900000Y-98190000D01*
X146200000Y-97547142D01*
X146200000Y-98447142D01*
X147014285Y-98447142D02*
X147014285Y-97975714D01*
X146971428Y-97890000D01*
X146885714Y-97847142D01*
X146714285Y-97847142D01*
X146628571Y-97890000D01*
X147014285Y-98404285D02*
X146928571Y-98447142D01*
X146714285Y-98447142D01*
X146628571Y-98404285D01*
X146585714Y-98318571D01*
X146585714Y-98232857D01*
X146628571Y-98147142D01*
X146714285Y-98104285D01*
X146928571Y-98104285D01*
X147014285Y-98061428D01*
X147442857Y-97847142D02*
X147442857Y-98447142D01*
X147442857Y-97932857D02*
X147485714Y-97890000D01*
X147571428Y-97847142D01*
X147700000Y-97847142D01*
X147785714Y-97890000D01*
X147828571Y-97975714D01*
X147828571Y-98447142D01*
X148257142Y-98361428D02*
X148300000Y-98404285D01*
X148257142Y-98447142D01*
X148214285Y-98404285D01*
X148257142Y-98361428D01*
X148257142Y-98447142D01*
X183287142Y-81142380D02*
X182953809Y-80666190D01*
X182715714Y-81142380D02*
X182715714Y-80142380D01*
X183096666Y-80142380D01*
X183191904Y-80190000D01*
X183239523Y-80237619D01*
X183287142Y-80332857D01*
X183287142Y-80475714D01*
X183239523Y-80570952D01*
X183191904Y-80618571D01*
X183096666Y-80666190D01*
X182715714Y-80666190D01*
X183620476Y-80142380D02*
X184287142Y-81142380D01*
X184287142Y-80142380D02*
X183620476Y-81142380D01*
X185191904Y-81142380D02*
X184620476Y-81142380D01*
X184906190Y-81142380D02*
X184906190Y-80142380D01*
X184810952Y-80285238D01*
X184715714Y-80380476D01*
X184620476Y-80428095D01*
X178691904Y-80142380D02*
X179263333Y-80142380D01*
X178977619Y-81142380D02*
X178977619Y-80142380D01*
X179501428Y-80142380D02*
X180168095Y-81142380D01*
X180168095Y-80142380D02*
X179501428Y-81142380D01*
X181072857Y-81142380D02*
X180501428Y-81142380D01*
X180787142Y-81142380D02*
X180787142Y-80142380D01*
X180691904Y-80285238D01*
X180596666Y-80380476D01*
X180501428Y-80428095D01*
X105214285Y-116571428D02*
X105976190Y-116571428D01*
X105595238Y-116952380D02*
X105595238Y-116190476D01*
X106928571Y-115952380D02*
X106452380Y-115952380D01*
X106404761Y-116428571D01*
X106452380Y-116380952D01*
X106547619Y-116333333D01*
X106785714Y-116333333D01*
X106880952Y-116380952D01*
X106928571Y-116428571D01*
X106976190Y-116523809D01*
X106976190Y-116761904D01*
X106928571Y-116857142D01*
X106880952Y-116904761D01*
X106785714Y-116952380D01*
X106547619Y-116952380D01*
X106452380Y-116904761D01*
X106404761Y-116857142D01*
X107261904Y-115952380D02*
X107595238Y-116952380D01*
X107928571Y-115952380D01*
X186299523Y-85102380D02*
X185966190Y-84626190D01*
X185728095Y-85102380D02*
X185728095Y-84102380D01*
X186109047Y-84102380D01*
X186204285Y-84150000D01*
X186251904Y-84197619D01*
X186299523Y-84292857D01*
X186299523Y-84435714D01*
X186251904Y-84530952D01*
X186204285Y-84578571D01*
X186109047Y-84626190D01*
X185728095Y-84626190D01*
X186680476Y-85054761D02*
X186823333Y-85102380D01*
X187061428Y-85102380D01*
X187156666Y-85054761D01*
X187204285Y-85007142D01*
X187251904Y-84911904D01*
X187251904Y-84816666D01*
X187204285Y-84721428D01*
X187156666Y-84673809D01*
X187061428Y-84626190D01*
X186870952Y-84578571D01*
X186775714Y-84530952D01*
X186728095Y-84483333D01*
X186680476Y-84388095D01*
X186680476Y-84292857D01*
X186728095Y-84197619D01*
X186775714Y-84150000D01*
X186870952Y-84102380D01*
X187109047Y-84102380D01*
X187251904Y-84150000D01*
X187632857Y-84197619D02*
X187680476Y-84150000D01*
X187775714Y-84102380D01*
X188013809Y-84102380D01*
X188109047Y-84150000D01*
X188156666Y-84197619D01*
X188204285Y-84292857D01*
X188204285Y-84388095D01*
X188156666Y-84530952D01*
X187585238Y-85102380D01*
X188204285Y-85102380D01*
X188537619Y-84102380D02*
X189156666Y-84102380D01*
X188823333Y-84483333D01*
X188966190Y-84483333D01*
X189061428Y-84530952D01*
X189109047Y-84578571D01*
X189156666Y-84673809D01*
X189156666Y-84911904D01*
X189109047Y-85007142D01*
X189061428Y-85054761D01*
X188966190Y-85102380D01*
X188680476Y-85102380D01*
X188585238Y-85054761D01*
X188537619Y-85007142D01*
X189537619Y-84197619D02*
X189585238Y-84150000D01*
X189680476Y-84102380D01*
X189918571Y-84102380D01*
X190013809Y-84150000D01*
X190061428Y-84197619D01*
X190109047Y-84292857D01*
X190109047Y-84388095D01*
X190061428Y-84530952D01*
X189490000Y-85102380D01*
X190109047Y-85102380D01*
X190537619Y-84721428D02*
X191299523Y-84721428D01*
X192299523Y-85102380D02*
X191728095Y-85102380D01*
X192013809Y-85102380D02*
X192013809Y-84102380D01*
X191918571Y-84245238D01*
X191823333Y-84340476D01*
X191728095Y-84388095D01*
X129547619Y-88178571D02*
X130547619Y-88178571D01*
X130547619Y-88559523D01*
X130500000Y-88654761D01*
X130452380Y-88702380D01*
X130357142Y-88750000D01*
X130214285Y-88750000D01*
X130119047Y-88702380D01*
X130071428Y-88654761D01*
X130023809Y-88559523D01*
X130023809Y-88178571D01*
X129642857Y-89178571D02*
X129595238Y-89226190D01*
X129547619Y-89178571D01*
X129595238Y-89130952D01*
X129642857Y-89178571D01*
X129547619Y-89178571D01*
X130547619Y-89654761D02*
X129738095Y-89654761D01*
X129642857Y-89702380D01*
X129595238Y-89750000D01*
X129547619Y-89845238D01*
X129547619Y-90035714D01*
X129595238Y-90130952D01*
X129642857Y-90178571D01*
X129738095Y-90226190D01*
X130547619Y-90226190D01*
X130214285Y-90702380D02*
X129214285Y-90702380D01*
X130166666Y-90702380D02*
X130214285Y-90797619D01*
X130214285Y-90988095D01*
X130166666Y-91083333D01*
X130119047Y-91130952D01*
X130023809Y-91178571D01*
X129738095Y-91178571D01*
X129642857Y-91130952D01*
X129595238Y-91083333D01*
X129547619Y-90988095D01*
X129547619Y-90797619D01*
X129595238Y-90702380D01*
X130595238Y-92321428D02*
X129309523Y-91464285D01*
X130547619Y-92511904D02*
X130547619Y-93083333D01*
X129547619Y-92797619D02*
X130547619Y-92797619D01*
X129595238Y-93797619D02*
X129547619Y-93702380D01*
X129547619Y-93511904D01*
X129595238Y-93416666D01*
X129690476Y-93369047D01*
X130071428Y-93369047D01*
X130166666Y-93416666D01*
X130214285Y-93511904D01*
X130214285Y-93702380D01*
X130166666Y-93797619D01*
X130071428Y-93845238D01*
X129976190Y-93845238D01*
X129880952Y-93369047D01*
X129547619Y-94273809D02*
X130214285Y-94273809D01*
X130023809Y-94273809D02*
X130119047Y-94321428D01*
X130166666Y-94369047D01*
X130214285Y-94464285D01*
X130214285Y-94559523D01*
X129642857Y-94892857D02*
X129595238Y-94940476D01*
X129547619Y-94892857D01*
X129595238Y-94845238D01*
X129642857Y-94892857D01*
X129547619Y-94892857D01*
X130595238Y-96083333D02*
X129309523Y-95226190D01*
X129547619Y-96416666D02*
X130547619Y-96416666D01*
X130547619Y-96797619D01*
X130500000Y-96892857D01*
X130452380Y-96940476D01*
X130357142Y-96988095D01*
X130214285Y-96988095D01*
X130119047Y-96940476D01*
X130071428Y-96892857D01*
X130023809Y-96797619D01*
X130023809Y-96416666D01*
X129642857Y-97416666D02*
X129595238Y-97464285D01*
X129547619Y-97416666D01*
X129595238Y-97369047D01*
X129642857Y-97416666D01*
X129547619Y-97416666D01*
X129547619Y-97892857D02*
X130547619Y-97892857D01*
X130547619Y-98130952D01*
X130500000Y-98273809D01*
X130404761Y-98369047D01*
X130309523Y-98416666D01*
X130119047Y-98464285D01*
X129976190Y-98464285D01*
X129785714Y-98416666D01*
X129690476Y-98369047D01*
X129595238Y-98273809D01*
X129547619Y-98130952D01*
X129547619Y-97892857D01*
X130214285Y-98892857D02*
X129547619Y-98892857D01*
X130119047Y-98892857D02*
X130166666Y-98940476D01*
X130214285Y-99035714D01*
X130214285Y-99178571D01*
X130166666Y-99273809D01*
X130071428Y-99321428D01*
X129547619Y-99321428D01*
X104850000Y-88771428D02*
X104850000Y-89200000D01*
X104592857Y-88685714D02*
X105492857Y-88985714D01*
X104592857Y-89285714D01*
X104592857Y-90057142D02*
X104592857Y-89542857D01*
X104592857Y-89800000D02*
X105492857Y-89800000D01*
X105364285Y-89714285D01*
X105278571Y-89628571D01*
X105235714Y-89542857D01*
X105535714Y-91085714D02*
X104378571Y-90314285D01*
X105064285Y-91685714D02*
X105021428Y-91814285D01*
X104978571Y-91857142D01*
X104892857Y-91900000D01*
X104764285Y-91900000D01*
X104678571Y-91857142D01*
X104635714Y-91814285D01*
X104592857Y-91728571D01*
X104592857Y-91385714D01*
X105492857Y-91385714D01*
X105492857Y-91685714D01*
X105450000Y-91771428D01*
X105407142Y-91814285D01*
X105321428Y-91857142D01*
X105235714Y-91857142D01*
X105150000Y-91814285D01*
X105107142Y-91771428D01*
X105064285Y-91685714D01*
X105064285Y-91385714D01*
X104592857Y-92757142D02*
X104592857Y-92242857D01*
X104592857Y-92500000D02*
X105492857Y-92500000D01*
X105364285Y-92414285D01*
X105278571Y-92328571D01*
X105235714Y-92242857D01*
X105535714Y-93785714D02*
X104378571Y-93014285D01*
X105450000Y-94557142D02*
X105492857Y-94471428D01*
X105492857Y-94342857D01*
X105450000Y-94214285D01*
X105364285Y-94128571D01*
X105278571Y-94085714D01*
X105107142Y-94042857D01*
X104978571Y-94042857D01*
X104807142Y-94085714D01*
X104721428Y-94128571D01*
X104635714Y-94214285D01*
X104592857Y-94342857D01*
X104592857Y-94428571D01*
X104635714Y-94557142D01*
X104678571Y-94600000D01*
X104978571Y-94600000D01*
X104978571Y-94428571D01*
X105192857Y-94985714D02*
X104592857Y-94985714D01*
X105107142Y-94985714D02*
X105150000Y-95028571D01*
X105192857Y-95114285D01*
X105192857Y-95242857D01*
X105150000Y-95328571D01*
X105064285Y-95371428D01*
X104592857Y-95371428D01*
X104592857Y-96185714D02*
X105492857Y-96185714D01*
X104635714Y-96185714D02*
X104592857Y-96100000D01*
X104592857Y-95928571D01*
X104635714Y-95842857D01*
X104678571Y-95800000D01*
X104764285Y-95757142D01*
X105021428Y-95757142D01*
X105107142Y-95800000D01*
X105150000Y-95842857D01*
X105192857Y-95928571D01*
X105192857Y-96100000D01*
X105150000Y-96185714D01*
X141571428Y-88817142D02*
X141571428Y-89417142D01*
X141357142Y-88474285D02*
X141142857Y-89117142D01*
X141700000Y-89117142D01*
X142171428Y-88902857D02*
X142085714Y-88860000D01*
X142042857Y-88817142D01*
X142000000Y-88731428D01*
X142000000Y-88688571D01*
X142042857Y-88602857D01*
X142085714Y-88560000D01*
X142171428Y-88517142D01*
X142342857Y-88517142D01*
X142428571Y-88560000D01*
X142471428Y-88602857D01*
X142514285Y-88688571D01*
X142514285Y-88731428D01*
X142471428Y-88817142D01*
X142428571Y-88860000D01*
X142342857Y-88902857D01*
X142171428Y-88902857D01*
X142085714Y-88945714D01*
X142042857Y-88988571D01*
X142000000Y-89074285D01*
X142000000Y-89245714D01*
X142042857Y-89331428D01*
X142085714Y-89374285D01*
X142171428Y-89417142D01*
X142342857Y-89417142D01*
X142428571Y-89374285D01*
X142471428Y-89331428D01*
X142514285Y-89245714D01*
X142514285Y-89074285D01*
X142471428Y-88988571D01*
X142428571Y-88945714D01*
X142342857Y-88902857D01*
X143328571Y-88517142D02*
X142900000Y-88517142D01*
X142857142Y-88945714D01*
X142900000Y-88902857D01*
X142985714Y-88860000D01*
X143200000Y-88860000D01*
X143285714Y-88902857D01*
X143328571Y-88945714D01*
X143371428Y-89031428D01*
X143371428Y-89245714D01*
X143328571Y-89331428D01*
X143285714Y-89374285D01*
X143200000Y-89417142D01*
X142985714Y-89417142D01*
X142900000Y-89374285D01*
X142857142Y-89331428D01*
X144400000Y-88474285D02*
X143628571Y-89631428D01*
X144657142Y-88602857D02*
X144700000Y-88560000D01*
X144785714Y-88517142D01*
X145000000Y-88517142D01*
X145085714Y-88560000D01*
X145128571Y-88602857D01*
X145171428Y-88688571D01*
X145171428Y-88774285D01*
X145128571Y-88902857D01*
X144614285Y-89417142D01*
X145171428Y-89417142D01*
X145471428Y-88517142D02*
X146028571Y-88517142D01*
X145728571Y-88860000D01*
X145857142Y-88860000D01*
X145942857Y-88902857D01*
X145985714Y-88945714D01*
X146028571Y-89031428D01*
X146028571Y-89245714D01*
X145985714Y-89331428D01*
X145942857Y-89374285D01*
X145857142Y-89417142D01*
X145600000Y-89417142D01*
X145514285Y-89374285D01*
X145471428Y-89331428D01*
X146371428Y-88602857D02*
X146414285Y-88560000D01*
X146500000Y-88517142D01*
X146714285Y-88517142D01*
X146800000Y-88560000D01*
X146842857Y-88602857D01*
X146885714Y-88688571D01*
X146885714Y-88774285D01*
X146842857Y-88902857D01*
X146328571Y-89417142D01*
X146885714Y-89417142D01*
X147271428Y-89074285D02*
X147957142Y-89074285D01*
X148857142Y-89417142D02*
X148342857Y-89417142D01*
X148600000Y-89417142D02*
X148600000Y-88517142D01*
X148514285Y-88645714D01*
X148428571Y-88731428D01*
X148342857Y-88774285D01*
G04 #@! TO.C,P13*
X195834000Y-70866000D02*
G75*
G03X195834000Y-70866000I-2286000J0D01*
G01*
G04 #@! TO.C,P7*
X173228000Y-72136000D02*
X191008000Y-72136000D01*
X191008000Y-72136000D02*
X191008000Y-69596000D01*
X191008000Y-69596000D02*
X173228000Y-69596000D01*
X170408000Y-72416000D02*
X171958000Y-72416000D01*
X173228000Y-72136000D02*
X173228000Y-69596000D01*
X171958000Y-69316000D02*
X170408000Y-69316000D01*
X170408000Y-69316000D02*
X170408000Y-72416000D01*
D11*
G04 #@! TO.C,Q10*
X170350000Y-76700000D02*
X170350000Y-75240000D01*
X173510000Y-76700000D02*
X173510000Y-74540000D01*
X173510000Y-76700000D02*
X172580000Y-76700000D01*
X170350000Y-76700000D02*
X171280000Y-76700000D01*
G04 #@! TO.C,J7*
X182730000Y-115380000D02*
G75*
G03X183790000Y-116440000I1060000J0D01*
G01*
X183790000Y-85470000D02*
G75*
G03X182730000Y-86530000I0J-1060000D01*
G01*
X195350000Y-115380000D02*
G75*
G02X194290000Y-116440000I-1060000J0D01*
G01*
X195350000Y-86530000D02*
G75*
G03X194290000Y-85470000I-1060000J0D01*
G01*
X186978256Y-108821470D02*
G75*
G02X185030000Y-107186689I-288256J1634781D01*
G01*
X186978256Y-93088530D02*
G75*
G03X185030000Y-94723311I-288256J-1634781D01*
G01*
X191678256Y-107992733D02*
G75*
G03X193050000Y-106357952I-288256J1634781D01*
G01*
X191678256Y-93917267D02*
G75*
G02X193050000Y-95552048I-288256J-1634781D01*
G01*
X182730000Y-115380000D02*
X182730000Y-86530000D01*
X183790000Y-85470000D02*
X194290000Y-85470000D01*
X195350000Y-86530000D02*
X195350000Y-115380000D01*
X194290000Y-116440000D02*
X183790000Y-116440000D01*
X181835662Y-95665000D02*
X181835662Y-95165000D01*
X181835662Y-95165000D02*
X182268675Y-95415000D01*
X182268675Y-95415000D02*
X181835662Y-95665000D01*
X185030000Y-107186689D02*
X185030000Y-94723311D01*
X193050000Y-106357952D02*
X193050000Y-95552048D01*
X186978256Y-93088530D02*
X191678256Y-93917267D01*
X186978256Y-108821470D02*
X191678256Y-107992733D01*
G04 #@! TO.C,J8*
X169958256Y-108821470D02*
X174658256Y-107992733D01*
X169958256Y-93088530D02*
X174658256Y-93917267D01*
X176030000Y-106357952D02*
X176030000Y-95552048D01*
X168010000Y-107186689D02*
X168010000Y-94723311D01*
X165248675Y-95415000D02*
X164815662Y-95665000D01*
X164815662Y-95165000D02*
X165248675Y-95415000D01*
X164815662Y-95665000D02*
X164815662Y-95165000D01*
X177270000Y-116440000D02*
X166770000Y-116440000D01*
X178330000Y-86530000D02*
X178330000Y-115380000D01*
X166770000Y-85470000D02*
X177270000Y-85470000D01*
X165710000Y-115380000D02*
X165710000Y-86530000D01*
X174658256Y-93917267D02*
G75*
G02X176030000Y-95552048I-288256J-1634781D01*
G01*
X174658256Y-107992733D02*
G75*
G03X176030000Y-106357952I-288256J1634781D01*
G01*
X169958256Y-93088530D02*
G75*
G03X168010000Y-94723311I-288256J-1634781D01*
G01*
X169958256Y-108821470D02*
G75*
G02X168010000Y-107186689I-288256J1634781D01*
G01*
X178330000Y-86530000D02*
G75*
G03X177270000Y-85470000I-1060000J0D01*
G01*
X178330000Y-115380000D02*
G75*
G02X177270000Y-116440000I-1060000J0D01*
G01*
X166770000Y-85470000D02*
G75*
G03X165710000Y-86530000I0J-1060000D01*
G01*
X165710000Y-115380000D02*
G75*
G03X166770000Y-116440000I1060000J0D01*
G01*
G04 #@! TO.C,C8*
X157721422Y-90930000D02*
X158238578Y-90930000D01*
X157721422Y-92350000D02*
X158238578Y-92350000D01*
G04 #@! TO.C,U5*
X158200000Y-95400000D02*
G75*
G02X156200000Y-95400000I-1000000J0D01*
G01*
X156200000Y-95400000D02*
X153965000Y-95400000D01*
X153965000Y-95400000D02*
X153965000Y-100600000D01*
X153965000Y-100600000D02*
X160435000Y-100600000D01*
X160435000Y-100600000D02*
X160435000Y-95400000D01*
X160435000Y-95400000D02*
X158200000Y-95400000D01*
G04 #@! TO.C,R12*
X150710000Y-97741422D02*
X150710000Y-98258578D01*
X149290000Y-97741422D02*
X149290000Y-98258578D01*
G04 #@! TO.C,R8*
X161020000Y-111731422D02*
X161020000Y-112248578D01*
X162440000Y-111731422D02*
X162440000Y-112248578D01*
D10*
G04 #@! TO.C,U7*
X160635000Y-87521215D02*
X160635000Y-83121215D01*
X155110000Y-89096215D02*
X155110000Y-83121215D01*
D11*
G04 #@! TO.C,Q1*
X136780000Y-99140000D02*
X136780000Y-98210000D01*
X136780000Y-95980000D02*
X136780000Y-96910000D01*
X136780000Y-95980000D02*
X134620000Y-95980000D01*
X136780000Y-99140000D02*
X135320000Y-99140000D01*
G04 #@! TO.C,C9*
X154151422Y-92330000D02*
X154668578Y-92330000D01*
X154151422Y-90910000D02*
X154668578Y-90910000D01*
D10*
G04 #@! TO.C,SW1*
X141400000Y-95240000D02*
X141400000Y-91740000D01*
X148600000Y-95240000D02*
X141400000Y-95240000D01*
X148600000Y-91740000D02*
X148600000Y-95240000D01*
X141400000Y-91740000D02*
X148600000Y-91740000D01*
G04 #@! TO.C,U4*
X130022642Y-111381413D02*
X130822642Y-110581413D01*
X130822642Y-110581413D02*
X132822642Y-110581413D01*
X132822642Y-110581413D02*
X132822642Y-116001413D01*
X132822642Y-116001413D02*
X130022642Y-116001413D01*
X130022642Y-116001413D02*
X130022642Y-111381413D01*
D11*
G04 #@! TO.C,C6*
X136102642Y-111552835D02*
X136102642Y-112069991D01*
X137522642Y-111552835D02*
X137522642Y-112069991D01*
D10*
G04 #@! TO.C,U3*
X137975000Y-95265000D02*
X137975000Y-95215000D01*
X133825000Y-95265000D02*
X133825000Y-95120000D01*
X133825000Y-90115000D02*
X133825000Y-90260000D01*
X137975000Y-90115000D02*
X137975000Y-90260000D01*
X137975000Y-95265000D02*
X133825000Y-95265000D01*
X137975000Y-90115000D02*
X133825000Y-90115000D01*
X137975000Y-95215000D02*
X139375000Y-95215000D01*
G04 #@! TO.C,P4*
X201168000Y-115316000D02*
X201168000Y-69596000D01*
X196088000Y-69596000D02*
X196088000Y-112776000D01*
X201168000Y-69596000D02*
X196088000Y-69596000D01*
X201168000Y-115316000D02*
X198628000Y-115316000D01*
X195808000Y-114046000D02*
X195808000Y-115596000D01*
X198628000Y-115316000D02*
X198628000Y-112776000D01*
X198628000Y-112776000D02*
X196088000Y-112776000D01*
X195808000Y-115596000D02*
X197358000Y-115596000D01*
G04 #@! TO.C,P1*
X132588000Y-120396000D02*
X150368000Y-120396000D01*
X150368000Y-120396000D02*
X150368000Y-117856000D01*
X150368000Y-117856000D02*
X132588000Y-117856000D01*
X129768000Y-120676000D02*
X131318000Y-120676000D01*
X132588000Y-120396000D02*
X132588000Y-117856000D01*
X131318000Y-117576000D02*
X129768000Y-117576000D01*
X129768000Y-117576000D02*
X129768000Y-120676000D01*
G04 #@! TO.C,P2*
X155448000Y-120396000D02*
X173228000Y-120396000D01*
X173228000Y-120396000D02*
X173228000Y-117856000D01*
X173228000Y-117856000D02*
X155448000Y-117856000D01*
X152628000Y-120676000D02*
X154178000Y-120676000D01*
X155448000Y-120396000D02*
X155448000Y-117856000D01*
X154178000Y-117576000D02*
X152628000Y-117576000D01*
X152628000Y-117576000D02*
X152628000Y-120676000D01*
G04 #@! TO.C,P3*
X178308000Y-120396000D02*
X196088000Y-120396000D01*
X196088000Y-120396000D02*
X196088000Y-117856000D01*
X196088000Y-117856000D02*
X178308000Y-117856000D01*
X175488000Y-120676000D02*
X177038000Y-120676000D01*
X178308000Y-120396000D02*
X178308000Y-117856000D01*
X177038000Y-117576000D02*
X175488000Y-117576000D01*
X175488000Y-117576000D02*
X175488000Y-120676000D01*
G04 #@! TO.C,P5*
X123444000Y-72136000D02*
X146304000Y-72136000D01*
X146304000Y-72136000D02*
X146304000Y-69596000D01*
X146304000Y-69596000D02*
X123444000Y-69596000D01*
X120624000Y-72416000D02*
X122174000Y-72416000D01*
X123444000Y-72136000D02*
X123444000Y-69596000D01*
X122174000Y-69316000D02*
X120624000Y-69316000D01*
X120624000Y-69316000D02*
X120624000Y-72416000D01*
G04 #@! TO.C,P6*
X150368000Y-72136000D02*
X168148000Y-72136000D01*
X168148000Y-72136000D02*
X168148000Y-69596000D01*
X168148000Y-69596000D02*
X150368000Y-69596000D01*
X147548000Y-72416000D02*
X149098000Y-72416000D01*
X150368000Y-72136000D02*
X150368000Y-69596000D01*
X149098000Y-69316000D02*
X147548000Y-69316000D01*
X147548000Y-69316000D02*
X147548000Y-72416000D01*
G04 #@! TO.C,P8*
X119634000Y-119126000D02*
G75*
G03X119634000Y-119126000I-2286000J0D01*
G01*
G04 #@! TO.C,P10*
X202184000Y-119126000D02*
G75*
G03X202184000Y-119126000I-2286000J0D01*
G01*
G04 #@! TO.C,P11*
X120904000Y-70866000D02*
G75*
G03X120904000Y-70866000I-2286000J0D01*
G01*
D11*
G04 #@! TO.C,C1*
X124602064Y-103590000D02*
X123397936Y-103590000D01*
X124602064Y-105410000D02*
X123397936Y-105410000D01*
G04 #@! TO.C,C2*
X123491422Y-103210000D02*
X124008578Y-103210000D01*
X123491422Y-101790000D02*
X124008578Y-101790000D01*
G04 #@! TO.C,C3*
X133818922Y-88220000D02*
X134336078Y-88220000D01*
X133818922Y-89640000D02*
X134336078Y-89640000D01*
G04 #@! TO.C,C4*
X124854064Y-112641413D02*
X125371220Y-112641413D01*
X124854064Y-114061413D02*
X125371220Y-114061413D01*
G04 #@! TO.C,C5*
X133402642Y-109239991D02*
X133402642Y-108722835D01*
X134822642Y-109239991D02*
X134822642Y-108722835D01*
G04 #@! TO.C,C10*
X161798578Y-90880000D02*
X161281422Y-90880000D01*
X161798578Y-92300000D02*
X161281422Y-92300000D01*
G04 #@! TO.C,C11*
X154120000Y-87819793D02*
X154120000Y-87302637D01*
X152700000Y-87819793D02*
X152700000Y-87302637D01*
G04 #@! TO.C,D4*
X189615000Y-81480000D02*
X186930000Y-81480000D01*
X189615000Y-83400000D02*
X189615000Y-81480000D01*
X186930000Y-83400000D02*
X189615000Y-83400000D01*
G04 #@! TO.C,D7*
X180930000Y-81480000D02*
X178245000Y-81480000D01*
X178245000Y-81480000D02*
X178245000Y-83400000D01*
X178245000Y-83400000D02*
X180930000Y-83400000D01*
G04 #@! TO.C,D8*
X182245000Y-83400000D02*
X184930000Y-83400000D01*
X182245000Y-81480000D02*
X182245000Y-83400000D01*
X184930000Y-81480000D02*
X182245000Y-81480000D01*
G04 #@! TO.C,D9*
X170245000Y-83400000D02*
X172930000Y-83400000D01*
X170245000Y-81480000D02*
X170245000Y-83400000D01*
X172930000Y-81480000D02*
X170245000Y-81480000D01*
G04 #@! TO.C,J4*
X128330000Y-90090000D02*
X123130000Y-90090000D01*
X128330000Y-95230000D02*
X128330000Y-90090000D01*
X123130000Y-97830000D02*
X123130000Y-90090000D01*
X128330000Y-95230000D02*
X125730000Y-95230000D01*
X125730000Y-95230000D02*
X125730000Y-97830000D01*
X125730000Y-97830000D02*
X123130000Y-97830000D01*
X128330000Y-96500000D02*
X128330000Y-97830000D01*
X128330000Y-97830000D02*
X127000000Y-97830000D01*
G04 #@! TO.C,JP1*
X142950000Y-99000000D02*
X147050000Y-99000000D01*
X147050000Y-99000000D02*
X147050000Y-101000000D01*
X147050000Y-101000000D02*
X142950000Y-101000000D01*
X142950000Y-101000000D02*
X142950000Y-99000000D01*
X143700000Y-101200000D02*
X143400000Y-101500000D01*
X143400000Y-101500000D02*
X144000000Y-101500000D01*
X143700000Y-101200000D02*
X144000000Y-101500000D01*
G04 #@! TO.C,L1*
X127772642Y-108436413D02*
X126247642Y-108436413D01*
X126247642Y-101786413D02*
X126247642Y-108436413D01*
X127772642Y-101786413D02*
X126247642Y-101786413D01*
X132897642Y-101786413D02*
X131372642Y-101786413D01*
X132897642Y-101786413D02*
X132897642Y-108436413D01*
X132897642Y-108436413D02*
X131372642Y-108436413D01*
G04 #@! TO.C,Q5*
X186350000Y-76700000D02*
X187280000Y-76700000D01*
X189510000Y-76700000D02*
X188580000Y-76700000D01*
X189510000Y-76700000D02*
X189510000Y-74540000D01*
X186350000Y-76700000D02*
X186350000Y-75240000D01*
G04 #@! TO.C,Q8*
X178350000Y-76700000D02*
X178350000Y-75240000D01*
X181510000Y-76700000D02*
X181510000Y-74540000D01*
X181510000Y-76700000D02*
X180580000Y-76700000D01*
X178350000Y-76700000D02*
X179280000Y-76700000D01*
G04 #@! TO.C,R2*
X146758578Y-109980000D02*
X146241422Y-109980000D01*
X146758578Y-111400000D02*
X146241422Y-111400000D01*
G04 #@! TO.C,R3*
X125958578Y-89460000D02*
X125441422Y-89460000D01*
X125958578Y-88040000D02*
X125441422Y-88040000D01*
G04 #@! TO.C,R4*
X125441422Y-98290000D02*
X125958578Y-98290000D01*
X125441422Y-99710000D02*
X125958578Y-99710000D01*
G04 #@! TO.C,R5*
X125391220Y-116251413D02*
X124874064Y-116251413D01*
X125391220Y-117671413D02*
X124874064Y-117671413D01*
G04 #@! TO.C,R6*
X120790000Y-92491422D02*
X120790000Y-93008578D01*
X122210000Y-92491422D02*
X122210000Y-93008578D01*
G04 #@! TO.C,R9*
X122061220Y-112661413D02*
X121544064Y-112661413D01*
X122061220Y-114081413D02*
X121544064Y-114081413D01*
G04 #@! TO.C,R10*
X125371220Y-112261413D02*
X124854064Y-112261413D01*
X125371220Y-110841413D02*
X124854064Y-110841413D01*
G04 #@! TO.C,R13*
X124864064Y-114441413D02*
X125381220Y-114441413D01*
X124864064Y-115861413D02*
X125381220Y-115861413D01*
G04 #@! TO.C,R16*
X137572642Y-114832835D02*
X137572642Y-115349991D01*
X136152642Y-114832835D02*
X136152642Y-115349991D01*
G04 #@! TO.C,R17*
X139550000Y-97888578D02*
X139550000Y-97371422D01*
X138130000Y-97888578D02*
X138130000Y-97371422D01*
G04 #@! TO.C,R18*
X125371220Y-109041413D02*
X124854064Y-109041413D01*
X125371220Y-110461413D02*
X124854064Y-110461413D01*
G04 #@! TO.C,R19*
X132410000Y-97808578D02*
X132410000Y-97291422D01*
X133830000Y-97808578D02*
X133830000Y-97291422D01*
G04 #@! TO.C,R21*
X188188578Y-77980000D02*
X187671422Y-77980000D01*
X188188578Y-79400000D02*
X187671422Y-79400000D01*
G04 #@! TO.C,R24*
X180188578Y-77980000D02*
X179671422Y-77980000D01*
X180188578Y-79400000D02*
X179671422Y-79400000D01*
G04 #@! TO.C,R25*
X184188578Y-77980000D02*
X183671422Y-77980000D01*
X184188578Y-79400000D02*
X183671422Y-79400000D01*
G04 #@! TO.C,R26*
X172188578Y-79400000D02*
X171671422Y-79400000D01*
X172188578Y-77980000D02*
X171671422Y-77980000D01*
G04 #@! TO.C,R27*
X176188578Y-79400000D02*
X175671422Y-79400000D01*
X176188578Y-77980000D02*
X175671422Y-77980000D01*
G04 #@! TO.C,D1*
X137902642Y-105551413D02*
X135902642Y-105551413D01*
X135902642Y-105551413D02*
X135902642Y-109401413D01*
X137902642Y-105551413D02*
X137902642Y-109401413D01*
G04 #@! TO.C,C7*
X138772642Y-112303477D02*
X138772642Y-111099349D01*
X140592642Y-112303477D02*
X140592642Y-111099349D01*
G04 #@! TO.C,D10*
X174245000Y-83400000D02*
X176930000Y-83400000D01*
X174245000Y-81480000D02*
X174245000Y-83400000D01*
X176930000Y-81480000D02*
X174245000Y-81480000D01*
G04 #@! TO.C,D11*
X105495000Y-119580000D02*
X108180000Y-119580000D01*
X105495000Y-117660000D02*
X105495000Y-119580000D01*
X108180000Y-117660000D02*
X105495000Y-117660000D01*
D10*
G04 #@! TO.C,J3*
X118500000Y-107820000D02*
X106500000Y-107820000D01*
X106500000Y-107820000D02*
X106500000Y-111320000D01*
X106500000Y-111320000D02*
X118500000Y-111320000D01*
X118500000Y-111320000D02*
X118500000Y-107820000D01*
X118500000Y-107820000D02*
X118500000Y-104320000D01*
X118500000Y-104320000D02*
X106500000Y-104320000D01*
X106500000Y-104320000D02*
X106500000Y-107820000D01*
X118500000Y-111320000D02*
X118500000Y-114820000D01*
X118500000Y-114820000D02*
X106500000Y-114820000D01*
X106500000Y-114820000D02*
X106500000Y-111320000D01*
X118500000Y-104320000D02*
X118500000Y-102820000D01*
X118500000Y-102820000D02*
X106500000Y-102820000D01*
X106500000Y-102820000D02*
X106500000Y-104320000D01*
X116750000Y-104320000D02*
X116750000Y-106820000D01*
X116750000Y-106820000D02*
X113750000Y-106820000D01*
X113750000Y-106820000D02*
X113750000Y-104320000D01*
X116750000Y-107820000D02*
X116750000Y-110320000D01*
X116750000Y-110320000D02*
X113750000Y-110320000D01*
X113750000Y-110320000D02*
X113750000Y-107820000D01*
X116750000Y-111320000D02*
X116750000Y-113820000D01*
X116750000Y-113820000D02*
X113750000Y-113820000D01*
X113750000Y-113820000D02*
X113750000Y-111320000D01*
D11*
G04 #@! TO.C,Q9*
X182350000Y-76700000D02*
X183280000Y-76700000D01*
X185510000Y-76700000D02*
X184580000Y-76700000D01*
X185510000Y-76700000D02*
X185510000Y-74540000D01*
X182350000Y-76700000D02*
X182350000Y-75240000D01*
G04 #@! TO.C,Q11*
X174350000Y-76700000D02*
X174350000Y-75240000D01*
X177510000Y-76700000D02*
X177510000Y-74540000D01*
X177510000Y-76700000D02*
X176580000Y-76700000D01*
X174350000Y-76700000D02*
X175280000Y-76700000D01*
G04 #@! TO.C,R28*
X110321422Y-117900000D02*
X110838578Y-117900000D01*
X110321422Y-119320000D02*
X110838578Y-119320000D01*
G04 #@! TO.C,U2*
X157675000Y-109390000D02*
X155440000Y-109390000D01*
X157675000Y-114590000D02*
X157675000Y-109390000D01*
X151205000Y-114590000D02*
X157675000Y-114590000D01*
X151205000Y-109390000D02*
X151205000Y-114590000D01*
X153440000Y-109390000D02*
X151205000Y-109390000D01*
X155440000Y-109390000D02*
G75*
G02X153440000Y-109390000I-1000000J0D01*
G01*
G04 #@! TO.C,C12*
X133691422Y-74290000D02*
X134208578Y-74290000D01*
X133691422Y-75710000D02*
X134208578Y-75710000D01*
D10*
G04 #@! TO.C,J1*
X113750000Y-96320000D02*
X113750000Y-93820000D01*
X116750000Y-96320000D02*
X113750000Y-96320000D01*
X116750000Y-93820000D02*
X116750000Y-96320000D01*
X113750000Y-92820000D02*
X113750000Y-90320000D01*
X116750000Y-92820000D02*
X113750000Y-92820000D01*
X116750000Y-90320000D02*
X116750000Y-92820000D01*
X113750000Y-89320000D02*
X113750000Y-86820000D01*
X116750000Y-89320000D02*
X113750000Y-89320000D01*
X116750000Y-86820000D02*
X116750000Y-89320000D01*
X106500000Y-85320000D02*
X106500000Y-86820000D01*
X118500000Y-85320000D02*
X106500000Y-85320000D01*
X118500000Y-86820000D02*
X118500000Y-85320000D01*
X106500000Y-97320000D02*
X106500000Y-93820000D01*
X118500000Y-97320000D02*
X106500000Y-97320000D01*
X118500000Y-93820000D02*
X118500000Y-97320000D01*
X106500000Y-86820000D02*
X106500000Y-90320000D01*
X118500000Y-86820000D02*
X106500000Y-86820000D01*
X118500000Y-90320000D02*
X118500000Y-86820000D01*
X118500000Y-93820000D02*
X118500000Y-90320000D01*
X106500000Y-93820000D02*
X118500000Y-93820000D01*
X106500000Y-90320000D02*
X106500000Y-93820000D01*
X118500000Y-90320000D02*
X106500000Y-90320000D01*
G04 #@! TO.C,J2*
X118500000Y-79820000D02*
X106500000Y-79820000D01*
X106500000Y-79820000D02*
X106500000Y-83320000D01*
X106500000Y-83320000D02*
X118500000Y-83320000D01*
X118500000Y-83320000D02*
X118500000Y-79820000D01*
X118500000Y-79820000D02*
X118500000Y-76320000D01*
X118500000Y-76320000D02*
X106500000Y-76320000D01*
X106500000Y-76320000D02*
X106500000Y-79820000D01*
X118500000Y-83320000D02*
X118500000Y-86820000D01*
X118500000Y-86820000D02*
X106500000Y-86820000D01*
X106500000Y-86820000D02*
X106500000Y-83320000D01*
X118500000Y-76320000D02*
X118500000Y-74820000D01*
X118500000Y-74820000D02*
X106500000Y-74820000D01*
X106500000Y-74820000D02*
X106500000Y-76320000D01*
X116750000Y-76320000D02*
X116750000Y-78820000D01*
X116750000Y-78820000D02*
X113750000Y-78820000D01*
X113750000Y-78820000D02*
X113750000Y-76320000D01*
X116750000Y-79820000D02*
X116750000Y-82320000D01*
X116750000Y-82320000D02*
X113750000Y-82320000D01*
X113750000Y-82320000D02*
X113750000Y-79820000D01*
X116750000Y-83320000D02*
X116750000Y-85820000D01*
X116750000Y-85820000D02*
X113750000Y-85820000D01*
X113750000Y-85820000D02*
X113750000Y-83320000D01*
D11*
G04 #@! TO.C,J5*
X128330000Y-76140000D02*
X123130000Y-76140000D01*
X128330000Y-81280000D02*
X128330000Y-76140000D01*
X123130000Y-83880000D02*
X123130000Y-76140000D01*
X128330000Y-81280000D02*
X125730000Y-81280000D01*
X125730000Y-81280000D02*
X125730000Y-83880000D01*
X125730000Y-83880000D02*
X123130000Y-83880000D01*
X128330000Y-82550000D02*
X128330000Y-83880000D01*
X128330000Y-83880000D02*
X127000000Y-83880000D01*
D10*
G04 #@! TO.C,J6*
X118500000Y-100820000D02*
X106500000Y-100820000D01*
X106500000Y-100820000D02*
X106500000Y-104320000D01*
X106500000Y-104320000D02*
X118500000Y-104320000D01*
X118500000Y-104320000D02*
X118500000Y-100820000D01*
X118500000Y-100820000D02*
X118500000Y-97320000D01*
X118500000Y-97320000D02*
X106500000Y-97320000D01*
X106500000Y-97320000D02*
X106500000Y-100820000D01*
X118500000Y-97320000D02*
X118500000Y-95820000D01*
X118500000Y-95820000D02*
X106500000Y-95820000D01*
X106500000Y-95820000D02*
X106500000Y-97320000D01*
X116750000Y-97320000D02*
X116750000Y-99820000D01*
X116750000Y-99820000D02*
X113750000Y-99820000D01*
X113750000Y-99820000D02*
X113750000Y-97320000D01*
X116750000Y-100820000D02*
X116750000Y-103320000D01*
X116750000Y-103320000D02*
X113750000Y-103320000D01*
X113750000Y-103320000D02*
X113750000Y-100820000D01*
D11*
G04 #@! TO.C,JP2*
X143700000Y-87200000D02*
X144000000Y-87500000D01*
X143400000Y-87500000D02*
X144000000Y-87500000D01*
X143700000Y-87200000D02*
X143400000Y-87500000D01*
X142950000Y-87000000D02*
X142950000Y-85000000D01*
X147050000Y-87000000D02*
X142950000Y-87000000D01*
X147050000Y-85000000D02*
X147050000Y-87000000D01*
X142950000Y-85000000D02*
X147050000Y-85000000D01*
G04 #@! TO.C,Q2*
X136710000Y-85830000D02*
X136710000Y-84900000D01*
X136710000Y-82670000D02*
X136710000Y-83600000D01*
X136710000Y-82670000D02*
X134550000Y-82670000D01*
X136710000Y-85830000D02*
X135250000Y-85830000D01*
G04 #@! TO.C,R1*
X125958578Y-74090000D02*
X125441422Y-74090000D01*
X125958578Y-75510000D02*
X125441422Y-75510000D01*
G04 #@! TO.C,R7*
X125441422Y-84590000D02*
X125958578Y-84590000D01*
X125441422Y-86010000D02*
X125958578Y-86010000D01*
G04 #@! TO.C,R11*
X122210000Y-78541422D02*
X122210000Y-79058578D01*
X120790000Y-78541422D02*
X120790000Y-79058578D01*
G04 #@! TO.C,R14*
X137990000Y-84508578D02*
X137990000Y-83991422D01*
X139410000Y-84508578D02*
X139410000Y-83991422D01*
G04 #@! TO.C,R15*
X163750000Y-97741422D02*
X163750000Y-98258578D01*
X165170000Y-97741422D02*
X165170000Y-98258578D01*
G04 #@! TO.C,R20*
X133910000Y-84508578D02*
X133910000Y-83991422D01*
X132490000Y-84508578D02*
X132490000Y-83991422D01*
D10*
G04 #@! TO.C,SW2*
X141400000Y-77500000D02*
X148600000Y-77500000D01*
X148600000Y-77500000D02*
X148600000Y-81000000D01*
X148600000Y-81000000D02*
X141400000Y-81000000D01*
X141400000Y-81000000D02*
X141400000Y-77500000D01*
G04 #@! TO.C,U1*
X138025000Y-81825000D02*
X138025000Y-81775000D01*
X133875000Y-81825000D02*
X133875000Y-81680000D01*
X133875000Y-76675000D02*
X133875000Y-76820000D01*
X138025000Y-76675000D02*
X138025000Y-76820000D01*
X138025000Y-81825000D02*
X133875000Y-81825000D01*
X138025000Y-76675000D02*
X133875000Y-76675000D01*
X138025000Y-81775000D02*
X139425000Y-81775000D01*
D11*
G04 #@! TO.C,D2*
X193615000Y-81480000D02*
X190930000Y-81480000D01*
X193615000Y-83400000D02*
X193615000Y-81480000D01*
X190930000Y-83400000D02*
X193615000Y-83400000D01*
G04 #@! TO.C,Q3*
X190350000Y-76700000D02*
X190350000Y-75240000D01*
X193510000Y-76700000D02*
X193510000Y-74540000D01*
X193510000Y-76700000D02*
X192580000Y-76700000D01*
X190350000Y-76700000D02*
X191280000Y-76700000D01*
G04 #@! TO.C,R22*
X192188578Y-78230000D02*
X191671422Y-78230000D01*
X192188578Y-79650000D02*
X191671422Y-79650000D01*
G04 #@! TO.C,P7*
D10*
X180109904Y-74112380D02*
X180109904Y-73112380D01*
X180490857Y-73112380D01*
X180586095Y-73160000D01*
X180633714Y-73207619D01*
X180681333Y-73302857D01*
X180681333Y-73445714D01*
X180633714Y-73540952D01*
X180586095Y-73588571D01*
X180490857Y-73636190D01*
X180109904Y-73636190D01*
X181014666Y-73112380D02*
X181681333Y-73112380D01*
X181252761Y-74112380D01*
G04 #@! TO.C,Q10*
X150428571Y-76547619D02*
X150333333Y-76500000D01*
X150238095Y-76404761D01*
X150095238Y-76261904D01*
X150000000Y-76214285D01*
X149904761Y-76214285D01*
X149952380Y-76452380D02*
X149857142Y-76404761D01*
X149761904Y-76309523D01*
X149714285Y-76119047D01*
X149714285Y-75785714D01*
X149761904Y-75595238D01*
X149857142Y-75500000D01*
X149952380Y-75452380D01*
X150142857Y-75452380D01*
X150238095Y-75500000D01*
X150333333Y-75595238D01*
X150380952Y-75785714D01*
X150380952Y-76119047D01*
X150333333Y-76309523D01*
X150238095Y-76404761D01*
X150142857Y-76452380D01*
X149952380Y-76452380D01*
X151333333Y-76452380D02*
X150761904Y-76452380D01*
X151047619Y-76452380D02*
X151047619Y-75452380D01*
X150952380Y-75595238D01*
X150857142Y-75690476D01*
X150761904Y-75738095D01*
X151952380Y-75452380D02*
X152047619Y-75452380D01*
X152142857Y-75500000D01*
X152190476Y-75547619D01*
X152238095Y-75642857D01*
X152285714Y-75833333D01*
X152285714Y-76071428D01*
X152238095Y-76261904D01*
X152190476Y-76357142D01*
X152142857Y-76404761D01*
X152047619Y-76452380D01*
X151952380Y-76452380D01*
X151857142Y-76404761D01*
X151809523Y-76357142D01*
X151761904Y-76261904D01*
X151714285Y-76071428D01*
X151714285Y-75833333D01*
X151761904Y-75642857D01*
X151809523Y-75547619D01*
X151857142Y-75500000D01*
X151952380Y-75452380D01*
G04 #@! TO.C,C8*
X157793333Y-90487142D02*
X157745714Y-90534761D01*
X157602857Y-90582380D01*
X157507619Y-90582380D01*
X157364761Y-90534761D01*
X157269523Y-90439523D01*
X157221904Y-90344285D01*
X157174285Y-90153809D01*
X157174285Y-90010952D01*
X157221904Y-89820476D01*
X157269523Y-89725238D01*
X157364761Y-89630000D01*
X157507619Y-89582380D01*
X157602857Y-89582380D01*
X157745714Y-89630000D01*
X157793333Y-89677619D01*
X158364761Y-90010952D02*
X158269523Y-89963333D01*
X158221904Y-89915714D01*
X158174285Y-89820476D01*
X158174285Y-89772857D01*
X158221904Y-89677619D01*
X158269523Y-89630000D01*
X158364761Y-89582380D01*
X158555238Y-89582380D01*
X158650476Y-89630000D01*
X158698095Y-89677619D01*
X158745714Y-89772857D01*
X158745714Y-89820476D01*
X158698095Y-89915714D01*
X158650476Y-89963333D01*
X158555238Y-90010952D01*
X158364761Y-90010952D01*
X158269523Y-90058571D01*
X158221904Y-90106190D01*
X158174285Y-90201428D01*
X158174285Y-90391904D01*
X158221904Y-90487142D01*
X158269523Y-90534761D01*
X158364761Y-90582380D01*
X158555238Y-90582380D01*
X158650476Y-90534761D01*
X158698095Y-90487142D01*
X158745714Y-90391904D01*
X158745714Y-90201428D01*
X158698095Y-90106190D01*
X158650476Y-90058571D01*
X158555238Y-90010952D01*
G04 #@! TO.C,U5*
X156328095Y-93702380D02*
X156328095Y-94511904D01*
X156375714Y-94607142D01*
X156423333Y-94654761D01*
X156518571Y-94702380D01*
X156709047Y-94702380D01*
X156804285Y-94654761D01*
X156851904Y-94607142D01*
X156899523Y-94511904D01*
X156899523Y-93702380D01*
X157851904Y-93702380D02*
X157375714Y-93702380D01*
X157328095Y-94178571D01*
X157375714Y-94130952D01*
X157470952Y-94083333D01*
X157709047Y-94083333D01*
X157804285Y-94130952D01*
X157851904Y-94178571D01*
X157899523Y-94273809D01*
X157899523Y-94511904D01*
X157851904Y-94607142D01*
X157804285Y-94654761D01*
X157709047Y-94702380D01*
X157470952Y-94702380D01*
X157375714Y-94654761D01*
X157328095Y-94607142D01*
G04 #@! TO.C,R12*
X150287142Y-95052380D02*
X149953809Y-94576190D01*
X149715714Y-95052380D02*
X149715714Y-94052380D01*
X150096666Y-94052380D01*
X150191904Y-94100000D01*
X150239523Y-94147619D01*
X150287142Y-94242857D01*
X150287142Y-94385714D01*
X150239523Y-94480952D01*
X150191904Y-94528571D01*
X150096666Y-94576190D01*
X149715714Y-94576190D01*
X151239523Y-95052380D02*
X150668095Y-95052380D01*
X150953809Y-95052380D02*
X150953809Y-94052380D01*
X150858571Y-94195238D01*
X150763333Y-94290476D01*
X150668095Y-94338095D01*
X151620476Y-94147619D02*
X151668095Y-94100000D01*
X151763333Y-94052380D01*
X152001428Y-94052380D01*
X152096666Y-94100000D01*
X152144285Y-94147619D01*
X152191904Y-94242857D01*
X152191904Y-94338095D01*
X152144285Y-94480952D01*
X151572857Y-95052380D01*
X152191904Y-95052380D01*
G04 #@! TO.C,R8*
X161563333Y-114692380D02*
X161230000Y-114216190D01*
X160991904Y-114692380D02*
X160991904Y-113692380D01*
X161372857Y-113692380D01*
X161468095Y-113740000D01*
X161515714Y-113787619D01*
X161563333Y-113882857D01*
X161563333Y-114025714D01*
X161515714Y-114120952D01*
X161468095Y-114168571D01*
X161372857Y-114216190D01*
X160991904Y-114216190D01*
X162134761Y-114120952D02*
X162039523Y-114073333D01*
X161991904Y-114025714D01*
X161944285Y-113930476D01*
X161944285Y-113882857D01*
X161991904Y-113787619D01*
X162039523Y-113740000D01*
X162134761Y-113692380D01*
X162325238Y-113692380D01*
X162420476Y-113740000D01*
X162468095Y-113787619D01*
X162515714Y-113882857D01*
X162515714Y-113930476D01*
X162468095Y-114025714D01*
X162420476Y-114073333D01*
X162325238Y-114120952D01*
X162134761Y-114120952D01*
X162039523Y-114168571D01*
X161991904Y-114216190D01*
X161944285Y-114311428D01*
X161944285Y-114501904D01*
X161991904Y-114597142D01*
X162039523Y-114644761D01*
X162134761Y-114692380D01*
X162325238Y-114692380D01*
X162420476Y-114644761D01*
X162468095Y-114597142D01*
X162515714Y-114501904D01*
X162515714Y-114311428D01*
X162468095Y-114216190D01*
X162420476Y-114168571D01*
X162325238Y-114120952D01*
G04 #@! TO.C,U7*
X161092186Y-81822380D02*
X161092186Y-82631904D01*
X161139805Y-82727142D01*
X161187424Y-82774761D01*
X161282662Y-82822380D01*
X161473138Y-82822380D01*
X161568376Y-82774761D01*
X161615995Y-82727142D01*
X161663614Y-82631904D01*
X161663614Y-81822380D01*
X162044567Y-81822380D02*
X162711233Y-81822380D01*
X162282662Y-82822380D01*
G04 #@! TO.C,Q1*
X135994761Y-100827619D02*
X135899523Y-100780000D01*
X135804285Y-100684761D01*
X135661428Y-100541904D01*
X135566190Y-100494285D01*
X135470952Y-100494285D01*
X135518571Y-100732380D02*
X135423333Y-100684761D01*
X135328095Y-100589523D01*
X135280476Y-100399047D01*
X135280476Y-100065714D01*
X135328095Y-99875238D01*
X135423333Y-99780000D01*
X135518571Y-99732380D01*
X135709047Y-99732380D01*
X135804285Y-99780000D01*
X135899523Y-99875238D01*
X135947142Y-100065714D01*
X135947142Y-100399047D01*
X135899523Y-100589523D01*
X135804285Y-100684761D01*
X135709047Y-100732380D01*
X135518571Y-100732380D01*
X136899523Y-100732380D02*
X136328095Y-100732380D01*
X136613809Y-100732380D02*
X136613809Y-99732380D01*
X136518571Y-99875238D01*
X136423333Y-99970476D01*
X136328095Y-100018095D01*
G04 #@! TO.C,C9*
X154093333Y-90407142D02*
X154045714Y-90454761D01*
X153902857Y-90502380D01*
X153807619Y-90502380D01*
X153664761Y-90454761D01*
X153569523Y-90359523D01*
X153521904Y-90264285D01*
X153474285Y-90073809D01*
X153474285Y-89930952D01*
X153521904Y-89740476D01*
X153569523Y-89645238D01*
X153664761Y-89550000D01*
X153807619Y-89502380D01*
X153902857Y-89502380D01*
X154045714Y-89550000D01*
X154093333Y-89597619D01*
X154569523Y-90502380D02*
X154760000Y-90502380D01*
X154855238Y-90454761D01*
X154902857Y-90407142D01*
X154998095Y-90264285D01*
X155045714Y-90073809D01*
X155045714Y-89692857D01*
X154998095Y-89597619D01*
X154950476Y-89550000D01*
X154855238Y-89502380D01*
X154664761Y-89502380D01*
X154569523Y-89550000D01*
X154521904Y-89597619D01*
X154474285Y-89692857D01*
X154474285Y-89930952D01*
X154521904Y-90026190D01*
X154569523Y-90073809D01*
X154664761Y-90121428D01*
X154855238Y-90121428D01*
X154950476Y-90073809D01*
X154998095Y-90026190D01*
X155045714Y-89930952D01*
G04 #@! TO.C,U4*
X128098095Y-116132380D02*
X128098095Y-116941904D01*
X128145714Y-117037142D01*
X128193333Y-117084761D01*
X128288571Y-117132380D01*
X128479047Y-117132380D01*
X128574285Y-117084761D01*
X128621904Y-117037142D01*
X128669523Y-116941904D01*
X128669523Y-116132380D01*
X129574285Y-116465714D02*
X129574285Y-117132380D01*
X129336190Y-116084761D02*
X129098095Y-116799047D01*
X129717142Y-116799047D01*
G04 #@! TO.C,C6*
X138833333Y-115068555D02*
X138785714Y-115116174D01*
X138642857Y-115163793D01*
X138547619Y-115163793D01*
X138404761Y-115116174D01*
X138309523Y-115020936D01*
X138261904Y-114925698D01*
X138214285Y-114735222D01*
X138214285Y-114592365D01*
X138261904Y-114401889D01*
X138309523Y-114306651D01*
X138404761Y-114211413D01*
X138547619Y-114163793D01*
X138642857Y-114163793D01*
X138785714Y-114211413D01*
X138833333Y-114259032D01*
X139690476Y-114163793D02*
X139500000Y-114163793D01*
X139404761Y-114211413D01*
X139357142Y-114259032D01*
X139261904Y-114401889D01*
X139214285Y-114592365D01*
X139214285Y-114973317D01*
X139261904Y-115068555D01*
X139309523Y-115116174D01*
X139404761Y-115163793D01*
X139595238Y-115163793D01*
X139690476Y-115116174D01*
X139738095Y-115068555D01*
X139785714Y-114973317D01*
X139785714Y-114735222D01*
X139738095Y-114639984D01*
X139690476Y-114592365D01*
X139595238Y-114544746D01*
X139404761Y-114544746D01*
X139309523Y-114592365D01*
X139261904Y-114639984D01*
X139214285Y-114735222D01*
G04 #@! TO.C,U3*
X138528095Y-88982380D02*
X138528095Y-89791904D01*
X138575714Y-89887142D01*
X138623333Y-89934761D01*
X138718571Y-89982380D01*
X138909047Y-89982380D01*
X139004285Y-89934761D01*
X139051904Y-89887142D01*
X139099523Y-89791904D01*
X139099523Y-88982380D01*
X139480476Y-88982380D02*
X140099523Y-88982380D01*
X139766190Y-89363333D01*
X139909047Y-89363333D01*
X140004285Y-89410952D01*
X140051904Y-89458571D01*
X140099523Y-89553809D01*
X140099523Y-89791904D01*
X140051904Y-89887142D01*
X140004285Y-89934761D01*
X139909047Y-89982380D01*
X139623333Y-89982380D01*
X139528095Y-89934761D01*
X139480476Y-89887142D01*
G04 #@! TO.C,P4*
X195016380Y-93194095D02*
X194016380Y-93194095D01*
X194016380Y-92813142D01*
X194064000Y-92717904D01*
X194111619Y-92670285D01*
X194206857Y-92622666D01*
X194349714Y-92622666D01*
X194444952Y-92670285D01*
X194492571Y-92717904D01*
X194540190Y-92813142D01*
X194540190Y-93194095D01*
X194349714Y-91765523D02*
X195016380Y-91765523D01*
X193968761Y-92003619D02*
X194683047Y-92241714D01*
X194683047Y-91622666D01*
G04 #@! TO.C,P1*
X145211904Y-117202380D02*
X145211904Y-116202380D01*
X145592857Y-116202380D01*
X145688095Y-116250000D01*
X145735714Y-116297619D01*
X145783333Y-116392857D01*
X145783333Y-116535714D01*
X145735714Y-116630952D01*
X145688095Y-116678571D01*
X145592857Y-116726190D01*
X145211904Y-116726190D01*
X146735714Y-117202380D02*
X146164285Y-117202380D01*
X146450000Y-117202380D02*
X146450000Y-116202380D01*
X146354761Y-116345238D01*
X146259523Y-116440476D01*
X146164285Y-116488095D01*
G04 #@! TO.C,P2*
X162329904Y-117038380D02*
X162329904Y-116038380D01*
X162710857Y-116038380D01*
X162806095Y-116086000D01*
X162853714Y-116133619D01*
X162901333Y-116228857D01*
X162901333Y-116371714D01*
X162853714Y-116466952D01*
X162806095Y-116514571D01*
X162710857Y-116562190D01*
X162329904Y-116562190D01*
X163282285Y-116133619D02*
X163329904Y-116086000D01*
X163425142Y-116038380D01*
X163663238Y-116038380D01*
X163758476Y-116086000D01*
X163806095Y-116133619D01*
X163853714Y-116228857D01*
X163853714Y-116324095D01*
X163806095Y-116466952D01*
X163234666Y-117038380D01*
X163853714Y-117038380D01*
G04 #@! TO.C,P3*
X185189904Y-116784380D02*
X185189904Y-115784380D01*
X185570857Y-115784380D01*
X185666095Y-115832000D01*
X185713714Y-115879619D01*
X185761333Y-115974857D01*
X185761333Y-116117714D01*
X185713714Y-116212952D01*
X185666095Y-116260571D01*
X185570857Y-116308190D01*
X185189904Y-116308190D01*
X186094666Y-115784380D02*
X186713714Y-115784380D01*
X186380380Y-116165333D01*
X186523238Y-116165333D01*
X186618476Y-116212952D01*
X186666095Y-116260571D01*
X186713714Y-116355809D01*
X186713714Y-116593904D01*
X186666095Y-116689142D01*
X186618476Y-116736761D01*
X186523238Y-116784380D01*
X186237523Y-116784380D01*
X186142285Y-116736761D01*
X186094666Y-116689142D01*
G04 #@! TO.C,P5*
X144841904Y-73542380D02*
X144841904Y-72542380D01*
X145222857Y-72542380D01*
X145318095Y-72590000D01*
X145365714Y-72637619D01*
X145413333Y-72732857D01*
X145413333Y-72875714D01*
X145365714Y-72970952D01*
X145318095Y-73018571D01*
X145222857Y-73066190D01*
X144841904Y-73066190D01*
X146318095Y-72542380D02*
X145841904Y-72542380D01*
X145794285Y-73018571D01*
X145841904Y-72970952D01*
X145937142Y-72923333D01*
X146175238Y-72923333D01*
X146270476Y-72970952D01*
X146318095Y-73018571D01*
X146365714Y-73113809D01*
X146365714Y-73351904D01*
X146318095Y-73447142D01*
X146270476Y-73494761D01*
X146175238Y-73542380D01*
X145937142Y-73542380D01*
X145841904Y-73494761D01*
X145794285Y-73447142D01*
G04 #@! TO.C,P6*
X157249904Y-74112380D02*
X157249904Y-73112380D01*
X157630857Y-73112380D01*
X157726095Y-73160000D01*
X157773714Y-73207619D01*
X157821333Y-73302857D01*
X157821333Y-73445714D01*
X157773714Y-73540952D01*
X157726095Y-73588571D01*
X157630857Y-73636190D01*
X157249904Y-73636190D01*
X158678476Y-73112380D02*
X158488000Y-73112380D01*
X158392761Y-73160000D01*
X158345142Y-73207619D01*
X158249904Y-73350476D01*
X158202285Y-73540952D01*
X158202285Y-73921904D01*
X158249904Y-74017142D01*
X158297523Y-74064761D01*
X158392761Y-74112380D01*
X158583238Y-74112380D01*
X158678476Y-74064761D01*
X158726095Y-74017142D01*
X158773714Y-73921904D01*
X158773714Y-73683809D01*
X158726095Y-73588571D01*
X158678476Y-73540952D01*
X158583238Y-73493333D01*
X158392761Y-73493333D01*
X158297523Y-73540952D01*
X158249904Y-73588571D01*
X158202285Y-73683809D01*
G04 #@! TO.C,C1*
X120583333Y-104607142D02*
X120535714Y-104654761D01*
X120392857Y-104702380D01*
X120297619Y-104702380D01*
X120154761Y-104654761D01*
X120059523Y-104559523D01*
X120011904Y-104464285D01*
X119964285Y-104273809D01*
X119964285Y-104130952D01*
X120011904Y-103940476D01*
X120059523Y-103845238D01*
X120154761Y-103750000D01*
X120297619Y-103702380D01*
X120392857Y-103702380D01*
X120535714Y-103750000D01*
X120583333Y-103797619D01*
X121535714Y-104702380D02*
X120964285Y-104702380D01*
X121250000Y-104702380D02*
X121250000Y-103702380D01*
X121154761Y-103845238D01*
X121059523Y-103940476D01*
X120964285Y-103988095D01*
G04 #@! TO.C,C2*
X120633333Y-102827142D02*
X120585714Y-102874761D01*
X120442857Y-102922380D01*
X120347619Y-102922380D01*
X120204761Y-102874761D01*
X120109523Y-102779523D01*
X120061904Y-102684285D01*
X120014285Y-102493809D01*
X120014285Y-102350952D01*
X120061904Y-102160476D01*
X120109523Y-102065238D01*
X120204761Y-101970000D01*
X120347619Y-101922380D01*
X120442857Y-101922380D01*
X120585714Y-101970000D01*
X120633333Y-102017619D01*
X121014285Y-102017619D02*
X121061904Y-101970000D01*
X121157142Y-101922380D01*
X121395238Y-101922380D01*
X121490476Y-101970000D01*
X121538095Y-102017619D01*
X121585714Y-102112857D01*
X121585714Y-102208095D01*
X121538095Y-102350952D01*
X120966666Y-102922380D01*
X121585714Y-102922380D01*
G04 #@! TO.C,C3*
X136563333Y-89297142D02*
X136515714Y-89344761D01*
X136372857Y-89392380D01*
X136277619Y-89392380D01*
X136134761Y-89344761D01*
X136039523Y-89249523D01*
X135991904Y-89154285D01*
X135944285Y-88963809D01*
X135944285Y-88820952D01*
X135991904Y-88630476D01*
X136039523Y-88535238D01*
X136134761Y-88440000D01*
X136277619Y-88392380D01*
X136372857Y-88392380D01*
X136515714Y-88440000D01*
X136563333Y-88487619D01*
X136896666Y-88392380D02*
X137515714Y-88392380D01*
X137182380Y-88773333D01*
X137325238Y-88773333D01*
X137420476Y-88820952D01*
X137468095Y-88868571D01*
X137515714Y-88963809D01*
X137515714Y-89201904D01*
X137468095Y-89297142D01*
X137420476Y-89344761D01*
X137325238Y-89392380D01*
X137039523Y-89392380D01*
X136944285Y-89344761D01*
X136896666Y-89297142D01*
G04 #@! TO.C,C4*
X122243333Y-115547142D02*
X122195714Y-115594761D01*
X122052857Y-115642380D01*
X121957619Y-115642380D01*
X121814761Y-115594761D01*
X121719523Y-115499523D01*
X121671904Y-115404285D01*
X121624285Y-115213809D01*
X121624285Y-115070952D01*
X121671904Y-114880476D01*
X121719523Y-114785238D01*
X121814761Y-114690000D01*
X121957619Y-114642380D01*
X122052857Y-114642380D01*
X122195714Y-114690000D01*
X122243333Y-114737619D01*
X123100476Y-114975714D02*
X123100476Y-115642380D01*
X122862380Y-114594761D02*
X122624285Y-115309047D01*
X123243333Y-115309047D01*
G04 #@! TO.C,C5*
X134083333Y-107107142D02*
X134035714Y-107154761D01*
X133892857Y-107202380D01*
X133797619Y-107202380D01*
X133654761Y-107154761D01*
X133559523Y-107059523D01*
X133511904Y-106964285D01*
X133464285Y-106773809D01*
X133464285Y-106630952D01*
X133511904Y-106440476D01*
X133559523Y-106345238D01*
X133654761Y-106250000D01*
X133797619Y-106202380D01*
X133892857Y-106202380D01*
X134035714Y-106250000D01*
X134083333Y-106297619D01*
X134988095Y-106202380D02*
X134511904Y-106202380D01*
X134464285Y-106678571D01*
X134511904Y-106630952D01*
X134607142Y-106583333D01*
X134845238Y-106583333D01*
X134940476Y-106630952D01*
X134988095Y-106678571D01*
X135035714Y-106773809D01*
X135035714Y-107011904D01*
X134988095Y-107107142D01*
X134940476Y-107154761D01*
X134845238Y-107202380D01*
X134607142Y-107202380D01*
X134511904Y-107154761D01*
X134464285Y-107107142D01*
G04 #@! TO.C,C10*
X160947142Y-90487142D02*
X160899523Y-90534761D01*
X160756666Y-90582380D01*
X160661428Y-90582380D01*
X160518571Y-90534761D01*
X160423333Y-90439523D01*
X160375714Y-90344285D01*
X160328095Y-90153809D01*
X160328095Y-90010952D01*
X160375714Y-89820476D01*
X160423333Y-89725238D01*
X160518571Y-89630000D01*
X160661428Y-89582380D01*
X160756666Y-89582380D01*
X160899523Y-89630000D01*
X160947142Y-89677619D01*
X161899523Y-90582380D02*
X161328095Y-90582380D01*
X161613809Y-90582380D02*
X161613809Y-89582380D01*
X161518571Y-89725238D01*
X161423333Y-89820476D01*
X161328095Y-89868095D01*
X162518571Y-89582380D02*
X162613809Y-89582380D01*
X162709047Y-89630000D01*
X162756666Y-89677619D01*
X162804285Y-89772857D01*
X162851904Y-89963333D01*
X162851904Y-90201428D01*
X162804285Y-90391904D01*
X162756666Y-90487142D01*
X162709047Y-90534761D01*
X162613809Y-90582380D01*
X162518571Y-90582380D01*
X162423333Y-90534761D01*
X162375714Y-90487142D01*
X162328095Y-90391904D01*
X162280476Y-90201428D01*
X162280476Y-89963333D01*
X162328095Y-89772857D01*
X162375714Y-89677619D01*
X162423333Y-89630000D01*
X162518571Y-89582380D01*
G04 #@! TO.C,C11*
X152757142Y-85597142D02*
X152709523Y-85644761D01*
X152566666Y-85692380D01*
X152471428Y-85692380D01*
X152328571Y-85644761D01*
X152233333Y-85549523D01*
X152185714Y-85454285D01*
X152138095Y-85263809D01*
X152138095Y-85120952D01*
X152185714Y-84930476D01*
X152233333Y-84835238D01*
X152328571Y-84740000D01*
X152471428Y-84692380D01*
X152566666Y-84692380D01*
X152709523Y-84740000D01*
X152757142Y-84787619D01*
X153709523Y-85692380D02*
X153138095Y-85692380D01*
X153423809Y-85692380D02*
X153423809Y-84692380D01*
X153328571Y-84835238D01*
X153233333Y-84930476D01*
X153138095Y-84978095D01*
X154661904Y-85692380D02*
X154090476Y-85692380D01*
X154376190Y-85692380D02*
X154376190Y-84692380D01*
X154280952Y-84835238D01*
X154185714Y-84930476D01*
X154090476Y-84978095D01*
G04 #@! TO.C,D4*
X163761904Y-80452380D02*
X163761904Y-79452380D01*
X164000000Y-79452380D01*
X164142857Y-79500000D01*
X164238095Y-79595238D01*
X164285714Y-79690476D01*
X164333333Y-79880952D01*
X164333333Y-80023809D01*
X164285714Y-80214285D01*
X164238095Y-80309523D01*
X164142857Y-80404761D01*
X164000000Y-80452380D01*
X163761904Y-80452380D01*
X165190476Y-79785714D02*
X165190476Y-80452380D01*
X164952380Y-79404761D02*
X164714285Y-80119047D01*
X165333333Y-80119047D01*
G04 #@! TO.C,D7*
X156761904Y-80452380D02*
X156761904Y-79452380D01*
X157000000Y-79452380D01*
X157142857Y-79500000D01*
X157238095Y-79595238D01*
X157285714Y-79690476D01*
X157333333Y-79880952D01*
X157333333Y-80023809D01*
X157285714Y-80214285D01*
X157238095Y-80309523D01*
X157142857Y-80404761D01*
X157000000Y-80452380D01*
X156761904Y-80452380D01*
X157666666Y-79452380D02*
X158333333Y-79452380D01*
X157904761Y-80452380D01*
G04 #@! TO.C,D8*
X160261904Y-80452380D02*
X160261904Y-79452380D01*
X160500000Y-79452380D01*
X160642857Y-79500000D01*
X160738095Y-79595238D01*
X160785714Y-79690476D01*
X160833333Y-79880952D01*
X160833333Y-80023809D01*
X160785714Y-80214285D01*
X160738095Y-80309523D01*
X160642857Y-80404761D01*
X160500000Y-80452380D01*
X160261904Y-80452380D01*
X161404761Y-79880952D02*
X161309523Y-79833333D01*
X161261904Y-79785714D01*
X161214285Y-79690476D01*
X161214285Y-79642857D01*
X161261904Y-79547619D01*
X161309523Y-79500000D01*
X161404761Y-79452380D01*
X161595238Y-79452380D01*
X161690476Y-79500000D01*
X161738095Y-79547619D01*
X161785714Y-79642857D01*
X161785714Y-79690476D01*
X161738095Y-79785714D01*
X161690476Y-79833333D01*
X161595238Y-79880952D01*
X161404761Y-79880952D01*
X161309523Y-79928571D01*
X161261904Y-79976190D01*
X161214285Y-80071428D01*
X161214285Y-80261904D01*
X161261904Y-80357142D01*
X161309523Y-80404761D01*
X161404761Y-80452380D01*
X161595238Y-80452380D01*
X161690476Y-80404761D01*
X161738095Y-80357142D01*
X161785714Y-80261904D01*
X161785714Y-80071428D01*
X161738095Y-79976190D01*
X161690476Y-79928571D01*
X161595238Y-79880952D01*
G04 #@! TO.C,D9*
X149761904Y-80452380D02*
X149761904Y-79452380D01*
X150000000Y-79452380D01*
X150142857Y-79500000D01*
X150238095Y-79595238D01*
X150285714Y-79690476D01*
X150333333Y-79880952D01*
X150333333Y-80023809D01*
X150285714Y-80214285D01*
X150238095Y-80309523D01*
X150142857Y-80404761D01*
X150000000Y-80452380D01*
X149761904Y-80452380D01*
X150809523Y-80452380D02*
X151000000Y-80452380D01*
X151095238Y-80404761D01*
X151142857Y-80357142D01*
X151238095Y-80214285D01*
X151285714Y-80023809D01*
X151285714Y-79642857D01*
X151238095Y-79547619D01*
X151190476Y-79500000D01*
X151095238Y-79452380D01*
X150904761Y-79452380D01*
X150809523Y-79500000D01*
X150761904Y-79547619D01*
X150714285Y-79642857D01*
X150714285Y-79880952D01*
X150761904Y-79976190D01*
X150809523Y-80023809D01*
X150904761Y-80071428D01*
X151095238Y-80071428D01*
X151190476Y-80023809D01*
X151238095Y-79976190D01*
X151285714Y-79880952D01*
G04 #@! TO.C,L1*
X133733333Y-102852380D02*
X133257142Y-102852380D01*
X133257142Y-101852380D01*
X134590476Y-102852380D02*
X134019047Y-102852380D01*
X134304761Y-102852380D02*
X134304761Y-101852380D01*
X134209523Y-101995238D01*
X134114285Y-102090476D01*
X134019047Y-102138095D01*
G04 #@! TO.C,Q5*
X164404761Y-76547619D02*
X164309523Y-76500000D01*
X164214285Y-76404761D01*
X164071428Y-76261904D01*
X163976190Y-76214285D01*
X163880952Y-76214285D01*
X163928571Y-76452380D02*
X163833333Y-76404761D01*
X163738095Y-76309523D01*
X163690476Y-76119047D01*
X163690476Y-75785714D01*
X163738095Y-75595238D01*
X163833333Y-75500000D01*
X163928571Y-75452380D01*
X164119047Y-75452380D01*
X164214285Y-75500000D01*
X164309523Y-75595238D01*
X164357142Y-75785714D01*
X164357142Y-76119047D01*
X164309523Y-76309523D01*
X164214285Y-76404761D01*
X164119047Y-76452380D01*
X163928571Y-76452380D01*
X165261904Y-75452380D02*
X164785714Y-75452380D01*
X164738095Y-75928571D01*
X164785714Y-75880952D01*
X164880952Y-75833333D01*
X165119047Y-75833333D01*
X165214285Y-75880952D01*
X165261904Y-75928571D01*
X165309523Y-76023809D01*
X165309523Y-76261904D01*
X165261904Y-76357142D01*
X165214285Y-76404761D01*
X165119047Y-76452380D01*
X164880952Y-76452380D01*
X164785714Y-76404761D01*
X164738095Y-76357142D01*
G04 #@! TO.C,Q8*
X157404761Y-76547619D02*
X157309523Y-76500000D01*
X157214285Y-76404761D01*
X157071428Y-76261904D01*
X156976190Y-76214285D01*
X156880952Y-76214285D01*
X156928571Y-76452380D02*
X156833333Y-76404761D01*
X156738095Y-76309523D01*
X156690476Y-76119047D01*
X156690476Y-75785714D01*
X156738095Y-75595238D01*
X156833333Y-75500000D01*
X156928571Y-75452380D01*
X157119047Y-75452380D01*
X157214285Y-75500000D01*
X157309523Y-75595238D01*
X157357142Y-75785714D01*
X157357142Y-76119047D01*
X157309523Y-76309523D01*
X157214285Y-76404761D01*
X157119047Y-76452380D01*
X156928571Y-76452380D01*
X157928571Y-75880952D02*
X157833333Y-75833333D01*
X157785714Y-75785714D01*
X157738095Y-75690476D01*
X157738095Y-75642857D01*
X157785714Y-75547619D01*
X157833333Y-75500000D01*
X157928571Y-75452380D01*
X158119047Y-75452380D01*
X158214285Y-75500000D01*
X158261904Y-75547619D01*
X158309523Y-75642857D01*
X158309523Y-75690476D01*
X158261904Y-75785714D01*
X158214285Y-75833333D01*
X158119047Y-75880952D01*
X157928571Y-75880952D01*
X157833333Y-75928571D01*
X157785714Y-75976190D01*
X157738095Y-76071428D01*
X157738095Y-76261904D01*
X157785714Y-76357142D01*
X157833333Y-76404761D01*
X157928571Y-76452380D01*
X158119047Y-76452380D01*
X158214285Y-76404761D01*
X158261904Y-76357142D01*
X158309523Y-76261904D01*
X158309523Y-76071428D01*
X158261904Y-75976190D01*
X158214285Y-75928571D01*
X158119047Y-75880952D01*
G04 #@! TO.C,R2*
X143513333Y-111132380D02*
X143180000Y-110656190D01*
X142941904Y-111132380D02*
X142941904Y-110132380D01*
X143322857Y-110132380D01*
X143418095Y-110180000D01*
X143465714Y-110227619D01*
X143513333Y-110322857D01*
X143513333Y-110465714D01*
X143465714Y-110560952D01*
X143418095Y-110608571D01*
X143322857Y-110656190D01*
X142941904Y-110656190D01*
X143894285Y-110227619D02*
X143941904Y-110180000D01*
X144037142Y-110132380D01*
X144275238Y-110132380D01*
X144370476Y-110180000D01*
X144418095Y-110227619D01*
X144465714Y-110322857D01*
X144465714Y-110418095D01*
X144418095Y-110560952D01*
X143846666Y-111132380D01*
X144465714Y-111132380D01*
G04 #@! TO.C,R3*
X122883333Y-89252380D02*
X122550000Y-88776190D01*
X122311904Y-89252380D02*
X122311904Y-88252380D01*
X122692857Y-88252380D01*
X122788095Y-88300000D01*
X122835714Y-88347619D01*
X122883333Y-88442857D01*
X122883333Y-88585714D01*
X122835714Y-88680952D01*
X122788095Y-88728571D01*
X122692857Y-88776190D01*
X122311904Y-88776190D01*
X123216666Y-88252380D02*
X123835714Y-88252380D01*
X123502380Y-88633333D01*
X123645238Y-88633333D01*
X123740476Y-88680952D01*
X123788095Y-88728571D01*
X123835714Y-88823809D01*
X123835714Y-89061904D01*
X123788095Y-89157142D01*
X123740476Y-89204761D01*
X123645238Y-89252380D01*
X123359523Y-89252380D01*
X123264285Y-89204761D01*
X123216666Y-89157142D01*
G04 #@! TO.C,R4*
X122693333Y-99452380D02*
X122360000Y-98976190D01*
X122121904Y-99452380D02*
X122121904Y-98452380D01*
X122502857Y-98452380D01*
X122598095Y-98500000D01*
X122645714Y-98547619D01*
X122693333Y-98642857D01*
X122693333Y-98785714D01*
X122645714Y-98880952D01*
X122598095Y-98928571D01*
X122502857Y-98976190D01*
X122121904Y-98976190D01*
X123550476Y-98785714D02*
X123550476Y-99452380D01*
X123312380Y-98404761D02*
X123074285Y-99119047D01*
X123693333Y-99119047D01*
G04 #@! TO.C,R5*
X121333333Y-118702380D02*
X121000000Y-118226190D01*
X120761904Y-118702380D02*
X120761904Y-117702380D01*
X121142857Y-117702380D01*
X121238095Y-117750000D01*
X121285714Y-117797619D01*
X121333333Y-117892857D01*
X121333333Y-118035714D01*
X121285714Y-118130952D01*
X121238095Y-118178571D01*
X121142857Y-118226190D01*
X120761904Y-118226190D01*
X122238095Y-117702380D02*
X121761904Y-117702380D01*
X121714285Y-118178571D01*
X121761904Y-118130952D01*
X121857142Y-118083333D01*
X122095238Y-118083333D01*
X122190476Y-118130952D01*
X122238095Y-118178571D01*
X122285714Y-118273809D01*
X122285714Y-118511904D01*
X122238095Y-118607142D01*
X122190476Y-118654761D01*
X122095238Y-118702380D01*
X121857142Y-118702380D01*
X121761904Y-118654761D01*
X121714285Y-118607142D01*
G04 #@! TO.C,R6*
X121203333Y-95672380D02*
X120870000Y-95196190D01*
X120631904Y-95672380D02*
X120631904Y-94672380D01*
X121012857Y-94672380D01*
X121108095Y-94720000D01*
X121155714Y-94767619D01*
X121203333Y-94862857D01*
X121203333Y-95005714D01*
X121155714Y-95100952D01*
X121108095Y-95148571D01*
X121012857Y-95196190D01*
X120631904Y-95196190D01*
X122060476Y-94672380D02*
X121870000Y-94672380D01*
X121774761Y-94720000D01*
X121727142Y-94767619D01*
X121631904Y-94910476D01*
X121584285Y-95100952D01*
X121584285Y-95481904D01*
X121631904Y-95577142D01*
X121679523Y-95624761D01*
X121774761Y-95672380D01*
X121965238Y-95672380D01*
X122060476Y-95624761D01*
X122108095Y-95577142D01*
X122155714Y-95481904D01*
X122155714Y-95243809D01*
X122108095Y-95148571D01*
X122060476Y-95100952D01*
X121965238Y-95053333D01*
X121774761Y-95053333D01*
X121679523Y-95100952D01*
X121631904Y-95148571D01*
X121584285Y-95243809D01*
G04 #@! TO.C,R9*
X119883333Y-115672380D02*
X119550000Y-115196190D01*
X119311904Y-115672380D02*
X119311904Y-114672380D01*
X119692857Y-114672380D01*
X119788095Y-114720000D01*
X119835714Y-114767619D01*
X119883333Y-114862857D01*
X119883333Y-115005714D01*
X119835714Y-115100952D01*
X119788095Y-115148571D01*
X119692857Y-115196190D01*
X119311904Y-115196190D01*
X120359523Y-115672380D02*
X120550000Y-115672380D01*
X120645238Y-115624761D01*
X120692857Y-115577142D01*
X120788095Y-115434285D01*
X120835714Y-115243809D01*
X120835714Y-114862857D01*
X120788095Y-114767619D01*
X120740476Y-114720000D01*
X120645238Y-114672380D01*
X120454761Y-114672380D01*
X120359523Y-114720000D01*
X120311904Y-114767619D01*
X120264285Y-114862857D01*
X120264285Y-115100952D01*
X120311904Y-115196190D01*
X120359523Y-115243809D01*
X120454761Y-115291428D01*
X120645238Y-115291428D01*
X120740476Y-115243809D01*
X120788095Y-115196190D01*
X120835714Y-115100952D01*
G04 #@! TO.C,R10*
X121399784Y-112063017D02*
X121066451Y-111586827D01*
X120828356Y-112063017D02*
X120828356Y-111063017D01*
X121209308Y-111063017D01*
X121304546Y-111110637D01*
X121352165Y-111158256D01*
X121399784Y-111253494D01*
X121399784Y-111396351D01*
X121352165Y-111491589D01*
X121304546Y-111539208D01*
X121209308Y-111586827D01*
X120828356Y-111586827D01*
X122352165Y-112063017D02*
X121780737Y-112063017D01*
X122066451Y-112063017D02*
X122066451Y-111063017D01*
X121971213Y-111205875D01*
X121875975Y-111301113D01*
X121780737Y-111348732D01*
X122971213Y-111063017D02*
X123066451Y-111063017D01*
X123161689Y-111110637D01*
X123209308Y-111158256D01*
X123256927Y-111253494D01*
X123304546Y-111443970D01*
X123304546Y-111682065D01*
X123256927Y-111872541D01*
X123209308Y-111967779D01*
X123161689Y-112015398D01*
X123066451Y-112063017D01*
X122971213Y-112063017D01*
X122875975Y-112015398D01*
X122828356Y-111967779D01*
X122780737Y-111872541D01*
X122733118Y-111682065D01*
X122733118Y-111443970D01*
X122780737Y-111253494D01*
X122828356Y-111158256D01*
X122875975Y-111110637D01*
X122971213Y-111063017D01*
G04 #@! TO.C,R13*
X121357142Y-117202380D02*
X121023809Y-116726190D01*
X120785714Y-117202380D02*
X120785714Y-116202380D01*
X121166666Y-116202380D01*
X121261904Y-116250000D01*
X121309523Y-116297619D01*
X121357142Y-116392857D01*
X121357142Y-116535714D01*
X121309523Y-116630952D01*
X121261904Y-116678571D01*
X121166666Y-116726190D01*
X120785714Y-116726190D01*
X122309523Y-117202380D02*
X121738095Y-117202380D01*
X122023809Y-117202380D02*
X122023809Y-116202380D01*
X121928571Y-116345238D01*
X121833333Y-116440476D01*
X121738095Y-116488095D01*
X122642857Y-116202380D02*
X123261904Y-116202380D01*
X122928571Y-116583333D01*
X123071428Y-116583333D01*
X123166666Y-116630952D01*
X123214285Y-116678571D01*
X123261904Y-116773809D01*
X123261904Y-117011904D01*
X123214285Y-117107142D01*
X123166666Y-117154761D01*
X123071428Y-117202380D01*
X122785714Y-117202380D01*
X122690476Y-117154761D01*
X122642857Y-117107142D01*
G04 #@! TO.C,R16*
X138857142Y-116702380D02*
X138523809Y-116226190D01*
X138285714Y-116702380D02*
X138285714Y-115702380D01*
X138666666Y-115702380D01*
X138761904Y-115750000D01*
X138809523Y-115797619D01*
X138857142Y-115892857D01*
X138857142Y-116035714D01*
X138809523Y-116130952D01*
X138761904Y-116178571D01*
X138666666Y-116226190D01*
X138285714Y-116226190D01*
X139809523Y-116702380D02*
X139238095Y-116702380D01*
X139523809Y-116702380D02*
X139523809Y-115702380D01*
X139428571Y-115845238D01*
X139333333Y-115940476D01*
X139238095Y-115988095D01*
X140666666Y-115702380D02*
X140476190Y-115702380D01*
X140380952Y-115750000D01*
X140333333Y-115797619D01*
X140238095Y-115940476D01*
X140190476Y-116130952D01*
X140190476Y-116511904D01*
X140238095Y-116607142D01*
X140285714Y-116654761D01*
X140380952Y-116702380D01*
X140571428Y-116702380D01*
X140666666Y-116654761D01*
X140714285Y-116607142D01*
X140761904Y-116511904D01*
X140761904Y-116273809D01*
X140714285Y-116178571D01*
X140666666Y-116130952D01*
X140571428Y-116083333D01*
X140380952Y-116083333D01*
X140285714Y-116130952D01*
X140238095Y-116178571D01*
X140190476Y-116273809D01*
G04 #@! TO.C,R17*
X138277142Y-100502380D02*
X137943809Y-100026190D01*
X137705714Y-100502380D02*
X137705714Y-99502380D01*
X138086666Y-99502380D01*
X138181904Y-99550000D01*
X138229523Y-99597619D01*
X138277142Y-99692857D01*
X138277142Y-99835714D01*
X138229523Y-99930952D01*
X138181904Y-99978571D01*
X138086666Y-100026190D01*
X137705714Y-100026190D01*
X139229523Y-100502380D02*
X138658095Y-100502380D01*
X138943809Y-100502380D02*
X138943809Y-99502380D01*
X138848571Y-99645238D01*
X138753333Y-99740476D01*
X138658095Y-99788095D01*
X139562857Y-99502380D02*
X140229523Y-99502380D01*
X139800952Y-100502380D01*
G04 #@! TO.C,R18*
X121379784Y-110063017D02*
X121046451Y-109586827D01*
X120808356Y-110063017D02*
X120808356Y-109063017D01*
X121189308Y-109063017D01*
X121284546Y-109110637D01*
X121332165Y-109158256D01*
X121379784Y-109253494D01*
X121379784Y-109396351D01*
X121332165Y-109491589D01*
X121284546Y-109539208D01*
X121189308Y-109586827D01*
X120808356Y-109586827D01*
X122332165Y-110063017D02*
X121760737Y-110063017D01*
X122046451Y-110063017D02*
X122046451Y-109063017D01*
X121951213Y-109205875D01*
X121855975Y-109301113D01*
X121760737Y-109348732D01*
X122903594Y-109491589D02*
X122808356Y-109443970D01*
X122760737Y-109396351D01*
X122713118Y-109301113D01*
X122713118Y-109253494D01*
X122760737Y-109158256D01*
X122808356Y-109110637D01*
X122903594Y-109063017D01*
X123094070Y-109063017D01*
X123189308Y-109110637D01*
X123236927Y-109158256D01*
X123284546Y-109253494D01*
X123284546Y-109301113D01*
X123236927Y-109396351D01*
X123189308Y-109443970D01*
X123094070Y-109491589D01*
X122903594Y-109491589D01*
X122808356Y-109539208D01*
X122760737Y-109586827D01*
X122713118Y-109682065D01*
X122713118Y-109872541D01*
X122760737Y-109967779D01*
X122808356Y-110015398D01*
X122903594Y-110063017D01*
X123094070Y-110063017D01*
X123189308Y-110015398D01*
X123236927Y-109967779D01*
X123284546Y-109872541D01*
X123284546Y-109682065D01*
X123236927Y-109586827D01*
X123189308Y-109539208D01*
X123094070Y-109491589D01*
G04 #@! TO.C,R19*
X132207142Y-100452380D02*
X131873809Y-99976190D01*
X131635714Y-100452380D02*
X131635714Y-99452380D01*
X132016666Y-99452380D01*
X132111904Y-99500000D01*
X132159523Y-99547619D01*
X132207142Y-99642857D01*
X132207142Y-99785714D01*
X132159523Y-99880952D01*
X132111904Y-99928571D01*
X132016666Y-99976190D01*
X131635714Y-99976190D01*
X133159523Y-100452380D02*
X132588095Y-100452380D01*
X132873809Y-100452380D02*
X132873809Y-99452380D01*
X132778571Y-99595238D01*
X132683333Y-99690476D01*
X132588095Y-99738095D01*
X133635714Y-100452380D02*
X133826190Y-100452380D01*
X133921428Y-100404761D01*
X133969047Y-100357142D01*
X134064285Y-100214285D01*
X134111904Y-100023809D01*
X134111904Y-99642857D01*
X134064285Y-99547619D01*
X134016666Y-99500000D01*
X133921428Y-99452380D01*
X133730952Y-99452380D01*
X133635714Y-99500000D01*
X133588095Y-99547619D01*
X133540476Y-99642857D01*
X133540476Y-99880952D01*
X133588095Y-99976190D01*
X133635714Y-100023809D01*
X133730952Y-100071428D01*
X133921428Y-100071428D01*
X134016666Y-100023809D01*
X134064285Y-99976190D01*
X134111904Y-99880952D01*
G04 #@! TO.C,R21*
X164357142Y-78452380D02*
X164023809Y-77976190D01*
X163785714Y-78452380D02*
X163785714Y-77452380D01*
X164166666Y-77452380D01*
X164261904Y-77500000D01*
X164309523Y-77547619D01*
X164357142Y-77642857D01*
X164357142Y-77785714D01*
X164309523Y-77880952D01*
X164261904Y-77928571D01*
X164166666Y-77976190D01*
X163785714Y-77976190D01*
X164738095Y-77547619D02*
X164785714Y-77500000D01*
X164880952Y-77452380D01*
X165119047Y-77452380D01*
X165214285Y-77500000D01*
X165261904Y-77547619D01*
X165309523Y-77642857D01*
X165309523Y-77738095D01*
X165261904Y-77880952D01*
X164690476Y-78452380D01*
X165309523Y-78452380D01*
X166261904Y-78452380D02*
X165690476Y-78452380D01*
X165976190Y-78452380D02*
X165976190Y-77452380D01*
X165880952Y-77595238D01*
X165785714Y-77690476D01*
X165690476Y-77738095D01*
G04 #@! TO.C,R24*
X157357142Y-78452380D02*
X157023809Y-77976190D01*
X156785714Y-78452380D02*
X156785714Y-77452380D01*
X157166666Y-77452380D01*
X157261904Y-77500000D01*
X157309523Y-77547619D01*
X157357142Y-77642857D01*
X157357142Y-77785714D01*
X157309523Y-77880952D01*
X157261904Y-77928571D01*
X157166666Y-77976190D01*
X156785714Y-77976190D01*
X157738095Y-77547619D02*
X157785714Y-77500000D01*
X157880952Y-77452380D01*
X158119047Y-77452380D01*
X158214285Y-77500000D01*
X158261904Y-77547619D01*
X158309523Y-77642857D01*
X158309523Y-77738095D01*
X158261904Y-77880952D01*
X157690476Y-78452380D01*
X158309523Y-78452380D01*
X159166666Y-77785714D02*
X159166666Y-78452380D01*
X158928571Y-77404761D02*
X158690476Y-78119047D01*
X159309523Y-78119047D01*
G04 #@! TO.C,R25*
X160857142Y-78452380D02*
X160523809Y-77976190D01*
X160285714Y-78452380D02*
X160285714Y-77452380D01*
X160666666Y-77452380D01*
X160761904Y-77500000D01*
X160809523Y-77547619D01*
X160857142Y-77642857D01*
X160857142Y-77785714D01*
X160809523Y-77880952D01*
X160761904Y-77928571D01*
X160666666Y-77976190D01*
X160285714Y-77976190D01*
X161238095Y-77547619D02*
X161285714Y-77500000D01*
X161380952Y-77452380D01*
X161619047Y-77452380D01*
X161714285Y-77500000D01*
X161761904Y-77547619D01*
X161809523Y-77642857D01*
X161809523Y-77738095D01*
X161761904Y-77880952D01*
X161190476Y-78452380D01*
X161809523Y-78452380D01*
X162714285Y-77452380D02*
X162238095Y-77452380D01*
X162190476Y-77928571D01*
X162238095Y-77880952D01*
X162333333Y-77833333D01*
X162571428Y-77833333D01*
X162666666Y-77880952D01*
X162714285Y-77928571D01*
X162761904Y-78023809D01*
X162761904Y-78261904D01*
X162714285Y-78357142D01*
X162666666Y-78404761D01*
X162571428Y-78452380D01*
X162333333Y-78452380D01*
X162238095Y-78404761D01*
X162190476Y-78357142D01*
G04 #@! TO.C,R26*
X150357142Y-78452380D02*
X150023809Y-77976190D01*
X149785714Y-78452380D02*
X149785714Y-77452380D01*
X150166666Y-77452380D01*
X150261904Y-77500000D01*
X150309523Y-77547619D01*
X150357142Y-77642857D01*
X150357142Y-77785714D01*
X150309523Y-77880952D01*
X150261904Y-77928571D01*
X150166666Y-77976190D01*
X149785714Y-77976190D01*
X150738095Y-77547619D02*
X150785714Y-77500000D01*
X150880952Y-77452380D01*
X151119047Y-77452380D01*
X151214285Y-77500000D01*
X151261904Y-77547619D01*
X151309523Y-77642857D01*
X151309523Y-77738095D01*
X151261904Y-77880952D01*
X150690476Y-78452380D01*
X151309523Y-78452380D01*
X152166666Y-77452380D02*
X151976190Y-77452380D01*
X151880952Y-77500000D01*
X151833333Y-77547619D01*
X151738095Y-77690476D01*
X151690476Y-77880952D01*
X151690476Y-78261904D01*
X151738095Y-78357142D01*
X151785714Y-78404761D01*
X151880952Y-78452380D01*
X152071428Y-78452380D01*
X152166666Y-78404761D01*
X152214285Y-78357142D01*
X152261904Y-78261904D01*
X152261904Y-78023809D01*
X152214285Y-77928571D01*
X152166666Y-77880952D01*
X152071428Y-77833333D01*
X151880952Y-77833333D01*
X151785714Y-77880952D01*
X151738095Y-77928571D01*
X151690476Y-78023809D01*
G04 #@! TO.C,R27*
X153857142Y-78452380D02*
X153523809Y-77976190D01*
X153285714Y-78452380D02*
X153285714Y-77452380D01*
X153666666Y-77452380D01*
X153761904Y-77500000D01*
X153809523Y-77547619D01*
X153857142Y-77642857D01*
X153857142Y-77785714D01*
X153809523Y-77880952D01*
X153761904Y-77928571D01*
X153666666Y-77976190D01*
X153285714Y-77976190D01*
X154238095Y-77547619D02*
X154285714Y-77500000D01*
X154380952Y-77452380D01*
X154619047Y-77452380D01*
X154714285Y-77500000D01*
X154761904Y-77547619D01*
X154809523Y-77642857D01*
X154809523Y-77738095D01*
X154761904Y-77880952D01*
X154190476Y-78452380D01*
X154809523Y-78452380D01*
X155142857Y-77452380D02*
X155809523Y-77452380D01*
X155380952Y-78452380D01*
G04 #@! TO.C,D1*
X136261904Y-104702380D02*
X136261904Y-103702380D01*
X136500000Y-103702380D01*
X136642857Y-103750000D01*
X136738095Y-103845238D01*
X136785714Y-103940476D01*
X136833333Y-104130952D01*
X136833333Y-104273809D01*
X136785714Y-104464285D01*
X136738095Y-104559523D01*
X136642857Y-104654761D01*
X136500000Y-104702380D01*
X136261904Y-104702380D01*
X137785714Y-104702380D02*
X137214285Y-104702380D01*
X137500000Y-104702380D02*
X137500000Y-103702380D01*
X137404761Y-103845238D01*
X137309523Y-103940476D01*
X137214285Y-103988095D01*
G04 #@! TO.C,C7*
X139473333Y-108727142D02*
X139425714Y-108774761D01*
X139282857Y-108822380D01*
X139187619Y-108822380D01*
X139044761Y-108774761D01*
X138949523Y-108679523D01*
X138901904Y-108584285D01*
X138854285Y-108393809D01*
X138854285Y-108250952D01*
X138901904Y-108060476D01*
X138949523Y-107965238D01*
X139044761Y-107870000D01*
X139187619Y-107822380D01*
X139282857Y-107822380D01*
X139425714Y-107870000D01*
X139473333Y-107917619D01*
X139806666Y-107822380D02*
X140473333Y-107822380D01*
X140044761Y-108822380D01*
G04 #@! TO.C,D10*
X153285714Y-80452380D02*
X153285714Y-79452380D01*
X153523809Y-79452380D01*
X153666666Y-79500000D01*
X153761904Y-79595238D01*
X153809523Y-79690476D01*
X153857142Y-79880952D01*
X153857142Y-80023809D01*
X153809523Y-80214285D01*
X153761904Y-80309523D01*
X153666666Y-80404761D01*
X153523809Y-80452380D01*
X153285714Y-80452380D01*
X154809523Y-80452380D02*
X154238095Y-80452380D01*
X154523809Y-80452380D02*
X154523809Y-79452380D01*
X154428571Y-79595238D01*
X154333333Y-79690476D01*
X154238095Y-79738095D01*
X155428571Y-79452380D02*
X155523809Y-79452380D01*
X155619047Y-79500000D01*
X155666666Y-79547619D01*
X155714285Y-79642857D01*
X155761904Y-79833333D01*
X155761904Y-80071428D01*
X155714285Y-80261904D01*
X155666666Y-80357142D01*
X155619047Y-80404761D01*
X155523809Y-80452380D01*
X155428571Y-80452380D01*
X155333333Y-80404761D01*
X155285714Y-80357142D01*
X155238095Y-80261904D01*
X155190476Y-80071428D01*
X155190476Y-79833333D01*
X155238095Y-79642857D01*
X155285714Y-79547619D01*
X155333333Y-79500000D01*
X155428571Y-79452380D01*
G04 #@! TO.C,D11*
X105835714Y-120752380D02*
X105835714Y-119752380D01*
X106073809Y-119752380D01*
X106216666Y-119800000D01*
X106311904Y-119895238D01*
X106359523Y-119990476D01*
X106407142Y-120180952D01*
X106407142Y-120323809D01*
X106359523Y-120514285D01*
X106311904Y-120609523D01*
X106216666Y-120704761D01*
X106073809Y-120752380D01*
X105835714Y-120752380D01*
X107359523Y-120752380D02*
X106788095Y-120752380D01*
X107073809Y-120752380D02*
X107073809Y-119752380D01*
X106978571Y-119895238D01*
X106883333Y-119990476D01*
X106788095Y-120038095D01*
X108311904Y-120752380D02*
X107740476Y-120752380D01*
X108026190Y-120752380D02*
X108026190Y-119752380D01*
X107930952Y-119895238D01*
X107835714Y-119990476D01*
X107740476Y-120038095D01*
G04 #@! TO.C,Q9*
X160904761Y-76547619D02*
X160809523Y-76500000D01*
X160714285Y-76404761D01*
X160571428Y-76261904D01*
X160476190Y-76214285D01*
X160380952Y-76214285D01*
X160428571Y-76452380D02*
X160333333Y-76404761D01*
X160238095Y-76309523D01*
X160190476Y-76119047D01*
X160190476Y-75785714D01*
X160238095Y-75595238D01*
X160333333Y-75500000D01*
X160428571Y-75452380D01*
X160619047Y-75452380D01*
X160714285Y-75500000D01*
X160809523Y-75595238D01*
X160857142Y-75785714D01*
X160857142Y-76119047D01*
X160809523Y-76309523D01*
X160714285Y-76404761D01*
X160619047Y-76452380D01*
X160428571Y-76452380D01*
X161333333Y-76452380D02*
X161523809Y-76452380D01*
X161619047Y-76404761D01*
X161666666Y-76357142D01*
X161761904Y-76214285D01*
X161809523Y-76023809D01*
X161809523Y-75642857D01*
X161761904Y-75547619D01*
X161714285Y-75500000D01*
X161619047Y-75452380D01*
X161428571Y-75452380D01*
X161333333Y-75500000D01*
X161285714Y-75547619D01*
X161238095Y-75642857D01*
X161238095Y-75880952D01*
X161285714Y-75976190D01*
X161333333Y-76023809D01*
X161428571Y-76071428D01*
X161619047Y-76071428D01*
X161714285Y-76023809D01*
X161761904Y-75976190D01*
X161809523Y-75880952D01*
G04 #@! TO.C,Q11*
X153928571Y-76547619D02*
X153833333Y-76500000D01*
X153738095Y-76404761D01*
X153595238Y-76261904D01*
X153500000Y-76214285D01*
X153404761Y-76214285D01*
X153452380Y-76452380D02*
X153357142Y-76404761D01*
X153261904Y-76309523D01*
X153214285Y-76119047D01*
X153214285Y-75785714D01*
X153261904Y-75595238D01*
X153357142Y-75500000D01*
X153452380Y-75452380D01*
X153642857Y-75452380D01*
X153738095Y-75500000D01*
X153833333Y-75595238D01*
X153880952Y-75785714D01*
X153880952Y-76119047D01*
X153833333Y-76309523D01*
X153738095Y-76404761D01*
X153642857Y-76452380D01*
X153452380Y-76452380D01*
X154833333Y-76452380D02*
X154261904Y-76452380D01*
X154547619Y-76452380D02*
X154547619Y-75452380D01*
X154452380Y-75595238D01*
X154357142Y-75690476D01*
X154261904Y-75738095D01*
X155785714Y-76452380D02*
X155214285Y-76452380D01*
X155500000Y-76452380D02*
X155500000Y-75452380D01*
X155404761Y-75595238D01*
X155309523Y-75690476D01*
X155214285Y-75738095D01*
G04 #@! TO.C,R28*
X109937142Y-120782380D02*
X109603809Y-120306190D01*
X109365714Y-120782380D02*
X109365714Y-119782380D01*
X109746666Y-119782380D01*
X109841904Y-119830000D01*
X109889523Y-119877619D01*
X109937142Y-119972857D01*
X109937142Y-120115714D01*
X109889523Y-120210952D01*
X109841904Y-120258571D01*
X109746666Y-120306190D01*
X109365714Y-120306190D01*
X110318095Y-119877619D02*
X110365714Y-119830000D01*
X110460952Y-119782380D01*
X110699047Y-119782380D01*
X110794285Y-119830000D01*
X110841904Y-119877619D01*
X110889523Y-119972857D01*
X110889523Y-120068095D01*
X110841904Y-120210952D01*
X110270476Y-120782380D01*
X110889523Y-120782380D01*
X111460952Y-120210952D02*
X111365714Y-120163333D01*
X111318095Y-120115714D01*
X111270476Y-120020476D01*
X111270476Y-119972857D01*
X111318095Y-119877619D01*
X111365714Y-119830000D01*
X111460952Y-119782380D01*
X111651428Y-119782380D01*
X111746666Y-119830000D01*
X111794285Y-119877619D01*
X111841904Y-119972857D01*
X111841904Y-120020476D01*
X111794285Y-120115714D01*
X111746666Y-120163333D01*
X111651428Y-120210952D01*
X111460952Y-120210952D01*
X111365714Y-120258571D01*
X111318095Y-120306190D01*
X111270476Y-120401428D01*
X111270476Y-120591904D01*
X111318095Y-120687142D01*
X111365714Y-120734761D01*
X111460952Y-120782380D01*
X111651428Y-120782380D01*
X111746666Y-120734761D01*
X111794285Y-120687142D01*
X111841904Y-120591904D01*
X111841904Y-120401428D01*
X111794285Y-120306190D01*
X111746666Y-120258571D01*
X111651428Y-120210952D01*
G04 #@! TO.C,U2*
X153478095Y-115442380D02*
X153478095Y-116251904D01*
X153525714Y-116347142D01*
X153573333Y-116394761D01*
X153668571Y-116442380D01*
X153859047Y-116442380D01*
X153954285Y-116394761D01*
X154001904Y-116347142D01*
X154049523Y-116251904D01*
X154049523Y-115442380D01*
X154478095Y-115537619D02*
X154525714Y-115490000D01*
X154620952Y-115442380D01*
X154859047Y-115442380D01*
X154954285Y-115490000D01*
X155001904Y-115537619D01*
X155049523Y-115632857D01*
X155049523Y-115728095D01*
X155001904Y-115870952D01*
X154430476Y-116442380D01*
X155049523Y-116442380D01*
G04 #@! TO.C,C12*
X133277142Y-73727142D02*
X133229523Y-73774761D01*
X133086666Y-73822380D01*
X132991428Y-73822380D01*
X132848571Y-73774761D01*
X132753333Y-73679523D01*
X132705714Y-73584285D01*
X132658095Y-73393809D01*
X132658095Y-73250952D01*
X132705714Y-73060476D01*
X132753333Y-72965238D01*
X132848571Y-72870000D01*
X132991428Y-72822380D01*
X133086666Y-72822380D01*
X133229523Y-72870000D01*
X133277142Y-72917619D01*
X134229523Y-73822380D02*
X133658095Y-73822380D01*
X133943809Y-73822380D02*
X133943809Y-72822380D01*
X133848571Y-72965238D01*
X133753333Y-73060476D01*
X133658095Y-73108095D01*
X134610476Y-72917619D02*
X134658095Y-72870000D01*
X134753333Y-72822380D01*
X134991428Y-72822380D01*
X135086666Y-72870000D01*
X135134285Y-72917619D01*
X135181904Y-73012857D01*
X135181904Y-73108095D01*
X135134285Y-73250952D01*
X134562857Y-73822380D01*
X135181904Y-73822380D01*
G04 #@! TO.C,Q2*
X135854761Y-87297619D02*
X135759523Y-87250000D01*
X135664285Y-87154761D01*
X135521428Y-87011904D01*
X135426190Y-86964285D01*
X135330952Y-86964285D01*
X135378571Y-87202380D02*
X135283333Y-87154761D01*
X135188095Y-87059523D01*
X135140476Y-86869047D01*
X135140476Y-86535714D01*
X135188095Y-86345238D01*
X135283333Y-86250000D01*
X135378571Y-86202380D01*
X135569047Y-86202380D01*
X135664285Y-86250000D01*
X135759523Y-86345238D01*
X135807142Y-86535714D01*
X135807142Y-86869047D01*
X135759523Y-87059523D01*
X135664285Y-87154761D01*
X135569047Y-87202380D01*
X135378571Y-87202380D01*
X136188095Y-86297619D02*
X136235714Y-86250000D01*
X136330952Y-86202380D01*
X136569047Y-86202380D01*
X136664285Y-86250000D01*
X136711904Y-86297619D01*
X136759523Y-86392857D01*
X136759523Y-86488095D01*
X136711904Y-86630952D01*
X136140476Y-87202380D01*
X136759523Y-87202380D01*
G04 #@! TO.C,R1*
X125573333Y-73652380D02*
X125240000Y-73176190D01*
X125001904Y-73652380D02*
X125001904Y-72652380D01*
X125382857Y-72652380D01*
X125478095Y-72700000D01*
X125525714Y-72747619D01*
X125573333Y-72842857D01*
X125573333Y-72985714D01*
X125525714Y-73080952D01*
X125478095Y-73128571D01*
X125382857Y-73176190D01*
X125001904Y-73176190D01*
X126525714Y-73652380D02*
X125954285Y-73652380D01*
X126240000Y-73652380D02*
X126240000Y-72652380D01*
X126144761Y-72795238D01*
X126049523Y-72890476D01*
X125954285Y-72938095D01*
G04 #@! TO.C,R7*
X122763333Y-85642380D02*
X122430000Y-85166190D01*
X122191904Y-85642380D02*
X122191904Y-84642380D01*
X122572857Y-84642380D01*
X122668095Y-84690000D01*
X122715714Y-84737619D01*
X122763333Y-84832857D01*
X122763333Y-84975714D01*
X122715714Y-85070952D01*
X122668095Y-85118571D01*
X122572857Y-85166190D01*
X122191904Y-85166190D01*
X123096666Y-84642380D02*
X123763333Y-84642380D01*
X123334761Y-85642380D01*
G04 #@! TO.C,R11*
X120827142Y-76472380D02*
X120493809Y-75996190D01*
X120255714Y-76472380D02*
X120255714Y-75472380D01*
X120636666Y-75472380D01*
X120731904Y-75520000D01*
X120779523Y-75567619D01*
X120827142Y-75662857D01*
X120827142Y-75805714D01*
X120779523Y-75900952D01*
X120731904Y-75948571D01*
X120636666Y-75996190D01*
X120255714Y-75996190D01*
X121779523Y-76472380D02*
X121208095Y-76472380D01*
X121493809Y-76472380D02*
X121493809Y-75472380D01*
X121398571Y-75615238D01*
X121303333Y-75710476D01*
X121208095Y-75758095D01*
X122731904Y-76472380D02*
X122160476Y-76472380D01*
X122446190Y-76472380D02*
X122446190Y-75472380D01*
X122350952Y-75615238D01*
X122255714Y-75710476D01*
X122160476Y-75758095D01*
G04 #@! TO.C,R14*
X138057142Y-87202380D02*
X137723809Y-86726190D01*
X137485714Y-87202380D02*
X137485714Y-86202380D01*
X137866666Y-86202380D01*
X137961904Y-86250000D01*
X138009523Y-86297619D01*
X138057142Y-86392857D01*
X138057142Y-86535714D01*
X138009523Y-86630952D01*
X137961904Y-86678571D01*
X137866666Y-86726190D01*
X137485714Y-86726190D01*
X139009523Y-87202380D02*
X138438095Y-87202380D01*
X138723809Y-87202380D02*
X138723809Y-86202380D01*
X138628571Y-86345238D01*
X138533333Y-86440476D01*
X138438095Y-86488095D01*
X139866666Y-86535714D02*
X139866666Y-87202380D01*
X139628571Y-86154761D02*
X139390476Y-86869047D01*
X140009523Y-86869047D01*
G04 #@! TO.C,R15*
X163537142Y-95132380D02*
X163203809Y-94656190D01*
X162965714Y-95132380D02*
X162965714Y-94132380D01*
X163346666Y-94132380D01*
X163441904Y-94180000D01*
X163489523Y-94227619D01*
X163537142Y-94322857D01*
X163537142Y-94465714D01*
X163489523Y-94560952D01*
X163441904Y-94608571D01*
X163346666Y-94656190D01*
X162965714Y-94656190D01*
X164489523Y-95132380D02*
X163918095Y-95132380D01*
X164203809Y-95132380D02*
X164203809Y-94132380D01*
X164108571Y-94275238D01*
X164013333Y-94370476D01*
X163918095Y-94418095D01*
X165394285Y-94132380D02*
X164918095Y-94132380D01*
X164870476Y-94608571D01*
X164918095Y-94560952D01*
X165013333Y-94513333D01*
X165251428Y-94513333D01*
X165346666Y-94560952D01*
X165394285Y-94608571D01*
X165441904Y-94703809D01*
X165441904Y-94941904D01*
X165394285Y-95037142D01*
X165346666Y-95084761D01*
X165251428Y-95132380D01*
X165013333Y-95132380D01*
X164918095Y-95084761D01*
X164870476Y-95037142D01*
G04 #@! TO.C,R20*
X132557142Y-87202380D02*
X132223809Y-86726190D01*
X131985714Y-87202380D02*
X131985714Y-86202380D01*
X132366666Y-86202380D01*
X132461904Y-86250000D01*
X132509523Y-86297619D01*
X132557142Y-86392857D01*
X132557142Y-86535714D01*
X132509523Y-86630952D01*
X132461904Y-86678571D01*
X132366666Y-86726190D01*
X131985714Y-86726190D01*
X132938095Y-86297619D02*
X132985714Y-86250000D01*
X133080952Y-86202380D01*
X133319047Y-86202380D01*
X133414285Y-86250000D01*
X133461904Y-86297619D01*
X133509523Y-86392857D01*
X133509523Y-86488095D01*
X133461904Y-86630952D01*
X132890476Y-87202380D01*
X133509523Y-87202380D01*
X134128571Y-86202380D02*
X134223809Y-86202380D01*
X134319047Y-86250000D01*
X134366666Y-86297619D01*
X134414285Y-86392857D01*
X134461904Y-86583333D01*
X134461904Y-86821428D01*
X134414285Y-87011904D01*
X134366666Y-87107142D01*
X134319047Y-87154761D01*
X134223809Y-87202380D01*
X134128571Y-87202380D01*
X134033333Y-87154761D01*
X133985714Y-87107142D01*
X133938095Y-87011904D01*
X133890476Y-86821428D01*
X133890476Y-86583333D01*
X133938095Y-86392857D01*
X133985714Y-86297619D01*
X134033333Y-86250000D01*
X134128571Y-86202380D01*
G04 #@! TO.C,U1*
X136438095Y-75452380D02*
X136438095Y-76261904D01*
X136485714Y-76357142D01*
X136533333Y-76404761D01*
X136628571Y-76452380D01*
X136819047Y-76452380D01*
X136914285Y-76404761D01*
X136961904Y-76357142D01*
X137009523Y-76261904D01*
X137009523Y-75452380D01*
X138009523Y-76452380D02*
X137438095Y-76452380D01*
X137723809Y-76452380D02*
X137723809Y-75452380D01*
X137628571Y-75595238D01*
X137533333Y-75690476D01*
X137438095Y-75738095D01*
G04 #@! TO.C,D2*
X167261904Y-80452380D02*
X167261904Y-79452380D01*
X167500000Y-79452380D01*
X167642857Y-79500000D01*
X167738095Y-79595238D01*
X167785714Y-79690476D01*
X167833333Y-79880952D01*
X167833333Y-80023809D01*
X167785714Y-80214285D01*
X167738095Y-80309523D01*
X167642857Y-80404761D01*
X167500000Y-80452380D01*
X167261904Y-80452380D01*
X168214285Y-79547619D02*
X168261904Y-79500000D01*
X168357142Y-79452380D01*
X168595238Y-79452380D01*
X168690476Y-79500000D01*
X168738095Y-79547619D01*
X168785714Y-79642857D01*
X168785714Y-79738095D01*
X168738095Y-79880952D01*
X168166666Y-80452380D01*
X168785714Y-80452380D01*
G04 #@! TO.C,Q3*
X167904761Y-76547619D02*
X167809523Y-76500000D01*
X167714285Y-76404761D01*
X167571428Y-76261904D01*
X167476190Y-76214285D01*
X167380952Y-76214285D01*
X167428571Y-76452380D02*
X167333333Y-76404761D01*
X167238095Y-76309523D01*
X167190476Y-76119047D01*
X167190476Y-75785714D01*
X167238095Y-75595238D01*
X167333333Y-75500000D01*
X167428571Y-75452380D01*
X167619047Y-75452380D01*
X167714285Y-75500000D01*
X167809523Y-75595238D01*
X167857142Y-75785714D01*
X167857142Y-76119047D01*
X167809523Y-76309523D01*
X167714285Y-76404761D01*
X167619047Y-76452380D01*
X167428571Y-76452380D01*
X168190476Y-75452380D02*
X168809523Y-75452380D01*
X168476190Y-75833333D01*
X168619047Y-75833333D01*
X168714285Y-75880952D01*
X168761904Y-75928571D01*
X168809523Y-76023809D01*
X168809523Y-76261904D01*
X168761904Y-76357142D01*
X168714285Y-76404761D01*
X168619047Y-76452380D01*
X168333333Y-76452380D01*
X168238095Y-76404761D01*
X168190476Y-76357142D01*
G04 #@! TO.C,R22*
X167857142Y-78452380D02*
X167523809Y-77976190D01*
X167285714Y-78452380D02*
X167285714Y-77452380D01*
X167666666Y-77452380D01*
X167761904Y-77500000D01*
X167809523Y-77547619D01*
X167857142Y-77642857D01*
X167857142Y-77785714D01*
X167809523Y-77880952D01*
X167761904Y-77928571D01*
X167666666Y-77976190D01*
X167285714Y-77976190D01*
X168238095Y-77547619D02*
X168285714Y-77500000D01*
X168380952Y-77452380D01*
X168619047Y-77452380D01*
X168714285Y-77500000D01*
X168761904Y-77547619D01*
X168809523Y-77642857D01*
X168809523Y-77738095D01*
X168761904Y-77880952D01*
X168190476Y-78452380D01*
X168809523Y-78452380D01*
X169190476Y-77547619D02*
X169238095Y-77500000D01*
X169333333Y-77452380D01*
X169571428Y-77452380D01*
X169666666Y-77500000D01*
X169714285Y-77547619D01*
X169761904Y-77642857D01*
X169761904Y-77738095D01*
X169714285Y-77880952D01*
X169142857Y-78452380D01*
X169761904Y-78452380D01*
G04 #@! TD*
M02*
